<?xml version="1.0" encoding="UTF-8" standalone="no"?>
<!-- Created with matplotlib (http://matplotlib.org/) -->

<svg
   xmlns:dc="http://purl.org/dc/elements/1.1/"
   xmlns:cc="http://creativecommons.org/ns#"
   xmlns:rdf="http://www.w3.org/1999/02/22-rdf-syntax-ns#"
   xmlns:svg="http://www.w3.org/2000/svg"
   xmlns="http://www.w3.org/2000/svg"
   xmlns:xlink="http://www.w3.org/1999/xlink"
   xmlns:sodipodi="http://sodipodi.sourceforge.net/DTD/sodipodi-0.dtd"
   xmlns:inkscape="http://www.inkscape.org/namespaces/inkscape"
   height="432pt"
   version="1.1"
   viewBox="0 0 576 432"
   width="576pt"
   id="svg7969"
   inkscape:version="0.48.3.1 r9886"
   sodipodi:docname="tau_unconstrained_Ep.svg">
  <metadata
     id="metadata8525">
    <rdf:RDF>
      <cc:Work
         rdf:about="">
        <dc:format>image/svg+xml</dc:format>
        <dc:type
           rdf:resource="http://purl.org/dc/dcmitype/StillImage" />
        <dc:title></dc:title>
      </cc:Work>
    </rdf:RDF>
  </metadata>
  <sodipodi:namedview
     pagecolor="#ffffff"
     bordercolor="#666666"
     borderopacity="1"
     objecttolerance="10"
     gridtolerance="10"
     guidetolerance="10"
     inkscape:pageopacity="0"
     inkscape:pageshadow="2"
     inkscape:window-width="1535"
     inkscape:window-height="876"
     id="namedview8523"
     showgrid="false"
     inkscape:zoom="0.81111111"
     inkscape:cx="550.23648"
     inkscape:cy="341.59471"
     inkscape:window-x="65"
     inkscape:window-y="24"
     inkscape:window-maximized="1"
     inkscape:current-layer="figure_1" />
  <defs
     id="defs7971">
    <style
       type="text/css"
       id="style7973">
*{stroke-linecap:butt;stroke-linejoin:round;}
  </style>
  </defs>
  <g
     id="figure_1">
    <g
       id="patch_1" />
    <g
       id="axes_1">
      <g
         id="patch_2">
        <path
           d=" M72 388.8 L518.4 388.8 L518.4 43.2 L72 43.2 z "
           style="fill:#ffffff;"
           id="path7981" />
      </g>
      <g
         id="line2d_1">
        <path
           clip-path="url(#p7ff5b81e1d)"
           d=" M72 216 L180.864 215.889 L186.505 215.478 L196.524 214.741 L201.744 214.602 L206.796 214.69 L212.352 215.014 L220.098 215.713 L233.317 216.913 L239.716 217.248 L245.273 217.32 L250.745 217.168 L257.06 216.756 L267.332 216.056 L324.416 215.936 L352.116 216.221 L378.637 216.277 L420.65 216.747 L420.903 216.264 L422.755 216.169 L422.923 215.894 L427.554 215.91 L445.151 216.019 L448.771 216.014 L449.024 227.178 L451.465 230.626 L453.739 233.507 L454.58 234.716 L457.527 238.742 L460.306 242.174 L461.484 243.713 L463.926 246.812 L466.284 249.442 L466.957 250.291 L469.062 252.603 L474.366 257.83 L474.787 258.243 L475.124 258.655 L476.976 260.301 L478.744 261.589 L478.997 261.842 L479.334 262.213 L481.102 263.55 L485.396 266.307 L485.817 266.51 L486.069 266.836 L487.922 267.918 L488.09 269.008 L490.868 269.479 L491.037 269.473 L491.374 268.79 L491.542 268.904 L491.626 269.231 L491.71 270.092 L491.794 270.047 L493.057 270.281 L493.563 270.283 L493.647 269.742 L493.731 269.776 L494.405 269.592 L495.331 269.747 L495.499 270.895 L495.583 270.829 L495.752 270.968 L496.594 270.939 L496.762 270.595 L499.709 270.229 L499.877 271.04 L500.046 270.946 L500.214 270.433 L500.888 270.249 L502.403 269.808 L502.571 269.683 L502.74 269.748 L502.908 269.726 L503.666 269.479 L503.919 269.328 L504.003 269.031 L504.255 264.57 L504.508 261.812 L504.592 256.205 L504.76 258.476 L505.013 260.233 L505.181 260.514 L505.35 260.424 L505.518 260.115 L505.602 258.61 L505.687 264.668 L505.771 264.169 L506.529 259.752 L506.781 258.598 L506.865 253.508 L506.95 258.141 L507.034 255.317 L507.118 257.541 L507.202 253.336 L507.286 254.27 L507.371 256.157 L507.455 252.649 L507.539 255.18 L507.623 252.166 L507.707 252.431 L507.876 251.181 L508.044 249.008 L508.128 245.971 L508.212 246.743 L508.297 246.359 L508.381 246.716 L508.465 246.657 L508.886 240.4 L508.97 106.311 L509.054 282.057 L509.139 279.748 L509.307 274.1 L509.391 307.286 L509.475 292.063 L509.56 220.921 L509.644 238.057 L509.812 300.047 L509.981 297.834 L510.233 297.43 L510.317 295.488 L510.486 280.417 L510.654 275.964 L510.738 270.964 L510.822 255.749 L510.907 279.892 L510.991 277.459 L511.075 291.494 L511.159 290.709 L511.243 296.964 L511.328 296.012 L511.749 295.29 L513.096 293.117 L513.348 292.401 L513.433 292.447 L513.685 291.861 L513.769 292.095 L513.853 291.298 L513.938 291.884 L514.022 287.282 L514.19 291.605 L514.359 291.075 L514.527 290.811 L515.369 289.281 L515.453 302.714 L515.537 275.538 L515.622 304.794 L515.706 265.216 L515.79 289.715 L515.874 288.844 L516.379 287.808 L516.464 288.44 L516.548 290.044 L516.632 284.615 L516.716 308.329 L516.8 259.446 L516.884 298.578 L516.969 275.782 L517.053 309.626 L517.137 294.736 L517.221 243.163 L517.305 311.735 L517.39 293.184 L517.474 281.811 L517.558 234.453 L517.642 290.298 L517.726 285.129 L517.811 284.663 L517.895 286.287 L517.979 284.442 L518.063 284.936 L518.147 284.016 L518.232 285.976 L518.316 297.7 L518.316 297.7"
           style="fill:none;stroke:#0000ff;stroke-linecap:square;stroke-width:2.0;"
           id="path7984" />
      </g>
      <g
         id="line2d_2">
        <path
           clip-path="url(#p7ff5b81e1d)"
           d=" M72 244.157 L112.919 244.268 L129.673 244.464 L141.04 244.831 L154.679 245.516 L175.054 246.534 L182.211 246.703 L189.367 246.615 L197.45 246.296 L212.016 245.659 L217.236 245.705 L222.624 245.981 L229.612 246.579 L239.716 247.433 L245.188 247.648 L250.324 247.616 L256.134 247.339 L268.174 246.679 L275.077 246.838 L294.358 247.402 L300.42 247.279 L306.145 246.939 L311.871 246.37 L318.017 245.527 L325.763 244.216 L342.517 241.301 L348.916 240.453 L354.978 239.873 L360.282 239.577 L372.996 239.817 L385.457 240.18 L390.929 240.091 L395.728 239.791 L400.191 239.293 L404.737 238.559 L409.368 237.583 L414.42 236.288 L420.566 234.473 L420.65 234.447 L420.903 233.746 L422.755 233.396 L422.923 233.081 L425.028 232.743 L428.228 231.968 L436.479 229.644 L443.298 227.846 L448.097 226.806 L448.771 226.681 L448.939 236.196 L449.108 236.461 L450.287 236.917 L452.139 237.964 L453.402 238.971 L454.328 239.571 L457.864 238.895 L460.558 238.131 L461.148 237.877 L461.737 237.345 L463.842 235.738 L467.294 233.152 L469.146 231.496 L470.914 229.911 L472.514 228.228 L474.282 226.696 L474.787 226.219 L475.208 225.663 L476.724 224.075 L478.323 222.721 L478.997 222.134 L479.418 221.595 L480.849 220.194 L482.28 219.091 L482.533 218.828 L483.122 218.213 L484.554 217.008 L486.153 215.713 L487.585 214.52 L487.922 214.282 L488.09 213.399 L490.111 213.135 L490.868 213.047 L491.037 212.994 L491.289 213.863 L491.374 213.834 L491.542 213.72 L491.879 212.45 L492.889 211.491 L493.563 210.721 L493.731 211.854 L494.236 213.088 L495.246 213.139 L495.331 213.152 L495.583 211.496 L496.004 210.399 L496.594 208.965 L496.762 209.879 L497.688 211.346 L498.446 212.144 L499.204 212.63 L499.625 212.79 L499.709 212.697 L499.877 211.077 L500.046 210.486 L500.214 211.135 L500.635 211.258 L501.393 211.281 L501.645 211.127 L502.403 210.926 L502.487 211.018 L503.077 210.295 L503.413 210.111 L503.919 209.734 L504.003 211.208 L504.171 234.011 L504.508 249.283 L504.592 251.729 L504.845 218.457 L505.097 211.552 L505.434 208.301 L505.518 207.926 L505.602 212.118 L505.687 195.354 L505.771 197.386 L506.108 201.979 L506.529 204.536 L506.781 205.389 L506.865 220.969 L506.95 199.823 L507.034 211.295 L507.118 201.04 L507.202 216.703 L507.371 199.519 L507.455 215.688 L507.539 199.175 L507.623 214.378 L507.707 207.282 L507.791 208.306 L508.044 213.576 L508.128 222.063 L508.212 211.125 L508.297 213.42 L508.381 210.355 L508.465 210.744 L508.633 223.354 L508.718 220.201 L508.886 216.584 L508.97 387.299 L509.054 44.591 L509.139 49.9582 L509.307 64.8492 L509.391 390.175 L509.475 390.165 L509.56 390.15 L509.728 167.485 L509.981 190.812 L510.149 190.763 L510.233 190.683 L510.317 189.562 L510.486 173.903 L510.57 173.274 L510.654 174.656 L510.738 183.797 L510.822 228.62 L510.991 181.569 L511.075 169.648 L511.159 171.957 L511.243 170.133 L511.328 172.139 L511.412 171.93 L511.496 171.815 L511.917 170.131 L512.675 167.931 L512.759 167.727 L512.843 167.108 L512.927 167.978 L513.012 166.266 L513.096 167.849 L513.18 166.068 L513.264 168.004 L513.348 166.128 L513.433 167.425 L513.517 166.936 L513.601 167.235 L513.685 165.756 L513.769 166.681 L513.853 166.409 L513.938 167.085 L514.022 178.078 L514.106 166.478 L514.19 166.92 L514.274 167.549 L514.695 165.522 L515.369 163.433 L515.453 150.046 L515.537 177.88 L515.622 148.652 L515.706 181.899 L515.79 160.337 L515.874 161.092 L516.127 160.546 L516.211 160.53 L516.295 160.668 L516.379 160.064 L516.548 156.49 L516.632 164.88 L516.716 140.889 L516.8 182.102 L516.884 146.331 L516.969 171.915 L517.053 138.351 L517.137 147.375 L517.221 199.932 L517.305 137.242 L517.39 145.927 L517.474 151.672 L517.558 218.418 L517.642 148.1 L517.726 160.848 L517.811 160.704 L517.895 156.79 L518.063 158.743 L518.147 159.313 L518.316 144.186 L518.316 144.186"
           style="fill:none;stroke:#008000;stroke-linecap:square;stroke-width:2.0;"
           id="path7987" />
      </g>
      <g
         id="line2d_3">
        <path
           clip-path="url(#p7ff5b81e1d)"
           d=" M72 215.508 L183.895 215.397 L196.608 215.2 L203.259 215.346 L209.911 215.718 L218.162 216.42 L235.843 217.984 L242.915 218.338 L249.567 218.45 L257.06 218.344 L270.615 218.107 L300.588 218.317 L318.438 218.678 L349.59 219.367 L382.762 219.584 L393.876 219.437 L403.138 219.099 L411.557 218.57 L419.892 217.823 L420.734 217.661 L420.987 217.568 L427.049 216.87 L433.869 216.478 L443.046 216.181 L448.771 216.079 L448.939 226.607 L449.192 227.127 L451.886 230.748 L454.075 233.374 L454.58 234.123 L457.611 238.078 L460.39 241.346 L461.232 242.432 L463.253 244.954 L465.61 247.574 L467.715 249.908 L469.82 252.008 L470.83 253.076 L472.767 254.969 L474.619 256.488 L474.787 256.699 L475.124 257.088 L476.976 258.664 L478.744 259.885 L478.997 260.133 L479.334 260.479 L481.102 261.752 L485.48 264.402 L485.817 264.548 L486.069 264.851 L488.595 266.277 L490.026 266.461 L491.542 266.588 L491.626 266.684 L491.794 266.978 L493.226 267.23 L495.415 267.503 L495.583 267.706 L495.836 267.855 L496.594 267.934 L496.762 268.149 L498.446 267.83 L499.625 267.623 L500.046 268.048 L500.214 268.003 L502.403 267.634 L502.487 267.495 L502.74 267.685 L502.908 267.672 L503.75 267.6 L503.919 267.551 L504.003 267.281 L504.255 262.882 L504.508 261.095 L504.592 254.466 L504.676 256.064 L504.929 258.825 L505.181 259.676 L505.35 259.726 L505.518 259.556 L505.602 258.135 L505.687 264.209 L505.771 263.78 L506.444 260.301 L506.781 258.987 L506.865 254.004 L506.95 258.615 L507.034 255.894 L507.118 258.282 L507.202 253.902 L507.286 255.245 L507.371 257.727 L507.455 253.32 L507.539 257.225 L507.623 253.196 L507.707 254.29 L507.876 253.037 L508.044 250.924 L508.128 247.433 L508.212 249.471 L508.297 248.78 L508.381 249.404 L508.465 249.209 L508.802 243.188 L508.886 242.992 L508.97 129.801 L509.054 280.822 L509.139 278.752 L509.307 273.209 L509.475 302.629 L509.56 230.816 L509.644 241.865 L509.812 302.659 L510.233 302.699 L510.486 280.598 L510.654 279.494 L510.738 276.636 L510.822 286.292 L510.907 284.226 L510.991 282.735 L511.159 296.754 L511.328 302.805 L513.938 303.054 L514.022 299.788 L514.274 303.085 L515.537 303.204 L515.622 294.699 L515.79 303.227 L516.632 303.305 L516.716 296.456 L516.884 303.328 L516.969 303.336 L517.137 295.951 L517.221 303.359 L517.39 293.563 L517.474 293.874 L517.642 303.399 L518.316 303.459 L518.316 303.459"
           style="fill:none;stroke:#ff0000;stroke-linecap:square;stroke-width:2.0;"
           id="path7990" />
      </g>
      <g
         id="line2d_4">
        <path
           clip-path="url(#p7ff5b81e1d)"
           d=" M72 224.659 L106.604 224.769 L186.673 225.152 L230.454 223.873 L255.713 222.978 L268.005 222.77 L281.729 222.867 L298.231 223.189 L313.049 223.7 L348.832 225.078 L358.178 225.175 L358.43 225.121 L362.977 225.236 L374.511 225.243 L393.371 225.315 L407.431 225.642 L431.848 226.235 L450.371 226.373 L455.17 226.94 L457.022 226.977 L459.127 227.246 L461.484 227.564 L462.747 227.397 L464.263 227.435 L465.947 227.702 L466.957 227.827 L468.22 227.807 L469.735 228.022 L470.83 228.177 L472.009 228.092 L473.356 228.232 L475.124 228.473 L476.218 228.409 L477.481 228.554 L479.418 228.828 L480.512 228.786 L481.775 228.961 L482.701 229.079 L483.796 229.012 L485.059 229.166 L486.069 229.267 L487.164 229.129 L488.09 229.206 L491.458 230.909 L492.468 230.819 L493.563 231.005 L493.731 231.085 L494.825 230.982 L496.004 230.924 L496.762 230.981 L497.604 231.002 L498.698 231.198 L499.793 231.382 L500.046 231.304 L500.382 231.448 L502.319 231.777 L502.487 231.374 L502.571 231.616 L502.656 231.379 L502.908 231.794 L503.413 231.914 L504.003 231.929 L504.255 230.978 L504.508 230.632 L504.676 237.6 L504.76 237.7 L505.266 235.953 L505.518 235.656 L505.602 235.936 L505.771 233.345 L506.781 234.541 L506.865 235.887 L506.95 235.156 L507.034 235.326 L507.118 234.756 L507.202 235.587 L507.286 235.561 L507.371 234.598 L507.455 235.356 L507.539 234.511 L507.623 235.111 L507.707 235.01 L507.791 234.867 L507.876 234.932 L508.044 235.332 L508.128 236.293 L508.465 234.662 L508.549 234.946 L508.718 236.167 L508.886 235.471 L508.97 307.318 L509.139 230.156 L509.307 230.277 L509.475 307.327 L509.644 307.333 L509.812 239.781 L509.896 244.266 L509.981 244.164 L510.233 243.214 L510.317 240.843 L510.486 216.937 L510.654 215.882 L510.738 231.093 L510.822 307.387 L510.991 233.107 L511.159 233.862 L511.328 237.198 L511.496 237.247 L511.833 236.466 L512.338 235.863 L512.759 235.55 L512.843 234.903 L512.927 235.984 L513.012 234.256 L513.096 236.25 L513.18 234.307 L513.264 236.779 L513.348 234.753 L513.433 236.357 L513.517 235.871 L513.601 236.373 L513.685 234.655 L513.769 236.308 L513.853 235.085 L513.938 235.256 L514.022 240.411 L514.106 234.449 L514.19 235.793 L514.274 236.033 L514.443 234.946 L514.611 235.008 L515.369 234.201 L515.453 224.96 L515.537 243.332 L515.622 218.345 L515.706 248.23 L515.874 232.357 L515.958 232.21 L516.043 232.379 L516.127 232.295 L516.295 232.691 L516.464 231.384 L516.548 228.491 L516.632 237.547 L516.716 214.359 L516.8 248.467 L516.884 223.27 L516.969 242.406 L517.053 213.142 L517.137 217.909 L517.221 264.303 L517.39 208.695 L517.474 207.286 L517.558 296.394 L517.642 226.495 L517.726 233.803 L517.811 234.038 L517.895 230.828 L518.063 232.929 L518.147 233.433 L518.316 222.692 L518.316 222.692"
           style="fill:none;stroke:#00bfbf;stroke-linecap:square;stroke-width:2.0;"
           id="path7993" />
      </g>
      <g
         id="line2d_5">
        <path
           clip-path="url(#p7ff5b81e1d)"
           d=" M72 215.287 L257.986 215.398 L305.893 215.36 L412.483 215.143 L452.644 215.271 L458.201 215.443 L463.842 215.703 L488.595 216.761 L492.131 216.646 L498.867 216.586 L504.003 216.167 L504.255 215.567 L504.508 215.276 L504.592 214.873 L504.845 215.44 L505.181 215.607 L505.518 215.623 L505.602 215.49 L505.687 216.027 L505.771 215.979 L506.529 215.679 L506.781 215.613 L506.865 215.128 L506.95 215.671 L507.034 215.361 L507.118 215.634 L507.202 215.174 L507.371 215.631 L507.455 215.152 L507.539 215.614 L507.623 215.165 L507.791 215.301 L508.044 215.067 L508.128 214.75 L508.212 215.043 L508.297 214.965 L508.465 215.029 L508.718 214.57 L508.886 214.621 L508.97 207.692 L509.054 219.421 L509.139 219.286 L509.307 218.884 L509.475 205.535 L509.644 214.074 L509.896 224.472 L510.149 224.614 L510.233 224.636 L510.317 217.226 L510.402 217.45 L510.654 217.374 L510.738 216.977 L510.822 213.945 L510.991 216.952 L511.075 216.251 L511.159 217.35 L511.243 215.65 L511.328 215.815 L511.412 215.855 L512.001 215.334 L512.759 214.964 L512.843 215.258 L512.927 214.293 L513.012 215.912 L513.096 213.987 L513.18 216.027 L513.264 213.966 L513.348 216.038 L513.433 214.368 L513.685 216.047 L513.769 213.083 L513.853 216.355 L513.938 216.297 L514.022 215.082 L514.106 216.342 L514.19 216.05 L514.359 215.775 L514.611 215.545 L515.285 215.07 L515.369 215.047 L515.453 217.107 L515.537 211.904 L515.622 216.693 L515.79 214.474 L515.874 214.431 L515.958 214.518 L516.127 214.49 L516.295 214.507 L516.379 214.914 L516.464 212.716 L516.548 216.997 L516.632 211.321 L516.716 216.649 L516.8 213.013 L516.884 216.929 L516.969 210.476 L517.137 216.883 L517.221 207.113 L517.39 217.101 L517.474 217.463 L517.558 213.725 L517.642 216.481 L517.726 215.495 L517.811 216.529 L517.895 214.675 L517.979 216.292 L518.063 215.184 L518.147 216.11 L518.232 214.22 L518.316 216.73 L518.316 216.73"
           style="fill:none;stroke:#bf00bf;stroke-linecap:square;stroke-width:2.0;"
           id="path7996" />
      </g>
      <g
         id="line2d_6">
        <path
           clip-path="url(#p7ff5b81e1d)"
           d=" M72 216.13 L162.509 216.018 L245.104 215.973 L504.087 215.852 L504.592 215.722 L504.929 215.89 L506.108 215.949 L508.886 215.835 L508.97 212.603 L509.054 216.451 L509.139 216.437 L509.307 216.394 L509.475 203.501 L509.644 214.387 L509.728 213.83 L509.896 209.872 L510.233 209.645 L510.402 215.91 L510.654 215.868 L510.738 215.773 L510.822 211.683 L510.991 215.393 L511.075 214.142 L511.159 215.354 L511.243 213.973 L511.328 214.365 L511.58 214.587 L512.843 215.253 L512.927 215.034 L513.012 215.487 L513.096 215.028 L513.18 215.566 L513.264 215.102 L513.348 215.62 L513.433 215.26 L513.685 215.678 L513.769 215.16 L513.853 215.663 L514.022 213.766 L514.106 214.677 L514.19 214.529 L514.359 214.603 L514.695 214.831 L515.369 215.179 L515.453 215.87 L515.537 214.319 L515.622 216.079 L515.706 215.189 L515.79 215.248 L516.379 215.546 L516.464 215.128 L516.548 215.639 L516.632 215.199 L516.716 216.095 L516.8 215.144 L516.884 215.804 L516.969 215.158 L517.053 216.098 L517.137 215.855 L517.221 214.299 L517.305 216.104 L517.39 215.841 L517.474 215.623 L517.558 214.271 L517.642 215.14 L517.726 214.963 L517.811 215.437 L517.895 214.682 L517.979 215.552 L518.063 215.128 L518.147 215.549 L518.232 214.866 L518.316 215.718 L518.316 215.718"
           style="fill:none;stroke:#bfbf00;stroke-linecap:square;stroke-width:2.0;"
           id="path7999" />
      </g>
      <g
         id="line2d_7">
        <path
           clip-path="url(#p7ff5b81e1d)"
           d=" M72 215.999 L509.307 216.001 L509.475 216.552 L509.644 216.06 L509.812 216.262 L509.981 216.423 L510.233 216.49 L510.402 216.011 L510.738 216.01 L510.822 216.155 L510.907 216.08 L511.159 216.032 L511.328 216.108 L513.012 216.083 L513.264 216.149 L513.433 216.132 L513.685 216.069 L513.769 216.17 L513.938 216.06 L514.19 216.067 L515.369 216.088 L515.453 216.017 L515.537 216.186 L515.622 216.014 L515.79 216.1 L517.137 216.015 L517.221 216.334 L517.39 216.015 L518.316 216.021 L518.316 216.021"
           style="fill:none;stroke:#000000;stroke-linecap:square;stroke-width:2.0;"
           id="path8002" />
      </g>
      <g
         id="matplotlib.axis_1">
        <g
           id="xtick_1">
          <g
             id="line2d_8">
            <path
               clip-path="url(#p7ff5b81e1d)"
               d=" M72 388.8 L72 43.2"
               style="fill:none;stroke:#000000;stroke-dasharray:1.000000,3.000000;stroke-dashoffset:0.0;stroke-width:0.5;"
               id="path8007" />
          </g>
          <g
             id="line2d_9">
            <defs
               id="defs8010">
              <path
                 d=" M0 0 L0 -4"
                 id="m93b0483c22"
                 style="stroke:#000000;stroke-width:0.5;" />
            </defs>
            <g
               id="g8013">
              <use
                 style="stroke:#000000;stroke-width:0.5;"
                 x="72.0"
                 xlink:href="#m93b0483c22"
                 y="388.8"
                 id="use8015" />
            </g>
          </g>
          <g
             id="line2d_10">
            <defs
               id="defs8018">
              <path
                 d=" M0 0 L0 4"
                 id="m741efc42ff"
                 style="stroke:#000000;stroke-width:0.5;" />
            </defs>
            <g
               id="g8021">
              <use
                 style="stroke:#000000;stroke-width:0.5;"
                 x="72.0"
                 xlink:href="#m741efc42ff"
                 y="43.2"
                 id="use8023" />
            </g>
          </g>
          <g
             id="text_1">
            <!-- 0 -->
            <defs
               id="defs8026">
              <path
                 d=" M31.7812 66.4062 Q24.1719 66.4062 20.3281 58.9062 Q16.5 51.4219 16.5 36.375 Q16.5 21.3906 20.3281 13.8906 Q24.1719 6.39062 31.7812 6.39062 Q39.4531 6.39062 43.2812 13.8906 Q47.125 21.3906 47.125 36.375 Q47.125 51.4219 43.2812 58.9062 Q39.4531 66.4062 31.7812 66.4062 M31.7812 74.2188 Q44.0469 74.2188 50.5156 64.5156 Q56.9844 54.8281 56.9844 36.375 Q56.9844 17.9688 50.5156 8.26562 Q44.0469 -1.42188 31.7812 -1.42188 Q19.5312 -1.42188 13.0625 8.26562 Q6.59375 17.9688 6.59375 36.375 Q6.59375 54.8281 13.0625 64.5156 Q19.5312 74.2188 31.7812 74.2188"
                 id="BitstreamVeraSans-Roman-30" />
            </defs>
            <g
               transform="translate(68.9765625 401.918125)scale(0.12 -0.12)"
               id="g8029">
              <use
                 xlink:href="#BitstreamVeraSans-Roman-30"
                 id="use8031" />
            </g>
          </g>
        </g>
        <g
           id="xtick_2">
          <g
             id="line2d_11">
            <path
               clip-path="url(#p7ff5b81e1d)"
               d=" M156.195 388.8 L156.195 43.2"
               style="fill:none;stroke:#000000;stroke-dasharray:1.000000,3.000000;stroke-dashoffset:0.0;stroke-width:0.5;"
               id="path8035" />
          </g>
          <g
             id="line2d_12">
            <g
               id="g8038">
              <use
                 style="stroke:#000000;stroke-width:0.5;"
                 x="156.194643531"
                 xlink:href="#m93b0483c22"
                 y="388.8"
                 id="use8040" />
            </g>
          </g>
          <g
             id="line2d_13">
            <g
               id="g8043">
              <use
                 style="stroke:#000000;stroke-width:0.5;"
                 x="156.194643531"
                 xlink:href="#m741efc42ff"
                 y="43.2"
                 id="use8045" />
            </g>
          </g>
          <g
             id="text_2">
            <!-- 1 -->
            <defs
               id="defs8048">
              <path
                 d=" M12.4062 8.29688 L28.5156 8.29688 L28.5156 63.9219 L10.9844 60.4062 L10.9844 69.3906 L28.4219 72.9062 L38.2812 72.9062 L38.2812 8.29688 L54.3906 8.29688 L54.3906 0 L12.4062 0 z "
                 id="BitstreamVeraSans-Roman-31" />
            </defs>
            <g
               transform="translate(153.590268531 401.918125)scale(0.12 -0.12)"
               id="g8051">
              <use
                 xlink:href="#BitstreamVeraSans-Roman-31"
                 id="use8053" />
            </g>
          </g>
        </g>
        <g
           id="xtick_3">
          <g
             id="line2d_14">
            <path
               clip-path="url(#p7ff5b81e1d)"
               d=" M240.389 388.8 L240.389 43.2"
               style="fill:none;stroke:#000000;stroke-dasharray:1.000000,3.000000;stroke-dashoffset:0.0;stroke-width:0.5;"
               id="path8057" />
          </g>
          <g
             id="line2d_15">
            <g
               id="g8060">
              <use
                 style="stroke:#000000;stroke-width:0.5;"
                 x="240.389287061"
                 xlink:href="#m93b0483c22"
                 y="388.8"
                 id="use8062" />
            </g>
          </g>
          <g
             id="line2d_16">
            <g
               id="g8065">
              <use
                 style="stroke:#000000;stroke-width:0.5;"
                 x="240.389287061"
                 xlink:href="#m741efc42ff"
                 y="43.2"
                 id="use8067" />
            </g>
          </g>
          <g
             id="text_3">
            <!-- 2 -->
            <defs
               id="defs8070">
              <path
                 d=" M19.1875 8.29688 L53.6094 8.29688 L53.6094 0 L7.32812 0 L7.32812 8.29688 Q12.9375 14.1094 22.625 23.8906 Q32.3281 33.6875 34.8125 36.5312 Q39.5469 41.8438 41.4219 45.5312 Q43.3125 49.2188 43.3125 52.7812 Q43.3125 58.5938 39.2344 62.25 Q35.1562 65.9219 28.6094 65.9219 Q23.9688 65.9219 18.8125 64.3125 Q13.6719 62.7031 7.8125 59.4219 L7.8125 69.3906 Q13.7656 71.7812 18.9375 73 Q24.125 74.2188 28.4219 74.2188 Q39.75 74.2188 46.4844 68.5469 Q53.2188 62.8906 53.2188 53.4219 Q53.2188 48.9219 51.5312 44.8906 Q49.8594 40.875 45.4062 35.4062 Q44.1875 33.9844 37.6406 27.2188 Q31.1094 20.4531 19.1875 8.29688"
                 id="BitstreamVeraSans-Roman-32" />
            </defs>
            <g
               transform="translate(237.612412061 401.918125)scale(0.12 -0.12)"
               id="g8073">
              <use
                 xlink:href="#BitstreamVeraSans-Roman-32"
                 id="use8075" />
            </g>
          </g>
        </g>
        <g
           id="xtick_4">
          <g
             id="line2d_17">
            <path
               clip-path="url(#p7ff5b81e1d)"
               d=" M324.584 388.8 L324.584 43.2"
               style="fill:none;stroke:#000000;stroke-dasharray:1.000000,3.000000;stroke-dashoffset:0.0;stroke-width:0.5;"
               id="path8079" />
          </g>
          <g
             id="line2d_18">
            <g
               id="g8082">
              <use
                 style="stroke:#000000;stroke-width:0.5;"
                 x="324.583930592"
                 xlink:href="#m93b0483c22"
                 y="388.8"
                 id="use8084" />
            </g>
          </g>
          <g
             id="line2d_19">
            <g
               id="g8087">
              <use
                 style="stroke:#000000;stroke-width:0.5;"
                 x="324.583930592"
                 xlink:href="#m741efc42ff"
                 y="43.2"
                 id="use8089" />
            </g>
          </g>
          <g
             id="text_4">
            <!-- 3 -->
            <defs
               id="defs8092">
              <path
                 d=" M40.5781 39.3125 Q47.6562 37.7969 51.625 33 Q55.6094 28.2188 55.6094 21.1875 Q55.6094 10.4062 48.1875 4.48438 Q40.7656 -1.42188 27.0938 -1.42188 Q22.5156 -1.42188 17.6562 -0.515625 Q12.7969 0.390625 7.625 2.20312 L7.625 11.7188 Q11.7188 9.32812 16.5938 8.10938 Q21.4844 6.89062 26.8125 6.89062 Q36.0781 6.89062 40.9375 10.5469 Q45.7969 14.2031 45.7969 21.1875 Q45.7969 27.6406 41.2812 31.2656 Q36.7656 34.9062 28.7188 34.9062 L20.2188 34.9062 L20.2188 43.0156 L29.1094 43.0156 Q36.375 43.0156 40.2344 45.9219 Q44.0938 48.8281 44.0938 54.2969 Q44.0938 59.9062 40.1094 62.9062 Q36.1406 65.9219 28.7188 65.9219 Q24.6562 65.9219 20.0156 65.0312 Q15.375 64.1562 9.8125 62.3125 L9.8125 71.0938 Q15.4375 72.6562 20.3438 73.4375 Q25.25 74.2188 29.5938 74.2188 Q40.8281 74.2188 47.3594 69.1094 Q53.9062 64.0156 53.9062 55.3281 Q53.9062 49.2656 50.4375 45.0938 Q46.9688 40.9219 40.5781 39.3125"
                 id="BitstreamVeraSans-Roman-33" />
            </defs>
            <g
               transform="translate(321.704868092 401.918125)scale(0.12 -0.12)"
               id="g8095">
              <use
                 xlink:href="#BitstreamVeraSans-Roman-33"
                 id="use8097" />
            </g>
          </g>
        </g>
        <g
           id="xtick_5">
          <g
             id="line2d_20">
            <path
               clip-path="url(#p7ff5b81e1d)"
               d=" M408.779 388.8 L408.779 43.2"
               style="fill:none;stroke:#000000;stroke-dasharray:1.000000,3.000000;stroke-dashoffset:0.0;stroke-width:0.5;"
               id="path8101" />
          </g>
          <g
             id="line2d_21">
            <g
               id="g8104">
              <use
                 style="stroke:#000000;stroke-width:0.5;"
                 x="408.778574123"
                 xlink:href="#m93b0483c22"
                 y="388.8"
                 id="use8106" />
            </g>
          </g>
          <g
             id="line2d_22">
            <g
               id="g8109">
              <use
                 style="stroke:#000000;stroke-width:0.5;"
                 x="408.778574123"
                 xlink:href="#m741efc42ff"
                 y="43.2"
                 id="use8111" />
            </g>
          </g>
          <g
             id="text_5">
            <!-- 4 -->
            <defs
               id="defs8114">
              <path
                 d=" M37.7969 64.3125 L12.8906 25.3906 L37.7969 25.3906 z  M35.2031 72.9062 L47.6094 72.9062 L47.6094 25.3906 L58.0156 25.3906 L58.0156 17.1875 L47.6094 17.1875 L47.6094 0 L37.7969 0 L37.7969 17.1875 L4.89062 17.1875 L4.89062 26.7031 z "
                 id="BitstreamVeraSans-Roman-34" />
            </defs>
            <g
               transform="translate(405.591074123 401.918125)scale(0.12 -0.12)"
               id="g8117">
              <use
                 xlink:href="#BitstreamVeraSans-Roman-34"
                 id="use8119" />
            </g>
          </g>
        </g>
        <g
           id="xtick_6">
          <g
             id="line2d_23">
            <path
               clip-path="url(#p7ff5b81e1d)"
               d=" M492.973 388.8 L492.973 43.2"
               style="fill:none;stroke:#000000;stroke-dasharray:1.000000,3.000000;stroke-dashoffset:0.0;stroke-width:0.5;"
               id="path8123" />
          </g>
          <g
             id="line2d_24">
            <g
               id="g8126">
              <use
                 style="stroke:#000000;stroke-width:0.5;"
                 x="492.973217654"
                 xlink:href="#m93b0483c22"
                 y="388.8"
                 id="use8128" />
            </g>
          </g>
          <g
             id="line2d_25">
            <g
               id="g8131">
              <use
                 style="stroke:#000000;stroke-width:0.5;"
                 x="492.973217654"
                 xlink:href="#m741efc42ff"
                 y="43.2"
                 id="use8133" />
            </g>
          </g>
          <g
             id="text_6">
            <!-- 5 -->
            <defs
               id="defs8136">
              <path
                 d=" M10.7969 72.9062 L49.5156 72.9062 L49.5156 64.5938 L19.8281 64.5938 L19.8281 46.7344 Q21.9688 47.4688 24.1094 47.8281 Q26.2656 48.1875 28.4219 48.1875 Q40.625 48.1875 47.75 41.5 Q54.8906 34.8125 54.8906 23.3906 Q54.8906 11.625 47.5625 5.09375 Q40.2344 -1.42188 26.9062 -1.42188 Q22.3125 -1.42188 17.5469 -0.640625 Q12.7969 0.140625 7.71875 1.70312 L7.71875 11.625 Q12.1094 9.23438 16.7969 8.0625 Q21.4844 6.89062 26.7031 6.89062 Q35.1562 6.89062 40.0781 11.3281 Q45.0156 15.7656 45.0156 23.3906 Q45.0156 31 40.0781 35.4375 Q35.1562 39.8906 26.7031 39.8906 Q22.75 39.8906 18.8125 39.0156 Q14.8906 38.1406 10.7969 36.2812 z "
                 id="BitstreamVeraSans-Roman-35" />
            </defs>
            <g
               transform="translate(490.142905154 401.918125)scale(0.12 -0.12)"
               id="g8139">
              <use
                 xlink:href="#BitstreamVeraSans-Roman-35"
                 id="use8141" />
            </g>
          </g>
        </g>
        <g
           id="text_7">
          <!-- $time (s)$ -->
          <defs
             id="defs8144">
            <path
               d=" M7.71875 1.70312 Q7.71875 2.29688 7.8125 2.59375 L15.2812 32.4219 Q16.0156 35.2031 16.0156 37.3125 Q16.0156 41.6094 13.0938 41.6094 Q9.96875 41.6094 8.45312 37.8594 Q6.9375 34.125 5.51562 28.4219 Q5.51562 28.125 5.21875 27.9531 Q4.9375 27.7812 4.6875 27.7812 L3.51562 27.7812 Q3.17188 27.7812 2.92188 28.1406 Q2.6875 28.5156 2.6875 28.8125 Q3.76562 33.1562 4.76562 36.1719 Q5.76562 39.2031 7.89062 41.6875 Q10.0156 44.1875 13.1875 44.1875 Q16.9375 44.1875 19.8125 41.8125 Q22.7031 39.4531 22.7031 35.7969 Q25.6875 39.7031 29.6875 41.9375 Q33.6875 44.1875 38.1875 44.1875 Q42.9219 44.1875 46.3594 41.7656 Q49.8125 39.3594 49.8125 34.9062 Q52.875 39.2656 57 41.7188 Q61.1406 44.1875 66.0156 44.1875 Q71.1875 44.1875 74.3281 41.375 Q77.4844 38.5781 77.4844 33.4062 Q77.4844 29.2969 75.6562 23.4844 Q73.8281 17.6719 71.0938 10.5 Q69.6719 7.03125 69.6719 4.5 Q69.6719 1.51562 72.0156 1.51562 Q75.9219 1.51562 78.5156 5.70312 Q81.1094 9.90625 82.1719 14.7031 Q82.4688 15.2812 83.0156 15.2812 L84.1875 15.2812 Q84.5781 15.2812 84.8438 15.0156 Q85.1094 14.75 85.1094 14.4062 Q85.1094 14.3125 85.0156 14.1094 Q83.6406 8.45312 80.25 3.65625 Q76.8594 -1.125 71.7812 -1.125 Q68.2656 -1.125 65.7656 1.29688 Q63.2812 3.71875 63.2812 7.17188 Q63.2812 8.9375 64.1094 11.0781 Q66.9375 18.6094 68.8125 24.5156 Q70.7031 30.4219 70.7031 34.9062 Q70.7031 37.7031 69.5781 39.6562 Q68.4531 41.6094 65.8281 41.6094 Q60.3594 41.6094 56.3438 38.25 Q52.3438 34.9062 49.4219 29.3906 Q49.2188 28.4219 49.125 27.875 L42.6719 2.20312 Q42.3281 0.828125 41.125 -0.140625 Q39.9375 -1.125 38.4844 -1.125 Q37.3125 -1.125 36.4062 -0.34375 Q35.5 0.4375 35.5 1.70312 Q35.5 2.29688 35.5938 2.59375 L42 28.0781 Q43.0156 32.1719 43.0156 34.9062 Q43.0156 37.7031 41.8594 39.6562 Q40.7188 41.6094 37.9844 41.6094 Q34.3281 41.6094 31.25 39.9844 Q28.1719 38.375 25.875 35.7188 Q23.5781 33.0625 21.6875 29.3906 L14.8906 2.20312 Q14.5469 0.828125 13.3438 -0.140625 Q12.1562 -1.125 10.6875 -1.125 Q9.46875 -1.125 8.59375 -0.34375 Q7.71875 0.4375 7.71875 1.70312"
               id="Cmmi10-6d" />
            <path
               d=" M31 -24.8125 Q25.4375 -20.4062 21.4062 -14.7188 Q17.3906 -9.03125 14.8125 -2.57812 Q12.25 3.85938 10.9844 10.8906 Q9.71875 17.9219 9.71875 25 Q9.71875 32.1719 10.9844 39.2031 Q12.25 46.2344 14.8594 52.7344 Q17.4844 59.2344 21.5312 64.8906 Q25.5938 70.5625 31 74.8125 Q31 75 31.5 75 L32.4219 75 Q32.7188 75 32.9531 74.7344 Q33.2031 74.4688 33.2031 74.125 Q33.2031 73.6875 33.0156 73.4844 Q28.125 68.7031 24.875 63.2344 Q21.625 57.7656 19.6406 51.5781 Q17.6719 45.4062 16.7969 38.7812 Q15.9219 32.1719 15.9219 25 Q15.9219 -6.78125 32.9062 -23.2969 Q33.2031 -23.5781 33.2031 -24.125 Q33.2031 -24.3594 32.9375 -24.6719 Q32.6719 -25 32.4219 -25 L31.5 -25 Q31 -25 31 -24.8125"
               id="Cmr10-28" />
            <path
               d=" M6.5 -25 Q5.60938 -25 5.60938 -24.125 Q5.60938 -23.6875 5.8125 -23.4844 Q22.9062 -6.78125 22.9062 25 Q22.9062 56.7812 6 73.2969 Q5.60938 73.5312 5.60938 74.125 Q5.60938 74.4688 5.875 74.7344 Q6.15625 75 6.5 75 L7.42188 75 Q7.71875 75 7.90625 74.8125 Q15.0938 69.1406 19.875 61.0312 Q24.6562 52.9375 26.875 43.75 Q29.1094 34.5781 29.1094 25 Q29.1094 17.9219 27.9062 11.0625 Q26.7031 4.20312 24.0938 -2.45312 Q21.4844 -9.125 17.4844 -14.7656 Q13.4844 -20.4062 7.90625 -24.8125 Q7.71875 -25 7.42188 -25 z "
               id="Cmr10-29" />
            <path
               d=" M8.6875 6.10938 Q11.375 1.51562 19.4844 1.51562 Q23 1.51562 26.1719 2.70312 Q29.3438 3.90625 31.4219 6.29688 Q33.5 8.6875 33.5 12.1094 Q33.5 14.7031 31.6406 16.3594 Q29.7812 18.0156 27.0938 18.6094 L21.6875 19.6719 Q17.9688 20.6094 15.5781 23.1406 Q13.1875 25.6875 13.1875 29.2969 Q13.1875 33.7344 15.5938 37.1562 Q18.0156 40.5781 21.9688 42.375 Q25.9219 44.1875 30.1719 44.1875 Q34.7188 44.1875 38.2969 42.0156 Q41.8906 39.8438 41.8906 35.5938 Q41.8906 33.2969 40.5938 31.5312 Q39.3125 29.7812 37.0156 29.7812 Q35.6875 29.7812 34.7344 30.6406 Q33.7969 31.5 33.7969 32.8125 Q33.7969 33.9844 34.4531 35.0781 Q35.1094 36.1875 36.2031 36.8438 Q37.3125 37.5 38.4844 37.5 Q37.5938 39.6562 35.1719 40.625 Q32.7656 41.6094 29.9844 41.6094 Q27.4375 41.6094 24.8906 40.5781 Q22.3594 39.5469 20.8125 37.5625 Q19.2812 35.5938 19.2812 32.9062 Q19.2812 31.1094 20.5469 29.7344 Q21.8281 28.375 23.6875 27.7812 L29.5 26.6094 Q32.2812 26.0312 34.5938 24.5312 Q36.9219 23.0469 38.25 20.7656 Q39.5938 18.5 39.5938 15.5781 Q39.5938 11.8594 37.5156 8.25 Q35.4531 4.64062 32.4219 2.48438 Q27.0938 -1.125 19.3906 -1.125 Q14.0625 -1.125 9.60938 1.3125 Q5.17188 3.76562 5.17188 8.59375 Q5.17188 11.3281 6.75 13.3438 Q8.34375 15.375 11.0781 15.375 Q12.7031 15.375 13.7969 14.3906 Q14.8906 13.4219 14.8906 11.8125 Q14.8906 9.51562 13.1719 7.8125 Q11.4688 6.10938 9.1875 6.10938 z "
               id="Cmmi10-73" />
            <path
               d=" M20.125 -1.125 Q15.3281 -1.125 11.7344 1.35938 Q8.15625 3.85938 6.26562 8.07812 Q4.39062 12.3125 4.39062 17 Q4.39062 24.125 7.98438 30.3906 Q11.5781 36.6719 17.7188 40.4219 Q23.875 44.1875 30.9062 44.1875 Q35.2031 44.1875 38.4062 41.9688 Q41.6094 39.75 41.6094 35.5938 Q41.6094 29.8281 37.0156 27.0156 Q32.4219 24.2188 26.6562 23.5625 Q20.9062 22.9062 13.9219 22.9062 L13.625 22.9062 Q12.0156 16.9375 12.0156 12.7031 Q12.0156 8.25 14.0625 4.875 Q16.1094 1.51562 20.3125 1.51562 Q26.2656 1.51562 31.75 4.25 Q37.25 6.98438 40.7188 11.8125 Q41.0156 12.1094 41.5 12.1094 Q42 12.1094 42.5 11.5469 Q43.0156 10.9844 43.0156 10.5 Q43.0156 10.1094 42.8281 9.90625 Q39.1562 4.78125 32.9531 1.82812 Q26.7656 -1.125 20.125 -1.125 M14.2031 25.4844 Q20.0156 25.4844 24.9531 26.0156 Q29.8906 26.5625 33.8906 28.7344 Q37.8906 30.9062 37.8906 35.5 Q37.8906 37.3594 36.8594 38.75 Q35.8438 40.1406 34.2031 40.875 Q32.5625 41.6094 30.8125 41.6094 Q26.5625 41.6094 23.1719 39.3125 Q19.7812 37.0156 17.5781 33.3281 Q15.375 29.6406 14.2031 25.4844"
               id="Cmmi10-65" />
            <path
               d=" M6.20312 8.10938 Q6.20312 9.57812 6.5 10.8906 L13.7188 39.5938 L3.21875 39.5938 Q2.20312 39.5938 2.20312 40.9219 Q2.59375 43.1094 3.51562 43.1094 L14.5938 43.1094 L18.6094 59.4219 Q19 60.75 20.1719 61.6719 Q21.3438 62.5938 22.7969 62.5938 Q24.0781 62.5938 24.9219 61.8281 Q25.7812 61.0781 25.7812 59.8125 Q25.7812 59.5156 25.75 59.3438 Q25.7344 59.1875 25.6875 58.9844 L21.6875 43.1094 L31.9844 43.1094 Q33.0156 43.1094 33.0156 41.7969 Q32.9531 41.5469 32.8125 40.9531 Q32.6719 40.375 32.4219 39.9844 Q32.1719 39.5938 31.6875 39.5938 L20.7969 39.5938 L13.625 10.6875 Q12.8906 7.85938 12.8906 5.8125 Q12.8906 1.51562 15.8281 1.51562 Q20.2188 1.51562 23.6094 5.64062 Q27 9.76562 28.8125 14.7031 Q29.2031 15.2812 29.5938 15.2812 L30.8125 15.2812 Q31.2031 15.2812 31.4375 15.0156 Q31.6875 14.75 31.6875 14.4062 Q31.6875 14.2031 31.5938 14.1094 Q29.3906 8.0625 25.1875 3.46875 Q21 -1.125 15.5781 -1.125 Q11.625 -1.125 8.90625 1.45312 Q6.20312 4.04688 6.20312 8.10938"
               id="Cmmi10-74" />
            <path
               d=" M7.8125 7.17188 Q7.8125 9.03125 8.59375 11.0781 L16.7031 32.625 Q18.0156 36.2812 18.0156 38.625 Q18.0156 41.6094 15.8281 41.6094 Q11.8594 41.6094 9.29688 37.5312 Q6.73438 33.4531 5.51562 28.4219 Q5.32812 27.7812 4.6875 27.7812 L3.51562 27.7812 Q2.6875 27.7812 2.6875 28.7188 L2.6875 29 Q4.29688 34.9688 7.60938 39.5781 Q10.9375 44.1875 16.0156 44.1875 Q19.5781 44.1875 22.0469 41.8438 Q24.5156 39.5 24.5156 35.8906 Q24.5156 34.0312 23.6875 31.9844 L15.5781 10.5 Q14.2031 7.17188 14.2031 4.5 Q14.2031 1.51562 16.5 1.51562 Q20.4062 1.51562 23.0156 5.6875 Q25.6406 9.85938 26.7031 14.7031 Q26.9062 15.2812 27.4844 15.2812 L28.7188 15.2812 Q29.1094 15.2812 29.3438 15.0156 Q29.5938 14.75 29.5938 14.4062 Q29.5938 14.3125 29.5 14.1094 Q28.125 8.45312 24.7344 3.65625 Q21.3438 -1.125 16.3125 -1.125 Q12.7969 -1.125 10.2969 1.29688 Q7.8125 3.71875 7.8125 7.17188 M19.0938 60.5938 Q19.0938 62.7031 20.8438 64.4062 Q22.6094 66.1094 24.7031 66.1094 Q26.4219 66.1094 27.5156 65.0625 Q28.6094 64.0156 28.6094 62.4062 Q28.6094 60.1562 26.8281 58.4688 Q25.0469 56.7812 22.9062 56.7812 Q21.2969 56.7812 20.1875 57.875 Q19.0938 58.9844 19.0938 60.5938"
               id="Cmmi10-69" />
          </defs>
          <g
             transform="translate(262.2 424.41375)scale(0.2 -0.2)"
             id="g8153">
            <use
               xlink:href="#Cmmi10-74"
               id="use8155" />
            <use
               transform="translate(36.083984375 0.0)"
               xlink:href="#Cmmi10-69"
               id="use8157" />
            <use
               transform="translate(70.5078125 0.0)"
               xlink:href="#Cmmi10-6d"
               id="use8159" />
            <use
               transform="translate(158.30078125 0.0)"
               xlink:href="#Cmmi10-65"
               id="use8161" />
            <use
               transform="translate(204.78515625 0.0)"
               xlink:href="#Cmr10-28"
               id="use8163" />
            <use
               transform="translate(243.603515625 0.0)"
               xlink:href="#Cmmi10-73"
               id="use8165" />
            <use
               transform="translate(290.380859375 0.0)"
               xlink:href="#Cmr10-29"
               id="use8167" />
          </g>
        </g>
      </g>
      <g
         id="matplotlib.axis_2">
        <g
           id="ytick_1">
          <g
             id="line2d_26">
            <path
               clip-path="url(#p7ff5b81e1d)"
               d=" M72 388.8 L518.4 388.8"
               style="fill:none;stroke:#000000;stroke-dasharray:1.000000,3.000000;stroke-dashoffset:0.0;stroke-width:0.5;"
               id="path8172" />
          </g>
          <g
             id="line2d_27">
            <defs
               id="defs8175">
              <path
                 d=" M0 0 L4 0"
                 id="m728421d6d4"
                 style="stroke:#000000;stroke-width:0.5;" />
            </defs>
            <g
               id="g8178">
              <use
                 style="stroke:#000000;stroke-width:0.5;"
                 x="72.0"
                 xlink:href="#m728421d6d4"
                 y="388.8"
                 id="use8180" />
            </g>
          </g>
          <g
             id="line2d_28">
            <defs
               id="defs8183">
              <path
                 d=" M0 0 L-4 0"
                 id="mcb0005524f"
                 style="stroke:#000000;stroke-width:0.5;" />
            </defs>
            <g
               id="g8186">
              <use
                 style="stroke:#000000;stroke-width:0.5;"
                 x="518.4"
                 xlink:href="#mcb0005524f"
                 y="388.8"
                 id="use8188" />
            </g>
          </g>
          <g
             id="text_8">
            <!-- −200 -->
            <defs
               id="defs8191">
              <path
                 d=" M10.5938 35.5 L73.1875 35.5 L73.1875 27.2031 L10.5938 27.2031 z "
                 id="BitstreamVeraSans-Roman-2212" />
            </defs>
            <g
               transform="translate(37.1075 392.11125)scale(0.12 -0.12)"
               id="g8194">
              <use
                 xlink:href="#BitstreamVeraSans-Roman-2212"
                 id="use8196" />
              <use
                 x="83.7890625"
                 xlink:href="#BitstreamVeraSans-Roman-32"
                 id="use8198" />
              <use
                 x="147.412109375"
                 xlink:href="#BitstreamVeraSans-Roman-30"
                 id="use8200" />
              <use
                 x="211.03515625"
                 xlink:href="#BitstreamVeraSans-Roman-30"
                 id="use8202" />
            </g>
          </g>
        </g>
        <g
           id="ytick_2">
          <g
             id="line2d_29">
            <path
               clip-path="url(#p7ff5b81e1d)"
               d=" M72 345.6 L518.4 345.6"
               style="fill:none;stroke:#000000;stroke-dasharray:1.000000,3.000000;stroke-dashoffset:0.0;stroke-width:0.5;"
               id="path8206" />
          </g>
          <g
             id="line2d_30">
            <g
               id="g8209">
              <use
                 style="stroke:#000000;stroke-width:0.5;"
                 x="72.0"
                 xlink:href="#m728421d6d4"
                 y="345.6"
                 id="use8211" />
            </g>
          </g>
          <g
             id="line2d_31">
            <g
               id="g8214">
              <use
                 style="stroke:#000000;stroke-width:0.5;"
                 x="518.4"
                 xlink:href="#mcb0005524f"
                 y="345.6"
                 id="use8216" />
            </g>
          </g>
          <g
             id="text_9">
            <!-- −150 -->
            <g
               transform="translate(37.1075 348.91125)scale(0.12 -0.12)"
               id="g8219">
              <use
                 xlink:href="#BitstreamVeraSans-Roman-2212"
                 id="use8221" />
              <use
                 x="83.7890625"
                 xlink:href="#BitstreamVeraSans-Roman-31"
                 id="use8223" />
              <use
                 x="147.412109375"
                 xlink:href="#BitstreamVeraSans-Roman-35"
                 id="use8225" />
              <use
                 x="211.03515625"
                 xlink:href="#BitstreamVeraSans-Roman-30"
                 id="use8227" />
            </g>
          </g>
        </g>
        <g
           id="ytick_3">
          <g
             id="line2d_32">
            <path
               clip-path="url(#p7ff5b81e1d)"
               d=" M72 302.4 L518.4 302.4"
               style="fill:none;stroke:#000000;stroke-dasharray:1.000000,3.000000;stroke-dashoffset:0.0;stroke-width:0.5;"
               id="path8231" />
          </g>
          <g
             id="line2d_33">
            <g
               id="g8234">
              <use
                 style="stroke:#000000;stroke-width:0.5;"
                 x="72.0"
                 xlink:href="#m728421d6d4"
                 y="302.4"
                 id="use8236" />
            </g>
          </g>
          <g
             id="line2d_34">
            <g
               id="g8239">
              <use
                 style="stroke:#000000;stroke-width:0.5;"
                 x="518.4"
                 xlink:href="#mcb0005524f"
                 y="302.4"
                 id="use8241" />
            </g>
          </g>
          <g
             id="text_10">
            <!-- −100 -->
            <g
               transform="translate(37.1075 305.71125)scale(0.12 -0.12)"
               id="g8244">
              <use
                 xlink:href="#BitstreamVeraSans-Roman-2212"
                 id="use8246" />
              <use
                 x="83.7890625"
                 xlink:href="#BitstreamVeraSans-Roman-31"
                 id="use8248" />
              <use
                 x="147.412109375"
                 xlink:href="#BitstreamVeraSans-Roman-30"
                 id="use8250" />
              <use
                 x="211.03515625"
                 xlink:href="#BitstreamVeraSans-Roman-30"
                 id="use8252" />
            </g>
          </g>
        </g>
        <g
           id="ytick_4">
          <g
             id="line2d_35">
            <path
               clip-path="url(#p7ff5b81e1d)"
               d=" M72 259.2 L518.4 259.2"
               style="fill:none;stroke:#000000;stroke-dasharray:1.000000,3.000000;stroke-dashoffset:0.0;stroke-width:0.5;"
               id="path8256" />
          </g>
          <g
             id="line2d_36">
            <g
               id="g8259">
              <use
                 style="stroke:#000000;stroke-width:0.5;"
                 x="72.0"
                 xlink:href="#m728421d6d4"
                 y="259.2"
                 id="use8261" />
            </g>
          </g>
          <g
             id="line2d_37">
            <g
               id="g8264">
              <use
                 style="stroke:#000000;stroke-width:0.5;"
                 x="518.4"
                 xlink:href="#mcb0005524f"
                 y="259.2"
                 id="use8266" />
            </g>
          </g>
          <g
             id="text_11">
            <!-- −50 -->
            <g
               transform="translate(44.7425 262.51125)scale(0.12 -0.12)"
               id="g8269">
              <use
                 xlink:href="#BitstreamVeraSans-Roman-2212"
                 id="use8271" />
              <use
                 x="83.7890625"
                 xlink:href="#BitstreamVeraSans-Roman-35"
                 id="use8273" />
              <use
                 x="147.412109375"
                 xlink:href="#BitstreamVeraSans-Roman-30"
                 id="use8275" />
            </g>
          </g>
        </g>
        <g
           id="ytick_5">
          <g
             id="line2d_38">
            <path
               clip-path="url(#p7ff5b81e1d)"
               d=" M72 216 L518.4 216"
               style="fill:none;stroke:#000000;stroke-dasharray:1.000000,3.000000;stroke-dashoffset:0.0;stroke-width:0.5;"
               id="path8279" />
          </g>
          <g
             id="line2d_39">
            <g
               id="g8282">
              <use
                 style="stroke:#000000;stroke-width:0.5;"
                 x="72.0"
                 xlink:href="#m728421d6d4"
                 y="216.0"
                 id="use8284" />
            </g>
          </g>
          <g
             id="line2d_40">
            <g
               id="g8287">
              <use
                 style="stroke:#000000;stroke-width:0.5;"
                 x="518.4"
                 xlink:href="#mcb0005524f"
                 y="216.0"
                 id="use8289" />
            </g>
          </g>
          <g
             id="text_12">
            <!-- 0 -->
            <g
               transform="translate(61.953125 219.31125)scale(0.12 -0.12)"
               id="g8292">
              <use
                 xlink:href="#BitstreamVeraSans-Roman-30"
                 id="use8294" />
            </g>
          </g>
        </g>
        <g
           id="ytick_6">
          <g
             id="line2d_41">
            <path
               clip-path="url(#p7ff5b81e1d)"
               d=" M72 172.8 L518.4 172.8"
               style="fill:none;stroke:#000000;stroke-dasharray:1.000000,3.000000;stroke-dashoffset:0.0;stroke-width:0.5;"
               id="path8298" />
          </g>
          <g
             id="line2d_42">
            <g
               id="g8301">
              <use
                 style="stroke:#000000;stroke-width:0.5;"
                 x="72.0"
                 xlink:href="#m728421d6d4"
                 y="172.8"
                 id="use8303" />
            </g>
          </g>
          <g
             id="line2d_43">
            <g
               id="g8306">
              <use
                 style="stroke:#000000;stroke-width:0.5;"
                 x="518.4"
                 xlink:href="#mcb0005524f"
                 y="172.8"
                 id="use8308" />
            </g>
          </g>
          <g
             id="text_13">
            <!-- 50 -->
            <g
               transform="translate(54.453125 176.11125)scale(0.12 -0.12)"
               id="g8311">
              <use
                 xlink:href="#BitstreamVeraSans-Roman-35"
                 id="use8313" />
              <use
                 x="63.623046875"
                 xlink:href="#BitstreamVeraSans-Roman-30"
                 id="use8315" />
            </g>
          </g>
        </g>
        <g
           id="ytick_7">
          <g
             id="line2d_44">
            <path
               clip-path="url(#p7ff5b81e1d)"
               d=" M72 129.6 L518.4 129.6"
               style="fill:none;stroke:#000000;stroke-dasharray:1.000000,3.000000;stroke-dashoffset:0.0;stroke-width:0.5;"
               id="path8319" />
          </g>
          <g
             id="line2d_45">
            <g
               id="g8322">
              <use
                 style="stroke:#000000;stroke-width:0.5;"
                 x="72.0"
                 xlink:href="#m728421d6d4"
                 y="129.6"
                 id="use8324" />
            </g>
          </g>
          <g
             id="line2d_46">
            <g
               id="g8327">
              <use
                 style="stroke:#000000;stroke-width:0.5;"
                 x="518.4"
                 xlink:href="#mcb0005524f"
                 y="129.6"
                 id="use8329" />
            </g>
          </g>
          <g
             id="text_14">
            <!-- 100 -->
            <g
               transform="translate(47.21 132.91125)scale(0.12 -0.12)"
               id="g8332">
              <use
                 xlink:href="#BitstreamVeraSans-Roman-31"
                 id="use8334" />
              <use
                 x="63.623046875"
                 xlink:href="#BitstreamVeraSans-Roman-30"
                 id="use8336" />
              <use
                 x="127.24609375"
                 xlink:href="#BitstreamVeraSans-Roman-30"
                 id="use8338" />
            </g>
          </g>
        </g>
        <g
           id="ytick_8">
          <g
             id="line2d_47">
            <path
               clip-path="url(#p7ff5b81e1d)"
               d=" M72 86.4 L518.4 86.4"
               style="fill:none;stroke:#000000;stroke-dasharray:1.000000,3.000000;stroke-dashoffset:0.0;stroke-width:0.5;"
               id="path8342" />
          </g>
          <g
             id="line2d_48">
            <g
               id="g8345">
              <use
                 style="stroke:#000000;stroke-width:0.5;"
                 x="72.0"
                 xlink:href="#m728421d6d4"
                 y="86.4"
                 id="use8347" />
            </g>
          </g>
          <g
             id="line2d_49">
            <g
               id="g8350">
              <use
                 style="stroke:#000000;stroke-width:0.5;"
                 x="518.4"
                 xlink:href="#mcb0005524f"
                 y="86.4"
                 id="use8352" />
            </g>
          </g>
          <g
             id="text_15">
            <!-- 150 -->
            <g
               transform="translate(47.21 89.71125)scale(0.12 -0.12)"
               id="g8355">
              <use
                 xlink:href="#BitstreamVeraSans-Roman-31"
                 id="use8357" />
              <use
                 x="63.623046875"
                 xlink:href="#BitstreamVeraSans-Roman-35"
                 id="use8359" />
              <use
                 x="127.24609375"
                 xlink:href="#BitstreamVeraSans-Roman-30"
                 id="use8361" />
            </g>
          </g>
        </g>
        <g
           id="ytick_9">
          <g
             id="line2d_50">
            <path
               clip-path="url(#p7ff5b81e1d)"
               d=" M72 43.2 L518.4 43.2"
               style="fill:none;stroke:#000000;stroke-dasharray:1.000000,3.000000;stroke-dashoffset:0.0;stroke-width:0.5;"
               id="path8365" />
          </g>
          <g
             id="line2d_51">
            <g
               id="g8368">
              <use
                 style="stroke:#000000;stroke-width:0.5;"
                 x="72.0"
                 xlink:href="#m728421d6d4"
                 y="43.2"
                 id="use8370" />
            </g>
          </g>
          <g
             id="line2d_52">
            <g
               id="g8373">
              <use
                 style="stroke:#000000;stroke-width:0.5;"
                 x="518.4"
                 xlink:href="#mcb0005524f"
                 y="43.2"
                 id="use8375" />
            </g>
          </g>
          <g
             id="text_16">
            <!-- 200 -->
            <g
               transform="translate(46.77125 46.51125)scale(0.12 -0.12)"
               id="g8378">
              <use
                 xlink:href="#BitstreamVeraSans-Roman-32"
                 id="use8380" />
              <use
                 x="63.623046875"
                 xlink:href="#BitstreamVeraSans-Roman-30"
                 id="use8382" />
              <use
                 x="127.24609375"
                 xlink:href="#BitstreamVeraSans-Roman-30"
                 id="use8384" />
            </g>
          </g>
        </g>
        <g
           id="text_17">
          <!-- $(N.m)$ -->
          <defs
             id="defs8387">
            <path
               d=" M4.6875 0 Q3.71875 0 3.71875 1.3125 Q3.76562 1.5625 3.90625 2.17188 Q4.04688 2.78125 4.3125 3.14062 Q4.59375 3.51562 4.98438 3.51562 Q14.5469 3.51562 16.1094 9.625 L29.6875 64.3125 Q26.9062 64.7969 20.9062 64.7969 Q19.9219 64.7969 19.9219 66.1094 Q19.9688 66.3594 20.1094 66.9688 Q20.2656 67.5781 20.5312 67.9375 Q20.7969 68.3125 21.1875 68.3125 L38.4844 68.3125 Q39.2031 68.3125 39.4062 67.6719 L61.625 14.7969 L72.7031 59.0781 Q72.9062 60.1562 72.9062 60.5938 Q72.9062 64.7969 65.1875 64.7969 Q64.2031 64.7969 64.2031 66.1094 Q64.5469 67.3906 64.7344 67.8438 Q64.9375 68.3125 65.9219 68.3125 L87.3125 68.3125 Q88.2812 68.3125 88.2812 67 Q88.2344 66.75 88.0781 66.1406 Q87.9375 65.5312 87.6719 65.1562 Q87.4062 64.7969 87.0156 64.7969 Q77.4375 64.7969 75.875 58.6875 L61.5312 0.875 Q61.1875 0 60.5 0 L59.2812 0 Q58.5938 0 58.4062 0.6875 L32.9062 61.1875 L32.7188 61.8125 Q32.5156 62.0156 32.5156 62.1094 L19.2812 9.1875 Q19.1875 8.9375 19.1406 8.5625 Q19.0938 8.20312 19 7.71875 Q19 5.125 21.2344 4.3125 Q23.4844 3.51562 26.8125 3.51562 Q27.7812 3.51562 27.7812 2.20312 Q27.4375 0.828125 27.1875 0.40625 Q26.9531 0 26.125 0 z "
               id="Cmmi10-4e" />
            <path
               d=" M8.40625 5.51562 Q8.40625 7.76562 10.0625 9.375 Q11.7188 10.9844 13.9219 10.9844 Q15.2812 10.9844 16.5938 10.25 Q17.9219 9.51562 18.6562 8.20312 Q19.3906 6.89062 19.3906 5.51562 Q19.3906 3.32812 17.7656 1.65625 Q16.1562 0 13.9219 0 Q11.7188 0 10.0625 1.65625 Q8.40625 3.32812 8.40625 5.51562"
               id="Cmmi10-3a" />
          </defs>
          <g
             transform="translate(27.1075 243.5)rotate(-90.0)scale(0.2 -0.2)"
             id="g8391">
            <use
               xlink:href="#Cmr10-28"
               id="use8393" />
            <use
               transform="translate(38.818359375 0.0)"
               xlink:href="#Cmmi10-4e"
               id="use8395" />
            <use
               transform="translate(119.140625 0.0)"
               xlink:href="#Cmmi10-3a"
               id="use8397" />
            <use
               transform="translate(147.68359375 0.0)"
               xlink:href="#Cmmi10-6d"
               id="use8399" />
            <use
               transform="translate(235.4765625 0.0)"
               xlink:href="#Cmr10-29"
               id="use8401" />
          </g>
        </g>
      </g>
      <g
         id="patch_3">
        <path
           d=" M72 43.2 L518.4 43.2"
           style="fill:none;stroke:#000000;"
           id="path8404" />
      </g>
      <g
         id="patch_4">
        <path
           d=" M518.4 388.8 L518.4 43.2"
           style="fill:none;stroke:#000000;"
           id="path8407" />
      </g>
      <g
         id="patch_5">
        <path
           d=" M72 388.8 L518.4 388.8"
           style="fill:none;stroke:#000000;"
           id="path8410" />
      </g>
      <g
         id="patch_6">
        <path
           d=" M72 388.8 L72 43.2"
           style="fill:none;stroke:#000000;"
           id="path8413" />
      </g>
      <g
         id="legend_1"
         transform="matrix(0.78511953,0,0,0.65248802,-246.70212,17.32758)"
         style="stroke-linecap:butt;stroke-linejoin:round">
        <g
           id="patch_7"
           style="stroke-linecap:butt;stroke-linejoin:round">
          <path
             d="m 417.6,273.578 90.8,0 0,-220.378 -90.8,0 0,220.378 z"
             style="fill:#ffffff;stroke:#000000;stroke-linecap:butt;stroke-linejoin:round"
             id="path8417"
             inkscape:connector-curvature="0" />
        </g>
        <g
           id="line2d_53"
           style="stroke-linecap:butt;stroke-linejoin:round">
          <path
             d="m 431.6,69.3969 28,0"
             style="fill:none;stroke:#000000;stroke-width:2;stroke-linecap:square;stroke-linejoin:round"
             id="path8420"
             inkscape:connector-curvature="0" />
        </g>
        <g
           id="line2d_54"
           style="stroke-linecap:butt;stroke-linejoin:round" />
        <g
           id="text_18"
           style="stroke-linecap:butt;stroke-linejoin:round">
          <!-- $\tau_6$ -->
          <defs
             id="defs8424">
            <path
               d="m 15.5781,1.51562 q 0,0.6875 0.1407,1.07813 l 10.5,34.32815 -9.0313,0 q -3.6563,0 -6.8437,-2.2969 Q 7.17188,32.3281 5.07812,28.8125 4.89062,28.4219 4.5,28.4219 l -1.17188,0 q -0.9375,0 -0.9375,0.9687 0,0.2032 0.20313,0.5938 3.26563,5.5625 7,9.3437 3.73435,3.7813 8.42185,3.7813 l 30.6719,0 q 1.0625,0 1.7969,-0.7344 0.7344,-0.7188 0.7344,-1.7969 0,-1.4687 -1.0469,-2.5625 -1.0469,-1.0937 -2.5625,-1.0937 L 29.5,36.9219 22.7969,2.39062 Q 22.4062,0.78125 21.3281,-0.265625 20.2656,-1.3125 18.6094,-1.3125 q -1.2813,0 -2.1563,0.8125 -0.875,0.796875 -0.875,2.01562"
               id="Cmmi10-bf"
               inkscape:connector-curvature="0"
               style="stroke-linecap:butt;stroke-linejoin:round" />
            <path
               d="m 25,-2.20312 q -6.2031,0 -10.3594,3.29687 Q 10.5,4.39062 8.21875,9.64062 5.95312,14.8906 5.07812,20.6562 q -0.875,5.7657 -0.875,11.6719 0,7.9063 3.07813,15.8594 3.07815,7.9687 9.04685,13.1875 5.9844,5.2344 14.1875,5.2344 3.4219,0 6.375,-1.2969 2.9532,-1.2969 4.6406,-3.8125 1.6876,-2.5156 1.6876,-6.0781 0,-2.0469 -1.3907,-3.4375 -1.3906,-1.3906 -3.4531,-1.3906 -1.9531,0 -3.375,1.4062 -1.4062,1.4219 -1.4062,3.4219 0,1.9531 1.4062,3.3593 1.4219,1.4219 3.375,1.4219 l 0.5469,0 q -1.2813,1.8125 -3.5938,2.6563 -2.3125,0.8594 -4.8125,0.8594 -3.0312,0 -5.5937,-1.3282 -2.5625,-1.3125 -4.6094,-3.5625 -2.0469,-2.2343 -3.4219,-4.9531 -1.3594,-2.7031 -2.125,-6.1719 -0.75,-3.4687 -0.9531,-6.5 -0.1875,-3.0156 -0.1875,-7.6093 1.75,4.1093 4.9688,6.7187 3.2343,2.6094 7.2812,2.6094 4.4531,0 8.1094,-1.8125 3.6562,-1.7969 6.2968,-5 2.6407,-3.2032 4.0313,-7.3125 1.3906,-4.0938 1.3906,-8.2813 0,-5.8594 -2.6093,-11.17185 Q 40.4844,4.04688 35.7344,0.921875 31,-2.20312 25,-2.20312 m 0,3.187495 q 3.8594,0 6.2031,1.750005 2.3438,1.76562 3.4375,4.65624 1.1094,2.90628 1.375,5.85938 0.2656,2.9688 0.2656,7.2656 0,5.6563 -0.5468,9.6563 -0.5313,4.0156 -2.9219,7.0625 -2.3906,3.0468 -7.3281,3.0468 -4.0469,0 -6.6563,-2.7343 -2.6093,-2.7344 -3.8125,-6.9063 -1.2031,-4.1718 -1.2031,-8.0312 0,-1.3125 0.1094,-2 0,-0.1563 -0.0313,-0.25 -0.0156,-0.0938 -0.0781,-0.2344 0,-4.2969 0.875,-8.7031 Q 15.5781,7.03125 18.0625,4 20.5625,0.984375 25,0.984375"
               id="Cmr10-36"
               inkscape:connector-curvature="0"
               style="stroke-linecap:butt;stroke-linejoin:round" />
          </defs>
          <g
             transform="matrix(0.2,0,0,-0.2,481.6,76.396875)"
             id="g8428"
             style="stroke-linecap:butt;stroke-linejoin:round">
            <use
               transform="translate(0,0.890625)"
               xlink:href="#Cmmi10-bf"
               id="use8430"
               style="stroke-linecap:butt;stroke-linejoin:round"
               x="0"
               y="0"
               width="576"
               height="432" />
            <use
               transform="matrix(0.7,0,0,0.7,43.701172,-24.61875)"
               xlink:href="#Cmr10-36"
               id="use8432"
               style="stroke-linecap:butt;stroke-linejoin:round"
               x="0"
               y="0"
               width="576"
               height="432" />
          </g>
        </g>
        <g
           id="line2d_55"
           style="stroke-linecap:butt;stroke-linejoin:round">
          <path
             d="m 431.6,100.194 28,0"
             style="fill:none;stroke:#bfbf00;stroke-width:2;stroke-linecap:square;stroke-linejoin:round"
             id="path8435"
             inkscape:connector-curvature="0" />
        </g>
        <g
           id="line2d_56"
           style="stroke-linecap:butt;stroke-linejoin:round" />
        <g
           id="text_19"
           style="stroke-linecap:butt;stroke-linejoin:round">
          <!-- $\tau_5$ -->
          <defs
             id="defs8439">
            <path
               d="m 8.6875,11.375 q 1.03125,-2.92188 3.1563,-5.32812 2.125,-2.39063 5.0312,-3.73438 2.9062,-1.328125 6.0312,-1.328125 7.2188,0 9.9532,5.609375 2.7344,5.60935 2.7344,13.62505 0,3.4687 -0.125,5.8281 -0.1094,2.375 -0.6563,4.5625 -0.9219,3.5156 -3.25,6.1562 -2.3125,2.6406 -5.6875,2.6406 -3.3594,0 -5.7812,-1.0312 -2.4219,-1.0156 -3.9376,-2.3906 -1.5,-1.3594 -2.6718,-2.875 Q 12.3125,31.5938 12.0156,31.5 l -1.125,0 q -0.25,0 -0.625,0.3125 -0.35935,0.3125 -0.35935,0.6094 l 0,33.4062 q 0,0.2344 0.31255,0.5 0.3281,0.2813 0.6718,0.2813 l 0.2969,0 q 6.7344,-3.2344 14.2969,-3.2344 7.4218,0 14.3125,3.2344 l 0.2969,0 q 0.3437,0 0.625,-0.25 0.2968,-0.25 0.2968,-0.5313 l 0,-0.9375 q 0,-0.4844 -0.1875,-0.4844 -3.4219,-4.5468 -8.5781,-7.0937 -5.1562,-2.5313 -10.6719,-2.5313 -4,0 -8.2031,1.125 l 0,-18.8906 q 3.3281,2.6875 5.9375,3.8282 Q 21.9219,42 25.9844,42 q 5.5156,0 9.875,-3.1875 4.375,-3.1719 6.7187,-8.2813 2.3438,-5.0937 2.3438,-10.4062 0,-6.0156 -2.9531,-11.14062 -2.9532,-5.125 -8.0313,-8.156255 -5.0781,-3.031245 -11.0313,-3.031245 -4.9374,0 -9.0624,2.531245 Q 9.71875,2.875 7.34375,7.17188 4.98438,11.4688 4.98438,16.3125 q 0,2.25 1.45312,3.6563 1.46875,1.4218 3.6719,1.4218 2.2031,0 3.6875,-1.4531 1.4843,-1.4375 1.4843,-3.625 0,-2.1563 -1.4843,-3.6406 -1.4844,-1.4844 -3.6875,-1.4844 -0.34378,0 -0.78128,0.0625 -0.4375,0.0781 -0.64062,0.125"
               id="Cmr10-35"
               inkscape:connector-curvature="0"
               style="stroke-linecap:butt;stroke-linejoin:round" />
          </defs>
          <g
             transform="matrix(0.2,0,0,-0.2,481.6,107.19375)"
             id="g8442"
             style="stroke-linecap:butt;stroke-linejoin:round">
            <use
               transform="translate(0,0.890625)"
               xlink:href="#Cmmi10-bf"
               id="use8444"
               style="stroke-linecap:butt;stroke-linejoin:round"
               x="0"
               y="0"
               width="576"
               height="432" />
            <use
               transform="matrix(0.7,0,0,0.7,43.701172,-24.61875)"
               xlink:href="#Cmr10-35"
               id="use8446"
               style="stroke-linecap:butt;stroke-linejoin:round"
               x="0"
               y="0"
               width="576"
               height="432" />
          </g>
        </g>
        <g
           id="line2d_57"
           style="stroke-linecap:butt;stroke-linejoin:round">
          <path
             d="m 431.6,130.991 28,0"
             style="fill:none;stroke:#bf00bf;stroke-width:2;stroke-linecap:square;stroke-linejoin:round"
             id="path8449"
             inkscape:connector-curvature="0" />
        </g>
        <g
           id="line2d_58"
           style="stroke-linecap:butt;stroke-linejoin:round" />
        <g
           id="text_20"
           style="stroke-linecap:butt;stroke-linejoin:round">
          <!-- $\tau_4$ -->
          <defs
             id="defs8453">
            <path
               d="m 2.78125,16.5 0,3.5156 30.90625,46.0938 q 0.3437,0.5 1.0313,0.5 l 1.4687,0 q 1.125,0 1.125,-1.125 l 0,-45.4688 9.8125,0 0,-3.5156 -9.8125,0 0,-9.8125 q 0,-2.04688 2.9219,-2.60938 2.9375,-0.5625 6.7812,-0.5625 l 0,-3.51562 -27.5312,0 0,3.51562 q 3.8594,0 6.7812,0.5625 2.9375,0.5625 2.9375,2.60938 l 0,9.8125 z m 3.32813,3.5156 23.67182,0 0,35.4063 z"
               id="Cmr10-34"
               inkscape:connector-curvature="0"
               style="stroke-linecap:butt;stroke-linejoin:round" />
          </defs>
          <g
             transform="matrix(0.2,0,0,-0.2,481.6,137.99062)"
             id="g8456"
             style="stroke-linecap:butt;stroke-linejoin:round">
            <use
               transform="translate(0,0.890625)"
               xlink:href="#Cmmi10-bf"
               id="use8458"
               style="stroke-linecap:butt;stroke-linejoin:round"
               x="0"
               y="0"
               width="576"
               height="432" />
            <use
               transform="matrix(0.7,0,0,0.7,43.701172,-24.61875)"
               xlink:href="#Cmr10-34"
               id="use8460"
               style="stroke-linecap:butt;stroke-linejoin:round"
               x="0"
               y="0"
               width="576"
               height="432" />
          </g>
        </g>
        <g
           id="line2d_59"
           style="stroke-linecap:butt;stroke-linejoin:round">
          <path
             d="m 431.6,161.388 28,0"
             style="fill:none;stroke:#00bfbf;stroke-width:2;stroke-linecap:square;stroke-linejoin:round"
             id="path8463"
             inkscape:connector-curvature="0" />
        </g>
        <g
           id="line2d_60"
           style="stroke-linecap:butt;stroke-linejoin:round" />
        <g
           id="text_21"
           style="stroke-linecap:butt;stroke-linejoin:round">
          <!-- $\tau_3$ -->
          <defs
             id="defs8467">
            <path
               d="m 9.51562,7.71875 q 2.34378,-3.42187 6.29688,-5.07813 3.9687,-1.656245 8.5,-1.656245 5.8125,0 8.25,4.953125 2.4531,4.9531 2.4531,11.25 0,2.8281 -0.5156,5.6563 -0.5156,2.8437 -1.7344,5.2812 -1.2187,2.4375 -3.3437,3.9062 Q 27.2969,33.5 24.2188,33.5 l -6.6407,0 q -0.875,0 -0.875,0.9219 l 0,0.875 q 0,0.7812 0.875,0.7812 l 5.5157,0.4531 q 3.5156,0 5.8281,2.625 2.3281,2.6407 3.4062,6.4219 1.0781,3.7813 1.0781,7.2031 0,4.7813 -2.25,7.8594 -2.25,3.0782 -6.8437,3.0782 -3.7969,0 -7.2656,-1.4376 -3.4688,-1.4374 -5.5157,-4.375 0.1876,0.0469 0.3282,0.0782 0.1562,0.0312 0.3437,0.0312 2.25,0 3.7657,-1.5625 1.5156,-1.5625 1.5156,-3.7656 0,-2.1563 -1.5156,-3.7187 -1.5157,-1.5626 -3.7657,-1.5626 -2.1875,0 -3.74998,1.5626 -1.5625,1.5624 -1.5625,3.7187 0,4.2969 2.57813,7.4687 2.59375,3.1719 6.67185,4.8126 4.0782,1.6406 8.1719,1.6406 3.0313,0 6.3906,-0.9063 3.375,-0.9062 6.1094,-2.5937 2.7344,-1.6875 4.4687,-4.3282 1.7344,-2.625 1.7344,-6 0,-4.2031 -1.875,-7.7656 -1.875,-3.5625 -5.1562,-6.1562 -3.2656,-2.5782 -7.1719,-3.8438 4.3437,-0.8281 8.25,-3.2812 3.9063,-2.4375 6.2656,-6.25 2.375,-3.7969 2.375,-8.2032 0,-5.5156 -3.0312,-9.98432 -3.0157,-4.46876 -7.9531,-6.98438 -4.9376,-2.51562 -10.4063,-2.51562 -4.6875,0 -9.4063,1.79687 -4.7031,1.78125 -7.70308,5.34375 -3,3.5625 -3,8.5469 0,2.4844 1.65626,4.1406 1.65624,1.6562 4.15622,1.6562 1.6094,0 2.9532,-0.75 1.3437,-0.75 2.0937,-2.125 0.7656,-1.3593 0.7656,-2.9218 0,-2.4532 -1.7187,-4.1094 -1.7032,-1.65625 -4.0938,-1.65625 z"
               id="Cmr10-33"
               inkscape:connector-curvature="0"
               style="stroke-linecap:butt;stroke-linejoin:round" />
          </defs>
          <g
             transform="matrix(0.2,0,0,-0.2,481.6,168.3875)"
             id="g8470"
             style="stroke-linecap:butt;stroke-linejoin:round">
            <use
               transform="translate(0,0.890625)"
               xlink:href="#Cmmi10-bf"
               id="use8472"
               style="stroke-linecap:butt;stroke-linejoin:round"
               x="0"
               y="0"
               width="576"
               height="432" />
            <use
               transform="matrix(0.7,0,0,0.7,43.701172,-24.61875)"
               xlink:href="#Cmr10-33"
               id="use8474"
               style="stroke-linecap:butt;stroke-linejoin:round"
               x="0"
               y="0"
               width="576"
               height="432" />
          </g>
        </g>
        <g
           id="line2d_61"
           style="stroke-linecap:butt;stroke-linejoin:round">
          <path
             d="m 431.6,192.184 28,0"
             style="fill:none;stroke:#ff0000;stroke-width:2;stroke-linecap:square;stroke-linejoin:round"
             id="path8477"
             inkscape:connector-curvature="0" />
        </g>
        <g
           id="line2d_62"
           style="stroke-linecap:butt;stroke-linejoin:round" />
        <g
           id="text_22"
           style="stroke-linecap:butt;stroke-linejoin:round">
          <!-- $\tau_2$ -->
          <defs
             id="defs8481">
            <path
               d="m 4.98438,0 0,2.6875 q 0,0.25 0.1875,0.53125 L 20.7031,20.4062 q 3.5157,3.8126 5.7031,6.3907 2.2032,2.5937 4.3438,5.9687 2.1562,3.375 3.4062,6.8594 1.25,3.4844 1.25,7.3906 0,4.1094 -1.5156,7.8438 -1.5156,3.7344 -4.5156,5.9844 -3,2.25 -7.25,2.25 -4.3438,0 -7.8125,-2.625 -3.4687,-2.6094 -4.89062,-6.75 0.39062,0.0937 1.07812,0.0937 2.25,0 3.8281,-1.5156 1.5938,-1.5157 1.5938,-3.9063 0,-2.2968 -1.5938,-3.8906 Q 12.75,42.9219 10.5,42.9219 q -2.34375,0 -3.9375,1.625 -1.57812,1.6406 -1.57812,3.8437 0,3.7656 1.40624,7.0469 1.42188,3.2969 4.07818,5.8594 2.6718,2.5781 6.0156,3.9375 3.3437,1.375 7.0937,1.375 5.7188,0 10.6407,-2.4219 4.9374,-2.4219 7.8124,-6.8437 2.8907,-4.4063 2.8907,-10.3282 0,-4.3437 -1.9063,-8.25 -1.9062,-3.9062 -4.8906,-7.1094 -2.9688,-3.1874 -7.6094,-7.25 Q 25.875,20.3594 24.4219,19 L 13.0938,8.10938 l 9.6093,0 q 7.0781,0 11.8438,0.10937 4.7656,0.125 5.0469,0.375 Q 40.7656,9.85938 42,17.8281 l 2.9219,0 L 42.0938,0 z"
               id="Cmr10-32"
               inkscape:connector-curvature="0"
               style="stroke-linecap:butt;stroke-linejoin:round" />
          </defs>
          <g
             transform="matrix(0.2,0,0,-0.2,481.6,199.18437)"
             id="g8484"
             style="stroke-linecap:butt;stroke-linejoin:round">
            <use
               transform="translate(0,0.890625)"
               xlink:href="#Cmmi10-bf"
               id="use8486"
               style="stroke-linecap:butt;stroke-linejoin:round"
               x="0"
               y="0"
               width="576"
               height="432" />
            <use
               transform="matrix(0.7,0,0,0.7,43.701172,-24.61875)"
               xlink:href="#Cmr10-32"
               id="use8488"
               style="stroke-linecap:butt;stroke-linejoin:round"
               x="0"
               y="0"
               width="576"
               height="432" />
          </g>
        </g>
        <g
           id="line2d_63"
           style="stroke-linecap:butt;stroke-linejoin:round">
          <path
             d="m 431.6,222.581 28,0"
             style="fill:none;stroke:#008000;stroke-width:2;stroke-linecap:square;stroke-linejoin:round"
             id="path8491"
             inkscape:connector-curvature="0" />
        </g>
        <g
           id="line2d_64"
           style="stroke-linecap:butt;stroke-linejoin:round" />
        <g
           id="text_23"
           style="stroke-linecap:butt;stroke-linejoin:round">
          <!-- $\tau_1$ -->
          <defs
             id="defs8495">
            <path
               d="m 9.28125,0 0,3.51562 q 12.49995,0 12.49995,3.17188 l 0,52.5 q -5.1718,-2.5 -13.0937,-2.5 l 0,3.5156 q 12.2656,0 18.5156,6.4063 l 1.4063,0 q 0.3437,0 0.6562,-0.2813 0.3282,-0.2656 0.3282,-0.6093 l 0,-59.0313 q 0,-3.17188 12.5,-3.17188 L 42.0938,0 z"
               id="Cmr10-31"
               inkscape:connector-curvature="0"
               style="stroke-linecap:butt;stroke-linejoin:round" />
          </defs>
          <g
             transform="matrix(0.2,0,0,-0.2,481.6,229.58125)"
             id="g8498"
             style="stroke-linecap:butt;stroke-linejoin:round">
            <use
               transform="translate(0,0.890625)"
               xlink:href="#Cmmi10-bf"
               id="use8500"
               style="stroke-linecap:butt;stroke-linejoin:round"
               x="0"
               y="0"
               width="576"
               height="432" />
            <use
               transform="matrix(0.7,0,0,0.7,43.701172,-24.61875)"
               xlink:href="#Cmr10-31"
               id="use8502"
               style="stroke-linecap:butt;stroke-linejoin:round"
               x="0"
               y="0"
               width="576"
               height="432" />
          </g>
        </g>
        <g
           id="line2d_65"
           style="stroke-linecap:butt;stroke-linejoin:round">
          <path
             d="m 431.6,252.978 28,0"
             style="fill:none;stroke:#0000ff;stroke-width:2;stroke-linecap:square;stroke-linejoin:round"
             id="path8505"
             inkscape:connector-curvature="0" />
        </g>
        <g
           id="line2d_66"
           style="stroke-linecap:butt;stroke-linejoin:round" />
        <g
           id="text_24"
           style="stroke-linecap:butt;stroke-linejoin:round">
          <!-- $\tau_0$ -->
          <defs
             id="defs8509">
            <path
               d="m 25,-2.20312 q -12.25,0 -16.67188,10.07812 -4.42187,10.0938 -4.42187,24.0156 0,8.6875 1.57813,16.3438 Q 7.07812,55.9062 11.7812,61.25 16.5,66.6094 25,66.6094 q 6.5938,0 10.7812,-3.2344 4.2032,-3.2188 6.4063,-8.3281 2.2031,-5.0938 3,-10.9375 Q 46,38.2812 46,31.8906 46,23.2969 44.4062,15.7969 42.8281,8.29688 38.1875,3.04688 33.5469,-2.20312 25,-2.20312 m 0,2.593745 q 5.5625,0 8.2969,5.703125 2.7343,5.71875 3.375,12.65625 0.6406,6.9375 0.6406,14.75 0,7.5156 -0.6406,13.8594 -0.6407,6.3594 -3.3594,11.5 -2.7031,5.1562 -8.3125,5.1562 -5.6562,0 -8.3906,-5.1875 -2.7344,-5.1719 -3.375,-11.5 -0.6406,-6.3125 -0.6406,-13.8281 0,-5.5625 0.2656,-10.5 0.2812,-4.9375 1.4531,-10.1875 1.1719,-5.25 3.7813,-8.84375 Q 20.7031,0.390625 25,0.390625"
               id="Cmr10-30"
               inkscape:connector-curvature="0"
               style="stroke-linecap:butt;stroke-linejoin:round" />
          </defs>
          <g
             transform="matrix(0.2,0,0,-0.2,481.6,259.97812)"
             id="g8512"
             style="stroke-linecap:butt;stroke-linejoin:round">
            <use
               transform="translate(0,0.890625)"
               xlink:href="#Cmmi10-bf"
               id="use8514"
               style="stroke-linecap:butt;stroke-linejoin:round"
               x="0"
               y="0"
               width="576"
               height="432" />
            <use
               transform="matrix(0.7,0,0,0.7,43.701172,-24.61875)"
               xlink:href="#Cmr10-30"
               id="use8516"
               style="stroke-linecap:butt;stroke-linejoin:round"
               x="0"
               y="0"
               width="576"
               height="432" />
          </g>
        </g>
      </g>
    </g>
  </g>
  <defs
     id="defs8518">
    <clipPath
       id="p7ff5b81e1d">
      <rect
         height="345.6"
         width="446.4"
         x="72.0"
         y="43.2"
         id="rect8521" />
    </clipPath>
  </defs>
</svg>
