<?xml version="1.0" encoding="UTF-8" standalone="no"?>
<!-- Created with matplotlib (http://matplotlib.org/) -->

<svg
   xmlns:dc="http://purl.org/dc/elements/1.1/"
   xmlns:cc="http://creativecommons.org/ns#"
   xmlns:rdf="http://www.w3.org/1999/02/22-rdf-syntax-ns#"
   xmlns:svg="http://www.w3.org/2000/svg"
   xmlns="http://www.w3.org/2000/svg"
   xmlns:xlink="http://www.w3.org/1999/xlink"
   xmlns:sodipodi="http://sodipodi.sourceforge.net/DTD/sodipodi-0.dtd"
   xmlns:inkscape="http://www.inkscape.org/namespaces/inkscape"
   height="432pt"
   version="1.1"
   viewBox="0 0 576 432"
   width="576pt"
   id="svg4320"
   inkscape:version="0.48.3.1 r9886"
   sodipodi:docname="Ke_wO_wC_woEc.svg">
  <metadata
     id="metadata4791">
    <rdf:RDF>
      <cc:Work
         rdf:about="">
        <dc:format>image/svg+xml</dc:format>
        <dc:type
           rdf:resource="http://purl.org/dc/dcmitype/StillImage" />
        <dc:title></dc:title>
      </cc:Work>
    </rdf:RDF>
  </metadata>
  <sodipodi:namedview
     pagecolor="#ffffff"
     bordercolor="#666666"
     borderopacity="1"
     objecttolerance="10"
     gridtolerance="10"
     guidetolerance="10"
     inkscape:pageopacity="0"
     inkscape:pageshadow="2"
     inkscape:window-width="1535"
     inkscape:window-height="876"
     id="namedview4789"
     showgrid="false"
     inkscape:zoom="1.1470843"
     inkscape:cx="490.2157"
     inkscape:cy="253.38609"
     inkscape:window-x="65"
     inkscape:window-y="24"
     inkscape:window-maximized="1"
     inkscape:current-layer="g4748" />
  <defs
     id="defs4322">
    <style
       type="text/css"
       id="style4324">
*{stroke-linecap:butt;stroke-linejoin:round;}
  </style>
    <marker
       inkscape:stockid="Arrow1Lstart"
       orient="auto"
       refY="0"
       refX="0"
       id="Arrow1Lstart"
       style="overflow:visible">
      <path
         inkscape:connector-curvature="0"
         id="path13350"
         d="M 0,0 5,-5 -12.5,0 5,5 0,0 z"
         style="fill-rule:evenodd;stroke:#000000;stroke-width:1pt"
         transform="matrix(0.8,0,0,0.8,10,0)" />
    </marker>
  </defs>
  <g
     id="figure_1">
    <g
       id="axes_1">
      <g
         id="patch_2">
        <path
           d=" M72 388.8 L518.4 388.8 L518.4 43.2 L72 43.2 z "
           style="fill:#ffffff;"
           id="path4332" />
      </g>
      <g
         id="line2d_1">
        <path
           clip-path="url(#p7ff5b81e1d)"
           d=" M72 357.382 L231.838 357.489 L234.349 357.753 L236.501 358.208 L238.414 358.864 L239.729 359.473 L241.761 360.721 L243.554 362.119 L247.141 365.763 L249.054 368.046 L249.771 368.927 L253.238 373.134 L253.357 373.163 L253.836 373.764 L254.433 374.462 L254.792 374.786 L256.227 376.299 L256.346 376.18 L256.585 376.461 L256.944 376.815 L257.303 376.942 L257.781 377.429 L258.02 377.517 L258.379 377.807 L258.618 377.944 L258.737 377.851 L258.976 377.973 L259.215 378.246 L259.455 378.275 L259.694 378.446 L259.813 378.414 L260.052 378.572 L260.172 378.445 L260.291 378.644 L260.53 378.628 L262.085 378.876 L262.204 378.705 L262.563 378.845 L262.682 378.749 L262.802 378.815 L263.041 378.693 L263.161 378.751 L263.28 378.643 L263.4 378.696 L263.878 378.394 L264.237 378.429 L264.954 378.03 L266.388 377.234 L266.867 376.729 L266.986 376.782 L267.106 376.686 L267.345 376.417 L267.464 376.387 L267.703 376.179 L268.182 375.675 L268.421 375.448 L268.66 375.281 L269.138 374.734 L269.258 374.672 L269.616 374.231 L269.975 373.9 L270.214 373.577 L272.844 370.461 L277.387 365.026 L278.941 363.392 L280.854 361.647 L282.647 360.314 L284.321 359.328 L286.114 358.546 L288.386 357.907 L290.538 357.578 L293.287 357.411 L298.787 357.374 L322.577 357.421 L330.109 357.618 L335.967 357.986 L358.801 360.409 L359.518 360.44 L359.996 360.487 L362.985 360.496 L363.344 360.492 L363.702 360.52 L364.18 360.476 L368.006 360.318 L368.245 360.299 L371.353 359.997 L371.712 359.918 L372.19 359.898 L377.331 359.178 L377.809 359.062 L379.244 358.885 L379.841 358.764 L380.32 358.72 L387.014 357.799 L387.851 357.727 L388.808 357.627 L390.123 357.536 L391.557 357.446 L396.339 357.35 L398.611 357.23 L403.991 356.395 L406.262 355.72 L408.294 354.886 L410.207 353.868 L413.555 351.374 L415.228 349.7 L416.902 347.722 L420.728 341.844 L421.564 340.231 L422.043 339.33 L422.879 337.542 L423.477 336.276 L424.434 334.053 L426.227 329.467 L427.422 326.05 L428.02 324.323 L429.216 320.576 L431.128 314.041 L435.91 294.902 L441.051 270.067 L444.04 253.858 L455.875 187.961 L460.06 165.985 L460.777 162.088 L461.853 155.453 L463.527 145.047 L467.472 121.464 L470.102 107.026 L472.971 93.2806 L475.242 84.3809 L477.036 78.8554 L478.351 75.7409 L479.427 73.8254 L480.144 72.8431 L481.1 71.9843 L481.818 71.6481 L482.296 71.6251 L482.535 71.6376 L482.655 71.5999 L483.133 71.801 L483.372 71.8502 L483.85 72.2472 L484.089 72.377 L484.448 72.8263 L484.567 72.8818 L484.926 73.4243 L485.165 73.6746 L485.643 74.525 L487.197 77.7391 L488.154 80.3551 L488.632 81.9365 L488.871 82.6036 L489.23 83.9599 L489.469 84.6531 L490.067 87.0127 L491.501 92.758 L491.979 95.0756 L492.099 95.4432 L492.577 97.8802 L492.697 98.2677 L493.294 101.411 L493.534 102.625 L493.773 103.673 L494.251 106.177 L496.403 118.285 L496.881 121.131 L498.913 133.731 L499.152 356.909 L501.783 356.789 L507.64 356.389 L515.65 355.639 L518.28 355.343 L518.28 355.343"
           style="fill:none;stroke:#0000ff;stroke-linecap:square;stroke-width:2.0;"
           id="path4335" />
      </g>
      <g
         id="matplotlib.axis_1">
        <g
           id="xtick_1">
          <g
             id="line2d_2">
            <path
               clip-path="url(#p7ff5b81e1d)"
               d=" M72 388.8 L72 43.2"
               style="fill:none;stroke:#000000;stroke-dasharray:1.000000,3.000000;stroke-dashoffset:0.0;stroke-width:0.5;"
               id="path4340" />
          </g>
          <g
             id="line2d_3">
            <defs
               id="defs4343">
              <path
                 d=" M0 0 L0 -4"
                 id="m93b0483c22"
                 style="stroke:#000000;stroke-width:0.5;" />
            </defs>
            <g
               id="g4346">
              <use
                 style="stroke:#000000;stroke-width:0.5;"
                 x="72.0"
                 xlink:href="#m93b0483c22"
                 y="388.8"
                 id="use4348" />
            </g>
          </g>
          <g
             id="line2d_4">
            <defs
               id="defs4351">
              <path
                 d=" M0 0 L0 4"
                 id="m741efc42ff"
                 style="stroke:#000000;stroke-width:0.5;" />
            </defs>
            <g
               id="g4354">
              <use
                 style="stroke:#000000;stroke-width:0.5;"
                 x="72.0"
                 xlink:href="#m741efc42ff"
                 y="43.2"
                 id="use4356" />
            </g>
          </g>
          <g
             id="text_1">
            <!-- 0.0 -->
            <defs
               id="defs4359">
              <path
                 d=" M31.7812 66.4062 Q24.1719 66.4062 20.3281 58.9062 Q16.5 51.4219 16.5 36.375 Q16.5 21.3906 20.3281 13.8906 Q24.1719 6.39062 31.7812 6.39062 Q39.4531 6.39062 43.2812 13.8906 Q47.125 21.3906 47.125 36.375 Q47.125 51.4219 43.2812 58.9062 Q39.4531 66.4062 31.7812 66.4062 M31.7812 74.2188 Q44.0469 74.2188 50.5156 64.5156 Q56.9844 54.8281 56.9844 36.375 Q56.9844 17.9688 50.5156 8.26562 Q44.0469 -1.42188 31.7812 -1.42188 Q19.5312 -1.42188 13.0625 8.26562 Q6.59375 17.9688 6.59375 36.375 Q6.59375 54.8281 13.0625 64.5156 Q19.5312 74.2188 31.7812 74.2188"
                 id="BitstreamVeraSans-Roman-30" />
              <path
                 d=" M10.6875 12.4062 L21 12.4062 L21 0 L10.6875 0 z "
                 id="BitstreamVeraSans-Roman-2e" />
            </defs>
            <g
               transform="translate(63.2521875 401.918125)scale(0.12 -0.12)"
               id="g4363">
              <use
                 xlink:href="#BitstreamVeraSans-Roman-30"
                 id="use4365" />
              <use
                 x="63.623046875"
                 xlink:href="#BitstreamVeraSans-Roman-2e"
                 id="use4367" />
              <use
                 x="95.41015625"
                 xlink:href="#BitstreamVeraSans-Roman-30"
                 id="use4369" />
            </g>
          </g>
        </g>
        <g
           id="xtick_2">
          <g
             id="line2d_5">
            <path
               clip-path="url(#p7ff5b81e1d)"
               d=" M131.775 388.8 L131.775 43.2"
               style="fill:none;stroke:#000000;stroke-dasharray:1.000000,3.000000;stroke-dashoffset:0.0;stroke-width:0.5;"
               id="path4373" />
          </g>
          <g
             id="line2d_6">
            <g
               id="g4376">
              <use
                 style="stroke:#000000;stroke-width:0.5;"
                 x="131.775040171"
                 xlink:href="#m93b0483c22"
                 y="388.8"
                 id="use4378" />
            </g>
          </g>
          <g
             id="line2d_7">
            <g
               id="g4381">
              <use
                 style="stroke:#000000;stroke-width:0.5;"
                 x="131.775040171"
                 xlink:href="#m741efc42ff"
                 y="43.2"
                 id="use4383" />
            </g>
          </g>
          <g
             id="text_2">
            <!-- 0.5 -->
            <defs
               id="defs4386">
              <path
                 d=" M10.7969 72.9062 L49.5156 72.9062 L49.5156 64.5938 L19.8281 64.5938 L19.8281 46.7344 Q21.9688 47.4688 24.1094 47.8281 Q26.2656 48.1875 28.4219 48.1875 Q40.625 48.1875 47.75 41.5 Q54.8906 34.8125 54.8906 23.3906 Q54.8906 11.625 47.5625 5.09375 Q40.2344 -1.42188 26.9062 -1.42188 Q22.3125 -1.42188 17.5469 -0.640625 Q12.7969 0.140625 7.71875 1.70312 L7.71875 11.625 Q12.1094 9.23438 16.7969 8.0625 Q21.4844 6.89062 26.7031 6.89062 Q35.1562 6.89062 40.0781 11.3281 Q45.0156 15.7656 45.0156 23.3906 Q45.0156 31 40.0781 35.4375 Q35.1562 39.8906 26.7031 39.8906 Q22.75 39.8906 18.8125 39.0156 Q14.8906 38.1406 10.7969 36.2812 z "
                 id="BitstreamVeraSans-Roman-35" />
            </defs>
            <g
               transform="translate(123.152852671 401.918125)scale(0.12 -0.12)"
               id="g4389">
              <use
                 xlink:href="#BitstreamVeraSans-Roman-30"
                 id="use4391" />
              <use
                 x="63.623046875"
                 xlink:href="#BitstreamVeraSans-Roman-2e"
                 id="use4393" />
              <use
                 x="95.41015625"
                 xlink:href="#BitstreamVeraSans-Roman-35"
                 id="use4395" />
            </g>
          </g>
        </g>
        <g
           id="xtick_3">
          <g
             id="line2d_8">
            <path
               clip-path="url(#p7ff5b81e1d)"
               d=" M191.55 388.8 L191.55 43.2"
               style="fill:none;stroke:#000000;stroke-dasharray:1.000000,3.000000;stroke-dashoffset:0.0;stroke-width:0.5;"
               id="path4399" />
          </g>
          <g
             id="line2d_9">
            <g
               id="g4402">
              <use
                 style="stroke:#000000;stroke-width:0.5;"
                 x="191.550080343"
                 xlink:href="#m93b0483c22"
                 y="388.8"
                 id="use4404" />
            </g>
          </g>
          <g
             id="line2d_10">
            <g
               id="g4407">
              <use
                 style="stroke:#000000;stroke-width:0.5;"
                 x="191.550080343"
                 xlink:href="#m741efc42ff"
                 y="43.2"
                 id="use4409" />
            </g>
          </g>
          <g
             id="text_3">
            <!-- 1.0 -->
            <defs
               id="defs4412">
              <path
                 d=" M12.4062 8.29688 L28.5156 8.29688 L28.5156 63.9219 L10.9844 60.4062 L10.9844 69.3906 L28.4219 72.9062 L38.2812 72.9062 L38.2812 8.29688 L54.3906 8.29688 L54.3906 0 L12.4062 0 z "
                 id="BitstreamVeraSans-Roman-31" />
            </defs>
            <g
               transform="translate(183.065705343 401.918125)scale(0.12 -0.12)"
               id="g4415">
              <use
                 xlink:href="#BitstreamVeraSans-Roman-31"
                 id="use4417" />
              <use
                 x="63.623046875"
                 xlink:href="#BitstreamVeraSans-Roman-2e"
                 id="use4419" />
              <use
                 x="95.41015625"
                 xlink:href="#BitstreamVeraSans-Roman-30"
                 id="use4421" />
            </g>
          </g>
        </g>
        <g
           id="xtick_4">
          <g
             id="line2d_11">
            <path
               clip-path="url(#p7ff5b81e1d)"
               d=" M251.325 388.8 L251.325 43.2"
               style="fill:none;stroke:#000000;stroke-dasharray:1.000000,3.000000;stroke-dashoffset:0.0;stroke-width:0.5;"
               id="path4425" />
          </g>
          <g
             id="line2d_12">
            <g
               id="g4428">
              <use
                 style="stroke:#000000;stroke-width:0.5;"
                 x="251.325120514"
                 xlink:href="#m93b0483c22"
                 y="388.8"
                 id="use4430" />
            </g>
          </g>
          <g
             id="line2d_13">
            <g
               id="g4433">
              <use
                 style="stroke:#000000;stroke-width:0.5;"
                 x="251.325120514"
                 xlink:href="#m741efc42ff"
                 y="43.2"
                 id="use4435" />
            </g>
          </g>
          <g
             id="text_4">
            <!-- 1.5 -->
            <g
               transform="translate(242.966370514 401.918125)scale(0.12 -0.12)"
               id="g4438">
              <use
                 xlink:href="#BitstreamVeraSans-Roman-31"
                 id="use4440" />
              <use
                 x="63.623046875"
                 xlink:href="#BitstreamVeraSans-Roman-2e"
                 id="use4442" />
              <use
                 x="95.41015625"
                 xlink:href="#BitstreamVeraSans-Roman-35"
                 id="use4444" />
            </g>
          </g>
        </g>
        <g
           id="xtick_5">
          <g
             id="line2d_14">
            <path
               clip-path="url(#p7ff5b81e1d)"
               d=" M311.1 388.8 L311.1 43.2"
               style="fill:none;stroke:#000000;stroke-dasharray:1.000000,3.000000;stroke-dashoffset:0.0;stroke-width:0.5;"
               id="path4448" />
          </g>
          <g
             id="line2d_15">
            <g
               id="g4451">
              <use
                 style="stroke:#000000;stroke-width:0.5;"
                 x="311.100160686"
                 xlink:href="#m93b0483c22"
                 y="388.8"
                 id="use4453" />
            </g>
          </g>
          <g
             id="line2d_16">
            <g
               id="g4456">
              <use
                 style="stroke:#000000;stroke-width:0.5;"
                 x="311.100160686"
                 xlink:href="#m741efc42ff"
                 y="43.2"
                 id="use4458" />
            </g>
          </g>
          <g
             id="text_5">
            <!-- 2.0 -->
            <defs
               id="defs4461">
              <path
                 d=" M19.1875 8.29688 L53.6094 8.29688 L53.6094 0 L7.32812 0 L7.32812 8.29688 Q12.9375 14.1094 22.625 23.8906 Q32.3281 33.6875 34.8125 36.5312 Q39.5469 41.8438 41.4219 45.5312 Q43.3125 49.2188 43.3125 52.7812 Q43.3125 58.5938 39.2344 62.25 Q35.1562 65.9219 28.6094 65.9219 Q23.9688 65.9219 18.8125 64.3125 Q13.6719 62.7031 7.8125 59.4219 L7.8125 69.3906 Q13.7656 71.7812 18.9375 73 Q24.125 74.2188 28.4219 74.2188 Q39.75 74.2188 46.4844 68.5469 Q53.2188 62.8906 53.2188 53.4219 Q53.2188 48.9219 51.5312 44.8906 Q49.8594 40.875 45.4062 35.4062 Q44.1875 33.9844 37.6406 27.2188 Q31.1094 20.4531 19.1875 8.29688"
                 id="BitstreamVeraSans-Roman-32" />
            </defs>
            <g
               transform="translate(302.396410686 401.918125)scale(0.12 -0.12)"
               id="g4464">
              <use
                 xlink:href="#BitstreamVeraSans-Roman-32"
                 id="use4466" />
              <use
                 x="63.623046875"
                 xlink:href="#BitstreamVeraSans-Roman-2e"
                 id="use4468" />
              <use
                 x="95.41015625"
                 xlink:href="#BitstreamVeraSans-Roman-30"
                 id="use4470" />
            </g>
          </g>
        </g>
        <g
           id="xtick_6">
          <g
             id="line2d_17">
            <path
               clip-path="url(#p7ff5b81e1d)"
               d=" M370.875 388.8 L370.875 43.2"
               style="fill:none;stroke:#000000;stroke-dasharray:1.000000,3.000000;stroke-dashoffset:0.0;stroke-width:0.5;"
               id="path4474" />
          </g>
          <g
             id="line2d_18">
            <g
               id="g4477">
              <use
                 style="stroke:#000000;stroke-width:0.5;"
                 x="370.875200857"
                 xlink:href="#m93b0483c22"
                 y="388.8"
                 id="use4479" />
            </g>
          </g>
          <g
             id="line2d_19">
            <g
               id="g4482">
              <use
                 style="stroke:#000000;stroke-width:0.5;"
                 x="370.875200857"
                 xlink:href="#m741efc42ff"
                 y="43.2"
                 id="use4484" />
            </g>
          </g>
          <g
             id="text_6">
            <!-- 2.5 -->
            <g
               transform="translate(362.297075857 401.918125)scale(0.12 -0.12)"
               id="g4487">
              <use
                 xlink:href="#BitstreamVeraSans-Roman-32"
                 id="use4489" />
              <use
                 x="63.623046875"
                 xlink:href="#BitstreamVeraSans-Roman-2e"
                 id="use4491" />
              <use
                 x="95.41015625"
                 xlink:href="#BitstreamVeraSans-Roman-35"
                 id="use4493" />
            </g>
          </g>
        </g>
        <g
           id="xtick_7">
          <g
             id="line2d_20">
            <path
               clip-path="url(#p7ff5b81e1d)"
               d=" M430.65 388.8 L430.65 43.2"
               style="fill:none;stroke:#000000;stroke-dasharray:1.000000,3.000000;stroke-dashoffset:0.0;stroke-width:0.5;"
               id="path4497" />
          </g>
          <g
             id="line2d_21">
            <g
               id="g4500">
              <use
                 style="stroke:#000000;stroke-width:0.5;"
                 x="430.650241028"
                 xlink:href="#m93b0483c22"
                 y="388.8"
                 id="use4502" />
            </g>
          </g>
          <g
             id="line2d_22">
            <g
               id="g4505">
              <use
                 style="stroke:#000000;stroke-width:0.5;"
                 x="430.650241028"
                 xlink:href="#m741efc42ff"
                 y="43.2"
                 id="use4507" />
            </g>
          </g>
          <g
             id="text_7">
            <!-- 3.0 -->
            <defs
               id="defs4510">
              <path
                 d=" M40.5781 39.3125 Q47.6562 37.7969 51.625 33 Q55.6094 28.2188 55.6094 21.1875 Q55.6094 10.4062 48.1875 4.48438 Q40.7656 -1.42188 27.0938 -1.42188 Q22.5156 -1.42188 17.6562 -0.515625 Q12.7969 0.390625 7.625 2.20312 L7.625 11.7188 Q11.7188 9.32812 16.5938 8.10938 Q21.4844 6.89062 26.8125 6.89062 Q36.0781 6.89062 40.9375 10.5469 Q45.7969 14.2031 45.7969 21.1875 Q45.7969 27.6406 41.2812 31.2656 Q36.7656 34.9062 28.7188 34.9062 L20.2188 34.9062 L20.2188 43.0156 L29.1094 43.0156 Q36.375 43.0156 40.2344 45.9219 Q44.0938 48.8281 44.0938 54.2969 Q44.0938 59.9062 40.1094 62.9062 Q36.1406 65.9219 28.7188 65.9219 Q24.6562 65.9219 20.0156 65.0312 Q15.375 64.1562 9.8125 62.3125 L9.8125 71.0938 Q15.4375 72.6562 20.3438 73.4375 Q25.25 74.2188 29.5938 74.2188 Q40.8281 74.2188 47.3594 69.1094 Q53.9062 64.0156 53.9062 55.3281 Q53.9062 49.2656 50.4375 45.0938 Q46.9688 40.9219 40.5781 39.3125"
                 id="BitstreamVeraSans-Roman-33" />
            </defs>
            <g
               transform="translate(421.964303528 401.918125)scale(0.12 -0.12)"
               id="g4513">
              <use
                 xlink:href="#BitstreamVeraSans-Roman-33"
                 id="use4515" />
              <use
                 x="63.623046875"
                 xlink:href="#BitstreamVeraSans-Roman-2e"
                 id="use4517" />
              <use
                 x="95.41015625"
                 xlink:href="#BitstreamVeraSans-Roman-30"
                 id="use4519" />
            </g>
          </g>
        </g>
        <g
           id="xtick_8">
          <g
             id="line2d_23">
            <path
               clip-path="url(#p7ff5b81e1d)"
               d=" M490.425 388.8 L490.425 43.2"
               style="fill:none;stroke:#000000;stroke-dasharray:1.000000,3.000000;stroke-dashoffset:0.0;stroke-width:0.5;"
               id="path4523" />
          </g>
          <g
             id="line2d_24">
            <g
               id="g4526">
              <use
                 style="stroke:#000000;stroke-width:0.5;"
                 x="490.4252812"
                 xlink:href="#m93b0483c22"
                 y="388.8"
                 id="use4528" />
            </g>
          </g>
          <g
             id="line2d_25">
            <g
               id="g4531">
              <use
                 style="stroke:#000000;stroke-width:0.5;"
                 x="490.4252812"
                 xlink:href="#m741efc42ff"
                 y="43.2"
                 id="use4533" />
            </g>
          </g>
          <g
             id="text_8">
            <!-- 3.5 -->
            <g
               transform="translate(481.8649687 401.918125)scale(0.12 -0.12)"
               id="g4536">
              <use
                 xlink:href="#BitstreamVeraSans-Roman-33"
                 id="use4538" />
              <use
                 x="63.623046875"
                 xlink:href="#BitstreamVeraSans-Roman-2e"
                 id="use4540" />
              <use
                 x="95.41015625"
                 xlink:href="#BitstreamVeraSans-Roman-35"
                 id="use4542" />
            </g>
          </g>
        </g>
        <g
           id="text_9">
          <!-- $time (s)$ -->
          <defs
             id="defs4545">
            <path
               d=" M7.71875 1.70312 Q7.71875 2.29688 7.8125 2.59375 L15.2812 32.4219 Q16.0156 35.2031 16.0156 37.3125 Q16.0156 41.6094 13.0938 41.6094 Q9.96875 41.6094 8.45312 37.8594 Q6.9375 34.125 5.51562 28.4219 Q5.51562 28.125 5.21875 27.9531 Q4.9375 27.7812 4.6875 27.7812 L3.51562 27.7812 Q3.17188 27.7812 2.92188 28.1406 Q2.6875 28.5156 2.6875 28.8125 Q3.76562 33.1562 4.76562 36.1719 Q5.76562 39.2031 7.89062 41.6875 Q10.0156 44.1875 13.1875 44.1875 Q16.9375 44.1875 19.8125 41.8125 Q22.7031 39.4531 22.7031 35.7969 Q25.6875 39.7031 29.6875 41.9375 Q33.6875 44.1875 38.1875 44.1875 Q42.9219 44.1875 46.3594 41.7656 Q49.8125 39.3594 49.8125 34.9062 Q52.875 39.2656 57 41.7188 Q61.1406 44.1875 66.0156 44.1875 Q71.1875 44.1875 74.3281 41.375 Q77.4844 38.5781 77.4844 33.4062 Q77.4844 29.2969 75.6562 23.4844 Q73.8281 17.6719 71.0938 10.5 Q69.6719 7.03125 69.6719 4.5 Q69.6719 1.51562 72.0156 1.51562 Q75.9219 1.51562 78.5156 5.70312 Q81.1094 9.90625 82.1719 14.7031 Q82.4688 15.2812 83.0156 15.2812 L84.1875 15.2812 Q84.5781 15.2812 84.8438 15.0156 Q85.1094 14.75 85.1094 14.4062 Q85.1094 14.3125 85.0156 14.1094 Q83.6406 8.45312 80.25 3.65625 Q76.8594 -1.125 71.7812 -1.125 Q68.2656 -1.125 65.7656 1.29688 Q63.2812 3.71875 63.2812 7.17188 Q63.2812 8.9375 64.1094 11.0781 Q66.9375 18.6094 68.8125 24.5156 Q70.7031 30.4219 70.7031 34.9062 Q70.7031 37.7031 69.5781 39.6562 Q68.4531 41.6094 65.8281 41.6094 Q60.3594 41.6094 56.3438 38.25 Q52.3438 34.9062 49.4219 29.3906 Q49.2188 28.4219 49.125 27.875 L42.6719 2.20312 Q42.3281 0.828125 41.125 -0.140625 Q39.9375 -1.125 38.4844 -1.125 Q37.3125 -1.125 36.4062 -0.34375 Q35.5 0.4375 35.5 1.70312 Q35.5 2.29688 35.5938 2.59375 L42 28.0781 Q43.0156 32.1719 43.0156 34.9062 Q43.0156 37.7031 41.8594 39.6562 Q40.7188 41.6094 37.9844 41.6094 Q34.3281 41.6094 31.25 39.9844 Q28.1719 38.375 25.875 35.7188 Q23.5781 33.0625 21.6875 29.3906 L14.8906 2.20312 Q14.5469 0.828125 13.3438 -0.140625 Q12.1562 -1.125 10.6875 -1.125 Q9.46875 -1.125 8.59375 -0.34375 Q7.71875 0.4375 7.71875 1.70312"
               id="Cmmi10-6d" />
            <path
               d=" M31 -24.8125 Q25.4375 -20.4062 21.4062 -14.7188 Q17.3906 -9.03125 14.8125 -2.57812 Q12.25 3.85938 10.9844 10.8906 Q9.71875 17.9219 9.71875 25 Q9.71875 32.1719 10.9844 39.2031 Q12.25 46.2344 14.8594 52.7344 Q17.4844 59.2344 21.5312 64.8906 Q25.5938 70.5625 31 74.8125 Q31 75 31.5 75 L32.4219 75 Q32.7188 75 32.9531 74.7344 Q33.2031 74.4688 33.2031 74.125 Q33.2031 73.6875 33.0156 73.4844 Q28.125 68.7031 24.875 63.2344 Q21.625 57.7656 19.6406 51.5781 Q17.6719 45.4062 16.7969 38.7812 Q15.9219 32.1719 15.9219 25 Q15.9219 -6.78125 32.9062 -23.2969 Q33.2031 -23.5781 33.2031 -24.125 Q33.2031 -24.3594 32.9375 -24.6719 Q32.6719 -25 32.4219 -25 L31.5 -25 Q31 -25 31 -24.8125"
               id="Cmr10-28" />
            <path
               d=" M6.5 -25 Q5.60938 -25 5.60938 -24.125 Q5.60938 -23.6875 5.8125 -23.4844 Q22.9062 -6.78125 22.9062 25 Q22.9062 56.7812 6 73.2969 Q5.60938 73.5312 5.60938 74.125 Q5.60938 74.4688 5.875 74.7344 Q6.15625 75 6.5 75 L7.42188 75 Q7.71875 75 7.90625 74.8125 Q15.0938 69.1406 19.875 61.0312 Q24.6562 52.9375 26.875 43.75 Q29.1094 34.5781 29.1094 25 Q29.1094 17.9219 27.9062 11.0625 Q26.7031 4.20312 24.0938 -2.45312 Q21.4844 -9.125 17.4844 -14.7656 Q13.4844 -20.4062 7.90625 -24.8125 Q7.71875 -25 7.42188 -25 z "
               id="Cmr10-29" />
            <path
               d=" M8.6875 6.10938 Q11.375 1.51562 19.4844 1.51562 Q23 1.51562 26.1719 2.70312 Q29.3438 3.90625 31.4219 6.29688 Q33.5 8.6875 33.5 12.1094 Q33.5 14.7031 31.6406 16.3594 Q29.7812 18.0156 27.0938 18.6094 L21.6875 19.6719 Q17.9688 20.6094 15.5781 23.1406 Q13.1875 25.6875 13.1875 29.2969 Q13.1875 33.7344 15.5938 37.1562 Q18.0156 40.5781 21.9688 42.375 Q25.9219 44.1875 30.1719 44.1875 Q34.7188 44.1875 38.2969 42.0156 Q41.8906 39.8438 41.8906 35.5938 Q41.8906 33.2969 40.5938 31.5312 Q39.3125 29.7812 37.0156 29.7812 Q35.6875 29.7812 34.7344 30.6406 Q33.7969 31.5 33.7969 32.8125 Q33.7969 33.9844 34.4531 35.0781 Q35.1094 36.1875 36.2031 36.8438 Q37.3125 37.5 38.4844 37.5 Q37.5938 39.6562 35.1719 40.625 Q32.7656 41.6094 29.9844 41.6094 Q27.4375 41.6094 24.8906 40.5781 Q22.3594 39.5469 20.8125 37.5625 Q19.2812 35.5938 19.2812 32.9062 Q19.2812 31.1094 20.5469 29.7344 Q21.8281 28.375 23.6875 27.7812 L29.5 26.6094 Q32.2812 26.0312 34.5938 24.5312 Q36.9219 23.0469 38.25 20.7656 Q39.5938 18.5 39.5938 15.5781 Q39.5938 11.8594 37.5156 8.25 Q35.4531 4.64062 32.4219 2.48438 Q27.0938 -1.125 19.3906 -1.125 Q14.0625 -1.125 9.60938 1.3125 Q5.17188 3.76562 5.17188 8.59375 Q5.17188 11.3281 6.75 13.3438 Q8.34375 15.375 11.0781 15.375 Q12.7031 15.375 13.7969 14.3906 Q14.8906 13.4219 14.8906 11.8125 Q14.8906 9.51562 13.1719 7.8125 Q11.4688 6.10938 9.1875 6.10938 z "
               id="Cmmi10-73" />
            <path
               d=" M20.125 -1.125 Q15.3281 -1.125 11.7344 1.35938 Q8.15625 3.85938 6.26562 8.07812 Q4.39062 12.3125 4.39062 17 Q4.39062 24.125 7.98438 30.3906 Q11.5781 36.6719 17.7188 40.4219 Q23.875 44.1875 30.9062 44.1875 Q35.2031 44.1875 38.4062 41.9688 Q41.6094 39.75 41.6094 35.5938 Q41.6094 29.8281 37.0156 27.0156 Q32.4219 24.2188 26.6562 23.5625 Q20.9062 22.9062 13.9219 22.9062 L13.625 22.9062 Q12.0156 16.9375 12.0156 12.7031 Q12.0156 8.25 14.0625 4.875 Q16.1094 1.51562 20.3125 1.51562 Q26.2656 1.51562 31.75 4.25 Q37.25 6.98438 40.7188 11.8125 Q41.0156 12.1094 41.5 12.1094 Q42 12.1094 42.5 11.5469 Q43.0156 10.9844 43.0156 10.5 Q43.0156 10.1094 42.8281 9.90625 Q39.1562 4.78125 32.9531 1.82812 Q26.7656 -1.125 20.125 -1.125 M14.2031 25.4844 Q20.0156 25.4844 24.9531 26.0156 Q29.8906 26.5625 33.8906 28.7344 Q37.8906 30.9062 37.8906 35.5 Q37.8906 37.3594 36.8594 38.75 Q35.8438 40.1406 34.2031 40.875 Q32.5625 41.6094 30.8125 41.6094 Q26.5625 41.6094 23.1719 39.3125 Q19.7812 37.0156 17.5781 33.3281 Q15.375 29.6406 14.2031 25.4844"
               id="Cmmi10-65" />
            <path
               d=" M6.20312 8.10938 Q6.20312 9.57812 6.5 10.8906 L13.7188 39.5938 L3.21875 39.5938 Q2.20312 39.5938 2.20312 40.9219 Q2.59375 43.1094 3.51562 43.1094 L14.5938 43.1094 L18.6094 59.4219 Q19 60.75 20.1719 61.6719 Q21.3438 62.5938 22.7969 62.5938 Q24.0781 62.5938 24.9219 61.8281 Q25.7812 61.0781 25.7812 59.8125 Q25.7812 59.5156 25.75 59.3438 Q25.7344 59.1875 25.6875 58.9844 L21.6875 43.1094 L31.9844 43.1094 Q33.0156 43.1094 33.0156 41.7969 Q32.9531 41.5469 32.8125 40.9531 Q32.6719 40.375 32.4219 39.9844 Q32.1719 39.5938 31.6875 39.5938 L20.7969 39.5938 L13.625 10.6875 Q12.8906 7.85938 12.8906 5.8125 Q12.8906 1.51562 15.8281 1.51562 Q20.2188 1.51562 23.6094 5.64062 Q27 9.76562 28.8125 14.7031 Q29.2031 15.2812 29.5938 15.2812 L30.8125 15.2812 Q31.2031 15.2812 31.4375 15.0156 Q31.6875 14.75 31.6875 14.4062 Q31.6875 14.2031 31.5938 14.1094 Q29.3906 8.0625 25.1875 3.46875 Q21 -1.125 15.5781 -1.125 Q11.625 -1.125 8.90625 1.45312 Q6.20312 4.04688 6.20312 8.10938"
               id="Cmmi10-74" />
            <path
               d=" M7.8125 7.17188 Q7.8125 9.03125 8.59375 11.0781 L16.7031 32.625 Q18.0156 36.2812 18.0156 38.625 Q18.0156 41.6094 15.8281 41.6094 Q11.8594 41.6094 9.29688 37.5312 Q6.73438 33.4531 5.51562 28.4219 Q5.32812 27.7812 4.6875 27.7812 L3.51562 27.7812 Q2.6875 27.7812 2.6875 28.7188 L2.6875 29 Q4.29688 34.9688 7.60938 39.5781 Q10.9375 44.1875 16.0156 44.1875 Q19.5781 44.1875 22.0469 41.8438 Q24.5156 39.5 24.5156 35.8906 Q24.5156 34.0312 23.6875 31.9844 L15.5781 10.5 Q14.2031 7.17188 14.2031 4.5 Q14.2031 1.51562 16.5 1.51562 Q20.4062 1.51562 23.0156 5.6875 Q25.6406 9.85938 26.7031 14.7031 Q26.9062 15.2812 27.4844 15.2812 L28.7188 15.2812 Q29.1094 15.2812 29.3438 15.0156 Q29.5938 14.75 29.5938 14.4062 Q29.5938 14.3125 29.5 14.1094 Q28.125 8.45312 24.7344 3.65625 Q21.3438 -1.125 16.3125 -1.125 Q12.7969 -1.125 10.2969 1.29688 Q7.8125 3.71875 7.8125 7.17188 M19.0938 60.5938 Q19.0938 62.7031 20.8438 64.4062 Q22.6094 66.1094 24.7031 66.1094 Q26.4219 66.1094 27.5156 65.0625 Q28.6094 64.0156 28.6094 62.4062 Q28.6094 60.1562 26.8281 58.4688 Q25.0469 56.7812 22.9062 56.7812 Q21.2969 56.7812 20.1875 57.875 Q19.0938 58.9844 19.0938 60.5938"
               id="Cmmi10-69" />
          </defs>
          <g
             transform="translate(262.2 424.41375)scale(0.2 -0.2)"
             id="g4554">
            <use
               xlink:href="#Cmmi10-74"
               id="use4556" />
            <use
               transform="translate(36.083984375 0.0)"
               xlink:href="#Cmmi10-69"
               id="use4558" />
            <use
               transform="translate(70.5078125 0.0)"
               xlink:href="#Cmmi10-6d"
               id="use4560" />
            <use
               transform="translate(158.30078125 0.0)"
               xlink:href="#Cmmi10-65"
               id="use4562" />
            <use
               transform="translate(204.78515625 0.0)"
               xlink:href="#Cmr10-28"
               id="use4564" />
            <use
               transform="translate(243.603515625 0.0)"
               xlink:href="#Cmmi10-73"
               id="use4566" />
            <use
               transform="translate(290.380859375 0.0)"
               xlink:href="#Cmr10-29"
               id="use4568" />
          </g>
        </g>
      </g>
      <g
         id="matplotlib.axis_2">
        <g
           id="ytick_1">
          <g
             id="line2d_26">
            <path
               clip-path="url(#p7ff5b81e1d)"
               d=" M72 357.382 L518.4 357.382"
               style="fill:none;stroke:#000000;stroke-dasharray:1.000000,3.000000;stroke-dashoffset:0.0;stroke-width:0.5;"
               id="path4573" />
          </g>
          <g
             id="line2d_27">
            <defs
               id="defs4576">
              <path
                 d=" M0 0 L4 0"
                 id="m728421d6d4"
                 style="stroke:#000000;stroke-width:0.5;" />
            </defs>
            <g
               id="g4579">
              <use
                 style="stroke:#000000;stroke-width:0.5;"
                 x="72.0"
                 xlink:href="#m728421d6d4"
                 y="357.381818182"
                 id="use4581" />
            </g>
          </g>
          <g
             id="line2d_28">
            <defs
               id="defs4584">
              <path
                 d=" M0 0 L-4 0"
                 id="mcb0005524f"
                 style="stroke:#000000;stroke-width:0.5;" />
            </defs>
            <g
               id="g4587">
              <use
                 style="stroke:#000000;stroke-width:0.5;"
                 x="518.4"
                 xlink:href="#mcb0005524f"
                 y="357.381818182"
                 id="use4589" />
            </g>
          </g>
          <g
             id="text_10">
            <!-- 0.00 -->
            <g
               transform="translate(42.869375 360.693068182)scale(0.12 -0.12)"
               id="g4592">
              <use
                 xlink:href="#BitstreamVeraSans-Roman-30"
                 id="use4594" />
              <use
                 x="63.623046875"
                 xlink:href="#BitstreamVeraSans-Roman-2e"
                 id="use4596" />
              <use
                 x="95.41015625"
                 xlink:href="#BitstreamVeraSans-Roman-30"
                 id="use4598" />
              <use
                 x="159.033203125"
                 xlink:href="#BitstreamVeraSans-Roman-30"
                 id="use4600" />
            </g>
          </g>
        </g>
        <g
           id="ytick_2">
          <g
             id="line2d_29">
            <path
               clip-path="url(#p7ff5b81e1d)"
               d=" M72 305.018 L518.4 305.018"
               style="fill:none;stroke:#000000;stroke-dasharray:1.000000,3.000000;stroke-dashoffset:0.0;stroke-width:0.5;"
               id="path4604" />
          </g>
          <g
             id="line2d_30">
            <g
               id="g4607">
              <use
                 style="stroke:#000000;stroke-width:0.5;"
                 x="72.0"
                 xlink:href="#m728421d6d4"
                 y="305.018181818"
                 id="use4609" />
            </g>
          </g>
          <g
             id="line2d_31">
            <g
               id="g4612">
              <use
                 style="stroke:#000000;stroke-width:0.5;"
                 x="518.4"
                 xlink:href="#mcb0005524f"
                 y="305.018181818"
                 id="use4614" />
            </g>
          </g>
          <g
             id="text_11">
            <!-- 0.05 -->
            <g
               transform="translate(43.120625 308.329431818)scale(0.12 -0.12)"
               id="g4617">
              <use
                 xlink:href="#BitstreamVeraSans-Roman-30"
                 id="use4619" />
              <use
                 x="63.623046875"
                 xlink:href="#BitstreamVeraSans-Roman-2e"
                 id="use4621" />
              <use
                 x="95.41015625"
                 xlink:href="#BitstreamVeraSans-Roman-30"
                 id="use4623" />
              <use
                 x="159.033203125"
                 xlink:href="#BitstreamVeraSans-Roman-35"
                 id="use4625" />
            </g>
          </g>
        </g>
        <g
           id="ytick_3">
          <g
             id="line2d_32">
            <path
               clip-path="url(#p7ff5b81e1d)"
               d=" M72 252.655 L518.4 252.655"
               style="fill:none;stroke:#000000;stroke-dasharray:1.000000,3.000000;stroke-dashoffset:0.0;stroke-width:0.5;"
               id="path4629" />
          </g>
          <g
             id="line2d_33">
            <g
               id="g4632">
              <use
                 style="stroke:#000000;stroke-width:0.5;"
                 x="72.0"
                 xlink:href="#m728421d6d4"
                 y="252.654545455"
                 id="use4634" />
            </g>
          </g>
          <g
             id="line2d_34">
            <g
               id="g4637">
              <use
                 style="stroke:#000000;stroke-width:0.5;"
                 x="518.4"
                 xlink:href="#mcb0005524f"
                 y="252.654545455"
                 id="use4639" />
            </g>
          </g>
          <g
             id="text_12">
            <!-- 0.10 -->
            <g
               transform="translate(42.869375 255.965795455)scale(0.12 -0.12)"
               id="g4642">
              <use
                 xlink:href="#BitstreamVeraSans-Roman-30"
                 id="use4644" />
              <use
                 x="63.623046875"
                 xlink:href="#BitstreamVeraSans-Roman-2e"
                 id="use4646" />
              <use
                 x="95.41015625"
                 xlink:href="#BitstreamVeraSans-Roman-31"
                 id="use4648" />
              <use
                 x="159.033203125"
                 xlink:href="#BitstreamVeraSans-Roman-30"
                 id="use4650" />
            </g>
          </g>
        </g>
        <g
           id="ytick_4">
          <g
             id="line2d_35">
            <path
               clip-path="url(#p7ff5b81e1d)"
               d=" M72 200.291 L518.4 200.291"
               style="fill:none;stroke:#000000;stroke-dasharray:1.000000,3.000000;stroke-dashoffset:0.0;stroke-width:0.5;"
               id="path4654" />
          </g>
          <g
             id="line2d_36">
            <g
               id="g4657">
              <use
                 style="stroke:#000000;stroke-width:0.5;"
                 x="72.0"
                 xlink:href="#m728421d6d4"
                 y="200.290909091"
                 id="use4659" />
            </g>
          </g>
          <g
             id="line2d_37">
            <g
               id="g4662">
              <use
                 style="stroke:#000000;stroke-width:0.5;"
                 x="518.4"
                 xlink:href="#mcb0005524f"
                 y="200.290909091"
                 id="use4664" />
            </g>
          </g>
          <g
             id="text_13">
            <!-- 0.15 -->
            <g
               transform="translate(43.120625 203.602159091)scale(0.12 -0.12)"
               id="g4667">
              <use
                 xlink:href="#BitstreamVeraSans-Roman-30"
                 id="use4669" />
              <use
                 x="63.623046875"
                 xlink:href="#BitstreamVeraSans-Roman-2e"
                 id="use4671" />
              <use
                 x="95.41015625"
                 xlink:href="#BitstreamVeraSans-Roman-31"
                 id="use4673" />
              <use
                 x="159.033203125"
                 xlink:href="#BitstreamVeraSans-Roman-35"
                 id="use4675" />
            </g>
          </g>
        </g>
        <g
           id="ytick_5">
          <g
             id="line2d_38">
            <path
               clip-path="url(#p7ff5b81e1d)"
               d=" M72 147.927 L518.4 147.927"
               style="fill:none;stroke:#000000;stroke-dasharray:1.000000,3.000000;stroke-dashoffset:0.0;stroke-width:0.5;"
               id="path4679" />
          </g>
          <g
             id="line2d_39">
            <g
               id="g4682">
              <use
                 style="stroke:#000000;stroke-width:0.5;"
                 x="72.0"
                 xlink:href="#m728421d6d4"
                 y="147.927272727"
                 id="use4684" />
            </g>
          </g>
          <g
             id="line2d_40">
            <g
               id="g4687">
              <use
                 style="stroke:#000000;stroke-width:0.5;"
                 x="518.4"
                 xlink:href="#mcb0005524f"
                 y="147.927272727"
                 id="use4689" />
            </g>
          </g>
          <g
             id="text_14">
            <!-- 0.20 -->
            <g
               transform="translate(42.869375 151.238522727)scale(0.12 -0.12)"
               id="g4692">
              <use
                 xlink:href="#BitstreamVeraSans-Roman-30"
                 id="use4694" />
              <use
                 x="63.623046875"
                 xlink:href="#BitstreamVeraSans-Roman-2e"
                 id="use4696" />
              <use
                 x="95.41015625"
                 xlink:href="#BitstreamVeraSans-Roman-32"
                 id="use4698" />
              <use
                 x="159.033203125"
                 xlink:href="#BitstreamVeraSans-Roman-30"
                 id="use4700" />
            </g>
          </g>
        </g>
        <g
           id="ytick_6">
          <g
             id="line2d_41">
            <path
               clip-path="url(#p7ff5b81e1d)"
               d=" M72 95.5636 L518.4 95.5636"
               style="fill:none;stroke:#000000;stroke-dasharray:1.000000,3.000000;stroke-dashoffset:0.0;stroke-width:0.5;"
               id="path4704" />
          </g>
          <g
             id="line2d_42">
            <g
               id="g4707">
              <use
                 style="stroke:#000000;stroke-width:0.5;"
                 x="72.0"
                 xlink:href="#m728421d6d4"
                 y="95.5636363636"
                 id="use4709" />
            </g>
          </g>
          <g
             id="line2d_43">
            <g
               id="g4712">
              <use
                 style="stroke:#000000;stroke-width:0.5;"
                 x="518.4"
                 xlink:href="#mcb0005524f"
                 y="95.5636363636"
                 id="use4714" />
            </g>
          </g>
          <g
             id="text_15">
            <!-- 0.25 -->
            <g
               transform="translate(43.120625 98.8748863636)scale(0.12 -0.12)"
               id="g4717">
              <use
                 xlink:href="#BitstreamVeraSans-Roman-30"
                 id="use4719" />
              <use
                 x="63.623046875"
                 xlink:href="#BitstreamVeraSans-Roman-2e"
                 id="use4721" />
              <use
                 x="95.41015625"
                 xlink:href="#BitstreamVeraSans-Roman-32"
                 id="use4723" />
              <use
                 x="159.033203125"
                 xlink:href="#BitstreamVeraSans-Roman-35"
                 id="use4725" />
            </g>
          </g>
        </g>
        <g
           id="ytick_7">
          <g
             id="text_16">
            <!-- 0.30 -->
            <g
               transform="translate(42.869375 46.51125)scale(0.12 -0.12)"
               id="g4729">
              <use
                 xlink:href="#BitstreamVeraSans-Roman-30"
                 id="use4731" />
              <use
                 x="63.623046875"
                 xlink:href="#BitstreamVeraSans-Roman-2e"
                 id="use4733" />
              <use
                 x="95.41015625"
                 xlink:href="#BitstreamVeraSans-Roman-33"
                 id="use4735" />
              <use
                 x="159.033203125"
                 xlink:href="#BitstreamVeraSans-Roman-30"
                 id="use4737" />
            </g>
          </g>
        </g>
        <g
           id="text_17">
          <!-- $E_eff (Joule)$ -->
          <defs
             id="defs4740">
            <path
               d=" M4.39062 8.10938 Q4.39062 8.40625 4.46875 8.98438 Q4.54688 9.57812 4.60938 10.125 Q4.6875 10.6875 4.6875 10.9844 L17.0938 60.5 Q17.4844 62.2031 17.5781 63.1875 Q17.5781 64.7969 11.0781 64.7969 Q10.1094 64.7969 10.1094 66.1094 Q10.1562 66.3594 10.3281 66.9844 Q10.5 67.625 10.7656 67.9688 Q11.0312 68.3125 11.5312 68.3125 L25 69.3906 Q26.2188 69.3906 26.2188 68.1094 L11.8125 10.5938 Q11.0781 8.98438 11.0781 5.8125 Q11.0781 1.51562 14.0156 1.51562 Q17.0938 1.51562 18.625 5.34375 Q20.1719 9.1875 21.3906 14.7031 Q21.5781 15.2812 22.2188 15.2812 L23.3906 15.2812 Q23.7812 15.2812 24.0469 14.9688 Q24.3125 14.6562 24.3125 14.3125 Q23.1406 9.46875 22.1875 6.65625 Q21.2344 3.85938 19.1406 1.35938 Q17.0469 -1.125 13.8125 -1.125 Q9.8125 -1.125 7.09375 1.45312 Q4.39062 4.04688 4.39062 8.10938"
               id="Cmmi10-6c" />
            <path
               d=" M10.8906 6 Q11.8594 3.21875 14.5 1.79688 Q17.1406 0.390625 20.2188 0.390625 Q23.3438 0.390625 26.25 2.5625 Q29.1562 4.73438 31.1719 8 Q33.2031 11.2812 33.9844 14.5 L45.7969 61.8125 Q45.9062 62.2031 45.9219 62.3906 Q45.9531 62.5938 46 62.7969 Q46 63.875 45.2188 64.1094 Q42.5781 64.7969 34.5156 64.7969 Q33.5 64.7969 33.5 66.1094 Q33.6875 66.8906 33.8125 67.3281 Q33.9375 67.7812 34.25 68.0469 Q34.5781 68.3125 35.2031 68.3125 L62.3125 68.3125 Q63.2812 68.3125 63.2812 67 Q62.8906 64.7969 62.0156 64.7969 Q58.5 64.7969 56.6875 64.25 Q54.8906 63.7188 54.2031 61.375 L42.3906 14.1094 Q41.2656 9.46875 37.8125 5.73438 Q34.375 2 29.6406 -0.09375 Q24.9062 -2.20312 20.125 -2.20312 Q14.8438 -2.20312 10.8594 0.71875 Q6.89062 3.65625 6.89062 8.6875 Q6.89062 12.0156 8.6875 14.4062 Q10.5 16.7969 13.8125 16.7969 Q15.7188 16.7969 17.0156 15.625 Q18.3125 14.4531 18.3125 12.5938 Q18.3125 9.90625 16.3125 7.90625 Q14.3125 5.90625 11.625 5.90625 Q11.0781 5.90625 10.8906 6"
               id="Cmmi10-4a" />
            <path
               d=" M20.125 -1.125 Q15.375 -1.125 11.6875 1.125 Q8.01562 3.375 6 7.17188 Q4 10.9844 4 15.8281 Q4 22.6094 7.78125 29.25 Q11.5781 35.8906 17.8438 40.0312 Q24.125 44.1875 31 44.1875 Q34.7188 44.1875 37.625 42.9219 Q40.5312 41.6562 42.6719 39.3594 Q44.8281 37.0625 45.9688 33.9844 Q47.125 30.9062 47.125 27.2969 Q47.125 22.0781 44.9219 17.0156 Q42.7188 11.9688 38.8906 7.84375 Q35.0625 3.71875 30.125 1.29688 Q25.2031 -1.125 20.125 -1.125 M20.3125 1.51562 Q24.75 1.51562 28.4375 4.53125 Q32.125 7.5625 34.4844 12.1719 Q36.8594 16.7969 38.125 21.9219 Q39.4062 27.0469 39.4062 31.2031 Q39.4062 35.5469 37.2344 38.5781 Q35.0625 41.6094 30.8125 41.6094 Q24.9531 41.6094 20.5469 36.5938 Q16.1562 31.5938 13.9375 24.625 Q11.7188 17.6719 11.7188 11.9219 Q11.7188 7.5625 13.9375 4.53125 Q16.1562 1.51562 20.3125 1.51562"
               id="Cmmi10-6f" />
            <path
               d=" M9.71875 -16.5 Q11.5781 -17.9219 14.2031 -17.9219 Q17.7812 -17.9219 20.0156 -10.0156 Q20.9531 -6.20312 25.0938 15.0938 L29.6875 39.5938 L21.0938 39.5938 Q20.125 39.5938 20.125 40.9219 Q20.5156 43.1094 21.3906 43.1094 L30.3281 43.1094 L31.5 49.6094 Q32.0781 52.6406 32.5625 54.8125 Q33.0625 56.9844 33.625 58.8281 Q34.1875 60.6875 35.2969 62.9844 Q37.0156 66.2656 39.9219 68.3906 Q42.8281 70.5156 46.1875 70.5156 Q48.3906 70.5156 50.4688 69.7031 Q52.5469 68.8906 53.8594 67.2812 Q55.1719 65.6719 55.1719 63.4844 Q55.1719 60.9375 53.4844 59.0469 Q51.8125 57.1719 49.4219 57.1719 Q47.7969 57.1719 46.6562 58.1719 Q45.5156 59.1875 45.5156 60.7969 Q45.5156 62.9844 47 64.625 Q48.4844 66.2656 50.6875 66.5 Q48.8281 67.9219 46.0938 67.9219 Q44.5781 67.9219 43.2344 66.5 Q41.8906 65.0938 41.5 63.4844 Q40.875 60.9375 38.7188 49.7031 L37.5 43.1094 L47.7969 43.1094 Q48.7812 43.1094 48.7812 41.7969 Q48.7344 41.5469 48.5781 40.9375 Q48.4375 40.3281 48.1719 39.9531 Q47.9062 39.5938 47.5156 39.5938 L36.8125 39.5938 L32.1719 15.1875 Q31.2969 9.85938 30.1406 4.35938 Q29 -1.125 26.9219 -6.90625 Q24.8594 -12.7031 21.625 -16.6094 Q18.4062 -20.5156 14.0156 -20.5156 Q10.6406 -20.5156 7.98438 -18.5781 Q5.32812 -16.6562 5.32812 -13.4844 Q5.32812 -10.9375 6.95312 -9.04688 Q8.59375 -7.17188 11.0781 -7.17188 Q12.75 -7.17188 13.8594 -8.17188 Q14.9844 -9.1875 14.9844 -10.7969 Q14.9844 -12.9375 13.3906 -14.7188 Q11.8125 -16.5 9.71875 -16.5"
               id="Cmmi10-66" />
            <path
               d=" M4.6875 0 Q3.71875 0 3.71875 1.3125 Q3.76562 1.5625 3.90625 2.17188 Q4.04688 2.78125 4.3125 3.14062 Q4.59375 3.51562 4.98438 3.51562 Q11.0781 3.51562 13.4844 4.20312 Q14.7969 4.64062 15.375 6.89062 L29.1094 61.8125 Q29.2969 62.7969 29.2969 63.1875 Q29.2969 64.2656 28.0781 64.4062 Q26.2188 64.7969 20.9062 64.7969 Q19.9219 64.7969 19.9219 66.1094 Q19.9688 66.3594 20.1094 66.9688 Q20.2656 67.5781 20.5312 67.9375 Q20.7969 68.3125 21.1875 68.3125 L75.3906 68.3125 Q76.4219 68.3125 76.4219 67 L74.0312 46.2969 Q74.0312 46.0469 73.6562 45.7188 Q73.2969 45.4062 73 45.4062 L72.125 45.4062 Q71.0938 45.4062 71.0938 46.6875 Q71.6875 51.5625 71.6875 53.9062 Q71.6875 57.9062 70.3125 60.125 Q68.9531 62.3594 66.6719 63.3281 Q64.4062 64.3125 61.6406 64.5469 Q58.8906 64.7969 54.3906 64.7969 L43.0156 64.7969 Q40.2812 64.7969 39.4062 64.3281 Q38.5312 63.875 37.7969 61.375 L31.7812 37.2031 L39.5938 37.2031 Q44.6719 37.2031 47.2656 37.9062 Q49.8594 38.625 51.3594 40.8594 Q52.875 43.1094 54.1094 48 Q54.2031 48.3438 54.4688 48.6094 Q54.7344 48.875 55.0781 48.875 L56 48.875 Q56.9844 48.875 56.9844 47.6094 L50.7812 22.9062 Q50.5938 22.0156 49.8125 22.0156 L48.875 22.0156 Q47.9062 22.0156 47.9062 23.2969 Q48.875 27.2969 48.875 29.2031 Q48.875 32.125 46.2344 32.9062 Q43.6094 33.6875 39.2031 33.6875 L30.9062 33.6875 L24.125 6.5 Q23.6875 5.28125 23.6875 4.29688 Q23.6875 3.51562 27.0938 3.51562 L39.2031 3.51562 Q46.4375 3.51562 50.9219 4.64062 Q55.4219 5.76562 58.375 8.21875 Q61.3281 10.6875 63.4688 14.5 Q65.625 18.3125 68.7031 25.5938 Q68.8906 26.2188 69.5781 26.2188 L70.5156 26.2188 Q70.9062 26.2188 71.1875 25.875 Q71.4844 25.5312 71.4844 25.0938 Q71.4844 24.9062 71.3906 24.7031 L61.0781 0.59375 Q60.8906 0 60.2969 0 z "
               id="Cmmi10-45" />
            <path
               d=" M10.5938 10.8906 Q10.5938 14.1562 11.4688 17.5938 Q12.3594 21.0469 13.9375 25.2656 Q15.5312 29.5 16.7031 32.625 Q18.0156 36.2812 18.0156 38.625 Q18.0156 41.6094 15.8281 41.6094 Q11.8594 41.6094 9.29688 37.5312 Q6.73438 33.4531 5.51562 28.4219 Q5.32812 27.7812 4.6875 27.7812 L3.51562 27.7812 Q2.6875 27.7812 2.6875 28.7188 L2.6875 29 Q4.29688 34.9688 7.60938 39.5781 Q10.9375 44.1875 16.0156 44.1875 Q19.5781 44.1875 22.0469 41.8438 Q24.5156 39.5 24.5156 35.8906 Q24.5156 34.0312 23.6875 31.9844 Q23.25 30.7656 21.6875 26.6562 Q20.125 22.5625 19.2812 19.875 Q18.4531 17.1875 17.9219 14.5938 Q17.3906 12.0156 17.3906 9.42188 Q17.3906 6.10938 18.7969 3.8125 Q20.2188 1.51562 23.3906 1.51562 Q29.7812 1.51562 34.625 9.42188 Q34.7188 9.8125 34.7812 10.1719 Q34.8594 10.5469 34.9062 10.8906 L42.0938 39.8906 Q42.4375 41.2188 43.6562 42.1562 Q44.875 43.1094 46.2969 43.1094 Q47.5156 43.1094 48.4062 42.3281 Q49.3125 41.5469 49.3125 40.2812 Q49.3125 39.7031 49.2188 39.5 L42 10.6875 Q41.3125 7.71875 41.3125 5.8125 Q41.3125 1.51562 44.1875 1.51562 Q47.4062 1.51562 49 5.48438 Q50.5938 9.46875 51.7031 14.7031 Q51.9062 15.2812 52.4844 15.2812 L53.7188 15.2812 Q54.1094 15.2812 54.3438 14.9375 Q54.5938 14.5938 54.5938 14.3125 Q53.5156 10.0156 52.5156 6.9375 Q51.5156 3.85938 49.3594 1.35938 Q47.2188 -1.125 44 -1.125 Q40.8281 -1.125 38.3125 0.609375 Q35.7969 2.34375 34.9062 5.32812 Q32.625 2.39062 29.5938 0.625 Q26.5625 -1.125 23.1875 -1.125 Q17.4375 -1.125 14.0156 2.01562 Q10.5938 5.17188 10.5938 10.8906"
               id="Cmmi10-75" />
          </defs>
          <g
             transform="translate(32.469375 269.3)rotate(-90.0)scale(0.2 -0.2)"
             id="g4748">
            <g
               transform="matrix(0,-5,-5,0,880.16121,150.50545)"
               id="text_18"
               style="stroke-linecap:butt;stroke-linejoin:round">
              <!-- $E_{eff} (Joules)$ -->
              <defs
                 id="defs11877">
                <path
                   inkscape:connector-curvature="0"
                   d="m 4.39062,8.10938 q 0,0.29687 0.07813,0.875 0.07813,0.59374 0.14063,1.14062 0.07812,0.5625 0.07812,0.8594 L 17.0938,60.5 q 0.3906,1.7031 0.4843,2.6875 0,1.6094 -6.5,1.6094 -0.9687,0 -0.9687,1.3125 0.0468,0.25 0.2187,0.875 0.1719,0.6406 0.4375,0.9844 0.2656,0.3437 0.7656,0.3437 L 25,69.3906 q 1.2188,0 1.2188,-1.2812 L 11.8125,10.5938 q -0.7344,-1.60942 -0.7344,-4.7813 0,-4.29688 2.9375,-4.29688 3.0782,0 4.6094,3.82813 1.5469,3.84375 2.7656,9.35935 0.1875,0.5781 0.8282,0.5781 l 1.1718,0 q 0.3906,0 0.6563,-0.3124 0.2656,-0.3126 0.2656,-0.6563 Q 23.1406,9.46875 22.1875,6.65625 21.2344,3.85938 19.1406,1.35938 17.0469,-1.125 13.8125,-1.125 q -4,0 -6.71875,2.57812 -2.70313,2.59376 -2.70313,6.65626"
                   id="Cmmi10-6c-8"
                   style="stroke-linecap:butt;stroke-linejoin:round" />
                <path
                   inkscape:connector-curvature="0"
                   d="M 10.8906,6 Q 11.8594,3.21875 14.5,1.79688 q 2.6406,-1.406255 5.7188,-1.406255 3.125,0 6.0312,2.171875 2.9062,2.17188 4.9219,5.4375 2.0312,3.2812 2.8125,6.5 l 11.8125,47.3125 q 0.1093,0.3906 0.125,0.5781 0.0312,0.2032 0.0781,0.4063 0,1.0781 -0.7812,1.3125 -2.6407,0.6875 -10.7032,0.6875 -1.0156,0 -1.0156,1.3125 0.1875,0.7812 0.3125,1.2187 0.125,0.4531 0.4375,0.7188 0.3281,0.2656 0.9531,0.2656 l 27.1094,0 q 0.9687,0 0.9687,-1.3125 -0.3906,-2.2031 -1.2656,-2.2031 -3.5156,0 -5.3281,-0.5469 -1.7969,-0.5312 -2.4844,-2.875 L 42.3906,14.1094 Q 41.2656,9.46875 37.8125,5.73438 34.375,2 29.6406,-0.09375 24.9062,-2.20312 20.125,-2.20312 q -5.2812,0 -9.2656,2.92187 -3.96878,2.9375 -3.96878,7.96875 0,3.3281 1.79688,5.7187 1.8125,2.3907 5.125,2.3907 1.9063,0 3.2031,-1.1719 1.2969,-1.1719 1.2969,-3.0312 0,-2.68755 -2,-4.68755 -2,-2 -4.6875,-2 -0.5469,0 -0.7344,0.09375"
                   id="Cmmi10-4a-9"
                   style="stroke-linecap:butt;stroke-linejoin:round" />
                <path
                   inkscape:connector-curvature="0"
                   d="m 20.125,-1.125 q -4.75,0 -8.4375,2.25 Q 8.01562,3.375 6,7.17188 4,10.9844 4,15.8281 4,22.6094 7.78125,29.25 11.5781,35.8906 17.8438,40.0312 24.125,44.1875 31,44.1875 q 3.7188,0 6.625,-1.2656 2.9062,-1.2657 5.0469,-3.5625 2.1562,-2.2969 3.2969,-5.375 1.1562,-3.0782 1.1562,-6.6875 0,-5.2188 -2.2031,-10.2813 Q 42.7188,11.9688 38.8906,7.84375 35.0625,3.71875 30.125,1.29688 25.2031,-1.125 20.125,-1.125 m 0.1875,2.64062 q 4.4375,0 8.125,3.01563 3.6875,3.03125 6.0469,7.64065 2.375,4.625 3.6406,9.75 1.2812,5.125 1.2812,9.2812 0,4.3438 -2.1718,7.375 -2.1719,3.0313 -6.4219,3.0313 -5.8594,0 -10.2656,-5.0156 -4.3907,-5 -6.6094,-11.9688 -2.2187,-6.9531 -2.2187,-12.7031 0,-4.3594 2.2187,-7.39065 2.2187,-3.01563 6.375,-3.01563"
                   id="Cmmi10-6f-1"
                   style="stroke-linecap:butt;stroke-linejoin:round" />
                <path
                   inkscape:connector-curvature="0"
                   d="m 9.71875,-16.5 q 1.85935,-1.4219 4.48435,-1.4219 3.5781,0 5.8125,7.9063 0.9375,3.81248 5.0782,25.1094 l 4.5937,24.5 -8.5937,0 q -0.9688,0 -0.9688,1.3281 0.3906,2.1875 1.2656,2.1875 l 8.9375,0 1.1719,6.5 q 0.5781,3.0312 1.0625,5.2031 0.5,2.1719 1.0625,4.0156 0.5625,1.8594 1.6719,4.1563 1.7187,3.2812 4.625,5.4062 2.9062,2.125 6.2656,2.125 2.2031,0 4.2813,-0.8125 2.0781,-0.8125 3.3906,-2.4219 1.3125,-1.6093 1.3125,-3.7968 0,-2.5469 -1.6875,-4.4375 -1.6719,-1.875 -4.0625,-1.875 -1.625,0 -2.7657,1 -1.1406,1.0156 -1.1406,2.625 0,2.1875 1.4844,3.8281 1.4844,1.6406 3.6875,1.875 -1.8594,1.4219 -4.5937,1.4219 -1.5157,0 -2.8594,-1.4219 Q 41.8906,65.0938 41.5,63.4844 40.875,60.9375 38.7188,49.7031 L 37.5,43.1094 l 10.2969,0 q 0.9843,0 0.9843,-1.3125 -0.0468,-0.25 -0.2031,-0.8594 -0.1406,-0.6094 -0.4062,-0.9844 -0.2657,-0.3593 -0.6563,-0.3593 l -10.7031,0 -4.6406,-24.4063 Q 31.2969,9.85938 30.1406,4.35938 29,-1.125 26.9219,-6.90625 24.8594,-12.7031 21.625,-16.6094 q -3.2188,-3.9062 -7.6094,-3.9062 -3.375,0 -6.03122,1.9375 -2.65626,1.9219 -2.65626,5.0937 0,2.5469 1.625,4.43752 1.64063,1.875 4.12498,1.875 1.6719,0 2.7813,-1 1.125,-1.01562 1.125,-2.62502 0,-2.1406 -1.5938,-3.9219 Q 11.8125,-16.5 9.71875,-16.5"
                   id="Cmmi10-66-6"
                   style="stroke-linecap:butt;stroke-linejoin:round" />
                <path
                   inkscape:connector-curvature="0"
                   d="m 4.6875,0 q -0.96875,0 -0.96875,1.3125 0.04687,0.25 0.1875,0.85938 0.14063,0.60937 0.40625,0.96874 0.28125,0.375 0.67188,0.375 6.09372,0 8.50002,0.6875 1.3125,0.4375 1.8906,2.6875 L 29.1094,61.8125 q 0.1875,0.9844 0.1875,1.375 0,1.0781 -1.2188,1.2187 -1.8593,0.3907 -7.1719,0.3907 -0.9843,0 -0.9843,1.3125 0.0469,0.25 0.1875,0.8594 0.1562,0.6093 0.4218,0.9687 0.2657,0.375 0.6563,0.375 l 54.2031,0 q 1.0313,0 1.0313,-1.3125 L 74.0312,46.2969 q 0,-0.25 -0.375,-0.5781 Q 73.2969,45.4062 73,45.4062 l -0.875,0 q -1.0312,0 -1.0312,1.2813 0.5937,4.875 0.5937,7.2187 0,4 -1.375,6.2188 -1.3594,2.2344 -3.6406,3.2031 -2.2657,0.9844 -5.0313,1.2188 -2.75,0.25 -7.25,0.25 l -11.375,0 q -2.7344,0 -3.6094,-0.4688 -0.875,-0.4531 -1.6093,-2.9531 l -6.0157,-24.1719 7.8126,0 q 5.0781,0 7.6718,0.7031 2.5938,0.7188 4.0938,2.9532 1.5156,2.25 2.75,7.1406 0.0937,0.3438 0.3594,0.6094 0.2656,0.2656 0.6093,0.2656 l 0.9219,0 q 0.9844,0 0.9844,-1.2656 L 50.7812,22.9062 q -0.1874,-0.8906 -0.9687,-0.8906 l -0.9375,0 q -0.9688,0 -0.9688,1.2813 0.9688,4 0.9688,5.9062 0,2.9219 -2.6406,3.7031 -2.625,0.7813 -7.0313,0.7813 l -8.2969,0 L 24.125,6.5 q -0.4375,-1.21875 -0.4375,-2.20312 0,-0.78126 3.4063,-0.78126 l 12.1093,0 q 7.2344,0 11.7188,1.125 4.5,1.125 7.4531,3.57813 2.9531,2.46875 5.0938,6.28125 2.1562,3.8125 5.2343,11.0938 0.1875,0.625 0.875,0.625 l 0.9375,0 q 0.3906,0 0.6719,-0.3438 0.2969,-0.3438 0.2969,-0.7812 0,-0.1876 -0.0938,-0.3907 L 61.0781,0.59375 Q 60.8906,0 60.2969,0 z"
                   id="Cmmi10-45-8"
                   style="stroke-linecap:butt;stroke-linejoin:round" />
                <path
                   inkscape:connector-curvature="0"
                   d="m 10.5938,10.8906 q 0,3.2656 0.875,6.7032 0.8906,3.4531 2.4687,7.6718 1.5937,4.2344 2.7656,7.3594 1.3125,3.6562 1.3125,6 0,2.9844 -2.1875,2.9844 -3.9687,0 -6.53122,-4.0782 Q 6.73438,33.4531 5.51562,28.4219 5.32812,27.7812 4.6875,27.7812 l -1.17188,0 q -0.82812,0 -0.82812,0.9376 l 0,0.2812 q 1.60938,5.9688 4.92188,10.5781 3.32812,4.6094 8.40622,4.6094 3.5625,0 6.0313,-2.3437 2.4687,-2.3438 2.4687,-5.9532 0,-1.8594 -0.8281,-3.9062 -0.4375,-1.2188 -2,-5.3282 -1.5625,-4.0937 -2.4063,-6.7812 -0.8281,-2.6875 -1.3593,-5.2812 -0.5313,-2.5782 -0.5313,-5.17192 0,-3.3125 1.4063,-5.60938 1.4219,-2.29688 4.5937,-2.29688 6.3906,0 11.2344,7.90626 0.0938,0.39062 0.1562,0.75002 0.0782,0.375 0.125,0.7187 l 7.1876,29 q 0.3437,1.3282 1.5624,2.2656 1.2188,0.9532 2.6407,0.9532 1.2187,0 2.1093,-0.7813 0.9063,-0.7812 0.9063,-2.0469 0,-0.5781 -0.0937,-0.7812 L 42,10.6875 q -0.6875,-2.96875 -0.6875,-4.875 0,-4.29688 2.875,-4.29688 3.2187,0 4.8125,3.96876 1.5938,3.98437 2.7031,9.21872 0.2031,0.5781 0.7813,0.5781 l 1.2344,0 q 0.3906,0 0.625,-0.3437 0.25,-0.3437 0.25,-0.625 -1.0782,-4.2969 -2.0782,-7.375 -1,-3.07812 -3.1562,-5.57812 Q 47.2188,-1.125 44,-1.125 q -3.1719,0 -5.6875,1.734375 Q 35.7969,2.34375 34.9062,5.32812 32.625,2.39062 29.5938,0.625 q -3.0313,-1.75 -6.4063,-1.75 -5.75,0 -9.1719,3.14062 -3.4218,3.15626 -3.4218,8.87498"
                   id="Cmmi10-75-8"
                   style="stroke-linecap:butt;stroke-linejoin:round" />
              </defs>
              <g
                 transform="matrix(0,-0.2,-0.2,0,28.09375,175.44545)"
                 id="g11885"
                 style="stroke-linecap:butt;stroke-linejoin:round">
                <use
                   transform="translate(204.38646,-5.1996934)"
                   xlink:href="#Cmr10-28"
                   id="use11895"
                   style="stroke-linecap:butt;stroke-linejoin:round"
                   x="0"
                   y="0"
                   width="576"
                   height="432" />
                <use
                   transform="translate(243.20482,-13.254383)"
                   xlink:href="#Cmmi10-4a-9"
                   id="use11897"
                   style="stroke-linecap:butt;stroke-linejoin:round"
                   x="0"
                   y="0"
                   width="576"
                   height="432" />
                <use
                   transform="translate(319.4094,-5.1996934)"
                   xlink:href="#Cmr10-29"
                   id="use11909"
                   style="stroke-linecap:butt;stroke-linejoin:round"
                   x="0"
                   y="0"
                   width="576"
                   height="432" />
                <text
                   xml:space="preserve"
                   style="font-size:52px;font-style:normal;font-variant:normal;font-weight:normal;font-stretch:normal;line-height:125%;letter-spacing:0px;word-spacing:0px;fill:#000000;fill-opacity:1;stroke:none;font-family:Nimbus Roman No9 L;-inkscape-font-specification:Nimbus Roman No9 L"
                   x="137.57208"
                   y="17.114075"
                   id="text7120"
                   sodipodi:linespacing="125%"
                   transform="matrix(0.99999956,-9.4140396e-4,-9.4140396e-4,-0.99999956,0,0)"><tspan
                     sodipodi:role="line"
                     id="tspan7122"
                     x="137.57208"
                     y="17.114075"
                     style="font-size:112px">S</tspan></text>
              </g>
            </g>
            <text
               xml:space="preserve"
               style="font-size:456.57104492px;font-style:normal;font-variant:normal;font-weight:normal;font-stretch:normal;line-height:125%;letter-spacing:0px;word-spacing:0px;fill:#ff0000;fill-opacity:1;stroke:#f20000;stroke-width:1;stroke-linecap:butt;stroke-linejoin:round;stroke-opacity:1;font-family:Nimbus Roman No9 L;-inkscape-font-specification:Nimbus Roman No9 L"
               x="6959.9448"
               y="70.837273"
               id="text4235"
               sodipodi:linespacing="125%"
               transform="matrix(0,-0.35043831,-2.8535693,0,0,0)"><tspan
                 sodipodi:role="line"
                 id="tspan4237"
                 x="6959.9448"
                 y="70.837273"
                 style="stroke-width:1;stroke-linecap:butt;stroke-linejoin:round">}</tspan></text>
            <text
               xml:space="preserve"
               style="font-size:40px;font-style:normal;font-variant:normal;font-weight:normal;font-stretch:normal;line-height:125%;letter-spacing:0px;word-spacing:0px;fill:#000000;fill-opacity:1;stroke:none;font-family:Nimbus Roman No9 L;-inkscape-font-specification:Nimbus Roman No9 L"
               x="802.90521"
               y="308.1077"
               id="text4241"
               sodipodi:linespacing="125%"
               transform="matrix(0,-4,-4,0,1346.5,162.34688)"><tspan
                 sodipodi:role="line"
                 id="tspan4243"
                 x="802.90521"
                 y="308.1077" /></text>
            <text
               xml:space="preserve"
               style="font-size:160px;font-style:normal;font-variant:normal;font-weight:normal;font-stretch:normal;line-height:125%;letter-spacing:0px;word-spacing:0px;fill:#000000;fill-opacity:1;stroke:none;font-family:Nimbus Roman No9 L;-inkscape-font-specification:Nimbus Roman No9 L"
               x="-475.4718"
               y="-2555.4087"
               id="text4245"
               sodipodi:linespacing="125%"
               transform="matrix(-0.99999361,-0.00357528,-0.00357528,0.99999361,0,0)"><tspan
                 sodipodi:role="line"
                 id="tspan4247"
                 x="-475.4718"
                 y="-2555.4087"
                 style="font-size:120px;fill:#ff0000">High dissipation</tspan></text>
          </g>
        </g>
      </g>
      <g
         id="patch_3">
        <path
           d=" M72 43.2 L518.4 43.2"
           style="fill:none;stroke:#000000;"
           id="path4773" />
      </g>
      <g
         id="patch_4">
        <path
           d=" M518.4 388.8 L518.4 43.2"
           style="fill:none;stroke:#000000;"
           id="path4776" />
      </g>
      <g
         id="patch_5">
        <path
           d=" M72 388.8 L518.4 388.8"
           style="fill:none;stroke:#000000;"
           id="path4779" />
      </g>
      <g
         id="patch_6">
        <path
           d=" M72 388.8 L72 43.2"
           style="fill:none;stroke:#000000;"
           id="path4782" />
      </g>
      <path
         style="fill:#aa0000;stroke:#fc442b;stroke-width:0.80000001;stroke-linecap:butt;stroke-linejoin:miter;stroke-miterlimit:4;stroke-opacity:1;stroke-dasharray:1.6, 0.8;stroke-dashoffset:0;marker-end:none"
         d="M 498.5213,387.82516 498.80858,42.202233"
         id="path12116"
         inkscape:connector-curvature="0" />
      <path
         style="fill:none;stroke:#0c0000;stroke-width:0.63480669px;stroke-linecap:butt;stroke-linejoin:miter;stroke-opacity:1;marker-start:url(#Arrow1Lstart)"
         d="M 497.73797,65.38041 475.67125,65.31741 366.09512,65.0317"
         id="path13344"
         inkscape:connector-curvature="0"
         sodipodi:nodetypes="ccc" />
      <text
         xml:space="preserve"
         style="font-size:32px;font-style:normal;font-variant:normal;font-weight:normal;font-stretch:normal;line-height:125%;letter-spacing:0px;word-spacing:0px;fill:#000000;fill-opacity:1;stroke:none;font-family:Nimbus Roman No9 L;-inkscape-font-specification:Nimbus Roman No9 L"
         x="365.48965"
         y="61.108719"
         id="text13978"
         sodipodi:linespacing="125%"><tspan
           sodipodi:role="line"
           id="tspan13980"
           x="365.48965"
           y="61.108719"
           style="font-size:16px">Collision instant</tspan></text>
    </g>
  </g>
  <defs
     id="defs4784">
    <clipPath
       id="p7ff5b81e1d">
      <rect
         height="345.6"
         width="446.4"
         x="72.0"
         y="43.2"
         id="rect4787" />
    </clipPath>
  </defs>
</svg>
