<?xml version="1.0" encoding="UTF-8" standalone="no"?>
<!-- Created with matplotlib (http://matplotlib.org/) -->

<svg
   xmlns:dc="http://purl.org/dc/elements/1.1/"
   xmlns:cc="http://creativecommons.org/ns#"
   xmlns:rdf="http://www.w3.org/1999/02/22-rdf-syntax-ns#"
   xmlns:svg="http://www.w3.org/2000/svg"
   xmlns="http://www.w3.org/2000/svg"
   xmlns:xlink="http://www.w3.org/1999/xlink"
   xmlns:sodipodi="http://sodipodi.sourceforge.net/DTD/sodipodi-0.dtd"
   xmlns:inkscape="http://www.inkscape.org/namespaces/inkscape"
   height="432pt"
   version="1.1"
   viewBox="0 0 576 432"
   width="576pt"
   id="svg11680"
   inkscape:version="0.48.3.1 r9886"
   sodipodi:docname="kE_wO_wC_wEc.svg">
  <metadata
     id="metadata12112">
    <rdf:RDF>
      <cc:Work
         rdf:about="">
        <dc:format>image/svg+xml</dc:format>
        <dc:type
           rdf:resource="http://purl.org/dc/dcmitype/StillImage" />
        <dc:title></dc:title>
      </cc:Work>
    </rdf:RDF>
  </metadata>
  <sodipodi:namedview
     pagecolor="#ffffff"
     bordercolor="#666666"
     borderopacity="1"
     objecttolerance="10"
     gridtolerance="10"
     guidetolerance="10"
     inkscape:pageopacity="0"
     inkscape:pageshadow="2"
     inkscape:window-width="1855"
     inkscape:window-height="1056"
     id="namedview12110"
     showgrid="false"
     inkscape:zoom="1.1470843"
     inkscape:cx="165.72318"
     inkscape:cy="332.903"
     inkscape:window-x="65"
     inkscape:window-y="24"
     inkscape:window-maximized="1"
     inkscape:current-layer="legend_1" />
  <defs
     id="defs11682">
    <marker
       inkscape:stockid="Arrow1Lstart"
       orient="auto"
       refY="0.0"
       refX="0.0"
       id="Arrow1Lstart"
       style="overflow:visible">
      <path
         id="path13350"
         d="M 0.0,0.0 L 5.0,-5.0 L -12.5,0.0 L 5.0,5.0 L 0.0,0.0 z "
         style="fill-rule:evenodd;stroke:#000000;stroke-width:1.0pt"
         transform="scale(0.8) translate(12.5,0)" />
    </marker>
    <style
       type="text/css"
       id="style11684">
*{stroke-linecap:butt;stroke-linejoin:round;}
  </style>
  </defs>
  <g
     id="figure_1" />
  <g
     id="g13076"
     transform="translate(0,-13.948408)"
     style="stroke-linecap:butt;stroke-linejoin:round">
    <g
       id="g13339"
       style="stroke-linecap:butt;stroke-linejoin:round">
      <g
         id="patch_2"
         style="stroke-linecap:butt;stroke-linejoin:round">
        <path
           d="m 72,388.8 446.4,0 0,-345.6 -446.4,0 z"
           style="fill:#ffffff;stroke-linecap:butt;stroke-linejoin:round"
           id="path11692"
           inkscape:connector-curvature="0" />
      </g>
      <path
         style="fill:#aa0000;stroke:#fc442b;stroke-width:0.8;stroke-linecap:butt;stroke-linejoin:miter;stroke-miterlimit:4;stroke-opacity:1;stroke-dasharray:3.2,3.2;stroke-dashoffset:8;marker-end:none"
         d="M 496.34537,388.62917 496.63266,43.006244"
         id="path12116"
         inkscape:connector-curvature="0" />
    </g>
    <g
       id="axes_1"
       style="stroke-linecap:butt;stroke-linejoin:round">
      <g
         id="line2d_1"
         style="stroke-linecap:butt;stroke-linejoin:round">
        <path
           id="path11695"
           style="fill:none;stroke:#0000ff;stroke-width:2;stroke-linecap:square;stroke-linejoin:round"
           d="m 71.8297,372.343 20.9489,0.116 8.3454,0.299 7.494,0.535 19.246,2.432 1.022,0.162 0.851,0.09 6.813,0.821 0.511,0.01 0.511,0.083 0.341,-0.01 0.511,0.081 0.681,-0.015 0.34,0.051 0.511,0.034 0.511,0.075 3.066,0.143 0.341,-0.038 0.511,0.011 4.428,-0.014 0.681,-0.053 0.852,0.054 0.34,-0.015 2.044,-0.175 0.17,-0.044 0.341,0.065 0.341,-0.026 2.725,-0.247 0.34,-0.093 0.171,0.04 0.34,-0.096 0.341,0.02 0.341,-0.097 0.34,0.018 0.511,-0.12 0.341,0.015 2.895,-0.395 0.341,-0.106 0.34,-0.051 0.341,0.005 0.511,-0.157 0.852,-0.109 0.511,-0.08 0.34,-0.001 0.341,-0.108 0.34,-0.055 14.477,-2.279 0.511,-0.034 0.682,-0.106 3.236,-0.326 4.428,-0.26 10.219,-0.441 1.873,-0.25 2.725,-0.53 2.896,-0.755 1.533,-0.554 0.511,-0.187 4.087,-1.976 0.681,-0.415 1.704,-1.198 2.043,-1.638 2.215,-2.066 1.873,-2.09 0.681,-0.889 0.511,-0.6 0.682,-0.965 0.34,-0.415 0.681,-0.976 1.704,-2.663 1.362,-2.378 0.341,-0.57 1.362,-2.638 0.341,-0.681 2.214,-4.693 0.681,-1.585 1.874,-4.736 2.384,-6.533 1.703,-5.235 2.385,-7.827 1.192,-4.327 0.852,-3.075 2.554,-10.066 2.385,-10.276 2.895,-13.353 2.725,-13.645 5.28,-29.005 3.406,-20.393 3.918,-23.523 0.17,0.923 0.17,0 0.341,0.921 0.17,0.92 0.171,0 0.511,1.376 0.17,0.914 0.17,0 0.17,0.911 0.171,0 0.17,0.909 0.17,0 0.341,1.359 0.17,0.453 0.171,0 0.34,1.351 0.171,0 0.34,0.898 0.341,1.345 0.511,1.338 0.17,0 0.171,0.444 0.34,1.332 0.17,0 0.341,1.326 0.341,0.881 0.17,0 0.17,0.439 0.171,0.878 0.17,0 0.17,0.876 0.171,0 0.17,0.873 0.17,0 0.171,0.871 0.17,0 0.681,1.735 0.17,0.864 0.171,0 0.17,0.431 0.341,1.29 0.851,2.135 0.171,0 0.17,0.85 0.17,0 5.621,13.699 0.511,1.213 0.34,1.207 0.171,0 0.681,1.601 0.17,0.797 0.171,0 1.021,2.377 0.171,0.787 0.17,0 0.17,0.785 0.171,0 0.17,0.391 0.17,0.782 0.171,0 0.34,0.778 0.341,1.164 0.511,1.157 0.17,0 0.17,0.769 0.171,0 0.17,0.767 0.17,0 0.171,0.764 0.17,0 0.511,1.142 0.17,0.759 0.171,0 0.34,1.132 0.171,0 0.17,0.377 0.341,1.126 0.17,0 0.681,1.493 0.17,0.743 0.171,0 1.362,2.948 0.171,0.732 0.17,0 2.555,5.413 0.34,1.065 0.341,0.706 0.17,0 0.171,0.704 0.17,0 0.17,0.351 0.171,0.7 0.17,0 0.34,1.045 0.171,0 0.17,0.694 0.17,0 0.171,0.691 0.17,0 0.17,0.688 0.171,0 0.17,0.343 0.341,1.026 0.34,0.681 0.171,0 0.17,0.339 0.341,1.014 0.17,0 0.341,1.008 0.17,0 0.17,0.669 0.17,0 0.171,0.334 0.17,0.665 0.17,0 0.341,0.663 0.17,0.661 0.171,0 0.17,0.329 0.341,0.984 0.17,0 0.17,0.652 0.171,0 0.34,0.974 0.171,0 0.17,0.323 0.34,0.967 1.193,2.231 0.17,0 1.533,2.827 0.34,0.931 0.171,0 0.34,0.618 0.171,0.615 0.17,0 0.341,0.918 1.022,1.817 0.17,0 0.17,0.301 0.341,0.899 0.17,0 0.341,0.894 0.34,0.592 0.171,0 0.17,0.295 0.17,0.59 0.171,0 0.34,0.587 0.171,0.584 0.17,0 0.17,0.582 0.171,0 0.511,0.869 0.34,0.862 0.171,0.287 0.17,0 0.511,0.855 0.34,0.851 0.341,0.563 0.17,0 0.171,0.281 0.17,0.56 0.17,0 0.341,0.836 0.17,0 0.341,0.83 0.17,0 0.341,0.55 0.17,0.549 0.17,0 0.171,0.546 0.17,0 0.341,0.814 0.34,0.539 0.171,0 0.34,0.806 0.341,0.533 0.17,0 0.511,0.797 0.341,0.792 0.17,0.262 0.171,0 0.34,0.784 0.341,0.52 0.17,0 0.341,0.775 0.17,0.257 0.17,0 0.171,0.257 0.17,0.512 0.17,0 0.171,0.255 0.17,0.508 0.17,0 0.171,0.254 0.17,0.505 0.17,0 0.171,0.251 0.17,0.502 0.17,0 0.341,0.499 0.17,0.498 0.17,0 0.171,0.494 0.17,0 0.17,0.246 0.171,0.492 0.17,0 0.341,0.488 0.17,0.487 0.17,0 0.341,0.484 0.17,0.483 0.171,0 0.17,0.24 0.34,0.717 0.171,0.237 0.17,0 0.341,0.71 0.17,0 0.341,0.47 0.34,0.702 0.171,0.232 0.17,0 0.341,0.464 0.34,0.692 0.171,0 0.17,0.458 0.17,0 0.171,0.228 0.17,0.455 0.17,0 0.341,0.677 0.17,0 0.681,0.896 0.341,0.667 0.341,0.44 0.17,0 0.341,0.658 0.17,0 0.511,0.652 0.34,0.648 0.171,0 0.34,0.429 0.341,0.639 0.341,0.423 0.17,0 0.341,0.631 0.511,0.625 0.17,0 0.341,0.621 0.51,0.615 0.171,0 0.34,0.408 0.171,0.406 0.17,0 0.17,0.403 0.171,0 0.17,0.201 0.341,0.6 0.17,0 0.17,0.198 0.341,0.593 0.17,0 0.341,0.588 0.511,0.582 0.17,0 0.17,0.386 0.171,0 0.34,0.575 0.171,0.19 0.17,0 0.17,0.379 0.171,0 0.17,0.189 0.341,0.564 0.17,0 0.17,0.372 0.171,0 0.17,0.371 0.17,0 0.341,0.552 1.022,1.087 0.17,0 0.17,0.359 0.171,0 0.34,0.357 0.341,0.531 0.17,0 0.171,0.351 0.17,0 0.511,0.523 0.17,0.346 0.17,0 0.171,0.172 0.17,0.343 0.17,0 0.171,0.17 0.17,0.34 0.17,0 0.171,0.169 0.17,0.336 0.17,0 0.341,0.5 0.17,0 0.341,0.495 0.17,0.164 0.171,0 0.17,0.163 0.341,0.488 0.17,0 0.34,0.482 0.171,0.159 0.17,0 0.681,0.634 0.171,0.315 0.17,0 0.17,0.155 0.341,0.465 0.17,0 0.341,0.46 0.17,0 0.171,0.152 0.34,0.454 0.17,0 0.171,0.299 0.17,0 4.088,3.567 0.17,0 1.363,0.985 133.698,0 0.341,10.654 0.17,-0.046 0.511,-0.033 0.511,-0.139 0.17,0.007 0.511,0.336 0.682,-0.35 1.873,-0.778 0.17,1.38 0.511,-0.227 0.171,0.398 0.34,-0.125 0.171,-0.136 0.17,-1.842 0.17,-3.437 0.511,-1.392 1.363,-3.359 0.34,-0.872 0.511,-0.039 12.604,0 0,0"
           clip-path="url(#p7ff5b81e1d)"
           inkscape:connector-curvature="0" />
      </g>
      <g
         id="line2d_2"
         style="stroke-linecap:butt;stroke-linejoin:round">
        <path
           id="path11698"
           style="fill:none;stroke:#ff0000;stroke-width:2;stroke-linecap:butt;stroke-linejoin:round;stroke-dasharray:6, 6;stroke-dashoffset:0"
           d="m 71.8297,135.447 10.219,-0.11 7.1533,-0.237 2.7251,-0.161 1.5328,-0.104 6.6421,-0.607 1.022,-0.145 0.681,-0.089 5.621,-0.871 5.45,-1.109 5.45,-1.331 0.511,-0.191 0.511,-0.097 3.236,-1.022 5.791,-1.896 0.511,-0.247 0.17,0.002 0.341,-0.125 4.087,-1.551 0.341,-0.2 0.17,0 0.341,-0.203 0.17,0 0.511,-0.271 9.538,-3.914 0.17,-0.146 0.171,10e-4 0.34,-0.22 0.341,-0.073 0.34,-0.22 0.341,-0.072 0.17,-0.149 0.171,0.002 0.511,-0.293 0.34,-0.072 0.341,-0.219 5.45,-2.317 0.17,0.001 0.341,-0.214 0.17,0.002 0.341,-0.214 0.17,0.002 0.511,-0.282 0.171,0 0.51,-0.279 3.577,-1.429 0.17,0.002 0.511,-0.265 5.28,-1.926 0.341,-0.057 0.34,-0.116 5.11,-1.65 0.511,-0.096 0.511,-0.189 0.511,-0.092 4.939,-1.18 4.769,-0.859 0.681,-0.092 3.917,-0.38 4.088,-0.173 4.428,0.108 3.066,0.277 0.852,0.081 1.021,0.159 3.918,0.677 2.384,0.62 3.236,0.935 0.511,0.237 2.896,1.066 0.17,0.148 0.17,0 0.341,0.226 0.34,0.077 2.896,1.437 1.873,1.061 0.341,0.31 2.895,1.789 0.171,0.241 0.17,0 0.17,0.246 0.171,0 0.34,0.375 0.171,0 0.34,0.385 0.17,0 0.171,0.262 0.17,0 0.341,0.401 2.895,2.299 0.341,0.463 0.17,0 0.17,0.156 0.341,0.477 0.341,0.323 0.17,0 0.17,0.163 0.171,0.331 0.17,0 0.341,0.334 0.17,0.34 0.17,0 0.341,0.344 0.17,0.349 0.17,0 0.171,0.176 0.34,0.537 0.171,0 0.17,0.362 0.17,0.001 0.341,0.367 0.341,0.562 0.17,0 0.341,0.381 0.34,0.58 0.341,0.393 0.17,0 0.681,0.8 0.171,0.408 0.17,0 0.17,0.206 0.171,0.416 0.17,0 0.17,0.209 0.171,0.425 0.17,0 0.341,0.643 0.34,0.436 0.171,0 0.17,0.443 0.17,0 0.341,0.446 0.17,0.453 0.17,0 1.874,2.58 0.17,0.486 0.171,0 0.34,0.492 0.341,0.748 0.17,0 0.341,0.761 0.17,0 0.511,0.773 0.341,0.785 2.725,4.398 1.192,2.035 0.17,0 2.896,5.237 0.17,0.643 0.17,0 0.171,0.649 0.17,0 0.17,0.655 0.171,0 0.34,0.992 0.511,1.006 0.17,0 0.341,0.678 0.17,0.683 0.171,0 0.17,0.689 0.17,0 0.171,0.695 0.17,0 0.341,1.053 0.34,0.709 0.171,0 0.34,1.075 0.171,0.362 0.17,0 1.022,2.197 0.17,0.746 0.17,0 0.171,0.748 0.17,0 0.17,0.757 0.171,0 1.362,3.081 0.341,1.18 0.17,0 0.341,0.793 0.17,0.8 0.17,0 0.511,1.21 0.171,0.813 0.17,0 0.17,0.819 0.171,0 0.17,0.827 0.17,0 0.171,0.414 0.34,1.254 0.171,0.42 0.17,0 0.17,0.846 0.17,0 0.171,0.851 0.17,0 0.341,1.288 0.17,0 0.341,0.866 0.34,1.31 0.341,0.879 0.17,0 0.341,1.331 0.17,0 0.341,1.343 0.17,0 0.341,0.904 0.17,0.908 0.17,0 0.341,1.371 0.17,0.461 0.171,0 0.17,0.923 0.17,0 0.341,0.921 0.17,0.92 0.171,0 0.511,1.376 0.17,0.914 0.17,0 0.17,0.911 0.171,0 0.17,0.909 0.17,0 0.341,1.359 0.17,0.453 0.171,0 0.34,1.351 0.171,0 0.34,0.898 0.341,1.345 0.511,1.338 0.17,0 0.171,0.444 0.34,1.332 0.17,0 0.341,1.326 0.341,0.881 0.17,0 0.17,0.439 0.171,0.878 0.17,0 0.17,0.876 0.171,0 0.17,0.873 0.17,0 0.171,0.871 0.17,0 0.681,1.735 0.17,0.864 0.171,0 0.17,0.431 0.341,1.29 0.851,2.135 0.171,0 0.17,0.85 0.17,0 5.621,13.699 0.511,1.213 0.34,1.207 0.171,0 0.681,1.601 0.17,0.797 0.171,0 1.021,2.377 0.171,0.787 0.17,0 0.17,0.785 0.171,0 0.17,0.391 0.17,0.782 0.171,0 0.34,0.778 0.341,1.164 0.511,1.157 0.17,0 0.17,0.769 0.171,0 0.17,0.767 0.17,0 0.171,0.764 0.17,0 0.511,1.142 0.17,0.759 0.171,0 0.34,1.132 0.171,0 0.17,0.377 0.341,1.126 0.17,0 0.681,1.493 0.17,0.743 0.171,0 1.362,2.948 0.171,0.732 0.17,0 2.555,5.413 0.34,1.065 0.341,0.706 0.17,0 0.171,0.704 0.17,0 0.17,0.351 0.171,0.7 0.17,0 0.34,1.045 0.171,0 0.17,0.694 0.17,0 0.171,0.691 0.17,0 0.17,0.688 0.171,0 0.17,0.343 0.341,1.026 0.34,0.681 0.171,0 0.17,0.339 0.341,1.014 0.17,0 0.341,1.008 0.17,0 0.17,0.669 0.17,0 0.171,0.334 0.17,0.665 0.17,0 0.341,0.663 0.17,0.661 0.171,0 0.17,0.329 0.341,0.984 0.17,0 0.17,0.652 0.171,0 0.34,0.974 0.171,0 0.17,0.323 0.34,0.967 1.193,2.231 0.17,0 1.533,2.827 0.34,0.931 0.171,0 0.34,0.618 0.171,0.615 0.17,0 0.341,0.918 1.022,1.817 0.17,0 0.17,0.301 0.341,0.899 0.17,0 0.341,0.894 0.34,0.592 0.171,0 0.17,0.295 0.17,0.59 0.171,0 0.34,0.587 0.171,0.584 0.17,0 0.17,0.582 0.171,0 0.511,0.869 0.34,0.862 0.171,0.287 0.17,0 0.511,0.855 0.34,0.851 0.341,0.563 0.17,0 0.171,0.281 0.17,0.56 0.17,0 0.341,0.836 0.17,0 0.341,0.83 0.17,0 0.341,0.55 0.17,0.549 0.17,0 0.171,0.546 0.17,0 0.341,0.814 0.34,0.539 0.171,0 0.34,0.806 0.341,0.533 0.17,0 0.511,0.797 0.341,0.792 0.17,0.262 0.171,0 0.34,0.784 0.341,0.52 0.17,0 0.341,0.775 0.17,0.257 0.17,0 0.171,0.257 0.17,0.512 0.17,0 0.171,0.255 0.17,0.508 0.17,0 0.171,0.254 0.17,0.505 0.17,0 0.171,0.251 0.17,0.502 0.17,0 0.341,0.499 0.17,0.498 0.17,0 0.171,0.494 0.17,0 0.17,0.246 0.171,0.492 0.17,0 0.341,0.488 0.17,0.487 0.17,0 0.341,0.484 0.17,0.483 0.171,0 0.17,0.24 0.34,0.717 0.171,0.237 0.17,0 0.341,0.71 0.17,0 0.341,0.47 0.34,0.702 0.171,0.232 0.17,0 0.341,0.464 0.34,0.692 0.171,0 0.17,0.458 0.17,0 0.171,0.228 0.17,0.455 0.17,0 0.341,0.677 0.17,0 0.681,0.896 0.341,0.667 0.341,0.44 0.17,0 0.341,0.658 0.17,0 0.511,0.652 0.34,0.648 0.171,0 0.34,0.429 0.341,0.639 0.341,0.423 0.17,0 0.341,0.631 0.511,0.625 0.17,0 0.341,0.621 0.51,0.615 0.171,0 0.34,0.408 0.171,0.406 0.17,0 0.17,0.403 0.171,0 0.17,0.201 0.341,0.6 0.17,0 0.17,0.198 0.341,0.593 0.17,0 0.341,0.588 0.511,0.582 0.17,0 0.17,0.386 0.171,0 0.34,0.575 0.171,0.19 0.17,0 0.17,0.379 0.171,0 0.17,0.189 0.341,0.564 0.17,0 0.17,0.372 0.171,0 0.17,0.371 0.17,0 0.341,0.552 1.022,1.087 0.17,0 0.17,0.359 0.171,0 0.34,0.357 0.341,0.531 0.17,0 0.171,0.351 0.17,0 0.511,0.523 0.17,0.346 0.17,0 0.171,0.172 0.17,0.343 0.17,0 0.171,0.17 0.17,0.34 0.17,0 0.171,0.169 0.17,0.336 0.17,0 0.341,0.5 0.17,0 0.341,0.495 0.17,0.164 0.171,0 0.17,0.163 0.341,0.488 0.17,0 0.34,0.482 0.171,0.159 0.17,0 0.681,0.634 0.171,0.315 0.17,0 0.17,0.155 0.341,0.465 0.17,0 0.341,0.46 0.17,0 0.171,0.152 0.34,0.454 0.17,0 0.171,0.299 0.17,0 4.088,3.567 0.17,0 1.363,0.985 155.499,0 0,0"
           clip-path="url(#p7ff5b81e1d)"
           inkscape:connector-curvature="0" />
      </g>
      <g
         id="matplotlib.axis_1"
         style="stroke-linecap:butt;stroke-linejoin:round">
        <g
           id="xtick_1"
           style="stroke-linecap:butt;stroke-linejoin:round">
          <g
             id="line2d_3"
             style="stroke-linecap:butt;stroke-linejoin:round">
            <path
               id="path11703"
               style="fill:none;stroke:#000000;stroke-width:0.5;stroke-linecap:butt;stroke-linejoin:round;stroke-dasharray:1, 3;stroke-dashoffset:0"
               d="M 72,388.8 72,43.2"
               clip-path="url(#p7ff5b81e1d)"
               inkscape:connector-curvature="0" />
          </g>
          <g
             id="line2d_4"
             style="stroke-linecap:butt;stroke-linejoin:round">
            <defs
               id="defs11706">
              <path
                 style="stroke:#000000;stroke-width:0.5;stroke-linecap:butt;stroke-linejoin:round"
                 id="m93b0483c22"
                 d="M 0,0 0,-4"
                 inkscape:connector-curvature="0" />
            </defs>
            <g
               id="g11709"
               style="stroke-linecap:butt;stroke-linejoin:round">
              <use
                 id="use11711"
                 y="388.79999"
                 xlink:href="#m93b0483c22"
                 x="72"
                 style="stroke:#000000;stroke-width:0.5;stroke-linecap:butt;stroke-linejoin:round"
                 width="576"
                 height="432" />
            </g>
          </g>
          <g
             id="line2d_5"
             style="stroke-linecap:butt;stroke-linejoin:round">
            <defs
               id="defs11714">
              <path
                 style="stroke:#000000;stroke-width:0.5;stroke-linecap:butt;stroke-linejoin:round"
                 id="m741efc42ff"
                 d="M 0,0 0,4"
                 inkscape:connector-curvature="0" />
            </defs>
            <g
               id="g11717"
               style="stroke-linecap:butt;stroke-linejoin:round">
              <use
                 id="use11719"
                 y="43.200001"
                 xlink:href="#m741efc42ff"
                 x="72"
                 style="stroke:#000000;stroke-width:0.5;stroke-linecap:butt;stroke-linejoin:round"
                 width="576"
                 height="432" />
            </g>
          </g>
          <g
             id="text_1"
             style="stroke-linecap:butt;stroke-linejoin:round">
            <!-- 2.0 -->
            <defs
               id="defs11722">
              <path
                 id="BitstreamVeraSans-Roman-32"
                 d="m 19.1875,8.29688 34.4219,0 0,-8.29688 -46.28128,0 0,8.29688 Q 12.9375,14.1094 22.625,23.8906 q 9.7031,9.7969 12.1875,12.6406 4.7344,5.3126 6.6094,9 1.8906,3.6876 1.8906,7.25 0,5.8126 -4.0781,9.4688 -4.0782,3.6719 -10.625,3.6719 -4.6406,0 -9.7969,-1.6094 -5.1406,-1.6094 -11,-4.8906 l 0,9.9687 q 5.9531,2.3906 11.125,3.6094 5.1875,1.2188 9.4844,1.2188 11.3281,0 18.0625,-5.6719 6.7344,-5.6563 6.7344,-15.125 0,-4.5 -1.6876,-8.5313 Q 49.8594,40.875 45.4062,35.4062 44.1875,33.9844 37.6406,27.2188 31.1094,20.4531 19.1875,8.29688"
                 inkscape:connector-curvature="0"
                 style="stroke-linecap:butt;stroke-linejoin:round" />
              <path
                 id="BitstreamVeraSans-Roman-30"
                 d="m 31.7812,66.4062 q -7.6093,0 -11.4531,-7.5 Q 16.5,51.4219 16.5,36.375 q 0,-14.9844 3.8281,-22.4844 3.8438,-7.49998 11.4531,-7.49998 7.6719,0 11.5,7.49998 3.8438,7.5 3.8438,22.4844 0,15.0469 -3.8438,22.5312 -3.8281,7.5 -11.5,7.5 m 0,7.8126 q 12.2657,0 18.7344,-9.7032 6.4688,-9.6875 6.4688,-28.1406 0,-18.4062 -6.4688,-28.10938 -6.4687,-9.6875 -18.7344,-9.6875 -12.25,0 -18.7187,9.6875 -6.46875,9.70318 -6.46875,28.10938 0,18.4531 6.46875,28.1406 6.4687,9.7032 18.7187,9.7032"
                 inkscape:connector-curvature="0"
                 style="stroke-linecap:butt;stroke-linejoin:round" />
              <path
                 id="BitstreamVeraSans-Roman-2e"
                 d="M 10.6875,12.4062 21,12.4062 21,0 10.6875,0 z"
                 inkscape:connector-curvature="0"
                 style="stroke-linecap:butt;stroke-linejoin:round" />
            </defs>
            <g
               id="g11727"
               transform="matrix(0.12,0,0,-0.12,63.29625,401.91812)"
               style="stroke-linecap:butt;stroke-linejoin:round">
              <use
                 id="use11729"
                 xlink:href="#BitstreamVeraSans-Roman-32"
                 style="stroke-linecap:butt;stroke-linejoin:round"
                 x="0"
                 y="0"
                 width="576"
                 height="432" />
              <use
                 id="use11731"
                 xlink:href="#BitstreamVeraSans-Roman-2e"
                 x="63.623047"
                 style="stroke-linecap:butt;stroke-linejoin:round"
                 y="0"
                 width="576"
                 height="432" />
              <use
                 id="use11733"
                 xlink:href="#BitstreamVeraSans-Roman-30"
                 x="95.410156"
                 style="stroke-linecap:butt;stroke-linejoin:round"
                 y="0"
                 width="576"
                 height="432" />
            </g>
          </g>
        </g>
        <g
           id="xtick_2"
           style="stroke-linecap:butt;stroke-linejoin:round">
          <g
             id="line2d_6"
             style="stroke-linecap:butt;stroke-linejoin:round">
            <path
               id="path11737"
               style="fill:none;stroke:#000000;stroke-width:0.5;stroke-linecap:butt;stroke-linejoin:round;stroke-dasharray:1, 3;stroke-dashoffset:0"
               d="m 157.158,388.8 0,-345.6"
               clip-path="url(#p7ff5b81e1d)"
               inkscape:connector-curvature="0" />
          </g>
          <g
             id="line2d_7"
             style="stroke-linecap:butt;stroke-linejoin:round">
            <g
               id="g11740"
               style="stroke-linecap:butt;stroke-linejoin:round">
              <use
                 id="use11742"
                 y="388.79999"
                 xlink:href="#m93b0483c22"
                 x="157.15834"
                 style="stroke:#000000;stroke-width:0.5;stroke-linecap:butt;stroke-linejoin:round"
                 width="576"
                 height="432" />
            </g>
          </g>
          <g
             id="line2d_8"
             style="stroke-linecap:butt;stroke-linejoin:round">
            <g
               id="g11745"
               style="stroke-linecap:butt;stroke-linejoin:round">
              <use
                 id="use11747"
                 y="43.200001"
                 xlink:href="#m741efc42ff"
                 x="157.15834"
                 style="stroke:#000000;stroke-width:0.5;stroke-linecap:butt;stroke-linejoin:round"
                 width="576"
                 height="432" />
            </g>
          </g>
          <g
             id="text_2"
             style="stroke-linecap:butt;stroke-linejoin:round">
            <!-- 2.5 -->
            <defs
               id="defs11750">
              <path
                 id="BitstreamVeraSans-Roman-35"
                 d="m 10.7969,72.9062 38.7187,0 0,-8.3124 -29.6875,0 0,-17.8594 q 2.1407,0.7344 4.2813,1.0937 2.1562,0.3594 4.3125,0.3594 12.2031,0 19.3281,-6.6875 7.1406,-6.6875 7.1406,-18.1094 0,-11.7656 -7.3281,-18.29685 -7.3281,-6.51563 -20.6563,-6.51563 -4.5937,0 -9.3593,0.781255 -4.75,0.78125 -9.82815,2.343745 l 0,9.92188 q 4.39065,-2.39062 9.07815,-3.5625 4.6875,-1.17188 9.9062,-1.17188 8.4531,0 13.375,4.43748 4.9375,4.4375 4.9375,12.0625 0,7.6094 -4.9375,12.0469 -4.9219,4.4531 -13.375,4.4531 -3.9531,0 -7.8906,-0.875 -3.9219,-0.875 -8.0156,-2.7344 z"
                 inkscape:connector-curvature="0"
                 style="stroke-linecap:butt;stroke-linejoin:round" />
            </defs>
            <g
               id="g11753"
               transform="matrix(0.12,0,0,-0.12,148.58021,401.91812)"
               style="stroke-linecap:butt;stroke-linejoin:round">
              <use
                 id="use11755"
                 xlink:href="#BitstreamVeraSans-Roman-32"
                 style="stroke-linecap:butt;stroke-linejoin:round"
                 x="0"
                 y="0"
                 width="576"
                 height="432" />
              <use
                 id="use11757"
                 xlink:href="#BitstreamVeraSans-Roman-2e"
                 x="63.623047"
                 style="stroke-linecap:butt;stroke-linejoin:round"
                 y="0"
                 width="576"
                 height="432" />
              <use
                 id="use11759"
                 xlink:href="#BitstreamVeraSans-Roman-35"
                 x="95.410156"
                 style="stroke-linecap:butt;stroke-linejoin:round"
                 y="0"
                 width="576"
                 height="432" />
            </g>
          </g>
        </g>
        <g
           id="xtick_3"
           style="stroke-linecap:butt;stroke-linejoin:round">
          <g
             id="line2d_9"
             style="stroke-linecap:butt;stroke-linejoin:round">
            <path
               id="path11763"
               style="fill:none;stroke:#000000;stroke-width:0.5;stroke-linecap:butt;stroke-linejoin:round;stroke-dasharray:1, 3;stroke-dashoffset:0"
               d="m 242.317,388.8 0,-345.6"
               clip-path="url(#p7ff5b81e1d)"
               inkscape:connector-curvature="0" />
          </g>
          <g
             id="line2d_10"
             style="stroke-linecap:butt;stroke-linejoin:round">
            <g
               id="g11766"
               style="stroke-linecap:butt;stroke-linejoin:round">
              <use
                 id="use11768"
                 y="388.79999"
                 xlink:href="#m93b0483c22"
                 x="242.31667"
                 style="stroke:#000000;stroke-width:0.5;stroke-linecap:butt;stroke-linejoin:round"
                 width="576"
                 height="432" />
            </g>
          </g>
          <g
             id="line2d_11"
             style="stroke-linecap:butt;stroke-linejoin:round">
            <g
               id="g11771"
               style="stroke-linecap:butt;stroke-linejoin:round">
              <use
                 id="use11773"
                 y="43.200001"
                 xlink:href="#m741efc42ff"
                 x="242.31667"
                 style="stroke:#000000;stroke-width:0.5;stroke-linecap:butt;stroke-linejoin:round"
                 width="576"
                 height="432" />
            </g>
          </g>
          <g
             id="text_3"
             style="stroke-linecap:butt;stroke-linejoin:round">
            <!-- 3.0 -->
            <defs
               id="defs11776">
              <path
                 id="BitstreamVeraSans-Roman-33"
                 d="M 40.5781,39.3125 Q 47.6562,37.7969 51.625,33 q 3.9844,-4.7812 3.9844,-11.8125 0,-10.7813 -7.4219,-16.70312 -7.4219,-5.90626 -21.0937,-5.90626 -4.5782,0 -9.4376,0.906255 Q 12.7969,0.390625 7.625,2.20312 l 0,9.51568 q 4.0938,-2.39068 8.9688,-3.60942 4.8906,-1.21876 10.2187,-1.21876 9.2656,0 14.125,3.65628 4.8594,3.6562 4.8594,10.6406 0,6.4531 -4.5157,10.0781 -4.5156,3.6406 -12.5624,3.6406 l -8.5,0 0,8.1094 8.8906,0 q 7.2656,0 11.125,2.9063 3.8594,2.9062 3.8594,8.375 0,5.6093 -3.9844,8.6093 -3.9688,3.0157 -11.3906,3.0157 -4.0626,0 -8.7032,-0.8907 -4.6406,-0.875 -10.2031,-2.7187 l 0,8.7813 q 5.625,1.5624 10.5313,2.3437 4.9062,0.7813 9.25,0.7813 11.2343,0 17.7656,-5.1094 6.5468,-5.0938 6.5468,-13.7813 0,-6.0625 -3.4687,-10.2343 -3.4687,-4.1719 -9.8594,-5.7813"
                 inkscape:connector-curvature="0"
                 style="stroke-linecap:butt;stroke-linejoin:round" />
            </defs>
            <g
               id="g11779"
               transform="matrix(0.12,0,0,-0.12,233.63074,401.91812)"
               style="stroke-linecap:butt;stroke-linejoin:round">
              <use
                 id="use11781"
                 xlink:href="#BitstreamVeraSans-Roman-33"
                 style="stroke-linecap:butt;stroke-linejoin:round"
                 x="0"
                 y="0"
                 width="576"
                 height="432" />
              <use
                 id="use11783"
                 xlink:href="#BitstreamVeraSans-Roman-2e"
                 x="63.623047"
                 style="stroke-linecap:butt;stroke-linejoin:round"
                 y="0"
                 width="576"
                 height="432" />
              <use
                 id="use11785"
                 xlink:href="#BitstreamVeraSans-Roman-30"
                 x="95.410156"
                 style="stroke-linecap:butt;stroke-linejoin:round"
                 y="0"
                 width="576"
                 height="432" />
            </g>
          </g>
        </g>
        <g
           id="xtick_4"
           style="stroke-linecap:butt;stroke-linejoin:round">
          <g
             id="line2d_12"
             style="stroke-linecap:butt;stroke-linejoin:round">
            <path
               id="path11789"
               style="fill:none;stroke:#000000;stroke-width:0.5;stroke-linecap:butt;stroke-linejoin:round;stroke-dasharray:1, 3;stroke-dashoffset:0"
               d="m 327.475,388.8 0,-345.6"
               clip-path="url(#p7ff5b81e1d)"
               inkscape:connector-curvature="0" />
          </g>
          <g
             id="line2d_13"
             style="stroke-linecap:butt;stroke-linejoin:round">
            <g
               id="g11792"
               style="stroke-linecap:butt;stroke-linejoin:round">
              <use
                 id="use11794"
                 y="388.79999"
                 xlink:href="#m93b0483c22"
                 x="327.47501"
                 style="stroke:#000000;stroke-width:0.5;stroke-linecap:butt;stroke-linejoin:round"
                 width="576"
                 height="432" />
            </g>
          </g>
          <g
             id="line2d_14"
             style="stroke-linecap:butt;stroke-linejoin:round">
            <g
               id="g11797"
               style="stroke-linecap:butt;stroke-linejoin:round">
              <use
                 id="use11799"
                 y="43.200001"
                 xlink:href="#m741efc42ff"
                 x="327.47501"
                 style="stroke:#000000;stroke-width:0.5;stroke-linecap:butt;stroke-linejoin:round"
                 width="576"
                 height="432" />
            </g>
          </g>
          <g
             id="text_4"
             style="stroke-linecap:butt;stroke-linejoin:round">
            <!-- 3.5 -->
            <g
               id="g11802"
               transform="matrix(0.12,0,0,-0.12,318.9147,401.91812)"
               style="stroke-linecap:butt;stroke-linejoin:round">
              <use
                 id="use11804"
                 xlink:href="#BitstreamVeraSans-Roman-33"
                 style="stroke-linecap:butt;stroke-linejoin:round"
                 x="0"
                 y="0"
                 width="576"
                 height="432" />
              <use
                 id="use11806"
                 xlink:href="#BitstreamVeraSans-Roman-2e"
                 x="63.623047"
                 style="stroke-linecap:butt;stroke-linejoin:round"
                 y="0"
                 width="576"
                 height="432" />
              <use
                 id="use11808"
                 xlink:href="#BitstreamVeraSans-Roman-35"
                 x="95.410156"
                 style="stroke-linecap:butt;stroke-linejoin:round"
                 y="0"
                 width="576"
                 height="432" />
            </g>
          </g>
        </g>
        <g
           id="xtick_5"
           style="stroke-linecap:butt;stroke-linejoin:round">
          <g
             id="line2d_15"
             style="stroke-linecap:butt;stroke-linejoin:round">
            <path
               id="path11812"
               style="fill:none;stroke:#000000;stroke-width:0.5;stroke-linecap:butt;stroke-linejoin:round;stroke-dasharray:1, 3;stroke-dashoffset:0"
               d="m 412.633,388.8 0,-345.6"
               clip-path="url(#p7ff5b81e1d)"
               inkscape:connector-curvature="0" />
          </g>
          <g
             id="line2d_16"
             style="stroke-linecap:butt;stroke-linejoin:round">
            <g
               id="g11815"
               style="stroke-linecap:butt;stroke-linejoin:round">
              <use
                 id="use11817"
                 y="388.79999"
                 xlink:href="#m93b0483c22"
                 x="412.63333"
                 style="stroke:#000000;stroke-width:0.5;stroke-linecap:butt;stroke-linejoin:round"
                 width="576"
                 height="432" />
            </g>
          </g>
          <g
             id="line2d_17"
             style="stroke-linecap:butt;stroke-linejoin:round">
            <g
               id="g11820"
               style="stroke-linecap:butt;stroke-linejoin:round">
              <use
                 id="use11822"
                 y="43.200001"
                 xlink:href="#m741efc42ff"
                 x="412.63333"
                 style="stroke:#000000;stroke-width:0.5;stroke-linecap:butt;stroke-linejoin:round"
                 width="576"
                 height="432" />
            </g>
          </g>
          <g
             id="text_5"
             style="stroke-linecap:butt;stroke-linejoin:round">
            <!-- 4.0 -->
            <defs
               id="defs11825">
              <path
                 id="BitstreamVeraSans-Roman-34"
                 d="m 37.7969,64.3125 -24.9063,-38.9219 24.9063,0 z m -2.5938,8.5937 12.4063,0 0,-47.5156 10.4062,0 0,-8.2031 -10.4062,0 0,-17.1875 -9.8125,0 0,17.1875 -32.90628,0 0,9.5156 z"
                 inkscape:connector-curvature="0"
                 style="stroke-linecap:butt;stroke-linejoin:round" />
            </defs>
            <g
               id="g11828"
               transform="matrix(0.12,0,0,-0.12,403.78335,401.91812)"
               style="stroke-linecap:butt;stroke-linejoin:round">
              <use
                 id="use11830"
                 xlink:href="#BitstreamVeraSans-Roman-34"
                 style="stroke-linecap:butt;stroke-linejoin:round"
                 x="0"
                 y="0"
                 width="576"
                 height="432" />
              <use
                 id="use11832"
                 xlink:href="#BitstreamVeraSans-Roman-2e"
                 x="63.623047"
                 style="stroke-linecap:butt;stroke-linejoin:round"
                 y="0"
                 width="576"
                 height="432" />
              <use
                 id="use11834"
                 xlink:href="#BitstreamVeraSans-Roman-30"
                 x="95.410156"
                 style="stroke-linecap:butt;stroke-linejoin:round"
                 y="0"
                 width="576"
                 height="432" />
            </g>
          </g>
        </g>
        <g
           id="xtick_6"
           style="stroke-linecap:butt;stroke-linejoin:round">
          <g
             id="line2d_18"
             style="stroke-linecap:butt;stroke-linejoin:round">
            <path
               id="path11838"
               style="fill:none;stroke:#000000;stroke-width:0.5;stroke-linecap:butt;stroke-linejoin:round;stroke-dasharray:1, 3;stroke-dashoffset:0"
               d="m 497.792,388.8 0,-345.6"
               clip-path="url(#p7ff5b81e1d)"
               inkscape:connector-curvature="0" />
          </g>
          <g
             id="line2d_19"
             style="stroke-linecap:butt;stroke-linejoin:round">
            <g
               id="g11841"
               style="stroke-linecap:butt;stroke-linejoin:round">
              <use
                 id="use11843"
                 y="388.79999"
                 xlink:href="#m93b0483c22"
                 x="497.79169"
                 style="stroke:#000000;stroke-width:0.5;stroke-linecap:butt;stroke-linejoin:round"
                 width="576"
                 height="432" />
            </g>
          </g>
          <g
             id="line2d_20"
             style="stroke-linecap:butt;stroke-linejoin:round">
            <g
               id="g11846"
               style="stroke-linecap:butt;stroke-linejoin:round">
              <use
                 id="use11848"
                 y="43.200001"
                 xlink:href="#m741efc42ff"
                 x="497.79169"
                 style="stroke:#000000;stroke-width:0.5;stroke-linecap:butt;stroke-linejoin:round"
                 width="576"
                 height="432" />
            </g>
          </g>
          <g
             id="text_6"
             style="stroke-linecap:butt;stroke-linejoin:round">
            <!-- 4.5 -->
            <g
               id="g11851"
               transform="matrix(0.12,0,0,-0.12,489.06731,401.91812)"
               style="stroke-linecap:butt;stroke-linejoin:round">
              <use
                 id="use11853"
                 xlink:href="#BitstreamVeraSans-Roman-34"
                 style="stroke-linecap:butt;stroke-linejoin:round"
                 x="0"
                 y="0"
                 width="576"
                 height="432" />
              <use
                 id="use11855"
                 xlink:href="#BitstreamVeraSans-Roman-2e"
                 x="63.623047"
                 style="stroke-linecap:butt;stroke-linejoin:round"
                 y="0"
                 width="576"
                 height="432" />
              <use
                 id="use11857"
                 xlink:href="#BitstreamVeraSans-Roman-35"
                 x="95.410156"
                 style="stroke-linecap:butt;stroke-linejoin:round"
                 y="0"
                 width="576"
                 height="432" />
            </g>
          </g>
        </g>
        <g
           id="text_7"
           style="stroke-linecap:butt;stroke-linejoin:round">
          <!-- $time (s)$ -->
          <defs
             id="defs11860">
            <path
               id="Cmmi10-6d"
               d="m 7.71875,1.70312 q 0,0.59376 0.09375,0.89063 l 7.4687,29.82815 q 0.7344,2.7812 0.7344,4.8906 0,4.2969 -2.9218,4.2969 -3.12505,0 -4.64068,-3.75 -1.51562,-3.7344 -2.9375,-9.4375 0,-0.2969 -0.29687,-0.4688 Q 4.9375,27.7812 4.6875,27.7812 l -1.17188,0 q -0.34374,0 -0.59374,0.3594 -0.23438,0.375 -0.23438,0.6719 1.07812,4.3437 2.07812,7.3594 1,3.0312 3.125,5.5156 2.12498,2.5 5.29688,2.5 3.75,0 6.625,-2.375 2.8906,-2.3594 2.8906,-6.0156 2.9844,3.9062 6.9844,6.1406 4,2.25 8.5,2.25 4.7344,0 8.1719,-2.4219 3.4531,-2.4062 3.4531,-6.8594 3.0625,4.3594 7.1875,6.8126 4.1406,2.4687 9.0156,2.4687 5.1719,0 8.3125,-2.8125 3.1563,-2.7969 3.1563,-7.9688 0,-4.1093 -1.8282,-9.9218 -1.8281,-5.8125 -4.5624,-12.9844 -1.4219,-3.46875 -1.4219,-6 0,-2.98438 2.3437,-2.98438 3.9063,0 6.5,4.1875 2.5938,4.20313 3.6563,8.99998 0.2969,0.5781 0.8437,0.5781 l 1.1719,0 q 0.3906,0 0.6563,-0.2656 0.2656,-0.2656 0.2656,-0.6094 0,-0.0937 -0.0938,-0.2968 Q 83.6406,8.45312 80.25,3.65625 76.8594,-1.125 71.7812,-1.125 q -3.5156,0 -6.0156,2.42188 -2.4844,2.42187 -2.4844,5.875 0,1.76562 0.8282,3.90622 2.8281,7.5313 4.7031,13.4375 1.8906,5.9063 1.8906,10.3906 0,2.7969 -1.125,4.75 -1.125,1.9532 -3.75,1.9532 -5.4687,0 -9.4843,-3.3594 -4,-3.3438 -6.9219,-8.8594 Q 49.2188,28.4219 49.125,27.875 L 42.6719,2.20312 Q 42.3281,0.828125 41.125,-0.140625 39.9375,-1.125 38.4844,-1.125 q -1.1719,0 -2.0782,0.78125 Q 35.5,0.4375 35.5,1.70312 q 0,0.59376 0.0938,0.89063 L 42,28.0781 q 1.0156,4.0938 1.0156,6.8281 0,2.7969 -1.1562,4.75 -1.1406,1.9532 -3.875,1.9532 -3.6563,0 -6.7344,-1.625 -3.0781,-1.6094 -5.375,-4.2656 -2.2969,-2.6563 -4.1875,-6.3282 L 14.8906,2.20312 Q 14.5469,0.828125 13.3438,-0.140625 12.1562,-1.125 10.6875,-1.125 q -1.21875,0 -2.09375,0.78125 -0.875,0.78125 -0.875,2.04687"
               inkscape:connector-curvature="0"
               style="stroke-linecap:butt;stroke-linejoin:round" />
            <path
               id="Cmr10-28"
               d="m 31,-24.8125 q -5.5625,4.4063 -9.5938,10.0937 -4.0156,5.68755 -6.5937,12.14068 Q 12.25,3.85938 10.9844,10.8906 9.71875,17.9219 9.71875,25 q 0,7.1719 1.26565,14.2031 1.2656,7.0313 3.875,13.5313 2.625,6.5 6.6718,12.1562 Q 25.5938,70.5625 31,74.8125 31,75 31.5,75 l 0.9219,0 q 0.2969,0 0.5312,-0.2656 0.25,-0.2656 0.25,-0.6094 0,-0.4375 -0.1875,-0.6406 Q 28.125,68.7031 24.875,63.2344 21.625,57.7656 19.6406,51.5781 17.6719,45.4062 16.7969,38.7812 15.9219,32.1719 15.9219,25 q 0,-31.78125 16.9843,-48.2969 0.2969,-0.2812 0.2969,-0.8281 0,-0.2344 -0.2656,-0.5469 Q 32.6719,-25 32.4219,-25 L 31.5,-25 q -0.5,0 -0.5,0.1875"
               inkscape:connector-curvature="0"
               style="stroke-linecap:butt;stroke-linejoin:round" />
            <path
               id="Cmr10-29"
               d="m 6.5,-25 q -0.89062,0 -0.89062,0.875 0,0.4375 0.20312,0.6406 Q 22.9062,-6.78125 22.9062,25 22.9062,56.7812 6,73.2969 5.60938,73.5312 5.60938,74.125 q 0,0.3438 0.26562,0.6094 Q 6.15625,75 6.5,75 l 0.92188,0 q 0.29687,0 0.48437,-0.1875 7.18755,-5.6719 11.96875,-13.7813 4.7812,-8.0937 7,-17.2812 2.2344,-9.1719 2.2344,-18.75 0,-7.0781 -1.2032,-13.9375 Q 26.7031,4.20312 24.0938,-2.45312 21.4844,-9.125 17.4844,-14.7656 q -4,-5.6406 -9.57815,-10.0469 Q 7.71875,-25 7.42188,-25 z"
               inkscape:connector-curvature="0"
               style="stroke-linecap:butt;stroke-linejoin:round" />
            <path
               id="Cmmi10-73"
               d="m 8.6875,6.10938 q 2.6875,-4.59376 10.7969,-4.59376 3.5156,0 6.6875,1.1875 3.1719,1.20313 5.25,3.59376 Q 33.5,8.6875 33.5,12.1094 q 0,2.5937 -1.8594,4.25 -1.8594,1.6562 -4.5468,2.25 l -5.4063,1.0625 q -3.7187,0.9375 -6.1094,3.4687 -2.3906,2.5469 -2.3906,6.1563 0,4.4375 2.4063,7.8593 2.4218,3.4219 6.375,5.2188 3.9531,1.8125 8.2031,1.8125 4.5469,0 8.125,-2.1719 3.5937,-2.1718 3.5937,-6.4218 0,-2.2969 -1.2968,-4.0626 -1.2813,-1.75 -3.5782,-1.75 -1.3281,0 -2.2812,0.8594 -0.9375,0.8594 -0.9375,2.1719 0,1.1719 0.6562,2.2656 0.6563,1.1094 1.75,1.7657 1.1094,0.6562 2.2813,0.6562 -0.8906,2.1562 -3.3125,3.125 -2.4063,0.9844 -5.1875,0.9844 -2.5469,0 -5.0938,-1.0313 -2.5312,-1.0312 -4.0781,-3.0156 -1.5313,-1.9687 -1.5313,-4.6563 0,-1.7968 1.2657,-3.1718 1.2812,-1.3594 3.1406,-1.9532 L 29.5,26.6094 q 2.7812,-0.5782 5.0938,-2.0782 2.3281,-1.4843 3.6562,-3.7656 1.3438,-2.2656 1.3438,-5.1875 0,-3.7187 -2.0782,-7.3281 Q 35.4531,4.64062 32.4219,2.48438 27.0938,-1.125 19.3906,-1.125 q -5.3281,0 -9.78122,2.4375 -4.4375,2.45312 -4.4375,7.28125 0,2.73435 1.57812,4.75005 1.59375,2.0312 4.3281,2.0312 1.625,0 2.7188,-0.9844 1.0937,-0.9687 1.0937,-2.5781 0,-2.29688 -1.7187,-4 Q 11.4688,6.10938 9.1875,6.10938 z"
               inkscape:connector-curvature="0"
               style="stroke-linecap:butt;stroke-linejoin:round" />
            <path
               id="Cmmi10-65"
               d="m 20.125,-1.125 q -4.7969,0 -8.3906,2.48438 -3.57815,2.5 -5.46878,6.71874 -1.875,4.23438 -1.875,8.92188 0,7.125 3.59376,13.3906 3.59372,6.2813 9.73442,10.0313 6.1562,3.7656 13.1874,3.7656 4.2969,0 7.5,-2.2187 3.2032,-2.2188 3.2032,-6.375 0,-5.7657 -4.5938,-8.5782 -4.5937,-2.7968 -10.3594,-3.4531 -5.75,-0.6563 -12.7343,-0.6563 l -0.2969,0 q -1.6094,-5.9687 -1.6094,-10.2031 0,-4.4531 2.0469,-7.8281 2.0469,-3.35938 6.25,-3.35938 5.9531,0 11.4375,2.73438 5.5,2.73438 8.9688,7.5625 0.2968,0.2969 0.7812,0.2969 0.5,0 1,-0.5625 0.5156,-0.5625 0.5156,-1.0469 0,-0.3906 -0.1875,-0.59375 -3.6719,-5.125 -9.875,-8.07813 Q 26.7656,-1.125 20.125,-1.125 m -5.9219,26.6094 q 5.8125,0 10.75,0.5312 4.9375,0.5469 8.9375,2.7188 4,2.1718 4,6.7656 0,1.8594 -1.0312,3.25 -1.0156,1.3906 -2.6563,2.125 -1.6406,0.7344 -3.3906,0.7344 -4.25,0 -7.6406,-2.2969 -3.3907,-2.2969 -5.5938,-5.9844 -2.2031,-3.6875 -3.375,-7.8437"
               inkscape:connector-curvature="0"
               style="stroke-linecap:butt;stroke-linejoin:round" />
            <path
               id="Cmmi10-74"
               d="m 6.20312,8.10938 q 0,1.46874 0.29688,2.78122 l 7.2188,28.7032 -10.50005,0 q -1.01563,0 -1.01563,1.3281 0.39063,2.1875 1.3125,2.1875 l 11.07818,0 4.0156,16.3125 q 0.3906,1.3281 1.5625,2.25 1.1719,0.9219 2.625,0.9219 1.2812,0 2.125,-0.7657 0.8593,-0.75 0.8593,-2.0156 0,-0.2969 -0.0312,-0.4687 -0.0156,-0.1563 -0.0625,-0.3594 l -4,-15.875 10.2969,0 q 1.0312,0 1.0312,-1.3125 -0.0625,-0.25 -0.2031,-0.8438 -0.1406,-0.5781 -0.3906,-0.9687 -0.25,-0.3906 -0.7344,-0.3906 l -10.8906,0 -7.1719,-28.9063 q -0.7344,-2.82812 -0.7344,-4.875 0,-4.29688 2.9375,-4.29688 4.3907,0 7.7813,4.125 3.3906,4.125 5.2031,9.06248 0.3906,0.5781 0.7813,0.5781 l 1.2187,0 q 0.3906,0 0.625,-0.2656 0.25,-0.2656 0.25,-0.6094 0,-0.2031 -0.0937,-0.2968 Q 29.3906,8.0625 25.1875,3.46875 21,-1.125 15.5781,-1.125 11.625,-1.125 8.90625,1.45312 6.20312,4.04688 6.20312,8.10938"
               inkscape:connector-curvature="0"
               style="stroke-linecap:butt;stroke-linejoin:round" />
            <path
               id="Cmmi10-69"
               d="m 7.8125,7.17188 q 0,1.85937 0.78125,3.90622 L 16.7031,32.625 q 1.3125,3.6562 1.3125,6 0,2.9844 -2.1875,2.9844 -3.9687,0 -6.53122,-4.0782 Q 6.73438,33.4531 5.51562,28.4219 5.32812,27.7812 4.6875,27.7812 l -1.17188,0 q -0.82812,0 -0.82812,0.9376 l 0,0.2812 q 1.60938,5.9688 4.92188,10.5781 3.32812,4.6094 8.40622,4.6094 3.5625,0 6.0313,-2.3437 2.4687,-2.3438 2.4687,-5.9532 0,-1.8594 -0.8281,-3.9062 L 15.5781,10.5 q -1.375,-3.32812 -1.375,-6 0,-2.98438 2.2969,-2.98438 3.9062,0 6.5156,4.17188 2.625,4.17188 3.6875,9.0156 0.2031,0.5781 0.7813,0.5781 l 1.2344,0 q 0.3906,0 0.625,-0.2656 0.25,-0.2656 0.25,-0.6094 0,-0.0937 -0.0938,-0.2968 Q 28.125,8.45312 24.7344,3.65625 21.3438,-1.125 16.3125,-1.125 q -3.5156,0 -6.0156,2.42188 -2.4844,2.42187 -2.4844,5.875 M 19.0938,60.5938 q 0,2.1093 1.75,3.8124 1.7656,1.7032 3.8593,1.7032 1.7188,0 2.8125,-1.0469 1.0938,-1.0469 1.0938,-2.6563 0,-2.25 -1.7813,-3.9374 -1.7812,-1.6876 -3.9219,-1.6876 -1.6093,0 -2.7187,1.0938 -1.0937,1.1094 -1.0937,2.7188"
               inkscape:connector-curvature="0"
               style="stroke-linecap:butt;stroke-linejoin:round" />
          </defs>
          <g
             id="g11869"
             transform="matrix(0.2,0,0,-0.2,262.2,424.41375)"
             style="stroke-linecap:butt;stroke-linejoin:round">
            <use
               id="use11871"
               xlink:href="#Cmmi10-74"
               style="stroke-linecap:butt;stroke-linejoin:round"
               x="0"
               y="0"
               width="576"
               height="432" />
            <use
               id="use11873"
               xlink:href="#Cmmi10-69"
               transform="translate(36.083984,0)"
               style="stroke-linecap:butt;stroke-linejoin:round"
               x="0"
               y="0"
               width="576"
               height="432" />
            <use
               id="use11875"
               xlink:href="#Cmmi10-6d"
               transform="translate(70.507812,0)"
               style="stroke-linecap:butt;stroke-linejoin:round"
               x="0"
               y="0"
               width="576"
               height="432" />
            <use
               id="use11877"
               xlink:href="#Cmmi10-65"
               transform="translate(158.30078,0)"
               style="stroke-linecap:butt;stroke-linejoin:round"
               x="0"
               y="0"
               width="576"
               height="432" />
            <use
               id="use11879"
               xlink:href="#Cmr10-28"
               transform="translate(204.78516,0)"
               style="stroke-linecap:butt;stroke-linejoin:round"
               x="0"
               y="0"
               width="576"
               height="432" />
            <use
               id="use11881"
               xlink:href="#Cmmi10-73"
               transform="translate(243.60352,0)"
               style="stroke-linecap:butt;stroke-linejoin:round"
               x="0"
               y="0"
               width="576"
               height="432" />
            <use
               id="use11883"
               xlink:href="#Cmr10-29"
               transform="translate(290.38086,0)"
               style="stroke-linecap:butt;stroke-linejoin:round"
               x="0"
               y="0"
               width="576"
               height="432" />
          </g>
        </g>
      </g>
      <g
         id="matplotlib.axis_2"
         style="stroke-linecap:butt;stroke-linejoin:round">
        <g
           id="ytick_1"
           style="stroke-linecap:butt;stroke-linejoin:round">
          <g
             id="line2d_21"
             style="stroke-linecap:butt;stroke-linejoin:round">
            <path
               id="path11888"
               style="fill:none;stroke:#000000;stroke-width:0.5;stroke-linecap:butt;stroke-linejoin:round;stroke-dasharray:1, 3;stroke-dashoffset:0"
               d="m 72,372.343 446.4,0"
               clip-path="url(#p7ff5b81e1d)"
               inkscape:connector-curvature="0" />
          </g>
          <g
             id="line2d_22"
             style="stroke-linecap:butt;stroke-linejoin:round">
            <defs
               id="defs11891">
              <path
                 style="stroke:#000000;stroke-width:0.5;stroke-linecap:butt;stroke-linejoin:round"
                 id="m728421d6d4"
                 d="M 0,0 4,0"
                 inkscape:connector-curvature="0" />
            </defs>
            <g
               id="g11894"
               style="stroke-linecap:butt;stroke-linejoin:round">
              <use
                 id="use11896"
                 y="372.34286"
                 xlink:href="#m728421d6d4"
                 x="72"
                 style="stroke:#000000;stroke-width:0.5;stroke-linecap:butt;stroke-linejoin:round"
                 width="576"
                 height="432" />
            </g>
          </g>
          <g
             id="line2d_23"
             style="stroke-linecap:butt;stroke-linejoin:round">
            <defs
               id="defs11899">
              <path
                 style="stroke:#000000;stroke-width:0.5;stroke-linecap:butt;stroke-linejoin:round"
                 id="mcb0005524f"
                 d="M 0,0 -4,0"
                 inkscape:connector-curvature="0" />
            </defs>
            <g
               id="g11902"
               style="stroke-linecap:butt;stroke-linejoin:round">
              <use
                 id="use11904"
                 y="372.34286"
                 xlink:href="#mcb0005524f"
                 x="518.40002"
                 style="stroke:#000000;stroke-width:0.5;stroke-linecap:butt;stroke-linejoin:round"
                 width="576"
                 height="432" />
            </g>
          </g>
          <g
             id="text_8"
             style="stroke-linecap:butt;stroke-linejoin:round">
            <!-- 0.00 -->
            <g
               id="g11907"
               transform="matrix(0.12,0,0,-0.12,42.869375,375.65411)"
               style="stroke-linecap:butt;stroke-linejoin:round">
              <use
                 id="use11909"
                 xlink:href="#BitstreamVeraSans-Roman-30"
                 style="stroke-linecap:butt;stroke-linejoin:round"
                 x="0"
                 y="0"
                 width="576"
                 height="432" />
              <use
                 id="use11911"
                 xlink:href="#BitstreamVeraSans-Roman-2e"
                 x="63.623047"
                 style="stroke-linecap:butt;stroke-linejoin:round"
                 y="0"
                 width="576"
                 height="432" />
              <use
                 id="use11913"
                 xlink:href="#BitstreamVeraSans-Roman-30"
                 x="95.410156"
                 style="stroke-linecap:butt;stroke-linejoin:round"
                 y="0"
                 width="576"
                 height="432" />
              <use
                 id="use11915"
                 xlink:href="#BitstreamVeraSans-Roman-30"
                 x="159.0332"
                 style="stroke-linecap:butt;stroke-linejoin:round"
                 y="0"
                 width="576"
                 height="432" />
            </g>
          </g>
        </g>
        <g
           id="ytick_2"
           style="stroke-linecap:butt;stroke-linejoin:round">
          <g
             id="line2d_24"
             style="stroke-linecap:butt;stroke-linejoin:round">
            <path
               id="path11919"
               style="fill:none;stroke:#000000;stroke-width:0.5;stroke-linecap:butt;stroke-linejoin:round;stroke-dasharray:1, 3;stroke-dashoffset:0"
               d="m 72,290.057 446.4,0"
               clip-path="url(#p7ff5b81e1d)"
               inkscape:connector-curvature="0" />
          </g>
          <g
             id="line2d_25"
             style="stroke-linecap:butt;stroke-linejoin:round">
            <g
               id="g11922"
               style="stroke-linecap:butt;stroke-linejoin:round">
              <use
                 id="use11924"
                 y="290.05713"
                 xlink:href="#m728421d6d4"
                 x="72"
                 style="stroke:#000000;stroke-width:0.5;stroke-linecap:butt;stroke-linejoin:round"
                 width="576"
                 height="432" />
            </g>
          </g>
          <g
             id="line2d_26"
             style="stroke-linecap:butt;stroke-linejoin:round">
            <g
               id="g11927"
               style="stroke-linecap:butt;stroke-linejoin:round">
              <use
                 id="use11929"
                 y="290.05713"
                 xlink:href="#mcb0005524f"
                 x="518.40002"
                 style="stroke:#000000;stroke-width:0.5;stroke-linecap:butt;stroke-linejoin:round"
                 width="576"
                 height="432" />
            </g>
          </g>
          <g
             id="text_9"
             style="stroke-linecap:butt;stroke-linejoin:round">
            <!-- 0.05 -->
            <g
               id="g11932"
               transform="matrix(0.12,0,0,-0.12,43.120625,293.36839)"
               style="stroke-linecap:butt;stroke-linejoin:round">
              <use
                 id="use11934"
                 xlink:href="#BitstreamVeraSans-Roman-30"
                 style="stroke-linecap:butt;stroke-linejoin:round"
                 x="0"
                 y="0"
                 width="576"
                 height="432" />
              <use
                 id="use11936"
                 xlink:href="#BitstreamVeraSans-Roman-2e"
                 x="63.623047"
                 style="stroke-linecap:butt;stroke-linejoin:round"
                 y="0"
                 width="576"
                 height="432" />
              <use
                 id="use11938"
                 xlink:href="#BitstreamVeraSans-Roman-30"
                 x="95.410156"
                 style="stroke-linecap:butt;stroke-linejoin:round"
                 y="0"
                 width="576"
                 height="432" />
              <use
                 id="use11940"
                 xlink:href="#BitstreamVeraSans-Roman-35"
                 x="159.0332"
                 style="stroke-linecap:butt;stroke-linejoin:round"
                 y="0"
                 width="576"
                 height="432" />
            </g>
          </g>
        </g>
        <g
           id="ytick_3"
           style="stroke-linecap:butt;stroke-linejoin:round">
          <g
             id="line2d_27"
             style="stroke-linecap:butt;stroke-linejoin:round">
            <path
               id="path11944"
               style="fill:none;stroke:#000000;stroke-width:0.5;stroke-linecap:butt;stroke-linejoin:round;stroke-dasharray:1, 3;stroke-dashoffset:0"
               d="m 72,207.771 446.4,0"
               clip-path="url(#p7ff5b81e1d)"
               inkscape:connector-curvature="0" />
          </g>
          <g
             id="line2d_28"
             style="stroke-linecap:butt;stroke-linejoin:round">
            <g
               id="g11947"
               style="stroke-linecap:butt;stroke-linejoin:round">
              <use
                 id="use11949"
                 y="207.77142"
                 xlink:href="#m728421d6d4"
                 x="72"
                 style="stroke:#000000;stroke-width:0.5;stroke-linecap:butt;stroke-linejoin:round"
                 width="576"
                 height="432" />
            </g>
          </g>
          <g
             id="line2d_29"
             style="stroke-linecap:butt;stroke-linejoin:round">
            <g
               id="g11952"
               style="stroke-linecap:butt;stroke-linejoin:round">
              <use
                 id="use11954"
                 y="207.77142"
                 xlink:href="#mcb0005524f"
                 x="518.40002"
                 style="stroke:#000000;stroke-width:0.5;stroke-linecap:butt;stroke-linejoin:round"
                 width="576"
                 height="432" />
            </g>
          </g>
          <g
             id="text_10"
             style="stroke-linecap:butt;stroke-linejoin:round">
            <!-- 0.10 -->
            <defs
               id="defs11957">
              <path
                 id="BitstreamVeraSans-Roman-31"
                 d="m 12.4062,8.29688 16.1094,0 0,55.62502 -17.5312,-3.5157 0,8.9844 17.4375,3.5156 9.8593,0 0,-64.60932 16.1094,0 0,-8.29688 -41.9844,0 z"
                 inkscape:connector-curvature="0"
                 style="stroke-linecap:butt;stroke-linejoin:round" />
            </defs>
            <g
               id="g11960"
               transform="matrix(0.12,0,0,-0.12,42.869375,211.08268)"
               style="stroke-linecap:butt;stroke-linejoin:round">
              <use
                 id="use11962"
                 xlink:href="#BitstreamVeraSans-Roman-30"
                 style="stroke-linecap:butt;stroke-linejoin:round"
                 x="0"
                 y="0"
                 width="576"
                 height="432" />
              <use
                 id="use11964"
                 xlink:href="#BitstreamVeraSans-Roman-2e"
                 x="63.623047"
                 style="stroke-linecap:butt;stroke-linejoin:round"
                 y="0"
                 width="576"
                 height="432" />
              <use
                 id="use11966"
                 xlink:href="#BitstreamVeraSans-Roman-31"
                 x="95.410156"
                 style="stroke-linecap:butt;stroke-linejoin:round"
                 y="0"
                 width="576"
                 height="432" />
              <use
                 id="use11968"
                 xlink:href="#BitstreamVeraSans-Roman-30"
                 x="159.0332"
                 style="stroke-linecap:butt;stroke-linejoin:round"
                 y="0"
                 width="576"
                 height="432" />
            </g>
          </g>
        </g>
        <g
           id="ytick_4"
           style="stroke-linecap:butt;stroke-linejoin:round">
          <g
             id="line2d_30"
             style="stroke-linecap:butt;stroke-linejoin:round">
            <path
               id="path11972"
               style="fill:none;stroke:#000000;stroke-width:0.5;stroke-linecap:butt;stroke-linejoin:round;stroke-dasharray:1, 3;stroke-dashoffset:0"
               d="m 72,125.486 446.4,0"
               clip-path="url(#p7ff5b81e1d)"
               inkscape:connector-curvature="0" />
          </g>
          <g
             id="line2d_31"
             style="stroke-linecap:butt;stroke-linejoin:round">
            <g
               id="g11975"
               style="stroke-linecap:butt;stroke-linejoin:round">
              <use
                 id="use11977"
                 y="125.48572"
                 xlink:href="#m728421d6d4"
                 x="72"
                 style="stroke:#000000;stroke-width:0.5;stroke-linecap:butt;stroke-linejoin:round"
                 width="576"
                 height="432" />
            </g>
          </g>
          <g
             id="line2d_32"
             style="stroke-linecap:butt;stroke-linejoin:round">
            <g
               id="g11980"
               style="stroke-linecap:butt;stroke-linejoin:round">
              <use
                 id="use11982"
                 y="125.48572"
                 xlink:href="#mcb0005524f"
                 x="518.40002"
                 style="stroke:#000000;stroke-width:0.5;stroke-linecap:butt;stroke-linejoin:round"
                 width="576"
                 height="432" />
            </g>
          </g>
          <g
             id="text_11"
             style="stroke-linecap:butt;stroke-linejoin:round">
            <!-- 0.15 -->
            <g
               id="g11985"
               transform="matrix(0.12,0,0,-0.12,43.120625,128.79696)"
               style="stroke-linecap:butt;stroke-linejoin:round">
              <use
                 id="use11987"
                 xlink:href="#BitstreamVeraSans-Roman-30"
                 style="stroke-linecap:butt;stroke-linejoin:round"
                 x="0"
                 y="0"
                 width="576"
                 height="432" />
              <use
                 id="use11989"
                 xlink:href="#BitstreamVeraSans-Roman-2e"
                 x="63.623047"
                 style="stroke-linecap:butt;stroke-linejoin:round"
                 y="0"
                 width="576"
                 height="432" />
              <use
                 id="use11991"
                 xlink:href="#BitstreamVeraSans-Roman-31"
                 x="95.410156"
                 style="stroke-linecap:butt;stroke-linejoin:round"
                 y="0"
                 width="576"
                 height="432" />
              <use
                 id="use11993"
                 xlink:href="#BitstreamVeraSans-Roman-35"
                 x="159.0332"
                 style="stroke-linecap:butt;stroke-linejoin:round"
                 y="0"
                 width="576"
                 height="432" />
            </g>
          </g>
        </g>
        <g
           id="ytick_5"
           style="stroke-linecap:butt;stroke-linejoin:round">
          <g
             id="line2d_33"
             style="stroke-linecap:butt;stroke-linejoin:round">
            <path
               id="path11997"
               style="fill:none;stroke:#000000;stroke-width:0.5;stroke-linecap:butt;stroke-linejoin:round;stroke-dasharray:1, 3;stroke-dashoffset:0"
               d="m 72,43.2 446.4,0"
               clip-path="url(#p7ff5b81e1d)"
               inkscape:connector-curvature="0" />
          </g>
          <g
             id="line2d_34"
             style="stroke-linecap:butt;stroke-linejoin:round">
            <g
               id="g12000"
               style="stroke-linecap:butt;stroke-linejoin:round">
              <use
                 id="use12002"
                 y="43.200001"
                 xlink:href="#m728421d6d4"
                 x="72"
                 style="stroke:#000000;stroke-width:0.5;stroke-linecap:butt;stroke-linejoin:round"
                 width="576"
                 height="432" />
            </g>
          </g>
          <g
             id="line2d_35"
             style="stroke-linecap:butt;stroke-linejoin:round">
            <g
               id="g12005"
               style="stroke-linecap:butt;stroke-linejoin:round">
              <use
                 id="use12007"
                 y="43.200001"
                 xlink:href="#mcb0005524f"
                 x="518.40002"
                 style="stroke:#000000;stroke-width:0.5;stroke-linecap:butt;stroke-linejoin:round"
                 width="576"
                 height="432" />
            </g>
          </g>
          <g
             id="text_12"
             style="stroke-linecap:butt;stroke-linejoin:round">
            <!-- 0.20 -->
            <g
               id="g12010"
               transform="matrix(0.12,0,0,-0.12,42.869375,46.51125)"
               style="stroke-linecap:butt;stroke-linejoin:round">
              <use
                 id="use12012"
                 xlink:href="#BitstreamVeraSans-Roman-30"
                 style="stroke-linecap:butt;stroke-linejoin:round"
                 x="0"
                 y="0"
                 width="576"
                 height="432" />
              <use
                 id="use12014"
                 xlink:href="#BitstreamVeraSans-Roman-2e"
                 x="63.623047"
                 style="stroke-linecap:butt;stroke-linejoin:round"
                 y="0"
                 width="576"
                 height="432" />
              <use
                 id="use12016"
                 xlink:href="#BitstreamVeraSans-Roman-32"
                 x="95.410156"
                 style="stroke-linecap:butt;stroke-linejoin:round"
                 y="0"
                 width="576"
                 height="432" />
              <use
                 id="use12018"
                 xlink:href="#BitstreamVeraSans-Roman-30"
                 x="159.0332"
                 style="stroke-linecap:butt;stroke-linejoin:round"
                 y="0"
                 width="576"
                 height="432" />
            </g>
          </g>
        </g>
        <g
           id="text_13"
           style="stroke-linecap:butt;stroke-linejoin:round">
          <!-- $(Joules)$ -->
          <defs
             id="defs12021">
            <path
               id="Cmmi10-6c"
               d="m 4.39062,8.10938 q 0,0.29687 0.07813,0.875 0.07813,0.59374 0.14063,1.14062 0.07812,0.5625 0.07812,0.8594 L 17.0938,60.5 q 0.3906,1.7031 0.4843,2.6875 0,1.6094 -6.5,1.6094 -0.9687,0 -0.9687,1.3125 0.0468,0.25 0.2187,0.875 0.1719,0.6406 0.4375,0.9844 0.2656,0.3437 0.7656,0.3437 L 25,69.3906 q 1.2188,0 1.2188,-1.2812 L 11.8125,10.5938 q -0.7344,-1.60942 -0.7344,-4.7813 0,-4.29688 2.9375,-4.29688 3.0782,0 4.6094,3.82813 1.5469,3.84375 2.7656,9.35935 0.1875,0.5781 0.8282,0.5781 l 1.1718,0 q 0.3906,0 0.6563,-0.3124 0.2656,-0.3126 0.2656,-0.6563 Q 23.1406,9.46875 22.1875,6.65625 21.2344,3.85938 19.1406,1.35938 17.0469,-1.125 13.8125,-1.125 q -4,0 -6.71875,2.57812 -2.70313,2.59376 -2.70313,6.65626"
               inkscape:connector-curvature="0"
               style="stroke-linecap:butt;stroke-linejoin:round" />
            <path
               id="Cmmi10-75"
               d="m 10.5938,10.8906 q 0,3.2656 0.875,6.7032 0.8906,3.4531 2.4687,7.6718 1.5937,4.2344 2.7656,7.3594 1.3125,3.6562 1.3125,6 0,2.9844 -2.1875,2.9844 -3.9687,0 -6.53122,-4.0782 Q 6.73438,33.4531 5.51562,28.4219 5.32812,27.7812 4.6875,27.7812 l -1.17188,0 q -0.82812,0 -0.82812,0.9376 l 0,0.2812 q 1.60938,5.9688 4.92188,10.5781 3.32812,4.6094 8.40622,4.6094 3.5625,0 6.0313,-2.3437 2.4687,-2.3438 2.4687,-5.9532 0,-1.8594 -0.8281,-3.9062 -0.4375,-1.2188 -2,-5.3282 -1.5625,-4.0937 -2.4063,-6.7812 -0.8281,-2.6875 -1.3593,-5.2812 -0.5313,-2.5782 -0.5313,-5.17192 0,-3.3125 1.4063,-5.60938 1.4219,-2.29688 4.5937,-2.29688 6.3906,0 11.2344,7.90626 0.0938,0.39062 0.1562,0.75002 0.0782,0.375 0.125,0.7187 l 7.1876,29 q 0.3437,1.3282 1.5624,2.2656 1.2188,0.9532 2.6407,0.9532 1.2187,0 2.1093,-0.7813 0.9063,-0.7812 0.9063,-2.0469 0,-0.5781 -0.0937,-0.7812 L 42,10.6875 q -0.6875,-2.96875 -0.6875,-4.875 0,-4.29688 2.875,-4.29688 3.2187,0 4.8125,3.96876 1.5938,3.98437 2.7031,9.21872 0.2031,0.5781 0.7813,0.5781 l 1.2344,0 q 0.3906,0 0.625,-0.3437 0.25,-0.3437 0.25,-0.625 -1.0782,-4.2969 -2.0782,-7.375 -1,-3.07812 -3.1562,-5.57812 Q 47.2188,-1.125 44,-1.125 q -3.1719,0 -5.6875,1.734375 Q 35.7969,2.34375 34.9062,5.32812 32.625,2.39062 29.5938,0.625 q -3.0313,-1.75 -6.4063,-1.75 -5.75,0 -9.1719,3.14062 -3.4218,3.15626 -3.4218,8.87498"
               inkscape:connector-curvature="0"
               style="stroke-linecap:butt;stroke-linejoin:round" />
            <path
               id="Cmmi10-4a"
               d="M 10.8906,6 Q 11.8594,3.21875 14.5,1.79688 q 2.6406,-1.406255 5.7188,-1.406255 3.125,0 6.0312,2.171875 2.9062,2.17188 4.9219,5.4375 2.0312,3.2812 2.8125,6.5 l 11.8125,47.3125 q 0.1093,0.3906 0.125,0.5781 0.0312,0.2032 0.0781,0.4063 0,1.0781 -0.7812,1.3125 -2.6407,0.6875 -10.7032,0.6875 -1.0156,0 -1.0156,1.3125 0.1875,0.7812 0.3125,1.2187 0.125,0.4531 0.4375,0.7188 0.3281,0.2656 0.9531,0.2656 l 27.1094,0 q 0.9687,0 0.9687,-1.3125 -0.3906,-2.2031 -1.2656,-2.2031 -3.5156,0 -5.3281,-0.5469 -1.7969,-0.5312 -2.4844,-2.875 L 42.3906,14.1094 Q 41.2656,9.46875 37.8125,5.73438 34.375,2 29.6406,-0.09375 24.9062,-2.20312 20.125,-2.20312 q -5.2812,0 -9.2656,2.92187 -3.96878,2.9375 -3.96878,7.96875 0,3.3281 1.79688,5.7187 1.8125,2.3907 5.125,2.3907 1.9063,0 3.2031,-1.1719 1.2969,-1.1719 1.2969,-3.0312 0,-2.68755 -2,-4.68755 -2,-2 -4.6875,-2 -0.5469,0 -0.7344,0.09375"
               inkscape:connector-curvature="0"
               style="stroke-linecap:butt;stroke-linejoin:round" />
            <path
               id="Cmmi10-6f"
               d="m 20.125,-1.125 q -4.75,0 -8.4375,2.25 Q 8.01562,3.375 6,7.17188 4,10.9844 4,15.8281 4,22.6094 7.78125,29.25 11.5781,35.8906 17.8438,40.0312 24.125,44.1875 31,44.1875 q 3.7188,0 6.625,-1.2656 2.9062,-1.2657 5.0469,-3.5625 2.1562,-2.2969 3.2969,-5.375 1.1562,-3.0782 1.1562,-6.6875 0,-5.2188 -2.2031,-10.2813 Q 42.7188,11.9688 38.8906,7.84375 35.0625,3.71875 30.125,1.29688 25.2031,-1.125 20.125,-1.125 m 0.1875,2.64062 q 4.4375,0 8.125,3.01563 3.6875,3.03125 6.0469,7.64065 2.375,4.625 3.6406,9.75 1.2812,5.125 1.2812,9.2812 0,4.3438 -2.1718,7.375 -2.1719,3.0313 -6.4219,3.0313 -5.8594,0 -10.2656,-5.0156 -4.3907,-5 -6.6094,-11.9688 -2.2187,-6.9531 -2.2187,-12.7031 0,-4.3594 2.2187,-7.39065 2.2187,-3.01563 6.375,-3.01563"
               inkscape:connector-curvature="0"
               style="stroke-linecap:butt;stroke-linejoin:round" />
          </defs>
          <g
             id="g12027"
             transform="matrix(0,-0.2,-0.2,0,32.869375,252.2)"
             style="stroke-linecap:butt;stroke-linejoin:round">
            <use
               id="use12029"
               xlink:href="#Cmr10-28"
               style="stroke-linecap:butt;stroke-linejoin:round"
               x="0"
               y="0"
               width="576"
               height="432"
               transform="translate(124.52055,4.931507)" />
            <use
               id="use12031"
               xlink:href="#Cmmi10-4a"
               transform="translate(163.33891,4.931507)"
               style="stroke-linecap:butt;stroke-linejoin:round"
               x="0"
               y="0"
               width="576"
               height="432" />
            <use
               id="use12043"
               xlink:href="#Cmr10-29"
               transform="translate(248.87896,11.095891)"
               style="stroke-linecap:butt;stroke-linejoin:round"
               x="0"
               y="0"
               width="576"
               height="432" />
          </g>
        </g>
      </g>
      <g
         id="patch_3"
         style="stroke-linecap:butt;stroke-linejoin:round">
        <path
           id="path12046"
           style="fill:none;stroke:#000000;stroke-linecap:butt;stroke-linejoin:round"
           d="m 72,43.2 446.4,0"
           inkscape:connector-curvature="0" />
      </g>
      <g
         id="patch_4"
         style="stroke-linecap:butt;stroke-linejoin:round">
        <path
           id="path12049"
           style="fill:none;stroke:#000000;stroke-linecap:butt;stroke-linejoin:round"
           d="m 518.4,388.8 0,-345.6"
           inkscape:connector-curvature="0" />
      </g>
      <g
         id="patch_5"
         style="stroke-linecap:butt;stroke-linejoin:round">
        <path
           id="path12052"
           style="fill:none;stroke:#000000;stroke-linecap:butt;stroke-linejoin:round"
           d="m 72,388.8 446.4,0"
           inkscape:connector-curvature="0" />
      </g>
      <g
         id="patch_6"
         style="stroke-linecap:butt;stroke-linejoin:round">
        <path
           id="path12055"
           style="fill:none;stroke:#000000;stroke-linecap:butt;stroke-linejoin:round"
           d="M 72,388.8 72,43.2"
           inkscape:connector-curvature="0" />
      </g>
      <g
         id="legend_1"
         style="stroke-linecap:butt;stroke-linejoin:round"
         transform="matrix(0.78258517,0,0,0.78957096,325.10486,-49.549598)">
        <g
           id="patch_7"
           style="stroke-linecap:butt;stroke-linejoin:round" />
        <g
           id="line2d_46"
           style="stroke-linecap:butt;stroke-linejoin:round" />
        <g
           id="line2d_48"
           style="stroke-linecap:butt;stroke-linejoin:round" />
        <g
           id="g27115"
           transform="translate(-55.726027,72)"
           style="stroke-linecap:butt;stroke-linejoin:round">
          <path
             id="path25768"
             style="fill:#ffffff;stroke:#000000;stroke-linecap:butt;stroke-linejoin:round"
             d="m 130.109,125.594 134.8,0 0,-72.394 -134.8,0 0,72.394 z"
             inkscape:connector-curvature="0" />
          <g
             id="line2d_45"
             style="stroke-linecap:butt;stroke-linejoin:round">
            <path
               id="path25771"
               style="fill:none;stroke:#0000ff;stroke-width:2;stroke-linecap:square;stroke-linejoin:round"
               d="m 144.109,69.3969 28,0"
               inkscape:connector-curvature="0" />
          </g>
          <g
             id="line2d_47"
             style="stroke-linecap:butt;stroke-linejoin:round">
            <path
               id="path25790"
               style="fill:none;stroke:#ff0000;stroke-width:2;stroke-linecap:butt;stroke-linejoin:round;stroke-dasharray:6, 6;stroke-dashoffset:0"
               d="m 144.109,102.594 28,0"
               inkscape:connector-curvature="0" />
          </g>
          <g
             id="text_20"
             style="stroke-linecap:butt;stroke-linejoin:round">
            <!-- $E_{effmax}$ -->
            <defs
               id="defs25794">
              <path
                 id="Cmmi10-61"
                 d="m 17.3906,-1.125 q -6.3125,0 -9.9531,4.76562 -3.625,4.76563 -3.625,11.24998 0,6.4063 3.3125,13.2813 3.3281,6.8906 8.9688,11.4531 5.6406,4.5625 12.125,4.5625 2.9843,0 5.3281,-1.6094 2.3437,-1.6093 3.6562,-4.3906 1.125,4 4.4063,4 1.2656,0 2.1094,-0.7656 0.8593,-0.75 0.8593,-2.0157 0,-0.2968 -0.0312,-0.4531 -0.0157,-0.1406 -0.0625,-0.3281 L 37.5,10.6875 q -0.6875,-2.96875 -0.6875,-4.875 0,-4.29688 2.8906,-4.29688 3.125,0 4.75,3.96876 1.6407,3.98437 2.7657,9.21872 0.1874,0.5781 0.7812,0.5781 l 1.2188,0 q 0.3906,0 0.625,-0.3437 0.25,-0.3437 0.25,-0.625 Q 48.3438,7.32812 46.2656,3.09375 44.1875,-1.125 39.5,-1.125 q -3.3594,0 -5.9531,1.96875 Q 30.9531,2.82812 30.3281,6.10938 23.875,-1.125 17.3906,-1.125 m 0.0938,2.64062 q 3.6094,0 7,2.70313 3.3906,2.71875 5.8437,6.37505 0.0938,0.0937 0.0938,0.2968 l 5.375,21.7344 0.0937,0.2812 q -0.5937,3.5626 -2.5781,6.125 -1.9687,2.5782 -5.3281,2.5782 -3.375,0 -6.2813,-2.7656 -2.9062,-2.7657 -4.9062,-6.5157 -1.9531,-4 -3.7344,-10.9843 -1.7813,-6.9844 -1.7813,-10.8438 0,-3.46875 1.4844,-6.23438 1.5,-2.75 4.7188,-2.75"
                 inkscape:connector-curvature="0"
                 style="stroke-linecap:butt;stroke-linejoin:round" />
              <path
                 id="Cmmi10-78"
                 d="m 7.8125,2.875 q 1.76562,-1.35938 4.9844,-1.35938 3.125,0 5.5156,3 2.3906,3 3.2656,6.56248 l 4.5469,17.7344 q 1.0781,4.8281 1.0781,6.5937 0,2.4844 -1.3906,4.3438 -1.3906,1.8594 -3.8906,1.8594 -3.1719,0 -5.9531,-1.9844 Q 13.1875,37.6406 11.2812,34.5938 9.375,31.5469 8.59375,28.4219 8.40625,27.7812 7.8125,27.7812 l -1.21875,0 q -0.78125,0 -0.78125,0.9376 l 0,0.2812 q 0.96875,3.7188 3.3125,7.25 2.3438,3.5469 5.7344,5.7344 3.4062,2.2031 7.2656,2.2031 3.6562,0 6.6094,-1.9531 2.9531,-1.9532 4.1718,-5.3125 1.7188,3.0625 4.375,5.1562 2.6563,2.1094 5.8282,2.1094 2.1562,0 4.3906,-0.7656 2.25,-0.75 3.6719,-2.3125 1.4219,-1.5625 1.4219,-3.9063 0,-2.5312 -1.6407,-4.375 Q 49.3125,31 46.7812,31 q -1.6093,0 -2.6874,1.0312 -1.0782,1.0313 -1.0782,2.5938 0,2.0938 1.4375,3.6719 1.4531,1.5937 3.4531,1.8906 -1.8124,1.4219 -4.9843,1.4219 -3.2188,0 -5.5938,-2.9844 -2.3593,-2.9844 -3.3437,-6.6406 L 29.5938,14.3125 q -1.0782,-4.0156 -1.0782,-6.59375 0,-2.54687 1.4375,-4.375 1.4375,-1.82813 3.8438,-1.82813 4.6875,0 8.3593,4.125 3.6876,4.125 4.8594,9.06248 0.2032,0.5781 0.7813,0.5781 l 1.2343,0 q 0.3907,0 0.625,-0.2656 0.25,-0.2656 0.25,-0.6094 0,-0.0937 -0.0937,-0.2968 Q 48.3906,8.15625 43.8438,3.51562 39.3125,-1.125 33.5938,-1.125 q -3.6563,0 -6.6094,1.96875 -2.9532,1.98437 -4.1875,5.35937 -1.5625,-2.9375 -4.3281,-5.14062 -2.75,-2.1875 -5.875,-2.1875 -2.1407,0 -4.42192,0.765625 -2.26563,0.75 -3.6875,2.312495 -1.40626,1.5625 -1.40626,3.95313 0,2.34375 1.625,4.26565 1.64063,1.9375 4.09376,1.9375 1.65622,0 2.78122,-1 1.125,-1 1.125,-2.6094 0,-2.10938 -1.4062,-3.67188 Q 9.90625,3.26562 7.8125,2.875"
                 inkscape:connector-curvature="0"
                 style="stroke-linecap:butt;stroke-linejoin:round" />
            </defs>
            <g
               id="g25798"
               transform="matrix(0.2,0,0,-0.2,194.10909,109.59375)"
               style="stroke-linecap:butt;stroke-linejoin:round" />
          </g>
          <g
             transform="matrix(-0.00569293,1.3562772,-1.362762,-0.00566584,415.07856,39.293737)"
             id="text_18-5"
             style="stroke-linecap:butt;stroke-linejoin:round">
            <!-- $E_{eff} (Joules)$ -->
            <defs
               id="defs11877">
              <path
                 inkscape:connector-curvature="0"
                 d="m 4.39062,8.10938 q 0,0.29687 0.07813,0.875 0.07813,0.59374 0.14063,1.14062 0.07812,0.5625 0.07812,0.8594 L 17.0938,60.5 q 0.3906,1.7031 0.4843,2.6875 0,1.6094 -6.5,1.6094 -0.9687,0 -0.9687,1.3125 0.0468,0.25 0.2187,0.875 0.1719,0.6406 0.4375,0.9844 0.2656,0.3437 0.7656,0.3437 L 25,69.3906 q 1.2188,0 1.2188,-1.2812 L 11.8125,10.5938 q -0.7344,-1.60942 -0.7344,-4.7813 0,-4.29688 2.9375,-4.29688 3.0782,0 4.6094,3.82813 1.5469,3.84375 2.7656,9.35935 0.1875,0.5781 0.8282,0.5781 l 1.1718,0 q 0.3906,0 0.6563,-0.3124 0.2656,-0.3126 0.2656,-0.6563 Q 23.1406,9.46875 22.1875,6.65625 21.2344,3.85938 19.1406,1.35938 17.0469,-1.125 13.8125,-1.125 q -4,0 -6.71875,2.57812 -2.70313,2.59376 -2.70313,6.65626"
                 id="Cmmi10-6c-8"
                 style="stroke-linecap:butt;stroke-linejoin:round" />
              <path
                 inkscape:connector-curvature="0"
                 d="M 10.8906,6 Q 11.8594,3.21875 14.5,1.79688 q 2.6406,-1.406255 5.7188,-1.406255 3.125,0 6.0312,2.171875 2.9062,2.17188 4.9219,5.4375 2.0312,3.2812 2.8125,6.5 l 11.8125,47.3125 q 0.1093,0.3906 0.125,0.5781 0.0312,0.2032 0.0781,0.4063 0,1.0781 -0.7812,1.3125 -2.6407,0.6875 -10.7032,0.6875 -1.0156,0 -1.0156,1.3125 0.1875,0.7812 0.3125,1.2187 0.125,0.4531 0.4375,0.7188 0.3281,0.2656 0.9531,0.2656 l 27.1094,0 q 0.9687,0 0.9687,-1.3125 -0.3906,-2.2031 -1.2656,-2.2031 -3.5156,0 -5.3281,-0.5469 -1.7969,-0.5312 -2.4844,-2.875 L 42.3906,14.1094 Q 41.2656,9.46875 37.8125,5.73438 34.375,2 29.6406,-0.09375 24.9062,-2.20312 20.125,-2.20312 q -5.2812,0 -9.2656,2.92187 -3.96878,2.9375 -3.96878,7.96875 0,3.3281 1.79688,5.7187 1.8125,2.3907 5.125,2.3907 1.9063,0 3.2031,-1.1719 1.2969,-1.1719 1.2969,-3.0312 0,-2.68755 -2,-4.68755 -2,-2 -4.6875,-2 -0.5469,0 -0.7344,0.09375"
                 id="Cmmi10-4a-9"
                 style="stroke-linecap:butt;stroke-linejoin:round" />
              <path
                 inkscape:connector-curvature="0"
                 d="m 20.125,-1.125 q -4.75,0 -8.4375,2.25 Q 8.01562,3.375 6,7.17188 4,10.9844 4,15.8281 4,22.6094 7.78125,29.25 11.5781,35.8906 17.8438,40.0312 24.125,44.1875 31,44.1875 q 3.7188,0 6.625,-1.2656 2.9062,-1.2657 5.0469,-3.5625 2.1562,-2.2969 3.2969,-5.375 1.1562,-3.0782 1.1562,-6.6875 0,-5.2188 -2.2031,-10.2813 Q 42.7188,11.9688 38.8906,7.84375 35.0625,3.71875 30.125,1.29688 25.2031,-1.125 20.125,-1.125 m 0.1875,2.64062 q 4.4375,0 8.125,3.01563 3.6875,3.03125 6.0469,7.64065 2.375,4.625 3.6406,9.75 1.2812,5.125 1.2812,9.2812 0,4.3438 -2.1718,7.375 -2.1719,3.0313 -6.4219,3.0313 -5.8594,0 -10.2656,-5.0156 -4.3907,-5 -6.6094,-11.9688 -2.2187,-6.9531 -2.2187,-12.7031 0,-4.3594 2.2187,-7.39065 2.2187,-3.01563 6.375,-3.01563"
                 id="Cmmi10-6f-1"
                 style="stroke-linecap:butt;stroke-linejoin:round" />
              <path
                 inkscape:connector-curvature="0"
                 d="m 9.71875,-16.5 q 1.85935,-1.4219 4.48435,-1.4219 3.5781,0 5.8125,7.9063 0.9375,3.81248 5.0782,25.1094 l 4.5937,24.5 -8.5937,0 q -0.9688,0 -0.9688,1.3281 0.3906,2.1875 1.2656,2.1875 l 8.9375,0 1.1719,6.5 q 0.5781,3.0312 1.0625,5.2031 0.5,2.1719 1.0625,4.0156 0.5625,1.8594 1.6719,4.1563 1.7187,3.2812 4.625,5.4062 2.9062,2.125 6.2656,2.125 2.2031,0 4.2813,-0.8125 2.0781,-0.8125 3.3906,-2.4219 1.3125,-1.6093 1.3125,-3.7968 0,-2.5469 -1.6875,-4.4375 -1.6719,-1.875 -4.0625,-1.875 -1.625,0 -2.7657,1 -1.1406,1.0156 -1.1406,2.625 0,2.1875 1.4844,3.8281 1.4844,1.6406 3.6875,1.875 -1.8594,1.4219 -4.5937,1.4219 -1.5157,0 -2.8594,-1.4219 Q 41.8906,65.0938 41.5,63.4844 40.875,60.9375 38.7188,49.7031 L 37.5,43.1094 l 10.2969,0 q 0.9843,0 0.9843,-1.3125 -0.0468,-0.25 -0.2031,-0.8594 -0.1406,-0.6094 -0.4062,-0.9844 -0.2657,-0.3593 -0.6563,-0.3593 l -10.7031,0 -4.6406,-24.4063 Q 31.2969,9.85938 30.1406,4.35938 29,-1.125 26.9219,-6.90625 24.8594,-12.7031 21.625,-16.6094 q -3.2188,-3.9062 -7.6094,-3.9062 -3.375,0 -6.03122,1.9375 -2.65626,1.9219 -2.65626,5.0937 0,2.5469 1.625,4.43752 1.64063,1.875 4.12498,1.875 1.6719,0 2.7813,-1 1.125,-1.01562 1.125,-2.62502 0,-2.1406 -1.5938,-3.9219 Q 11.8125,-16.5 9.71875,-16.5"
                 id="Cmmi10-66-6"
                 style="stroke-linecap:butt;stroke-linejoin:round" />
              <path
                 inkscape:connector-curvature="0"
                 d="m 4.6875,0 q -0.96875,0 -0.96875,1.3125 0.04687,0.25 0.1875,0.85938 0.14063,0.60937 0.40625,0.96874 0.28125,0.375 0.67188,0.375 6.09372,0 8.50002,0.6875 1.3125,0.4375 1.8906,2.6875 L 29.1094,61.8125 q 0.1875,0.9844 0.1875,1.375 0,1.0781 -1.2188,1.2187 -1.8593,0.3907 -7.1719,0.3907 -0.9843,0 -0.9843,1.3125 0.0469,0.25 0.1875,0.8594 0.1562,0.6093 0.4218,0.9687 0.2657,0.375 0.6563,0.375 l 54.2031,0 q 1.0313,0 1.0313,-1.3125 L 74.0312,46.2969 q 0,-0.25 -0.375,-0.5781 Q 73.2969,45.4062 73,45.4062 l -0.875,0 q -1.0312,0 -1.0312,1.2813 0.5937,4.875 0.5937,7.2187 0,4 -1.375,6.2188 -1.3594,2.2344 -3.6406,3.2031 -2.2657,0.9844 -5.0313,1.2188 -2.75,0.25 -7.25,0.25 l -11.375,0 q -2.7344,0 -3.6094,-0.4688 -0.875,-0.4531 -1.6093,-2.9531 l -6.0157,-24.1719 7.8126,0 q 5.0781,0 7.6718,0.7031 2.5938,0.7188 4.0938,2.9532 1.5156,2.25 2.75,7.1406 0.0937,0.3438 0.3594,0.6094 0.2656,0.2656 0.6093,0.2656 l 0.9219,0 q 0.9844,0 0.9844,-1.2656 L 50.7812,22.9062 q -0.1874,-0.8906 -0.9687,-0.8906 l -0.9375,0 q -0.9688,0 -0.9688,1.2813 0.9688,4 0.9688,5.9062 0,2.9219 -2.6406,3.7031 -2.625,0.7813 -7.0313,0.7813 l -8.2969,0 L 24.125,6.5 q -0.4375,-1.21875 -0.4375,-2.20312 0,-0.78126 3.4063,-0.78126 l 12.1093,0 q 7.2344,0 11.7188,1.125 4.5,1.125 7.4531,3.57813 2.9531,2.46875 5.0938,6.28125 2.1562,3.8125 5.2343,11.0938 0.1875,0.625 0.875,0.625 l 0.9375,0 q 0.3906,0 0.6719,-0.3438 0.2969,-0.3438 0.2969,-0.7812 0,-0.1876 -0.0938,-0.3907 L 61.0781,0.59375 Q 60.8906,0 60.2969,0 z"
                 id="Cmmi10-45-8"
                 style="stroke-linecap:butt;stroke-linejoin:round" />
              <path
                 inkscape:connector-curvature="0"
                 d="m 10.5938,10.8906 q 0,3.2656 0.875,6.7032 0.8906,3.4531 2.4687,7.6718 1.5937,4.2344 2.7656,7.3594 1.3125,3.6562 1.3125,6 0,2.9844 -2.1875,2.9844 -3.9687,0 -6.53122,-4.0782 Q 6.73438,33.4531 5.51562,28.4219 5.32812,27.7812 4.6875,27.7812 l -1.17188,0 q -0.82812,0 -0.82812,0.9376 l 0,0.2812 q 1.60938,5.9688 4.92188,10.5781 3.32812,4.6094 8.40622,4.6094 3.5625,0 6.0313,-2.3437 2.4687,-2.3438 2.4687,-5.9532 0,-1.8594 -0.8281,-3.9062 -0.4375,-1.2188 -2,-5.3282 -1.5625,-4.0937 -2.4063,-6.7812 -0.8281,-2.6875 -1.3593,-5.2812 -0.5313,-2.5782 -0.5313,-5.17192 0,-3.3125 1.4063,-5.60938 1.4219,-2.29688 4.5937,-2.29688 6.3906,0 11.2344,7.90626 0.0938,0.39062 0.1562,0.75002 0.0782,0.375 0.125,0.7187 l 7.1876,29 q 0.3437,1.3282 1.5624,2.2656 1.2188,0.9532 2.6407,0.9532 1.2187,0 2.1093,-0.7813 0.9063,-0.7812 0.9063,-2.0469 0,-0.5781 -0.0937,-0.7812 L 42,10.6875 q -0.6875,-2.96875 -0.6875,-4.875 0,-4.29688 2.875,-4.29688 3.2187,0 4.8125,3.96876 1.5938,3.98437 2.7031,9.21872 0.2031,0.5781 0.7813,0.5781 l 1.2344,0 q 0.3906,0 0.625,-0.3437 0.25,-0.3437 0.25,-0.625 -1.0782,-4.2969 -2.0782,-7.375 -1,-3.07812 -3.1562,-5.57812 Q 47.2188,-1.125 44,-1.125 q -3.1719,0 -5.6875,1.734375 Q 35.7969,2.34375 34.9062,5.32812 32.625,2.39062 29.5938,0.625 q -3.0313,-1.75 -6.4063,-1.75 -5.75,0 -9.1719,3.14062 -3.4218,3.15626 -3.4218,8.87498"
                 id="Cmmi10-75-8"
                 style="stroke-linecap:butt;stroke-linejoin:round" />
            </defs>
            <g
               transform="matrix(0,-0.2,-0.2,0,28.15617,190.38745)"
               id="g11885"
               style="stroke-linecap:butt;stroke-linejoin:round">
              <text
                 xml:space="preserve"
                 style="font-size:52px;font-style:normal;font-variant:normal;font-weight:normal;font-stretch:normal;line-height:125%;letter-spacing:0px;word-spacing:0px;fill:#000000;fill-opacity:1;stroke:none;font-family:Nimbus Roman No9 L;-inkscape-font-specification:Nimbus Roman No9 L"
                 x="142.39206"
                 y="17.089401"
                 id="text7120"
                 sodipodi:linespacing="125%"
                 transform="matrix(0.99999956,-9.4140396e-4,-9.4140396e-4,-0.99999956,0,0)"><tspan
                   sodipodi:role="line"
                   id="tspan7122"
                   x="142.39206"
                   y="17.089401"
                   style="font-size:112px">S</tspan></text>
            </g>
          </g>
          <text
             xml:space="preserve"
             style="font-size:14.13908768px;font-style:normal;font-variant:normal;font-weight:normal;font-stretch:normal;line-height:125%;letter-spacing:0px;word-spacing:0px;fill:#000000;fill-opacity:1;stroke:none;font-family:Nimbus Roman No9 L;-inkscape-font-specification:Nimbus Roman No9 L"
             x="193.66174"
             y="110.79788"
             id="text12816"
             sodipodi:linespacing="125%"
             transform="scale(1.0023879,0.99761782)"><tspan
               sodipodi:role="line"
               id="tspan12818"
               x="193.66174"
               y="110.79788"
               style="font-size:30.45341873px">E<tspan
   style="font-size:19.79500198px;baseline-shift:sub"
   id="tspan12822">limit</tspan></tspan></text>
        </g>
      </g>
    </g>
  </g>
  <defs
     id="defs12105">
    <clipPath
       id="p7ff5b81e1d">
      <rect
         height="345.6"
         width="446.4"
         x="72.0"
         y="43.2"
         id="rect12108" />
    </clipPath>
  </defs>
  <path
     style="fill:none;stroke:#0c0000;stroke-width:0.63480669px;stroke-linecap:butt;stroke-linejoin:miter;stroke-opacity:1;marker-start:url(#Arrow1Lstart)"
     d="m 496.30178,274.47017 -22.06673,-0.063 -109.57613,-0.28571"
     id="path13344"
     inkscape:connector-curvature="0"
     sodipodi:nodetypes="ccc" />
  <text
     xml:space="preserve"
     style="font-size:20px;font-style:normal;font-variant:normal;font-weight:normal;font-stretch:normal;line-height:125%;letter-spacing:0px;word-spacing:0px;fill:#000000;fill-opacity:1;stroke:none;font-family:Nimbus Roman No9 L;-inkscape-font-specification:Nimbus Roman No9 L"
     x="456.81036"
     y="335.13275"
     id="text13974"
     sodipodi:linespacing="125%"
     transform="scale(0.8,0.8)"><tspan
       sodipodi:role="line"
       id="tspan13976"
       x="456.81036"
       y="335.13275" /></text>
  <text
     xml:space="preserve"
     style="font-size:32px;font-style:normal;font-variant:normal;font-weight:normal;font-stretch:normal;line-height:125%;letter-spacing:0px;word-spacing:0px;fill:#000000;fill-opacity:1;stroke:none;font-family:Nimbus Roman No9 L;-inkscape-font-specification:Nimbus Roman No9 L"
     x="364.05344"
     y="270.19849"
     id="text13978"
     sodipodi:linespacing="125%"><tspan
       sodipodi:role="line"
       id="tspan13980"
       x="364.05344"
       y="270.19849"
       style="font-size:16px">Collision instant</tspan></text>
</svg>
