<?xml version="1.0" encoding="UTF-8" standalone="no"?>
<!-- Created with matplotlib (http://matplotlib.org/) -->

<svg
   xmlns:dc="http://purl.org/dc/elements/1.1/"
   xmlns:cc="http://creativecommons.org/ns#"
   xmlns:rdf="http://www.w3.org/1999/02/22-rdf-syntax-ns#"
   xmlns:svg="http://www.w3.org/2000/svg"
   xmlns="http://www.w3.org/2000/svg"
   xmlns:xlink="http://www.w3.org/1999/xlink"
   xmlns:sodipodi="http://sodipodi.sourceforge.net/DTD/sodipodi-0.dtd"
   xmlns:inkscape="http://www.inkscape.org/namespaces/inkscape"
   height="432pt"
   version="1.1"
   viewBox="0 0 766 432"
   width="766pt"
   id="svg14056"
   inkscape:version="0.48.3.1 r9886"
   sodipodi:docname="Ke_wO_woEc.pdf">
  <metadata
     id="metadata14464">
    <rdf:RDF>
      <cc:Work
         rdf:about="">
        <dc:format>image/svg+xml</dc:format>
        <dc:type
           rdf:resource="http://purl.org/dc/dcmitype/StillImage" />
        <dc:title></dc:title>
      </cc:Work>
    </rdf:RDF>
  </metadata>
  <sodipodi:namedview
     pagecolor="#ffffff"
     bordercolor="#666666"
     borderopacity="1"
     objecttolerance="10"
     gridtolerance="10"
     guidetolerance="10"
     inkscape:pageopacity="0"
     inkscape:pageshadow="2"
     inkscape:window-width="1855"
     inkscape:window-height="1056"
     id="namedview14462"
     showgrid="false"
     inkscape:zoom="0.60992167"
     inkscape:cx="784.98793"
     inkscape:cy="212.10609"
     inkscape:window-x="65"
     inkscape:window-y="24"
     inkscape:window-maximized="1"
     inkscape:current-layer="figure_1" />
  <defs
     id="defs14058">
    <style
       type="text/css"
       id="style14060">
*{stroke-linecap:butt;stroke-linejoin:round;}
  </style>
  </defs>
  <g
     id="figure_1">
    <g
       id="axes_1">
      <g
         id="patch_2">
        <path
           d=" M95.85 388.8 L690.12 388.8 L690.12 43.2 L95.85 43.2 z "
           style="fill:#ffffff;"
           id="path14068" />
      </g>
      <g
         id="line2d_1">
        <path
           clip-path="url(#p9475b0980a)"
           d=" M95.85 216 L194.528 216.106 L196.362 216.373 L197.903 216.823 L199.224 217.43 L201.131 218.721 L204.653 222.257 L205.093 222.806 L207.661 225.695 L207.808 225.772 L209.495 227.337 L209.568 227.302 L209.715 227.494 L209.862 227.502 L210.962 228.081 L211.989 228.459 L212.063 228.367 L212.21 228.484 L212.723 228.492 L212.87 228.378 L213.017 228.465 L213.09 228.349 L213.237 228.43 L213.457 228.28 L214.704 227.883 L214.777 227.744 L214.851 227.799 L215.584 227.311 L215.731 227.105 L215.878 227.084 L216.025 226.964 L216.905 226.168 L217.125 225.951 L218.739 224.192 L219.033 223.852 L222.628 219.822 L224.242 218.383 L225.636 217.458 L226.516 217.008 L227.91 216.503 L229.231 216.218 L231.138 216.038 L234.513 215.997 L257.624 216.036 L263.346 216.239 L268.335 216.647 L278.973 217.617 L280.294 217.64 L281.248 217.639 L284.622 217.51 L285.65 217.427 L289.978 216.935 L292.106 216.655 L300.029 216.002 L303.771 215.856 L305.825 215.577 L307.806 215.067 L309.42 214.514 L310.888 213.747 L313.162 212.013 L313.896 211.29 L315.216 209.764 L317.784 205.781 L319.178 203.002 L322.26 195.172 L325.708 183.556 L326.148 181.719 L326.515 178.241 L326.662 177.883 L326.735 178.078 L326.808 180.549 L326.955 177.728 L329.009 168.653 L331.284 157.546 L339.134 118.602 L341.041 109.723 L341.188 104.435 L342.655 96.1868 L343.756 90.1676 L346.03 78.5347 L349.258 65.4157 L350.359 62.2725 L351.313 60.1908 L352.12 58.9559 L352.707 58.4277 L353.294 58.1247 L353.881 58.009 L354.101 58.1524 L354.688 58.4968 L355.275 58.9951 L355.421 59.1869 L355.861 59.8625 L356.155 60.529 L357.182 62.7529 L358.062 65.3604 L358.356 66.5148 L359.677 71.4015 L359.97 72.6578 L361.144 78.2847 L363.198 88.9154 L363.492 90.7534 L363.638 91.3939 L364.005 93.6783 L364.079 93.9139 L364.519 96.6516 L364.739 97.7576 L365.106 100.097 L365.252 100.788 L365.619 103.141 L365.766 103.844 L366.206 106.635 L367.087 111.758 L367.233 106.159 L367.38 113.477 L367.967 116.234 L370.168 127.063 L371.195 132.312 L376.184 157.13 L378.679 168.384 L382.053 181.603 L384.548 189.996 L385.648 193.198 L387.262 197.354 L388.069 199.213 L388.143 198.471 L388.29 199.861 L389.977 202.963 L391.591 205.493 L393.792 208.315 L395.406 209.975 L398.267 212.195 L400.028 213.176 L400.982 213.621 L402.89 214.311 L404.944 214.849 L407.732 215.317 L410.96 215.613 L413.601 215.672 L416.609 215.749 L418.663 215.735 L421.451 215.719 L428.054 215.842 L442.728 215.991 L480.218 215.994 L487.408 215.855 L492.323 215.534 L497.312 215.015 L503.769 214.392 L507.144 214.293 L514.554 214.848 L523.724 215.927 L527.099 216.011 L529.887 216.192 L532.162 216.557 L534.142 217.114 L535.757 217.792 L537.517 218.842 L538.911 219.953 L540.012 221.033 L541.699 223.11 L543.46 225.895 L544.487 227.834 L545.661 230.383 L545.734 230.065 L545.808 230.232 L546.321 232.099 L546.762 233.122 L547.055 233.435 L547.275 233.522 L548.816 237.892 L551.237 246.148 L553.731 256.008 L555.712 264.862 L558.353 278.157 L559.161 282.476 L560.848 292.034 L561.875 298.015 L569.872 344.874 L571.413 352.196 L573.247 359.306 L574.347 362.576 L575.301 364.741 L576.108 366.062 L576.182 366.062 L576.402 366.424 L576.989 366.955 L577.135 366.932 L577.209 367.088 L577.282 367.006 L578.016 367.265 L578.089 367.122 L578.162 367.245 L578.309 367.07 L578.383 367.044 L578.456 367.157 L578.529 366.982 L578.603 367.089 L579.043 366.792 L579.116 366.573 L579.19 366.661 L579.336 366.515 L579.556 366.103 L580.51 364.802 L581.024 362.5 L586.233 337.629 L586.306 345.895 L586.453 337.528 L587.847 334.835 L589.754 331.429 L590.855 329.871 L590.928 329.861 L591.295 329.022 L592.029 327.02 L592.762 324.249 L593.496 320.915 L593.863 319.231 L594.597 315.441 L595.11 312.784 L599.365 289.315 L600.759 281.931 L603.181 269.93 L606.775 254.537 L608.756 247.352 L610.444 241.795 L612.131 237.022 L613.745 233.097 L614.112 232.275 L614.186 232.312 L614.259 232.952 L614.406 232.052 L616.387 228.561 L618.001 226.187 L619.688 224.048 L620.422 223.258 L621.009 222.641 L621.596 222.081 L623.283 220.679 L624.897 219.599 L625.557 219.222 L627.318 218.393 L629.372 217.654 L631.573 217.118 L634.215 216.694 L645.293 216.199 L648.888 216.175 L690.047 216 L690.047 216"
           style="fill:none;stroke:#0000ff;stroke-linecap:square;stroke-width:2.0;"
           id="path14071" />
      </g>
      <g
         id="matplotlib.axis_1">
        <g
           id="xtick_1">
          <g
             id="line2d_2">
            <defs
               id="defs14076">
              <path
                 d=" M0 0 L0 -4"
                 id="m93b0483c22"
                 style="stroke:#000000;stroke-width:0.5;" />
            </defs>
            <g
               id="g14079">
              <use
                 style="stroke:#000000;stroke-width:0.5;"
                 x="95.85"
                 xlink:href="#m93b0483c22"
                 y="388.8"
                 id="use14081" />
            </g>
          </g>
          <g
             id="line2d_3">
            <defs
               id="defs14084">
              <path
                 d=" M0 0 L0 4"
                 id="m741efc42ff"
                 style="stroke:#000000;stroke-width:0.5;" />
            </defs>
            <g
               id="g14087">
              <use
                 style="stroke:#000000;stroke-width:0.5;"
                 x="95.85"
                 xlink:href="#m741efc42ff"
                 y="43.2"
                 id="use14089" />
            </g>
          </g>
          <g
             id="text_1">
            <!-- 0 -->
            <defs
               id="defs14092">
              <path
                 d=" M31.7812 66.4062 Q24.1719 66.4062 20.3281 58.9062 Q16.5 51.4219 16.5 36.375 Q16.5 21.3906 20.3281 13.8906 Q24.1719 6.39062 31.7812 6.39062 Q39.4531 6.39062 43.2812 13.8906 Q47.125 21.3906 47.125 36.375 Q47.125 51.4219 43.2812 58.9062 Q39.4531 66.4062 31.7812 66.4062 M31.7812 74.2188 Q44.0469 74.2188 50.5156 64.5156 Q56.9844 54.8281 56.9844 36.375 Q56.9844 17.9688 50.5156 8.26562 Q44.0469 -1.42188 31.7812 -1.42188 Q19.5312 -1.42188 13.0625 8.26562 Q6.59375 17.9688 6.59375 36.375 Q6.59375 54.8281 13.0625 64.5156 Q19.5312 74.2188 31.7812 74.2188"
                 id="BitstreamVeraSans-Roman-30" />
            </defs>
            <g
               transform="translate(92.8265625 401.918125)scale(0.12 -0.12)"
               id="g14095">
              <use
                 xlink:href="#BitstreamVeraSans-Roman-30"
                 id="use14097" />
            </g>
          </g>
        </g>
        <g
           id="xtick_2">
          <g
             id="line2d_4">
            <g
               id="g14101">
              <use
                 style="stroke:#000000;stroke-width:0.5;"
                 x="169.216666667"
                 xlink:href="#m93b0483c22"
                 y="388.8"
                 id="use14103" />
            </g>
          </g>
          <g
             id="line2d_5">
            <g
               id="g14106">
              <use
                 style="stroke:#000000;stroke-width:0.5;"
                 x="169.216666667"
                 xlink:href="#m741efc42ff"
                 y="43.2"
                 id="use14108" />
            </g>
          </g>
          <g
             id="text_2">
            <!-- 1 -->
            <defs
               id="defs14111">
              <path
                 d=" M12.4062 8.29688 L28.5156 8.29688 L28.5156 63.9219 L10.9844 60.4062 L10.9844 69.3906 L28.4219 72.9062 L38.2812 72.9062 L38.2812 8.29688 L54.3906 8.29688 L54.3906 0 L12.4062 0 z "
                 id="BitstreamVeraSans-Roman-31" />
            </defs>
            <g
               transform="translate(166.612291667 401.918125)scale(0.12 -0.12)"
               id="g14114">
              <use
                 xlink:href="#BitstreamVeraSans-Roman-31"
                 id="use14116" />
            </g>
          </g>
        </g>
        <g
           id="xtick_3">
          <g
             id="line2d_6">
            <g
               id="g14120">
              <use
                 style="stroke:#000000;stroke-width:0.5;"
                 x="242.583333333"
                 xlink:href="#m93b0483c22"
                 y="388.8"
                 id="use14122" />
            </g>
          </g>
          <g
             id="line2d_7">
            <g
               id="g14125">
              <use
                 style="stroke:#000000;stroke-width:0.5;"
                 x="242.583333333"
                 xlink:href="#m741efc42ff"
                 y="43.2"
                 id="use14127" />
            </g>
          </g>
          <g
             id="text_3">
            <!-- 2 -->
            <defs
               id="defs14130">
              <path
                 d=" M19.1875 8.29688 L53.6094 8.29688 L53.6094 0 L7.32812 0 L7.32812 8.29688 Q12.9375 14.1094 22.625 23.8906 Q32.3281 33.6875 34.8125 36.5312 Q39.5469 41.8438 41.4219 45.5312 Q43.3125 49.2188 43.3125 52.7812 Q43.3125 58.5938 39.2344 62.25 Q35.1562 65.9219 28.6094 65.9219 Q23.9688 65.9219 18.8125 64.3125 Q13.6719 62.7031 7.8125 59.4219 L7.8125 69.3906 Q13.7656 71.7812 18.9375 73 Q24.125 74.2188 28.4219 74.2188 Q39.75 74.2188 46.4844 68.5469 Q53.2188 62.8906 53.2188 53.4219 Q53.2188 48.9219 51.5312 44.8906 Q49.8594 40.875 45.4062 35.4062 Q44.1875 33.9844 37.6406 27.2188 Q31.1094 20.4531 19.1875 8.29688"
                 id="BitstreamVeraSans-Roman-32" />
            </defs>
            <g
               transform="translate(239.806458333 401.918125)scale(0.12 -0.12)"
               id="g14133">
              <use
                 xlink:href="#BitstreamVeraSans-Roman-32"
                 id="use14135" />
            </g>
          </g>
        </g>
        <g
           id="xtick_4">
          <g
             id="line2d_8">
            <g
               id="g14139">
              <use
                 style="stroke:#000000;stroke-width:0.5;"
                 x="315.95"
                 xlink:href="#m93b0483c22"
                 y="388.8"
                 id="use14141" />
            </g>
          </g>
          <g
             id="line2d_9">
            <g
               id="g14144">
              <use
                 style="stroke:#000000;stroke-width:0.5;"
                 x="315.95"
                 xlink:href="#m741efc42ff"
                 y="43.2"
                 id="use14146" />
            </g>
          </g>
          <g
             id="text_4">
            <!-- 3 -->
            <defs
               id="defs14149">
              <path
                 d=" M40.5781 39.3125 Q47.6562 37.7969 51.625 33 Q55.6094 28.2188 55.6094 21.1875 Q55.6094 10.4062 48.1875 4.48438 Q40.7656 -1.42188 27.0938 -1.42188 Q22.5156 -1.42188 17.6562 -0.515625 Q12.7969 0.390625 7.625 2.20312 L7.625 11.7188 Q11.7188 9.32812 16.5938 8.10938 Q21.4844 6.89062 26.8125 6.89062 Q36.0781 6.89062 40.9375 10.5469 Q45.7969 14.2031 45.7969 21.1875 Q45.7969 27.6406 41.2812 31.2656 Q36.7656 34.9062 28.7188 34.9062 L20.2188 34.9062 L20.2188 43.0156 L29.1094 43.0156 Q36.375 43.0156 40.2344 45.9219 Q44.0938 48.8281 44.0938 54.2969 Q44.0938 59.9062 40.1094 62.9062 Q36.1406 65.9219 28.7188 65.9219 Q24.6562 65.9219 20.0156 65.0312 Q15.375 64.1562 9.8125 62.3125 L9.8125 71.0938 Q15.4375 72.6562 20.3438 73.4375 Q25.25 74.2188 29.5938 74.2188 Q40.8281 74.2188 47.3594 69.1094 Q53.9062 64.0156 53.9062 55.3281 Q53.9062 49.2656 50.4375 45.0938 Q46.9688 40.9219 40.5781 39.3125"
                 id="BitstreamVeraSans-Roman-33" />
            </defs>
            <g
               transform="translate(313.0709375 401.918125)scale(0.12 -0.12)"
               id="g14152">
              <use
                 xlink:href="#BitstreamVeraSans-Roman-33"
                 id="use14154" />
            </g>
          </g>
        </g>
        <g
           id="xtick_5">
          <g
             id="line2d_10">
            <g
               id="g14158">
              <use
                 style="stroke:#000000;stroke-width:0.5;"
                 x="389.316666667"
                 xlink:href="#m93b0483c22"
                 y="388.8"
                 id="use14160" />
            </g>
          </g>
          <g
             id="line2d_11">
            <g
               id="g14163">
              <use
                 style="stroke:#000000;stroke-width:0.5;"
                 x="389.316666667"
                 xlink:href="#m741efc42ff"
                 y="43.2"
                 id="use14165" />
            </g>
          </g>
          <g
             id="text_5">
            <!-- 4 -->
            <defs
               id="defs14168">
              <path
                 d=" M37.7969 64.3125 L12.8906 25.3906 L37.7969 25.3906 z  M35.2031 72.9062 L47.6094 72.9062 L47.6094 25.3906 L58.0156 25.3906 L58.0156 17.1875 L47.6094 17.1875 L47.6094 0 L37.7969 0 L37.7969 17.1875 L4.89062 17.1875 L4.89062 26.7031 z "
                 id="BitstreamVeraSans-Roman-34" />
            </defs>
            <g
               transform="translate(386.129166667 401.918125)scale(0.12 -0.12)"
               id="g14171">
              <use
                 xlink:href="#BitstreamVeraSans-Roman-34"
                 id="use14173" />
            </g>
          </g>
        </g>
        <g
           id="xtick_6">
          <g
             id="line2d_12">
            <g
               id="g14177">
              <use
                 style="stroke:#000000;stroke-width:0.5;"
                 x="462.683333333"
                 xlink:href="#m93b0483c22"
                 y="388.8"
                 id="use14179" />
            </g>
          </g>
          <g
             id="line2d_13">
            <g
               id="g14182">
              <use
                 style="stroke:#000000;stroke-width:0.5;"
                 x="462.683333333"
                 xlink:href="#m741efc42ff"
                 y="43.2"
                 id="use14184" />
            </g>
          </g>
          <g
             id="text_6">
            <!-- 5 -->
            <defs
               id="defs14187">
              <path
                 d=" M10.7969 72.9062 L49.5156 72.9062 L49.5156 64.5938 L19.8281 64.5938 L19.8281 46.7344 Q21.9688 47.4688 24.1094 47.8281 Q26.2656 48.1875 28.4219 48.1875 Q40.625 48.1875 47.75 41.5 Q54.8906 34.8125 54.8906 23.3906 Q54.8906 11.625 47.5625 5.09375 Q40.2344 -1.42188 26.9062 -1.42188 Q22.3125 -1.42188 17.5469 -0.640625 Q12.7969 0.140625 7.71875 1.70312 L7.71875 11.625 Q12.1094 9.23438 16.7969 8.0625 Q21.4844 6.89062 26.7031 6.89062 Q35.1562 6.89062 40.0781 11.3281 Q45.0156 15.7656 45.0156 23.3906 Q45.0156 31 40.0781 35.4375 Q35.1562 39.8906 26.7031 39.8906 Q22.75 39.8906 18.8125 39.0156 Q14.8906 38.1406 10.7969 36.2812 z "
                 id="BitstreamVeraSans-Roman-35" />
            </defs>
            <g
               transform="translate(459.853020833 401.918125)scale(0.12 -0.12)"
               id="g14190">
              <use
                 xlink:href="#BitstreamVeraSans-Roman-35"
                 id="use14192" />
            </g>
          </g>
        </g>
        <g
           id="xtick_7">
          <g
             id="line2d_14">
            <g
               id="g14196">
              <use
                 style="stroke:#000000;stroke-width:0.5;"
                 x="536.05"
                 xlink:href="#m93b0483c22"
                 y="388.8"
                 id="use14198" />
            </g>
          </g>
          <g
             id="line2d_15">
            <g
               id="g14201">
              <use
                 style="stroke:#000000;stroke-width:0.5;"
                 x="536.05"
                 xlink:href="#m741efc42ff"
                 y="43.2"
                 id="use14203" />
            </g>
          </g>
          <g
             id="text_7">
            <!-- 6 -->
            <defs
               id="defs14206">
              <path
                 d=" M33.0156 40.375 Q26.375 40.375 22.4844 35.8281 Q18.6094 31.2969 18.6094 23.3906 Q18.6094 15.5312 22.4844 10.9531 Q26.375 6.39062 33.0156 6.39062 Q39.6562 6.39062 43.5312 10.9531 Q47.4062 15.5312 47.4062 23.3906 Q47.4062 31.2969 43.5312 35.8281 Q39.6562 40.375 33.0156 40.375 M52.5938 71.2969 L52.5938 62.3125 Q48.875 64.0625 45.0938 64.9844 Q41.3125 65.9219 37.5938 65.9219 Q27.8281 65.9219 22.6719 59.3281 Q17.5312 52.7344 16.7969 39.4062 Q19.6719 43.6562 24.0156 45.9219 Q28.375 48.1875 33.5938 48.1875 Q44.5781 48.1875 50.9531 41.5156 Q57.3281 34.8594 57.3281 23.3906 Q57.3281 12.1562 50.6875 5.35938 Q44.0469 -1.42188 33.0156 -1.42188 Q20.3594 -1.42188 13.6719 8.26562 Q6.98438 17.9688 6.98438 36.375 Q6.98438 53.6562 15.1875 63.9375 Q23.3906 74.2188 37.2031 74.2188 Q40.9219 74.2188 44.7031 73.4844 Q48.4844 72.75 52.5938 71.2969"
                 id="BitstreamVeraSans-Roman-36" />
            </defs>
            <g
               transform="translate(533.029375 401.918125)scale(0.12 -0.12)"
               id="g14209">
              <use
                 xlink:href="#BitstreamVeraSans-Roman-36"
                 id="use14211" />
            </g>
          </g>
        </g>
        <g
           id="xtick_8">
          <g
             id="line2d_16">
            <g
               id="g14215">
              <use
                 style="stroke:#000000;stroke-width:0.5;"
                 x="609.416666667"
                 xlink:href="#m93b0483c22"
                 y="388.8"
                 id="use14217" />
            </g>
          </g>
          <g
             id="line2d_17">
            <g
               id="g14220">
              <use
                 style="stroke:#000000;stroke-width:0.5;"
                 x="609.416666667"
                 xlink:href="#m741efc42ff"
                 y="43.2"
                 id="use14222" />
            </g>
          </g>
          <g
             id="text_8">
            <!-- 7 -->
            <defs
               id="defs14225">
              <path
                 d=" M8.20312 72.9062 L55.0781 72.9062 L55.0781 68.7031 L28.6094 0 L18.3125 0 L43.2188 64.5938 L8.20312 64.5938 z "
                 id="BitstreamVeraSans-Roman-37" />
            </defs>
            <g
               transform="translate(606.604166667 401.918125)scale(0.12 -0.12)"
               id="g14228">
              <use
                 xlink:href="#BitstreamVeraSans-Roman-37"
                 id="use14230" />
            </g>
          </g>
        </g>
        <g
           id="xtick_9">
          <g
             id="line2d_18">
            <g
               id="g14234">
              <use
                 style="stroke:#000000;stroke-width:0.5;"
                 x="682.783333333"
                 xlink:href="#m93b0483c22"
                 y="388.8"
                 id="use14236" />
            </g>
          </g>
          <g
             id="line2d_19">
            <g
               id="g14239">
              <use
                 style="stroke:#000000;stroke-width:0.5;"
                 x="682.783333333"
                 xlink:href="#m741efc42ff"
                 y="43.2"
                 id="use14241" />
            </g>
          </g>
          <g
             id="text_9">
            <!-- 8 -->
            <defs
               id="defs14244">
              <path
                 d=" M31.7812 34.625 Q24.75 34.625 20.7188 30.8594 Q16.7031 27.0938 16.7031 20.5156 Q16.7031 13.9219 20.7188 10.1562 Q24.75 6.39062 31.7812 6.39062 Q38.8125 6.39062 42.8594 10.1719 Q46.9219 13.9688 46.9219 20.5156 Q46.9219 27.0938 42.8906 30.8594 Q38.875 34.625 31.7812 34.625 M21.9219 38.8125 Q15.5781 40.375 12.0312 44.7188 Q8.5 49.0781 8.5 55.3281 Q8.5 64.0625 14.7188 69.1406 Q20.9531 74.2188 31.7812 74.2188 Q42.6719 74.2188 48.875 69.1406 Q55.0781 64.0625 55.0781 55.3281 Q55.0781 49.0781 51.5312 44.7188 Q48 40.375 41.7031 38.8125 Q48.8281 37.1562 52.7969 32.3125 Q56.7812 27.4844 56.7812 20.5156 Q56.7812 9.90625 50.3125 4.23438 Q43.8438 -1.42188 31.7812 -1.42188 Q19.7344 -1.42188 13.25 4.23438 Q6.78125 9.90625 6.78125 20.5156 Q6.78125 27.4844 10.7812 32.3125 Q14.7969 37.1562 21.9219 38.8125 M18.3125 54.3906 Q18.3125 48.7344 21.8438 45.5625 Q25.3906 42.3906 31.7812 42.3906 Q38.1406 42.3906 41.7188 45.5625 Q45.3125 48.7344 45.3125 54.3906 Q45.3125 60.0625 41.7188 63.2344 Q38.1406 66.4062 31.7812 66.4062 Q25.3906 66.4062 21.8438 63.2344 Q18.3125 60.0625 18.3125 54.3906"
                 id="BitstreamVeraSans-Roman-38" />
            </defs>
            <g
               transform="translate(679.783333333 401.918125)scale(0.12 -0.12)"
               id="g14247">
              <use
                 xlink:href="#BitstreamVeraSans-Roman-38"
                 id="use14249" />
            </g>
          </g>
        </g>
        <g
           id="text_10">
          <!-- $time (s)$ -->
          <defs
             id="defs14252">
            <path
               d=" M7.71875 1.70312 Q7.71875 2.29688 7.8125 2.59375 L15.2812 32.4219 Q16.0156 35.2031 16.0156 37.3125 Q16.0156 41.6094 13.0938 41.6094 Q9.96875 41.6094 8.45312 37.8594 Q6.9375 34.125 5.51562 28.4219 Q5.51562 28.125 5.21875 27.9531 Q4.9375 27.7812 4.6875 27.7812 L3.51562 27.7812 Q3.17188 27.7812 2.92188 28.1406 Q2.6875 28.5156 2.6875 28.8125 Q3.76562 33.1562 4.76562 36.1719 Q5.76562 39.2031 7.89062 41.6875 Q10.0156 44.1875 13.1875 44.1875 Q16.9375 44.1875 19.8125 41.8125 Q22.7031 39.4531 22.7031 35.7969 Q25.6875 39.7031 29.6875 41.9375 Q33.6875 44.1875 38.1875 44.1875 Q42.9219 44.1875 46.3594 41.7656 Q49.8125 39.3594 49.8125 34.9062 Q52.875 39.2656 57 41.7188 Q61.1406 44.1875 66.0156 44.1875 Q71.1875 44.1875 74.3281 41.375 Q77.4844 38.5781 77.4844 33.4062 Q77.4844 29.2969 75.6562 23.4844 Q73.8281 17.6719 71.0938 10.5 Q69.6719 7.03125 69.6719 4.5 Q69.6719 1.51562 72.0156 1.51562 Q75.9219 1.51562 78.5156 5.70312 Q81.1094 9.90625 82.1719 14.7031 Q82.4688 15.2812 83.0156 15.2812 L84.1875 15.2812 Q84.5781 15.2812 84.8438 15.0156 Q85.1094 14.75 85.1094 14.4062 Q85.1094 14.3125 85.0156 14.1094 Q83.6406 8.45312 80.25 3.65625 Q76.8594 -1.125 71.7812 -1.125 Q68.2656 -1.125 65.7656 1.29688 Q63.2812 3.71875 63.2812 7.17188 Q63.2812 8.9375 64.1094 11.0781 Q66.9375 18.6094 68.8125 24.5156 Q70.7031 30.4219 70.7031 34.9062 Q70.7031 37.7031 69.5781 39.6562 Q68.4531 41.6094 65.8281 41.6094 Q60.3594 41.6094 56.3438 38.25 Q52.3438 34.9062 49.4219 29.3906 Q49.2188 28.4219 49.125 27.875 L42.6719 2.20312 Q42.3281 0.828125 41.125 -0.140625 Q39.9375 -1.125 38.4844 -1.125 Q37.3125 -1.125 36.4062 -0.34375 Q35.5 0.4375 35.5 1.70312 Q35.5 2.29688 35.5938 2.59375 L42 28.0781 Q43.0156 32.1719 43.0156 34.9062 Q43.0156 37.7031 41.8594 39.6562 Q40.7188 41.6094 37.9844 41.6094 Q34.3281 41.6094 31.25 39.9844 Q28.1719 38.375 25.875 35.7188 Q23.5781 33.0625 21.6875 29.3906 L14.8906 2.20312 Q14.5469 0.828125 13.3438 -0.140625 Q12.1562 -1.125 10.6875 -1.125 Q9.46875 -1.125 8.59375 -0.34375 Q7.71875 0.4375 7.71875 1.70312"
               id="Cmmi10-6d" />
            <path
               d=" M31 -24.8125 Q25.4375 -20.4062 21.4062 -14.7188 Q17.3906 -9.03125 14.8125 -2.57812 Q12.25 3.85938 10.9844 10.8906 Q9.71875 17.9219 9.71875 25 Q9.71875 32.1719 10.9844 39.2031 Q12.25 46.2344 14.8594 52.7344 Q17.4844 59.2344 21.5312 64.8906 Q25.5938 70.5625 31 74.8125 Q31 75 31.5 75 L32.4219 75 Q32.7188 75 32.9531 74.7344 Q33.2031 74.4688 33.2031 74.125 Q33.2031 73.6875 33.0156 73.4844 Q28.125 68.7031 24.875 63.2344 Q21.625 57.7656 19.6406 51.5781 Q17.6719 45.4062 16.7969 38.7812 Q15.9219 32.1719 15.9219 25 Q15.9219 -6.78125 32.9062 -23.2969 Q33.2031 -23.5781 33.2031 -24.125 Q33.2031 -24.3594 32.9375 -24.6719 Q32.6719 -25 32.4219 -25 L31.5 -25 Q31 -25 31 -24.8125"
               id="Cmr10-28" />
            <path
               d=" M6.5 -25 Q5.60938 -25 5.60938 -24.125 Q5.60938 -23.6875 5.8125 -23.4844 Q22.9062 -6.78125 22.9062 25 Q22.9062 56.7812 6 73.2969 Q5.60938 73.5312 5.60938 74.125 Q5.60938 74.4688 5.875 74.7344 Q6.15625 75 6.5 75 L7.42188 75 Q7.71875 75 7.90625 74.8125 Q15.0938 69.1406 19.875 61.0312 Q24.6562 52.9375 26.875 43.75 Q29.1094 34.5781 29.1094 25 Q29.1094 17.9219 27.9062 11.0625 Q26.7031 4.20312 24.0938 -2.45312 Q21.4844 -9.125 17.4844 -14.7656 Q13.4844 -20.4062 7.90625 -24.8125 Q7.71875 -25 7.42188 -25 z "
               id="Cmr10-29" />
            <path
               d=" M8.6875 6.10938 Q11.375 1.51562 19.4844 1.51562 Q23 1.51562 26.1719 2.70312 Q29.3438 3.90625 31.4219 6.29688 Q33.5 8.6875 33.5 12.1094 Q33.5 14.7031 31.6406 16.3594 Q29.7812 18.0156 27.0938 18.6094 L21.6875 19.6719 Q17.9688 20.6094 15.5781 23.1406 Q13.1875 25.6875 13.1875 29.2969 Q13.1875 33.7344 15.5938 37.1562 Q18.0156 40.5781 21.9688 42.375 Q25.9219 44.1875 30.1719 44.1875 Q34.7188 44.1875 38.2969 42.0156 Q41.8906 39.8438 41.8906 35.5938 Q41.8906 33.2969 40.5938 31.5312 Q39.3125 29.7812 37.0156 29.7812 Q35.6875 29.7812 34.7344 30.6406 Q33.7969 31.5 33.7969 32.8125 Q33.7969 33.9844 34.4531 35.0781 Q35.1094 36.1875 36.2031 36.8438 Q37.3125 37.5 38.4844 37.5 Q37.5938 39.6562 35.1719 40.625 Q32.7656 41.6094 29.9844 41.6094 Q27.4375 41.6094 24.8906 40.5781 Q22.3594 39.5469 20.8125 37.5625 Q19.2812 35.5938 19.2812 32.9062 Q19.2812 31.1094 20.5469 29.7344 Q21.8281 28.375 23.6875 27.7812 L29.5 26.6094 Q32.2812 26.0312 34.5938 24.5312 Q36.9219 23.0469 38.25 20.7656 Q39.5938 18.5 39.5938 15.5781 Q39.5938 11.8594 37.5156 8.25 Q35.4531 4.64062 32.4219 2.48438 Q27.0938 -1.125 19.3906 -1.125 Q14.0625 -1.125 9.60938 1.3125 Q5.17188 3.76562 5.17188 8.59375 Q5.17188 11.3281 6.75 13.3438 Q8.34375 15.375 11.0781 15.375 Q12.7031 15.375 13.7969 14.3906 Q14.8906 13.4219 14.8906 11.8125 Q14.8906 9.51562 13.1719 7.8125 Q11.4688 6.10938 9.1875 6.10938 z "
               id="Cmmi10-73" />
            <path
               d=" M20.125 -1.125 Q15.3281 -1.125 11.7344 1.35938 Q8.15625 3.85938 6.26562 8.07812 Q4.39062 12.3125 4.39062 17 Q4.39062 24.125 7.98438 30.3906 Q11.5781 36.6719 17.7188 40.4219 Q23.875 44.1875 30.9062 44.1875 Q35.2031 44.1875 38.4062 41.9688 Q41.6094 39.75 41.6094 35.5938 Q41.6094 29.8281 37.0156 27.0156 Q32.4219 24.2188 26.6562 23.5625 Q20.9062 22.9062 13.9219 22.9062 L13.625 22.9062 Q12.0156 16.9375 12.0156 12.7031 Q12.0156 8.25 14.0625 4.875 Q16.1094 1.51562 20.3125 1.51562 Q26.2656 1.51562 31.75 4.25 Q37.25 6.98438 40.7188 11.8125 Q41.0156 12.1094 41.5 12.1094 Q42 12.1094 42.5 11.5469 Q43.0156 10.9844 43.0156 10.5 Q43.0156 10.1094 42.8281 9.90625 Q39.1562 4.78125 32.9531 1.82812 Q26.7656 -1.125 20.125 -1.125 M14.2031 25.4844 Q20.0156 25.4844 24.9531 26.0156 Q29.8906 26.5625 33.8906 28.7344 Q37.8906 30.9062 37.8906 35.5 Q37.8906 37.3594 36.8594 38.75 Q35.8438 40.1406 34.2031 40.875 Q32.5625 41.6094 30.8125 41.6094 Q26.5625 41.6094 23.1719 39.3125 Q19.7812 37.0156 17.5781 33.3281 Q15.375 29.6406 14.2031 25.4844"
               id="Cmmi10-65" />
            <path
               d=" M6.20312 8.10938 Q6.20312 9.57812 6.5 10.8906 L13.7188 39.5938 L3.21875 39.5938 Q2.20312 39.5938 2.20312 40.9219 Q2.59375 43.1094 3.51562 43.1094 L14.5938 43.1094 L18.6094 59.4219 Q19 60.75 20.1719 61.6719 Q21.3438 62.5938 22.7969 62.5938 Q24.0781 62.5938 24.9219 61.8281 Q25.7812 61.0781 25.7812 59.8125 Q25.7812 59.5156 25.75 59.3438 Q25.7344 59.1875 25.6875 58.9844 L21.6875 43.1094 L31.9844 43.1094 Q33.0156 43.1094 33.0156 41.7969 Q32.9531 41.5469 32.8125 40.9531 Q32.6719 40.375 32.4219 39.9844 Q32.1719 39.5938 31.6875 39.5938 L20.7969 39.5938 L13.625 10.6875 Q12.8906 7.85938 12.8906 5.8125 Q12.8906 1.51562 15.8281 1.51562 Q20.2188 1.51562 23.6094 5.64062 Q27 9.76562 28.8125 14.7031 Q29.2031 15.2812 29.5938 15.2812 L30.8125 15.2812 Q31.2031 15.2812 31.4375 15.0156 Q31.6875 14.75 31.6875 14.4062 Q31.6875 14.2031 31.5938 14.1094 Q29.3906 8.0625 25.1875 3.46875 Q21 -1.125 15.5781 -1.125 Q11.625 -1.125 8.90625 1.45312 Q6.20312 4.04688 6.20312 8.10938"
               id="Cmmi10-74" />
            <path
               d=" M7.8125 7.17188 Q7.8125 9.03125 8.59375 11.0781 L16.7031 32.625 Q18.0156 36.2812 18.0156 38.625 Q18.0156 41.6094 15.8281 41.6094 Q11.8594 41.6094 9.29688 37.5312 Q6.73438 33.4531 5.51562 28.4219 Q5.32812 27.7812 4.6875 27.7812 L3.51562 27.7812 Q2.6875 27.7812 2.6875 28.7188 L2.6875 29 Q4.29688 34.9688 7.60938 39.5781 Q10.9375 44.1875 16.0156 44.1875 Q19.5781 44.1875 22.0469 41.8438 Q24.5156 39.5 24.5156 35.8906 Q24.5156 34.0312 23.6875 31.9844 L15.5781 10.5 Q14.2031 7.17188 14.2031 4.5 Q14.2031 1.51562 16.5 1.51562 Q20.4062 1.51562 23.0156 5.6875 Q25.6406 9.85938 26.7031 14.7031 Q26.9062 15.2812 27.4844 15.2812 L28.7188 15.2812 Q29.1094 15.2812 29.3438 15.0156 Q29.5938 14.75 29.5938 14.4062 Q29.5938 14.3125 29.5 14.1094 Q28.125 8.45312 24.7344 3.65625 Q21.3438 -1.125 16.3125 -1.125 Q12.7969 -1.125 10.2969 1.29688 Q7.8125 3.71875 7.8125 7.17188 M19.0938 60.5938 Q19.0938 62.7031 20.8438 64.4062 Q22.6094 66.1094 24.7031 66.1094 Q26.4219 66.1094 27.5156 65.0625 Q28.6094 64.0156 28.6094 62.4062 Q28.6094 60.1562 26.8281 58.4688 Q25.0469 56.7812 22.9062 56.7812 Q21.2969 56.7812 20.1875 57.875 Q19.0938 58.9844 19.0938 60.5938"
               id="Cmmi10-69" />
          </defs>
          <g
             transform="translate(359.985 424.41375)scale(0.2 -0.2)"
             id="g14261">
            <use
               xlink:href="#Cmmi10-74"
               id="use14263" />
            <use
               transform="translate(36.083984375 0.0)"
               xlink:href="#Cmmi10-69"
               id="use14265" />
            <use
               transform="translate(70.5078125 0.0)"
               xlink:href="#Cmmi10-6d"
               id="use14267" />
            <use
               transform="translate(158.30078125 0.0)"
               xlink:href="#Cmmi10-65"
               id="use14269" />
            <use
               transform="translate(204.78515625 0.0)"
               xlink:href="#Cmr10-28"
               id="use14271" />
            <use
               transform="translate(243.603515625 0.0)"
               xlink:href="#Cmmi10-73"
               id="use14273" />
            <use
               transform="translate(290.380859375 0.0)"
               xlink:href="#Cmr10-29"
               id="use14275" />
          </g>
        </g>
      </g>
      <g
         id="matplotlib.axis_2">
        <g
           id="ytick_1">
          <g
             id="text_11">
            <!-- −0.3 -->
            <defs
               id="defs14280">
              <path
                 d=" M10.5938 35.5 L73.1875 35.5 L73.1875 27.2031 L10.5938 27.2031 z "
                 id="BitstreamVeraSans-Roman-2212" />
              <path
                 d=" M10.6875 12.4062 L21 12.4062 L21 0 L10.6875 0 z "
                 id="BitstreamVeraSans-Roman-2e" />
            </defs>
            <g
               transform="translate(64.94375 392.11125)scale(0.12 -0.12)"
               id="g14284">
              <use
                 xlink:href="#BitstreamVeraSans-Roman-2212"
                 id="use14286" />
              <use
                 x="83.7890625"
                 xlink:href="#BitstreamVeraSans-Roman-30"
                 id="use14288" />
              <use
                 x="147.412109375"
                 xlink:href="#BitstreamVeraSans-Roman-2e"
                 id="use14290" />
              <use
                 x="179.19921875"
                 xlink:href="#BitstreamVeraSans-Roman-33"
                 id="use14292" />
            </g>
          </g>
        </g>
        <g
           id="ytick_2">
          <g
             id="line2d_20">
            <defs
               id="defs14296">
              <path
                 d=" M0 0 L4 0"
                 id="m728421d6d4"
                 style="stroke:#000000;stroke-width:0.5;" />
            </defs>
            <g
               id="g14299">
              <use
                 style="stroke:#000000;stroke-width:0.5;"
                 x="95.85"
                 xlink:href="#m728421d6d4"
                 y="331.2"
                 id="use14301" />
            </g>
          </g>
          <g
             id="line2d_21">
            <defs
               id="defs14304">
              <path
                 d=" M0 0 L-4 0"
                 id="mcb0005524f"
                 style="stroke:#000000;stroke-width:0.5;" />
            </defs>
            <g
               id="g14307">
              <use
                 style="stroke:#000000;stroke-width:0.5;"
                 x="690.12"
                 xlink:href="#mcb0005524f"
                 y="331.2"
                 id="use14309" />
            </g>
          </g>
          <g
             id="text_12">
            <!-- −0.2 -->
            <g
               transform="translate(65.18375 334.51125)scale(0.12 -0.12)"
               id="g14312">
              <use
                 xlink:href="#BitstreamVeraSans-Roman-2212"
                 id="use14314" />
              <use
                 x="83.7890625"
                 xlink:href="#BitstreamVeraSans-Roman-30"
                 id="use14316" />
              <use
                 x="147.412109375"
                 xlink:href="#BitstreamVeraSans-Roman-2e"
                 id="use14318" />
              <use
                 x="179.19921875"
                 xlink:href="#BitstreamVeraSans-Roman-32"
                 id="use14320" />
            </g>
          </g>
        </g>
        <g
           id="ytick_3">
          <g
             id="line2d_22">
            <g
               id="g14324">
              <use
                 style="stroke:#000000;stroke-width:0.5;"
                 x="95.85"
                 xlink:href="#m728421d6d4"
                 y="273.6"
                 id="use14326" />
            </g>
          </g>
          <g
             id="line2d_23">
            <g
               id="g14329">
              <use
                 style="stroke:#000000;stroke-width:0.5;"
                 x="690.12"
                 xlink:href="#mcb0005524f"
                 y="273.6"
                 id="use14331" />
            </g>
          </g>
          <g
             id="text_13">
            <!-- −0.1 -->
            <g
               transform="translate(65.09 276.91125)scale(0.12 -0.12)"
               id="g14334">
              <use
                 xlink:href="#BitstreamVeraSans-Roman-2212"
                 id="use14336" />
              <use
                 x="83.7890625"
                 xlink:href="#BitstreamVeraSans-Roman-30"
                 id="use14338" />
              <use
                 x="147.412109375"
                 xlink:href="#BitstreamVeraSans-Roman-2e"
                 id="use14340" />
              <use
                 x="179.19921875"
                 xlink:href="#BitstreamVeraSans-Roman-31"
                 id="use14342" />
            </g>
          </g>
        </g>
        <g
           id="ytick_4">
          <g
             id="line2d_24">
            <g
               id="g14346">
              <use
                 style="stroke:#000000;stroke-width:0.5;"
                 x="95.85"
                 xlink:href="#m728421d6d4"
                 y="216.0"
                 id="use14348" />
            </g>
          </g>
          <g
             id="line2d_25">
            <g
               id="g14351">
              <use
                 style="stroke:#000000;stroke-width:0.5;"
                 x="690.12"
                 xlink:href="#mcb0005524f"
                 y="216.0"
                 id="use14353" />
            </g>
          </g>
          <g
             id="text_14">
            <!-- 0.0 -->
            <g
               transform="translate(74.354375 219.31125)scale(0.12 -0.12)"
               id="g14356">
              <use
                 xlink:href="#BitstreamVeraSans-Roman-30"
                 id="use14358" />
              <use
                 x="63.623046875"
                 xlink:href="#BitstreamVeraSans-Roman-2e"
                 id="use14360" />
              <use
                 x="95.41015625"
                 xlink:href="#BitstreamVeraSans-Roman-30"
                 id="use14362" />
            </g>
          </g>
        </g>
        <g
           id="ytick_5">
          <g
             id="line2d_26">
            <g
               id="g14366">
              <use
                 style="stroke:#000000;stroke-width:0.5;"
                 x="95.85"
                 xlink:href="#m728421d6d4"
                 y="158.4"
                 id="use14368" />
            </g>
          </g>
          <g
             id="line2d_27">
            <g
               id="g14371">
              <use
                 style="stroke:#000000;stroke-width:0.5;"
                 x="690.12"
                 xlink:href="#mcb0005524f"
                 y="158.4"
                 id="use14373" />
            </g>
          </g>
          <g
             id="text_15">
            <!-- 0.1 -->
            <g
               transform="translate(74.665625 161.71125)scale(0.12 -0.12)"
               id="g14376">
              <use
                 xlink:href="#BitstreamVeraSans-Roman-30"
                 id="use14378" />
              <use
                 x="63.623046875"
                 xlink:href="#BitstreamVeraSans-Roman-2e"
                 id="use14380" />
              <use
                 x="95.41015625"
                 xlink:href="#BitstreamVeraSans-Roman-31"
                 id="use14382" />
            </g>
          </g>
        </g>
        <g
           id="ytick_6">
          <g
             id="line2d_28">
            <g
               id="g14386">
              <use
                 style="stroke:#000000;stroke-width:0.5;"
                 x="95.85"
                 xlink:href="#m728421d6d4"
                 y="100.8"
                 id="use14388" />
            </g>
          </g>
          <g
             id="line2d_29">
            <g
               id="g14391">
              <use
                 style="stroke:#000000;stroke-width:0.5;"
                 x="690.12"
                 xlink:href="#mcb0005524f"
                 y="100.8"
                 id="use14393" />
            </g>
          </g>
          <g
             id="text_16">
            <!-- 0.2 -->
            <g
               transform="translate(74.759375 104.11125)scale(0.12 -0.12)"
               id="g14396">
              <use
                 xlink:href="#BitstreamVeraSans-Roman-30"
                 id="use14398" />
              <use
                 x="63.623046875"
                 xlink:href="#BitstreamVeraSans-Roman-2e"
                 id="use14400" />
              <use
                 x="95.41015625"
                 xlink:href="#BitstreamVeraSans-Roman-32"
                 id="use14402" />
            </g>
          </g>
        </g>
        <g
           id="ytick_7">
          <g
             id="text_17">
            <!-- 0.3 -->
            <g
               transform="translate(74.519375 46.51125)scale(0.12 -0.12)"
               id="g14406">
              <use
                 xlink:href="#BitstreamVeraSans-Roman-30"
                 id="use14408" />
              <use
                 x="63.623046875"
                 xlink:href="#BitstreamVeraSans-Roman-2e"
                 id="use14410" />
              <use
                 x="95.41015625"
                 xlink:href="#BitstreamVeraSans-Roman-33"
                 id="use14412" />
            </g>
          </g>
        </g>
        <g
           id="text_18">
          <!-- $E_7 (Joules)$ -->
          <defs
             id="defs14415">
            <path
               d=" M4.39062 8.10938 Q4.39062 8.40625 4.46875 8.98438 Q4.54688 9.57812 4.60938 10.125 Q4.6875 10.6875 4.6875 10.9844 L17.0938 60.5 Q17.4844 62.2031 17.5781 63.1875 Q17.5781 64.7969 11.0781 64.7969 Q10.1094 64.7969 10.1094 66.1094 Q10.1562 66.3594 10.3281 66.9844 Q10.5 67.625 10.7656 67.9688 Q11.0312 68.3125 11.5312 68.3125 L25 69.3906 Q26.2188 69.3906 26.2188 68.1094 L11.8125 10.5938 Q11.0781 8.98438 11.0781 5.8125 Q11.0781 1.51562 14.0156 1.51562 Q17.0938 1.51562 18.625 5.34375 Q20.1719 9.1875 21.3906 14.7031 Q21.5781 15.2812 22.2188 15.2812 L23.3906 15.2812 Q23.7812 15.2812 24.0469 14.9688 Q24.3125 14.6562 24.3125 14.3125 Q23.1406 9.46875 22.1875 6.65625 Q21.2344 3.85938 19.1406 1.35938 Q17.0469 -1.125 13.8125 -1.125 Q9.8125 -1.125 7.09375 1.45312 Q4.39062 4.04688 4.39062 8.10938"
               id="Cmmi10-6c" />
            <path
               d=" M17.3906 2.59375 Q17.3906 8.15625 18.3594 13.4688 Q19.3438 18.7969 21.2188 24 Q23.0938 29.2031 25.75 34.2031 Q28.4219 39.2031 31.5938 43.6094 L40.7188 56.2969 L29.2969 56.2969 Q11.5312 56.2969 10.9844 55.8125 Q9.67188 54.2031 8.5 46.5781 L5.60938 46.5781 L8.89062 67.5781 L11.8125 67.5781 L11.8125 67.2812 Q11.8125 65.4844 17.9219 64.9375 Q24.0312 64.4062 29.8906 64.4062 L48.4844 64.4062 L48.4844 61.8125 Q48.4844 61.7188 48.4531 61.6719 Q48.4375 61.625 48.3906 61.5312 L34.625 42.1875 Q29.5469 34.6719 28.2656 25.4844 Q27 16.3125 27 2.59375 Q27 0.640625 25.5781 -0.78125 Q24.1719 -2.20312 22.2188 -2.20312 Q20.2188 -2.20312 18.7969 -0.78125 Q17.3906 0.640625 17.3906 2.59375"
               id="Cmr10-37" />
            <path
               d=" M10.8906 6 Q11.8594 3.21875 14.5 1.79688 Q17.1406 0.390625 20.2188 0.390625 Q23.3438 0.390625 26.25 2.5625 Q29.1562 4.73438 31.1719 8 Q33.2031 11.2812 33.9844 14.5 L45.7969 61.8125 Q45.9062 62.2031 45.9219 62.3906 Q45.9531 62.5938 46 62.7969 Q46 63.875 45.2188 64.1094 Q42.5781 64.7969 34.5156 64.7969 Q33.5 64.7969 33.5 66.1094 Q33.6875 66.8906 33.8125 67.3281 Q33.9375 67.7812 34.25 68.0469 Q34.5781 68.3125 35.2031 68.3125 L62.3125 68.3125 Q63.2812 68.3125 63.2812 67 Q62.8906 64.7969 62.0156 64.7969 Q58.5 64.7969 56.6875 64.25 Q54.8906 63.7188 54.2031 61.375 L42.3906 14.1094 Q41.2656 9.46875 37.8125 5.73438 Q34.375 2 29.6406 -0.09375 Q24.9062 -2.20312 20.125 -2.20312 Q14.8438 -2.20312 10.8594 0.71875 Q6.89062 3.65625 6.89062 8.6875 Q6.89062 12.0156 8.6875 14.4062 Q10.5 16.7969 13.8125 16.7969 Q15.7188 16.7969 17.0156 15.625 Q18.3125 14.4531 18.3125 12.5938 Q18.3125 9.90625 16.3125 7.90625 Q14.3125 5.90625 11.625 5.90625 Q11.0781 5.90625 10.8906 6"
               id="Cmmi10-4a" />
            <path
               d=" M20.125 -1.125 Q15.375 -1.125 11.6875 1.125 Q8.01562 3.375 6 7.17188 Q4 10.9844 4 15.8281 Q4 22.6094 7.78125 29.25 Q11.5781 35.8906 17.8438 40.0312 Q24.125 44.1875 31 44.1875 Q34.7188 44.1875 37.625 42.9219 Q40.5312 41.6562 42.6719 39.3594 Q44.8281 37.0625 45.9688 33.9844 Q47.125 30.9062 47.125 27.2969 Q47.125 22.0781 44.9219 17.0156 Q42.7188 11.9688 38.8906 7.84375 Q35.0625 3.71875 30.125 1.29688 Q25.2031 -1.125 20.125 -1.125 M20.3125 1.51562 Q24.75 1.51562 28.4375 4.53125 Q32.125 7.5625 34.4844 12.1719 Q36.8594 16.7969 38.125 21.9219 Q39.4062 27.0469 39.4062 31.2031 Q39.4062 35.5469 37.2344 38.5781 Q35.0625 41.6094 30.8125 41.6094 Q24.9531 41.6094 20.5469 36.5938 Q16.1562 31.5938 13.9375 24.625 Q11.7188 17.6719 11.7188 11.9219 Q11.7188 7.5625 13.9375 4.53125 Q16.1562 1.51562 20.3125 1.51562"
               id="Cmmi10-6f" />
            <path
               d=" M4.6875 0 Q3.71875 0 3.71875 1.3125 Q3.76562 1.5625 3.90625 2.17188 Q4.04688 2.78125 4.3125 3.14062 Q4.59375 3.51562 4.98438 3.51562 Q11.0781 3.51562 13.4844 4.20312 Q14.7969 4.64062 15.375 6.89062 L29.1094 61.8125 Q29.2969 62.7969 29.2969 63.1875 Q29.2969 64.2656 28.0781 64.4062 Q26.2188 64.7969 20.9062 64.7969 Q19.9219 64.7969 19.9219 66.1094 Q19.9688 66.3594 20.1094 66.9688 Q20.2656 67.5781 20.5312 67.9375 Q20.7969 68.3125 21.1875 68.3125 L75.3906 68.3125 Q76.4219 68.3125 76.4219 67 L74.0312 46.2969 Q74.0312 46.0469 73.6562 45.7188 Q73.2969 45.4062 73 45.4062 L72.125 45.4062 Q71.0938 45.4062 71.0938 46.6875 Q71.6875 51.5625 71.6875 53.9062 Q71.6875 57.9062 70.3125 60.125 Q68.9531 62.3594 66.6719 63.3281 Q64.4062 64.3125 61.6406 64.5469 Q58.8906 64.7969 54.3906 64.7969 L43.0156 64.7969 Q40.2812 64.7969 39.4062 64.3281 Q38.5312 63.875 37.7969 61.375 L31.7812 37.2031 L39.5938 37.2031 Q44.6719 37.2031 47.2656 37.9062 Q49.8594 38.625 51.3594 40.8594 Q52.875 43.1094 54.1094 48 Q54.2031 48.3438 54.4688 48.6094 Q54.7344 48.875 55.0781 48.875 L56 48.875 Q56.9844 48.875 56.9844 47.6094 L50.7812 22.9062 Q50.5938 22.0156 49.8125 22.0156 L48.875 22.0156 Q47.9062 22.0156 47.9062 23.2969 Q48.875 27.2969 48.875 29.2031 Q48.875 32.125 46.2344 32.9062 Q43.6094 33.6875 39.2031 33.6875 L30.9062 33.6875 L24.125 6.5 Q23.6875 5.28125 23.6875 4.29688 Q23.6875 3.51562 27.0938 3.51562 L39.2031 3.51562 Q46.4375 3.51562 50.9219 4.64062 Q55.4219 5.76562 58.375 8.21875 Q61.3281 10.6875 63.4688 14.5 Q65.625 18.3125 68.7031 25.5938 Q68.8906 26.2188 69.5781 26.2188 L70.5156 26.2188 Q70.9062 26.2188 71.1875 25.875 Q71.4844 25.5312 71.4844 25.0938 Q71.4844 24.9062 71.3906 24.7031 L61.0781 0.59375 Q60.8906 0 60.2969 0 z "
               id="Cmmi10-45" />
            <path
               d=" M10.5938 10.8906 Q10.5938 14.1562 11.4688 17.5938 Q12.3594 21.0469 13.9375 25.2656 Q15.5312 29.5 16.7031 32.625 Q18.0156 36.2812 18.0156 38.625 Q18.0156 41.6094 15.8281 41.6094 Q11.8594 41.6094 9.29688 37.5312 Q6.73438 33.4531 5.51562 28.4219 Q5.32812 27.7812 4.6875 27.7812 L3.51562 27.7812 Q2.6875 27.7812 2.6875 28.7188 L2.6875 29 Q4.29688 34.9688 7.60938 39.5781 Q10.9375 44.1875 16.0156 44.1875 Q19.5781 44.1875 22.0469 41.8438 Q24.5156 39.5 24.5156 35.8906 Q24.5156 34.0312 23.6875 31.9844 Q23.25 30.7656 21.6875 26.6562 Q20.125 22.5625 19.2812 19.875 Q18.4531 17.1875 17.9219 14.5938 Q17.3906 12.0156 17.3906 9.42188 Q17.3906 6.10938 18.7969 3.8125 Q20.2188 1.51562 23.3906 1.51562 Q29.7812 1.51562 34.625 9.42188 Q34.7188 9.8125 34.7812 10.1719 Q34.8594 10.5469 34.9062 10.8906 L42.0938 39.8906 Q42.4375 41.2188 43.6562 42.1562 Q44.875 43.1094 46.2969 43.1094 Q47.5156 43.1094 48.4062 42.3281 Q49.3125 41.5469 49.3125 40.2812 Q49.3125 39.7031 49.2188 39.5 L42 10.6875 Q41.3125 7.71875 41.3125 5.8125 Q41.3125 1.51562 44.1875 1.51562 Q47.4062 1.51562 49 5.48438 Q50.5938 9.46875 51.7031 14.7031 Q51.9062 15.2812 52.4844 15.2812 L53.7188 15.2812 Q54.1094 15.2812 54.3438 14.9375 Q54.5938 14.5938 54.5938 14.3125 Q53.5156 10.0156 52.5156 6.9375 Q51.5156 3.85938 49.3594 1.35938 Q47.2188 -1.125 44 -1.125 Q40.8281 -1.125 38.3125 0.609375 Q35.7969 2.34375 34.9062 5.32812 Q32.625 2.39062 29.5938 0.625 Q26.5625 -1.125 23.1875 -1.125 Q17.4375 -1.125 14.0156 2.01562 Q10.5938 5.17188 10.5938 10.8906"
               id="Cmmi10-75" />
          </defs>
          <g
             transform="translate(54.34375 264.6)rotate(-90.0)scale(0.2 -0.2)"
             id="g14423">
            <use
               xlink:href="#Cmmi10-45"
               id="use14425" />
            <use
               transform="translate(73.779296875 -25.509375)scale(0.7)"
               xlink:href="#Cmr10-37"
               id="use14427" />
            <use
               transform="translate(123.779296875 0.0)"
               xlink:href="#Cmr10-28"
               id="use14429" />
            <use
               transform="translate(162.59765625 0.0)"
               xlink:href="#Cmmi10-4a"
               id="use14431" />
            <use
               transform="translate(218.017578125 0.0)"
               xlink:href="#Cmmi10-6f"
               id="use14433" />
            <use
               transform="translate(266.40625 0.0)"
               xlink:href="#Cmmi10-75"
               id="use14435" />
            <use
               transform="translate(323.583984375 0.0)"
               xlink:href="#Cmmi10-6c"
               id="use14437" />
            <use
               transform="translate(353.369140625 0.0)"
               xlink:href="#Cmmi10-65"
               id="use14439" />
            <use
               transform="translate(399.853515625 0.0)"
               xlink:href="#Cmmi10-73"
               id="use14441" />
            <use
               transform="translate(446.630859375 0.0)"
               xlink:href="#Cmr10-29"
               id="use14443" />
          </g>
        </g>
      </g>
      <g
         id="patch_3">
        <path
           d=" M95.85 43.2 L690.12 43.2"
           style="fill:none;stroke:#000000;"
           id="path14446" />
      </g>
      <g
         id="patch_4">
        <path
           d=" M690.12 388.8 L690.12 43.2"
           style="fill:none;stroke:#000000;"
           id="path14449" />
      </g>
      <g
         id="patch_5">
        <path
           d=" M95.85 388.8 L690.12 388.8"
           style="fill:none;stroke:#000000;"
           id="path14452" />
      </g>
      <g
         id="patch_6">
        <path
           d=" M95.85 388.8 L95.85 43.2"
           style="fill:none;stroke:#000000;"
           id="path14455" />
      </g>
    </g>
  </g>
  <defs
     id="defs14457">
    <clipPath
       id="p9475b0980a">
      <rect
         height="345.6"
         width="594.27"
         x="95.85"
         y="43.2"
         id="rect14460" />
    </clipPath>
  </defs>
</svg>
