<?xml version="1.0" encoding="UTF-8" standalone="no"?>
<!-- Created with matplotlib (http://matplotlib.org/) -->

<svg
   xmlns:dc="http://purl.org/dc/elements/1.1/"
   xmlns:cc="http://creativecommons.org/ns#"
   xmlns:rdf="http://www.w3.org/1999/02/22-rdf-syntax-ns#"
   xmlns:svg="http://www.w3.org/2000/svg"
   xmlns="http://www.w3.org/2000/svg"
   xmlns:xlink="http://www.w3.org/1999/xlink"
   xmlns:sodipodi="http://sodipodi.sourceforge.net/DTD/sodipodi-0.dtd"
   xmlns:inkscape="http://www.inkscape.org/namespaces/inkscape"
   height="432pt"
   version="1.1"
   viewBox="0 0 576 432"
   width="576pt"
   id="svg2"
   inkscape:version="0.48.3.1 r9886"
   sodipodi:docname="q_dot_dot_dot_jerk_vel_constr.pdf">
  <metadata
     id="metadata541">
    <rdf:RDF>
      <cc:Work
         rdf:about="">
        <dc:format>image/svg+xml</dc:format>
        <dc:type
           rdf:resource="http://purl.org/dc/dcmitype/StillImage" />
        <dc:title></dc:title>
      </cc:Work>
    </rdf:RDF>
  </metadata>
  <sodipodi:namedview
     pagecolor="#ffffff"
     bordercolor="#666666"
     borderopacity="1"
     objecttolerance="10"
     gridtolerance="10"
     guidetolerance="10"
     inkscape:pageopacity="0"
     inkscape:pageshadow="2"
     inkscape:window-width="1535"
     inkscape:window-height="876"
     id="namedview539"
     showgrid="false"
     inkscape:zoom="0.81111111"
     inkscape:cx="406.38295"
     inkscape:cy="389.22023"
     inkscape:window-x="65"
     inkscape:window-y="24"
     inkscape:window-maximized="1"
     inkscape:current-layer="axes_1" />
  <defs
     id="defs4">
    <style
       type="text/css"
       id="style6">
*{stroke-linecap:butt;stroke-linejoin:round;}
  </style>
  </defs>
  <g
     id="figure_1">
    <g
       id="axes_1">
      <g
         id="g3518">
        <g
           id="patch_2">
          <path
             id="path14"
             style="fill:#ffffff;"
             d=" M72 388.8 L518.4 388.8 L518.4 43.2 L72 43.2 z " />
        </g>
        <g
           id="line2d_1">
          <path
             id="path17"
             style="fill:none;stroke:#0000ff;stroke-linecap:square;stroke-width:2.0;"
             d=" M72 216 L210.628 216 L210.864 215.086 L211.929 210.239 L212.993 206.444 L213.94 203.865 L214.768 202.161 L215.596 200.925 L216.305 200.204 L217.015 199.768 L217.725 199.591 L218.434 199.651 L219.144 199.925 L219.972 200.49 L220.918 201.422 L221.983 202.792 L223.284 204.865 L224.822 207.793 L226.596 211.696 L228.843 217.232 L234.166 230.604 L235.585 233.472 L236.768 235.404 L237.833 236.718 L238.779 237.517 L239.607 237.921 L240.317 238.047 L241.026 237.974 L241.854 237.649 L242.682 237.084 L243.629 236.175 L244.811 234.705 L246.231 232.568 L248.242 229.11 L256.167 215.086 L259.124 210.43 L261.371 207.271 L263.145 205.152 L264.565 203.807 L265.748 203.002 L266.694 202.614 L267.522 202.493 L268.35 202.607 L269.059 202.912 L269.887 203.54 L270.715 204.489 L271.543 205.793 L272.49 207.759 L273.436 210.282 L274.619 213.61 L277.339 213.436 L280.651 213.478 L285.737 213.803 L295.082 214.392 L300.759 214.794 L303.716 215.224 L306.2 215.809 L308.448 216.568 L310.695 217.572 L313.061 218.881 L316.373 221.005 L319.685 223.07 L321.459 223.935 L322.997 224.443 L324.298 224.649 L325.599 224.62 L326.782 224.375 L327.964 223.917 L329.266 223.176 L330.685 222.108 L332.341 220.582 L334.707 218.064 L338.846 213.632 L339.32 213.33 L341.803 212.351 L343.578 211.898 L345.115 211.723 L346.653 211.768 L348.191 212.029 L349.847 212.54 L351.621 213.33 L353.514 214.419 L355.643 215.913 L357.89 217.767 L360.256 220.004 L362.621 222.555 L364.632 225.033 L366.406 227.558 L367.944 230.117 L369.363 232.913 L370.665 235.978 L371.847 239.322 L373.03 243.359 L374.095 247.748 L375.159 253.037 L376.224 259.433 L377.288 267.183 L378.353 276.546 L378.826 281.26 L379.063 158.663 L380.6 147.767 L380.719 149.993 L380.837 146.023 L381.073 93.1294 L381.901 93.5932 L382.375 94.0828 L382.729 94.7209 L383.084 95.976 L383.321 97.8386 L383.439 99.6929 L383.557 103.392 L383.676 114.472 L383.912 216.005 L445.538 216.003 L446.957 216.003 L449.796 216.002 L449.914 193.78 L450.032 129.479 L450.387 132.114 L450.624 136.25 L450.742 141.2 L450.86 173.898 L450.979 155.794 L451.097 244.392 L451.215 226.241 L453.226 225.459 L455 224.532 L457.011 223.221 L459.377 221.389 L461.151 219.85 L461.269 219.046 L461.506 204.073 L461.742 203.278 L464.108 198.337 L465.409 196.09 L466.474 194.68 L467.302 193.923 L468.011 193.545 L468.721 193.442 L469.313 193.578 L469.904 193.921 L470.614 194.61 L471.442 195.79 L472.388 197.61 L473.452 200.198 L474.754 203.989 L476.646 210.278 L480.076 221.755 L481.614 226.118 L482.915 229.194 L484.098 231.44 L485.162 232.996 L486.109 234.011 L487.055 234.688 L487.883 235.017 L488.711 235.115 L489.539 234.999 L490.485 234.629 L491.55 233.948 L492.733 232.915 L494.27 231.243 L496.399 228.554 L501.249 222.319 L503.26 220.129 L505.152 218.389 L506.927 217.05 L508.701 215.975 L510.593 215.085 L512.604 214.383 L514.852 213.829 L517.454 213.416 L518.282 213.326 L518.282 213.326"
             clip-path="url(#p7ff5b81e1d)" />
        </g>
        <g
           id="line2d_2">
          <path
             id="path20"
             style="fill:none;stroke:#ff0000;stroke-linecap:square;stroke-width:2.0;"
             d=" M72 92.5714 L518.282 92.5714 L518.282 92.5714"
             clip-path="url(#p7ff5b81e1d)" />
        </g>
        <g
           id="line2d_3">
          <path
             id="path23"
             style="fill:none;stroke:#ff0000;stroke-linecap:square;stroke-width:2.0;"
             d=" M72 339.429 L518.282 339.429 L518.282 339.429"
             clip-path="url(#p7ff5b81e1d)" />
        </g>
        <g
           id="line2d_4">
          <path
             id="path26"
             style="fill:none;stroke:#0000ff;stroke-linecap:square;stroke-width:2.0;"
             d=" M72 216 L210.628 216 L210.864 215.086 L211.929 210.239 L212.993 206.444 L213.94 203.865 L214.768 202.161 L215.596 200.925 L216.305 200.204 L217.015 199.768 L217.725 199.591 L218.434 199.651 L219.144 199.925 L219.972 200.49 L220.918 201.422 L221.983 202.792 L223.284 204.865 L224.822 207.793 L226.596 211.696 L228.843 217.232 L234.166 230.604 L235.585 233.472 L236.768 235.404 L237.833 236.718 L238.779 237.517 L239.607 237.921 L240.317 238.047 L241.026 237.974 L241.854 237.649 L242.682 237.084 L243.629 236.175 L244.811 234.705 L246.231 232.568 L248.242 229.11 L256.167 215.086 L259.124 210.43 L261.371 207.271 L263.145 205.152 L264.565 203.807 L265.748 203.002 L266.694 202.614 L267.522 202.493 L268.35 202.607 L269.059 202.912 L269.887 203.54 L270.715 204.489 L271.543 205.793 L272.49 207.759 L273.436 210.282 L274.619 213.61 L277.339 213.436 L280.651 213.478 L285.737 213.803 L295.082 214.392 L300.759 214.794 L303.716 215.224 L306.2 215.809 L308.448 216.568 L310.695 217.572 L313.061 218.881 L316.373 221.005 L319.685 223.07 L321.459 223.935 L322.997 224.443 L324.298 224.649 L325.599 224.62 L326.782 224.375 L327.964 223.917 L329.266 223.176 L330.685 222.108 L332.341 220.582 L334.707 218.064 L338.846 213.632 L339.32 213.33 L341.803 212.351 L343.578 211.898 L345.115 211.723 L346.653 211.768 L348.191 212.029 L349.847 212.54 L351.621 213.33 L353.514 214.419 L355.643 215.913 L357.89 217.767 L360.256 220.004 L362.621 222.555 L364.632 225.033 L366.406 227.558 L367.944 230.117 L369.363 232.913 L370.665 235.978 L371.847 239.322 L373.03 243.359 L374.095 247.748 L375.159 253.037 L376.224 259.433 L377.288 267.183 L378.353 276.546 L378.826 281.26 L379.063 158.663 L380.6 147.767 L380.719 149.993 L380.837 146.023 L381.073 93.1294 L381.901 93.5932 L382.375 94.0828 L382.729 94.7209 L383.084 95.976 L383.321 97.8386 L383.439 99.6929 L383.557 103.392 L383.676 114.472 L383.912 216.005 L445.538 216.003 L446.957 216.003 L449.796 216.002 L449.914 193.78 L450.032 129.479 L450.387 132.114 L450.624 136.25 L450.742 141.2 L450.86 173.898 L450.979 155.794 L451.097 244.392 L451.215 226.241 L453.226 225.459 L455 224.532 L457.011 223.221 L459.377 221.389 L461.151 219.85 L461.269 219.046 L461.506 204.073 L461.742 203.278 L464.108 198.337 L465.409 196.09 L466.474 194.68 L467.302 193.923 L468.011 193.545 L468.721 193.442 L469.313 193.578 L469.904 193.921 L470.614 194.61 L471.442 195.79 L472.388 197.61 L473.452 200.198 L474.754 203.989 L476.646 210.278 L480.076 221.755 L481.614 226.118 L482.915 229.194 L484.098 231.44 L485.162 232.996 L486.109 234.011 L487.055 234.688 L487.883 235.017 L488.711 235.115 L489.539 234.999 L490.485 234.629 L491.55 233.948 L492.733 232.915 L494.27 231.243 L496.399 228.554 L501.249 222.319 L503.26 220.129 L505.152 218.389 L506.927 217.05 L508.701 215.975 L510.593 215.085 L512.604 214.383 L514.852 213.829 L517.454 213.416 L518.282 213.326 L518.282 213.326"
             clip-path="url(#p7ff5b81e1d)" />
        </g>
        <g
           id="line2d_5">
          <path
             id="path29"
             style="fill:none;stroke:#ff0000;stroke-linecap:square;stroke-width:2.0;"
             d=" M72 92.5714 L518.282 92.5714 L518.282 92.5714"
             clip-path="url(#p7ff5b81e1d)" />
        </g>
        <g
           id="line2d_6">
          <path
             id="path32"
             style="fill:none;stroke:#ff0000;stroke-dasharray:6.000000,6.000000;stroke-dashoffset:0.0;stroke-width:2.0;"
             d=" M72 339.429 L518.282 339.429 L518.282 339.429"
             clip-path="url(#p7ff5b81e1d)" />
        </g>
        <g
           id="matplotlib.axis_1">
          <g
             id="xtick_1">
            <g
               id="line2d_7">
              <path
                 id="path37"
                 style="fill:none;stroke:#000000;stroke-dasharray:1.000000,3.000000;stroke-dashoffset:0.0;stroke-width:0.5;"
                 d=" M72 388.8 L72 43.2"
                 clip-path="url(#p7ff5b81e1d)" />
            </g>
            <g
               id="line2d_8">
              <defs
                 id="defs40">
                <path
                   style="stroke:#000000;stroke-width:0.5;"
                   id="m93b0483c22"
                   d=" M0 0 L0 -4" />
              </defs>
              <g
                 id="g43">
                <use
                   id="use45"
                   y="388.8"
                   xlink:href="#m93b0483c22"
                   x="72.0"
                   style="stroke:#000000;stroke-width:0.5;" />
              </g>
            </g>
            <g
               id="line2d_9">
              <defs
                 id="defs48">
                <path
                   style="stroke:#000000;stroke-width:0.5;"
                   id="m741efc42ff"
                   d=" M0 0 L0 4" />
              </defs>
              <g
                 id="g51">
                <use
                   id="use53"
                   y="43.2"
                   xlink:href="#m741efc42ff"
                   x="72.0"
                   style="stroke:#000000;stroke-width:0.5;" />
              </g>
            </g>
            <g
               id="text_1">
              <!-- 0.0 -->
              <defs
                 id="defs56">
                <path
                   id="BitstreamVeraSans-Roman-30"
                   d=" M31.7812 66.4062 Q24.1719 66.4062 20.3281 58.9062 Q16.5 51.4219 16.5 36.375 Q16.5 21.3906 20.3281 13.8906 Q24.1719 6.39062 31.7812 6.39062 Q39.4531 6.39062 43.2812 13.8906 Q47.125 21.3906 47.125 36.375 Q47.125 51.4219 43.2812 58.9062 Q39.4531 66.4062 31.7812 66.4062 M31.7812 74.2188 Q44.0469 74.2188 50.5156 64.5156 Q56.9844 54.8281 56.9844 36.375 Q56.9844 17.9688 50.5156 8.26562 Q44.0469 -1.42188 31.7812 -1.42188 Q19.5312 -1.42188 13.0625 8.26562 Q6.59375 17.9688 6.59375 36.375 Q6.59375 54.8281 13.0625 64.5156 Q19.5312 74.2188 31.7812 74.2188" />
                <path
                   id="BitstreamVeraSans-Roman-2e"
                   d=" M10.6875 12.4062 L21 12.4062 L21 0 L10.6875 0 z " />
              </defs>
              <g
                 id="g60"
                 transform="translate(63.2521875 401.918125)scale(0.12 -0.12)">
                <use
                   id="use62"
                   xlink:href="#BitstreamVeraSans-Roman-30" />
                <use
                   id="use64"
                   xlink:href="#BitstreamVeraSans-Roman-2e"
                   x="63.623046875" />
                <use
                   id="use66"
                   xlink:href="#BitstreamVeraSans-Roman-30"
                   x="95.41015625" />
              </g>
            </g>
          </g>
          <g
             id="xtick_2">
            <g
               id="line2d_10">
              <path
                 id="path70"
                 style="fill:none;stroke:#000000;stroke-dasharray:1.000000,3.000000;stroke-dashoffset:0.0;stroke-width:0.5;"
                 d=" M131.141 388.8 L131.141 43.2"
                 clip-path="url(#p7ff5b81e1d)" />
            </g>
            <g
               id="line2d_11">
              <g
                 id="g73">
                <use
                   id="use75"
                   y="388.8"
                   xlink:href="#m93b0483c22"
                   x="131.141494436"
                   style="stroke:#000000;stroke-width:0.5;" />
              </g>
            </g>
            <g
               id="line2d_12">
              <g
                 id="g78">
                <use
                   id="use80"
                   y="43.2"
                   xlink:href="#m741efc42ff"
                   x="131.141494436"
                   style="stroke:#000000;stroke-width:0.5;" />
              </g>
            </g>
            <g
               id="text_2">
              <!-- 0.5 -->
              <defs
                 id="defs83">
                <path
                   id="BitstreamVeraSans-Roman-35"
                   d=" M10.7969 72.9062 L49.5156 72.9062 L49.5156 64.5938 L19.8281 64.5938 L19.8281 46.7344 Q21.9688 47.4688 24.1094 47.8281 Q26.2656 48.1875 28.4219 48.1875 Q40.625 48.1875 47.75 41.5 Q54.8906 34.8125 54.8906 23.3906 Q54.8906 11.625 47.5625 5.09375 Q40.2344 -1.42188 26.9062 -1.42188 Q22.3125 -1.42188 17.5469 -0.640625 Q12.7969 0.140625 7.71875 1.70312 L7.71875 11.625 Q12.1094 9.23438 16.7969 8.0625 Q21.4844 6.89062 26.7031 6.89062 Q35.1562 6.89062 40.0781 11.3281 Q45.0156 15.7656 45.0156 23.3906 Q45.0156 31 40.0781 35.4375 Q35.1562 39.8906 26.7031 39.8906 Q22.75 39.8906 18.8125 39.0156 Q14.8906 38.1406 10.7969 36.2812 z " />
              </defs>
              <g
                 id="g86"
                 transform="translate(122.519306936 401.918125)scale(0.12 -0.12)">
                <use
                   id="use88"
                   xlink:href="#BitstreamVeraSans-Roman-30" />
                <use
                   id="use90"
                   xlink:href="#BitstreamVeraSans-Roman-2e"
                   x="63.623046875" />
                <use
                   id="use92"
                   xlink:href="#BitstreamVeraSans-Roman-35"
                   x="95.41015625" />
              </g>
            </g>
          </g>
          <g
             id="xtick_3">
            <g
               id="line2d_13">
              <path
                 id="path96"
                 style="fill:none;stroke:#000000;stroke-dasharray:1.000000,3.000000;stroke-dashoffset:0.0;stroke-width:0.5;"
                 d=" M190.283 388.8 L190.283 43.2"
                 clip-path="url(#p7ff5b81e1d)" />
            </g>
            <g
               id="line2d_14">
              <g
                 id="g99">
                <use
                   id="use101"
                   y="388.8"
                   xlink:href="#m93b0483c22"
                   x="190.282988871"
                   style="stroke:#000000;stroke-width:0.5;" />
              </g>
            </g>
            <g
               id="line2d_15">
              <g
                 id="g104">
                <use
                   id="use106"
                   y="43.2"
                   xlink:href="#m741efc42ff"
                   x="190.282988871"
                   style="stroke:#000000;stroke-width:0.5;" />
              </g>
            </g>
            <g
               id="text_3">
              <!-- 1.0 -->
              <defs
                 id="defs109">
                <path
                   id="BitstreamVeraSans-Roman-31"
                   d=" M12.4062 8.29688 L28.5156 8.29688 L28.5156 63.9219 L10.9844 60.4062 L10.9844 69.3906 L28.4219 72.9062 L38.2812 72.9062 L38.2812 8.29688 L54.3906 8.29688 L54.3906 0 L12.4062 0 z " />
              </defs>
              <g
                 id="g112"
                 transform="translate(181.798613871 401.918125)scale(0.12 -0.12)">
                <use
                   id="use114"
                   xlink:href="#BitstreamVeraSans-Roman-31" />
                <use
                   id="use116"
                   xlink:href="#BitstreamVeraSans-Roman-2e"
                   x="63.623046875" />
                <use
                   id="use118"
                   xlink:href="#BitstreamVeraSans-Roman-30"
                   x="95.41015625" />
              </g>
            </g>
          </g>
          <g
             id="xtick_4">
            <g
               id="line2d_16">
              <path
                 id="path122"
                 style="fill:none;stroke:#000000;stroke-dasharray:1.000000,3.000000;stroke-dashoffset:0.0;stroke-width:0.5;"
                 d=" M249.424 388.8 L249.424 43.2"
                 clip-path="url(#p7ff5b81e1d)" />
            </g>
            <g
               id="line2d_17">
              <g
                 id="g125">
                <use
                   id="use127"
                   y="388.8"
                   xlink:href="#m93b0483c22"
                   x="249.424483307"
                   style="stroke:#000000;stroke-width:0.5;" />
              </g>
            </g>
            <g
               id="line2d_18">
              <g
                 id="g130">
                <use
                   id="use132"
                   y="43.2"
                   xlink:href="#m741efc42ff"
                   x="249.424483307"
                   style="stroke:#000000;stroke-width:0.5;" />
              </g>
            </g>
            <g
               id="text_4">
              <!-- 1.5 -->
              <g
                 id="g135"
                 transform="translate(241.065733307 401.918125)scale(0.12 -0.12)">
                <use
                   id="use137"
                   xlink:href="#BitstreamVeraSans-Roman-31" />
                <use
                   id="use139"
                   xlink:href="#BitstreamVeraSans-Roman-2e"
                   x="63.623046875" />
                <use
                   id="use141"
                   xlink:href="#BitstreamVeraSans-Roman-35"
                   x="95.41015625" />
              </g>
            </g>
          </g>
          <g
             id="xtick_5">
            <g
               id="line2d_19">
              <path
                 id="path145"
                 style="fill:none;stroke:#000000;stroke-dasharray:1.000000,3.000000;stroke-dashoffset:0.0;stroke-width:0.5;"
                 d=" M308.566 388.8 L308.566 43.2"
                 clip-path="url(#p7ff5b81e1d)" />
            </g>
            <g
               id="line2d_20">
              <g
                 id="g148">
                <use
                   id="use150"
                   y="388.8"
                   xlink:href="#m93b0483c22"
                   x="308.565977742"
                   style="stroke:#000000;stroke-width:0.5;" />
              </g>
            </g>
            <g
               id="line2d_21">
              <g
                 id="g153">
                <use
                   id="use155"
                   y="43.2"
                   xlink:href="#m741efc42ff"
                   x="308.565977742"
                   style="stroke:#000000;stroke-width:0.5;" />
              </g>
            </g>
            <g
               id="text_5">
              <!-- 2.0 -->
              <defs
                 id="defs158">
                <path
                   id="BitstreamVeraSans-Roman-32"
                   d=" M19.1875 8.29688 L53.6094 8.29688 L53.6094 0 L7.32812 0 L7.32812 8.29688 Q12.9375 14.1094 22.625 23.8906 Q32.3281 33.6875 34.8125 36.5312 Q39.5469 41.8438 41.4219 45.5312 Q43.3125 49.2188 43.3125 52.7812 Q43.3125 58.5938 39.2344 62.25 Q35.1562 65.9219 28.6094 65.9219 Q23.9688 65.9219 18.8125 64.3125 Q13.6719 62.7031 7.8125 59.4219 L7.8125 69.3906 Q13.7656 71.7812 18.9375 73 Q24.125 74.2188 28.4219 74.2188 Q39.75 74.2188 46.4844 68.5469 Q53.2188 62.8906 53.2188 53.4219 Q53.2188 48.9219 51.5312 44.8906 Q49.8594 40.875 45.4062 35.4062 Q44.1875 33.9844 37.6406 27.2188 Q31.1094 20.4531 19.1875 8.29688" />
              </defs>
              <g
                 id="g161"
                 transform="translate(299.862227742 401.918125)scale(0.12 -0.12)">
                <use
                   id="use163"
                   xlink:href="#BitstreamVeraSans-Roman-32" />
                <use
                   id="use165"
                   xlink:href="#BitstreamVeraSans-Roman-2e"
                   x="63.623046875" />
                <use
                   id="use167"
                   xlink:href="#BitstreamVeraSans-Roman-30"
                   x="95.41015625" />
              </g>
            </g>
          </g>
          <g
             id="xtick_6">
            <g
               id="line2d_22">
              <path
                 id="path171"
                 style="fill:none;stroke:#000000;stroke-dasharray:1.000000,3.000000;stroke-dashoffset:0.0;stroke-width:0.5;"
                 d=" M367.707 388.8 L367.707 43.2"
                 clip-path="url(#p7ff5b81e1d)" />
            </g>
            <g
               id="line2d_23">
              <g
                 id="g174">
                <use
                   id="use176"
                   y="388.8"
                   xlink:href="#m93b0483c22"
                   x="367.707472178"
                   style="stroke:#000000;stroke-width:0.5;" />
              </g>
            </g>
            <g
               id="line2d_24">
              <g
                 id="g179">
                <use
                   id="use181"
                   y="43.2"
                   xlink:href="#m741efc42ff"
                   x="367.707472178"
                   style="stroke:#000000;stroke-width:0.5;" />
              </g>
            </g>
            <g
               id="text_6">
              <!-- 2.5 -->
              <g
                 id="g184"
                 transform="translate(359.129347178 401.918125)scale(0.12 -0.12)">
                <use
                   id="use186"
                   xlink:href="#BitstreamVeraSans-Roman-32" />
                <use
                   id="use188"
                   xlink:href="#BitstreamVeraSans-Roman-2e"
                   x="63.623046875" />
                <use
                   id="use190"
                   xlink:href="#BitstreamVeraSans-Roman-35"
                   x="95.41015625" />
              </g>
            </g>
          </g>
          <g
             id="xtick_7">
            <g
               id="line2d_25">
              <path
                 id="path194"
                 style="fill:none;stroke:#000000;stroke-dasharray:1.000000,3.000000;stroke-dashoffset:0.0;stroke-width:0.5;"
                 d=" M426.849 388.8 L426.849 43.2"
                 clip-path="url(#p7ff5b81e1d)" />
            </g>
            <g
               id="line2d_26">
              <g
                 id="g197">
                <use
                   id="use199"
                   y="388.8"
                   xlink:href="#m93b0483c22"
                   x="426.848966614"
                   style="stroke:#000000;stroke-width:0.5;" />
              </g>
            </g>
            <g
               id="line2d_27">
              <g
                 id="g202">
                <use
                   id="use204"
                   y="43.2"
                   xlink:href="#m741efc42ff"
                   x="426.848966614"
                   style="stroke:#000000;stroke-width:0.5;" />
              </g>
            </g>
            <g
               id="text_7">
              <!-- 3.0 -->
              <defs
                 id="defs207">
                <path
                   id="BitstreamVeraSans-Roman-33"
                   d=" M40.5781 39.3125 Q47.6562 37.7969 51.625 33 Q55.6094 28.2188 55.6094 21.1875 Q55.6094 10.4062 48.1875 4.48438 Q40.7656 -1.42188 27.0938 -1.42188 Q22.5156 -1.42188 17.6562 -0.515625 Q12.7969 0.390625 7.625 2.20312 L7.625 11.7188 Q11.7188 9.32812 16.5938 8.10938 Q21.4844 6.89062 26.8125 6.89062 Q36.0781 6.89062 40.9375 10.5469 Q45.7969 14.2031 45.7969 21.1875 Q45.7969 27.6406 41.2812 31.2656 Q36.7656 34.9062 28.7188 34.9062 L20.2188 34.9062 L20.2188 43.0156 L29.1094 43.0156 Q36.375 43.0156 40.2344 45.9219 Q44.0938 48.8281 44.0938 54.2969 Q44.0938 59.9062 40.1094 62.9062 Q36.1406 65.9219 28.7188 65.9219 Q24.6562 65.9219 20.0156 65.0312 Q15.375 64.1562 9.8125 62.3125 L9.8125 71.0938 Q15.4375 72.6562 20.3438 73.4375 Q25.25 74.2188 29.5938 74.2188 Q40.8281 74.2188 47.3594 69.1094 Q53.9062 64.0156 53.9062 55.3281 Q53.9062 49.2656 50.4375 45.0938 Q46.9688 40.9219 40.5781 39.3125" />
              </defs>
              <g
                 id="g210"
                 transform="translate(418.163029114 401.918125)scale(0.12 -0.12)">
                <use
                   id="use212"
                   xlink:href="#BitstreamVeraSans-Roman-33" />
                <use
                   id="use214"
                   xlink:href="#BitstreamVeraSans-Roman-2e"
                   x="63.623046875" />
                <use
                   id="use216"
                   xlink:href="#BitstreamVeraSans-Roman-30"
                   x="95.41015625" />
              </g>
            </g>
          </g>
          <g
             id="xtick_8">
            <g
               id="line2d_28">
              <path
                 id="path220"
                 style="fill:none;stroke:#000000;stroke-dasharray:1.000000,3.000000;stroke-dashoffset:0.0;stroke-width:0.5;"
                 d=" M485.99 388.8 L485.99 43.2"
                 clip-path="url(#p7ff5b81e1d)" />
            </g>
            <g
               id="line2d_29">
              <g
                 id="g223">
                <use
                   id="use225"
                   y="388.8"
                   xlink:href="#m93b0483c22"
                   x="485.990461049"
                   style="stroke:#000000;stroke-width:0.5;" />
              </g>
            </g>
            <g
               id="line2d_30">
              <g
                 id="g228">
                <use
                   id="use230"
                   y="43.2"
                   xlink:href="#m741efc42ff"
                   x="485.990461049"
                   style="stroke:#000000;stroke-width:0.5;" />
              </g>
            </g>
            <g
               id="text_8">
              <!-- 3.5 -->
              <g
                 id="g233"
                 transform="translate(477.430148549 401.918125)scale(0.12 -0.12)">
                <use
                   id="use235"
                   xlink:href="#BitstreamVeraSans-Roman-33" />
                <use
                   id="use237"
                   xlink:href="#BitstreamVeraSans-Roman-2e"
                   x="63.623046875" />
                <use
                   id="use239"
                   xlink:href="#BitstreamVeraSans-Roman-35"
                   x="95.41015625" />
              </g>
            </g>
          </g>
          <g
             id="text_9">
            <!-- $time (s)$ -->
            <defs
               id="defs242">
              <path
                 id="Cmmi10-6d"
                 d=" M7.71875 1.70312 Q7.71875 2.29688 7.8125 2.59375 L15.2812 32.4219 Q16.0156 35.2031 16.0156 37.3125 Q16.0156 41.6094 13.0938 41.6094 Q9.96875 41.6094 8.45312 37.8594 Q6.9375 34.125 5.51562 28.4219 Q5.51562 28.125 5.21875 27.9531 Q4.9375 27.7812 4.6875 27.7812 L3.51562 27.7812 Q3.17188 27.7812 2.92188 28.1406 Q2.6875 28.5156 2.6875 28.8125 Q3.76562 33.1562 4.76562 36.1719 Q5.76562 39.2031 7.89062 41.6875 Q10.0156 44.1875 13.1875 44.1875 Q16.9375 44.1875 19.8125 41.8125 Q22.7031 39.4531 22.7031 35.7969 Q25.6875 39.7031 29.6875 41.9375 Q33.6875 44.1875 38.1875 44.1875 Q42.9219 44.1875 46.3594 41.7656 Q49.8125 39.3594 49.8125 34.9062 Q52.875 39.2656 57 41.7188 Q61.1406 44.1875 66.0156 44.1875 Q71.1875 44.1875 74.3281 41.375 Q77.4844 38.5781 77.4844 33.4062 Q77.4844 29.2969 75.6562 23.4844 Q73.8281 17.6719 71.0938 10.5 Q69.6719 7.03125 69.6719 4.5 Q69.6719 1.51562 72.0156 1.51562 Q75.9219 1.51562 78.5156 5.70312 Q81.1094 9.90625 82.1719 14.7031 Q82.4688 15.2812 83.0156 15.2812 L84.1875 15.2812 Q84.5781 15.2812 84.8438 15.0156 Q85.1094 14.75 85.1094 14.4062 Q85.1094 14.3125 85.0156 14.1094 Q83.6406 8.45312 80.25 3.65625 Q76.8594 -1.125 71.7812 -1.125 Q68.2656 -1.125 65.7656 1.29688 Q63.2812 3.71875 63.2812 7.17188 Q63.2812 8.9375 64.1094 11.0781 Q66.9375 18.6094 68.8125 24.5156 Q70.7031 30.4219 70.7031 34.9062 Q70.7031 37.7031 69.5781 39.6562 Q68.4531 41.6094 65.8281 41.6094 Q60.3594 41.6094 56.3438 38.25 Q52.3438 34.9062 49.4219 29.3906 Q49.2188 28.4219 49.125 27.875 L42.6719 2.20312 Q42.3281 0.828125 41.125 -0.140625 Q39.9375 -1.125 38.4844 -1.125 Q37.3125 -1.125 36.4062 -0.34375 Q35.5 0.4375 35.5 1.70312 Q35.5 2.29688 35.5938 2.59375 L42 28.0781 Q43.0156 32.1719 43.0156 34.9062 Q43.0156 37.7031 41.8594 39.6562 Q40.7188 41.6094 37.9844 41.6094 Q34.3281 41.6094 31.25 39.9844 Q28.1719 38.375 25.875 35.7188 Q23.5781 33.0625 21.6875 29.3906 L14.8906 2.20312 Q14.5469 0.828125 13.3438 -0.140625 Q12.1562 -1.125 10.6875 -1.125 Q9.46875 -1.125 8.59375 -0.34375 Q7.71875 0.4375 7.71875 1.70312" />
              <path
                 id="Cmr10-28"
                 d=" M31 -24.8125 Q25.4375 -20.4062 21.4062 -14.7188 Q17.3906 -9.03125 14.8125 -2.57812 Q12.25 3.85938 10.9844 10.8906 Q9.71875 17.9219 9.71875 25 Q9.71875 32.1719 10.9844 39.2031 Q12.25 46.2344 14.8594 52.7344 Q17.4844 59.2344 21.5312 64.8906 Q25.5938 70.5625 31 74.8125 Q31 75 31.5 75 L32.4219 75 Q32.7188 75 32.9531 74.7344 Q33.2031 74.4688 33.2031 74.125 Q33.2031 73.6875 33.0156 73.4844 Q28.125 68.7031 24.875 63.2344 Q21.625 57.7656 19.6406 51.5781 Q17.6719 45.4062 16.7969 38.7812 Q15.9219 32.1719 15.9219 25 Q15.9219 -6.78125 32.9062 -23.2969 Q33.2031 -23.5781 33.2031 -24.125 Q33.2031 -24.3594 32.9375 -24.6719 Q32.6719 -25 32.4219 -25 L31.5 -25 Q31 -25 31 -24.8125" />
              <path
                 id="Cmr10-29"
                 d=" M6.5 -25 Q5.60938 -25 5.60938 -24.125 Q5.60938 -23.6875 5.8125 -23.4844 Q22.9062 -6.78125 22.9062 25 Q22.9062 56.7812 6 73.2969 Q5.60938 73.5312 5.60938 74.125 Q5.60938 74.4688 5.875 74.7344 Q6.15625 75 6.5 75 L7.42188 75 Q7.71875 75 7.90625 74.8125 Q15.0938 69.1406 19.875 61.0312 Q24.6562 52.9375 26.875 43.75 Q29.1094 34.5781 29.1094 25 Q29.1094 17.9219 27.9062 11.0625 Q26.7031 4.20312 24.0938 -2.45312 Q21.4844 -9.125 17.4844 -14.7656 Q13.4844 -20.4062 7.90625 -24.8125 Q7.71875 -25 7.42188 -25 z " />
              <path
                 id="Cmmi10-73"
                 d=" M8.6875 6.10938 Q11.375 1.51562 19.4844 1.51562 Q23 1.51562 26.1719 2.70312 Q29.3438 3.90625 31.4219 6.29688 Q33.5 8.6875 33.5 12.1094 Q33.5 14.7031 31.6406 16.3594 Q29.7812 18.0156 27.0938 18.6094 L21.6875 19.6719 Q17.9688 20.6094 15.5781 23.1406 Q13.1875 25.6875 13.1875 29.2969 Q13.1875 33.7344 15.5938 37.1562 Q18.0156 40.5781 21.9688 42.375 Q25.9219 44.1875 30.1719 44.1875 Q34.7188 44.1875 38.2969 42.0156 Q41.8906 39.8438 41.8906 35.5938 Q41.8906 33.2969 40.5938 31.5312 Q39.3125 29.7812 37.0156 29.7812 Q35.6875 29.7812 34.7344 30.6406 Q33.7969 31.5 33.7969 32.8125 Q33.7969 33.9844 34.4531 35.0781 Q35.1094 36.1875 36.2031 36.8438 Q37.3125 37.5 38.4844 37.5 Q37.5938 39.6562 35.1719 40.625 Q32.7656 41.6094 29.9844 41.6094 Q27.4375 41.6094 24.8906 40.5781 Q22.3594 39.5469 20.8125 37.5625 Q19.2812 35.5938 19.2812 32.9062 Q19.2812 31.1094 20.5469 29.7344 Q21.8281 28.375 23.6875 27.7812 L29.5 26.6094 Q32.2812 26.0312 34.5938 24.5312 Q36.9219 23.0469 38.25 20.7656 Q39.5938 18.5 39.5938 15.5781 Q39.5938 11.8594 37.5156 8.25 Q35.4531 4.64062 32.4219 2.48438 Q27.0938 -1.125 19.3906 -1.125 Q14.0625 -1.125 9.60938 1.3125 Q5.17188 3.76562 5.17188 8.59375 Q5.17188 11.3281 6.75 13.3438 Q8.34375 15.375 11.0781 15.375 Q12.7031 15.375 13.7969 14.3906 Q14.8906 13.4219 14.8906 11.8125 Q14.8906 9.51562 13.1719 7.8125 Q11.4688 6.10938 9.1875 6.10938 z " />
              <path
                 id="Cmmi10-65"
                 d=" M20.125 -1.125 Q15.3281 -1.125 11.7344 1.35938 Q8.15625 3.85938 6.26562 8.07812 Q4.39062 12.3125 4.39062 17 Q4.39062 24.125 7.98438 30.3906 Q11.5781 36.6719 17.7188 40.4219 Q23.875 44.1875 30.9062 44.1875 Q35.2031 44.1875 38.4062 41.9688 Q41.6094 39.75 41.6094 35.5938 Q41.6094 29.8281 37.0156 27.0156 Q32.4219 24.2188 26.6562 23.5625 Q20.9062 22.9062 13.9219 22.9062 L13.625 22.9062 Q12.0156 16.9375 12.0156 12.7031 Q12.0156 8.25 14.0625 4.875 Q16.1094 1.51562 20.3125 1.51562 Q26.2656 1.51562 31.75 4.25 Q37.25 6.98438 40.7188 11.8125 Q41.0156 12.1094 41.5 12.1094 Q42 12.1094 42.5 11.5469 Q43.0156 10.9844 43.0156 10.5 Q43.0156 10.1094 42.8281 9.90625 Q39.1562 4.78125 32.9531 1.82812 Q26.7656 -1.125 20.125 -1.125 M14.2031 25.4844 Q20.0156 25.4844 24.9531 26.0156 Q29.8906 26.5625 33.8906 28.7344 Q37.8906 30.9062 37.8906 35.5 Q37.8906 37.3594 36.8594 38.75 Q35.8438 40.1406 34.2031 40.875 Q32.5625 41.6094 30.8125 41.6094 Q26.5625 41.6094 23.1719 39.3125 Q19.7812 37.0156 17.5781 33.3281 Q15.375 29.6406 14.2031 25.4844" />
              <path
                 id="Cmmi10-74"
                 d=" M6.20312 8.10938 Q6.20312 9.57812 6.5 10.8906 L13.7188 39.5938 L3.21875 39.5938 Q2.20312 39.5938 2.20312 40.9219 Q2.59375 43.1094 3.51562 43.1094 L14.5938 43.1094 L18.6094 59.4219 Q19 60.75 20.1719 61.6719 Q21.3438 62.5938 22.7969 62.5938 Q24.0781 62.5938 24.9219 61.8281 Q25.7812 61.0781 25.7812 59.8125 Q25.7812 59.5156 25.75 59.3438 Q25.7344 59.1875 25.6875 58.9844 L21.6875 43.1094 L31.9844 43.1094 Q33.0156 43.1094 33.0156 41.7969 Q32.9531 41.5469 32.8125 40.9531 Q32.6719 40.375 32.4219 39.9844 Q32.1719 39.5938 31.6875 39.5938 L20.7969 39.5938 L13.625 10.6875 Q12.8906 7.85938 12.8906 5.8125 Q12.8906 1.51562 15.8281 1.51562 Q20.2188 1.51562 23.6094 5.64062 Q27 9.76562 28.8125 14.7031 Q29.2031 15.2812 29.5938 15.2812 L30.8125 15.2812 Q31.2031 15.2812 31.4375 15.0156 Q31.6875 14.75 31.6875 14.4062 Q31.6875 14.2031 31.5938 14.1094 Q29.3906 8.0625 25.1875 3.46875 Q21 -1.125 15.5781 -1.125 Q11.625 -1.125 8.90625 1.45312 Q6.20312 4.04688 6.20312 8.10938" />
              <path
                 id="Cmmi10-69"
                 d=" M7.8125 7.17188 Q7.8125 9.03125 8.59375 11.0781 L16.7031 32.625 Q18.0156 36.2812 18.0156 38.625 Q18.0156 41.6094 15.8281 41.6094 Q11.8594 41.6094 9.29688 37.5312 Q6.73438 33.4531 5.51562 28.4219 Q5.32812 27.7812 4.6875 27.7812 L3.51562 27.7812 Q2.6875 27.7812 2.6875 28.7188 L2.6875 29 Q4.29688 34.9688 7.60938 39.5781 Q10.9375 44.1875 16.0156 44.1875 Q19.5781 44.1875 22.0469 41.8438 Q24.5156 39.5 24.5156 35.8906 Q24.5156 34.0312 23.6875 31.9844 L15.5781 10.5 Q14.2031 7.17188 14.2031 4.5 Q14.2031 1.51562 16.5 1.51562 Q20.4062 1.51562 23.0156 5.6875 Q25.6406 9.85938 26.7031 14.7031 Q26.9062 15.2812 27.4844 15.2812 L28.7188 15.2812 Q29.1094 15.2812 29.3438 15.0156 Q29.5938 14.75 29.5938 14.4062 Q29.5938 14.3125 29.5 14.1094 Q28.125 8.45312 24.7344 3.65625 Q21.3438 -1.125 16.3125 -1.125 Q12.7969 -1.125 10.2969 1.29688 Q7.8125 3.71875 7.8125 7.17188 M19.0938 60.5938 Q19.0938 62.7031 20.8438 64.4062 Q22.6094 66.1094 24.7031 66.1094 Q26.4219 66.1094 27.5156 65.0625 Q28.6094 64.0156 28.6094 62.4062 Q28.6094 60.1562 26.8281 58.4688 Q25.0469 56.7812 22.9062 56.7812 Q21.2969 56.7812 20.1875 57.875 Q19.0938 58.9844 19.0938 60.5938" />
            </defs>
            <g
               id="g251"
               transform="translate(262.2 424.41375)scale(0.2 -0.2)">
              <use
                 id="use253"
                 xlink:href="#Cmmi10-74" />
              <use
                 id="use255"
                 xlink:href="#Cmmi10-69"
                 transform="translate(36.083984375 0.0)" />
              <use
                 id="use257"
                 xlink:href="#Cmmi10-6d"
                 transform="translate(70.5078125 0.0)" />
              <use
                 id="use259"
                 xlink:href="#Cmmi10-65"
                 transform="translate(158.30078125 0.0)" />
              <use
                 id="use261"
                 xlink:href="#Cmr10-28"
                 transform="translate(204.78515625 0.0)" />
              <use
                 id="use263"
                 xlink:href="#Cmmi10-73"
                 transform="translate(243.603515625 0.0)" />
              <use
                 id="use265"
                 xlink:href="#Cmr10-29"
                 transform="translate(290.380859375 0.0)" />
            </g>
          </g>
        </g>
        <g
           id="matplotlib.axis_2">
          <g
             id="ytick_1">
            <g
               id="line2d_31">
              <path
                 id="path270"
                 style="fill:none;stroke:#000000;stroke-dasharray:1.000000,3.000000;stroke-dashoffset:0.0;stroke-width:0.5;"
                 d=" M72 339.429 L518.4 339.429"
                 clip-path="url(#p7ff5b81e1d)" />
            </g>
            <g
               id="line2d_32">
              <defs
                 id="defs273">
                <path
                   style="stroke:#000000;stroke-width:0.5;"
                   id="m728421d6d4"
                   d=" M0 0 L4 0" />
              </defs>
              <g
                 id="g276">
                <use
                   id="use278"
                   y="339.428571429"
                   xlink:href="#m728421d6d4"
                   x="72.0"
                   style="stroke:#000000;stroke-width:0.5;" />
              </g>
            </g>
            <g
               id="line2d_33">
              <defs
                 id="defs281">
                <path
                   style="stroke:#000000;stroke-width:0.5;"
                   id="mcb0005524f"
                   d=" M0 0 L-4 0" />
              </defs>
              <g
                 id="g284">
                <use
                   id="use286"
                   y="339.428571429"
                   xlink:href="#mcb0005524f"
                   x="518.4"
                   style="stroke:#000000;stroke-width:0.5;" />
              </g>
            </g>
            <g
               id="text_10">
              <!-- −1000 -->
              <defs
                 id="defs289">
                <path
                   id="BitstreamVeraSans-Roman-2212"
                   d=" M10.5938 35.5 L73.1875 35.5 L73.1875 27.2031 L10.5938 27.2031 z " />
              </defs>
              <g
                 id="g292"
                 transform="translate(29.4725 342.739821429)scale(0.12 -0.12)">
                <use
                   id="use294"
                   xlink:href="#BitstreamVeraSans-Roman-2212" />
                <use
                   id="use296"
                   xlink:href="#BitstreamVeraSans-Roman-31"
                   x="83.7890625" />
                <use
                   id="use298"
                   xlink:href="#BitstreamVeraSans-Roman-30"
                   x="147.412109375" />
                <use
                   id="use300"
                   xlink:href="#BitstreamVeraSans-Roman-30"
                   x="211.03515625" />
                <use
                   id="use302"
                   xlink:href="#BitstreamVeraSans-Roman-30"
                   x="274.658203125" />
              </g>
            </g>
          </g>
          <g
             id="ytick_2">
            <g
               id="line2d_34">
              <path
                 id="path306"
                 style="fill:none;stroke:#000000;stroke-dasharray:1.000000,3.000000;stroke-dashoffset:0.0;stroke-width:0.5;"
                 d=" M72 277.714 L518.4 277.714"
                 clip-path="url(#p7ff5b81e1d)" />
            </g>
            <g
               id="line2d_35">
              <g
                 id="g309">
                <use
                   id="use311"
                   y="277.714285714"
                   xlink:href="#m728421d6d4"
                   x="72.0"
                   style="stroke:#000000;stroke-width:0.5;" />
              </g>
            </g>
            <g
               id="line2d_36">
              <g
                 id="g314">
                <use
                   id="use316"
                   y="277.714285714"
                   xlink:href="#mcb0005524f"
                   x="518.4"
                   style="stroke:#000000;stroke-width:0.5;" />
              </g>
            </g>
            <g
               id="text_11">
              <!-- −500 -->
              <g
                 id="g319"
                 transform="translate(37.1075 281.025535714)scale(0.12 -0.12)">
                <use
                   id="use321"
                   xlink:href="#BitstreamVeraSans-Roman-2212" />
                <use
                   id="use323"
                   xlink:href="#BitstreamVeraSans-Roman-35"
                   x="83.7890625" />
                <use
                   id="use325"
                   xlink:href="#BitstreamVeraSans-Roman-30"
                   x="147.412109375" />
                <use
                   id="use327"
                   xlink:href="#BitstreamVeraSans-Roman-30"
                   x="211.03515625" />
              </g>
            </g>
          </g>
          <g
             id="ytick_3">
            <g
               id="line2d_37">
              <path
                 id="path331"
                 style="fill:none;stroke:#000000;stroke-dasharray:1.000000,3.000000;stroke-dashoffset:0.0;stroke-width:0.5;"
                 d=" M72 216 L518.4 216"
                 clip-path="url(#p7ff5b81e1d)" />
            </g>
            <g
               id="line2d_38">
              <g
                 id="g334">
                <use
                   id="use336"
                   y="216.0"
                   xlink:href="#m728421d6d4"
                   x="72.0"
                   style="stroke:#000000;stroke-width:0.5;" />
              </g>
            </g>
            <g
               id="line2d_39">
              <g
                 id="g339">
                <use
                   id="use341"
                   y="216.0"
                   xlink:href="#mcb0005524f"
                   x="518.4"
                   style="stroke:#000000;stroke-width:0.5;" />
              </g>
            </g>
            <g
               id="text_12">
              <!-- 0 -->
              <g
                 id="g344"
                 transform="translate(61.953125 219.31125)scale(0.12 -0.12)">
                <use
                   id="use346"
                   xlink:href="#BitstreamVeraSans-Roman-30" />
              </g>
            </g>
          </g>
          <g
             id="ytick_4">
            <g
               id="line2d_40">
              <path
                 id="path350"
                 style="fill:none;stroke:#000000;stroke-dasharray:1.000000,3.000000;stroke-dashoffset:0.0;stroke-width:0.5;"
                 d=" M72 154.286 L518.4 154.286"
                 clip-path="url(#p7ff5b81e1d)" />
            </g>
            <g
               id="line2d_41">
              <g
                 id="g353">
                <use
                   id="use355"
                   y="154.285714286"
                   xlink:href="#m728421d6d4"
                   x="72.0"
                   style="stroke:#000000;stroke-width:0.5;" />
              </g>
            </g>
            <g
               id="line2d_42">
              <g
                 id="g358">
                <use
                   id="use360"
                   y="154.285714286"
                   xlink:href="#mcb0005524f"
                   x="518.4"
                   style="stroke:#000000;stroke-width:0.5;" />
              </g>
            </g>
            <g
               id="text_13">
              <!-- 500 -->
              <g
                 id="g363"
                 transform="translate(46.818125 157.596964286)scale(0.12 -0.12)">
                <use
                   id="use365"
                   xlink:href="#BitstreamVeraSans-Roman-35" />
                <use
                   id="use367"
                   xlink:href="#BitstreamVeraSans-Roman-30"
                   x="63.623046875" />
                <use
                   id="use369"
                   xlink:href="#BitstreamVeraSans-Roman-30"
                   x="127.24609375" />
              </g>
            </g>
          </g>
          <g
             id="ytick_5">
            <g
               id="line2d_43">
              <path
                 id="path373"
                 style="fill:none;stroke:#000000;stroke-dasharray:1.000000,3.000000;stroke-dashoffset:0.0;stroke-width:0.5;"
                 d=" M72 92.5714 L518.4 92.5714"
                 clip-path="url(#p7ff5b81e1d)" />
            </g>
            <g
               id="line2d_44">
              <g
                 id="g376">
                <use
                   id="use378"
                   y="92.5714285714"
                   xlink:href="#m728421d6d4"
                   x="72.0"
                   style="stroke:#000000;stroke-width:0.5;" />
              </g>
            </g>
            <g
               id="line2d_45">
              <g
                 id="g381">
                <use
                   id="use383"
                   y="92.5714285714"
                   xlink:href="#mcb0005524f"
                   x="518.4"
                   style="stroke:#000000;stroke-width:0.5;" />
              </g>
            </g>
            <g
               id="text_14">
              <!-- 1000 -->
              <g
                 id="g386"
                 transform="translate(39.575 95.8826785714)scale(0.12 -0.12)">
                <use
                   id="use388"
                   xlink:href="#BitstreamVeraSans-Roman-31" />
                <use
                   id="use390"
                   xlink:href="#BitstreamVeraSans-Roman-30"
                   x="63.623046875" />
                <use
                   id="use392"
                   xlink:href="#BitstreamVeraSans-Roman-30"
                   x="127.24609375" />
                <use
                   id="use394"
                   xlink:href="#BitstreamVeraSans-Roman-30"
                   x="190.869140625" />
              </g>
            </g>
          </g>
        </g>
        <g
           id="patch_3">
          <path
             id="path397"
             style="fill:none;stroke:#000000;"
             d=" M72 43.2 L518.4 43.2" />
        </g>
        <g
           id="patch_4">
          <path
             id="path400"
             style="fill:none;stroke:#000000;"
             d=" M518.4 388.8 L518.4 43.2" />
        </g>
        <g
           id="patch_5">
          <path
             id="path403"
             style="fill:none;stroke:#000000;"
             d=" M72 388.8 L518.4 388.8" />
        </g>
        <g
           id="patch_6">
          <path
             id="path406"
             style="fill:none;stroke:#000000;"
             d=" M72 388.8 L72 43.2" />
        </g>
        <g
           style="stroke-linecap:butt;stroke-linejoin:round"
           transform="matrix(0.69300621,0,0,0.68891666,-139.66104,8.257374)"
           id="legend_1">
          <g
             style="stroke-linecap:butt;stroke-linejoin:round"
             id="patch_7">
            <path
               inkscape:connector-curvature="0"
               id="path410"
               style="fill:#ffffff;stroke:#000000;stroke-linecap:butt;stroke-linejoin:round"
               d="m 307.8,160 200.6,0 0,-106.8 -200.6,0 0,106.8 z" />
          </g>
          <g
             style="stroke-linecap:butt;stroke-linejoin:round"
             id="line2d_46">
            <path
               inkscape:connector-curvature="0"
               id="path413"
               style="fill:none;stroke:#0000ff;stroke-width:2;stroke-linecap:square;stroke-linejoin:round"
               d="m 321.8,72.2 28,0" />
          </g>
          <g
             style="stroke-linecap:butt;stroke-linejoin:round"
             id="line2d_47" />
          <g
             style="stroke-linecap:butt;stroke-linejoin:round"
             id="text_15">
            <!-- $\dddot{q}_0 (rad.s^{-3})$ -->
            <defs
               id="defs417">
              <path
                 style="stroke-linecap:butt;stroke-linejoin:round"
                 inkscape:connector-curvature="0"
                 id="Cmr10-33"
                 d="m 9.51562,7.71875 q 2.34378,-3.42187 6.29688,-5.07813 3.9687,-1.656245 8.5,-1.656245 5.8125,0 8.25,4.953125 2.4531,4.9531 2.4531,11.25 0,2.8281 -0.5156,5.6563 -0.5156,2.8437 -1.7344,5.2812 -1.2187,2.4375 -3.3437,3.9062 Q 27.2969,33.5 24.2188,33.5 l -6.6407,0 q -0.875,0 -0.875,0.9219 l 0,0.875 q 0,0.7812 0.875,0.7812 l 5.5157,0.4531 q 3.5156,0 5.8281,2.625 2.3281,2.6407 3.4062,6.4219 1.0781,3.7813 1.0781,7.2031 0,4.7813 -2.25,7.8594 -2.25,3.0782 -6.8437,3.0782 -3.7969,0 -7.2656,-1.4376 -3.4688,-1.4374 -5.5157,-4.375 0.1876,0.0469 0.3282,0.0782 0.1562,0.0312 0.3437,0.0312 2.25,0 3.7657,-1.5625 1.5156,-1.5625 1.5156,-3.7656 0,-2.1563 -1.5156,-3.7187 -1.5157,-1.5626 -3.7657,-1.5626 -2.1875,0 -3.74998,1.5626 -1.5625,1.5624 -1.5625,3.7187 0,4.2969 2.57813,7.4687 2.59375,3.1719 6.67185,4.8126 4.0782,1.6406 8.1719,1.6406 3.0313,0 6.3906,-0.9063 3.375,-0.9062 6.1094,-2.5937 2.7344,-1.6875 4.4687,-4.3282 1.7344,-2.625 1.7344,-6 0,-4.2031 -1.875,-7.7656 -1.875,-3.5625 -5.1562,-6.1562 -3.2656,-2.5782 -7.1719,-3.8438 4.3437,-0.8281 8.25,-3.2812 3.9063,-2.4375 6.2656,-6.25 2.375,-3.7969 2.375,-8.2032 0,-5.5156 -3.0312,-9.98432 -3.0157,-4.46876 -7.9531,-6.98438 -4.9376,-2.51562 -10.4063,-2.51562 -4.6875,0 -9.4063,1.79687 -4.7031,1.78125 -7.70308,5.34375 -3,3.5625 -3,8.5469 0,2.4844 1.65626,4.1406 1.65624,1.6562 4.15622,1.6562 1.6094,0 2.9532,-0.75 1.3437,-0.75 2.0937,-2.125 0.7656,-1.3593 0.7656,-2.9218 0,-2.4532 -1.7187,-4.1094 -1.7032,-1.65625 -4.0938,-1.65625 z" />
              <path
                 style="stroke-linecap:butt;stroke-linejoin:round"
                 inkscape:connector-curvature="0"
                 id="Cmmi10-61"
                 d="m 17.3906,-1.125 q -6.3125,0 -9.9531,4.76562 -3.625,4.76563 -3.625,11.24998 0,6.4063 3.3125,13.2813 3.3281,6.8906 8.9688,11.4531 5.6406,4.5625 12.125,4.5625 2.9843,0 5.3281,-1.6094 2.3437,-1.6093 3.6562,-4.3906 1.125,4 4.4063,4 1.2656,0 2.1094,-0.7656 0.8593,-0.75 0.8593,-2.0157 0,-0.2968 -0.0312,-0.4531 -0.0157,-0.1406 -0.0625,-0.3281 L 37.5,10.6875 q -0.6875,-2.96875 -0.6875,-4.875 0,-4.29688 2.8906,-4.29688 3.125,0 4.75,3.96876 1.6407,3.98437 2.7657,9.21872 0.1874,0.5781 0.7812,0.5781 l 1.2188,0 q 0.3906,0 0.625,-0.3437 0.25,-0.3437 0.25,-0.625 Q 48.3438,7.32812 46.2656,3.09375 44.1875,-1.125 39.5,-1.125 q -3.3594,0 -5.9531,1.96875 Q 30.9531,2.82812 30.3281,6.10938 23.875,-1.125 17.3906,-1.125 m 0.0938,2.64062 q 3.6094,0 7,2.70313 3.3906,2.71875 5.8437,6.37505 0.0938,0.0937 0.0938,0.2968 l 5.375,21.7344 0.0937,0.2812 q -0.5937,3.5626 -2.5781,6.125 -1.9687,2.5782 -5.3281,2.5782 -3.375,0 -6.2813,-2.7656 -2.9062,-2.7657 -4.9062,-6.5157 -1.9531,-4 -3.7344,-10.9843 -1.7813,-6.9844 -1.7813,-10.8438 0,-3.46875 1.4844,-6.23438 1.5,-2.75 4.7188,-2.75" />
              <path
                 style="stroke-linecap:butt;stroke-linejoin:round"
                 inkscape:connector-curvature="0"
                 id="Cmr10-30"
                 d="m 25,-2.20312 q -12.25,0 -16.67188,10.07812 -4.42187,10.0938 -4.42187,24.0156 0,8.6875 1.57813,16.3438 Q 7.07812,55.9062 11.7812,61.25 16.5,66.6094 25,66.6094 q 6.5938,0 10.7812,-3.2344 4.2032,-3.2188 6.4063,-8.3281 2.2031,-5.0938 3,-10.9375 Q 46,38.2812 46,31.8906 46,23.2969 44.4062,15.7969 42.8281,8.29688 38.1875,3.04688 33.5469,-2.20312 25,-2.20312 m 0,2.593745 q 5.5625,0 8.2969,5.703125 2.7343,5.71875 3.375,12.65625 0.6406,6.9375 0.6406,14.75 0,7.5156 -0.6406,13.8594 -0.6407,6.3594 -3.3594,11.5 -2.7031,5.1562 -8.3125,5.1562 -5.6562,0 -8.3906,-5.1875 -2.7344,-5.1719 -3.375,-11.5 -0.6406,-6.3125 -0.6406,-13.8281 0,-5.5625 0.2656,-10.5 0.2812,-4.9375 1.4531,-10.1875 1.1719,-5.25 3.7813,-8.84375 Q 20.7031,0.390625 25,0.390625" />
              <path
                 style="stroke-linecap:butt;stroke-linejoin:round"
                 inkscape:connector-curvature="0"
                 id="STIXGeneral-Regular-20db"
                 d="m 0.5,62.2031 q 3,-3 3,-5 0,-2 -1.5,-3.4531 -1.5,-1.4531 -3.59375,-1.4531 -2,0 -3.40625,1.4531 -1.40625,1.4531 -1.40625,3.5469 0,2 1.45313,3.4531 1.45312,1.4531 3.45312,1.4531 2,0 5,-3 m -22.9062,3 q 3,-3 3,-5 0,-2 -1.5,-3.4531 -1.5,-1.4531 -3.5938,-1.4531 -2,0 -3.3906,1.4531 -1.4063,1.4531 -1.4063,3.5469 0,2 1.4531,3.4531 1.4376,1.4531 3.4376,1.4531 2,0 5,-3 m -22.8907,3 q 3,-3 3,-5 0,-2 -1.5,-3.4531 -1.5,-1.4531 -3.6093,-1.4531 -2,0 -3.3907,1.4531 -1.4062,1.4531 -1.4062,3.5469 0,2 1.4531,3.4531 1.4531,1.4531 3.4531,1.4531 2,0 5,-3" />
              <path
                 style="stroke-linecap:butt;stroke-linejoin:round"
                 inkscape:connector-curvature="0"
                 id="Cmmi10-72"
                 d="m 7.71875,1.70312 q 0,0.59376 0.09375,0.89063 l 7.4687,29.82815 q 0.7344,2.7812 0.7344,4.8906 0,4.2969 -2.9218,4.2969 -3.12505,0 -4.64068,-3.75 -1.51562,-3.7344 -2.9375,-9.4375 0,-0.2969 -0.29687,-0.4688 Q 4.9375,27.7812 4.6875,27.7812 l -1.17188,0 q -0.34374,0 -0.59374,0.3594 -0.23438,0.375 -0.23438,0.6719 1.07812,4.3437 2.07812,7.3594 1,3.0312 3.125,5.5156 2.12498,2.5 5.29688,2.5 3.4687,0 6.0781,-2 2.6094,-2 3.25,-5.2656 2.5313,3.3125 5.7813,5.2812 3.25,1.9844 7.1093,1.9844 3.1719,0 5.5782,-1.8594 2.4218,-1.8437 2.4218,-5.0156 0,-2.5469 -1.5937,-4.4375 Q 40.2344,31 37.5938,31 q -1.6094,0 -2.7032,1 -1.0937,1.0156 -1.0937,2.625 0,2.1875 1.6093,3.9219 1.6094,1.7343 3.7032,1.7343 -1.6094,1.3282 -3.9063,1.3282 -4.2969,0 -7.4687,-3.0625 Q 24.5625,35.5 22.0156,30.8125 L 14.8906,2.20312 Q 14.5469,0.828125 13.3438,-0.140625 12.1562,-1.125 10.6875,-1.125 q -1.21875,0 -2.09375,0.78125 -0.875,0.78125 -0.875,2.04687" />
              <path
                 style="stroke-linecap:butt;stroke-linejoin:round"
                 inkscape:connector-curvature="0"
                 id="Cmsy10-a1"
                 d="M 10.2031,23 Q 9.375,23 8.82812,23.625 8.29688,24.2656 8.29688,25 q 0,0.7344 0.53124,1.3594 Q 9.375,27 10.2031,27 l 57.375,0 q 0.7813,0 1.2969,-0.6406 0.5156,-0.625 0.5156,-1.3594 0,-0.7344 -0.5156,-1.375 Q 68.3594,23 67.5781,23 z" />
              <path
                 style="stroke-linecap:butt;stroke-linejoin:round"
                 inkscape:connector-curvature="0"
                 id="Cmmi10-71"
                 d="m 14.7031,-18.1094 q 0.3438,2.1875 1.3125,2.1875 3.6094,0 5.6875,0.5938 2.0781,0.5781 2.7188,2.8281 l 4.2969,17 Q 23,-1.125 17.2812,-1.125 10.9844,-1.125 7.39062,3.64062 3.8125,8.40625 3.8125,14.8906 q 0,6.4063 3.29688,13.2813 3.29682,6.8906 8.93752,11.4531 5.6406,4.5625 12.1719,4.5625 3.0312,0 5.4687,-1.8125 2.4531,-1.7969 3.7187,-4.7812 0.5782,1.1718 3.2344,3.875 2.6719,2.7187 3.75,2.7187 1.125,0 1.125,-1.2656 L 31.5,-12.8906 q -0.25,-1.4688 -0.2969,-1.7032 0,-1.3281 6.5938,-1.3281 0.4843,0 0.75,-0.3906 0.2656,-0.3906 0.2656,-0.875 -0.3281,-1.3125 -0.5625,-1.75 -0.2188,-0.4531 -1.1406,-0.4531 l -21.3906,0 q -1.0157,0 -1.0157,1.2812 m 2.7813,19.62502 q 3.5156,0 6.8594,2.65626 3.3437,2.67187 5.8281,6.32812 l 5.625,22.5156 q -0.5938,3.5156 -2.5781,6.0469 -1.9688,2.5469 -5.2344,2.5469 -3.375,0 -6.2813,-2.7656 -2.9062,-2.7657 -4.9062,-6.5157 -1.9531,-4 -3.7344,-10.9843 -1.7813,-6.9844 -1.7813,-10.8438 0,-3.46875 1.4844,-6.23438 1.5,-2.75 4.7188,-2.75" />
              <path
                 style="stroke-linecap:butt;stroke-linejoin:round"
                 inkscape:connector-curvature="0"
                 id="Cmmi10-64"
                 d="m 17.3906,-1.125 q -6.3125,0 -9.9531,4.76562 -3.625,4.76563 -3.625,11.24998 0,6.4063 3.3125,13.2813 3.3281,6.8906 8.9688,11.4531 5.6406,4.5625 12.125,4.5625 2.9374,0 5.2968,-1.6406 2.375,-1.625 3.6875,-4.3594 L 42.8281,60.5 q 0.3907,1.7031 0.4844,2.6875 0,1.6094 -6.5,1.6094 -1.0156,0 -1.0156,1.3125 0.0469,0.25 0.2187,0.875 0.1719,0.6406 0.4375,0.9844 0.2657,0.3437 0.75,0.3437 l 13.4844,1.0781 q 1.2187,0 1.2187,-1.2812 L 37.5,10.5938 q -0.6875,-1.6563 -0.6875,-4.7813 0,-4.29688 2.8906,-4.29688 3.125,0 4.75,3.96876 1.6407,3.98437 2.7657,9.21872 0.1874,0.5781 0.7812,0.5781 l 1.2188,0 q 0.3906,0 0.625,-0.3437 0.25,-0.3437 0.25,-0.625 Q 48.3438,7.32812 46.2656,3.09375 44.1875,-1.125 39.5,-1.125 q -3.3594,0 -5.9531,1.96875 Q 30.9531,2.82812 30.3281,6.10938 23.875,-1.125 17.3906,-1.125 m 0.0938,2.64062 q 3.6094,0 7,2.70313 3.3906,2.71875 5.8437,6.37505 0.0938,0.0937 0.0938,0.3906 l 5.4687,22.0312 q -0.5937,3.5156 -2.5937,6.0469 -2,2.5469 -5.3125,2.5469 -3.375,0 -6.2813,-2.7656 -2.9062,-2.7657 -4.9062,-6.5157 -1.9531,-4 -3.7344,-10.9843 -1.7813,-6.9844 -1.7813,-10.8438 0,-3.46875 1.4844,-6.23438 1.5,-2.75 4.7188,-2.75" />
              <path
                 style="stroke-linecap:butt;stroke-linejoin:round"
                 inkscape:connector-curvature="0"
                 id="Cmmi10-3a"
                 d="m 8.40625,5.51562 q 0,2.25 1.65625,3.85938 1.6563,1.6094 3.8594,1.6094 1.3593,0 2.6719,-0.7344 1.3281,-0.73438 2.0624,-2.04688 0.7344,-1.3125 0.7344,-2.6875 0,-2.1875 -1.625,-3.85937 Q 16.1562,0 13.9219,0 11.7188,0 10.0625,1.65625 8.40625,3.32812 8.40625,5.51562" />
            </defs>
            <g
               style="stroke-linecap:butt;stroke-linejoin:round"
               id="g428"
               transform="matrix(0.2,0,0,-0.2,371.8,79.2)">
              <use
                 height="432"
                 width="576"
                 y="0"
                 x="0"
                 style="stroke-linecap:butt;stroke-linejoin:round"
                 id="use430"
                 xlink:href="#STIXGeneral-Regular-20db"
                 transform="translate(45.365187,0.8578125)" />
              <use
                 height="432"
                 width="576"
                 y="0"
                 x="0"
                 style="stroke-linecap:butt;stroke-linejoin:round"
                 id="use432"
                 xlink:href="#Cmmi10-71"
                 transform="translate(0,0.8578125)" />
              <use
                 height="432"
                 width="576"
                 y="0"
                 x="0"
                 style="stroke-linecap:butt;stroke-linejoin:round"
                 id="use434"
                 xlink:href="#Cmr10-30"
                 transform="matrix(0.7,0,0,0.7,44.580078,-24.651562)" />
              <use
                 height="432"
                 width="576"
                 y="0"
                 x="0"
                 style="stroke-linecap:butt;stroke-linejoin:round"
                 id="use436"
                 xlink:href="#Cmr10-28"
                 transform="translate(94.580078,0.8578125)" />
              <use
                 height="432"
                 width="576"
                 y="0"
                 x="0"
                 style="stroke-linecap:butt;stroke-linejoin:round"
                 id="use438"
                 xlink:href="#Cmmi10-72"
                 transform="translate(133.39844,0.8578125)" />
              <use
                 height="432"
                 width="576"
                 y="0"
                 x="0"
                 style="stroke-linecap:butt;stroke-linejoin:round"
                 id="use440"
                 xlink:href="#Cmmi10-61"
                 transform="translate(178.51562,0.8578125)" />
              <use
                 height="432"
                 width="576"
                 y="0"
                 x="0"
                 style="stroke-linecap:butt;stroke-linejoin:round"
                 id="use442"
                 xlink:href="#Cmmi10-64"
                 transform="translate(231.29883,0.8578125)" />
              <use
                 height="432"
                 width="576"
                 y="0"
                 x="0"
                 style="stroke-linecap:butt;stroke-linejoin:round"
                 id="use444"
                 xlink:href="#Cmmi10-3a"
                 transform="translate(283.30078,0.8578125)" />
              <use
                 height="432"
                 width="576"
                 y="0"
                 x="0"
                 style="stroke-linecap:butt;stroke-linejoin:round"
                 id="use446"
                 xlink:href="#Cmmi10-73"
                 transform="translate(311.84375,0.8578125)" />
              <use
                 height="432"
                 width="576"
                 y="0"
                 x="0"
                 style="stroke-linecap:butt;stroke-linejoin:round"
                 id="use448"
                 xlink:href="#Cmsy10-a1"
                 transform="matrix(0.7,0,0,0.7,358.62109,43.373438)" />
              <use
                 height="432"
                 width="576"
                 y="0"
                 x="0"
                 style="stroke-linecap:butt;stroke-linejoin:round"
                 id="use450"
                 xlink:href="#Cmr10-33"
                 transform="matrix(0.7,0,0,0.7,413.00098,43.373438)" />
              <use
                 height="432"
                 width="576"
                 y="0"
                 x="0"
                 style="stroke-linecap:butt;stroke-linejoin:round"
                 id="use452"
                 xlink:href="#Cmr10-29"
                 transform="translate(465.00723,0.8578125)" />
            </g>
          </g>
          <g
             style="stroke-linecap:butt;stroke-linejoin:round"
             id="line2d_48">
            <path
               inkscape:connector-curvature="0"
               id="path455"
               style="fill:none;stroke:#ff0000;stroke-width:2;stroke-linecap:square;stroke-linejoin:round"
               d="m 321.8,105.8 28,0" />
          </g>
          <g
             style="stroke-linecap:butt;stroke-linejoin:round"
             id="line2d_49" />
          <g
             style="stroke-linecap:butt;stroke-linejoin:round"
             id="text_16">
            <!-- $\dddot{q_0}_{max} (rad.s^{-3})$ -->
            <defs
               id="defs459">
              <path
                 style="stroke-linecap:butt;stroke-linejoin:round"
                 inkscape:connector-curvature="0"
                 id="Cmmi10-78"
                 d="m 7.8125,2.875 q 1.76562,-1.35938 4.9844,-1.35938 3.125,0 5.5156,3 2.3906,3 3.2656,6.56248 l 4.5469,17.7344 q 1.0781,4.8281 1.0781,6.5937 0,2.4844 -1.3906,4.3438 -1.3906,1.8594 -3.8906,1.8594 -3.1719,0 -5.9531,-1.9844 Q 13.1875,37.6406 11.2812,34.5938 9.375,31.5469 8.59375,28.4219 8.40625,27.7812 7.8125,27.7812 l -1.21875,0 q -0.78125,0 -0.78125,0.9376 l 0,0.2812 q 0.96875,3.7188 3.3125,7.25 2.3438,3.5469 5.7344,5.7344 3.4062,2.2031 7.2656,2.2031 3.6562,0 6.6094,-1.9531 2.9531,-1.9532 4.1718,-5.3125 1.7188,3.0625 4.375,5.1562 2.6563,2.1094 5.8282,2.1094 2.1562,0 4.3906,-0.7656 2.25,-0.75 3.6719,-2.3125 1.4219,-1.5625 1.4219,-3.9063 0,-2.5312 -1.6407,-4.375 Q 49.3125,31 46.7812,31 q -1.6093,0 -2.6874,1.0312 -1.0782,1.0313 -1.0782,2.5938 0,2.0938 1.4375,3.6719 1.4531,1.5937 3.4531,1.8906 -1.8124,1.4219 -4.9843,1.4219 -3.2188,0 -5.5938,-2.9844 -2.3593,-2.9844 -3.3437,-6.6406 L 29.5938,14.3125 q -1.0782,-4.0156 -1.0782,-6.59375 0,-2.54687 1.4375,-4.375 1.4375,-1.82813 3.8438,-1.82813 4.6875,0 8.3593,4.125 3.6876,4.125 4.8594,9.06248 0.2032,0.5781 0.7813,0.5781 l 1.2343,0 q 0.3907,0 0.625,-0.2656 0.25,-0.2656 0.25,-0.6094 0,-0.0937 -0.0937,-0.2968 Q 48.3906,8.15625 43.8438,3.51562 39.3125,-1.125 33.5938,-1.125 q -3.6563,0 -6.6094,1.96875 -2.9532,1.98437 -4.1875,5.35937 -1.5625,-2.9375 -4.3281,-5.14062 -2.75,-2.1875 -5.875,-2.1875 -2.1407,0 -4.42192,0.765625 -2.26563,0.75 -3.6875,2.312495 -1.40626,1.5625 -1.40626,3.95313 0,2.34375 1.625,4.26565 1.64063,1.9375 4.09376,1.9375 1.65622,0 2.78122,-1 1.125,-1 1.125,-2.6094 0,-2.10938 -1.4062,-3.67188 Q 9.90625,3.26562 7.8125,2.875" />
            </defs>
            <g
               style="stroke-linecap:butt;stroke-linejoin:round"
               id="g462"
               transform="matrix(0.2,0,0,-0.2,371.8,112.8)">
              <use
                 height="432"
                 width="576"
                 y="0"
                 x="0"
                 style="stroke-linecap:butt;stroke-linejoin:round"
                 id="use464"
                 xlink:href="#STIXGeneral-Regular-20db"
                 transform="translate(44.475673,0.8578125)" />
              <use
                 height="432"
                 width="576"
                 y="0"
                 x="0"
                 style="stroke-linecap:butt;stroke-linejoin:round"
                 id="use466"
                 xlink:href="#Cmmi10-71"
                 transform="translate(0,0.8578125)" />
              <use
                 height="432"
                 width="576"
                 y="0"
                 x="0"
                 style="stroke-linecap:butt;stroke-linejoin:round"
                 id="use468"
                 xlink:href="#Cmr10-30"
                 transform="matrix(0.7,0,0,0.7,44.580078,-24.651562)" />
              <use
                 height="432"
                 width="576"
                 y="0"
                 x="0"
                 style="stroke-linecap:butt;stroke-linejoin:round"
                 id="use470"
                 xlink:href="#Cmmi10-6d"
                 transform="matrix(0.7,0,0,0.7,94.580078,-24.651562)" />
              <use
                 height="432"
                 width="576"
                 y="0"
                 x="0"
                 style="stroke-linecap:butt;stroke-linejoin:round"
                 id="use472"
                 xlink:href="#Cmmi10-61"
                 transform="matrix(0.7,0,0,0.7,156.03516,-24.651562)" />
              <use
                 height="432"
                 width="576"
                 y="0"
                 x="0"
                 style="stroke-linecap:butt;stroke-linejoin:round"
                 id="use474"
                 xlink:href="#Cmmi10-78"
                 transform="matrix(0.7,0,0,0.7,192.9834,-24.651562)" />
              <use
                 height="432"
                 width="576"
                 y="0"
                 x="0"
                 style="stroke-linecap:butt;stroke-linejoin:round"
                 id="use476"
                 xlink:href="#Cmr10-28"
                 transform="translate(232.93945,0.8578125)" />
              <use
                 height="432"
                 width="576"
                 y="0"
                 x="0"
                 style="stroke-linecap:butt;stroke-linejoin:round"
                 id="use478"
                 xlink:href="#Cmmi10-72"
                 transform="translate(271.75781,0.8578125)" />
              <use
                 height="432"
                 width="576"
                 y="0"
                 x="0"
                 style="stroke-linecap:butt;stroke-linejoin:round"
                 id="use480"
                 xlink:href="#Cmmi10-61"
                 transform="translate(316.875,0.8578125)" />
              <use
                 height="432"
                 width="576"
                 y="0"
                 x="0"
                 style="stroke-linecap:butt;stroke-linejoin:round"
                 id="use482"
                 xlink:href="#Cmmi10-64"
                 transform="translate(369.6582,0.8578125)" />
              <use
                 height="432"
                 width="576"
                 y="0"
                 x="0"
                 style="stroke-linecap:butt;stroke-linejoin:round"
                 id="use484"
                 xlink:href="#Cmmi10-3a"
                 transform="translate(421.66016,0.8578125)" />
              <use
                 height="432"
                 width="576"
                 y="0"
                 x="0"
                 style="stroke-linecap:butt;stroke-linejoin:round"
                 id="use486"
                 xlink:href="#Cmmi10-73"
                 transform="translate(450.20312,0.8578125)" />
              <use
                 height="432"
                 width="576"
                 y="0"
                 x="0"
                 style="stroke-linecap:butt;stroke-linejoin:round"
                 id="use488"
                 xlink:href="#Cmsy10-a1"
                 transform="matrix(0.7,0,0,0.7,496.98047,43.373438)" />
              <use
                 height="432"
                 width="576"
                 y="0"
                 x="0"
                 style="stroke-linecap:butt;stroke-linejoin:round"
                 id="use490"
                 xlink:href="#Cmr10-33"
                 transform="matrix(0.7,0,0,0.7,551.36035,43.373438)" />
              <use
                 height="432"
                 width="576"
                 y="0"
                 x="0"
                 style="stroke-linecap:butt;stroke-linejoin:round"
                 id="use492"
                 xlink:href="#Cmr10-29"
                 transform="translate(603.3666,0.8578125)" />
            </g>
          </g>
          <g
             style="stroke-linecap:butt;stroke-linejoin:round"
             id="line2d_50">
            <path
               inkscape:connector-curvature="0"
               id="path495"
               style="fill:none;stroke:#ff0000;stroke-width:2;stroke-linecap:butt;stroke-linejoin:round;stroke-dasharray:6, 6;stroke-dashoffset:0"
               d="m 321.8,139.4 28,0" />
          </g>
          <g
             style="stroke-linecap:butt;stroke-linejoin:round"
             id="line2d_51" />
          <g
             style="stroke-linecap:butt;stroke-linejoin:round"
             id="text_17">
            <!-- $\dddot{q_0}_{min} (rad.s^{-3})$ -->
            <defs
               id="defs499">
              <path
                 style="stroke-linecap:butt;stroke-linejoin:round"
                 inkscape:connector-curvature="0"
                 id="Cmmi10-6e"
                 d="m 7.71875,1.70312 q 0,0.59376 0.09375,0.89063 l 7.4687,29.82815 q 0.7344,2.7812 0.7344,4.8906 0,4.2969 -2.9218,4.2969 -3.12505,0 -4.64068,-3.75 -1.51562,-3.7344 -2.9375,-9.4375 0,-0.2969 -0.29687,-0.4688 Q 4.9375,27.7812 4.6875,27.7812 l -1.17188,0 q -0.34374,0 -0.59374,0.3594 -0.23438,0.375 -0.23438,0.6719 1.07812,4.3437 2.07812,7.3594 1,3.0312 3.125,5.5156 2.12498,2.5 5.29688,2.5 3.75,0 6.625,-2.375 2.8906,-2.3594 2.8906,-6.0156 2.9844,3.9062 6.9844,6.1406 4,2.25 8.5,2.25 3.5625,0 6.1406,-1.2187 2.5938,-1.2188 4.0313,-3.6876 1.4531,-2.4687 1.4531,-5.875 0,-4.1093 -1.8437,-9.9218 Q 46.1406,17.6719 43.4062,10.5 42,7.23438 42,4.5 q 0,-2.98438 2.2812,-2.98438 3.9063,0 6.5157,4.1875 2.625,4.20313 3.7031,8.99998 0.1875,0.5781 0.8281,0.5781 l 1.1719,0 q 0.3906,0 0.6562,-0.25 0.2657,-0.2343 0.2657,-0.625 0,-0.0937 -0.0938,-0.2968 Q 55.9531,8.45312 52.5625,3.65625 49.1719,-1.125 44.0938,-1.125 q -3.5157,0 -6.0157,2.42188 -2.4843,2.42187 -2.4843,5.875 0,1.85937 0.7812,3.90622 1.2656,3.2813 2.9062,7.8125 1.6407,4.5469 2.6876,8.6875 1.0468,4.1563 1.0468,7.3281 0,2.7969 -1.1562,4.75 -1.1406,1.9532 -3.875,1.9532 -3.6563,0 -6.7344,-1.625 -3.0781,-1.6094 -5.375,-4.2656 -2.2969,-2.6563 -4.1875,-6.3282 L 14.8906,2.20312 Q 14.5469,0.828125 13.3438,-0.140625 12.1562,-1.125 10.6875,-1.125 q -1.21875,0 -2.09375,0.78125 -0.875,0.78125 -0.875,2.04687" />
            </defs>
            <g
               style="stroke-linecap:butt;stroke-linejoin:round"
               id="g502"
               transform="matrix(0.2,0,0,-0.2,371.8,146.4)">
              <use
                 height="432"
                 width="576"
                 y="0"
                 x="0"
                 style="stroke-linecap:butt;stroke-linejoin:round"
                 id="use504"
                 xlink:href="#STIXGeneral-Regular-20db"
                 transform="translate(41.807133,2.6474001)" />
              <use
                 height="432"
                 width="576"
                 y="0"
                 x="0"
                 style="stroke-linecap:butt;stroke-linejoin:round"
                 id="use506"
                 xlink:href="#Cmmi10-71"
                 transform="translate(0,0.8578125)" />
              <use
                 height="432"
                 width="576"
                 y="0"
                 x="0"
                 style="stroke-linecap:butt;stroke-linejoin:round"
                 id="use508"
                 xlink:href="#Cmr10-30"
                 transform="matrix(0.7,0,0,0.7,44.580078,-24.651562)" />
              <use
                 height="432"
                 width="576"
                 y="0"
                 x="0"
                 style="stroke-linecap:butt;stroke-linejoin:round"
                 id="use510"
                 xlink:href="#Cmmi10-6d"
                 transform="matrix(0.7,0,0,0.7,94.580078,-24.651562)" />
              <use
                 height="432"
                 width="576"
                 y="0"
                 x="0"
                 style="stroke-linecap:butt;stroke-linejoin:round"
                 id="use512"
                 xlink:href="#Cmmi10-69"
                 transform="matrix(0.7,0,0,0.7,156.03516,-24.651562)" />
              <use
                 height="432"
                 width="576"
                 y="0"
                 x="0"
                 style="stroke-linecap:butt;stroke-linejoin:round"
                 id="use514"
                 xlink:href="#Cmmi10-6e"
                 transform="matrix(0.7,0,0,0.7,180.13184,-24.651562)" />
              <use
                 height="432"
                 width="576"
                 y="0"
                 x="0"
                 style="stroke-linecap:butt;stroke-linejoin:round"
                 id="use516"
                 xlink:href="#Cmr10-28"
                 transform="translate(222.13867,0.8578125)" />
              <use
                 height="432"
                 width="576"
                 y="0"
                 x="0"
                 style="stroke-linecap:butt;stroke-linejoin:round"
                 id="use518"
                 xlink:href="#Cmmi10-72"
                 transform="translate(260.95703,0.8578125)" />
              <use
                 height="432"
                 width="576"
                 y="0"
                 x="0"
                 style="stroke-linecap:butt;stroke-linejoin:round"
                 id="use520"
                 xlink:href="#Cmmi10-61"
                 transform="translate(306.07422,0.8578125)" />
              <use
                 height="432"
                 width="576"
                 y="0"
                 x="0"
                 style="stroke-linecap:butt;stroke-linejoin:round"
                 id="use522"
                 xlink:href="#Cmmi10-64"
                 transform="translate(358.85742,0.8578125)" />
              <use
                 height="432"
                 width="576"
                 y="0"
                 x="0"
                 style="stroke-linecap:butt;stroke-linejoin:round"
                 id="use524"
                 xlink:href="#Cmmi10-3a"
                 transform="translate(410.85937,0.8578125)" />
              <use
                 height="432"
                 width="576"
                 y="0"
                 x="0"
                 style="stroke-linecap:butt;stroke-linejoin:round"
                 id="use526"
                 xlink:href="#Cmmi10-73"
                 transform="translate(439.40234,0.8578125)" />
              <use
                 height="432"
                 width="576"
                 y="0"
                 x="0"
                 style="stroke-linecap:butt;stroke-linejoin:round"
                 id="use528"
                 xlink:href="#Cmsy10-a1"
                 transform="matrix(0.7,0,0,0.7,486.17969,43.373438)" />
              <use
                 height="432"
                 width="576"
                 y="0"
                 x="0"
                 style="stroke-linecap:butt;stroke-linejoin:round"
                 id="use530"
                 xlink:href="#Cmr10-33"
                 transform="matrix(0.7,0,0,0.7,540.55957,43.373438)" />
              <use
                 height="432"
                 width="576"
                 y="0"
                 x="0"
                 style="stroke-linecap:butt;stroke-linejoin:round"
                 id="use532"
                 xlink:href="#Cmr10-29"
                 transform="translate(592.56582,0.8578125)" />
            </g>
          </g>
        </g>
      </g>
    </g>
  </g>
  <defs
     id="defs534">
    <clipPath
       id="p7ff5b81e1d">
      <rect
         height="345.6"
         width="446.4"
         x="72.0"
         y="43.2"
         id="rect537" />
    </clipPath>
  </defs>
</svg>
