<?xml version="1.0" encoding="UTF-8" standalone="no"?>
<!-- Created with Inkscape (http://www.inkscape.org/) -->

<svg
   xmlns:dc="http://purl.org/dc/elements/1.1/"
   xmlns:cc="http://creativecommons.org/ns#"
   xmlns:rdf="http://www.w3.org/1999/02/22-rdf-syntax-ns#"
   xmlns:svg="http://www.w3.org/2000/svg"
   xmlns="http://www.w3.org/2000/svg"
   xmlns:sodipodi="http://sodipodi.sourceforge.net/DTD/sodipodi-0.dtd"
   xmlns:inkscape="http://www.inkscape.org/namespaces/inkscape"
   id="svg2"
   version="1.1"
   inkscape:version="0.48.3.1 r9886"
   width="720"
   height="540"
   xml:space="preserve"
   sodipodi:docname="Contsr_Ec_sum_Ep.pdf"><metadata
     id="metadata8"><rdf:RDF><cc:Work
         rdf:about=""><dc:format>image/svg+xml</dc:format><dc:type
           rdf:resource="http://purl.org/dc/dcmitype/StillImage" /><dc:title></dc:title></cc:Work></rdf:RDF></metadata><defs
     id="defs6"><clipPath
       clipPathUnits="userSpaceOnUse"
       id="clipPath22"><path
         d="m 72,388.801 446.398,0 0,-345.602 -446.398,0 0,345.602 z"
         id="path24" /></clipPath><clipPath
       clipPathUnits="userSpaceOnUse"
       id="clipPath30"><path
         d="M 0,0 576,0 576,432 0,432 0,0 z"
         id="path32" /></clipPath><clipPath
       clipPathUnits="userSpaceOnUse"
       id="clipPath46"><path
         d="M 0,0 576,0 576,432 0,432 0,0 z"
         id="path48" /></clipPath><clipPath
       clipPathUnits="userSpaceOnUse"
       id="clipPath62"><path
         d="M 0,0 576,0 576,432 0,432 0,0 z"
         id="path64" /></clipPath><clipPath
       clipPathUnits="userSpaceOnUse"
       id="clipPath88"><path
         d="m 72,388.801 446.398,0 0,-345.602 -446.398,0 0,345.602 z"
         id="path90" /></clipPath><clipPath
       clipPathUnits="userSpaceOnUse"
       id="clipPath96"><path
         d="M 0,0 576,0 576,432 0,432 0,0 z"
         id="path98" /></clipPath><clipPath
       clipPathUnits="userSpaceOnUse"
       id="clipPath122"><path
         d="m 72,388.801 446.398,0 0,-345.602 -446.398,0 0,345.602 z"
         id="path124" /></clipPath><clipPath
       clipPathUnits="userSpaceOnUse"
       id="clipPath130"><path
         d="M 0,0 576,0 576,432 0,432 0,0 z"
         id="path132" /></clipPath><clipPath
       clipPathUnits="userSpaceOnUse"
       id="clipPath156"><path
         d="m 72,388.801 446.398,0 0,-345.602 -446.398,0 0,345.602 z"
         id="path158" /></clipPath><clipPath
       clipPathUnits="userSpaceOnUse"
       id="clipPath164"><path
         d="M 0,0 576,0 576,432 0,432 0,0 z"
         id="path166" /></clipPath><clipPath
       clipPathUnits="userSpaceOnUse"
       id="clipPath190"><path
         d="m 72,388.801 446.398,0 0,-345.602 -446.398,0 0,345.602 z"
         id="path192" /></clipPath><clipPath
       clipPathUnits="userSpaceOnUse"
       id="clipPath198"><path
         d="M 0,0 576,0 576,432 0,432 0,0 z"
         id="path200" /></clipPath><clipPath
       clipPathUnits="userSpaceOnUse"
       id="clipPath224"><path
         d="m 72,388.801 446.398,0 0,-345.602 -446.398,0 0,345.602 z"
         id="path226" /></clipPath><clipPath
       clipPathUnits="userSpaceOnUse"
       id="clipPath232"><path
         d="M 0,0 576,0 576,432 0,432 0,0 z"
         id="path234" /></clipPath><clipPath
       clipPathUnits="userSpaceOnUse"
       id="clipPath258"><path
         d="m 72,388.801 446.398,0 0,-345.602 -446.398,0 0,345.602 z"
         id="path260" /></clipPath><clipPath
       clipPathUnits="userSpaceOnUse"
       id="clipPath266"><path
         d="M 0,0 576,0 576,432 0,432 0,0 z"
         id="path268" /></clipPath><clipPath
       clipPathUnits="userSpaceOnUse"
       id="clipPath308"><path
         d="m 72,388.801 446.398,0 0,-345.602 -446.398,0 0,345.602 z"
         id="path310" /></clipPath><clipPath
       clipPathUnits="userSpaceOnUse"
       id="clipPath316"><path
         d="M 0,0 576,0 576,432 0,432 0,0 z"
         id="path318" /></clipPath><clipPath
       clipPathUnits="userSpaceOnUse"
       id="clipPath342"><path
         d="m 38.949,51.035 17.664,0 0,-13.98 -17.664,0 0,13.98 z"
         id="path344" /></clipPath><clipPath
       clipPathUnits="userSpaceOnUse"
       id="clipPath350"><path
         d="M 0,0 576,0 576,432 0,432 0,0 z"
         id="path352" /></clipPath><clipPath
       clipPathUnits="userSpaceOnUse"
       id="clipPath366"><path
         d="m 72,388.801 446.398,0 0,-345.602 -446.398,0 0,345.602 z"
         id="path368" /></clipPath><clipPath
       clipPathUnits="userSpaceOnUse"
       id="clipPath374"><path
         d="M 0,0 576,0 576,432 0,432 0,0 z"
         id="path376" /></clipPath><clipPath
       clipPathUnits="userSpaceOnUse"
       id="clipPath400"><path
         d="m 72,388.801 446.398,0 0,-345.602 -446.398,0 0,345.602 z"
         id="path402" /></clipPath><clipPath
       clipPathUnits="userSpaceOnUse"
       id="clipPath408"><path
         d="M 0,0 576,0 576,432 0,432 0,0 z"
         id="path410" /></clipPath><clipPath
       clipPathUnits="userSpaceOnUse"
       id="clipPath434"><path
         d="m 72,388.801 446.398,0 0,-345.602 -446.398,0 0,345.602 z"
         id="path436" /></clipPath><clipPath
       clipPathUnits="userSpaceOnUse"
       id="clipPath442"><path
         d="M 0,0 576,0 576,432 0,432 0,0 z"
         id="path444" /></clipPath><clipPath
       clipPathUnits="userSpaceOnUse"
       id="clipPath468"><path
         d="m 72,388.801 446.398,0 0,-345.602 -446.398,0 0,345.602 z"
         id="path470" /></clipPath><clipPath
       clipPathUnits="userSpaceOnUse"
       id="clipPath476"><path
         d="M 0,0 576,0 576,432 0,432 0,0 z"
         id="path478" /></clipPath><clipPath
       clipPathUnits="userSpaceOnUse"
       id="clipPath502"><path
         d="m 72,388.801 446.398,0 0,-345.602 -446.398,0 0,345.602 z"
         id="path504" /></clipPath><clipPath
       clipPathUnits="userSpaceOnUse"
       id="clipPath510"><path
         d="M 0,0 576,0 576,432 0,432 0,0 z"
         id="path512" /></clipPath><clipPath
       clipPathUnits="userSpaceOnUse"
       id="clipPath540"><path
         d="m 84.809,402.949 17.664,0 0,-13.98 -17.664,0 0,13.98 z"
         id="path542" /></clipPath><clipPath
       clipPathUnits="userSpaceOnUse"
       id="clipPath548"><path
         d="M 0,0 576,0 576,432 0,432 0,0 z"
         id="path550" /></clipPath></defs><sodipodi:namedview
     pagecolor="#ffffff"
     bordercolor="#666666"
     borderopacity="1"
     objecttolerance="10"
     gridtolerance="10"
     guidetolerance="10"
     inkscape:pageopacity="0"
     inkscape:pageshadow="2"
     inkscape:window-width="1535"
     inkscape:window-height="876"
     id="namedview4"
     showgrid="false"
     inkscape:zoom="1.2361274"
     inkscape:cx="401.57163"
     inkscape:cy="409.62453"
     inkscape:window-x="65"
     inkscape:window-y="24"
     inkscape:window-maximized="1"
     inkscape:current-layer="g10" /><g
     id="g10"
     inkscape:groupmode="layer"
     inkscape:label="Contsr_Ec_sum_Ep"
     transform="matrix(1.25,0,0,-1.25,0,540)"><g
       id="g12"><path
         d="M 0,0 576,0 576,432 0,432 0,0 z"
         style="fill:#ffffff;fill-opacity:1;fill-rule:nonzero;stroke:none"
         id="path14" /><path
         d="m 72,388.801 446.398,0 0,-345.602 -446.398,0 0,345.602 z"
         style="fill:#ffffff;fill-opacity:1;fill-rule:nonzero;stroke:none"
         id="path16" /></g><g
       id="g18"><g
         id="g20"
         clip-path="url(#clipPath22)"><g
           id="g26"><g
             id="g28" /><g
             id="g34"><g
               clip-path="url(#clipPath30)"
               id="g36"><g
                 id="g38"><path
                   d="m 72,100.801 91.805,0.109 1.711,0.262 1.371,0.433 1.234,0.622 1.168,0.835 1.234,1.176 1.301,1.571 1.442,2.093 1.918,3.235 3.91,6.703 1.371,1.851 1.094,1.125 0.961,0.676 0.824,0.328 0.82,0.082 0.754,-0.136 0.824,-0.383 0.891,-0.672 1.031,-1.086 1.164,-1.566 1.508,-2.422 5.828,-9.77 1.371,-1.664 1.235,-1.172 1.234,-0.871 1.234,-0.601 1.371,-0.414 1.645,-0.243 2.398,-0.093 11.383,-0.008 53.684,0.109 1.918,0.258 1.441,0.406 1.234,0.574 1.098,0.758 1.028,0.969 1.027,1.285 1.027,1.652 1.031,2.083 1.094,2.761 1.098,3.395 1.168,4.375 1.164,5.246 1.234,6.578 1.301,8.156 1.375,9.992 1.508,12.704 1.574,15.191 1.785,19.453 1.988,24.324 2.606,34.375 0.066,-0.5 2.879,-19.332 2.266,-13.547 1.988,-10.781 2.535,-12.332 1.989,-8.656 1.851,-7.305 0.067,-0.004 0.277,-1.285 2.535,-8.82 2.399,-7.363 2.402,-6.504 2.262,-5.434 2.261,-4.832 0.071,0.004 0.273,-0.684 2.262,-4.215 2.469,-4.062 2.332,-3.383 2.261,-2.914 2.399,-2.73 2.539,-2.543 2.672,-2.336 2.675,-2.028 2.879,-1.89 2.879,-1.621 3.086,-1.481 3.289,-1.332 3.496,-1.172 3.774,-1.027 3.906,-0.832 4.664,-0.785 5.004,-0.586 5.828,-0.442 6.856,-0.269 8.843,-0.098 22.625,0 41.547,-0.043 14.813,-0.152 0.41,-0.313 0.547,-0.738 0.961,-1.742 1.988,-3.641 1.098,-1.519 1.027,-1.059 1.098,-0.801 1.164,-0.57 1.371,-0.418 1.785,-0.285 2.605,-0.168 5.278,-0.07 20.363,-0.008"
                   style="fill:none;stroke:#0000ff;stroke-opacity:1;stroke-width:2;stroke-linecap:square;stroke-linejoin:round;stroke-miterlimit:10;stroke-dasharray:none"
                   id="path40" /></g></g></g></g><g
           id="g42"><g
             id="g44" /><g
             id="g50"><g
               clip-path="url(#clipPath46)"
               id="g52"><g
                 id="g54"><path
                   d="m 72.047,433 0.023,-105.301 0.067,-55.25 39.558,0.113 9.395,0.266 5.965,0.313 11.793,0.902 14.601,1.117 9.188,0.715 0.89,0.187 1.442,0.418 1.371,0.602 1.301,0.789 1.304,1.047 1.301,1.324 1.371,1.727 1.371,2.07 1.512,2.684 1.711,3.55 1.922,4.559 2.125,5.645 2.742,7.921 5.211,15.329 0.07,0 0.274,0.953 2.328,6.109 1.648,3.832 0.067,0 0.273,0.738 1.715,3.375 1.508,2.496 1.441,1.965 1.301,1.43 1.305,1.121 1.371,0.879 1.3,0.582 1.512,0.422 1.781,0.246 2.333,0.09 61.222,-0.106 1.922,-0.273 1.371,-0.383 1.438,-0.594 1.371,-0.812 1.371,-1.102 1.234,-1.281 1.305,-1.691 1.234,-1.961 1.301,-2.481 1.371,-3.105 1.442,-3.653 0.273,-1.003 1.508,-4.852 1.508,-5.32 0.273,-1.371 1.648,-7.118 1.715,-8.379 1.918,-10.535 2.059,-12.562 2.328,-15.649 4.391,-29.922 2.191,-13.019 2.262,-12.078 2.195,-10.516 2.195,-9.429 1.438,-5.649 0.07,0 0.274,-1.285 2.195,-7.711 1.574,-5.039 0.07,0 0.274,-1.043 1.441,-4.188 0.067,0 0.277,-0.949 1.574,-4.164 0.071,0 0.273,-0.859 2.195,-5.16 1.852,-3.914 0.066,0 0.274,-0.684 2.261,-4.223 2.266,-3.75 2.262,-3.332 2.332,-3.043 2.398,-2.769 2.399,-2.442 2.539,-2.265 2.672,-2.086 2.742,-1.856 2.879,-1.675 3.019,-1.504 3.223,-1.356 3.426,-1.203 3.703,-1.062 3.976,-0.911 4.387,-0.773 4.731,-0.609 1.031,-0.11 5.484,-0.433 6.446,-0.278 8.5,-0.121 34.761,-0.004 85.356,0"
                   style="fill:none;stroke:#ff0000;stroke-opacity:1;stroke-width:2;stroke-linecap:butt;stroke-linejoin:round;stroke-miterlimit:10;stroke-dasharray:6,6;stroke-dashoffset:0"
                   id="path56" /></g></g></g></g><g
           id="g58"><g
             id="g60" /><g
             id="g66"><g
               clip-path="url(#clipPath62)"
               id="g68"><g
                 id="g70"><path
                   d="m 72,43.199 0,345.602"
                   style="fill:none;stroke:#000000;stroke-opacity:1;stroke-width:0.5;stroke-linecap:butt;stroke-linejoin:round;stroke-miterlimit:10;stroke-dasharray:1,3;stroke-dashoffset:0"
                   id="path72" /></g></g></g></g></g></g><g
       id="g74"><path
         d="m 72,43.199 0,4"
         style="fill:#000000;fill-opacity:1;fill-rule:nonzero;stroke:#000000;stroke-opacity:1;stroke-width:0.5;stroke-linecap:butt;stroke-linejoin:round;stroke-miterlimit:10;stroke-dasharray:none"
         id="path76" /><path
         d="m 72,388.801 0,-4"
         style="fill:#000000;fill-opacity:1;fill-rule:nonzero;stroke:#000000;stroke-opacity:1;stroke-width:0.5;stroke-linecap:butt;stroke-linejoin:round;stroke-miterlimit:10;stroke-dasharray:none"
         id="path78" /><text
         transform="matrix(1,0,0,-1,68.976562,30.075)"
         id="text80"><tspan
           style="fill:#000000;fill-opacity:1;fill-rule:nonzero;stroke:none;font-family:Bitstream Charter;font-variant:normal;font-weight:normal;font-size:12;writing-mode:lr;-inkscape-font-specification:BitstreamCharter"
           x="0"
           y="0"
           id="tspan82">0</tspan></text>
</g><g
       id="g84"><g
         id="g86"
         clip-path="url(#clipPath88)"><g
           id="g92"><g
             id="g94" /><g
             id="g100"><g
               clip-path="url(#clipPath96)"
               id="g102"><g
                 id="g104"><path
                   d="m 140.562,43.199 0,345.602"
                   style="fill:none;stroke:#000000;stroke-opacity:1;stroke-width:0.5;stroke-linecap:butt;stroke-linejoin:round;stroke-miterlimit:10;stroke-dasharray:1,3;stroke-dashoffset:0"
                   id="path106" /></g></g></g></g></g></g><g
       id="g108"><path
         d="m 140.562,43.199 0,4"
         style="fill:#000000;fill-opacity:1;fill-rule:nonzero;stroke:#000000;stroke-opacity:1;stroke-width:0.5;stroke-linecap:butt;stroke-linejoin:round;stroke-miterlimit:10;stroke-dasharray:none"
         id="path110" /><path
         d="m 140.562,388.801 0,-4"
         style="fill:#000000;fill-opacity:1;fill-rule:nonzero;stroke:#000000;stroke-opacity:1;stroke-width:0.5;stroke-linecap:butt;stroke-linejoin:round;stroke-miterlimit:10;stroke-dasharray:none"
         id="path112" /><text
         transform="matrix(1,0,0,-1,137.95152,30.075)"
         id="text114"><tspan
           style="fill:#000000;fill-opacity:1;fill-rule:nonzero;stroke:none;font-family:Bitstream Charter;font-variant:normal;font-weight:normal;font-size:12;writing-mode:lr;-inkscape-font-specification:BitstreamCharter"
           x="0"
           y="0"
           id="tspan116">1</tspan></text>
</g><g
       id="g118"><g
         id="g120"
         clip-path="url(#clipPath122)"><g
           id="g126"><g
             id="g128" /><g
             id="g134"><g
               clip-path="url(#clipPath130)"
               id="g136"><g
                 id="g138"><path
                   d="m 209.121,43.199 0,345.602"
                   style="fill:none;stroke:#000000;stroke-opacity:1;stroke-width:0.5;stroke-linecap:butt;stroke-linejoin:round;stroke-miterlimit:10;stroke-dasharray:1,3;stroke-dashoffset:0"
                   id="path140" /></g></g></g></g></g></g><g
       id="g142"><path
         d="m 209.121,43.199 0,4"
         style="fill:#000000;fill-opacity:1;fill-rule:nonzero;stroke:#000000;stroke-opacity:1;stroke-width:0.5;stroke-linecap:butt;stroke-linejoin:round;stroke-miterlimit:10;stroke-dasharray:none"
         id="path144" /><path
         d="m 209.121,388.801 0,-4"
         style="fill:#000000;fill-opacity:1;fill-rule:nonzero;stroke:#000000;stroke-opacity:1;stroke-width:0.5;stroke-linecap:butt;stroke-linejoin:round;stroke-miterlimit:10;stroke-dasharray:none"
         id="path146" /><text
         transform="matrix(1,0,0,-1,206.34054,30.075)"
         id="text148"><tspan
           style="fill:#000000;fill-opacity:1;fill-rule:nonzero;stroke:none;font-family:Bitstream Charter;font-variant:normal;font-weight:normal;font-size:12;writing-mode:lr;-inkscape-font-specification:BitstreamCharter"
           x="0"
           y="0"
           id="tspan150">2</tspan></text>
</g><g
       id="g152"><g
         id="g154"
         clip-path="url(#clipPath156)"><g
           id="g160"><g
             id="g162" /><g
             id="g168"><g
               clip-path="url(#clipPath164)"
               id="g170"><g
                 id="g172"><path
                   d="m 277.684,43.199 0,345.602"
                   style="fill:none;stroke:#000000;stroke-opacity:1;stroke-width:0.5;stroke-linecap:butt;stroke-linejoin:round;stroke-miterlimit:10;stroke-dasharray:1,3;stroke-dashoffset:0"
                   id="path174" /></g></g></g></g></g></g><g
       id="g176"><path
         d="m 277.684,43.199 0,4"
         style="fill:#000000;fill-opacity:1;fill-rule:nonzero;stroke:#000000;stroke-opacity:1;stroke-width:0.5;stroke-linecap:butt;stroke-linejoin:round;stroke-miterlimit:10;stroke-dasharray:none"
         id="path178" /><path
         d="m 277.684,388.801 0,-4"
         style="fill:#000000;fill-opacity:1;fill-rule:nonzero;stroke:#000000;stroke-opacity:1;stroke-width:0.5;stroke-linecap:butt;stroke-linejoin:round;stroke-miterlimit:10;stroke-dasharray:none"
         id="path180" /><text
         transform="matrix(1,0,0,-1,274.80769,30.075)"
         id="text182"><tspan
           style="fill:#000000;fill-opacity:1;fill-rule:nonzero;stroke:none;font-family:Bitstream Charter;font-variant:normal;font-weight:normal;font-size:12;writing-mode:lr;-inkscape-font-specification:BitstreamCharter"
           x="0"
           y="0"
           id="tspan184">3</tspan></text>
</g><g
       id="g186"><g
         id="g188"
         clip-path="url(#clipPath190)"><g
           id="g194"><g
             id="g196" /><g
             id="g202"><g
               clip-path="url(#clipPath198)"
               id="g204"><g
                 id="g206"><path
                   d="m 346.242,43.199 0,345.602"
                   style="fill:none;stroke:#000000;stroke-opacity:1;stroke-width:0.5;stroke-linecap:butt;stroke-linejoin:round;stroke-miterlimit:10;stroke-dasharray:1,3;stroke-dashoffset:0"
                   id="path208" /></g></g></g></g></g></g><g
       id="g210"><path
         d="m 346.242,43.199 0,4"
         style="fill:#000000;fill-opacity:1;fill-rule:nonzero;stroke:#000000;stroke-opacity:1;stroke-width:0.5;stroke-linecap:butt;stroke-linejoin:round;stroke-miterlimit:10;stroke-dasharray:none"
         id="path212" /><path
         d="m 346.242,388.801 0,-4"
         style="fill:#000000;fill-opacity:1;fill-rule:nonzero;stroke:#000000;stroke-opacity:1;stroke-width:0.5;stroke-linecap:butt;stroke-linejoin:round;stroke-miterlimit:10;stroke-dasharray:none"
         id="path214" /><text
         transform="matrix(1,0,0,-1,343.05609,30.075)"
         id="text216"><tspan
           style="fill:#000000;fill-opacity:1;fill-rule:nonzero;stroke:none;font-family:Bitstream Charter;font-variant:normal;font-weight:normal;font-size:12;writing-mode:lr;-inkscape-font-specification:BitstreamCharter"
           x="0"
           y="0"
           id="tspan218">4</tspan></text>
</g><g
       id="g220"><g
         id="g222"
         clip-path="url(#clipPath224)"><g
           id="g228"><g
             id="g230" /><g
             id="g236"><g
               clip-path="url(#clipPath232)"
               id="g238"><g
                 id="g240"><path
                   d="m 414.805,43.199 0,345.602"
                   style="fill:none;stroke:#000000;stroke-opacity:1;stroke-width:0.5;stroke-linecap:butt;stroke-linejoin:round;stroke-miterlimit:10;stroke-dasharray:1,3;stroke-dashoffset:0"
                   id="path242" /></g></g></g></g></g></g><g
       id="g244"><path
         d="m 414.805,43.199 0,4"
         style="fill:#000000;fill-opacity:1;fill-rule:nonzero;stroke:#000000;stroke-opacity:1;stroke-width:0.5;stroke-linecap:butt;stroke-linejoin:round;stroke-miterlimit:10;stroke-dasharray:none"
         id="path246" /><path
         d="m 414.805,388.801 0,-4"
         style="fill:#000000;fill-opacity:1;fill-rule:nonzero;stroke:#000000;stroke-opacity:1;stroke-width:0.5;stroke-linecap:butt;stroke-linejoin:round;stroke-miterlimit:10;stroke-dasharray:none"
         id="path248" /><text
         transform="matrix(1,0,0,-1,411.96855,30.075)"
         id="text250"><tspan
           style="fill:#000000;fill-opacity:1;fill-rule:nonzero;stroke:none;font-family:Bitstream Charter;font-variant:normal;font-weight:normal;font-size:12;writing-mode:lr;-inkscape-font-specification:BitstreamCharter"
           x="0"
           y="0"
           id="tspan252">5</tspan></text>
</g><g
       id="g254"><g
         id="g256"
         clip-path="url(#clipPath258)"><g
           id="g262"><g
             id="g264" /><g
             id="g270"><g
               clip-path="url(#clipPath266)"
               id="g272"><g
                 id="g274"><path
                   d="m 483.367,43.199 0,345.602"
                   style="fill:none;stroke:#000000;stroke-opacity:1;stroke-width:0.5;stroke-linecap:butt;stroke-linejoin:round;stroke-miterlimit:10;stroke-dasharray:1,3;stroke-dashoffset:0"
                   id="path276" /></g></g></g></g></g></g><g
       id="g278"><path
         d="m 483.367,43.199 0,4"
         style="fill:#000000;fill-opacity:1;fill-rule:nonzero;stroke:#000000;stroke-opacity:1;stroke-width:0.5;stroke-linecap:butt;stroke-linejoin:round;stroke-miterlimit:10;stroke-dasharray:none"
         id="path280" /><path
         d="m 483.367,388.801 0,-4"
         style="fill:#000000;fill-opacity:1;fill-rule:nonzero;stroke:#000000;stroke-opacity:1;stroke-width:0.5;stroke-linecap:butt;stroke-linejoin:round;stroke-miterlimit:10;stroke-dasharray:none"
         id="path282" /><text
         transform="matrix(1,0,0,-1,480.34976,30.075)"
         id="text284"><tspan
           style="fill:#000000;fill-opacity:1;fill-rule:nonzero;stroke:none;font-family:Bitstream Charter;font-variant:normal;font-weight:normal;font-size:12;writing-mode:lr;-inkscape-font-specification:BitstreamCharter"
           x="0"
           y="0"
           id="tspan286">6</tspan></text>
<text
         transform="matrix(1,0,0,-1,262.2,7.575)"
         id="text288"><tspan
           style="fill:#000000;fill-opacity:1;fill-rule:nonzero;stroke:none;font-family:cmmi10;font-variant:normal;font-weight:normal;font-size:20;writing-mode:lr;-inkscape-font-specification:Cmmi10"
           x="0 7.2 14.08 31.62"
           y="0"
           sodipodi:role="line"
           id="tspan290">time</tspan></text>
<text
         transform="matrix(1,0,0,-1,303.1,7.575)"
         id="text292"><tspan
           style="fill:#000000;fill-opacity:1;fill-rule:nonzero;stroke:none;font-family:cmr10;font-variant:normal;font-weight:normal;font-size:20;writing-mode:lr;-inkscape-font-specification:Cmr10"
           x="0"
           y="0"
           id="tspan294">(</tspan></text>
<text
         transform="matrix(1,0,0,-1,310.86,7.575)"
         id="text296"><tspan
           style="fill:#000000;fill-opacity:1;fill-rule:nonzero;stroke:none;font-family:cmmi10;font-variant:normal;font-weight:normal;font-size:20;writing-mode:lr;-inkscape-font-specification:Cmmi10"
           x="0"
           y="0"
           id="tspan298">s</tspan></text>
<text
         transform="matrix(1,0,0,-1,320.2,7.575)"
         id="text300"><tspan
           style="fill:#000000;fill-opacity:1;fill-rule:nonzero;stroke:none;font-family:cmr10;font-variant:normal;font-weight:normal;font-size:20;writing-mode:lr;-inkscape-font-specification:Cmr10"
           x="0"
           y="0"
           id="tspan302">)</tspan></text>
</g><g
       id="g304"><g
         id="g306"
         clip-path="url(#clipPath308)"><g
           id="g312"><g
             id="g314" /><g
             id="g320"><g
               clip-path="url(#clipPath316)"
               id="g322"><g
                 id="g324"><path
                   d="m 72,43.199 446.398,0"
                   style="fill:none;stroke:#000000;stroke-opacity:1;stroke-width:0.5;stroke-linecap:butt;stroke-linejoin:round;stroke-miterlimit:10;stroke-dasharray:1,3;stroke-dashoffset:0"
                   id="path326" /></g></g></g></g></g></g><g
       id="g328"><path
         d="m 72,43.199 4,0"
         style="fill:#000000;fill-opacity:1;fill-rule:nonzero;stroke:#000000;stroke-opacity:1;stroke-width:0.5;stroke-linecap:butt;stroke-linejoin:round;stroke-miterlimit:10;stroke-dasharray:none"
         id="path330" /><path
         d="m 518.398,43.199 -4,0"
         style="fill:#000000;fill-opacity:1;fill-rule:nonzero;stroke:#000000;stroke-opacity:1;stroke-width:0.5;stroke-linecap:butt;stroke-linejoin:round;stroke-miterlimit:10;stroke-dasharray:none"
         id="path332" /><text
         transform="matrix(1,0,0,-1,51.210938,39.8875)"
         id="text334"><tspan
           style="fill:#000000;fill-opacity:1;fill-rule:nonzero;stroke:none;font-family:Bitstream Charter;font-variant:normal;font-weight:normal;font-size:12;writing-mode:lr;-inkscape-font-specification:BitstreamCharter"
           x="0 7.632 11.448"
           y="0"
           sodipodi:role="line"
           id="tspan336">0.5</tspan></text>
</g><g
       id="g338"><g
         id="g340"
         clip-path="url(#clipPath342)"><g
           id="g346"><g
             id="g348" /><g
             id="g354"><g
               clip-path="url(#clipPath350)"
               id="g356"><g
                 id="g358"><path
                   d="m 42.43,44.148 7.512,0 0,-0.996 -7.512,0 0,0.996 z"
                   style="fill:#000000;fill-opacity:1;fill-rule:nonzero;stroke:none"
                   id="path360" /></g></g></g></g></g></g><g
       id="g362"><g
         id="g364"
         clip-path="url(#clipPath366)"><g
           id="g370"><g
             id="g372" /><g
             id="g378"><g
               clip-path="url(#clipPath374)"
               id="g380"><g
                 id="g382"><path
                   d="m 72,100.801 446.398,0"
                   style="fill:none;stroke:#000000;stroke-opacity:1;stroke-width:0.5;stroke-linecap:butt;stroke-linejoin:round;stroke-miterlimit:10;stroke-dasharray:1,3;stroke-dashoffset:0"
                   id="path384" /></g></g></g></g></g></g><g
       id="g386"><path
         d="m 72,100.801 4,0"
         style="fill:#000000;fill-opacity:1;fill-rule:nonzero;stroke:#000000;stroke-opacity:1;stroke-width:0.5;stroke-linecap:butt;stroke-linejoin:round;stroke-miterlimit:10;stroke-dasharray:none"
         id="path388" /><path
         d="m 518.398,100.801 -4,0"
         style="fill:#000000;fill-opacity:1;fill-rule:nonzero;stroke:#000000;stroke-opacity:1;stroke-width:0.5;stroke-linecap:butt;stroke-linejoin:round;stroke-miterlimit:10;stroke-dasharray:none"
         id="path390" /><text
         transform="matrix(1,0,0,-1,50.5,97.4875)"
         id="text392"><tspan
           style="fill:#000000;fill-opacity:1;fill-rule:nonzero;stroke:none;font-family:Bitstream Charter;font-variant:normal;font-weight:normal;font-size:12;writing-mode:lr;-inkscape-font-specification:BitstreamCharter"
           x="0 7.632 11.448"
           y="0"
           sodipodi:role="line"
           id="tspan394">0.0</tspan></text>
</g><g
       id="g396"><g
         id="g398"
         clip-path="url(#clipPath400)"><g
           id="g404"><g
             id="g406" /><g
             id="g412"><g
               clip-path="url(#clipPath408)"
               id="g414"><g
                 id="g416"><path
                   d="m 72,158.398 446.398,0"
                   style="fill:none;stroke:#000000;stroke-opacity:1;stroke-width:0.5;stroke-linecap:butt;stroke-linejoin:round;stroke-miterlimit:10;stroke-dasharray:1,3;stroke-dashoffset:0"
                   id="path418" /></g></g></g></g></g></g><g
       id="g420"><path
         d="m 72,158.398 4,0"
         style="fill:#000000;fill-opacity:1;fill-rule:nonzero;stroke:#000000;stroke-opacity:1;stroke-width:0.5;stroke-linecap:butt;stroke-linejoin:round;stroke-miterlimit:10;stroke-dasharray:none"
         id="path422" /><path
         d="m 518.398,158.398 -4,0"
         style="fill:#000000;fill-opacity:1;fill-rule:nonzero;stroke:#000000;stroke-opacity:1;stroke-width:0.5;stroke-linecap:butt;stroke-linejoin:round;stroke-miterlimit:10;stroke-dasharray:none"
         id="path424" /><text
         transform="matrix(1,0,0,-1,50.75,155.0875)"
         id="text426"><tspan
           style="fill:#000000;fill-opacity:1;fill-rule:nonzero;stroke:none;font-family:Bitstream Charter;font-variant:normal;font-weight:normal;font-size:12;writing-mode:lr;-inkscape-font-specification:BitstreamCharter"
           x="0 7.632 11.448"
           y="0"
           sodipodi:role="line"
           id="tspan428">0.5</tspan></text>
</g><g
       id="g430"><g
         id="g432"
         clip-path="url(#clipPath434)"><g
           id="g438"><g
             id="g440" /><g
             id="g446"><g
               clip-path="url(#clipPath442)"
               id="g448"><g
                 id="g450"><path
                   d="m 72,216 446.398,0"
                   style="fill:none;stroke:#000000;stroke-opacity:1;stroke-width:0.5;stroke-linecap:butt;stroke-linejoin:round;stroke-miterlimit:10;stroke-dasharray:1,3;stroke-dashoffset:0"
                   id="path452" /></g></g></g></g></g></g><g
       id="g454"><path
         d="m 72,216 4,0"
         style="fill:#000000;fill-opacity:1;fill-rule:nonzero;stroke:#000000;stroke-opacity:1;stroke-width:0.5;stroke-linecap:butt;stroke-linejoin:round;stroke-miterlimit:10;stroke-dasharray:none"
         id="path456" /><path
         d="m 518.398,216 -4,0"
         style="fill:#000000;fill-opacity:1;fill-rule:nonzero;stroke:#000000;stroke-opacity:1;stroke-width:0.5;stroke-linecap:butt;stroke-linejoin:round;stroke-miterlimit:10;stroke-dasharray:none"
         id="path458" /><text
         transform="matrix(1,0,0,-1,51.015625,212.6875)"
         id="text460"><tspan
           style="fill:#000000;fill-opacity:1;fill-rule:nonzero;stroke:none;font-family:Bitstream Charter;font-variant:normal;font-weight:normal;font-size:12;writing-mode:lr;-inkscape-font-specification:BitstreamCharter"
           x="0 7.632 11.448"
           y="0"
           sodipodi:role="line"
           id="tspan462">1.0</tspan></text>
</g><g
       id="g464"><g
         id="g466"
         clip-path="url(#clipPath468)"><g
           id="g472"><g
             id="g474" /><g
             id="g480"><g
               clip-path="url(#clipPath476)"
               id="g482"><g
                 id="g484"><path
                   d="m 72,273.602 446.398,0"
                   style="fill:none;stroke:#000000;stroke-opacity:1;stroke-width:0.5;stroke-linecap:butt;stroke-linejoin:round;stroke-miterlimit:10;stroke-dasharray:1,3;stroke-dashoffset:0"
                   id="path486" /></g></g></g></g></g></g><g
       id="g488"><path
         d="m 72,273.602 4,0"
         style="fill:#000000;fill-opacity:1;fill-rule:nonzero;stroke:#000000;stroke-opacity:1;stroke-width:0.5;stroke-linecap:butt;stroke-linejoin:round;stroke-miterlimit:10;stroke-dasharray:none"
         id="path490" /><path
         d="m 518.398,273.602 -4,0"
         style="fill:#000000;fill-opacity:1;fill-rule:nonzero;stroke:#000000;stroke-opacity:1;stroke-width:0.5;stroke-linecap:butt;stroke-linejoin:round;stroke-miterlimit:10;stroke-dasharray:none"
         id="path492" /><text
         transform="matrix(1,0,0,-1,51.265625,270.2875)"
         id="text494"><tspan
           style="fill:#000000;fill-opacity:1;fill-rule:nonzero;stroke:none;font-family:Bitstream Charter;font-variant:normal;font-weight:normal;font-size:12;writing-mode:lr;-inkscape-font-specification:BitstreamCharter"
           x="0 7.632 11.448"
           y="0"
           sodipodi:role="line"
           id="tspan496">1.5</tspan></text>
</g><g
       id="g498"><g
         id="g500"
         clip-path="url(#clipPath502)"><g
           id="g506"><g
             id="g508" /><g
             id="g514"><g
               clip-path="url(#clipPath510)"
               id="g516"><g
                 id="g518"><path
                   d="m 72,331.199 446.398,0"
                   style="fill:none;stroke:#000000;stroke-opacity:1;stroke-width:0.5;stroke-linecap:butt;stroke-linejoin:round;stroke-miterlimit:10;stroke-dasharray:1,3;stroke-dashoffset:0"
                   id="path520" /></g></g></g></g></g></g><g
       id="g522"><path
         d="m 72,331.199 4,0"
         style="fill:#000000;fill-opacity:1;fill-rule:nonzero;stroke:#000000;stroke-opacity:1;stroke-width:0.5;stroke-linecap:butt;stroke-linejoin:round;stroke-miterlimit:10;stroke-dasharray:none"
         id="path524" /><path
         d="m 518.398,331.199 -4,0"
         style="fill:#000000;fill-opacity:1;fill-rule:nonzero;stroke:#000000;stroke-opacity:1;stroke-width:0.5;stroke-linecap:butt;stroke-linejoin:round;stroke-miterlimit:10;stroke-dasharray:none"
         id="path526" /><text
         transform="matrix(1,0,0,-1,50.578125,327.8875)"
         id="text528"><tspan
           style="fill:#000000;fill-opacity:1;fill-rule:nonzero;stroke:none;font-family:Bitstream Charter;font-variant:normal;font-weight:normal;font-size:12;writing-mode:lr;-inkscape-font-specification:BitstreamCharter"
           x="0 7.632 11.448"
           y="0"
           sodipodi:role="line"
           id="tspan530">2.0</tspan><tspan
           style="fill:#000000;fill-opacity:1;fill-rule:nonzero;stroke:none;font-family:Bitstream Charter;font-variant:normal;font-weight:normal;font-size:12;writing-mode:lr;-inkscape-font-specification:BitstreamCharter"
           x="0.2499996 7.8819996 11.6979996"
           y="-57.6"
           sodipodi:role="line"
           id="tspan532">2.5</tspan><tspan
           style="fill:#000000;fill-opacity:1;fill-rule:nonzero;stroke:none;font-family:Bitstream Charter;font-variant:normal;font-weight:normal;font-size:12;writing-mode:lr;-inkscape-font-specification:BitstreamCharter"
           x="21.4218756 29.0538756 46.4898756"
           y="-63.912504"
           sodipodi:role="line"
           id="tspan534">1e1</tspan></text>
</g><g
       id="g536"><g
         id="g538"
         clip-path="url(#clipPath540)"><g
           id="g544"><g
             id="g546" /><g
             id="g552"><g
               clip-path="url(#clipPath548)"
               id="g554"><g
                 id="g556"><path
                   d="m 88.289,396.059 7.512,0 0,-0.996 -7.512,0 0,0.996 z"
                   style="fill:#000000;fill-opacity:1;fill-rule:nonzero;stroke:none"
                   id="path558" /></g></g></g></g></g></g><g
       id="g560"><path
         d="m 72,388.801 446.398,0"
         style="fill:none;stroke:#000000;stroke-opacity:1;stroke-width:1;stroke-linecap:butt;stroke-linejoin:round;stroke-miterlimit:10;stroke-dasharray:none"
         id="path562" /><path
         d="m 518.398,43.199 0,345.602"
         style="fill:none;stroke:#000000;stroke-opacity:1;stroke-width:1;stroke-linecap:butt;stroke-linejoin:round;stroke-miterlimit:10;stroke-dasharray:none"
         id="path564" /><path
         d="m 72,43.199 446.398,0"
         style="fill:none;stroke:#000000;stroke-opacity:1;stroke-width:1;stroke-linecap:butt;stroke-linejoin:round;stroke-miterlimit:10;stroke-dasharray:none"
         id="path566" /><path
         d="m 72,43.199 0,345.602"
         style="fill:none;stroke:#000000;stroke-opacity:1;stroke-width:1;stroke-linecap:butt;stroke-linejoin:round;stroke-miterlimit:10;stroke-dasharray:none"
         id="path568" /><path
         d="m 347.398,378.801 161,0 0,-68.406 -161,0 0,68.406 z"
         style="fill:#ffffff;fill-opacity:1;fill-rule:nonzero;stroke:#000000;stroke-opacity:1;stroke-width:1;stroke-linecap:butt;stroke-linejoin:round;stroke-miterlimit:10;stroke-dasharray:none"
         id="path570" /><path
         d="m 361.398,362.598 28,0"
         style="fill:none;stroke:#0000ff;stroke-opacity:1;stroke-width:2;stroke-linecap:square;stroke-linejoin:round;stroke-miterlimit:10;stroke-dasharray:none"
         id="path572" /><text
         transform="matrix(1,0,0,-1,411.4,355.59687)"
         id="text574"><tspan
           style="fill:#000000;fill-opacity:1;fill-rule:nonzero;stroke:none;font-family:cmmi10;font-variant:normal;font-weight:normal;font-size:20;writing-mode:lr;-inkscape-font-specification:Cmmi10"
           x="0"
           y="0"
           id="tspan576">E</tspan></text>
<text
         transform="matrix(1,0,0,-1,425.04049,351.18144)"
         id="text578"><tspan
           style="font-size:14px;font-variant:normal;font-weight:normal;writing-mode:lr-tb;fill:#000000;fill-opacity:1;fill-rule:nonzero;stroke:none;font-family:cmmi10;-inkscape-font-specification:Cmmi10"
           x="0"
           y="0"
           id="tspan580">c</tspan></text>
<text
         transform="matrix(1,0,0,-1,459.23436,355.82568)"
         id="text582"><tspan
           style="fill:#000000;fill-opacity:1;fill-rule:nonzero;stroke:none;font-family:cmr10;font-variant:normal;font-weight:normal;font-size:20;writing-mode:lr;-inkscape-font-specification:Cmr10"
           x="0"
           y="0"
           id="tspan584">(</tspan></text>
<text
         transform="matrix(1,0,0,-1,466.99436,355.82568)"
         id="text586"><tspan
           style="fill:#000000;fill-opacity:1;fill-rule:nonzero;stroke:none;font-family:cmmi10;font-variant:normal;font-weight:normal;font-size:20;writing-mode:lr;-inkscape-font-specification:Cmmi10"
           x="0"
           y="0"
           id="tspan588">J</tspan></text>
<text
         transform="matrix(1,0,0,-1,478.07436,355.82568)"
         id="text590"><tspan
           style="fill:#000000;fill-opacity:1;fill-rule:nonzero;stroke:none;font-family:cmr10;font-variant:normal;font-weight:normal;font-size:20;writing-mode:lr;-inkscape-font-specification:Cmr10"
           x="0"
           y="0"
           id="tspan592">)</tspan></text>
<path
         d="m 361.398,331.395 28,0"
         style="fill:none;stroke:#ff0000;stroke-opacity:1;stroke-width:2;stroke-linecap:butt;stroke-linejoin:round;stroke-miterlimit:10;stroke-dasharray:6,6;stroke-dashoffset:0"
         id="path594" /><text
         transform="matrix(1,0,0,-1,411.4,324.39375)"
         id="text596"><tspan
           style="fill:#000000;fill-opacity:1;fill-rule:nonzero;stroke:none;font-family:cmmi10;font-variant:normal;font-weight:normal;font-size:20;writing-mode:lr;-inkscape-font-specification:Cmmi10"
           x="0"
           y="0"
           id="tspan598">E</tspan></text>
<text
         transform="matrix(1,0,0,-1,459.86,324.39375)"
         id="text600"><tspan
           style="fill:#000000;fill-opacity:1;fill-rule:nonzero;stroke:none;font-family:cmr10;font-variant:normal;font-weight:normal;font-size:20;writing-mode:lr;-inkscape-font-specification:Cmr10"
           x="0"
           y="0"
           id="tspan602">(</tspan></text>
<text
         transform="matrix(1,0,0,-1,467.62,324.39375)"
         id="text604"><tspan
           style="fill:#000000;fill-opacity:1;fill-rule:nonzero;stroke:none;font-family:cmmi10;font-variant:normal;font-weight:normal;font-size:20;writing-mode:lr;-inkscape-font-specification:Cmmi10"
           x="0"
           y="0"
           id="tspan606">J</tspan></text>
<text
         transform="matrix(1,0,0,-1,478.7,324.39375)"
         id="text608"><tspan
           style="fill:#000000;fill-opacity:1;fill-rule:nonzero;stroke:none;font-family:cmr10;font-variant:normal;font-weight:normal;font-size:20;writing-mode:lr;-inkscape-font-specification:Cmr10"
           x="0"
           y="0"
           id="tspan610">)</tspan></text>
<text
         transform="matrix(1,0,0,-1,425.59322,318.50848)"
         id="text612"><tspan
           style="fill:#000000;fill-opacity:1;fill-rule:nonzero;stroke:none;font-family:Nimbus Roman No9 L;font-variant:normal;font-weight:normal;font-size:14.4;writing-mode:lr;-inkscape-font-specification:NimbusRomanNo9L"
           x="0 6.3792 10.3824 14.3712 24.7824 28.7712"
           y="0"
           sodipodi:role="line"
           id="tspan614">climit</tspan></text>
</g><text
       xml:space="preserve"
       style="font-size:32px;font-style:normal;font-variant:normal;font-weight:normal;font-stretch:normal;line-height:125%;letter-spacing:0px;word-spacing:0px;fill:#000000;fill-opacity:1;stroke:none;font-family:Nimbus Roman No9 L;-inkscape-font-specification:Nimbus Roman No9 L"
       x="427.64975"
       y="-367.45157"
       id="text3599"
       sodipodi:linespacing="125%"
       transform="scale(1,-1)"><tspan
         sodipodi:role="line"
         id="tspan3601"
         x="427.64975"
         y="-367.45157"
         style="font-size:14.39999962px;font-style:normal;font-variant:normal;font-weight:bold;font-stretch:normal;font-family:cmmi10;-inkscape-font-specification:cmmi10 Bold">EE<tspan
   style="font-style:normal;font-variant:normal;font-weight:bold;font-stretch:normal;font-family:Tarablus;-inkscape-font-specification:Tarablus Bold"
   id="tspan3603">,</tspan>O</tspan></text>
</g></svg>