<?xml version="1.0" encoding="utf-8" standalone="no"?>
<!DOCTYPE svg PUBLIC "-//W3C//DTD SVG 1.1//EN"
  "http://www.w3.org/Graphics/SVG/1.1/DTD/svg11.dtd">
<!-- Created with matplotlib (http://matplotlib.org/) -->
<svg height="786pt" version="1.1" viewBox="0 0 1314 786" width="1314pt" xmlns="http://www.w3.org/2000/svg" xmlns:xlink="http://www.w3.org/1999/xlink">
 <defs>
  <style type="text/css">
*{stroke-linecap:butt;stroke-linejoin:round;}
  </style>
 </defs>
 <g id="figure_1">
  <g id="patch_1">
   <path d="
M0 786.6
L1314 786.6
L1314 0
L0 0
z
" style="fill:#ffffff;"/>
  </g>
  <g id="axes_1">
   <g id="patch_2">
    <path d="
M164.25 364.696
L627.136 364.696
L627.136 78.66
L164.25 78.66
z
" style="fill:#ffffff;"/>
   </g>
   <g id="line2d_1">
    <path clip-path="url(#p82128e215e)" d="
M164.25 309.549
L240.598 309.657
L242.826 309.942
L244.655 310.398
L246.427 311.082
L248.141 311.987
L250.027 313.253
L252.198 315.001
L255.799 318.252
L258.885 320.928
L260.942 322.439
L262.828 323.55
L264.542 324.307
L266.314 324.843
L268.199 325.173
L270.485 325.324
L274.2 325.303
L285.572 325.257
L290.715 325.402
L294.315 325.722
L297.573 326.238
L300.716 326.956
L304.316 328.014
L310.545 330.152
L314.945 331.538
L317.974 332.262
L320.603 332.67
L323.06 332.832
L325.517 332.767
L327.803 332.482
L329.86 332.005
L331.803 331.321
L333.575 330.465
L335.289 329.391
L336.947 328.097
L338.604 326.527
L340.261 324.661
L342.033 322.321
L343.861 319.519
L345.747 316.21
L347.747 312.233
L349.862 307.525
L352.262 301.618
L354.948 294.396
L357.977 285.593
L361.862 273.56
L372.149 241.359
L375.349 232.266
L378.149 224.95
L380.721 218.838
L383.121 213.703
L385.35 209.449
L387.464 205.877
L389.464 202.917
L391.407 200.42
L393.35 198.273
L395.293 196.452
L397.293 194.884
L399.293 193.593
L401.465 192.461
L403.808 191.504
L406.38 190.705
L409.294 190.033
L413.18 189.38
L424.266 187.884
L429.752 187.427
L435.924 187.175
L444.211 187.113
L465.183 187.075
L469.069 186.819
L472.212 186.408
L475.355 185.778
L478.556 184.916
L482.442 183.636
L491.071 180.713
L493.985 180.009
L496.614 179.602
L499.071 179.451
L501.414 179.528
L503.7 179.826
L505.757 180.312
L507.643 180.975
L509.472 181.85
L511.186 182.91
L512.901 184.231
L514.615 185.839
L516.329 187.757
L518.101 190.088
L519.93 192.881
L521.815 196.169
L523.873 200.215
L526.044 204.991
L528.444 210.839
L531.016 217.7
L534.045 226.436
L538.045 238.715
L546.617 265.23
L551.646 279.677
L554.56 287.465
L557.018 293.426
L559.304 298.413
L561.475 302.636
L563.589 306.268
L565.59 309.27
L567.533 311.798
L569.476 313.97
L571.419 315.811
L573.362 317.355
L575.362 318.666
L577.476 319.787
L579.705 320.719
L582.105 321.491
L584.905 322.161
L588.562 322.794
L595.134 323.635
L604.564 324.63
L610.735 325.051
L616.85 325.236
L624.622 325.26
L627.079 325.253
L627.079 325.253" style="fill:none;stroke:#0000ff;stroke-linecap:square;stroke-width:2.0;"/>
   </g>
   <g id="line2d_2">
    <path clip-path="url(#p82128e215e)" d="
M164.25 309.549
L240.598 309.656
L242.769 309.928
L244.598 310.37
L246.312 310.999
L248.141 311.915
L250.084 313.152
L252.37 314.894
L255.856 317.877
L259.399 320.817
L261.57 322.34
L263.513 323.435
L265.285 324.186
L267.114 324.72
L269.057 325.05
L271.457 325.215
L276.486 325.243
L289.744 325.353
L293.572 325.632
L296.887 326.095
L300.087 326.76
L303.687 327.743
L308.659 329.369
L315.06 331.418
L318.203 332.172
L320.888 332.589
L323.289 332.744
L325.632 332.682
L327.86 332.404
L329.918 331.922
L331.803 331.254
L333.575 330.397
L335.347 329.286
L337.061 327.942
L338.775 326.309
L340.49 324.367
L342.261 322.019
L344.09 319.217
L345.976 315.921
L347.976 311.975
L350.147 307.181
L352.49 301.446
L355.062 294.547
L358.034 285.913
L361.748 274.396
L373.635 236.975
L376.663 228.475
L379.292 221.739
L381.692 216.183
L383.921 211.566
L386.035 207.679
L387.578 205.234
L389.579 202.308
L391.521 199.856
L393.407 197.826
L395.35 196.067
L397.293 194.614
L399.293 193.398
L401.408 192.377
L403.694 191.525
L406.208 190.824
L409.237 190.214
L413.237 189.648
L420.78 188.848
L433.181 187.675
L439.467 187.309
L446.096 187.168
L468.155 186.905
L471.527 186.527
L474.727 185.955
L478.213 185.096
L482.384 183.814
L491.642 180.863
L494.614 180.196
L497.242 179.828
L499.7 179.709
L501.986 179.808
L504.214 180.124
L506.272 180.642
L508.157 181.344
L509.986 182.268
L511.758 183.422
L513.472 184.81
L515.186 186.487
L516.958 188.546
L518.787 191.035
L520.615 193.906
L522.558 197.38
L524.616 201.53
L526.787 206.42
L529.187 212.394
L531.873 219.711
L534.959 228.794
L539.017 241.486
L548.731 272.146
L551.932 281.349
L554.675 288.58
L557.132 294.454
L559.418 299.361
L561.589 303.505
L563.532 306.787
L563.647 306.878
L565.647 309.833
L567.59 312.313
L569.476 314.371
L571.361 316.108
L573.304 317.596
L575.305 318.843
L577.419 319.893
L579.648 320.752
L582.162 321.481
L585.077 322.095
L589.02 322.679
L595.191 323.356
L609.535 324.73
L615.707 325.089
L622.336 325.231
L627.079 325.243
L627.079 325.243" style="fill:none;stroke:#ff0000;stroke-dasharray:6.000000,6.000000;stroke-dashoffset:0.0;stroke-width:2.0;"/>
   </g>
   <g id="matplotlib.axis_1">
    <g id="xtick_1">
     <g id="line2d_3">
      <defs>
       <path d="
M0 0
L0 -4" id="m93b0483c22" style="stroke:#000000;stroke-width:0.5;"/>
      </defs>
      <g>
       <use style="stroke:#000000;stroke-width:0.5;" x="164.25" xlink:href="#m93b0483c22" y="364.696363636"/>
      </g>
     </g>
     <g id="line2d_4">
      <defs>
       <path d="
M0 0
L0 4" id="m741efc42ff" style="stroke:#000000;stroke-width:0.5;"/>
      </defs>
      <g>
       <use style="stroke:#000000;stroke-width:0.5;" x="164.25" xlink:href="#m741efc42ff" y="78.66"/>
      </g>
     </g>
     <g id="text_1">
      <!-- 0 -->
      <defs>
       <path d="
M31.7812 66.4062
Q24.1719 66.4062 20.3281 58.9062
Q16.5 51.4219 16.5 36.375
Q16.5 21.3906 20.3281 13.8906
Q24.1719 6.39062 31.7812 6.39062
Q39.4531 6.39062 43.2812 13.8906
Q47.125 21.3906 47.125 36.375
Q47.125 51.4219 43.2812 58.9062
Q39.4531 66.4062 31.7812 66.4062
M31.7812 74.2188
Q44.0469 74.2188 50.5156 64.5156
Q56.9844 54.8281 56.9844 36.375
Q56.9844 17.9688 50.5156 8.26562
Q44.0469 -1.42188 31.7812 -1.42188
Q19.5312 -1.42188 13.0625 8.26562
Q6.59375 17.9688 6.59375 36.375
Q6.59375 54.8281 13.0625 64.5156
Q19.5312 74.2188 31.7812 74.2188" id="BitstreamVeraSans-Roman-30"/>
      </defs>
      <g transform="translate(161.2265625 377.814488636)scale(0.12 -0.12)">
       <use xlink:href="#BitstreamVeraSans-Roman-30"/>
      </g>
     </g>
    </g>
    <g id="xtick_2">
     <g id="line2d_5">
      <g>
       <use style="stroke:#000000;stroke-width:0.5;" x="221.396464646" xlink:href="#m93b0483c22" y="364.696363636"/>
      </g>
     </g>
     <g id="line2d_6">
      <g>
       <use style="stroke:#000000;stroke-width:0.5;" x="221.396464646" xlink:href="#m741efc42ff" y="78.66"/>
      </g>
     </g>
     <g id="text_2">
      <!-- 1 -->
      <defs>
       <path d="
M12.4062 8.29688
L28.5156 8.29688
L28.5156 63.9219
L10.9844 60.4062
L10.9844 69.3906
L28.4219 72.9062
L38.2812 72.9062
L38.2812 8.29688
L54.3906 8.29688
L54.3906 0
L12.4062 0
z
" id="BitstreamVeraSans-Roman-31"/>
      </defs>
      <g transform="translate(218.792089646 377.814488636)scale(0.12 -0.12)">
       <use xlink:href="#BitstreamVeraSans-Roman-31"/>
      </g>
     </g>
    </g>
    <g id="xtick_3">
     <g id="line2d_7">
      <g>
       <use style="stroke:#000000;stroke-width:0.5;" x="278.542929293" xlink:href="#m93b0483c22" y="364.696363636"/>
      </g>
     </g>
     <g id="line2d_8">
      <g>
       <use style="stroke:#000000;stroke-width:0.5;" x="278.542929293" xlink:href="#m741efc42ff" y="78.66"/>
      </g>
     </g>
     <g id="text_3">
      <!-- 2 -->
      <defs>
       <path d="
M19.1875 8.29688
L53.6094 8.29688
L53.6094 0
L7.32812 0
L7.32812 8.29688
Q12.9375 14.1094 22.625 23.8906
Q32.3281 33.6875 34.8125 36.5312
Q39.5469 41.8438 41.4219 45.5312
Q43.3125 49.2188 43.3125 52.7812
Q43.3125 58.5938 39.2344 62.25
Q35.1562 65.9219 28.6094 65.9219
Q23.9688 65.9219 18.8125 64.3125
Q13.6719 62.7031 7.8125 59.4219
L7.8125 69.3906
Q13.7656 71.7812 18.9375 73
Q24.125 74.2188 28.4219 74.2188
Q39.75 74.2188 46.4844 68.5469
Q53.2188 62.8906 53.2188 53.4219
Q53.2188 48.9219 51.5312 44.8906
Q49.8594 40.875 45.4062 35.4062
Q44.1875 33.9844 37.6406 27.2188
Q31.1094 20.4531 19.1875 8.29688" id="BitstreamVeraSans-Roman-32"/>
      </defs>
      <g transform="translate(275.766054293 377.814488636)scale(0.12 -0.12)">
       <use xlink:href="#BitstreamVeraSans-Roman-32"/>
      </g>
     </g>
    </g>
    <g id="xtick_4">
     <g id="line2d_9">
      <g>
       <use style="stroke:#000000;stroke-width:0.5;" x="335.689393939" xlink:href="#m93b0483c22" y="364.696363636"/>
      </g>
     </g>
     <g id="line2d_10">
      <g>
       <use style="stroke:#000000;stroke-width:0.5;" x="335.689393939" xlink:href="#m741efc42ff" y="78.66"/>
      </g>
     </g>
     <g id="text_4">
      <!-- 3 -->
      <defs>
       <path d="
M40.5781 39.3125
Q47.6562 37.7969 51.625 33
Q55.6094 28.2188 55.6094 21.1875
Q55.6094 10.4062 48.1875 4.48438
Q40.7656 -1.42188 27.0938 -1.42188
Q22.5156 -1.42188 17.6562 -0.515625
Q12.7969 0.390625 7.625 2.20312
L7.625 11.7188
Q11.7188 9.32812 16.5938 8.10938
Q21.4844 6.89062 26.8125 6.89062
Q36.0781 6.89062 40.9375 10.5469
Q45.7969 14.2031 45.7969 21.1875
Q45.7969 27.6406 41.2812 31.2656
Q36.7656 34.9062 28.7188 34.9062
L20.2188 34.9062
L20.2188 43.0156
L29.1094 43.0156
Q36.375 43.0156 40.2344 45.9219
Q44.0938 48.8281 44.0938 54.2969
Q44.0938 59.9062 40.1094 62.9062
Q36.1406 65.9219 28.7188 65.9219
Q24.6562 65.9219 20.0156 65.0312
Q15.375 64.1562 9.8125 62.3125
L9.8125 71.0938
Q15.4375 72.6562 20.3438 73.4375
Q25.25 74.2188 29.5938 74.2188
Q40.8281 74.2188 47.3594 69.1094
Q53.9062 64.0156 53.9062 55.3281
Q53.9062 49.2656 50.4375 45.0938
Q46.9688 40.9219 40.5781 39.3125" id="BitstreamVeraSans-Roman-33"/>
      </defs>
      <g transform="translate(332.810331439 377.814488636)scale(0.12 -0.12)">
       <use xlink:href="#BitstreamVeraSans-Roman-33"/>
      </g>
     </g>
    </g>
    <g id="xtick_5">
     <g id="line2d_11">
      <g>
       <use style="stroke:#000000;stroke-width:0.5;" x="392.835858586" xlink:href="#m93b0483c22" y="364.696363636"/>
      </g>
     </g>
     <g id="line2d_12">
      <g>
       <use style="stroke:#000000;stroke-width:0.5;" x="392.835858586" xlink:href="#m741efc42ff" y="78.66"/>
      </g>
     </g>
     <g id="text_5">
      <!-- 4 -->
      <defs>
       <path d="
M37.7969 64.3125
L12.8906 25.3906
L37.7969 25.3906
z

M35.2031 72.9062
L47.6094 72.9062
L47.6094 25.3906
L58.0156 25.3906
L58.0156 17.1875
L47.6094 17.1875
L47.6094 0
L37.7969 0
L37.7969 17.1875
L4.89062 17.1875
L4.89062 26.7031
z
" id="BitstreamVeraSans-Roman-34"/>
      </defs>
      <g transform="translate(389.648358586 377.814488636)scale(0.12 -0.12)">
       <use xlink:href="#BitstreamVeraSans-Roman-34"/>
      </g>
     </g>
    </g>
    <g id="xtick_6">
     <g id="line2d_13">
      <g>
       <use style="stroke:#000000;stroke-width:0.5;" x="449.982323232" xlink:href="#m93b0483c22" y="364.696363636"/>
      </g>
     </g>
     <g id="line2d_14">
      <g>
       <use style="stroke:#000000;stroke-width:0.5;" x="449.982323232" xlink:href="#m741efc42ff" y="78.66"/>
      </g>
     </g>
     <g id="text_6">
      <!-- 5 -->
      <defs>
       <path d="
M10.7969 72.9062
L49.5156 72.9062
L49.5156 64.5938
L19.8281 64.5938
L19.8281 46.7344
Q21.9688 47.4688 24.1094 47.8281
Q26.2656 48.1875 28.4219 48.1875
Q40.625 48.1875 47.75 41.5
Q54.8906 34.8125 54.8906 23.3906
Q54.8906 11.625 47.5625 5.09375
Q40.2344 -1.42188 26.9062 -1.42188
Q22.3125 -1.42188 17.5469 -0.640625
Q12.7969 0.140625 7.71875 1.70312
L7.71875 11.625
Q12.1094 9.23438 16.7969 8.0625
Q21.4844 6.89062 26.7031 6.89062
Q35.1562 6.89062 40.0781 11.3281
Q45.0156 15.7656 45.0156 23.3906
Q45.0156 31 40.0781 35.4375
Q35.1562 39.8906 26.7031 39.8906
Q22.75 39.8906 18.8125 39.0156
Q14.8906 38.1406 10.7969 36.2812
z
" id="BitstreamVeraSans-Roman-35"/>
      </defs>
      <g transform="translate(447.152010732 377.814488636)scale(0.12 -0.12)">
       <use xlink:href="#BitstreamVeraSans-Roman-35"/>
      </g>
     </g>
    </g>
    <g id="xtick_7">
     <g id="line2d_15">
      <g>
       <use style="stroke:#000000;stroke-width:0.5;" x="507.128787879" xlink:href="#m93b0483c22" y="364.696363636"/>
      </g>
     </g>
     <g id="line2d_16">
      <g>
       <use style="stroke:#000000;stroke-width:0.5;" x="507.128787879" xlink:href="#m741efc42ff" y="78.66"/>
      </g>
     </g>
     <g id="text_7">
      <!-- 6 -->
      <defs>
       <path d="
M33.0156 40.375
Q26.375 40.375 22.4844 35.8281
Q18.6094 31.2969 18.6094 23.3906
Q18.6094 15.5312 22.4844 10.9531
Q26.375 6.39062 33.0156 6.39062
Q39.6562 6.39062 43.5312 10.9531
Q47.4062 15.5312 47.4062 23.3906
Q47.4062 31.2969 43.5312 35.8281
Q39.6562 40.375 33.0156 40.375
M52.5938 71.2969
L52.5938 62.3125
Q48.875 64.0625 45.0938 64.9844
Q41.3125 65.9219 37.5938 65.9219
Q27.8281 65.9219 22.6719 59.3281
Q17.5312 52.7344 16.7969 39.4062
Q19.6719 43.6562 24.0156 45.9219
Q28.375 48.1875 33.5938 48.1875
Q44.5781 48.1875 50.9531 41.5156
Q57.3281 34.8594 57.3281 23.3906
Q57.3281 12.1562 50.6875 5.35938
Q44.0469 -1.42188 33.0156 -1.42188
Q20.3594 -1.42188 13.6719 8.26562
Q6.98438 17.9688 6.98438 36.375
Q6.98438 53.6562 15.1875 63.9375
Q23.3906 74.2188 37.2031 74.2188
Q40.9219 74.2188 44.7031 73.4844
Q48.4844 72.75 52.5938 71.2969" id="BitstreamVeraSans-Roman-36"/>
      </defs>
      <g transform="translate(504.108162879 377.814488636)scale(0.12 -0.12)">
       <use xlink:href="#BitstreamVeraSans-Roman-36"/>
      </g>
     </g>
    </g>
    <g id="xtick_8">
     <g id="line2d_17">
      <g>
       <use style="stroke:#000000;stroke-width:0.5;" x="564.275252525" xlink:href="#m93b0483c22" y="364.696363636"/>
      </g>
     </g>
     <g id="line2d_18">
      <g>
       <use style="stroke:#000000;stroke-width:0.5;" x="564.275252525" xlink:href="#m741efc42ff" y="78.66"/>
      </g>
     </g>
     <g id="text_8">
      <!-- 7 -->
      <defs>
       <path d="
M8.20312 72.9062
L55.0781 72.9062
L55.0781 68.7031
L28.6094 0
L18.3125 0
L43.2188 64.5938
L8.20312 64.5938
z
" id="BitstreamVeraSans-Roman-37"/>
      </defs>
      <g transform="translate(561.462752525 377.814488636)scale(0.12 -0.12)">
       <use xlink:href="#BitstreamVeraSans-Roman-37"/>
      </g>
     </g>
    </g>
    <g id="xtick_9">
     <g id="line2d_19">
      <g>
       <use style="stroke:#000000;stroke-width:0.5;" x="621.421717172" xlink:href="#m93b0483c22" y="364.696363636"/>
      </g>
     </g>
     <g id="line2d_20">
      <g>
       <use style="stroke:#000000;stroke-width:0.5;" x="621.421717172" xlink:href="#m741efc42ff" y="78.66"/>
      </g>
     </g>
     <g id="text_9">
      <!-- 8 -->
      <defs>
       <path d="
M31.7812 34.625
Q24.75 34.625 20.7188 30.8594
Q16.7031 27.0938 16.7031 20.5156
Q16.7031 13.9219 20.7188 10.1562
Q24.75 6.39062 31.7812 6.39062
Q38.8125 6.39062 42.8594 10.1719
Q46.9219 13.9688 46.9219 20.5156
Q46.9219 27.0938 42.8906 30.8594
Q38.875 34.625 31.7812 34.625
M21.9219 38.8125
Q15.5781 40.375 12.0312 44.7188
Q8.5 49.0781 8.5 55.3281
Q8.5 64.0625 14.7188 69.1406
Q20.9531 74.2188 31.7812 74.2188
Q42.6719 74.2188 48.875 69.1406
Q55.0781 64.0625 55.0781 55.3281
Q55.0781 49.0781 51.5312 44.7188
Q48 40.375 41.7031 38.8125
Q48.8281 37.1562 52.7969 32.3125
Q56.7812 27.4844 56.7812 20.5156
Q56.7812 9.90625 50.3125 4.23438
Q43.8438 -1.42188 31.7812 -1.42188
Q19.7344 -1.42188 13.25 4.23438
Q6.78125 9.90625 6.78125 20.5156
Q6.78125 27.4844 10.7812 32.3125
Q14.7969 37.1562 21.9219 38.8125
M18.3125 54.3906
Q18.3125 48.7344 21.8438 45.5625
Q25.3906 42.3906 31.7812 42.3906
Q38.1406 42.3906 41.7188 45.5625
Q45.3125 48.7344 45.3125 54.3906
Q45.3125 60.0625 41.7188 63.2344
Q38.1406 66.4062 31.7812 66.4062
Q25.3906 66.4062 21.8438 63.2344
Q18.3125 60.0625 18.3125 54.3906" id="BitstreamVeraSans-Roman-38"/>
      </defs>
      <g transform="translate(618.421717172 377.814488636)scale(0.12 -0.12)">
       <use xlink:href="#BitstreamVeraSans-Roman-38"/>
      </g>
     </g>
    </g>
    <g id="text_10">
     <!-- $time (s)$ -->
     <defs>
      <path d="
M7.71875 1.70312
Q7.71875 2.29688 7.8125 2.59375
L15.2812 32.4219
Q16.0156 35.2031 16.0156 37.3125
Q16.0156 41.6094 13.0938 41.6094
Q9.96875 41.6094 8.45312 37.8594
Q6.9375 34.125 5.51562 28.4219
Q5.51562 28.125 5.21875 27.9531
Q4.9375 27.7812 4.6875 27.7812
L3.51562 27.7812
Q3.17188 27.7812 2.92188 28.1406
Q2.6875 28.5156 2.6875 28.8125
Q3.76562 33.1562 4.76562 36.1719
Q5.76562 39.2031 7.89062 41.6875
Q10.0156 44.1875 13.1875 44.1875
Q16.9375 44.1875 19.8125 41.8125
Q22.7031 39.4531 22.7031 35.7969
Q25.6875 39.7031 29.6875 41.9375
Q33.6875 44.1875 38.1875 44.1875
Q42.9219 44.1875 46.3594 41.7656
Q49.8125 39.3594 49.8125 34.9062
Q52.875 39.2656 57 41.7188
Q61.1406 44.1875 66.0156 44.1875
Q71.1875 44.1875 74.3281 41.375
Q77.4844 38.5781 77.4844 33.4062
Q77.4844 29.2969 75.6562 23.4844
Q73.8281 17.6719 71.0938 10.5
Q69.6719 7.03125 69.6719 4.5
Q69.6719 1.51562 72.0156 1.51562
Q75.9219 1.51562 78.5156 5.70312
Q81.1094 9.90625 82.1719 14.7031
Q82.4688 15.2812 83.0156 15.2812
L84.1875 15.2812
Q84.5781 15.2812 84.8438 15.0156
Q85.1094 14.75 85.1094 14.4062
Q85.1094 14.3125 85.0156 14.1094
Q83.6406 8.45312 80.25 3.65625
Q76.8594 -1.125 71.7812 -1.125
Q68.2656 -1.125 65.7656 1.29688
Q63.2812 3.71875 63.2812 7.17188
Q63.2812 8.9375 64.1094 11.0781
Q66.9375 18.6094 68.8125 24.5156
Q70.7031 30.4219 70.7031 34.9062
Q70.7031 37.7031 69.5781 39.6562
Q68.4531 41.6094 65.8281 41.6094
Q60.3594 41.6094 56.3438 38.25
Q52.3438 34.9062 49.4219 29.3906
Q49.2188 28.4219 49.125 27.875
L42.6719 2.20312
Q42.3281 0.828125 41.125 -0.140625
Q39.9375 -1.125 38.4844 -1.125
Q37.3125 -1.125 36.4062 -0.34375
Q35.5 0.4375 35.5 1.70312
Q35.5 2.29688 35.5938 2.59375
L42 28.0781
Q43.0156 32.1719 43.0156 34.9062
Q43.0156 37.7031 41.8594 39.6562
Q40.7188 41.6094 37.9844 41.6094
Q34.3281 41.6094 31.25 39.9844
Q28.1719 38.375 25.875 35.7188
Q23.5781 33.0625 21.6875 29.3906
L14.8906 2.20312
Q14.5469 0.828125 13.3438 -0.140625
Q12.1562 -1.125 10.6875 -1.125
Q9.46875 -1.125 8.59375 -0.34375
Q7.71875 0.4375 7.71875 1.70312" id="Cmmi10-6d"/>
      <path d="
M31 -24.8125
Q25.4375 -20.4062 21.4062 -14.7188
Q17.3906 -9.03125 14.8125 -2.57812
Q12.25 3.85938 10.9844 10.8906
Q9.71875 17.9219 9.71875 25
Q9.71875 32.1719 10.9844 39.2031
Q12.25 46.2344 14.8594 52.7344
Q17.4844 59.2344 21.5312 64.8906
Q25.5938 70.5625 31 74.8125
Q31 75 31.5 75
L32.4219 75
Q32.7188 75 32.9531 74.7344
Q33.2031 74.4688 33.2031 74.125
Q33.2031 73.6875 33.0156 73.4844
Q28.125 68.7031 24.875 63.2344
Q21.625 57.7656 19.6406 51.5781
Q17.6719 45.4062 16.7969 38.7812
Q15.9219 32.1719 15.9219 25
Q15.9219 -6.78125 32.9062 -23.2969
Q33.2031 -23.5781 33.2031 -24.125
Q33.2031 -24.3594 32.9375 -24.6719
Q32.6719 -25 32.4219 -25
L31.5 -25
Q31 -25 31 -24.8125" id="Cmr10-28"/>
      <path d="
M6.5 -25
Q5.60938 -25 5.60938 -24.125
Q5.60938 -23.6875 5.8125 -23.4844
Q22.9062 -6.78125 22.9062 25
Q22.9062 56.7812 6 73.2969
Q5.60938 73.5312 5.60938 74.125
Q5.60938 74.4688 5.875 74.7344
Q6.15625 75 6.5 75
L7.42188 75
Q7.71875 75 7.90625 74.8125
Q15.0938 69.1406 19.875 61.0312
Q24.6562 52.9375 26.875 43.75
Q29.1094 34.5781 29.1094 25
Q29.1094 17.9219 27.9062 11.0625
Q26.7031 4.20312 24.0938 -2.45312
Q21.4844 -9.125 17.4844 -14.7656
Q13.4844 -20.4062 7.90625 -24.8125
Q7.71875 -25 7.42188 -25
z
" id="Cmr10-29"/>
      <path d="
M8.6875 6.10938
Q11.375 1.51562 19.4844 1.51562
Q23 1.51562 26.1719 2.70312
Q29.3438 3.90625 31.4219 6.29688
Q33.5 8.6875 33.5 12.1094
Q33.5 14.7031 31.6406 16.3594
Q29.7812 18.0156 27.0938 18.6094
L21.6875 19.6719
Q17.9688 20.6094 15.5781 23.1406
Q13.1875 25.6875 13.1875 29.2969
Q13.1875 33.7344 15.5938 37.1562
Q18.0156 40.5781 21.9688 42.375
Q25.9219 44.1875 30.1719 44.1875
Q34.7188 44.1875 38.2969 42.0156
Q41.8906 39.8438 41.8906 35.5938
Q41.8906 33.2969 40.5938 31.5312
Q39.3125 29.7812 37.0156 29.7812
Q35.6875 29.7812 34.7344 30.6406
Q33.7969 31.5 33.7969 32.8125
Q33.7969 33.9844 34.4531 35.0781
Q35.1094 36.1875 36.2031 36.8438
Q37.3125 37.5 38.4844 37.5
Q37.5938 39.6562 35.1719 40.625
Q32.7656 41.6094 29.9844 41.6094
Q27.4375 41.6094 24.8906 40.5781
Q22.3594 39.5469 20.8125 37.5625
Q19.2812 35.5938 19.2812 32.9062
Q19.2812 31.1094 20.5469 29.7344
Q21.8281 28.375 23.6875 27.7812
L29.5 26.6094
Q32.2812 26.0312 34.5938 24.5312
Q36.9219 23.0469 38.25 20.7656
Q39.5938 18.5 39.5938 15.5781
Q39.5938 11.8594 37.5156 8.25
Q35.4531 4.64062 32.4219 2.48438
Q27.0938 -1.125 19.3906 -1.125
Q14.0625 -1.125 9.60938 1.3125
Q5.17188 3.76562 5.17188 8.59375
Q5.17188 11.3281 6.75 13.3438
Q8.34375 15.375 11.0781 15.375
Q12.7031 15.375 13.7969 14.3906
Q14.8906 13.4219 14.8906 11.8125
Q14.8906 9.51562 13.1719 7.8125
Q11.4688 6.10938 9.1875 6.10938
z
" id="Cmmi10-73"/>
      <path d="
M20.125 -1.125
Q15.3281 -1.125 11.7344 1.35938
Q8.15625 3.85938 6.26562 8.07812
Q4.39062 12.3125 4.39062 17
Q4.39062 24.125 7.98438 30.3906
Q11.5781 36.6719 17.7188 40.4219
Q23.875 44.1875 30.9062 44.1875
Q35.2031 44.1875 38.4062 41.9688
Q41.6094 39.75 41.6094 35.5938
Q41.6094 29.8281 37.0156 27.0156
Q32.4219 24.2188 26.6562 23.5625
Q20.9062 22.9062 13.9219 22.9062
L13.625 22.9062
Q12.0156 16.9375 12.0156 12.7031
Q12.0156 8.25 14.0625 4.875
Q16.1094 1.51562 20.3125 1.51562
Q26.2656 1.51562 31.75 4.25
Q37.25 6.98438 40.7188 11.8125
Q41.0156 12.1094 41.5 12.1094
Q42 12.1094 42.5 11.5469
Q43.0156 10.9844 43.0156 10.5
Q43.0156 10.1094 42.8281 9.90625
Q39.1562 4.78125 32.9531 1.82812
Q26.7656 -1.125 20.125 -1.125
M14.2031 25.4844
Q20.0156 25.4844 24.9531 26.0156
Q29.8906 26.5625 33.8906 28.7344
Q37.8906 30.9062 37.8906 35.5
Q37.8906 37.3594 36.8594 38.75
Q35.8438 40.1406 34.2031 40.875
Q32.5625 41.6094 30.8125 41.6094
Q26.5625 41.6094 23.1719 39.3125
Q19.7812 37.0156 17.5781 33.3281
Q15.375 29.6406 14.2031 25.4844" id="Cmmi10-65"/>
      <path d="
M6.20312 8.10938
Q6.20312 9.57812 6.5 10.8906
L13.7188 39.5938
L3.21875 39.5938
Q2.20312 39.5938 2.20312 40.9219
Q2.59375 43.1094 3.51562 43.1094
L14.5938 43.1094
L18.6094 59.4219
Q19 60.75 20.1719 61.6719
Q21.3438 62.5938 22.7969 62.5938
Q24.0781 62.5938 24.9219 61.8281
Q25.7812 61.0781 25.7812 59.8125
Q25.7812 59.5156 25.75 59.3438
Q25.7344 59.1875 25.6875 58.9844
L21.6875 43.1094
L31.9844 43.1094
Q33.0156 43.1094 33.0156 41.7969
Q32.9531 41.5469 32.8125 40.9531
Q32.6719 40.375 32.4219 39.9844
Q32.1719 39.5938 31.6875 39.5938
L20.7969 39.5938
L13.625 10.6875
Q12.8906 7.85938 12.8906 5.8125
Q12.8906 1.51562 15.8281 1.51562
Q20.2188 1.51562 23.6094 5.64062
Q27 9.76562 28.8125 14.7031
Q29.2031 15.2812 29.5938 15.2812
L30.8125 15.2812
Q31.2031 15.2812 31.4375 15.0156
Q31.6875 14.75 31.6875 14.4062
Q31.6875 14.2031 31.5938 14.1094
Q29.3906 8.0625 25.1875 3.46875
Q21 -1.125 15.5781 -1.125
Q11.625 -1.125 8.90625 1.45312
Q6.20312 4.04688 6.20312 8.10938" id="Cmmi10-74"/>
      <path d="
M7.8125 7.17188
Q7.8125 9.03125 8.59375 11.0781
L16.7031 32.625
Q18.0156 36.2812 18.0156 38.625
Q18.0156 41.6094 15.8281 41.6094
Q11.8594 41.6094 9.29688 37.5312
Q6.73438 33.4531 5.51562 28.4219
Q5.32812 27.7812 4.6875 27.7812
L3.51562 27.7812
Q2.6875 27.7812 2.6875 28.7188
L2.6875 29
Q4.29688 34.9688 7.60938 39.5781
Q10.9375 44.1875 16.0156 44.1875
Q19.5781 44.1875 22.0469 41.8438
Q24.5156 39.5 24.5156 35.8906
Q24.5156 34.0312 23.6875 31.9844
L15.5781 10.5
Q14.2031 7.17188 14.2031 4.5
Q14.2031 1.51562 16.5 1.51562
Q20.4062 1.51562 23.0156 5.6875
Q25.6406 9.85938 26.7031 14.7031
Q26.9062 15.2812 27.4844 15.2812
L28.7188 15.2812
Q29.1094 15.2812 29.3438 15.0156
Q29.5938 14.75 29.5938 14.4062
Q29.5938 14.3125 29.5 14.1094
Q28.125 8.45312 24.7344 3.65625
Q21.3438 -1.125 16.3125 -1.125
Q12.7969 -1.125 10.2969 1.29688
Q7.8125 3.71875 7.8125 7.17188
M19.0938 60.5938
Q19.0938 62.7031 20.8438 64.4062
Q22.6094 66.1094 24.7031 66.1094
Q26.4219 66.1094 27.5156 65.0625
Q28.6094 64.0156 28.6094 62.4062
Q28.6094 60.1562 26.8281 58.4688
Q25.0469 56.7812 22.9062 56.7812
Q21.2969 56.7812 20.1875 57.875
Q19.0938 58.9844 19.0938 60.5938" id="Cmmi10-69"/>
     </defs>
     <g transform="translate(362.693181818 400.310113636)scale(0.2 -0.2)">
      <use xlink:href="#Cmmi10-74"/>
      <use transform="translate(36.083984375 0.0)" xlink:href="#Cmmi10-69"/>
      <use transform="translate(70.5078125 0.0)" xlink:href="#Cmmi10-6d"/>
      <use transform="translate(158.30078125 0.0)" xlink:href="#Cmmi10-65"/>
      <use transform="translate(204.78515625 0.0)" xlink:href="#Cmr10-28"/>
      <use transform="translate(243.603515625 0.0)" xlink:href="#Cmmi10-73"/>
      <use transform="translate(290.380859375 0.0)" xlink:href="#Cmr10-29"/>
     </g>
    </g>
   </g>
   <g id="matplotlib.axis_2">
    <g id="ytick_1">
     <g id="text_11">
      <!-- −0.6 -->
      <defs>
       <path d="
M10.5938 35.5
L73.1875 35.5
L73.1875 27.2031
L10.5938 27.2031
z
" id="BitstreamVeraSans-Roman-2212"/>
       <path d="
M10.6875 12.4062
L21 12.4062
L21 0
L10.6875 0
z
" id="BitstreamVeraSans-Roman-2e"/>
      </defs>
      <g transform="translate(133.1375 368.007613636)scale(0.12 -0.12)">
       <use xlink:href="#BitstreamVeraSans-Roman-2212"/>
       <use x="83.7890625" xlink:href="#BitstreamVeraSans-Roman-30"/>
       <use x="147.412109375" xlink:href="#BitstreamVeraSans-Roman-2e"/>
       <use x="179.19921875" xlink:href="#BitstreamVeraSans-Roman-36"/>
      </g>
     </g>
    </g>
    <g id="ytick_2">
     <g id="line2d_21">
      <defs>
       <path d="
M0 0
L4 0" id="m728421d6d4" style="stroke:#000000;stroke-width:0.5;"/>
      </defs>
      <g>
       <use style="stroke:#000000;stroke-width:0.5;" x="164.25" xlink:href="#m728421d6d4" y="325.2430721"/>
      </g>
     </g>
     <g id="line2d_22">
      <defs>
       <path d="
M0 0
L-4 0" id="mcb0005524f" style="stroke:#000000;stroke-width:0.5;"/>
      </defs>
      <g>
       <use style="stroke:#000000;stroke-width:0.5;" x="627.136363636" xlink:href="#mcb0005524f" y="325.2430721"/>
      </g>
     </g>
     <g id="text_12">
      <!-- −0.4 -->
      <g transform="translate(133.055 328.5543221)scale(0.12 -0.12)">
       <use xlink:href="#BitstreamVeraSans-Roman-2212"/>
       <use x="83.7890625" xlink:href="#BitstreamVeraSans-Roman-30"/>
       <use x="147.412109375" xlink:href="#BitstreamVeraSans-Roman-2e"/>
       <use x="179.19921875" xlink:href="#BitstreamVeraSans-Roman-34"/>
      </g>
     </g>
    </g>
    <g id="ytick_3">
     <g id="line2d_23">
      <g>
       <use style="stroke:#000000;stroke-width:0.5;" x="164.25" xlink:href="#m728421d6d4" y="285.789780564"/>
      </g>
     </g>
     <g id="line2d_24">
      <g>
       <use style="stroke:#000000;stroke-width:0.5;" x="627.136363636" xlink:href="#mcb0005524f" y="285.789780564"/>
      </g>
     </g>
     <g id="text_13">
      <!-- −0.2 -->
      <g transform="translate(133.58375 289.101030564)scale(0.12 -0.12)">
       <use xlink:href="#BitstreamVeraSans-Roman-2212"/>
       <use x="83.7890625" xlink:href="#BitstreamVeraSans-Roman-30"/>
       <use x="147.412109375" xlink:href="#BitstreamVeraSans-Roman-2e"/>
       <use x="179.19921875" xlink:href="#BitstreamVeraSans-Roman-32"/>
      </g>
     </g>
    </g>
    <g id="ytick_4">
     <g id="line2d_25">
      <g>
       <use style="stroke:#000000;stroke-width:0.5;" x="164.25" xlink:href="#m728421d6d4" y="246.336489028"/>
      </g>
     </g>
     <g id="line2d_26">
      <g>
       <use style="stroke:#000000;stroke-width:0.5;" x="627.136363636" xlink:href="#mcb0005524f" y="246.336489028"/>
      </g>
     </g>
     <g id="text_14">
      <!-- 0.0 -->
      <g transform="translate(142.754375 249.647739028)scale(0.12 -0.12)">
       <use xlink:href="#BitstreamVeraSans-Roman-30"/>
       <use x="63.623046875" xlink:href="#BitstreamVeraSans-Roman-2e"/>
       <use x="95.41015625" xlink:href="#BitstreamVeraSans-Roman-30"/>
      </g>
     </g>
    </g>
    <g id="ytick_5">
     <g id="line2d_27">
      <g>
       <use style="stroke:#000000;stroke-width:0.5;" x="164.25" xlink:href="#m728421d6d4" y="206.883197492"/>
      </g>
     </g>
     <g id="line2d_28">
      <g>
       <use style="stroke:#000000;stroke-width:0.5;" x="627.136363636" xlink:href="#mcb0005524f" y="206.883197492"/>
      </g>
     </g>
     <g id="text_15">
      <!-- 0.2 -->
      <g transform="translate(143.159375 210.194447492)scale(0.12 -0.12)">
       <use xlink:href="#BitstreamVeraSans-Roman-30"/>
       <use x="63.623046875" xlink:href="#BitstreamVeraSans-Roman-2e"/>
       <use x="95.41015625" xlink:href="#BitstreamVeraSans-Roman-32"/>
      </g>
     </g>
    </g>
    <g id="ytick_6">
     <g id="line2d_29">
      <g>
       <use style="stroke:#000000;stroke-width:0.5;" x="164.25" xlink:href="#m728421d6d4" y="167.429905956"/>
      </g>
     </g>
     <g id="line2d_30">
      <g>
       <use style="stroke:#000000;stroke-width:0.5;" x="627.136363636" xlink:href="#mcb0005524f" y="167.429905956"/>
      </g>
     </g>
     <g id="text_16">
      <!-- 0.4 -->
      <g transform="translate(142.630625 170.741155956)scale(0.12 -0.12)">
       <use xlink:href="#BitstreamVeraSans-Roman-30"/>
       <use x="63.623046875" xlink:href="#BitstreamVeraSans-Roman-2e"/>
       <use x="95.41015625" xlink:href="#BitstreamVeraSans-Roman-34"/>
      </g>
     </g>
    </g>
    <g id="ytick_7">
     <g id="line2d_31">
      <g>
       <use style="stroke:#000000;stroke-width:0.5;" x="164.25" xlink:href="#m728421d6d4" y="127.97661442"/>
      </g>
     </g>
     <g id="line2d_32">
      <g>
       <use style="stroke:#000000;stroke-width:0.5;" x="627.136363636" xlink:href="#mcb0005524f" y="127.97661442"/>
      </g>
     </g>
     <g id="text_17">
      <!-- 0.6 -->
      <g transform="translate(142.713125 131.28786442)scale(0.12 -0.12)">
       <use xlink:href="#BitstreamVeraSans-Roman-30"/>
       <use x="63.623046875" xlink:href="#BitstreamVeraSans-Roman-2e"/>
       <use x="95.41015625" xlink:href="#BitstreamVeraSans-Roman-36"/>
      </g>
     </g>
    </g>
    <g id="ytick_8">
     <g id="line2d_33">
      <g>
       <use style="stroke:#000000;stroke-width:0.5;" x="164.25" xlink:href="#m728421d6d4" y="88.523322884"/>
      </g>
     </g>
     <g id="line2d_34">
      <g>
       <use style="stroke:#000000;stroke-width:0.5;" x="627.136363636" xlink:href="#mcb0005524f" y="88.523322884"/>
      </g>
     </g>
     <g id="text_18">
      <!-- 0.8 -->
      <g transform="translate(142.77875 91.834572884)scale(0.12 -0.12)">
       <use xlink:href="#BitstreamVeraSans-Roman-30"/>
       <use x="63.623046875" xlink:href="#BitstreamVeraSans-Roman-2e"/>
       <use x="95.41015625" xlink:href="#BitstreamVeraSans-Roman-38"/>
      </g>
     </g>
    </g>
    <g id="text_19">
     <!-- $(m)$ -->
     <g transform="translate(123.055 238.278181818)rotate(-90.0)scale(0.2 -0.2)">
      <use xlink:href="#Cmr10-28"/>
      <use transform="translate(38.818359375 0.0)" xlink:href="#Cmmi10-6d"/>
      <use transform="translate(126.611328125 0.0)" xlink:href="#Cmr10-29"/>
     </g>
    </g>
   </g>
   <g id="patch_3">
    <path d="
M164.25 78.66
L627.136 78.66" style="fill:none;stroke:#000000;"/>
   </g>
   <g id="patch_4">
    <path d="
M627.136 364.696
L627.136 78.66" style="fill:none;stroke:#000000;"/>
   </g>
   <g id="patch_5">
    <path d="
M164.25 364.696
L627.136 364.696" style="fill:none;stroke:#000000;"/>
   </g>
   <g id="patch_6">
    <path d="
M164.25 364.696
L164.25 78.66" style="fill:none;stroke:#000000;"/>
   </g>
   <g id="legend_1">
    <g id="patch_7">
     <path d="
M517.736 155.857
L617.136 155.857
L617.136 88.66
L517.736 88.66
L517.736 155.857
z
" style="fill:#ffffff;stroke:#000000;"/>
    </g>
    <g id="line2d_35">
     <path d="
M531.736 104.857
L559.736 104.857" style="fill:none;stroke:#0000ff;stroke-linecap:square;stroke-width:2.0;"/>
    </g>
    <g id="line2d_36"/>
    <g id="text_20">
     <!-- $x_x$ -->
     <defs>
      <path d="
M7.8125 2.875
Q9.57812 1.51562 12.7969 1.51562
Q15.9219 1.51562 18.3125 4.51562
Q20.7031 7.51562 21.5781 11.0781
L26.125 28.8125
Q27.2031 33.6406 27.2031 35.4062
Q27.2031 37.8906 25.8125 39.75
Q24.4219 41.6094 21.9219 41.6094
Q18.75 41.6094 15.9688 39.625
Q13.1875 37.6406 11.2812 34.5938
Q9.375 31.5469 8.59375 28.4219
Q8.40625 27.7812 7.8125 27.7812
L6.59375 27.7812
Q5.8125 27.7812 5.8125 28.7188
L5.8125 29
Q6.78125 32.7188 9.125 36.25
Q11.4688 39.7969 14.8594 41.9844
Q18.2656 44.1875 22.125 44.1875
Q25.7812 44.1875 28.7344 42.2344
Q31.6875 40.2812 32.9062 36.9219
Q34.625 39.9844 37.2812 42.0781
Q39.9375 44.1875 43.1094 44.1875
Q45.2656 44.1875 47.5 43.4219
Q49.75 42.6719 51.1719 41.1094
Q52.5938 39.5469 52.5938 37.2031
Q52.5938 34.6719 50.9531 32.8281
Q49.3125 31 46.7812 31
Q45.1719 31 44.0938 32.0312
Q43.0156 33.0625 43.0156 34.625
Q43.0156 36.7188 44.4531 38.2969
Q45.9062 39.8906 47.9062 40.1875
Q46.0938 41.6094 42.9219 41.6094
Q39.7031 41.6094 37.3281 38.625
Q34.9688 35.6406 33.9844 31.9844
L29.5938 14.3125
Q28.5156 10.2969 28.5156 7.71875
Q28.5156 5.17188 29.9531 3.34375
Q31.3906 1.51562 33.7969 1.51562
Q38.4844 1.51562 42.1562 5.64062
Q45.8438 9.76562 47.0156 14.7031
Q47.2188 15.2812 47.7969 15.2812
L49.0312 15.2812
Q49.4219 15.2812 49.6562 15.0156
Q49.9062 14.75 49.9062 14.4062
Q49.9062 14.3125 49.8125 14.1094
Q48.3906 8.15625 43.8438 3.51562
Q39.3125 -1.125 33.5938 -1.125
Q29.9375 -1.125 26.9844 0.84375
Q24.0312 2.82812 22.7969 6.20312
Q21.2344 3.26562 18.4688 1.0625
Q15.7188 -1.125 12.5938 -1.125
Q10.4531 -1.125 8.17188 -0.359375
Q5.90625 0.390625 4.48438 1.95312
Q3.07812 3.51562 3.07812 5.90625
Q3.07812 8.25 4.70312 10.1719
Q6.34375 12.1094 8.79688 12.1094
Q10.4531 12.1094 11.5781 11.1094
Q12.7031 10.1094 12.7031 8.5
Q12.7031 6.39062 11.2969 4.82812
Q9.90625 3.26562 7.8125 2.875" id="Cmmi10-78"/>
     </defs>
     <g transform="translate(581.736363636 111.856875)scale(0.2 -0.2)">
      <use transform="translate(0.0 0.8125)" xlink:href="#Cmmi10-78"/>
      <use transform="translate(57.080078125 -24.696875)scale(0.7)" xlink:href="#Cmmi10-78"/>
     </g>
    </g>
    <g id="line2d_37">
     <path d="
M531.736 135.457
L559.736 135.457" style="fill:none;stroke:#ff0000;stroke-dasharray:6.000000,6.000000;stroke-dashoffset:0.0;stroke-width:2.0;"/>
    </g>
    <g id="line2d_38"/>
    <g id="text_21">
     <!-- $x^*_x$ -->
     <defs>
      <path d="
M9.42188 12.7031
Q8.29688 12.7031 7.39062 13.6406
Q6.5 14.5938 6.5 15.7188
Q6.5 17.4375 7.90625 18.1094
L22.3125 25
L7.90625 31.7812
Q6.5 32.375 6.5 34.1875
Q6.5 35.2969 7.39062 36.25
Q8.29688 37.2031 9.42188 37.2031
Q10.1562 37.2031 10.7969 36.7188
L23.5781 27.3906
L22.125 43.7031
Q22.125 44.9219 22.9531 45.7031
Q23.7812 46.4844 25 46.4844
Q26.1719 46.4844 26.9688 45.75
Q27.7812 45.0156 27.7812 43.8906
L27.7812 43.7031
L26.3125 27.3906
L39.1094 36.7188
Q39.75 37.2031 40.4844 37.2031
Q41.7031 37.2031 42.5469 36.25
Q43.4062 35.2969 43.4062 34.1875
Q43.4062 32.375 42 31.7812
L27.5938 25
L42 18.1094
Q43.4062 17.4375 43.4062 15.7188
Q43.4062 14.5938 42.5469 13.6406
Q41.7031 12.7031 40.4844 12.7031
Q39.75 12.7031 39.1094 13.1875
L26.3125 22.5156
L27.7812 6.29688
L27.7812 6
Q27.7812 4.89062 26.9219 4.15625
Q26.0781 3.42188 25 3.42188
Q23.8281 3.42188 22.9688 4.21875
Q22.125 5.03125 22.125 6.20312
L23.5781 22.5156
L10.7969 13.1875
Q10.1562 12.7031 9.42188 12.7031" id="Cmsy10-a4"/>
     </defs>
     <g transform="translate(581.736363636 142.456875)scale(0.2 -0.2)">
      <use transform="translate(0.0 0.9453125)" xlink:href="#Cmmi10-78"/>
      <use transform="translate(81.61559375 43.4609375)scale(0.7)" xlink:href="#Cmsy10-a4"/>
      <use transform="translate(57.080078125 -24.5640625)scale(0.7)" xlink:href="#Cmmi10-78"/>
     </g>
    </g>
   </g>
  </g>
  <g id="axes_2">
   <g id="patch_8">
    <path d="
M719.714 364.696
L1182.6 364.696
L1182.6 78.66
L719.714 78.66
z
" style="fill:#ffffff;"/>
   </g>
   <g id="line2d_39">
    <path clip-path="url(#pfab327b29b)" d="
M719.714 172.17
L794.576 172.274
L795.89 172.567
L796.976 173.031
L797.947 173.671
L798.976 174.628
L800.004 175.91
L801.09 177.648
L802.233 179.926
L803.433 182.816
L804.805 186.72
L806.405 192
L808.348 199.234
L811.948 213.734
L814.577 223.864
L816.348 229.886
L817.891 234.382
L819.263 237.708
L820.463 240.077
L821.606 241.866
L822.692 243.167
L823.777 244.115
L824.863 244.759
L826.006 245.172
L827.32 245.403
L829.263 245.49
L845.15 245.511
L857.322 245.401
L879.838 244.949
L894.868 245.214
L898.011 244.946
L901.497 244.4
L904.354 243.715
L908.126 242.822
L910.697 242.483
L914.24 242.269
L919.326 242.166
L928.698 241.977
L941.27 241.562
L945.214 241.738
L948.071 242.06
L950.3 242.507
L952.471 243.179
L954.3 243.967
L956.129 244.989
L957.957 246.262
L959.843 247.842
L961.843 249.81
L964.015 252.27
L966.301 255.19
L968.872 258.827
L972.472 264.369
L978.587 274.269
L981.73 279.095
L984.13 282.364
L986.245 284.886
L988.245 286.945
L990.245 288.679
L992.131 290.018
L993.96 291.051
L995.845 291.856
L997.788 292.439
L1000.02 292.851
L1002.53 293.075
L1006.53 293.165
L1019.22 293.056
L1021.62 292.769
L1023.73 292.286
L1025.56 291.642
L1027.33 290.785
L1029.1 289.673
L1030.82 288.344
L1032.65 286.649
L1034.59 284.55
L1036.82 281.801
L1039.39 278.257
L1042.82 273.116
L1050.53 261.41
L1053.16 257.893
L1055.39 255.261
L1057.45 253.158
L1059.56 251.31
L1061.68 249.756
L1063.85 248.437
L1066.14 247.318
L1068.59 246.372
L1071.28 245.57
L1075.62 244.559
L1078.25 244.167
L1080.76 244.023
L1083.79 244.083
L1087.74 244.391
L1102.82 245.79
L1105.45 245.745
L1110.02 245.33
L1117.28 244.715
L1123.62 244.402
L1128.48 244.431
L1134.48 244.792
L1141.05 245.122
L1147.57 245.12
L1158.2 245.054
L1167.34 245.24
L1177.46 245.466
L1182.54 245.502
L1182.54 245.502" style="fill:none;stroke:#0000ff;stroke-linecap:square;stroke-width:2.0;"/>
   </g>
   <g id="line2d_40">
    <path clip-path="url(#pfab327b29b)" d="
M719.714 172.17
L794.576 172.276
L795.833 172.549
L796.976 173.027
L798.004 173.707
L798.976 174.61
L799.947 175.802
L801.033 177.505
L802.176 179.743
L803.433 182.739
L804.805 186.623
L806.405 191.883
L808.348 199.104
L811.662 212.462
L814.462 223.368
L816.291 229.653
L817.834 234.201
L819.206 237.573
L820.406 239.979
L821.549 241.8
L822.634 243.128
L823.663 244.055
L824.692 244.703
L825.835 245.153
L827.149 245.411
L828.921 245.509
L842.464 245.511
L893.725 245.4
L902.239 245.005
L909.097 244.437
L931.098 242.344
L936.184 242.199
L940.699 242.272
L945.728 242.592
L949.042 243.034
L951.443 243.587
L953.443 244.267
L955.329 245.136
L957.271 246.295
L959.043 247.605
L960.986 249.333
L962.929 251.363
L965.101 253.974
L967.386 257.07
L970.187 261.257
L974.301 267.879
L979.559 276.312
L982.473 280.561
L984.816 283.602
L986.988 286.056
L988.931 287.926
L990.816 289.436
L992.645 290.616
L994.474 291.53
L996.36 292.217
L998.36 292.702
L1000.47 292.998
L1003.45 293.162
L1008.87 293.187
L1018.93 293.078
L1021.45 292.802
L1023.45 292.376
L1025.28 291.778
L1027.1 290.946
L1028.88 289.893
L1030.65 288.583
L1032.53 286.904
L1034.48 284.875
L1036.71 282.203
L1039.22 278.815
L1042.48 274.006
L1051.62 260.324
L1054.13 257.106
L1055.91 255.149
L1058.02 253.016
L1060.14 251.187
L1062.25 249.649
L1064.36 248.383
L1066.42 247.39
L1068.71 246.539
L1070.88 245.944
L1073.28 245.495
L1075.91 245.211
L1079.39 245.09
L1082.99 245.169
L1089.51 245.551
L1097.62 245.982
L1104.25 246.093
L1111.45 245.982
L1138.94 245.405
L1151.4 245.412
L1176.89 245.514
L1182.54 245.515
L1182.54 245.515" style="fill:none;stroke:#ff0000;stroke-dasharray:6.000000,6.000000;stroke-dashoffset:0.0;stroke-width:2.0;"/>
   </g>
   <g id="matplotlib.axis_3">
    <g id="xtick_10">
     <g id="line2d_41">
      <g>
       <use style="stroke:#000000;stroke-width:0.5;" x="719.713636364" xlink:href="#m93b0483c22" y="364.696363636"/>
      </g>
     </g>
     <g id="line2d_42">
      <g>
       <use style="stroke:#000000;stroke-width:0.5;" x="719.713636364" xlink:href="#m741efc42ff" y="78.66"/>
      </g>
     </g>
     <g id="text_22">
      <!-- 0 -->
      <g transform="translate(716.690198864 377.814488636)scale(0.12 -0.12)">
       <use xlink:href="#BitstreamVeraSans-Roman-30"/>
      </g>
     </g>
    </g>
    <g id="xtick_11">
     <g id="line2d_43">
      <g>
       <use style="stroke:#000000;stroke-width:0.5;" x="776.86010101" xlink:href="#m93b0483c22" y="364.696363636"/>
      </g>
     </g>
     <g id="line2d_44">
      <g>
       <use style="stroke:#000000;stroke-width:0.5;" x="776.86010101" xlink:href="#m741efc42ff" y="78.66"/>
      </g>
     </g>
     <g id="text_23">
      <!-- 1 -->
      <g transform="translate(774.25572601 377.814488636)scale(0.12 -0.12)">
       <use xlink:href="#BitstreamVeraSans-Roman-31"/>
      </g>
     </g>
    </g>
    <g id="xtick_12">
     <g id="line2d_45">
      <g>
       <use style="stroke:#000000;stroke-width:0.5;" x="834.006565657" xlink:href="#m93b0483c22" y="364.696363636"/>
      </g>
     </g>
     <g id="line2d_46">
      <g>
       <use style="stroke:#000000;stroke-width:0.5;" x="834.006565657" xlink:href="#m741efc42ff" y="78.66"/>
      </g>
     </g>
     <g id="text_24">
      <!-- 2 -->
      <g transform="translate(831.229690657 377.814488636)scale(0.12 -0.12)">
       <use xlink:href="#BitstreamVeraSans-Roman-32"/>
      </g>
     </g>
    </g>
    <g id="xtick_13">
     <g id="line2d_47">
      <g>
       <use style="stroke:#000000;stroke-width:0.5;" x="891.153030303" xlink:href="#m93b0483c22" y="364.696363636"/>
      </g>
     </g>
     <g id="line2d_48">
      <g>
       <use style="stroke:#000000;stroke-width:0.5;" x="891.153030303" xlink:href="#m741efc42ff" y="78.66"/>
      </g>
     </g>
     <g id="text_25">
      <!-- 3 -->
      <g transform="translate(888.273967803 377.814488636)scale(0.12 -0.12)">
       <use xlink:href="#BitstreamVeraSans-Roman-33"/>
      </g>
     </g>
    </g>
    <g id="xtick_14">
     <g id="line2d_49">
      <g>
       <use style="stroke:#000000;stroke-width:0.5;" x="948.299494949" xlink:href="#m93b0483c22" y="364.696363636"/>
      </g>
     </g>
     <g id="line2d_50">
      <g>
       <use style="stroke:#000000;stroke-width:0.5;" x="948.299494949" xlink:href="#m741efc42ff" y="78.66"/>
      </g>
     </g>
     <g id="text_26">
      <!-- 4 -->
      <g transform="translate(945.111994949 377.814488636)scale(0.12 -0.12)">
       <use xlink:href="#BitstreamVeraSans-Roman-34"/>
      </g>
     </g>
    </g>
    <g id="xtick_15">
     <g id="line2d_51">
      <g>
       <use style="stroke:#000000;stroke-width:0.5;" x="1005.4459596" xlink:href="#m93b0483c22" y="364.696363636"/>
      </g>
     </g>
     <g id="line2d_52">
      <g>
       <use style="stroke:#000000;stroke-width:0.5;" x="1005.4459596" xlink:href="#m741efc42ff" y="78.66"/>
      </g>
     </g>
     <g id="text_27">
      <!-- 5 -->
      <g transform="translate(1002.6156471 377.814488636)scale(0.12 -0.12)">
       <use xlink:href="#BitstreamVeraSans-Roman-35"/>
      </g>
     </g>
    </g>
    <g id="xtick_16">
     <g id="line2d_53">
      <g>
       <use style="stroke:#000000;stroke-width:0.5;" x="1062.59242424" xlink:href="#m93b0483c22" y="364.696363636"/>
      </g>
     </g>
     <g id="line2d_54">
      <g>
       <use style="stroke:#000000;stroke-width:0.5;" x="1062.59242424" xlink:href="#m741efc42ff" y="78.66"/>
      </g>
     </g>
     <g id="text_28">
      <!-- 6 -->
      <g transform="translate(1059.57179924 377.814488636)scale(0.12 -0.12)">
       <use xlink:href="#BitstreamVeraSans-Roman-36"/>
      </g>
     </g>
    </g>
    <g id="xtick_17">
     <g id="line2d_55">
      <g>
       <use style="stroke:#000000;stroke-width:0.5;" x="1119.73888889" xlink:href="#m93b0483c22" y="364.696363636"/>
      </g>
     </g>
     <g id="line2d_56">
      <g>
       <use style="stroke:#000000;stroke-width:0.5;" x="1119.73888889" xlink:href="#m741efc42ff" y="78.66"/>
      </g>
     </g>
     <g id="text_29">
      <!-- 7 -->
      <g transform="translate(1116.92638889 377.814488636)scale(0.12 -0.12)">
       <use xlink:href="#BitstreamVeraSans-Roman-37"/>
      </g>
     </g>
    </g>
    <g id="xtick_18">
     <g id="line2d_57">
      <g>
       <use style="stroke:#000000;stroke-width:0.5;" x="1176.88535354" xlink:href="#m93b0483c22" y="364.696363636"/>
      </g>
     </g>
     <g id="line2d_58">
      <g>
       <use style="stroke:#000000;stroke-width:0.5;" x="1176.88535354" xlink:href="#m741efc42ff" y="78.66"/>
      </g>
     </g>
     <g id="text_30">
      <!-- 8 -->
      <g transform="translate(1173.88535354 377.814488636)scale(0.12 -0.12)">
       <use xlink:href="#BitstreamVeraSans-Roman-38"/>
      </g>
     </g>
    </g>
    <g id="text_31">
     <!-- $time (s)$ -->
     <g transform="translate(918.156818182 400.310113636)scale(0.2 -0.2)">
      <use xlink:href="#Cmmi10-74"/>
      <use transform="translate(36.083984375 0.0)" xlink:href="#Cmmi10-69"/>
      <use transform="translate(70.5078125 0.0)" xlink:href="#Cmmi10-6d"/>
      <use transform="translate(158.30078125 0.0)" xlink:href="#Cmmi10-65"/>
      <use transform="translate(204.78515625 0.0)" xlink:href="#Cmr10-28"/>
      <use transform="translate(243.603515625 0.0)" xlink:href="#Cmmi10-73"/>
      <use transform="translate(290.380859375 0.0)" xlink:href="#Cmr10-29"/>
     </g>
    </g>
   </g>
   <g id="matplotlib.axis_4">
    <g id="ytick_9">
     <g id="line2d_59">
      <g>
       <use style="stroke:#000000;stroke-width:0.5;" x="719.713636364" xlink:href="#m728421d6d4" y="340.86"/>
      </g>
     </g>
     <g id="line2d_60">
      <g>
       <use style="stroke:#000000;stroke-width:0.5;" x="1182.6" xlink:href="#mcb0005524f" y="340.86"/>
      </g>
     </g>
     <g id="text_32">
      <!-- 0.2 -->
      <g transform="translate(698.623011364 344.17125)scale(0.12 -0.12)">
       <use xlink:href="#BitstreamVeraSans-Roman-30"/>
       <use x="63.623046875" xlink:href="#BitstreamVeraSans-Roman-2e"/>
       <use x="95.41015625" xlink:href="#BitstreamVeraSans-Roman-32"/>
      </g>
     </g>
    </g>
    <g id="ytick_10">
     <g id="line2d_61">
      <g>
       <use style="stroke:#000000;stroke-width:0.5;" x="719.713636364" xlink:href="#m728421d6d4" y="293.187272727"/>
      </g>
     </g>
     <g id="line2d_62">
      <g>
       <use style="stroke:#000000;stroke-width:0.5;" x="1182.6" xlink:href="#mcb0005524f" y="293.187272727"/>
      </g>
     </g>
     <g id="text_33">
      <!-- 0.3 -->
      <g transform="translate(698.383011364 296.498522727)scale(0.12 -0.12)">
       <use xlink:href="#BitstreamVeraSans-Roman-30"/>
       <use x="63.623046875" xlink:href="#BitstreamVeraSans-Roman-2e"/>
       <use x="95.41015625" xlink:href="#BitstreamVeraSans-Roman-33"/>
      </g>
     </g>
    </g>
    <g id="ytick_11">
     <g id="line2d_63">
      <g>
       <use style="stroke:#000000;stroke-width:0.5;" x="719.713636364" xlink:href="#m728421d6d4" y="245.514545455"/>
      </g>
     </g>
     <g id="line2d_64">
      <g>
       <use style="stroke:#000000;stroke-width:0.5;" x="1182.6" xlink:href="#mcb0005524f" y="245.514545455"/>
      </g>
     </g>
     <g id="text_34">
      <!-- 0.4 -->
      <g transform="translate(698.094261364 248.825795455)scale(0.12 -0.12)">
       <use xlink:href="#BitstreamVeraSans-Roman-30"/>
       <use x="63.623046875" xlink:href="#BitstreamVeraSans-Roman-2e"/>
       <use x="95.41015625" xlink:href="#BitstreamVeraSans-Roman-34"/>
      </g>
     </g>
    </g>
    <g id="ytick_12">
     <g id="line2d_65">
      <g>
       <use style="stroke:#000000;stroke-width:0.5;" x="719.713636364" xlink:href="#m728421d6d4" y="197.841818182"/>
      </g>
     </g>
     <g id="line2d_66">
      <g>
       <use style="stroke:#000000;stroke-width:0.5;" x="1182.6" xlink:href="#mcb0005524f" y="197.841818182"/>
      </g>
     </g>
     <g id="text_35">
      <!-- 0.5 -->
      <g transform="translate(698.469261364 201.153068182)scale(0.12 -0.12)">
       <use xlink:href="#BitstreamVeraSans-Roman-30"/>
       <use x="63.623046875" xlink:href="#BitstreamVeraSans-Roman-2e"/>
       <use x="95.41015625" xlink:href="#BitstreamVeraSans-Roman-35"/>
      </g>
     </g>
    </g>
    <g id="ytick_13">
     <g id="line2d_67">
      <g>
       <use style="stroke:#000000;stroke-width:0.5;" x="719.713636364" xlink:href="#m728421d6d4" y="150.169090909"/>
      </g>
     </g>
     <g id="line2d_68">
      <g>
       <use style="stroke:#000000;stroke-width:0.5;" x="1182.6" xlink:href="#mcb0005524f" y="150.169090909"/>
      </g>
     </g>
     <g id="text_36">
      <!-- 0.6 -->
      <g transform="translate(698.176761364 153.480340909)scale(0.12 -0.12)">
       <use xlink:href="#BitstreamVeraSans-Roman-30"/>
       <use x="63.623046875" xlink:href="#BitstreamVeraSans-Roman-2e"/>
       <use x="95.41015625" xlink:href="#BitstreamVeraSans-Roman-36"/>
      </g>
     </g>
    </g>
    <g id="ytick_14">
     <g id="line2d_69">
      <g>
       <use style="stroke:#000000;stroke-width:0.5;" x="719.713636364" xlink:href="#m728421d6d4" y="102.496363636"/>
      </g>
     </g>
     <g id="line2d_70">
      <g>
       <use style="stroke:#000000;stroke-width:0.5;" x="1182.6" xlink:href="#mcb0005524f" y="102.496363636"/>
      </g>
     </g>
     <g id="text_37">
      <!-- 0.7 -->
      <g transform="translate(698.446761364 105.807613636)scale(0.12 -0.12)">
       <use xlink:href="#BitstreamVeraSans-Roman-30"/>
       <use x="63.623046875" xlink:href="#BitstreamVeraSans-Roman-2e"/>
       <use x="95.41015625" xlink:href="#BitstreamVeraSans-Roman-37"/>
      </g>
     </g>
    </g>
    <g id="text_38">
     <!-- $(m)$ -->
     <g transform="translate(688.094261364 238.278181818)rotate(-90.0)scale(0.2 -0.2)">
      <use xlink:href="#Cmr10-28"/>
      <use transform="translate(38.818359375 0.0)" xlink:href="#Cmmi10-6d"/>
      <use transform="translate(126.611328125 0.0)" xlink:href="#Cmr10-29"/>
     </g>
    </g>
   </g>
   <g id="patch_9">
    <path d="
M719.714 78.66
L1182.6 78.66" style="fill:none;stroke:#000000;"/>
   </g>
   <g id="patch_10">
    <path d="
M1182.6 364.696
L1182.6 78.66" style="fill:none;stroke:#000000;"/>
   </g>
   <g id="patch_11">
    <path d="
M719.714 364.696
L1182.6 364.696" style="fill:none;stroke:#000000;"/>
   </g>
   <g id="patch_12">
    <path d="
M719.714 364.696
L719.714 78.66" style="fill:none;stroke:#000000;"/>
   </g>
   <g id="legend_2">
    <g id="patch_13">
     <path d="
M1073.2 161.057
L1172.6 161.057
L1172.6 88.66
L1073.2 88.66
L1073.2 161.057
z
" style="fill:#ffffff;stroke:#000000;"/>
    </g>
    <g id="line2d_71">
     <path d="
M1087.2 104.857
L1115.2 104.857" style="fill:none;stroke:#0000ff;stroke-linecap:square;stroke-width:2.0;"/>
    </g>
    <g id="line2d_72"/>
    <g id="text_39">
     <!-- $x_y$ -->
     <defs>
      <path d="
M8.40625 -14.3125
Q10.5 -17.9219 15.7188 -17.9219
Q20.4531 -17.9219 23.9219 -14.5938
Q27.3906 -11.2812 29.5156 -6.5625
Q31.6406 -1.85938 32.8125 3.07812
Q28.375 -1.125 23.1875 -1.125
Q19.2344 -1.125 16.4531 0.234375
Q13.6719 1.60938 12.125 4.3125
Q10.5938 7.03125 10.5938 10.8906
Q10.5938 14.1562 11.4688 17.5938
Q12.3594 21.0469 13.9375 25.2656
Q15.5312 29.5 16.7031 32.625
Q18.0156 36.2812 18.0156 38.625
Q18.0156 41.6094 15.8281 41.6094
Q11.8594 41.6094 9.29688 37.5312
Q6.73438 33.4531 5.51562 28.4219
Q5.32812 27.7812 4.6875 27.7812
L3.51562 27.7812
Q2.6875 27.7812 2.6875 28.7188
L2.6875 29
Q4.29688 34.9688 7.60938 39.5781
Q10.9375 44.1875 16.0156 44.1875
Q19.5781 44.1875 22.0469 41.8438
Q24.5156 39.5 24.5156 35.8906
Q24.5156 34.0312 23.6875 31.9844
Q23.25 30.7656 21.6875 26.6562
Q20.125 22.5625 19.2812 19.875
Q18.4531 17.1875 17.9219 14.5938
Q17.3906 12.0156 17.3906 9.42188
Q17.3906 6.10938 18.7969 3.8125
Q20.2188 1.51562 23.2969 1.51562
Q29.5 1.51562 34.4219 9.07812
L42 39.8906
Q42.3281 41.2188 43.5469 42.1562
Q44.7812 43.1094 46.1875 43.1094
Q47.4062 43.1094 48.3125 42.3281
Q49.2188 41.5469 49.2188 40.2812
Q49.2188 39.7031 49.125 39.5
L39.2031 -0.296875
Q37.8906 -5.42188 34.375 -10.1094
Q30.8594 -14.7969 25.9062 -17.6562
Q20.9531 -20.5156 15.5781 -20.5156
Q12.9844 -20.5156 10.4375 -19.5
Q7.90625 -18.5 6.34375 -16.5
Q4.78125 -14.5 4.78125 -11.8125
Q4.78125 -9.07812 6.39062 -7.07812
Q8.01562 -5.07812 10.6875 -5.07812
Q12.3125 -5.07812 13.4062 -6.07812
Q14.5 -7.07812 14.5 -8.6875
Q14.5 -10.9844 12.7812 -12.6875
Q11.0781 -14.4062 8.79688 -14.4062
Q8.6875 -14.3594 8.59375 -14.3281
Q8.5 -14.3125 8.40625 -14.3125" id="Cmmi10-79"/>
     </defs>
     <g transform="translate(1137.2 111.856875)scale(0.2 -0.2)">
      <use transform="translate(0.0 0.8125)" xlink:href="#Cmmi10-78"/>
      <use transform="translate(57.080078125 -24.696875)scale(0.7)" xlink:href="#Cmmi10-79"/>
     </g>
    </g>
    <g id="line2d_73">
     <path d="
M1087.2 138.057
L1115.2 138.057" style="fill:none;stroke:#ff0000;stroke-dasharray:6.000000,6.000000;stroke-dashoffset:0.0;stroke-width:2.0;"/>
    </g>
    <g id="line2d_74"/>
    <g id="text_40">
     <!-- $x^*_y$ -->
     <g transform="translate(1137.2 145.056875)scale(0.2 -0.2)">
      <use transform="translate(0.0 0.9453125)" xlink:href="#Cmmi10-78"/>
      <use transform="translate(81.61559375 43.4609375)scale(0.7)" xlink:href="#Cmsy10-a4"/>
      <use transform="translate(57.080078125 -24.5640625)scale(0.7)" xlink:href="#Cmmi10-79"/>
     </g>
    </g>
   </g>
  </g>
  <g id="axes_3">
   <g id="patch_14">
    <path d="
M164.25 707.94
L627.136 707.94
L627.136 421.904
L164.25 421.904
z
" style="fill:#ffffff;"/>
   </g>
   <g id="line2d_75">
    <path clip-path="url(#p646a7f5ab7)" d="
M164.25 623.764
L239.112 623.874
L240.483 624.144
L241.626 624.585
L242.712 625.245
L243.741 626.133
L244.827 627.384
L245.969 629.079
L247.112 631.179
L248.37 633.957
L249.798 637.676
L251.456 642.643
L253.627 649.925
L259.57 670.274
L261.285 675.158
L262.771 678.752
L264.085 681.383
L265.285 683.322
L266.428 684.767
L267.514 685.801
L268.599 686.539
L269.742 687.045
L271 687.353
L272.6 687.499
L276.143 687.515
L285.743 687.408
L287.515 687.136
L288.944 686.697
L290.258 686.053
L291.515 685.168
L292.658 684.097
L293.858 682.664
L295.115 680.79
L296.373 678.506
L297.687 675.658
L299.116 672.009
L300.659 667.418
L302.316 661.75
L304.145 654.657
L306.202 645.736
L308.659 634.009
L311.916 617.273
L318.831 581.469
L321.403 569.51
L323.517 560.679
L325.46 553.501
L327.346 547.377
L329.118 542.342
L330.889 537.965
L332.603 534.316
L334.261 531.294
L335.918 528.726
L337.575 526.564
L339.232 524.762
L340.89 523.277
L342.604 522.03
L344.319 521.04
L346.147 520.232
L348.09 519.627
L350.376 519.166
L358.434 517.671
L371.577 514.965
L377.635 513.906
L381.407 513.477
L384.035 513.381
L386.55 513.506
L388.95 513.857
L390.95 514.37
L392.607 515.031
L394.036 515.839
L395.407 516.883
L396.665 518.115
L397.922 519.652
L399.236 521.623
L400.551 524.001
L401.922 526.946
L403.408 530.702
L404.951 535.244
L406.608 540.859
L408.38 547.689
L410.323 556.107
L412.494 566.53
L415.237 580.86
L421.123 612.946
L425.238 635.082
L427.581 646.49
L429.638 655.466
L431.524 662.726
L433.238 668.465
L434.839 673.06
L436.324 676.668
L437.696 679.447
L439.01 681.637
L440.325 683.394
L441.582 684.705
L442.782 685.657
L444.096 686.408
L445.468 686.925
L447.068 687.267
L449.011 687.439
L452.783 687.491
L461.183 687.442
L463.069 687.215
L464.555 686.82
L465.869 686.241
L467.126 685.433
L468.326 684.385
L469.526 683.03
L470.726 681.334
L471.984 679.164
L473.298 676.439
L474.67 673.08
L476.155 668.839
L477.756 663.578
L479.47 657.177
L481.413 649.048
L483.699 638.469
L486.556 624.111
L496.1 575.209
L498.443 564.873
L500.443 557.015
L502.328 550.495
L504.157 544.956
L505.929 540.291
L507.643 536.396
L509.3 533.173
L510.9 530.527
L512.501 528.299
L514.044 526.508
L515.644 524.982
L517.244 523.758
L518.844 522.803
L520.615 522.013
L523.016 521.203
L526.101 520.389
L531.016 519.378
L543.988 516.856
L549.417 515.462
L554.903 514.084
L557.646 513.588
L560.161 513.355
L562.332 513.372
L564.504 513.62
L566.39 514.038
L568.104 514.639
L569.647 515.427
L571.019 516.374
L572.39 517.602
L573.704 519.091
L575.019 520.929
L576.39 523.261
L577.762 526.05
L579.19 529.47
L580.676 533.605
L582.276 538.729
L583.991 544.986
L585.877 552.747
L587.991 562.446
L590.448 574.824
L593.706 592.487
L601.135 633.141
L603.649 645.442
L605.764 654.738
L607.649 662.078
L609.364 667.902
L610.964 672.581
L612.45 676.264
L613.878 679.219
L615.193 681.451
L616.45 683.177
L617.707 684.537
L618.907 685.529
L620.164 686.289
L621.479 686.829
L622.965 687.197
L624.851 687.41
L627.079 687.476
L627.079 687.476" style="fill:none;stroke:#0000ff;stroke-linecap:square;stroke-width:2.0;"/>
   </g>
   <g id="line2d_76">
    <path clip-path="url(#p646a7f5ab7)" d="
M164.25 623.764
L239.112 623.873
L240.483 624.142
L241.683 624.609
L242.769 625.28
L243.798 626.179
L244.884 627.441
L245.969 629.051
L247.17 631.252
L248.427 634.029
L249.855 637.739
L251.513 642.684
L253.684 649.928
L259.799 670.748
L261.513 675.565
L262.999 679.092
L264.313 681.659
L265.514 683.539
L266.656 684.929
L267.742 685.915
L268.828 686.611
L269.971 687.082
L271.285 687.371
L273 687.496
L278.714 687.509
L285.858 687.398
L287.629 687.112
L289.058 686.657
L290.372 685.993
L291.572 685.133
L292.772 683.991
L293.972 682.531
L295.173 680.722
L296.487 678.31
L297.858 675.289
L299.287 671.579
L300.83 666.921
L302.487 661.182
L304.316 654.014
L306.373 645.015
L308.773 633.492
L312.088 616.388
L318.603 582.545
L321.174 570.484
L323.231 561.784
L323.289 561.784
L325.232 554.464
L327.117 548.198
L328.946 542.885
L330.718 538.419
L332.432 534.695
L334.089 531.612
L335.689 529.077
L337.289 526.935
L338.89 525.144
L340.604 523.569
L342.318 522.3
L344.09 521.26
L346.033 520.377
L348.204 519.639
L350.947 518.969
L354.491 518.347
L363.863 516.828
L371.177 515.303
L376.549 514.264
L379.864 513.83
L382.607 513.666
L385.293 513.718
L387.978 514
L390.321 514.478
L392.093 515.056
L393.579 515.764
L394.95 516.659
L396.265 517.79
L397.522 519.166
L398.836 520.956
L400.151 523.146
L401.465 525.769
L402.894 529.141
L404.379 533.247
L405.922 538.165
L407.637 544.404
L409.465 551.916
L411.523 561.33
L413.923 573.394
L417.123 590.754
L425.124 634.711
L427.581 646.677
L429.695 655.894
L431.524 662.929
L433.238 668.672
L434.839 673.261
L436.324 676.856
L437.696 679.621
L439.01 681.793
L440.267 683.465
L441.468 684.722
L442.668 685.683
L443.925 686.415
L445.296 686.946
L446.782 687.281
L448.611 687.461
L451.754 687.509
L461.754 687.4
L463.469 687.135
L464.898 686.698
L466.155 686.09
L467.355 685.267
L468.555 684.167
L469.755 682.753
L470.955 680.994
L472.212 678.752
L473.527 675.949
L474.955 672.352
L476.498 667.815
L478.098 662.408
L479.87 655.626
L481.87 647.06
L484.213 635.999
L487.299 620.248
L495.242 579.15
L497.7 567.906
L499.471 560.582
L499.528 560.582
L501.471 553.401
L503.3 547.456
L505.072 542.425
L506.786 538.206
L508.443 534.694
L510.1 531.7
L511.701 529.257
L513.301 527.212
L514.901 525.52
L516.558 524.096
L518.272 522.924
L520.101 521.955
L522.101 521.162
L524.216 520.551
L527.016 519.984
L531.245 519.369
L537.416 518.418
L541.36 517.602
L547.017 516.196
L552.332 514.904
L555.875 514.257
L558.789 513.953
L561.532 513.906
L563.99 514.083
L566.275 514.467
L568.104 514.993
L569.59 515.637
L571.019 516.506
L572.333 517.579
L573.647 518.961
L574.904 520.617
L576.162 522.635
L577.476 525.164
L578.848 528.289
L580.333 532.259
L581.876 537.039
L583.534 542.913
L585.362 550.249
L587.362 559.22
L589.705 570.804
L592.62 586.414
L602.278 639.126
L604.621 650.137
L606.621 658.503
L608.449 665.211
L610.107 670.464
L611.65 674.636
L613.078 677.885
L614.45 680.468
L615.764 682.479
L617.021 684.007
L618.279 685.187
L619.536 686.062
L620.85 686.699
L622.279 687.133
L623.936 687.392
L626.279 687.501
L627.079 687.508
L627.079 687.508" style="fill:none;stroke:#ff0000;stroke-dasharray:6.000000,6.000000;stroke-dashoffset:0.0;stroke-width:2.0;"/>
   </g>
   <g id="matplotlib.axis_5">
    <g id="xtick_19">
     <g id="line2d_77">
      <g>
       <use style="stroke:#000000;stroke-width:0.5;" x="164.25" xlink:href="#m93b0483c22" y="707.94"/>
      </g>
     </g>
     <g id="line2d_78">
      <g>
       <use style="stroke:#000000;stroke-width:0.5;" x="164.25" xlink:href="#m741efc42ff" y="421.903636364"/>
      </g>
     </g>
     <g id="text_41">
      <!-- 0 -->
      <g transform="translate(161.2265625 721.058125)scale(0.12 -0.12)">
       <use xlink:href="#BitstreamVeraSans-Roman-30"/>
      </g>
     </g>
    </g>
    <g id="xtick_20">
     <g id="line2d_79">
      <g>
       <use style="stroke:#000000;stroke-width:0.5;" x="221.396464646" xlink:href="#m93b0483c22" y="707.94"/>
      </g>
     </g>
     <g id="line2d_80">
      <g>
       <use style="stroke:#000000;stroke-width:0.5;" x="221.396464646" xlink:href="#m741efc42ff" y="421.903636364"/>
      </g>
     </g>
     <g id="text_42">
      <!-- 1 -->
      <g transform="translate(218.792089646 721.058125)scale(0.12 -0.12)">
       <use xlink:href="#BitstreamVeraSans-Roman-31"/>
      </g>
     </g>
    </g>
    <g id="xtick_21">
     <g id="line2d_81">
      <g>
       <use style="stroke:#000000;stroke-width:0.5;" x="278.542929293" xlink:href="#m93b0483c22" y="707.94"/>
      </g>
     </g>
     <g id="line2d_82">
      <g>
       <use style="stroke:#000000;stroke-width:0.5;" x="278.542929293" xlink:href="#m741efc42ff" y="421.903636364"/>
      </g>
     </g>
     <g id="text_43">
      <!-- 2 -->
      <g transform="translate(275.766054293 721.058125)scale(0.12 -0.12)">
       <use xlink:href="#BitstreamVeraSans-Roman-32"/>
      </g>
     </g>
    </g>
    <g id="xtick_22">
     <g id="line2d_83">
      <g>
       <use style="stroke:#000000;stroke-width:0.5;" x="335.689393939" xlink:href="#m93b0483c22" y="707.94"/>
      </g>
     </g>
     <g id="line2d_84">
      <g>
       <use style="stroke:#000000;stroke-width:0.5;" x="335.689393939" xlink:href="#m741efc42ff" y="421.903636364"/>
      </g>
     </g>
     <g id="text_44">
      <!-- 3 -->
      <g transform="translate(332.810331439 721.058125)scale(0.12 -0.12)">
       <use xlink:href="#BitstreamVeraSans-Roman-33"/>
      </g>
     </g>
    </g>
    <g id="xtick_23">
     <g id="line2d_85">
      <g>
       <use style="stroke:#000000;stroke-width:0.5;" x="392.835858586" xlink:href="#m93b0483c22" y="707.94"/>
      </g>
     </g>
     <g id="line2d_86">
      <g>
       <use style="stroke:#000000;stroke-width:0.5;" x="392.835858586" xlink:href="#m741efc42ff" y="421.903636364"/>
      </g>
     </g>
     <g id="text_45">
      <!-- 4 -->
      <g transform="translate(389.648358586 721.058125)scale(0.12 -0.12)">
       <use xlink:href="#BitstreamVeraSans-Roman-34"/>
      </g>
     </g>
    </g>
    <g id="xtick_24">
     <g id="line2d_87">
      <g>
       <use style="stroke:#000000;stroke-width:0.5;" x="449.982323232" xlink:href="#m93b0483c22" y="707.94"/>
      </g>
     </g>
     <g id="line2d_88">
      <g>
       <use style="stroke:#000000;stroke-width:0.5;" x="449.982323232" xlink:href="#m741efc42ff" y="421.903636364"/>
      </g>
     </g>
     <g id="text_46">
      <!-- 5 -->
      <g transform="translate(447.152010732 721.058125)scale(0.12 -0.12)">
       <use xlink:href="#BitstreamVeraSans-Roman-35"/>
      </g>
     </g>
    </g>
    <g id="xtick_25">
     <g id="line2d_89">
      <g>
       <use style="stroke:#000000;stroke-width:0.5;" x="507.128787879" xlink:href="#m93b0483c22" y="707.94"/>
      </g>
     </g>
     <g id="line2d_90">
      <g>
       <use style="stroke:#000000;stroke-width:0.5;" x="507.128787879" xlink:href="#m741efc42ff" y="421.903636364"/>
      </g>
     </g>
     <g id="text_47">
      <!-- 6 -->
      <g transform="translate(504.108162879 721.058125)scale(0.12 -0.12)">
       <use xlink:href="#BitstreamVeraSans-Roman-36"/>
      </g>
     </g>
    </g>
    <g id="xtick_26">
     <g id="line2d_91">
      <g>
       <use style="stroke:#000000;stroke-width:0.5;" x="564.275252525" xlink:href="#m93b0483c22" y="707.94"/>
      </g>
     </g>
     <g id="line2d_92">
      <g>
       <use style="stroke:#000000;stroke-width:0.5;" x="564.275252525" xlink:href="#m741efc42ff" y="421.903636364"/>
      </g>
     </g>
     <g id="text_48">
      <!-- 7 -->
      <g transform="translate(561.462752525 721.058125)scale(0.12 -0.12)">
       <use xlink:href="#BitstreamVeraSans-Roman-37"/>
      </g>
     </g>
    </g>
    <g id="xtick_27">
     <g id="line2d_93">
      <g>
       <use style="stroke:#000000;stroke-width:0.5;" x="621.421717172" xlink:href="#m93b0483c22" y="707.94"/>
      </g>
     </g>
     <g id="line2d_94">
      <g>
       <use style="stroke:#000000;stroke-width:0.5;" x="621.421717172" xlink:href="#m741efc42ff" y="421.903636364"/>
      </g>
     </g>
     <g id="text_49">
      <!-- 8 -->
      <g transform="translate(618.421717172 721.058125)scale(0.12 -0.12)">
       <use xlink:href="#BitstreamVeraSans-Roman-38"/>
      </g>
     </g>
    </g>
    <g id="text_50">
     <!-- $time (s)$ -->
     <g transform="translate(362.693181818 743.55375)scale(0.2 -0.2)">
      <use xlink:href="#Cmmi10-74"/>
      <use transform="translate(36.083984375 0.0)" xlink:href="#Cmmi10-69"/>
      <use transform="translate(70.5078125 0.0)" xlink:href="#Cmmi10-6d"/>
      <use transform="translate(158.30078125 0.0)" xlink:href="#Cmmi10-65"/>
      <use transform="translate(204.78515625 0.0)" xlink:href="#Cmr10-28"/>
      <use transform="translate(243.603515625 0.0)" xlink:href="#Cmmi10-73"/>
      <use transform="translate(290.380859375 0.0)" xlink:href="#Cmr10-29"/>
     </g>
    </g>
   </g>
   <g id="matplotlib.axis_6">
    <g id="ytick_15">
     <g id="line2d_95">
      <g>
       <use style="stroke:#000000;stroke-width:0.5;" x="164.25" xlink:href="#m728421d6d4" y="687.508831169"/>
      </g>
     </g>
     <g id="line2d_96">
      <g>
       <use style="stroke:#000000;stroke-width:0.5;" x="627.136363636" xlink:href="#mcb0005524f" y="687.508831169"/>
      </g>
     </g>
     <g id="text_51">
      <!-- 0.2 -->
      <g transform="translate(143.159375 690.820081169)scale(0.12 -0.12)">
       <use xlink:href="#BitstreamVeraSans-Roman-30"/>
       <use x="63.623046875" xlink:href="#BitstreamVeraSans-Roman-2e"/>
       <use x="95.41015625" xlink:href="#BitstreamVeraSans-Roman-32"/>
      </g>
     </g>
    </g>
    <g id="ytick_16">
     <g id="line2d_97">
      <g>
       <use style="stroke:#000000;stroke-width:0.5;" x="164.25" xlink:href="#m728421d6d4" y="646.646493506"/>
      </g>
     </g>
     <g id="line2d_98">
      <g>
       <use style="stroke:#000000;stroke-width:0.5;" x="627.136363636" xlink:href="#mcb0005524f" y="646.646493506"/>
      </g>
     </g>
     <g id="text_52">
      <!-- 0.3 -->
      <g transform="translate(142.919375 649.957743506)scale(0.12 -0.12)">
       <use xlink:href="#BitstreamVeraSans-Roman-30"/>
       <use x="63.623046875" xlink:href="#BitstreamVeraSans-Roman-2e"/>
       <use x="95.41015625" xlink:href="#BitstreamVeraSans-Roman-33"/>
      </g>
     </g>
    </g>
    <g id="ytick_17">
     <g id="line2d_99">
      <g>
       <use style="stroke:#000000;stroke-width:0.5;" x="164.25" xlink:href="#m728421d6d4" y="605.784155844"/>
      </g>
     </g>
     <g id="line2d_100">
      <g>
       <use style="stroke:#000000;stroke-width:0.5;" x="627.136363636" xlink:href="#mcb0005524f" y="605.784155844"/>
      </g>
     </g>
     <g id="text_53">
      <!-- 0.4 -->
      <g transform="translate(142.630625 609.095405844)scale(0.12 -0.12)">
       <use xlink:href="#BitstreamVeraSans-Roman-30"/>
       <use x="63.623046875" xlink:href="#BitstreamVeraSans-Roman-2e"/>
       <use x="95.41015625" xlink:href="#BitstreamVeraSans-Roman-34"/>
      </g>
     </g>
    </g>
    <g id="ytick_18">
     <g id="line2d_101">
      <g>
       <use style="stroke:#000000;stroke-width:0.5;" x="164.25" xlink:href="#m728421d6d4" y="564.921818182"/>
      </g>
     </g>
     <g id="line2d_102">
      <g>
       <use style="stroke:#000000;stroke-width:0.5;" x="627.136363636" xlink:href="#mcb0005524f" y="564.921818182"/>
      </g>
     </g>
     <g id="text_54">
      <!-- 0.5 -->
      <g transform="translate(143.005625 568.233068182)scale(0.12 -0.12)">
       <use xlink:href="#BitstreamVeraSans-Roman-30"/>
       <use x="63.623046875" xlink:href="#BitstreamVeraSans-Roman-2e"/>
       <use x="95.41015625" xlink:href="#BitstreamVeraSans-Roman-35"/>
      </g>
     </g>
    </g>
    <g id="ytick_19">
     <g id="line2d_103">
      <g>
       <use style="stroke:#000000;stroke-width:0.5;" x="164.25" xlink:href="#m728421d6d4" y="524.059480519"/>
      </g>
     </g>
     <g id="line2d_104">
      <g>
       <use style="stroke:#000000;stroke-width:0.5;" x="627.136363636" xlink:href="#mcb0005524f" y="524.059480519"/>
      </g>
     </g>
     <g id="text_55">
      <!-- 0.6 -->
      <g transform="translate(142.713125 527.370730519)scale(0.12 -0.12)">
       <use xlink:href="#BitstreamVeraSans-Roman-30"/>
       <use x="63.623046875" xlink:href="#BitstreamVeraSans-Roman-2e"/>
       <use x="95.41015625" xlink:href="#BitstreamVeraSans-Roman-36"/>
      </g>
     </g>
    </g>
    <g id="ytick_20">
     <g id="line2d_105">
      <g>
       <use style="stroke:#000000;stroke-width:0.5;" x="164.25" xlink:href="#m728421d6d4" y="483.197142857"/>
      </g>
     </g>
     <g id="line2d_106">
      <g>
       <use style="stroke:#000000;stroke-width:0.5;" x="627.136363636" xlink:href="#mcb0005524f" y="483.197142857"/>
      </g>
     </g>
     <g id="text_56">
      <!-- 0.7 -->
      <g transform="translate(142.983125 486.508392857)scale(0.12 -0.12)">
       <use xlink:href="#BitstreamVeraSans-Roman-30"/>
       <use x="63.623046875" xlink:href="#BitstreamVeraSans-Roman-2e"/>
       <use x="95.41015625" xlink:href="#BitstreamVeraSans-Roman-37"/>
      </g>
     </g>
    </g>
    <g id="ytick_21">
     <g id="line2d_107">
      <g>
       <use style="stroke:#000000;stroke-width:0.5;" x="164.25" xlink:href="#m728421d6d4" y="442.334805195"/>
      </g>
     </g>
     <g id="line2d_108">
      <g>
       <use style="stroke:#000000;stroke-width:0.5;" x="627.136363636" xlink:href="#mcb0005524f" y="442.334805195"/>
      </g>
     </g>
     <g id="text_57">
      <!-- 0.8 -->
      <g transform="translate(142.77875 445.646055195)scale(0.12 -0.12)">
       <use xlink:href="#BitstreamVeraSans-Roman-30"/>
       <use x="63.623046875" xlink:href="#BitstreamVeraSans-Roman-2e"/>
       <use x="95.41015625" xlink:href="#BitstreamVeraSans-Roman-38"/>
      </g>
     </g>
    </g>
    <g id="text_58">
     <!-- $(m)$ -->
     <g transform="translate(132.630625 581.521818182)rotate(-90.0)scale(0.2 -0.2)">
      <use xlink:href="#Cmr10-28"/>
      <use transform="translate(38.818359375 0.0)" xlink:href="#Cmmi10-6d"/>
      <use transform="translate(126.611328125 0.0)" xlink:href="#Cmr10-29"/>
     </g>
    </g>
   </g>
   <g id="patch_15">
    <path d="
M164.25 421.904
L627.136 421.904" style="fill:none;stroke:#000000;"/>
   </g>
   <g id="patch_16">
    <path d="
M627.136 707.94
L627.136 421.904" style="fill:none;stroke:#000000;"/>
   </g>
   <g id="patch_17">
    <path d="
M164.25 707.94
L627.136 707.94" style="fill:none;stroke:#000000;"/>
   </g>
   <g id="patch_18">
    <path d="
M164.25 707.94
L164.25 421.904" style="fill:none;stroke:#000000;"/>
   </g>
   <g id="legend_3">
    <g id="patch_19">
     <path d="
M517.736 499.101
L617.136 499.101
L617.136 431.904
L517.736 431.904
L517.736 499.101
z
" style="fill:#ffffff;stroke:#000000;"/>
    </g>
    <g id="line2d_109">
     <path d="
M531.736 448.101
L559.736 448.101" style="fill:none;stroke:#0000ff;stroke-linecap:square;stroke-width:2.0;"/>
    </g>
    <g id="line2d_110"/>
    <g id="text_59">
     <!-- $x_z$ -->
     <defs>
      <path d="
M4.89062 -1.125
Q4.10938 -1.125 4.10938 -0.203125
Q4.10938 0.296875 4.29688 0.484375
Q6.98438 5.125 10.7656 9.34375
Q14.5469 13.5781 19.3594 17.8906
Q24.1719 22.2188 29.0312 26.5625
Q33.8906 30.9062 36.9219 34.2812
L36.5312 34.2812
Q34.3281 34.2812 30.0781 35.6875
Q25.8281 37.1094 23.3906 37.1094
Q20.75 37.1094 18.25 35.9531
Q15.7656 34.8125 15.0938 32.4219
Q14.9375 31.6875 14.3125 31.6875
L13.0938 31.6875
Q12.3125 31.6875 12.3125 32.7188
L12.3125 33.0156
Q13.0938 35.9375 14.875 38.4688
Q16.6562 41.0156 19.2656 42.5938
Q21.875 44.1875 24.7031 44.1875
Q26.7031 44.1875 28.0156 43.2812
Q29.3438 42.3906 31.0938 40.4844
Q32.8594 38.5781 33.9531 37.75
Q35.0625 36.9219 36.7188 36.9219
Q38.9219 36.9219 40.6562 38.9219
Q42.3906 40.9219 44.0938 43.8906
Q44.3906 44.1875 44.8281 44.1875
L46 44.1875
Q46.3438 44.1875 46.5625 43.9375
Q46.7812 43.7031 46.7812 43.3125
Q46.7812 42.9688 46.5781 42.6719
Q43.8906 38.0312 40.2969 34
Q36.7188 29.9844 30.9219 24.7812
Q25.1406 19.5781 21.1562 15.9844
Q17.1875 12.4062 13.7188 8.59375
Q14.5 8.79688 15.8281 8.79688
Q18.2656 8.79688 22.4844 7.39062
Q26.7031 6 29 6
Q31.5 6 34.0312 7.07812
Q36.5781 8.15625 38.4219 10.1094
Q40.2812 12.0625 40.9219 14.5938
Q41.1562 15.2812 41.7031 15.2812
L42.9219 15.2812
Q43.3125 15.2812 43.5469 14.9688
Q43.7969 14.6562 43.7969 14.3125
Q43.7969 14.2031 43.7031 14.0156
Q42.7812 10.2031 40.4844 6.76562
Q38.1875 3.32812 34.8438 1.09375
Q31.5 -1.125 27.6875 -1.125
Q25.7812 -1.125 24.4531 -0.234375
Q23.1406 0.640625 21.3594 2.5625
Q19.5781 4.5 18.4531 5.34375
Q17.3281 6.20312 15.7188 6.20312
Q10.75 6.20312 6.78125 -0.78125
Q6.45312 -1.125 6.10938 -1.125
z
" id="Cmmi10-7a"/>
     </defs>
     <g transform="translate(581.736363636 455.100511364)scale(0.2 -0.2)">
      <use transform="translate(0.0 0.8125)" xlink:href="#Cmmi10-78"/>
      <use transform="translate(57.080078125 -24.696875)scale(0.7)" xlink:href="#Cmmi10-7a"/>
     </g>
    </g>
    <g id="line2d_111">
     <path d="
M531.736 478.701
L559.736 478.701" style="fill:none;stroke:#ff0000;stroke-dasharray:6.000000,6.000000;stroke-dashoffset:0.0;stroke-width:2.0;"/>
    </g>
    <g id="line2d_112"/>
    <g id="text_60">
     <!-- $x^*_z$ -->
     <g transform="translate(581.736363636 485.700511364)scale(0.2 -0.2)">
      <use transform="translate(0.0 0.9453125)" xlink:href="#Cmmi10-78"/>
      <use transform="translate(81.61559375 43.4609375)scale(0.7)" xlink:href="#Cmsy10-a4"/>
      <use transform="translate(57.080078125 -24.5640625)scale(0.7)" xlink:href="#Cmmi10-7a"/>
     </g>
    </g>
   </g>
  </g>
  <g id="axes_4">
   <g id="patch_20">
    <path d="
M719.714 707.94
L1182.6 707.94
L1182.6 421.904
L719.714 421.904
z
" style="fill:#ffffff;"/>
   </g>
   <g id="line2d_113">
    <path clip-path="url(#pc16c33a490)" d="
M719.714 707.94
L737.486 707.83
L744.115 707.518
L750.287 707.006
L756.516 706.261
L772.174 704.244
L776.346 704.041
L780.346 704.07
L784.632 704.329
L789.718 704.873
L791.032 705.041
L791.09 707.94
L791.147 707.934
L796.118 707.369
L796.919 707.062
L797.661 706.532
L798.461 705.671
L799.204 704.541
L799.947 702.981
L800.633 701.027
L801.376 698.182
L802.119 694.406
L802.919 689.127
L803.776 681.946
L804.748 671.868
L805.891 657.587
L807.433 635.236
L810.805 585.473
L811.948 572.201
L812.862 563.988
L813.605 559.146
L814.234 556.431
L814.691 555.281
L815.034 554.881
L815.32 554.849
L815.605 555.091
L815.948 555.738
L816.405 557.197
L816.977 559.945
L817.663 564.516
L818.463 571.433
L819.491 582.415
L820.92 600.388
L825.035 653.846
L826.349 667.403
L827.492 677.072
L828.578 684.462
L829.606 690.006
L830.635 694.338
L831.606 697.519
L832.578 699.99
L833.549 701.896
L834.578 703.432
L835.607 704.585
L836.75 705.526
L836.807 707.94
L836.864 707.902
L837.664 707.509
L838.635 707.289
L839.95 707.24
L844.007 707.267
L845.379 706.899
L846.922 706.246
L848.293 705.434
L849.493 704.474
L850.579 703.325
L851.608 701.918
L852.636 700.135
L853.722 697.788
L854.865 694.757
L856.122 690.746
L857.551 685.374
L859.265 677.977
L861.894 665.477
L865.094 650.502
L866.923 642.993
L868.466 637.557
L869.78 633.68
L870.98 630.807
L872.009 628.897
L872.923 627.663
L873.666 627.007
L874.352 626.695
L874.923 626.663
L875.495 626.846
L876.066 627.253
L876.752 628.047
L877.495 629.29
L878.295 631.08
L878.695 632.15
L878.752 627.24
L878.809 627.427
L879.609 630.466
L880.752 635.79
L882.581 645.531
L886.41 666.067
L887.839 672.425
L889.039 676.827
L890.182 680.225
L891.382 683.124
L892.582 685.483
L893.439 686.726
L893.953 687.152
L894.353 687.227
L894.696 687.058
L895.039 686.629
L895.439 685.75
L895.896 684.19
L896.468 681.359
L897.153 676.668
L897.953 669.504
L898.868 659.245
L899.896 645.193
L901.039 626.433
L902.182 604.034
L903.325 577.325
L907.097 484.14
L907.954 470.401
L908.697 461.844
L909.326 456.864
L909.897 453.954
L910.354 452.617
L910.697 452.133
L910.983 452.039
L911.269 452.205
L911.611 452.717
L912.069 453.88
L912.64 456.004
L913.383 459.698
L914.354 465.799
L915.555 474.906
L916.926 487.115
L918.355 501.866
L919.841 519.647
L921.384 540.951
L923.155 568.645
L926.527 622.153
L927.327 631.279
L927.898 635.716
L928.355 637.7
L928.641 638.164
L928.813 638.15
L929.041 637.79
L929.327 636.81
L929.727 634.511
L930.298 629.605
L931.041 621.077
L932.241 604.407
L935.327 560.678
L936.642 545.507
L937.785 534.815
L938.756 527.687
L939.613 522.915
L940.356 519.92
L940.985 518.194
L941.499 517.32
L941.956 516.938
L942.356 516.9
L942.699 517.083
L942.756 539.275
L942.813 539.234
L943.613 538.795
L944.071 538.76
L944.528 538.962
L944.985 539.439
L945.499 540.339
L946.071 541.811
L946.757 544.248
L947.557 548.003
L948.471 553.433
L949.557 561.306
L950.871 572.573
L952.643 589.882
L956.414 627.378
L957.557 636.289
L958.414 641.33
L959.043 643.912
L959.557 645.248
L959.957 645.787
L960.3 645.901
L960.586 645.756
L960.929 645.305
L961.386 644.258
L961.957 642.303
L962.7 638.841
L963.615 633.446
L964.815 624.975
L966.701 609.846
L969.558 587.083
L970.472 581.103
L971.101 578.632
L972.015 575.245
L972.53 572.315
L973.101 567.682
L973.844 559.574
L976.816 524.423
L977.444 520.37
L977.959 518.383
L978.359 517.589
L978.701 517.295
L979.044 517.272
L979.444 517.515
L979.901 518.079
L980.473 519.154
L981.159 520.947
L981.959 523.746
L982.816 527.629
L983.787 533.168
L984.873 540.757
L986.13 551.221
L987.673 566.069
L989.845 589.382
L994.36 638.339
L996.131 654.897
L997.617 666.851
L998.988 676.164
L1000.25 683.246
L1001.45 688.778
L1002.59 693.042
L1003.73 696.453
L1004.82 699.029
L1005.96 701.169
L1007.1 702.838
L1008.25 704.131
L1009.45 705.162
L1010.76 705.99
L1012.19 706.623
L1013.85 707.111
L1015.62 707.409
L1017.33 707.476
L1018.93 707.317
L1020.53 706.935
L1022.02 706.362
L1023.33 705.624
L1024.48 704.726
L1025.5 703.632
L1026.48 702.269
L1027.45 700.513
L1028.42 698.293
L1029.45 695.376
L1030.53 691.618
L1031.73 686.631
L1033.1 679.899
L1034.7 670.832
L1036.88 657.076
L1041.11 630.009
L1042.71 621.352
L1043.96 615.669
L1045.05 611.694
L1046.02 608.932
L1046.88 607.137
L1047.62 606.07
L1048.25 605.517
L1048.82 605.287
L1049.33 605.295
L1049.91 605.537
L1050.53 606.074
L1051.22 606.971
L1052.02 608.404
L1052.93 610.518
L1054.02 613.629
L1054.93 616.705
L1054.99 613.244
L1055.05 613.517
L1056.59 621.476
L1060.42 641.418
L1062.42 650.564
L1064.25 657.918
L1065.85 663.489
L1067.16 667.326
L1068.08 669.411
L1068.76 670.49
L1069.28 670.914
L1069.62 670.962
L1069.96 670.787
L1070.31 670.355
L1070.71 669.482
L1071.16 667.933
L1071.68 665.408
L1072.31 661.08
L1072.99 654.678
L1073.74 645.63
L1074.59 632.275
L1077.56 581.822
L1078.65 568.216
L1079.62 558.67
L1080.54 551.682
L1081.45 546.317
L1082.31 542.498
L1083.17 539.642
L1083.97 537.71
L1084.71 536.482
L1085.34 535.846
L1085.85 535.601
L1086.31 535.599
L1086.77 535.806
L1087.28 536.308
L1087.85 537.224
L1088.48 538.703
L1089.17 540.933
L1089.91 544.141
L1090.71 548.592
L1091.62 555.022
L1092.59 563.464
L1093.74 575.451
L1095.11 592.313
L1098.14 633.354
L1098.82 641.986
L1099.11 643.748
L1099.28 643.971
L1099.39 643.718
L1099.57 642.693
L1099.85 639.216
L1100.25 630.834
L1100.82 613.265
L1101.79 575.106
L1103.85 493.583
L1104.71 468.798
L1105.34 456.559
L1105.85 450.545
L1106.31 447.459
L1106.71 446.017
L1107.05 445.467
L1107.34 445.372
L1107.62 445.53
L1108.02 446.057
L1108.65 447.332
L1111.68 454.076
L1112.94 456.031
L1115.68 460.084
L1116.6 461.965
L1117.51 464.372
L1118.42 467.426
L1119 469.703
L1119.11 489.07
L1120.65 493.365
L1121.51 496.526
L1122.42 500.803
L1123.45 506.784
L1124.71 515.586
L1126.03 526.391
L1127.45 540.14
L1129.28 560.103
L1133.28 604.417
L1134.83 618.805
L1136.08 628.577
L1137.17 635.357
L1138.08 639.792
L1138.94 642.887
L1139.68 644.765
L1140.31 645.803
L1140.88 646.336
L1141.34 646.497
L1141.8 646.435
L1142.31 646.113
L1142.88 645.462
L1143.57 644.296
L1144.37 642.45
L1145.34 639.571
L1146.48 635.411
L1147.91 629.294
L1150.14 618.605
L1152.83 605.956
L1154.26 600.268
L1155.34 596.766
L1156.26 594.5
L1157 593.184
L1157.63 592.469
L1158.14 592.172
L1158.6 592.133
L1159.06 592.31
L1159.57 592.774
L1160.14 593.622
L1160.77 594.956
L1161.51 597.073
L1162.37 600.219
L1163.4 604.928
L1164.6 611.567
L1166.08 621.159
L1168.26 636.843
L1171.8 662.434
L1173.51 673.167
L1175 681.104
L1176.31 686.981
L1177.57 691.618
L1178.77 695.22
L1179.91 697.992
L1181.06 700.222
L1182.26 702.083
L1182.54 702.465
L1182.54 702.465" style="fill:none;stroke:#0000ff;stroke-linecap:square;stroke-width:2.0;"/>
   </g>
   <g id="matplotlib.axis_7">
    <g id="xtick_28">
     <g id="line2d_114">
      <g>
       <use style="stroke:#000000;stroke-width:0.5;" x="719.713636364" xlink:href="#m93b0483c22" y="707.94"/>
      </g>
     </g>
     <g id="line2d_115">
      <g>
       <use style="stroke:#000000;stroke-width:0.5;" x="719.713636364" xlink:href="#m741efc42ff" y="421.903636364"/>
      </g>
     </g>
     <g id="text_61">
      <!-- 0 -->
      <g transform="translate(716.690198864 721.058125)scale(0.12 -0.12)">
       <use xlink:href="#BitstreamVeraSans-Roman-30"/>
      </g>
     </g>
    </g>
    <g id="xtick_29">
     <g id="line2d_116">
      <g>
       <use style="stroke:#000000;stroke-width:0.5;" x="776.86010101" xlink:href="#m93b0483c22" y="707.94"/>
      </g>
     </g>
     <g id="line2d_117">
      <g>
       <use style="stroke:#000000;stroke-width:0.5;" x="776.86010101" xlink:href="#m741efc42ff" y="421.903636364"/>
      </g>
     </g>
     <g id="text_62">
      <!-- 1 -->
      <g transform="translate(774.25572601 721.058125)scale(0.12 -0.12)">
       <use xlink:href="#BitstreamVeraSans-Roman-31"/>
      </g>
     </g>
    </g>
    <g id="xtick_30">
     <g id="line2d_118">
      <g>
       <use style="stroke:#000000;stroke-width:0.5;" x="834.006565657" xlink:href="#m93b0483c22" y="707.94"/>
      </g>
     </g>
     <g id="line2d_119">
      <g>
       <use style="stroke:#000000;stroke-width:0.5;" x="834.006565657" xlink:href="#m741efc42ff" y="421.903636364"/>
      </g>
     </g>
     <g id="text_63">
      <!-- 2 -->
      <g transform="translate(831.229690657 721.058125)scale(0.12 -0.12)">
       <use xlink:href="#BitstreamVeraSans-Roman-32"/>
      </g>
     </g>
    </g>
    <g id="xtick_31">
     <g id="line2d_120">
      <g>
       <use style="stroke:#000000;stroke-width:0.5;" x="891.153030303" xlink:href="#m93b0483c22" y="707.94"/>
      </g>
     </g>
     <g id="line2d_121">
      <g>
       <use style="stroke:#000000;stroke-width:0.5;" x="891.153030303" xlink:href="#m741efc42ff" y="421.903636364"/>
      </g>
     </g>
     <g id="text_64">
      <!-- 3 -->
      <g transform="translate(888.273967803 721.058125)scale(0.12 -0.12)">
       <use xlink:href="#BitstreamVeraSans-Roman-33"/>
      </g>
     </g>
    </g>
    <g id="xtick_32">
     <g id="line2d_122">
      <g>
       <use style="stroke:#000000;stroke-width:0.5;" x="948.299494949" xlink:href="#m93b0483c22" y="707.94"/>
      </g>
     </g>
     <g id="line2d_123">
      <g>
       <use style="stroke:#000000;stroke-width:0.5;" x="948.299494949" xlink:href="#m741efc42ff" y="421.903636364"/>
      </g>
     </g>
     <g id="text_65">
      <!-- 4 -->
      <g transform="translate(945.111994949 721.058125)scale(0.12 -0.12)">
       <use xlink:href="#BitstreamVeraSans-Roman-34"/>
      </g>
     </g>
    </g>
    <g id="xtick_33">
     <g id="line2d_124">
      <g>
       <use style="stroke:#000000;stroke-width:0.5;" x="1005.4459596" xlink:href="#m93b0483c22" y="707.94"/>
      </g>
     </g>
     <g id="line2d_125">
      <g>
       <use style="stroke:#000000;stroke-width:0.5;" x="1005.4459596" xlink:href="#m741efc42ff" y="421.903636364"/>
      </g>
     </g>
     <g id="text_66">
      <!-- 5 -->
      <g transform="translate(1002.6156471 721.058125)scale(0.12 -0.12)">
       <use xlink:href="#BitstreamVeraSans-Roman-35"/>
      </g>
     </g>
    </g>
    <g id="xtick_34">
     <g id="line2d_126">
      <g>
       <use style="stroke:#000000;stroke-width:0.5;" x="1062.59242424" xlink:href="#m93b0483c22" y="707.94"/>
      </g>
     </g>
     <g id="line2d_127">
      <g>
       <use style="stroke:#000000;stroke-width:0.5;" x="1062.59242424" xlink:href="#m741efc42ff" y="421.903636364"/>
      </g>
     </g>
     <g id="text_67">
      <!-- 6 -->
      <g transform="translate(1059.57179924 721.058125)scale(0.12 -0.12)">
       <use xlink:href="#BitstreamVeraSans-Roman-36"/>
      </g>
     </g>
    </g>
    <g id="xtick_35">
     <g id="line2d_128">
      <g>
       <use style="stroke:#000000;stroke-width:0.5;" x="1119.73888889" xlink:href="#m93b0483c22" y="707.94"/>
      </g>
     </g>
     <g id="line2d_129">
      <g>
       <use style="stroke:#000000;stroke-width:0.5;" x="1119.73888889" xlink:href="#m741efc42ff" y="421.903636364"/>
      </g>
     </g>
     <g id="text_68">
      <!-- 7 -->
      <g transform="translate(1116.92638889 721.058125)scale(0.12 -0.12)">
       <use xlink:href="#BitstreamVeraSans-Roman-37"/>
      </g>
     </g>
    </g>
    <g id="xtick_36">
     <g id="line2d_130">
      <g>
       <use style="stroke:#000000;stroke-width:0.5;" x="1176.88535354" xlink:href="#m93b0483c22" y="707.94"/>
      </g>
     </g>
     <g id="line2d_131">
      <g>
       <use style="stroke:#000000;stroke-width:0.5;" x="1176.88535354" xlink:href="#m741efc42ff" y="421.903636364"/>
      </g>
     </g>
     <g id="text_69">
      <!-- 8 -->
      <g transform="translate(1173.88535354 721.058125)scale(0.12 -0.12)">
       <use xlink:href="#BitstreamVeraSans-Roman-38"/>
      </g>
     </g>
    </g>
    <g id="text_70">
     <!-- $time (s)$ -->
     <g transform="translate(918.156818182 743.55375)scale(0.2 -0.2)">
      <use xlink:href="#Cmmi10-74"/>
      <use transform="translate(36.083984375 0.0)" xlink:href="#Cmmi10-69"/>
      <use transform="translate(70.5078125 0.0)" xlink:href="#Cmmi10-6d"/>
      <use transform="translate(158.30078125 0.0)" xlink:href="#Cmmi10-65"/>
      <use transform="translate(204.78515625 0.0)" xlink:href="#Cmr10-28"/>
      <use transform="translate(243.603515625 0.0)" xlink:href="#Cmmi10-73"/>
      <use transform="translate(290.380859375 0.0)" xlink:href="#Cmr10-29"/>
     </g>
    </g>
   </g>
   <g id="matplotlib.axis_8">
    <g id="ytick_22">
     <g id="line2d_132">
      <g>
       <use style="stroke:#000000;stroke-width:0.5;" x="719.713636364" xlink:href="#m728421d6d4" y="707.94"/>
      </g>
     </g>
     <g id="line2d_133">
      <g>
       <use style="stroke:#000000;stroke-width:0.5;" x="1182.6" xlink:href="#mcb0005524f" y="707.94"/>
      </g>
     </g>
     <g id="text_71">
      <!-- 0.000 -->
      <g transform="translate(682.948011364 711.25125)scale(0.12 -0.12)">
       <use xlink:href="#BitstreamVeraSans-Roman-30"/>
       <use x="63.623046875" xlink:href="#BitstreamVeraSans-Roman-2e"/>
       <use x="95.41015625" xlink:href="#BitstreamVeraSans-Roman-30"/>
       <use x="159.033203125" xlink:href="#BitstreamVeraSans-Roman-30"/>
       <use x="222.65625" xlink:href="#BitstreamVeraSans-Roman-30"/>
      </g>
     </g>
    </g>
    <g id="ytick_23">
     <g id="line2d_134">
      <g>
       <use style="stroke:#000000;stroke-width:0.5;" x="719.713636364" xlink:href="#m728421d6d4" y="650.732727273"/>
      </g>
     </g>
     <g id="line2d_135">
      <g>
       <use style="stroke:#000000;stroke-width:0.5;" x="1182.6" xlink:href="#mcb0005524f" y="650.732727273"/>
      </g>
     </g>
     <g id="text_72">
      <!-- 0.001 -->
      <g transform="translate(683.259261364 654.043977273)scale(0.12 -0.12)">
       <use xlink:href="#BitstreamVeraSans-Roman-30"/>
       <use x="63.623046875" xlink:href="#BitstreamVeraSans-Roman-2e"/>
       <use x="95.41015625" xlink:href="#BitstreamVeraSans-Roman-30"/>
       <use x="159.033203125" xlink:href="#BitstreamVeraSans-Roman-30"/>
       <use x="222.65625" xlink:href="#BitstreamVeraSans-Roman-31"/>
      </g>
     </g>
    </g>
    <g id="ytick_24">
     <g id="line2d_136">
      <g>
       <use style="stroke:#000000;stroke-width:0.5;" x="719.713636364" xlink:href="#m728421d6d4" y="593.525454545"/>
      </g>
     </g>
     <g id="line2d_137">
      <g>
       <use style="stroke:#000000;stroke-width:0.5;" x="1182.6" xlink:href="#mcb0005524f" y="593.525454545"/>
      </g>
     </g>
     <g id="text_73">
      <!-- 0.002 -->
      <g transform="translate(683.353011364 596.836704545)scale(0.12 -0.12)">
       <use xlink:href="#BitstreamVeraSans-Roman-30"/>
       <use x="63.623046875" xlink:href="#BitstreamVeraSans-Roman-2e"/>
       <use x="95.41015625" xlink:href="#BitstreamVeraSans-Roman-30"/>
       <use x="159.033203125" xlink:href="#BitstreamVeraSans-Roman-30"/>
       <use x="222.65625" xlink:href="#BitstreamVeraSans-Roman-32"/>
      </g>
     </g>
    </g>
    <g id="ytick_25">
     <g id="line2d_138">
      <g>
       <use style="stroke:#000000;stroke-width:0.5;" x="719.713636364" xlink:href="#m728421d6d4" y="536.318181818"/>
      </g>
     </g>
     <g id="line2d_139">
      <g>
       <use style="stroke:#000000;stroke-width:0.5;" x="1182.6" xlink:href="#mcb0005524f" y="536.318181818"/>
      </g>
     </g>
     <g id="text_74">
      <!-- 0.003 -->
      <g transform="translate(683.113011364 539.629431818)scale(0.12 -0.12)">
       <use xlink:href="#BitstreamVeraSans-Roman-30"/>
       <use x="63.623046875" xlink:href="#BitstreamVeraSans-Roman-2e"/>
       <use x="95.41015625" xlink:href="#BitstreamVeraSans-Roman-30"/>
       <use x="159.033203125" xlink:href="#BitstreamVeraSans-Roman-30"/>
       <use x="222.65625" xlink:href="#BitstreamVeraSans-Roman-33"/>
      </g>
     </g>
    </g>
    <g id="ytick_26">
     <g id="line2d_140">
      <g>
       <use style="stroke:#000000;stroke-width:0.5;" x="719.713636364" xlink:href="#m728421d6d4" y="479.110909091"/>
      </g>
     </g>
     <g id="line2d_141">
      <g>
       <use style="stroke:#000000;stroke-width:0.5;" x="1182.6" xlink:href="#mcb0005524f" y="479.110909091"/>
      </g>
     </g>
     <g id="text_75">
      <!-- 0.004 -->
      <g transform="translate(682.824261364 482.422159091)scale(0.12 -0.12)">
       <use xlink:href="#BitstreamVeraSans-Roman-30"/>
       <use x="63.623046875" xlink:href="#BitstreamVeraSans-Roman-2e"/>
       <use x="95.41015625" xlink:href="#BitstreamVeraSans-Roman-30"/>
       <use x="159.033203125" xlink:href="#BitstreamVeraSans-Roman-30"/>
       <use x="222.65625" xlink:href="#BitstreamVeraSans-Roman-34"/>
      </g>
     </g>
    </g>
    <g id="ytick_27">
     <g id="line2d_142">
      <g>
       <use style="stroke:#000000;stroke-width:0.5;" x="719.713636364" xlink:href="#m728421d6d4" y="421.903636364"/>
      </g>
     </g>
     <g id="line2d_143">
      <g>
       <use style="stroke:#000000;stroke-width:0.5;" x="1182.6" xlink:href="#mcb0005524f" y="421.903636364"/>
      </g>
     </g>
     <g id="text_76">
      <!-- 0.005 -->
      <g transform="translate(683.199261364 425.214886364)scale(0.12 -0.12)">
       <use xlink:href="#BitstreamVeraSans-Roman-30"/>
       <use x="63.623046875" xlink:href="#BitstreamVeraSans-Roman-2e"/>
       <use x="95.41015625" xlink:href="#BitstreamVeraSans-Roman-30"/>
       <use x="159.033203125" xlink:href="#BitstreamVeraSans-Roman-30"/>
       <use x="222.65625" xlink:href="#BitstreamVeraSans-Roman-35"/>
      </g>
     </g>
    </g>
    <g id="text_77">
     <!-- $x_{err} (m)$ -->
     <defs>
      <path d="
M7.71875 1.70312
Q7.71875 2.29688 7.8125 2.59375
L15.2812 32.4219
Q16.0156 35.2031 16.0156 37.3125
Q16.0156 41.6094 13.0938 41.6094
Q9.96875 41.6094 8.45312 37.8594
Q6.9375 34.125 5.51562 28.4219
Q5.51562 28.125 5.21875 27.9531
Q4.9375 27.7812 4.6875 27.7812
L3.51562 27.7812
Q3.17188 27.7812 2.92188 28.1406
Q2.6875 28.5156 2.6875 28.8125
Q3.76562 33.1562 4.76562 36.1719
Q5.76562 39.2031 7.89062 41.6875
Q10.0156 44.1875 13.1875 44.1875
Q16.6562 44.1875 19.2656 42.1875
Q21.875 40.1875 22.5156 36.9219
Q25.0469 40.2344 28.2969 42.2031
Q31.5469 44.1875 35.4062 44.1875
Q38.5781 44.1875 40.9844 42.3281
Q43.4062 40.4844 43.4062 37.3125
Q43.4062 34.7656 41.8125 32.875
Q40.2344 31 37.5938 31
Q35.9844 31 34.8906 32
Q33.7969 33.0156 33.7969 34.625
Q33.7969 36.8125 35.4062 38.5469
Q37.0156 40.2812 39.1094 40.2812
Q37.5 41.6094 35.2031 41.6094
Q30.9062 41.6094 27.7344 38.5469
Q24.5625 35.5 22.0156 30.8125
L14.8906 2.20312
Q14.5469 0.828125 13.3438 -0.140625
Q12.1562 -1.125 10.6875 -1.125
Q9.46875 -1.125 8.59375 -0.34375
Q7.71875 0.4375 7.71875 1.70312" id="Cmmi10-72"/>
     </defs>
     <g transform="translate(672.424261364 596.821818182)rotate(-90.0)scale(0.2 -0.2)">
      <use xlink:href="#Cmmi10-78"/>
      <use transform="translate(57.080078125 -25.509375)scale(0.7)" xlink:href="#Cmmi10-65"/>
      <use transform="translate(89.619140625 -25.509375)scale(0.7)" xlink:href="#Cmmi10-72"/>
      <use transform="translate(121.201171875 -25.509375)scale(0.7)" xlink:href="#Cmmi10-72"/>
      <use transform="translate(152.783203125 0.0)" xlink:href="#Cmr10-28"/>
      <use transform="translate(191.6015625 0.0)" xlink:href="#Cmmi10-6d"/>
      <use transform="translate(279.39453125 0.0)" xlink:href="#Cmr10-29"/>
     </g>
    </g>
   </g>
   <g id="patch_21">
    <path d="
M719.714 421.904
L1182.6 421.904" style="fill:none;stroke:#000000;"/>
   </g>
   <g id="patch_22">
    <path d="
M1182.6 707.94
L1182.6 421.904" style="fill:none;stroke:#000000;"/>
   </g>
   <g id="patch_23">
    <path d="
M719.714 707.94
L1182.6 707.94" style="fill:none;stroke:#000000;"/>
   </g>
   <g id="patch_24">
    <path d="
M719.714 707.94
L719.714 421.904" style="fill:none;stroke:#000000;"/>
   </g>
  </g>
 </g>
 <defs>
  <clipPath id="pc16c33a490">
   <rect height="286.036363636" width="462.886363636" x="719.713636364" y="421.903636364"/>
  </clipPath>
  <clipPath id="pfab327b29b">
   <rect height="286.036363636" width="462.886363636" x="719.713636364" y="78.66"/>
  </clipPath>
  <clipPath id="p646a7f5ab7">
   <rect height="286.036363636" width="462.886363636" x="164.25" y="421.903636364"/>
  </clipPath>
  <clipPath id="p82128e215e">
   <rect height="286.036363636" width="462.886363636" x="164.25" y="78.66"/>
  </clipPath>
 </defs>
</svg>
