<?xml version="1.0" encoding="UTF-8" standalone="no"?>
<!-- Created with matplotlib (http://matplotlib.org/) -->

<svg
   xmlns:dc="http://purl.org/dc/elements/1.1/"
   xmlns:cc="http://creativecommons.org/ns#"
   xmlns:rdf="http://www.w3.org/1999/02/22-rdf-syntax-ns#"
   xmlns:svg="http://www.w3.org/2000/svg"
   xmlns="http://www.w3.org/2000/svg"
   xmlns:xlink="http://www.w3.org/1999/xlink"
   xmlns:sodipodi="http://sodipodi.sourceforge.net/DTD/sodipodi-0.dtd"
   xmlns:inkscape="http://www.inkscape.org/namespaces/inkscape"
   height="432pt"
   version="1.1"
   viewBox="0 0 720 432"
   width="720pt"
   id="svg12346"
   inkscape:version="0.48.3.1 r9886"
   sodipodi:docname="kE_wO_wpC_wEc.svg">
  <metadata
     id="metadata12821">
    <rdf:RDF>
      <cc:Work
         rdf:about="">
        <dc:format>image/svg+xml</dc:format>
        <dc:type
           rdf:resource="http://purl.org/dc/dcmitype/StillImage" />
        <dc:title></dc:title>
      </cc:Work>
    </rdf:RDF>
  </metadata>
  <sodipodi:namedview
     pagecolor="#ffffff"
     bordercolor="#666666"
     borderopacity="1"
     objecttolerance="10"
     gridtolerance="10"
     guidetolerance="10"
     inkscape:pageopacity="0"
     inkscape:pageshadow="2"
     inkscape:window-width="1535"
     inkscape:window-height="876"
     id="namedview12819"
     showgrid="false"
     inkscape:zoom="0.64888889"
     inkscape:cx="382.62264"
     inkscape:cy="308.29573"
     inkscape:window-x="65"
     inkscape:window-y="24"
     inkscape:window-maximized="1"
     inkscape:current-layer="matplotlib.axis_2" />
  <defs
     id="defs12348">
    <style
       type="text/css"
       id="style12350">
*{stroke-linecap:butt;stroke-linejoin:round;}
  </style>
  </defs>
  <g
     id="figure_1">
    <g
       id="patch_1" />
    <g
       id="axes_1">
      <g
         id="patch_2">
        <path
           d=" M90 388.8 L648 388.8 L648 43.2 L90 43.2 z "
           style="fill:#ffffff;"
           id="path12358" />
      </g>
      <g
         id="line2d_1">
        <path
           clip-path="url(#pd03f7f58b8)"
           d=" M90 245.793 L178.736 245.901 L180.884 246.176 L182.837 246.672 L184.725 247.398 L187.264 248.642 L189.999 249.929 L191.561 250.429 L193.319 250.65 L194.23 250.61 L195.597 250.354 L196.509 250.07 L199.829 248.53 L202.238 247.349 L205.623 246.236 L207.576 245.937 L210.05 245.806 L216.951 245.792 L239.412 245.912 L246.313 246.228 L251.131 246.448 L253.67 246.506 L255.688 246.488 L257.185 246.464 L259.724 246.356 L261.417 246.262 L270.987 245.798 L276.781 245.595 L279.32 245.242 L282.445 244.344 L284.138 243.562 L287.068 241.508 L288.63 240.001 L290.193 238.185 L293.448 233.312 L296.768 226.902 L299.112 221.615 L306.664 204.196 L308.487 200.001 L309.072 198.545 L312.914 203.562 L316.559 208.035 L316.624 208.035 L316.82 208.336 L316.885 208.336 L317.08 208.635 L317.145 208.635 L317.406 209.007 L317.536 209.082 L317.731 209.377 L317.796 209.377 L318.057 209.744 L318.187 209.818 L318.447 210.182 L318.578 210.254 L318.838 210.616 L318.968 210.688 L319.229 211.047 L319.359 211.119 L323.525 215.579 L323.656 215.645 L327.822 219.761 L327.952 219.822 L328.148 220.004 L332.249 223.685 L336.546 227.25 L340.778 230.522 L340.973 230.616 L341.233 230.805 L345.27 233.583 L349.306 236.13 L349.502 236.206 L349.827 236.434 L350.022 236.509 L353.863 238.595 L357.835 240.51 L358.095 240.595 L358.486 240.792 L361.806 242.089 L365.387 243.299 L366.103 243.41 L398.459 243.41 L398.524 243.527 L398.589 243.41 L398.72 243.52 L399.24 243.419 L399.436 243.603 L399.501 243.622 L399.631 243.524 L399.891 243.631 L400.022 243.829 L400.152 243.759 L400.412 243.903 L400.608 244.143 L401.91 244.789 L403.212 245.371 L404.449 245.676 L405.881 245.793 L407.964 245.864 L408.29 245.885 L413.173 246.118 L413.498 246.118 L418.251 246.002 L428.081 245.803 L460.828 245.526 L470.594 245.156 L470.789 245.224 L475.867 245.243 L476.062 245.337 L476.258 245.259 L481.271 245.531 L481.401 245.538 L487.651 245.792 L489.148 245.799 L493.184 245.936 L493.64 245.991 L493.966 245.999 L494.356 246.037 L496.83 246.398 L497.156 246.485 L497.546 246.551 L497.937 246.646 L499.825 247.24 L501.518 248.001 L502.169 248.376 L502.69 248.682 L504.252 249.815 L505.684 251.124 L507.247 252.842 L508.809 254.916 L510.437 257.466 L512.13 260.543 L514.213 264.948 L515.645 268.332 L519.747 278.519 L523.002 287.302 L524.825 292.25 L528.796 301.695 L530.098 304.024 L532.377 306.763 L533.223 307.295 L534.134 307.554 L534.916 307.523 L535.306 307.388 L535.567 307.314 L536.283 306.898 L536.739 306.499 L536.934 306.35 L537.715 305.467 L538.041 304.59 L539.017 301.732 L540.189 298.227 L540.254 296.413 L540.319 298.315 L540.384 298.224 L545.853 288.734 L548.848 285.243 L549.694 284.555 L552.103 282.942 L552.754 281.866 L553.665 279.853 L555.163 275.921 L558.288 267.699 L560.176 263.469 L561.868 260.238 L564.342 256.263 L565.579 254.624 L568.053 251.944 L569.811 250.446 L571.569 249.235 L574.043 247.954 L574.173 248.009 L576.321 247.309 L577.363 247.051 L578.209 246.857 L580.944 246.415 L590.839 245.899 L592.662 245.882 L621.047 245.795 L647.935 245.794 L647.935 245.794"
           style="fill:none;stroke:#0000ff;stroke-linecap:square;stroke-width:2.0;"
           id="path12361" />
      </g>
      <g
         id="line2d_2">
        <path
           clip-path="url(#pd03f7f58b8)"
           d=" M90 131.001 L90.0651 182.302 L90.1302 188.83 L145.208 188.72 L179.191 188.235 L181.926 187.898 L184.53 187.383 L184.986 187.251 L185.441 187.146 L188.111 186.301 L188.436 186.184 L191.496 184.978 L191.887 184.787 L192.212 184.677 L192.538 184.511 L192.733 184.456 L193.058 184.317 L198.267 182.204 L201.327 181.208 L203.8 180.651 L206.535 180.242 L207.837 180.133 L211.287 180.004 L216.626 180.017 L233.227 179.967 L236.743 179.856 L241.821 179.525 L243.188 179.39 L244.295 179.281 L245.336 179.161 L250.935 178.382 L251.651 178.27 L263.891 176.446 L264.932 176.347 L265.974 176.247 L267.471 176.143 L268.969 176.062 L272.81 176.017 L275.609 176.128 L282.706 177.156 L283.161 177.287 L283.552 177.391 L286.091 178.177 L286.417 178.298 L288.5 179.174 L288.825 179.328 L290.974 180.463 L291.299 180.692 L291.495 180.77 L291.755 180.928 L293.968 182.406 L294.294 182.692 L296.703 184.62 L299.177 186.836 L299.437 187.157 L299.567 187.222 L299.763 187.483 L299.893 187.549 L300.153 187.881 L300.218 187.881 L300.414 188.151 L300.479 188.151 L300.674 188.423 L300.739 188.423 L301 188.768 L303.734 191.766 L303.929 191.996 L306.403 195.035 L306.599 195.284 L308.942 198.457 L311.937 202.408 L312.002 202.408 L312.197 202.657 L315.778 207.045 L319.619 211.404 L323.656 215.645 L327.822 219.761 L327.952 219.822 L328.148 220.004 L332.249 223.685 L336.611 227.302 L340.843 230.522 L345.009 233.454 L345.205 233.54 L349.306 236.13 L349.502 236.206 L349.827 236.434 L350.022 236.509 L353.863 238.595 L357.835 240.51 L358.095 240.595 L358.486 240.792 L361.806 242.089 L365.387 243.299 L366.103 243.41 L520.072 243.314 L520.267 243.024 L520.398 242.951 L522.611 240.371 L522.806 240.135 L525.15 237.188 L525.345 236.934 L528.015 233.351 L528.21 233.081 L531.4 228.563 L531.595 228.186 L531.726 228.092 L537.259 219.96 L537.455 219.672 L541.556 213.734 L541.686 213.645 L545.527 208.587 L551.257 201.423 L551.387 201.344 L555.488 196.469 L555.618 196.398 L555.879 196.046 L558.092 193.789 L558.223 193.726 L558.418 193.54 L561.022 191.176 L561.152 191.069 L563.17 189.519 L563.366 189.426 L565.84 187.75 L565.97 187.711 L566.23 187.555 L568.9 186.11 L571.699 184.845 L571.959 184.769 L572.35 184.595 L572.676 184.499 L575.41 183.597 L575.866 183.488 L576.321 183.367 L576.777 183.25 L580.162 182.514 L580.813 182.413 L584.655 181.877 L589.472 181.44 L597.285 180.975 L599.433 180.868 L601.451 180.762 L603.73 180.652 L616.49 180.156 L623.847 180.045 L641.685 180.025 L647.935 180.012 L647.935 180.012"
           style="fill:none;stroke:#ff0000;stroke-dasharray:6.000000,6.000000;stroke-dashoffset:0.0;stroke-width:2.0;"
           id="path12364" />
      </g>
      <g
         id="matplotlib.axis_1">
        <g
           id="xtick_1">
          <g
             id="line2d_3">
            <defs
               id="defs12369">
              <path
                 d=" M0 0 L0 -4"
                 id="m93b0483c22"
                 style="stroke:#000000;stroke-width:0.5;" />
            </defs>
            <g
               id="g12372">
              <use
                 style="stroke:#000000;stroke-width:0.5;"
                 x="90.0"
                 xlink:href="#m93b0483c22"
                 y="388.8"
                 id="use12374" />
            </g>
          </g>
          <g
             id="line2d_4">
            <defs
               id="defs12377">
              <path
                 d=" M0 0 L0 4"
                 id="m741efc42ff"
                 style="stroke:#000000;stroke-width:0.5;" />
            </defs>
            <g
               id="g12380">
              <use
                 style="stroke:#000000;stroke-width:0.5;"
                 x="90.0"
                 xlink:href="#m741efc42ff"
                 y="43.2"
                 id="use12382" />
            </g>
          </g>
          <g
             id="text_1">
            <!-- 0 -->
            <defs
               id="defs12385">
              <path
                 d=" M31.7812 66.4062 Q24.1719 66.4062 20.3281 58.9062 Q16.5 51.4219 16.5 36.375 Q16.5 21.3906 20.3281 13.8906 Q24.1719 6.39062 31.7812 6.39062 Q39.4531 6.39062 43.2812 13.8906 Q47.125 21.3906 47.125 36.375 Q47.125 51.4219 43.2812 58.9062 Q39.4531 66.4062 31.7812 66.4062 M31.7812 74.2188 Q44.0469 74.2188 50.5156 64.5156 Q56.9844 54.8281 56.9844 36.375 Q56.9844 17.9688 50.5156 8.26562 Q44.0469 -1.42188 31.7812 -1.42188 Q19.5312 -1.42188 13.0625 8.26562 Q6.59375 17.9688 6.59375 36.375 Q6.59375 54.8281 13.0625 64.5156 Q19.5312 74.2188 31.7812 74.2188"
                 id="BitstreamVeraSans-Roman-30" />
            </defs>
            <g
               transform="translate(86.9765625 401.918125)scale(0.12 -0.12)"
               id="g12388">
              <use
                 xlink:href="#BitstreamVeraSans-Roman-30"
                 id="use12390" />
            </g>
          </g>
        </g>
        <g
           id="xtick_2">
          <g
             id="line2d_5">
            <g
               id="g12394">
              <use
                 style="stroke:#000000;stroke-width:0.5;"
                 x="155.103255163"
                 xlink:href="#m93b0483c22"
                 y="388.8"
                 id="use12396" />
            </g>
          </g>
          <g
             id="line2d_6">
            <g
               id="g12399">
              <use
                 style="stroke:#000000;stroke-width:0.5;"
                 x="155.103255163"
                 xlink:href="#m741efc42ff"
                 y="43.2"
                 id="use12401" />
            </g>
          </g>
          <g
             id="text_2">
            <!-- 1 -->
            <defs
               id="defs12404">
              <path
                 d=" M12.4062 8.29688 L28.5156 8.29688 L28.5156 63.9219 L10.9844 60.4062 L10.9844 69.3906 L28.4219 72.9062 L38.2812 72.9062 L38.2812 8.29688 L54.3906 8.29688 L54.3906 0 L12.4062 0 z "
                 id="BitstreamVeraSans-Roman-31" />
            </defs>
            <g
               transform="translate(152.498880163 401.918125)scale(0.12 -0.12)"
               id="g12407">
              <use
                 xlink:href="#BitstreamVeraSans-Roman-31"
                 id="use12409" />
            </g>
          </g>
        </g>
        <g
           id="xtick_3">
          <g
             id="line2d_7">
            <g
               id="g12413">
              <use
                 style="stroke:#000000;stroke-width:0.5;"
                 x="220.206510326"
                 xlink:href="#m93b0483c22"
                 y="388.8"
                 id="use12415" />
            </g>
          </g>
          <g
             id="line2d_8">
            <g
               id="g12418">
              <use
                 style="stroke:#000000;stroke-width:0.5;"
                 x="220.206510326"
                 xlink:href="#m741efc42ff"
                 y="43.2"
                 id="use12420" />
            </g>
          </g>
          <g
             id="text_3">
            <!-- 2 -->
            <defs
               id="defs12423">
              <path
                 d=" M19.1875 8.29688 L53.6094 8.29688 L53.6094 0 L7.32812 0 L7.32812 8.29688 Q12.9375 14.1094 22.625 23.8906 Q32.3281 33.6875 34.8125 36.5312 Q39.5469 41.8438 41.4219 45.5312 Q43.3125 49.2188 43.3125 52.7812 Q43.3125 58.5938 39.2344 62.25 Q35.1562 65.9219 28.6094 65.9219 Q23.9688 65.9219 18.8125 64.3125 Q13.6719 62.7031 7.8125 59.4219 L7.8125 69.3906 Q13.7656 71.7812 18.9375 73 Q24.125 74.2188 28.4219 74.2188 Q39.75 74.2188 46.4844 68.5469 Q53.2188 62.8906 53.2188 53.4219 Q53.2188 48.9219 51.5312 44.8906 Q49.8594 40.875 45.4062 35.4062 Q44.1875 33.9844 37.6406 27.2188 Q31.1094 20.4531 19.1875 8.29688"
                 id="BitstreamVeraSans-Roman-32" />
            </defs>
            <g
               transform="translate(217.429635326 401.918125)scale(0.12 -0.12)"
               id="g12426">
              <use
                 xlink:href="#BitstreamVeraSans-Roman-32"
                 id="use12428" />
            </g>
          </g>
        </g>
        <g
           id="xtick_4">
          <g
             id="line2d_9">
            <g
               id="g12432">
              <use
                 style="stroke:#000000;stroke-width:0.5;"
                 x="285.309765488"
                 xlink:href="#m93b0483c22"
                 y="388.8"
                 id="use12434" />
            </g>
          </g>
          <g
             id="line2d_10">
            <g
               id="g12437">
              <use
                 style="stroke:#000000;stroke-width:0.5;"
                 x="285.309765488"
                 xlink:href="#m741efc42ff"
                 y="43.2"
                 id="use12439" />
            </g>
          </g>
          <g
             id="text_4">
            <!-- 3 -->
            <defs
               id="defs12442">
              <path
                 d=" M40.5781 39.3125 Q47.6562 37.7969 51.625 33 Q55.6094 28.2188 55.6094 21.1875 Q55.6094 10.4062 48.1875 4.48438 Q40.7656 -1.42188 27.0938 -1.42188 Q22.5156 -1.42188 17.6562 -0.515625 Q12.7969 0.390625 7.625 2.20312 L7.625 11.7188 Q11.7188 9.32812 16.5938 8.10938 Q21.4844 6.89062 26.8125 6.89062 Q36.0781 6.89062 40.9375 10.5469 Q45.7969 14.2031 45.7969 21.1875 Q45.7969 27.6406 41.2812 31.2656 Q36.7656 34.9062 28.7188 34.9062 L20.2188 34.9062 L20.2188 43.0156 L29.1094 43.0156 Q36.375 43.0156 40.2344 45.9219 Q44.0938 48.8281 44.0938 54.2969 Q44.0938 59.9062 40.1094 62.9062 Q36.1406 65.9219 28.7188 65.9219 Q24.6562 65.9219 20.0156 65.0312 Q15.375 64.1562 9.8125 62.3125 L9.8125 71.0938 Q15.4375 72.6562 20.3438 73.4375 Q25.25 74.2188 29.5938 74.2188 Q40.8281 74.2188 47.3594 69.1094 Q53.9062 64.0156 53.9062 55.3281 Q53.9062 49.2656 50.4375 45.0938 Q46.9688 40.9219 40.5781 39.3125"
                 id="BitstreamVeraSans-Roman-33" />
            </defs>
            <g
               transform="translate(282.430702988 401.918125)scale(0.12 -0.12)"
               id="g12445">
              <use
                 xlink:href="#BitstreamVeraSans-Roman-33"
                 id="use12447" />
            </g>
          </g>
        </g>
        <g
           id="xtick_5">
          <g
             id="line2d_11">
            <g
               id="g12451">
              <use
                 style="stroke:#000000;stroke-width:0.5;"
                 x="350.413020651"
                 xlink:href="#m93b0483c22"
                 y="388.8"
                 id="use12453" />
            </g>
          </g>
          <g
             id="line2d_12">
            <g
               id="g12456">
              <use
                 style="stroke:#000000;stroke-width:0.5;"
                 x="350.413020651"
                 xlink:href="#m741efc42ff"
                 y="43.2"
                 id="use12458" />
            </g>
          </g>
          <g
             id="text_5">
            <!-- 4 -->
            <defs
               id="defs12461">
              <path
                 d=" M37.7969 64.3125 L12.8906 25.3906 L37.7969 25.3906 z  M35.2031 72.9062 L47.6094 72.9062 L47.6094 25.3906 L58.0156 25.3906 L58.0156 17.1875 L47.6094 17.1875 L47.6094 0 L37.7969 0 L37.7969 17.1875 L4.89062 17.1875 L4.89062 26.7031 z "
                 id="BitstreamVeraSans-Roman-34" />
            </defs>
            <g
               transform="translate(347.225520651 401.918125)scale(0.12 -0.12)"
               id="g12464">
              <use
                 xlink:href="#BitstreamVeraSans-Roman-34"
                 id="use12466" />
            </g>
          </g>
        </g>
        <g
           id="xtick_6">
          <g
             id="line2d_13">
            <g
               id="g12470">
              <use
                 style="stroke:#000000;stroke-width:0.5;"
                 x="415.516275814"
                 xlink:href="#m93b0483c22"
                 y="388.8"
                 id="use12472" />
            </g>
          </g>
          <g
             id="line2d_14">
            <g
               id="g12475">
              <use
                 style="stroke:#000000;stroke-width:0.5;"
                 x="415.516275814"
                 xlink:href="#m741efc42ff"
                 y="43.2"
                 id="use12477" />
            </g>
          </g>
          <g
             id="text_6">
            <!-- 5 -->
            <defs
               id="defs12480">
              <path
                 d=" M10.7969 72.9062 L49.5156 72.9062 L49.5156 64.5938 L19.8281 64.5938 L19.8281 46.7344 Q21.9688 47.4688 24.1094 47.8281 Q26.2656 48.1875 28.4219 48.1875 Q40.625 48.1875 47.75 41.5 Q54.8906 34.8125 54.8906 23.3906 Q54.8906 11.625 47.5625 5.09375 Q40.2344 -1.42188 26.9062 -1.42188 Q22.3125 -1.42188 17.5469 -0.640625 Q12.7969 0.140625 7.71875 1.70312 L7.71875 11.625 Q12.1094 9.23438 16.7969 8.0625 Q21.4844 6.89062 26.7031 6.89062 Q35.1562 6.89062 40.0781 11.3281 Q45.0156 15.7656 45.0156 23.3906 Q45.0156 31 40.0781 35.4375 Q35.1562 39.8906 26.7031 39.8906 Q22.75 39.8906 18.8125 39.0156 Q14.8906 38.1406 10.7969 36.2812 z "
                 id="BitstreamVeraSans-Roman-35" />
            </defs>
            <g
               transform="translate(412.685963314 401.918125)scale(0.12 -0.12)"
               id="g12483">
              <use
                 xlink:href="#BitstreamVeraSans-Roman-35"
                 id="use12485" />
            </g>
          </g>
        </g>
        <g
           id="xtick_7">
          <g
             id="line2d_15">
            <g
               id="g12489">
              <use
                 style="stroke:#000000;stroke-width:0.5;"
                 x="480.619530977"
                 xlink:href="#m93b0483c22"
                 y="388.8"
                 id="use12491" />
            </g>
          </g>
          <g
             id="line2d_16">
            <g
               id="g12494">
              <use
                 style="stroke:#000000;stroke-width:0.5;"
                 x="480.619530977"
                 xlink:href="#m741efc42ff"
                 y="43.2"
                 id="use12496" />
            </g>
          </g>
          <g
             id="text_7">
            <!-- 6 -->
            <defs
               id="defs12499">
              <path
                 d=" M33.0156 40.375 Q26.375 40.375 22.4844 35.8281 Q18.6094 31.2969 18.6094 23.3906 Q18.6094 15.5312 22.4844 10.9531 Q26.375 6.39062 33.0156 6.39062 Q39.6562 6.39062 43.5312 10.9531 Q47.4062 15.5312 47.4062 23.3906 Q47.4062 31.2969 43.5312 35.8281 Q39.6562 40.375 33.0156 40.375 M52.5938 71.2969 L52.5938 62.3125 Q48.875 64.0625 45.0938 64.9844 Q41.3125 65.9219 37.5938 65.9219 Q27.8281 65.9219 22.6719 59.3281 Q17.5312 52.7344 16.7969 39.4062 Q19.6719 43.6562 24.0156 45.9219 Q28.375 48.1875 33.5938 48.1875 Q44.5781 48.1875 50.9531 41.5156 Q57.3281 34.8594 57.3281 23.3906 Q57.3281 12.1562 50.6875 5.35938 Q44.0469 -1.42188 33.0156 -1.42188 Q20.3594 -1.42188 13.6719 8.26562 Q6.98438 17.9688 6.98438 36.375 Q6.98438 53.6562 15.1875 63.9375 Q23.3906 74.2188 37.2031 74.2188 Q40.9219 74.2188 44.7031 73.4844 Q48.4844 72.75 52.5938 71.2969"
                 id="BitstreamVeraSans-Roman-36" />
            </defs>
            <g
               transform="translate(477.598905977 401.918125)scale(0.12 -0.12)"
               id="g12502">
              <use
                 xlink:href="#BitstreamVeraSans-Roman-36"
                 id="use12504" />
            </g>
          </g>
        </g>
        <g
           id="xtick_8">
          <g
             id="line2d_17">
            <g
               id="g12508">
              <use
                 style="stroke:#000000;stroke-width:0.5;"
                 x="545.722786139"
                 xlink:href="#m93b0483c22"
                 y="388.8"
                 id="use12510" />
            </g>
          </g>
          <g
             id="line2d_18">
            <g
               id="g12513">
              <use
                 style="stroke:#000000;stroke-width:0.5;"
                 x="545.722786139"
                 xlink:href="#m741efc42ff"
                 y="43.2"
                 id="use12515" />
            </g>
          </g>
          <g
             id="text_8">
            <!-- 7 -->
            <defs
               id="defs12518">
              <path
                 d=" M8.20312 72.9062 L55.0781 72.9062 L55.0781 68.7031 L28.6094 0 L18.3125 0 L43.2188 64.5938 L8.20312 64.5938 z "
                 id="BitstreamVeraSans-Roman-37" />
            </defs>
            <g
               transform="translate(542.910286139 401.918125)scale(0.12 -0.12)"
               id="g12521">
              <use
                 xlink:href="#BitstreamVeraSans-Roman-37"
                 id="use12523" />
            </g>
          </g>
        </g>
        <g
           id="xtick_9">
          <g
             id="line2d_19">
            <g
               id="g12527">
              <use
                 style="stroke:#000000;stroke-width:0.5;"
                 x="610.826041302"
                 xlink:href="#m93b0483c22"
                 y="388.8"
                 id="use12529" />
            </g>
          </g>
          <g
             id="line2d_20">
            <g
               id="g12532">
              <use
                 style="stroke:#000000;stroke-width:0.5;"
                 x="610.826041302"
                 xlink:href="#m741efc42ff"
                 y="43.2"
                 id="use12534" />
            </g>
          </g>
          <g
             id="text_9">
            <!-- 8 -->
            <defs
               id="defs12537">
              <path
                 d=" M31.7812 34.625 Q24.75 34.625 20.7188 30.8594 Q16.7031 27.0938 16.7031 20.5156 Q16.7031 13.9219 20.7188 10.1562 Q24.75 6.39062 31.7812 6.39062 Q38.8125 6.39062 42.8594 10.1719 Q46.9219 13.9688 46.9219 20.5156 Q46.9219 27.0938 42.8906 30.8594 Q38.875 34.625 31.7812 34.625 M21.9219 38.8125 Q15.5781 40.375 12.0312 44.7188 Q8.5 49.0781 8.5 55.3281 Q8.5 64.0625 14.7188 69.1406 Q20.9531 74.2188 31.7812 74.2188 Q42.6719 74.2188 48.875 69.1406 Q55.0781 64.0625 55.0781 55.3281 Q55.0781 49.0781 51.5312 44.7188 Q48 40.375 41.7031 38.8125 Q48.8281 37.1562 52.7969 32.3125 Q56.7812 27.4844 56.7812 20.5156 Q56.7812 9.90625 50.3125 4.23438 Q43.8438 -1.42188 31.7812 -1.42188 Q19.7344 -1.42188 13.25 4.23438 Q6.78125 9.90625 6.78125 20.5156 Q6.78125 27.4844 10.7812 32.3125 Q14.7969 37.1562 21.9219 38.8125 M18.3125 54.3906 Q18.3125 48.7344 21.8438 45.5625 Q25.3906 42.3906 31.7812 42.3906 Q38.1406 42.3906 41.7188 45.5625 Q45.3125 48.7344 45.3125 54.3906 Q45.3125 60.0625 41.7188 63.2344 Q38.1406 66.4062 31.7812 66.4062 Q25.3906 66.4062 21.8438 63.2344 Q18.3125 60.0625 18.3125 54.3906"
                 id="BitstreamVeraSans-Roman-38" />
            </defs>
            <g
               transform="translate(607.826041302 401.918125)scale(0.12 -0.12)"
               id="g12540">
              <use
                 xlink:href="#BitstreamVeraSans-Roman-38"
                 id="use12542" />
            </g>
          </g>
        </g>
        <g
           id="text_10">
          <!-- $time (s)$ -->
          <defs
             id="defs12545">
            <path
               d=" M7.71875 1.70312 Q7.71875 2.29688 7.8125 2.59375 L15.2812 32.4219 Q16.0156 35.2031 16.0156 37.3125 Q16.0156 41.6094 13.0938 41.6094 Q9.96875 41.6094 8.45312 37.8594 Q6.9375 34.125 5.51562 28.4219 Q5.51562 28.125 5.21875 27.9531 Q4.9375 27.7812 4.6875 27.7812 L3.51562 27.7812 Q3.17188 27.7812 2.92188 28.1406 Q2.6875 28.5156 2.6875 28.8125 Q3.76562 33.1562 4.76562 36.1719 Q5.76562 39.2031 7.89062 41.6875 Q10.0156 44.1875 13.1875 44.1875 Q16.9375 44.1875 19.8125 41.8125 Q22.7031 39.4531 22.7031 35.7969 Q25.6875 39.7031 29.6875 41.9375 Q33.6875 44.1875 38.1875 44.1875 Q42.9219 44.1875 46.3594 41.7656 Q49.8125 39.3594 49.8125 34.9062 Q52.875 39.2656 57 41.7188 Q61.1406 44.1875 66.0156 44.1875 Q71.1875 44.1875 74.3281 41.375 Q77.4844 38.5781 77.4844 33.4062 Q77.4844 29.2969 75.6562 23.4844 Q73.8281 17.6719 71.0938 10.5 Q69.6719 7.03125 69.6719 4.5 Q69.6719 1.51562 72.0156 1.51562 Q75.9219 1.51562 78.5156 5.70312 Q81.1094 9.90625 82.1719 14.7031 Q82.4688 15.2812 83.0156 15.2812 L84.1875 15.2812 Q84.5781 15.2812 84.8438 15.0156 Q85.1094 14.75 85.1094 14.4062 Q85.1094 14.3125 85.0156 14.1094 Q83.6406 8.45312 80.25 3.65625 Q76.8594 -1.125 71.7812 -1.125 Q68.2656 -1.125 65.7656 1.29688 Q63.2812 3.71875 63.2812 7.17188 Q63.2812 8.9375 64.1094 11.0781 Q66.9375 18.6094 68.8125 24.5156 Q70.7031 30.4219 70.7031 34.9062 Q70.7031 37.7031 69.5781 39.6562 Q68.4531 41.6094 65.8281 41.6094 Q60.3594 41.6094 56.3438 38.25 Q52.3438 34.9062 49.4219 29.3906 Q49.2188 28.4219 49.125 27.875 L42.6719 2.20312 Q42.3281 0.828125 41.125 -0.140625 Q39.9375 -1.125 38.4844 -1.125 Q37.3125 -1.125 36.4062 -0.34375 Q35.5 0.4375 35.5 1.70312 Q35.5 2.29688 35.5938 2.59375 L42 28.0781 Q43.0156 32.1719 43.0156 34.9062 Q43.0156 37.7031 41.8594 39.6562 Q40.7188 41.6094 37.9844 41.6094 Q34.3281 41.6094 31.25 39.9844 Q28.1719 38.375 25.875 35.7188 Q23.5781 33.0625 21.6875 29.3906 L14.8906 2.20312 Q14.5469 0.828125 13.3438 -0.140625 Q12.1562 -1.125 10.6875 -1.125 Q9.46875 -1.125 8.59375 -0.34375 Q7.71875 0.4375 7.71875 1.70312"
               id="Cmmi10-6d" />
            <path
               d=" M31 -24.8125 Q25.4375 -20.4062 21.4062 -14.7188 Q17.3906 -9.03125 14.8125 -2.57812 Q12.25 3.85938 10.9844 10.8906 Q9.71875 17.9219 9.71875 25 Q9.71875 32.1719 10.9844 39.2031 Q12.25 46.2344 14.8594 52.7344 Q17.4844 59.2344 21.5312 64.8906 Q25.5938 70.5625 31 74.8125 Q31 75 31.5 75 L32.4219 75 Q32.7188 75 32.9531 74.7344 Q33.2031 74.4688 33.2031 74.125 Q33.2031 73.6875 33.0156 73.4844 Q28.125 68.7031 24.875 63.2344 Q21.625 57.7656 19.6406 51.5781 Q17.6719 45.4062 16.7969 38.7812 Q15.9219 32.1719 15.9219 25 Q15.9219 -6.78125 32.9062 -23.2969 Q33.2031 -23.5781 33.2031 -24.125 Q33.2031 -24.3594 32.9375 -24.6719 Q32.6719 -25 32.4219 -25 L31.5 -25 Q31 -25 31 -24.8125"
               id="Cmr10-28" />
            <path
               d=" M6.5 -25 Q5.60938 -25 5.60938 -24.125 Q5.60938 -23.6875 5.8125 -23.4844 Q22.9062 -6.78125 22.9062 25 Q22.9062 56.7812 6 73.2969 Q5.60938 73.5312 5.60938 74.125 Q5.60938 74.4688 5.875 74.7344 Q6.15625 75 6.5 75 L7.42188 75 Q7.71875 75 7.90625 74.8125 Q15.0938 69.1406 19.875 61.0312 Q24.6562 52.9375 26.875 43.75 Q29.1094 34.5781 29.1094 25 Q29.1094 17.9219 27.9062 11.0625 Q26.7031 4.20312 24.0938 -2.45312 Q21.4844 -9.125 17.4844 -14.7656 Q13.4844 -20.4062 7.90625 -24.8125 Q7.71875 -25 7.42188 -25 z "
               id="Cmr10-29" />
            <path
               d=" M8.6875 6.10938 Q11.375 1.51562 19.4844 1.51562 Q23 1.51562 26.1719 2.70312 Q29.3438 3.90625 31.4219 6.29688 Q33.5 8.6875 33.5 12.1094 Q33.5 14.7031 31.6406 16.3594 Q29.7812 18.0156 27.0938 18.6094 L21.6875 19.6719 Q17.9688 20.6094 15.5781 23.1406 Q13.1875 25.6875 13.1875 29.2969 Q13.1875 33.7344 15.5938 37.1562 Q18.0156 40.5781 21.9688 42.375 Q25.9219 44.1875 30.1719 44.1875 Q34.7188 44.1875 38.2969 42.0156 Q41.8906 39.8438 41.8906 35.5938 Q41.8906 33.2969 40.5938 31.5312 Q39.3125 29.7812 37.0156 29.7812 Q35.6875 29.7812 34.7344 30.6406 Q33.7969 31.5 33.7969 32.8125 Q33.7969 33.9844 34.4531 35.0781 Q35.1094 36.1875 36.2031 36.8438 Q37.3125 37.5 38.4844 37.5 Q37.5938 39.6562 35.1719 40.625 Q32.7656 41.6094 29.9844 41.6094 Q27.4375 41.6094 24.8906 40.5781 Q22.3594 39.5469 20.8125 37.5625 Q19.2812 35.5938 19.2812 32.9062 Q19.2812 31.1094 20.5469 29.7344 Q21.8281 28.375 23.6875 27.7812 L29.5 26.6094 Q32.2812 26.0312 34.5938 24.5312 Q36.9219 23.0469 38.25 20.7656 Q39.5938 18.5 39.5938 15.5781 Q39.5938 11.8594 37.5156 8.25 Q35.4531 4.64062 32.4219 2.48438 Q27.0938 -1.125 19.3906 -1.125 Q14.0625 -1.125 9.60938 1.3125 Q5.17188 3.76562 5.17188 8.59375 Q5.17188 11.3281 6.75 13.3438 Q8.34375 15.375 11.0781 15.375 Q12.7031 15.375 13.7969 14.3906 Q14.8906 13.4219 14.8906 11.8125 Q14.8906 9.51562 13.1719 7.8125 Q11.4688 6.10938 9.1875 6.10938 z "
               id="Cmmi10-73" />
            <path
               d=" M20.125 -1.125 Q15.3281 -1.125 11.7344 1.35938 Q8.15625 3.85938 6.26562 8.07812 Q4.39062 12.3125 4.39062 17 Q4.39062 24.125 7.98438 30.3906 Q11.5781 36.6719 17.7188 40.4219 Q23.875 44.1875 30.9062 44.1875 Q35.2031 44.1875 38.4062 41.9688 Q41.6094 39.75 41.6094 35.5938 Q41.6094 29.8281 37.0156 27.0156 Q32.4219 24.2188 26.6562 23.5625 Q20.9062 22.9062 13.9219 22.9062 L13.625 22.9062 Q12.0156 16.9375 12.0156 12.7031 Q12.0156 8.25 14.0625 4.875 Q16.1094 1.51562 20.3125 1.51562 Q26.2656 1.51562 31.75 4.25 Q37.25 6.98438 40.7188 11.8125 Q41.0156 12.1094 41.5 12.1094 Q42 12.1094 42.5 11.5469 Q43.0156 10.9844 43.0156 10.5 Q43.0156 10.1094 42.8281 9.90625 Q39.1562 4.78125 32.9531 1.82812 Q26.7656 -1.125 20.125 -1.125 M14.2031 25.4844 Q20.0156 25.4844 24.9531 26.0156 Q29.8906 26.5625 33.8906 28.7344 Q37.8906 30.9062 37.8906 35.5 Q37.8906 37.3594 36.8594 38.75 Q35.8438 40.1406 34.2031 40.875 Q32.5625 41.6094 30.8125 41.6094 Q26.5625 41.6094 23.1719 39.3125 Q19.7812 37.0156 17.5781 33.3281 Q15.375 29.6406 14.2031 25.4844"
               id="Cmmi10-65" />
            <path
               d=" M6.20312 8.10938 Q6.20312 9.57812 6.5 10.8906 L13.7188 39.5938 L3.21875 39.5938 Q2.20312 39.5938 2.20312 40.9219 Q2.59375 43.1094 3.51562 43.1094 L14.5938 43.1094 L18.6094 59.4219 Q19 60.75 20.1719 61.6719 Q21.3438 62.5938 22.7969 62.5938 Q24.0781 62.5938 24.9219 61.8281 Q25.7812 61.0781 25.7812 59.8125 Q25.7812 59.5156 25.75 59.3438 Q25.7344 59.1875 25.6875 58.9844 L21.6875 43.1094 L31.9844 43.1094 Q33.0156 43.1094 33.0156 41.7969 Q32.9531 41.5469 32.8125 40.9531 Q32.6719 40.375 32.4219 39.9844 Q32.1719 39.5938 31.6875 39.5938 L20.7969 39.5938 L13.625 10.6875 Q12.8906 7.85938 12.8906 5.8125 Q12.8906 1.51562 15.8281 1.51562 Q20.2188 1.51562 23.6094 5.64062 Q27 9.76562 28.8125 14.7031 Q29.2031 15.2812 29.5938 15.2812 L30.8125 15.2812 Q31.2031 15.2812 31.4375 15.0156 Q31.6875 14.75 31.6875 14.4062 Q31.6875 14.2031 31.5938 14.1094 Q29.3906 8.0625 25.1875 3.46875 Q21 -1.125 15.5781 -1.125 Q11.625 -1.125 8.90625 1.45312 Q6.20312 4.04688 6.20312 8.10938"
               id="Cmmi10-74" />
            <path
               d=" M7.8125 7.17188 Q7.8125 9.03125 8.59375 11.0781 L16.7031 32.625 Q18.0156 36.2812 18.0156 38.625 Q18.0156 41.6094 15.8281 41.6094 Q11.8594 41.6094 9.29688 37.5312 Q6.73438 33.4531 5.51562 28.4219 Q5.32812 27.7812 4.6875 27.7812 L3.51562 27.7812 Q2.6875 27.7812 2.6875 28.7188 L2.6875 29 Q4.29688 34.9688 7.60938 39.5781 Q10.9375 44.1875 16.0156 44.1875 Q19.5781 44.1875 22.0469 41.8438 Q24.5156 39.5 24.5156 35.8906 Q24.5156 34.0312 23.6875 31.9844 L15.5781 10.5 Q14.2031 7.17188 14.2031 4.5 Q14.2031 1.51562 16.5 1.51562 Q20.4062 1.51562 23.0156 5.6875 Q25.6406 9.85938 26.7031 14.7031 Q26.9062 15.2812 27.4844 15.2812 L28.7188 15.2812 Q29.1094 15.2812 29.3438 15.0156 Q29.5938 14.75 29.5938 14.4062 Q29.5938 14.3125 29.5 14.1094 Q28.125 8.45312 24.7344 3.65625 Q21.3438 -1.125 16.3125 -1.125 Q12.7969 -1.125 10.2969 1.29688 Q7.8125 3.71875 7.8125 7.17188 M19.0938 60.5938 Q19.0938 62.7031 20.8438 64.4062 Q22.6094 66.1094 24.7031 66.1094 Q26.4219 66.1094 27.5156 65.0625 Q28.6094 64.0156 28.6094 62.4062 Q28.6094 60.1562 26.8281 58.4688 Q25.0469 56.7812 22.9062 56.7812 Q21.2969 56.7812 20.1875 57.875 Q19.0938 58.9844 19.0938 60.5938"
               id="Cmmi10-69" />
          </defs>
          <g
             transform="translate(336.0 424.41375)scale(0.2 -0.2)"
             id="g12554">
            <use
               xlink:href="#Cmmi10-74"
               id="use12556" />
            <use
               transform="translate(36.083984375 0.0)"
               xlink:href="#Cmmi10-69"
               id="use12558" />
            <use
               transform="translate(70.5078125 0.0)"
               xlink:href="#Cmmi10-6d"
               id="use12560" />
            <use
               transform="translate(158.30078125 0.0)"
               xlink:href="#Cmmi10-65"
               id="use12562" />
            <use
               transform="translate(204.78515625 0.0)"
               xlink:href="#Cmr10-28"
               id="use12564" />
            <use
               transform="translate(243.603515625 0.0)"
               xlink:href="#Cmmi10-73"
               id="use12566" />
            <use
               transform="translate(290.380859375 0.0)"
               xlink:href="#Cmr10-29"
               id="use12568" />
          </g>
        </g>
      </g>
      <g
         id="matplotlib.axis_2">
        <g
           id="ytick_1">
          <g
             id="text_11">
            <!-- −0.6 -->
            <defs
               id="defs12573">
              <path
                 d=" M10.5938 35.5 L73.1875 35.5 L73.1875 27.2031 L10.5938 27.2031 z "
                 id="BitstreamVeraSans-Roman-2212" />
              <path
                 d=" M10.6875 12.4062 L21 12.4062 L21 0 L10.6875 0 z "
                 id="BitstreamVeraSans-Roman-2e" />
            </defs>
            <g
               transform="translate(58.8875 392.11125)scale(0.12 -0.12)"
               id="g12577">
              <use
                 xlink:href="#BitstreamVeraSans-Roman-2212"
                 id="use12579" />
              <use
                 x="83.7890625"
                 xlink:href="#BitstreamVeraSans-Roman-30"
                 id="use12581" />
              <use
                 x="147.412109375"
                 xlink:href="#BitstreamVeraSans-Roman-2e"
                 id="use12583" />
              <use
                 x="179.19921875"
                 xlink:href="#BitstreamVeraSans-Roman-36"
                 id="use12585" />
            </g>
          </g>
        </g>
        <g
           id="ytick_2">
          <g
             id="line2d_21">
            <defs
               id="defs12589">
              <path
                 d=" M0 0 L4 0"
                 id="m728421d6d4"
                 style="stroke:#000000;stroke-width:0.5;" />
            </defs>
            <g
               id="g12592">
              <use
                 style="stroke:#000000;stroke-width:0.5;"
                 x="90.0"
                 xlink:href="#m728421d6d4"
                 y="341.131034483"
                 id="use12594" />
            </g>
          </g>
          <g
             id="line2d_22">
            <defs
               id="defs12597">
              <path
                 d=" M0 0 L-4 0"
                 id="mcb0005524f"
                 style="stroke:#000000;stroke-width:0.5;" />
            </defs>
            <g
               id="g12600">
              <use
                 style="stroke:#000000;stroke-width:0.5;"
                 x="648.0"
                 xlink:href="#mcb0005524f"
                 y="341.131034483"
                 id="use12602" />
            </g>
          </g>
          <g
             id="text_12">
            <!-- −0.4 -->
            <g
               transform="translate(58.805 344.442284483)scale(0.12 -0.12)"
               id="g12605">
              <use
                 xlink:href="#BitstreamVeraSans-Roman-2212"
                 id="use12607" />
              <use
                 x="83.7890625"
                 xlink:href="#BitstreamVeraSans-Roman-30"
                 id="use12609" />
              <use
                 x="147.412109375"
                 xlink:href="#BitstreamVeraSans-Roman-2e"
                 id="use12611" />
              <use
                 x="179.19921875"
                 xlink:href="#BitstreamVeraSans-Roman-34"
                 id="use12613" />
            </g>
          </g>
        </g>
        <g
           id="ytick_3">
          <g
             id="line2d_23">
            <g
               id="g12617">
              <use
                 style="stroke:#000000;stroke-width:0.5;"
                 x="90.0"
                 xlink:href="#m728421d6d4"
                 y="293.462068966"
                 id="use12619" />
            </g>
          </g>
          <g
             id="line2d_24">
            <g
               id="g12622">
              <use
                 style="stroke:#000000;stroke-width:0.5;"
                 x="648.0"
                 xlink:href="#mcb0005524f"
                 y="293.462068966"
                 id="use12624" />
            </g>
          </g>
          <g
             id="text_13">
            <!-- −0.2 -->
            <g
               transform="translate(59.33375 296.773318966)scale(0.12 -0.12)"
               id="g12627">
              <use
                 xlink:href="#BitstreamVeraSans-Roman-2212"
                 id="use12629" />
              <use
                 x="83.7890625"
                 xlink:href="#BitstreamVeraSans-Roman-30"
                 id="use12631" />
              <use
                 x="147.412109375"
                 xlink:href="#BitstreamVeraSans-Roman-2e"
                 id="use12633" />
              <use
                 x="179.19921875"
                 xlink:href="#BitstreamVeraSans-Roman-32"
                 id="use12635" />
            </g>
          </g>
        </g>
        <g
           id="ytick_4">
          <g
             id="line2d_25">
            <g
               id="g12639">
              <use
                 style="stroke:#000000;stroke-width:0.5;"
                 x="90.0"
                 xlink:href="#m728421d6d4"
                 y="245.793103448"
                 id="use12641" />
            </g>
          </g>
          <g
             id="line2d_26">
            <g
               id="g12644">
              <use
                 style="stroke:#000000;stroke-width:0.5;"
                 x="648.0"
                 xlink:href="#mcb0005524f"
                 y="245.793103448"
                 id="use12646" />
            </g>
          </g>
          <g
             id="text_14">
            <!-- 0.0 -->
            <g
               transform="translate(68.504375 249.104353448)scale(0.12 -0.12)"
               id="g12649">
              <use
                 xlink:href="#BitstreamVeraSans-Roman-30"
                 id="use12651" />
              <use
                 x="63.623046875"
                 xlink:href="#BitstreamVeraSans-Roman-2e"
                 id="use12653" />
              <use
                 x="95.41015625"
                 xlink:href="#BitstreamVeraSans-Roman-30"
                 id="use12655" />
            </g>
          </g>
        </g>
        <g
           id="ytick_5">
          <g
             id="line2d_27">
            <g
               id="g12659">
              <use
                 style="stroke:#000000;stroke-width:0.5;"
                 x="90.0"
                 xlink:href="#m728421d6d4"
                 y="198.124137931"
                 id="use12661" />
            </g>
          </g>
          <g
             id="line2d_28">
            <g
               id="g12664">
              <use
                 style="stroke:#000000;stroke-width:0.5;"
                 x="648.0"
                 xlink:href="#mcb0005524f"
                 y="198.124137931"
                 id="use12666" />
            </g>
          </g>
          <g
             id="text_15">
            <!-- 0.2 -->
            <g
               transform="translate(68.909375 201.435387931)scale(0.12 -0.12)"
               id="g12669">
              <use
                 xlink:href="#BitstreamVeraSans-Roman-30"
                 id="use12671" />
              <use
                 x="63.623046875"
                 xlink:href="#BitstreamVeraSans-Roman-2e"
                 id="use12673" />
              <use
                 x="95.41015625"
                 xlink:href="#BitstreamVeraSans-Roman-32"
                 id="use12675" />
            </g>
          </g>
        </g>
        <g
           id="ytick_6">
          <g
             id="line2d_29">
            <g
               id="g12679">
              <use
                 style="stroke:#000000;stroke-width:0.5;"
                 x="90.0"
                 xlink:href="#m728421d6d4"
                 y="150.455172414"
                 id="use12681" />
            </g>
          </g>
          <g
             id="line2d_30">
            <g
               id="g12684">
              <use
                 style="stroke:#000000;stroke-width:0.5;"
                 x="648.0"
                 xlink:href="#mcb0005524f"
                 y="150.455172414"
                 id="use12686" />
            </g>
          </g>
          <g
             id="text_16">
            <!-- 0.4 -->
            <g
               transform="translate(68.380625 153.766422414)scale(0.12 -0.12)"
               id="g12689">
              <use
                 xlink:href="#BitstreamVeraSans-Roman-30"
                 id="use12691" />
              <use
                 x="63.623046875"
                 xlink:href="#BitstreamVeraSans-Roman-2e"
                 id="use12693" />
              <use
                 x="95.41015625"
                 xlink:href="#BitstreamVeraSans-Roman-34"
                 id="use12695" />
            </g>
          </g>
        </g>
        <g
           id="ytick_7">
          <g
             id="line2d_31">
            <g
               id="g12699">
              <use
                 style="stroke:#000000;stroke-width:0.5;"
                 x="90.0"
                 xlink:href="#m728421d6d4"
                 y="102.786206897"
                 id="use12701" />
            </g>
          </g>
          <g
             id="line2d_32">
            <g
               id="g12704">
              <use
                 style="stroke:#000000;stroke-width:0.5;"
                 x="648.0"
                 xlink:href="#mcb0005524f"
                 y="102.786206897"
                 id="use12706" />
            </g>
          </g>
          <g
             id="text_17">
            <!-- 0.6 -->
            <g
               transform="translate(68.463125 106.097456897)scale(0.12 -0.12)"
               id="g12709">
              <use
                 xlink:href="#BitstreamVeraSans-Roman-30"
                 id="use12711" />
              <use
                 x="63.623046875"
                 xlink:href="#BitstreamVeraSans-Roman-2e"
                 id="use12713" />
              <use
                 x="95.41015625"
                 xlink:href="#BitstreamVeraSans-Roman-36"
                 id="use12715" />
            </g>
          </g>
        </g>
        <g
           id="ytick_8">
          <g
             id="line2d_33">
            <g
               id="g12719">
              <use
                 style="stroke:#000000;stroke-width:0.5;"
                 x="90.0"
                 xlink:href="#m728421d6d4"
                 y="55.1172413793"
                 id="use12721" />
            </g>
          </g>
          <g
             id="line2d_34">
            <g
               id="g12724">
              <use
                 style="stroke:#000000;stroke-width:0.5;"
                 x="648.0"
                 xlink:href="#mcb0005524f"
                 y="55.1172413793"
                 id="use12726" />
            </g>
          </g>
          <g
             id="text_18">
            <!-- 0.8 -->
            <g
               transform="translate(68.52875 58.4284913793)scale(0.12 -0.12)"
               id="g12729">
              <use
                 xlink:href="#BitstreamVeraSans-Roman-30"
                 id="use12731" />
              <use
                 x="63.623046875"
                 xlink:href="#BitstreamVeraSans-Roman-2e"
                 id="use12733" />
              <use
                 x="95.41015625"
                 xlink:href="#BitstreamVeraSans-Roman-38"
                 id="use12735" />
            </g>
          </g>
        </g>
        <g
           id="text_19"
           transform="translate(11.09589,-2.4657534)"
           style="stroke-linecap:butt;stroke-linejoin:round">
          <!-- $(Joules)$ -->
          <defs
             id="defs12738">
            <path
               d="m 4.39062,8.10938 q 0,0.29687 0.07813,0.875 0.07813,0.59374 0.14063,1.14062 0.07812,0.5625 0.07812,0.8594 L 17.0938,60.5 q 0.3906,1.7031 0.4843,2.6875 0,1.6094 -6.5,1.6094 -0.9687,0 -0.9687,1.3125 0.0468,0.25 0.2187,0.875 0.1719,0.6406 0.4375,0.9844 0.2656,0.3437 0.7656,0.3437 L 25,69.3906 q 1.2188,0 1.2188,-1.2812 L 11.8125,10.5938 q -0.7344,-1.60942 -0.7344,-4.7813 0,-4.29688 2.9375,-4.29688 3.0782,0 4.6094,3.82813 1.5469,3.84375 2.7656,9.35935 0.1875,0.5781 0.8282,0.5781 l 1.1718,0 q 0.3906,0 0.6563,-0.3124 0.2656,-0.3126 0.2656,-0.6563 Q 23.1406,9.46875 22.1875,6.65625 21.2344,3.85938 19.1406,1.35938 17.0469,-1.125 13.8125,-1.125 q -4,0 -6.71875,2.57812 -2.70313,2.59376 -2.70313,6.65626"
               id="Cmmi10-6c"
               inkscape:connector-curvature="0"
               style="stroke-linecap:butt;stroke-linejoin:round" />
            <path
               d="m 10.5938,10.8906 q 0,3.2656 0.875,6.7032 0.8906,3.4531 2.4687,7.6718 1.5937,4.2344 2.7656,7.3594 1.3125,3.6562 1.3125,6 0,2.9844 -2.1875,2.9844 -3.9687,0 -6.53122,-4.0782 Q 6.73438,33.4531 5.51562,28.4219 5.32812,27.7812 4.6875,27.7812 l -1.17188,0 q -0.82812,0 -0.82812,0.9376 l 0,0.2812 q 1.60938,5.9688 4.92188,10.5781 3.32812,4.6094 8.40622,4.6094 3.5625,0 6.0313,-2.3437 2.4687,-2.3438 2.4687,-5.9532 0,-1.8594 -0.8281,-3.9062 -0.4375,-1.2188 -2,-5.3282 -1.5625,-4.0937 -2.4063,-6.7812 -0.8281,-2.6875 -1.3593,-5.2812 -0.5313,-2.5782 -0.5313,-5.17192 0,-3.3125 1.4063,-5.60938 1.4219,-2.29688 4.5937,-2.29688 6.3906,0 11.2344,7.90626 0.0938,0.39062 0.1562,0.75002 0.0782,0.375 0.125,0.7187 l 7.1876,29 q 0.3437,1.3282 1.5624,2.2656 1.2188,0.9532 2.6407,0.9532 1.2187,0 2.1093,-0.7813 0.9063,-0.7812 0.9063,-2.0469 0,-0.5781 -0.0937,-0.7812 L 42,10.6875 q -0.6875,-2.96875 -0.6875,-4.875 0,-4.29688 2.875,-4.29688 3.2187,0 4.8125,3.96876 1.5938,3.98437 2.7031,9.21872 0.2031,0.5781 0.7813,0.5781 l 1.2344,0 q 0.3906,0 0.625,-0.3437 0.25,-0.3437 0.25,-0.625 -1.0782,-4.2969 -2.0782,-7.375 -1,-3.07812 -3.1562,-5.57812 Q 47.2188,-1.125 44,-1.125 q -3.1719,0 -5.6875,1.734375 Q 35.7969,2.34375 34.9062,5.32812 32.625,2.39062 29.5938,0.625 q -3.0313,-1.75 -6.4063,-1.75 -5.75,0 -9.1719,3.14062 -3.4218,3.15626 -3.4218,8.87498"
               id="Cmmi10-75"
               inkscape:connector-curvature="0"
               style="stroke-linecap:butt;stroke-linejoin:round" />
            <path
               d="M 10.8906,6 Q 11.8594,3.21875 14.5,1.79688 q 2.6406,-1.406255 5.7188,-1.406255 3.125,0 6.0312,2.171875 2.9062,2.17188 4.9219,5.4375 2.0312,3.2812 2.8125,6.5 l 11.8125,47.3125 q 0.1093,0.3906 0.125,0.5781 0.0312,0.2032 0.0781,0.4063 0,1.0781 -0.7812,1.3125 -2.6407,0.6875 -10.7032,0.6875 -1.0156,0 -1.0156,1.3125 0.1875,0.7812 0.3125,1.2187 0.125,0.4531 0.4375,0.7188 0.3281,0.2656 0.9531,0.2656 l 27.1094,0 q 0.9687,0 0.9687,-1.3125 -0.3906,-2.2031 -1.2656,-2.2031 -3.5156,0 -5.3281,-0.5469 -1.7969,-0.5312 -2.4844,-2.875 L 42.3906,14.1094 Q 41.2656,9.46875 37.8125,5.73438 34.375,2 29.6406,-0.09375 24.9062,-2.20312 20.125,-2.20312 q -5.2812,0 -9.2656,2.92187 -3.96878,2.9375 -3.96878,7.96875 0,3.3281 1.79688,5.7187 1.8125,2.3907 5.125,2.3907 1.9063,0 3.2031,-1.1719 1.2969,-1.1719 1.2969,-3.0312 0,-2.68755 -2,-4.68755 -2,-2 -4.6875,-2 -0.5469,0 -0.7344,0.09375"
               id="Cmmi10-4a"
               inkscape:connector-curvature="0"
               style="stroke-linecap:butt;stroke-linejoin:round" />
            <path
               d="m 20.125,-1.125 q -4.75,0 -8.4375,2.25 Q 8.01562,3.375 6,7.17188 4,10.9844 4,15.8281 4,22.6094 7.78125,29.25 11.5781,35.8906 17.8438,40.0312 24.125,44.1875 31,44.1875 q 3.7188,0 6.625,-1.2656 2.9062,-1.2657 5.0469,-3.5625 2.1562,-2.2969 3.2969,-5.375 1.1562,-3.0782 1.1562,-6.6875 0,-5.2188 -2.2031,-10.2813 Q 42.7188,11.9688 38.8906,7.84375 35.0625,3.71875 30.125,1.29688 25.2031,-1.125 20.125,-1.125 m 0.1875,2.64062 q 4.4375,0 8.125,3.01563 3.6875,3.03125 6.0469,7.64065 2.375,4.625 3.6406,9.75 1.2812,5.125 1.2812,9.2812 0,4.3438 -2.1718,7.375 -2.1719,3.0313 -6.4219,3.0313 -5.8594,0 -10.2656,-5.0156 -4.3907,-5 -6.6094,-11.9688 -2.2187,-6.9531 -2.2187,-12.7031 0,-4.3594 2.2187,-7.39065 2.2187,-3.01563 6.375,-3.01563"
               id="Cmmi10-6f"
               inkscape:connector-curvature="0"
               style="stroke-linecap:butt;stroke-linejoin:round" />
          </defs>
          <g
             transform="matrix(0,-0.2,-0.2,0,48.805,252.2)"
             id="g12744"
             style="stroke-linecap:butt;stroke-linejoin:round">
            <use
               xlink:href="#Cmr10-28"
               id="use12746"
               style="stroke-linecap:butt;stroke-linejoin:round"
               x="0"
               y="0"
               width="720"
               height="432" />
            <use
               transform="translate(38.818359,0)"
               xlink:href="#Cmmi10-4a"
               id="use12748"
               style="stroke-linecap:butt;stroke-linejoin:round"
               x="0"
               y="0"
               width="720"
               height="432" />
            <use
               transform="translate(94.238281,0)"
               xlink:href="#Cmmi10-6f"
               id="use12750"
               style="stroke-linecap:butt;stroke-linejoin:round"
               x="0"
               y="0"
               width="720"
               height="432" />
            <use
               transform="translate(142.62695,0)"
               xlink:href="#Cmmi10-75"
               id="use12752"
               style="stroke-linecap:butt;stroke-linejoin:round"
               x="0"
               y="0"
               width="720"
               height="432" />
            <use
               transform="translate(199.80469,0)"
               xlink:href="#Cmmi10-6c"
               id="use12754"
               style="stroke-linecap:butt;stroke-linejoin:round"
               x="0"
               y="0"
               width="720"
               height="432" />
            <use
               transform="translate(229.58984,0)"
               xlink:href="#Cmmi10-65"
               id="use12756"
               style="stroke-linecap:butt;stroke-linejoin:round"
               x="0"
               y="0"
               width="720"
               height="432" />
            <use
               transform="translate(276.07422,0)"
               xlink:href="#Cmmi10-73"
               id="use12758"
               style="stroke-linecap:butt;stroke-linejoin:round"
               x="0"
               y="0"
               width="720"
               height="432" />
            <use
               transform="translate(322.85156,0)"
               xlink:href="#Cmr10-29"
               id="use12760"
               style="stroke-linecap:butt;stroke-linejoin:round"
               x="0"
               y="0"
               width="720"
               height="432" />
          </g>
        </g>
      </g>
      <g
         id="patch_3">
        <path
           d=" M90 43.2 L648 43.2"
           style="fill:none;stroke:#000000;"
           id="path12763" />
      </g>
      <g
         id="patch_4">
        <path
           d=" M648 388.8 L648 43.2"
           style="fill:none;stroke:#000000;"
           id="path12766" />
      </g>
      <g
         id="patch_5">
        <path
           d=" M90 388.8 L648 388.8"
           style="fill:none;stroke:#000000;"
           id="path12769" />
      </g>
      <g
         id="patch_6">
        <path
           d=" M90 388.8 L90 43.2"
           style="fill:none;stroke:#000000;"
           id="path12772" />
      </g>
      <g
         id="legend_1">
        <g
           id="patch_7">
          <path
             d=" M524.8 123.994 L638 123.994 L638 53.2 L524.8 53.2 L524.8 123.994 z "
             style="fill:#ffffff;stroke:#000000;"
             id="path12776" />
        </g>
        <g
           id="line2d_35">
          <path
             d=" M538.8 69.3969 L566.8 69.3969"
             style="fill:none;stroke:#0000ff;stroke-linecap:square;stroke-width:2.0;"
             id="path12779" />
        </g>
        <g
           id="line2d_36" />
        <g
           id="text_20">
          <!-- $E_7$ -->
          <defs
             id="defs12783">
            <path
               d=" M4.6875 0 Q3.71875 0 3.71875 1.3125 Q3.76562 1.5625 3.90625 2.17188 Q4.04688 2.78125 4.3125 3.14062 Q4.59375 3.51562 4.98438 3.51562 Q11.0781 3.51562 13.4844 4.20312 Q14.7969 4.64062 15.375 6.89062 L29.1094 61.8125 Q29.2969 62.7969 29.2969 63.1875 Q29.2969 64.2656 28.0781 64.4062 Q26.2188 64.7969 20.9062 64.7969 Q19.9219 64.7969 19.9219 66.1094 Q19.9688 66.3594 20.1094 66.9688 Q20.2656 67.5781 20.5312 67.9375 Q20.7969 68.3125 21.1875 68.3125 L75.3906 68.3125 Q76.4219 68.3125 76.4219 67 L74.0312 46.2969 Q74.0312 46.0469 73.6562 45.7188 Q73.2969 45.4062 73 45.4062 L72.125 45.4062 Q71.0938 45.4062 71.0938 46.6875 Q71.6875 51.5625 71.6875 53.9062 Q71.6875 57.9062 70.3125 60.125 Q68.9531 62.3594 66.6719 63.3281 Q64.4062 64.3125 61.6406 64.5469 Q58.8906 64.7969 54.3906 64.7969 L43.0156 64.7969 Q40.2812 64.7969 39.4062 64.3281 Q38.5312 63.875 37.7969 61.375 L31.7812 37.2031 L39.5938 37.2031 Q44.6719 37.2031 47.2656 37.9062 Q49.8594 38.625 51.3594 40.8594 Q52.875 43.1094 54.1094 48 Q54.2031 48.3438 54.4688 48.6094 Q54.7344 48.875 55.0781 48.875 L56 48.875 Q56.9844 48.875 56.9844 47.6094 L50.7812 22.9062 Q50.5938 22.0156 49.8125 22.0156 L48.875 22.0156 Q47.9062 22.0156 47.9062 23.2969 Q48.875 27.2969 48.875 29.2031 Q48.875 32.125 46.2344 32.9062 Q43.6094 33.6875 39.2031 33.6875 L30.9062 33.6875 L24.125 6.5 Q23.6875 5.28125 23.6875 4.29688 Q23.6875 3.51562 27.0938 3.51562 L39.2031 3.51562 Q46.4375 3.51562 50.9219 4.64062 Q55.4219 5.76562 58.375 8.21875 Q61.3281 10.6875 63.4688 14.5 Q65.625 18.3125 68.7031 25.5938 Q68.8906 26.2188 69.5781 26.2188 L70.5156 26.2188 Q70.9062 26.2188 71.1875 25.875 Q71.4844 25.5312 71.4844 25.0938 Q71.4844 24.9062 71.3906 24.7031 L61.0781 0.59375 Q60.8906 0 60.2969 0 z "
               id="Cmmi10-45" />
            <path
               d=" M17.3906 2.59375 Q17.3906 8.15625 18.3594 13.4688 Q19.3438 18.7969 21.2188 24 Q23.0938 29.2031 25.75 34.2031 Q28.4219 39.2031 31.5938 43.6094 L40.7188 56.2969 L29.2969 56.2969 Q11.5312 56.2969 10.9844 55.8125 Q9.67188 54.2031 8.5 46.5781 L5.60938 46.5781 L8.89062 67.5781 L11.8125 67.5781 L11.8125 67.2812 Q11.8125 65.4844 17.9219 64.9375 Q24.0312 64.4062 29.8906 64.4062 L48.4844 64.4062 L48.4844 61.8125 Q48.4844 61.7188 48.4531 61.6719 Q48.4375 61.625 48.3906 61.5312 L34.625 42.1875 Q29.5469 34.6719 28.2656 25.4844 Q27 16.3125 27 2.59375 Q27 0.640625 25.5781 -0.78125 Q24.1719 -2.20312 22.2188 -2.20312 Q20.2188 -2.20312 18.7969 -0.78125 Q17.3906 0.640625 17.3906 2.59375"
               id="Cmr10-37" />
          </defs>
          <g
             transform="translate(588.8 76.396875)scale(0.2 -0.2)"
             id="g12787">
            <use
               transform="translate(0.0 0.6875)"
               xlink:href="#Cmmi10-45"
               id="use12789" />
            <use
               transform="translate(73.779296875 -24.821875)scale(0.7)"
               xlink:href="#Cmr10-37"
               id="use12791" />
          </g>
        </g>
        <g
           id="line2d_37">
          <path
             d=" M538.8 100.194 L566.8 100.194"
             style="fill:none;stroke:#ff0000;stroke-dasharray:6.000000,6.000000;stroke-dashoffset:0.0;stroke-width:2.0;"
             id="path12794" />
        </g>
        <g
           id="line2d_38" />
        <g
           id="text_21">
          <!-- $E_{7_{max}}$ -->
          <defs
             id="defs12798">
            <path
               d=" M17.3906 -1.125 Q11.0781 -1.125 7.4375 3.64062 Q3.8125 8.40625 3.8125 14.8906 Q3.8125 21.2969 7.125 28.1719 Q10.4531 35.0625 16.0938 39.625 Q21.7344 44.1875 28.2188 44.1875 Q31.2031 44.1875 33.5469 42.5781 Q35.8906 40.9688 37.2031 38.1875 Q38.3281 42.1875 41.6094 42.1875 Q42.875 42.1875 43.7188 41.4219 Q44.5781 40.6719 44.5781 39.4062 Q44.5781 39.1094 44.5469 38.9531 Q44.5312 38.8125 44.4844 38.625 L37.5 10.6875 Q36.8125 7.71875 36.8125 5.8125 Q36.8125 1.51562 39.7031 1.51562 Q42.8281 1.51562 44.4531 5.48438 Q46.0938 9.46875 47.2188 14.7031 Q47.4062 15.2812 48 15.2812 L49.2188 15.2812 Q49.6094 15.2812 49.8438 14.9375 Q50.0938 14.5938 50.0938 14.3125 Q48.3438 7.32812 46.2656 3.09375 Q44.1875 -1.125 39.5 -1.125 Q36.1406 -1.125 33.5469 0.84375 Q30.9531 2.82812 30.3281 6.10938 Q23.875 -1.125 17.3906 -1.125 M17.4844 1.51562 Q21.0938 1.51562 24.4844 4.21875 Q27.875 6.9375 30.3281 10.5938 Q30.4219 10.6875 30.4219 10.8906 L35.7969 32.625 L35.8906 32.9062 Q35.2969 36.4688 33.3125 39.0312 Q31.3438 41.6094 27.9844 41.6094 Q24.6094 41.6094 21.7031 38.8438 Q18.7969 36.0781 16.7969 32.3281 Q14.8438 28.3281 13.0625 21.3438 Q11.2812 14.3594 11.2812 10.5 Q11.2812 7.03125 12.7656 4.26562 Q14.2656 1.51562 17.4844 1.51562"
               id="Cmmi10-61" />
            <path
               d=" M7.8125 2.875 Q9.57812 1.51562 12.7969 1.51562 Q15.9219 1.51562 18.3125 4.51562 Q20.7031 7.51562 21.5781 11.0781 L26.125 28.8125 Q27.2031 33.6406 27.2031 35.4062 Q27.2031 37.8906 25.8125 39.75 Q24.4219 41.6094 21.9219 41.6094 Q18.75 41.6094 15.9688 39.625 Q13.1875 37.6406 11.2812 34.5938 Q9.375 31.5469 8.59375 28.4219 Q8.40625 27.7812 7.8125 27.7812 L6.59375 27.7812 Q5.8125 27.7812 5.8125 28.7188 L5.8125 29 Q6.78125 32.7188 9.125 36.25 Q11.4688 39.7969 14.8594 41.9844 Q18.2656 44.1875 22.125 44.1875 Q25.7812 44.1875 28.7344 42.2344 Q31.6875 40.2812 32.9062 36.9219 Q34.625 39.9844 37.2812 42.0781 Q39.9375 44.1875 43.1094 44.1875 Q45.2656 44.1875 47.5 43.4219 Q49.75 42.6719 51.1719 41.1094 Q52.5938 39.5469 52.5938 37.2031 Q52.5938 34.6719 50.9531 32.8281 Q49.3125 31 46.7812 31 Q45.1719 31 44.0938 32.0312 Q43.0156 33.0625 43.0156 34.625 Q43.0156 36.7188 44.4531 38.2969 Q45.9062 39.8906 47.9062 40.1875 Q46.0938 41.6094 42.9219 41.6094 Q39.7031 41.6094 37.3281 38.625 Q34.9688 35.6406 33.9844 31.9844 L29.5938 14.3125 Q28.5156 10.2969 28.5156 7.71875 Q28.5156 5.17188 29.9531 3.34375 Q31.3906 1.51562 33.7969 1.51562 Q38.4844 1.51562 42.1562 5.64062 Q45.8438 9.76562 47.0156 14.7031 Q47.2188 15.2812 47.7969 15.2812 L49.0312 15.2812 Q49.4219 15.2812 49.6562 15.0156 Q49.9062 14.75 49.9062 14.4062 Q49.9062 14.3125 49.8125 14.1094 Q48.3906 8.15625 43.8438 3.51562 Q39.3125 -1.125 33.5938 -1.125 Q29.9375 -1.125 26.9844 0.84375 Q24.0312 2.82812 22.7969 6.20312 Q21.2344 3.26562 18.4688 1.0625 Q15.7188 -1.125 12.5938 -1.125 Q10.4531 -1.125 8.17188 -0.359375 Q5.90625 0.390625 4.48438 1.95312 Q3.07812 3.51562 3.07812 5.90625 Q3.07812 8.25 4.70312 10.1719 Q6.34375 12.1094 8.79688 12.1094 Q10.4531 12.1094 11.5781 11.1094 Q12.7031 10.1094 12.7031 8.5 Q12.7031 6.39062 11.2969 4.82812 Q9.90625 3.26562 7.8125 2.875"
               id="Cmmi10-78" />
          </defs>
          <g
             transform="translate(588.8 107.19375)scale(0.2 -0.2)"
             id="g12802">
            <use
               transform="translate(0.0 0.6875)"
               xlink:href="#Cmmi10-45"
               id="use12804" />
            <use
               transform="translate(73.779296875 -24.821875)scale(0.7)"
               xlink:href="#Cmr10-37"
               id="use12806" />
            <use
               transform="translate(108.779296875 -42.6784375)scale(0.49)"
               xlink:href="#Cmmi10-6d"
               id="use12808" />
            <use
               transform="translate(151.797851562 -42.6784375)scale(0.49)"
               xlink:href="#Cmmi10-61"
               id="use12810" />
            <use
               transform="translate(177.661621094 -42.6784375)scale(0.49)"
               xlink:href="#Cmmi10-78"
               id="use12812" />
          </g>
        </g>
      </g>
    </g>
  </g>
  <defs
     id="defs12814">
    <clipPath
       id="pd03f7f58b8">
      <rect
         height="345.6"
         width="558.0"
         x="90.0"
         y="43.2"
         id="rect12817" />
    </clipPath>
  </defs>
</svg>
