<?xml version="1.0" encoding="UTF-8" standalone="no"?>
<!-- Created with matplotlib (http://matplotlib.org/) -->

<svg
   xmlns:dc="http://purl.org/dc/elements/1.1/"
   xmlns:cc="http://creativecommons.org/ns#"
   xmlns:rdf="http://www.w3.org/1999/02/22-rdf-syntax-ns#"
   xmlns:svg="http://www.w3.org/2000/svg"
   xmlns="http://www.w3.org/2000/svg"
   xmlns:xlink="http://www.w3.org/1999/xlink"
   xmlns:sodipodi="http://sodipodi.sourceforge.net/DTD/sodipodi-0.dtd"
   xmlns:inkscape="http://www.inkscape.org/namespaces/inkscape"
   height="432pt"
   version="1.1"
   viewBox="0 0 576 432"
   width="576pt"
   id="svg2"
   inkscape:version="0.48.3.1 r9886"
   sodipodi:docname="q_dot_dot_dot_acc_jerk_vel_constr.pdf">
  <metadata
     id="metadata492">
    <rdf:RDF>
      <cc:Work
         rdf:about="">
        <dc:format>image/svg+xml</dc:format>
        <dc:type
           rdf:resource="http://purl.org/dc/dcmitype/StillImage" />
        <dc:title></dc:title>
      </cc:Work>
    </rdf:RDF>
  </metadata>
  <sodipodi:namedview
     pagecolor="#ffffff"
     bordercolor="#666666"
     borderopacity="1"
     objecttolerance="10"
     gridtolerance="10"
     guidetolerance="10"
     inkscape:pageopacity="0"
     inkscape:pageshadow="2"
     inkscape:window-width="1535"
     inkscape:window-height="876"
     id="namedview490"
     showgrid="false"
     inkscape:zoom="1.1470843"
     inkscape:cx="473.55377"
     inkscape:cy="182.80864"
     inkscape:window-x="65"
     inkscape:window-y="24"
     inkscape:window-maximized="1"
     inkscape:current-layer="figure_1" />
  <defs
     id="defs4">
    <style
       type="text/css"
       id="style6">
*{stroke-linecap:butt;stroke-linejoin:round;}
  </style>
  </defs>
  <g
     id="figure_1">
    <g
       id="g3480">
      <g
         id="axes_1">
        <g
           id="patch_2">
          <path
             id="path14"
             style="fill:#ffffff;"
             d=" M72 388.8 L518.4 388.8 L518.4 43.2 L72 43.2 z " />
        </g>
        <g
           id="line2d_1">
          <path
             id="path17"
             style="fill:none;stroke:#0000ff;stroke-linecap:square;stroke-width:2.0;"
             d=" M72 216 L272.069 216 L272.411 215.086 L273.776 210.723 L274.971 207.599 L276.166 205.066 L277.361 203.074 L278.385 201.762 L279.41 200.784 L280.434 200.112 L281.458 199.721 L282.482 199.585 L283.507 199.682 L284.531 199.99 L285.726 200.59 L287.091 201.558 L288.628 202.964 L290.335 204.866 L292.213 207.313 L294.432 210.608 L296.992 214.839 L300.748 221.537 L304.674 228.431 L306.723 231.618 L308.43 233.895 L309.966 235.571 L311.332 236.718 L312.527 237.437 L313.722 237.881 L314.746 238.04 L315.77 238 L316.965 237.711 L318.16 237.179 L319.526 236.303 L321.062 235.025 L322.94 233.133 L325.33 230.369 L329.768 224.8 L335.231 218.067 L339.499 213.171 L343.083 209.388 L345.815 206.815 L348.034 205.027 L349.912 203.807 L351.448 203.068 L352.814 202.648 L354.009 202.497 L355.204 202.575 L356.228 202.847 L357.252 203.329 L358.276 204.041 L359.301 205.002 L360.496 206.468 L361.691 208.336 L362.886 210.639 L363.739 212.371 L369.202 212.789 L387.98 214.476 L396.856 214.849 L403.172 215.209 L404.709 215.353 L404.88 226.934 L405.05 339.972 L405.221 339.943 L406.245 338.474 L406.928 336.537 L407.782 332.352 L408.635 324.084 L409.147 313.097 L409.659 290.991 L410.001 266.121 L410.171 261.475 L410.513 198.862 L410.684 149.327 L410.854 141.397 L411.025 91.2643 L412.561 91.273 L412.903 148.133 L413.073 166.767 L413.244 169.269 L415.122 159.674 L416.829 149.831 L418.195 141.334 L418.536 141.121 L418.878 140.014 L419.048 167.607 L419.219 228.733 L419.902 227.582 L421.097 225.781 L422.292 224.369 L423.487 223.277 L424.852 222.348 L426.218 221.693 L427.754 221.212 L429.461 220.919 L431.51 220.802 L434.241 220.877 L434.412 236.652 L434.583 339.661 L434.753 340.219 L435.436 336.707 L435.948 331.422 L436.46 320.053 L436.802 305.404 L437.485 239.297 L437.997 91.2915 L438.167 91.2915 L438.338 93.0718 L438.509 135.65 L439.021 135.743 L441.24 135.861 L441.411 167.224 L441.582 226.488 L441.752 226.413 L443.289 224.594 L444.996 222.929 L447.044 221.295 L449.263 219.83 L451.824 218.409 L454.726 217.046 L457.116 216.09 L457.457 216.127 L461.554 217.202 L467.871 218.666 L474.87 220.315 L478.284 221.357 L481.186 222.481 L483.746 223.715 L486.136 225.121 L488.355 226.69 L490.404 228.407 L492.452 230.431 L494.33 232.606 L496.208 235.146 L497.915 237.832 L499.622 240.938 L501.329 244.538 L503.036 248.702 L504.743 253.507 L506.45 259.016 L508.158 265.26 L510.206 273.68 L513.62 289.121 L515.327 296.615 L516.693 301.779 L517.717 304.788 L518.229 305.915 L518.229 305.915"
             clip-path="url(#p7ff5b81e1d)" />
        </g>
        <g
           id="line2d_2">
          <path
             id="path20"
             style="fill:none;stroke:#ff0000;stroke-linecap:square;stroke-width:2.0;"
             d=" M72 92.5714 L518.229 92.5714 L518.229 92.5714"
             clip-path="url(#p7ff5b81e1d)" />
        </g>
        <g
           id="line2d_3">
          <path
             id="path23"
             style="fill:none;stroke:#ff0000;stroke-linecap:square;stroke-width:2.0;"
             d=" M72 339.429 L518.229 339.429 L518.229 339.429"
             clip-path="url(#p7ff5b81e1d)" />
        </g>
        <g
           id="line2d_4">
          <path
             id="path26"
             style="fill:none;stroke:#0000ff;stroke-linecap:square;stroke-width:2.0;"
             d=" M72 216 L272.069 216 L272.411 215.086 L273.776 210.723 L274.971 207.599 L276.166 205.066 L277.361 203.074 L278.385 201.762 L279.41 200.784 L280.434 200.112 L281.458 199.721 L282.482 199.585 L283.507 199.682 L284.531 199.99 L285.726 200.59 L287.091 201.558 L288.628 202.964 L290.335 204.866 L292.213 207.313 L294.432 210.608 L296.992 214.839 L300.748 221.537 L304.674 228.431 L306.723 231.618 L308.43 233.895 L309.966 235.571 L311.332 236.718 L312.527 237.437 L313.722 237.881 L314.746 238.04 L315.77 238 L316.965 237.711 L318.16 237.179 L319.526 236.303 L321.062 235.025 L322.94 233.133 L325.33 230.369 L329.768 224.8 L335.231 218.067 L339.499 213.171 L343.083 209.388 L345.815 206.815 L348.034 205.027 L349.912 203.807 L351.448 203.068 L352.814 202.648 L354.009 202.497 L355.204 202.575 L356.228 202.847 L357.252 203.329 L358.276 204.041 L359.301 205.002 L360.496 206.468 L361.691 208.336 L362.886 210.639 L363.739 212.371 L369.202 212.789 L387.98 214.476 L396.856 214.849 L403.172 215.209 L404.709 215.353 L404.88 226.934 L405.05 339.972 L405.221 339.943 L406.245 338.474 L406.928 336.537 L407.782 332.352 L408.635 324.084 L409.147 313.097 L409.659 290.991 L410.001 266.121 L410.171 261.475 L410.513 198.862 L410.684 149.327 L410.854 141.397 L411.025 91.2643 L412.561 91.273 L412.903 148.133 L413.073 166.767 L413.244 169.269 L415.122 159.674 L416.829 149.831 L418.195 141.334 L418.536 141.121 L418.878 140.014 L419.048 167.607 L419.219 228.733 L419.902 227.582 L421.097 225.781 L422.292 224.369 L423.487 223.277 L424.852 222.348 L426.218 221.693 L427.754 221.212 L429.461 220.919 L431.51 220.802 L434.241 220.877 L434.412 236.652 L434.583 339.661 L434.753 340.219 L435.436 336.707 L435.948 331.422 L436.46 320.053 L436.802 305.404 L437.485 239.297 L437.997 91.2915 L438.167 91.2915 L438.338 93.0718 L438.509 135.65 L439.021 135.743 L441.24 135.861 L441.411 167.224 L441.582 226.488 L441.752 226.413 L443.289 224.594 L444.996 222.929 L447.044 221.295 L449.263 219.83 L451.824 218.409 L454.726 217.046 L457.116 216.09 L457.457 216.127 L461.554 217.202 L467.871 218.666 L474.87 220.315 L478.284 221.357 L481.186 222.481 L483.746 223.715 L486.136 225.121 L488.355 226.69 L490.404 228.407 L492.452 230.431 L494.33 232.606 L496.208 235.146 L497.915 237.832 L499.622 240.938 L501.329 244.538 L503.036 248.702 L504.743 253.507 L506.45 259.016 L508.158 265.26 L510.206 273.68 L513.62 289.121 L515.327 296.615 L516.693 301.779 L517.717 304.788 L518.229 305.915 L518.229 305.915"
             clip-path="url(#p7ff5b81e1d)" />
        </g>
        <g
           id="line2d_5">
          <path
             id="path29"
             style="fill:none;stroke:#ff0000;stroke-linecap:square;stroke-width:2.0;"
             d=" M72 92.5714 L518.229 92.5714 L518.229 92.5714"
             clip-path="url(#p7ff5b81e1d)" />
        </g>
        <g
           id="line2d_6">
          <path
             id="path32"
             style="fill:none;stroke:#ff0000;stroke-dasharray:6.000000,6.000000;stroke-dashoffset:0.0;stroke-width:2.0;"
             d=" M72 339.429 L518.229 339.429 L518.229 339.429"
             clip-path="url(#p7ff5b81e1d)" />
        </g>
        <g
           id="matplotlib.axis_1">
          <g
             id="xtick_1">
            <g
               id="line2d_7">
              <path
                 id="path37"
                 style="fill:none;stroke:#000000;stroke-dasharray:1.000000,3.000000;stroke-dashoffset:0.0;stroke-width:0.5;"
                 d=" M72 388.8 L72 43.2"
                 clip-path="url(#p7ff5b81e1d)" />
            </g>
            <g
               id="line2d_8">
              <defs
                 id="defs40">
                <path
                   style="stroke:#000000;stroke-width:0.5;"
                   id="m93b0483c22"
                   d=" M0 0 L0 -4" />
              </defs>
              <g
                 id="g43">
                <use
                   id="use45"
                   y="388.8"
                   xlink:href="#m93b0483c22"
                   x="72.0"
                   style="stroke:#000000;stroke-width:0.5;" />
              </g>
            </g>
            <g
               id="line2d_9">
              <defs
                 id="defs48">
                <path
                   style="stroke:#000000;stroke-width:0.5;"
                   id="m741efc42ff"
                   d=" M0 0 L0 4" />
              </defs>
              <g
                 id="g51">
                <use
                   id="use53"
                   y="43.2"
                   xlink:href="#m741efc42ff"
                   x="72.0"
                   style="stroke:#000000;stroke-width:0.5;" />
              </g>
            </g>
            <g
               id="text_1">
              <!-- 0.0 -->
              <defs
                 id="defs56">
                <path
                   id="BitstreamVeraSans-Roman-30"
                   d=" M31.7812 66.4062 Q24.1719 66.4062 20.3281 58.9062 Q16.5 51.4219 16.5 36.375 Q16.5 21.3906 20.3281 13.8906 Q24.1719 6.39062 31.7812 6.39062 Q39.4531 6.39062 43.2812 13.8906 Q47.125 21.3906 47.125 36.375 Q47.125 51.4219 43.2812 58.9062 Q39.4531 66.4062 31.7812 66.4062 M31.7812 74.2188 Q44.0469 74.2188 50.5156 64.5156 Q56.9844 54.8281 56.9844 36.375 Q56.9844 17.9688 50.5156 8.26562 Q44.0469 -1.42188 31.7812 -1.42188 Q19.5312 -1.42188 13.0625 8.26562 Q6.59375 17.9688 6.59375 36.375 Q6.59375 54.8281 13.0625 64.5156 Q19.5312 74.2188 31.7812 74.2188" />
                <path
                   id="BitstreamVeraSans-Roman-2e"
                   d=" M10.6875 12.4062 L21 12.4062 L21 0 L10.6875 0 z " />
              </defs>
              <g
                 id="g60"
                 transform="translate(63.2521875 401.918125)scale(0.12 -0.12)">
                <use
                   id="use62"
                   xlink:href="#BitstreamVeraSans-Roman-30" />
                <use
                   id="use64"
                   xlink:href="#BitstreamVeraSans-Roman-2e"
                   x="63.623046875" />
                <use
                   id="use66"
                   xlink:href="#BitstreamVeraSans-Roman-30"
                   x="95.41015625" />
              </g>
            </g>
          </g>
          <g
             id="xtick_2">
            <g
               id="line2d_10">
              <path
                 id="path70"
                 style="fill:none;stroke:#000000;stroke-dasharray:1.000000,3.000000;stroke-dashoffset:0.0;stroke-width:0.5;"
                 d=" M157.354 388.8 L157.354 43.2"
                 clip-path="url(#p7ff5b81e1d)" />
            </g>
            <g
               id="line2d_11">
              <g
                 id="g73">
                <use
                   id="use75"
                   y="388.8"
                   xlink:href="#m93b0483c22"
                   x="157.353728489"
                   style="stroke:#000000;stroke-width:0.5;" />
              </g>
            </g>
            <g
               id="line2d_12">
              <g
                 id="g78">
                <use
                   id="use80"
                   y="43.2"
                   xlink:href="#m741efc42ff"
                   x="157.353728489"
                   style="stroke:#000000;stroke-width:0.5;" />
              </g>
            </g>
            <g
               id="text_2">
              <!-- 0.5 -->
              <defs
                 id="defs83">
                <path
                   id="BitstreamVeraSans-Roman-35"
                   d=" M10.7969 72.9062 L49.5156 72.9062 L49.5156 64.5938 L19.8281 64.5938 L19.8281 46.7344 Q21.9688 47.4688 24.1094 47.8281 Q26.2656 48.1875 28.4219 48.1875 Q40.625 48.1875 47.75 41.5 Q54.8906 34.8125 54.8906 23.3906 Q54.8906 11.625 47.5625 5.09375 Q40.2344 -1.42188 26.9062 -1.42188 Q22.3125 -1.42188 17.5469 -0.640625 Q12.7969 0.140625 7.71875 1.70312 L7.71875 11.625 Q12.1094 9.23438 16.7969 8.0625 Q21.4844 6.89062 26.7031 6.89062 Q35.1562 6.89062 40.0781 11.3281 Q45.0156 15.7656 45.0156 23.3906 Q45.0156 31 40.0781 35.4375 Q35.1562 39.8906 26.7031 39.8906 Q22.75 39.8906 18.8125 39.0156 Q14.8906 38.1406 10.7969 36.2812 z " />
              </defs>
              <g
                 id="g86"
                 transform="translate(148.731540989 401.918125)scale(0.12 -0.12)">
                <use
                   id="use88"
                   xlink:href="#BitstreamVeraSans-Roman-30" />
                <use
                   id="use90"
                   xlink:href="#BitstreamVeraSans-Roman-2e"
                   x="63.623046875" />
                <use
                   id="use92"
                   xlink:href="#BitstreamVeraSans-Roman-35"
                   x="95.41015625" />
              </g>
            </g>
          </g>
          <g
             id="xtick_3">
            <g
               id="line2d_13">
              <path
                 id="path96"
                 style="fill:none;stroke:#000000;stroke-dasharray:1.000000,3.000000;stroke-dashoffset:0.0;stroke-width:0.5;"
                 d=" M242.707 388.8 L242.707 43.2"
                 clip-path="url(#p7ff5b81e1d)" />
            </g>
            <g
               id="line2d_14">
              <g
                 id="g99">
                <use
                   id="use101"
                   y="388.8"
                   xlink:href="#m93b0483c22"
                   x="242.707456979"
                   style="stroke:#000000;stroke-width:0.5;" />
              </g>
            </g>
            <g
               id="line2d_15">
              <g
                 id="g104">
                <use
                   id="use106"
                   y="43.2"
                   xlink:href="#m741efc42ff"
                   x="242.707456979"
                   style="stroke:#000000;stroke-width:0.5;" />
              </g>
            </g>
            <g
               id="text_3">
              <!-- 1.0 -->
              <defs
                 id="defs109">
                <path
                   id="BitstreamVeraSans-Roman-31"
                   d=" M12.4062 8.29688 L28.5156 8.29688 L28.5156 63.9219 L10.9844 60.4062 L10.9844 69.3906 L28.4219 72.9062 L38.2812 72.9062 L38.2812 8.29688 L54.3906 8.29688 L54.3906 0 L12.4062 0 z " />
              </defs>
              <g
                 id="g112"
                 transform="translate(234.223081979 401.918125)scale(0.12 -0.12)">
                <use
                   id="use114"
                   xlink:href="#BitstreamVeraSans-Roman-31" />
                <use
                   id="use116"
                   xlink:href="#BitstreamVeraSans-Roman-2e"
                   x="63.623046875" />
                <use
                   id="use118"
                   xlink:href="#BitstreamVeraSans-Roman-30"
                   x="95.41015625" />
              </g>
            </g>
          </g>
          <g
             id="xtick_4">
            <g
               id="line2d_16">
              <path
                 id="path122"
                 style="fill:none;stroke:#000000;stroke-dasharray:1.000000,3.000000;stroke-dashoffset:0.0;stroke-width:0.5;"
                 d=" M328.061 388.8 L328.061 43.2"
                 clip-path="url(#p7ff5b81e1d)" />
            </g>
            <g
               id="line2d_17">
              <g
                 id="g125">
                <use
                   id="use127"
                   y="388.8"
                   xlink:href="#m93b0483c22"
                   x="328.061185468"
                   style="stroke:#000000;stroke-width:0.5;" />
              </g>
            </g>
            <g
               id="line2d_18">
              <g
                 id="g130">
                <use
                   id="use132"
                   y="43.2"
                   xlink:href="#m741efc42ff"
                   x="328.061185468"
                   style="stroke:#000000;stroke-width:0.5;" />
              </g>
            </g>
            <g
               id="text_4">
              <!-- 1.5 -->
              <g
                 id="g135"
                 transform="translate(319.702435468 401.918125)scale(0.12 -0.12)">
                <use
                   id="use137"
                   xlink:href="#BitstreamVeraSans-Roman-31" />
                <use
                   id="use139"
                   xlink:href="#BitstreamVeraSans-Roman-2e"
                   x="63.623046875" />
                <use
                   id="use141"
                   xlink:href="#BitstreamVeraSans-Roman-35"
                   x="95.41015625" />
              </g>
            </g>
          </g>
          <g
             id="xtick_5">
            <g
               id="line2d_19">
              <path
                 id="path145"
                 style="fill:none;stroke:#000000;stroke-dasharray:1.000000,3.000000;stroke-dashoffset:0.0;stroke-width:0.5;"
                 d=" M413.415 388.8 L413.415 43.2"
                 clip-path="url(#p7ff5b81e1d)" />
            </g>
            <g
               id="line2d_20">
              <g
                 id="g148">
                <use
                   id="use150"
                   y="388.8"
                   xlink:href="#m93b0483c22"
                   x="413.414913958"
                   style="stroke:#000000;stroke-width:0.5;" />
              </g>
            </g>
            <g
               id="line2d_21">
              <g
                 id="g153">
                <use
                   id="use155"
                   y="43.2"
                   xlink:href="#m741efc42ff"
                   x="413.414913958"
                   style="stroke:#000000;stroke-width:0.5;" />
              </g>
            </g>
            <g
               id="text_5">
              <!-- 2.0 -->
              <defs
                 id="defs158">
                <path
                   id="BitstreamVeraSans-Roman-32"
                   d=" M19.1875 8.29688 L53.6094 8.29688 L53.6094 0 L7.32812 0 L7.32812 8.29688 Q12.9375 14.1094 22.625 23.8906 Q32.3281 33.6875 34.8125 36.5312 Q39.5469 41.8438 41.4219 45.5312 Q43.3125 49.2188 43.3125 52.7812 Q43.3125 58.5938 39.2344 62.25 Q35.1562 65.9219 28.6094 65.9219 Q23.9688 65.9219 18.8125 64.3125 Q13.6719 62.7031 7.8125 59.4219 L7.8125 69.3906 Q13.7656 71.7812 18.9375 73 Q24.125 74.2188 28.4219 74.2188 Q39.75 74.2188 46.4844 68.5469 Q53.2188 62.8906 53.2188 53.4219 Q53.2188 48.9219 51.5312 44.8906 Q49.8594 40.875 45.4062 35.4062 Q44.1875 33.9844 37.6406 27.2188 Q31.1094 20.4531 19.1875 8.29688" />
              </defs>
              <g
                 id="g161"
                 transform="translate(404.711163958 401.918125)scale(0.12 -0.12)">
                <use
                   id="use163"
                   xlink:href="#BitstreamVeraSans-Roman-32" />
                <use
                   id="use165"
                   xlink:href="#BitstreamVeraSans-Roman-2e"
                   x="63.623046875" />
                <use
                   id="use167"
                   xlink:href="#BitstreamVeraSans-Roman-30"
                   x="95.41015625" />
              </g>
            </g>
          </g>
          <g
             id="xtick_6">
            <g
               id="line2d_22">
              <path
                 id="path171"
                 style="fill:none;stroke:#000000;stroke-dasharray:1.000000,3.000000;stroke-dashoffset:0.0;stroke-width:0.5;"
                 d=" M498.769 388.8 L498.769 43.2"
                 clip-path="url(#p7ff5b81e1d)" />
            </g>
            <g
               id="line2d_23">
              <g
                 id="g174">
                <use
                   id="use176"
                   y="388.8"
                   xlink:href="#m93b0483c22"
                   x="498.768642447"
                   style="stroke:#000000;stroke-width:0.5;" />
              </g>
            </g>
            <g
               id="line2d_24">
              <g
                 id="g179">
                <use
                   id="use181"
                   y="43.2"
                   xlink:href="#m741efc42ff"
                   x="498.768642447"
                   style="stroke:#000000;stroke-width:0.5;" />
              </g>
            </g>
            <g
               id="text_6">
              <!-- 2.5 -->
              <g
                 id="g184"
                 transform="translate(490.190517447 401.918125)scale(0.12 -0.12)">
                <use
                   id="use186"
                   xlink:href="#BitstreamVeraSans-Roman-32" />
                <use
                   id="use188"
                   xlink:href="#BitstreamVeraSans-Roman-2e"
                   x="63.623046875" />
                <use
                   id="use190"
                   xlink:href="#BitstreamVeraSans-Roman-35"
                   x="95.41015625" />
              </g>
            </g>
          </g>
          <g
             id="text_7">
            <!-- $time (s)$ -->
            <defs
               id="defs193">
              <path
                 id="Cmmi10-6d"
                 d=" M7.71875 1.70312 Q7.71875 2.29688 7.8125 2.59375 L15.2812 32.4219 Q16.0156 35.2031 16.0156 37.3125 Q16.0156 41.6094 13.0938 41.6094 Q9.96875 41.6094 8.45312 37.8594 Q6.9375 34.125 5.51562 28.4219 Q5.51562 28.125 5.21875 27.9531 Q4.9375 27.7812 4.6875 27.7812 L3.51562 27.7812 Q3.17188 27.7812 2.92188 28.1406 Q2.6875 28.5156 2.6875 28.8125 Q3.76562 33.1562 4.76562 36.1719 Q5.76562 39.2031 7.89062 41.6875 Q10.0156 44.1875 13.1875 44.1875 Q16.9375 44.1875 19.8125 41.8125 Q22.7031 39.4531 22.7031 35.7969 Q25.6875 39.7031 29.6875 41.9375 Q33.6875 44.1875 38.1875 44.1875 Q42.9219 44.1875 46.3594 41.7656 Q49.8125 39.3594 49.8125 34.9062 Q52.875 39.2656 57 41.7188 Q61.1406 44.1875 66.0156 44.1875 Q71.1875 44.1875 74.3281 41.375 Q77.4844 38.5781 77.4844 33.4062 Q77.4844 29.2969 75.6562 23.4844 Q73.8281 17.6719 71.0938 10.5 Q69.6719 7.03125 69.6719 4.5 Q69.6719 1.51562 72.0156 1.51562 Q75.9219 1.51562 78.5156 5.70312 Q81.1094 9.90625 82.1719 14.7031 Q82.4688 15.2812 83.0156 15.2812 L84.1875 15.2812 Q84.5781 15.2812 84.8438 15.0156 Q85.1094 14.75 85.1094 14.4062 Q85.1094 14.3125 85.0156 14.1094 Q83.6406 8.45312 80.25 3.65625 Q76.8594 -1.125 71.7812 -1.125 Q68.2656 -1.125 65.7656 1.29688 Q63.2812 3.71875 63.2812 7.17188 Q63.2812 8.9375 64.1094 11.0781 Q66.9375 18.6094 68.8125 24.5156 Q70.7031 30.4219 70.7031 34.9062 Q70.7031 37.7031 69.5781 39.6562 Q68.4531 41.6094 65.8281 41.6094 Q60.3594 41.6094 56.3438 38.25 Q52.3438 34.9062 49.4219 29.3906 Q49.2188 28.4219 49.125 27.875 L42.6719 2.20312 Q42.3281 0.828125 41.125 -0.140625 Q39.9375 -1.125 38.4844 -1.125 Q37.3125 -1.125 36.4062 -0.34375 Q35.5 0.4375 35.5 1.70312 Q35.5 2.29688 35.5938 2.59375 L42 28.0781 Q43.0156 32.1719 43.0156 34.9062 Q43.0156 37.7031 41.8594 39.6562 Q40.7188 41.6094 37.9844 41.6094 Q34.3281 41.6094 31.25 39.9844 Q28.1719 38.375 25.875 35.7188 Q23.5781 33.0625 21.6875 29.3906 L14.8906 2.20312 Q14.5469 0.828125 13.3438 -0.140625 Q12.1562 -1.125 10.6875 -1.125 Q9.46875 -1.125 8.59375 -0.34375 Q7.71875 0.4375 7.71875 1.70312" />
              <path
                 id="Cmr10-28"
                 d=" M31 -24.8125 Q25.4375 -20.4062 21.4062 -14.7188 Q17.3906 -9.03125 14.8125 -2.57812 Q12.25 3.85938 10.9844 10.8906 Q9.71875 17.9219 9.71875 25 Q9.71875 32.1719 10.9844 39.2031 Q12.25 46.2344 14.8594 52.7344 Q17.4844 59.2344 21.5312 64.8906 Q25.5938 70.5625 31 74.8125 Q31 75 31.5 75 L32.4219 75 Q32.7188 75 32.9531 74.7344 Q33.2031 74.4688 33.2031 74.125 Q33.2031 73.6875 33.0156 73.4844 Q28.125 68.7031 24.875 63.2344 Q21.625 57.7656 19.6406 51.5781 Q17.6719 45.4062 16.7969 38.7812 Q15.9219 32.1719 15.9219 25 Q15.9219 -6.78125 32.9062 -23.2969 Q33.2031 -23.5781 33.2031 -24.125 Q33.2031 -24.3594 32.9375 -24.6719 Q32.6719 -25 32.4219 -25 L31.5 -25 Q31 -25 31 -24.8125" />
              <path
                 id="Cmr10-29"
                 d=" M6.5 -25 Q5.60938 -25 5.60938 -24.125 Q5.60938 -23.6875 5.8125 -23.4844 Q22.9062 -6.78125 22.9062 25 Q22.9062 56.7812 6 73.2969 Q5.60938 73.5312 5.60938 74.125 Q5.60938 74.4688 5.875 74.7344 Q6.15625 75 6.5 75 L7.42188 75 Q7.71875 75 7.90625 74.8125 Q15.0938 69.1406 19.875 61.0312 Q24.6562 52.9375 26.875 43.75 Q29.1094 34.5781 29.1094 25 Q29.1094 17.9219 27.9062 11.0625 Q26.7031 4.20312 24.0938 -2.45312 Q21.4844 -9.125 17.4844 -14.7656 Q13.4844 -20.4062 7.90625 -24.8125 Q7.71875 -25 7.42188 -25 z " />
              <path
                 id="Cmmi10-73"
                 d=" M8.6875 6.10938 Q11.375 1.51562 19.4844 1.51562 Q23 1.51562 26.1719 2.70312 Q29.3438 3.90625 31.4219 6.29688 Q33.5 8.6875 33.5 12.1094 Q33.5 14.7031 31.6406 16.3594 Q29.7812 18.0156 27.0938 18.6094 L21.6875 19.6719 Q17.9688 20.6094 15.5781 23.1406 Q13.1875 25.6875 13.1875 29.2969 Q13.1875 33.7344 15.5938 37.1562 Q18.0156 40.5781 21.9688 42.375 Q25.9219 44.1875 30.1719 44.1875 Q34.7188 44.1875 38.2969 42.0156 Q41.8906 39.8438 41.8906 35.5938 Q41.8906 33.2969 40.5938 31.5312 Q39.3125 29.7812 37.0156 29.7812 Q35.6875 29.7812 34.7344 30.6406 Q33.7969 31.5 33.7969 32.8125 Q33.7969 33.9844 34.4531 35.0781 Q35.1094 36.1875 36.2031 36.8438 Q37.3125 37.5 38.4844 37.5 Q37.5938 39.6562 35.1719 40.625 Q32.7656 41.6094 29.9844 41.6094 Q27.4375 41.6094 24.8906 40.5781 Q22.3594 39.5469 20.8125 37.5625 Q19.2812 35.5938 19.2812 32.9062 Q19.2812 31.1094 20.5469 29.7344 Q21.8281 28.375 23.6875 27.7812 L29.5 26.6094 Q32.2812 26.0312 34.5938 24.5312 Q36.9219 23.0469 38.25 20.7656 Q39.5938 18.5 39.5938 15.5781 Q39.5938 11.8594 37.5156 8.25 Q35.4531 4.64062 32.4219 2.48438 Q27.0938 -1.125 19.3906 -1.125 Q14.0625 -1.125 9.60938 1.3125 Q5.17188 3.76562 5.17188 8.59375 Q5.17188 11.3281 6.75 13.3438 Q8.34375 15.375 11.0781 15.375 Q12.7031 15.375 13.7969 14.3906 Q14.8906 13.4219 14.8906 11.8125 Q14.8906 9.51562 13.1719 7.8125 Q11.4688 6.10938 9.1875 6.10938 z " />
              <path
                 id="Cmmi10-65"
                 d=" M20.125 -1.125 Q15.3281 -1.125 11.7344 1.35938 Q8.15625 3.85938 6.26562 8.07812 Q4.39062 12.3125 4.39062 17 Q4.39062 24.125 7.98438 30.3906 Q11.5781 36.6719 17.7188 40.4219 Q23.875 44.1875 30.9062 44.1875 Q35.2031 44.1875 38.4062 41.9688 Q41.6094 39.75 41.6094 35.5938 Q41.6094 29.8281 37.0156 27.0156 Q32.4219 24.2188 26.6562 23.5625 Q20.9062 22.9062 13.9219 22.9062 L13.625 22.9062 Q12.0156 16.9375 12.0156 12.7031 Q12.0156 8.25 14.0625 4.875 Q16.1094 1.51562 20.3125 1.51562 Q26.2656 1.51562 31.75 4.25 Q37.25 6.98438 40.7188 11.8125 Q41.0156 12.1094 41.5 12.1094 Q42 12.1094 42.5 11.5469 Q43.0156 10.9844 43.0156 10.5 Q43.0156 10.1094 42.8281 9.90625 Q39.1562 4.78125 32.9531 1.82812 Q26.7656 -1.125 20.125 -1.125 M14.2031 25.4844 Q20.0156 25.4844 24.9531 26.0156 Q29.8906 26.5625 33.8906 28.7344 Q37.8906 30.9062 37.8906 35.5 Q37.8906 37.3594 36.8594 38.75 Q35.8438 40.1406 34.2031 40.875 Q32.5625 41.6094 30.8125 41.6094 Q26.5625 41.6094 23.1719 39.3125 Q19.7812 37.0156 17.5781 33.3281 Q15.375 29.6406 14.2031 25.4844" />
              <path
                 id="Cmmi10-74"
                 d=" M6.20312 8.10938 Q6.20312 9.57812 6.5 10.8906 L13.7188 39.5938 L3.21875 39.5938 Q2.20312 39.5938 2.20312 40.9219 Q2.59375 43.1094 3.51562 43.1094 L14.5938 43.1094 L18.6094 59.4219 Q19 60.75 20.1719 61.6719 Q21.3438 62.5938 22.7969 62.5938 Q24.0781 62.5938 24.9219 61.8281 Q25.7812 61.0781 25.7812 59.8125 Q25.7812 59.5156 25.75 59.3438 Q25.7344 59.1875 25.6875 58.9844 L21.6875 43.1094 L31.9844 43.1094 Q33.0156 43.1094 33.0156 41.7969 Q32.9531 41.5469 32.8125 40.9531 Q32.6719 40.375 32.4219 39.9844 Q32.1719 39.5938 31.6875 39.5938 L20.7969 39.5938 L13.625 10.6875 Q12.8906 7.85938 12.8906 5.8125 Q12.8906 1.51562 15.8281 1.51562 Q20.2188 1.51562 23.6094 5.64062 Q27 9.76562 28.8125 14.7031 Q29.2031 15.2812 29.5938 15.2812 L30.8125 15.2812 Q31.2031 15.2812 31.4375 15.0156 Q31.6875 14.75 31.6875 14.4062 Q31.6875 14.2031 31.5938 14.1094 Q29.3906 8.0625 25.1875 3.46875 Q21 -1.125 15.5781 -1.125 Q11.625 -1.125 8.90625 1.45312 Q6.20312 4.04688 6.20312 8.10938" />
              <path
                 id="Cmmi10-69"
                 d=" M7.8125 7.17188 Q7.8125 9.03125 8.59375 11.0781 L16.7031 32.625 Q18.0156 36.2812 18.0156 38.625 Q18.0156 41.6094 15.8281 41.6094 Q11.8594 41.6094 9.29688 37.5312 Q6.73438 33.4531 5.51562 28.4219 Q5.32812 27.7812 4.6875 27.7812 L3.51562 27.7812 Q2.6875 27.7812 2.6875 28.7188 L2.6875 29 Q4.29688 34.9688 7.60938 39.5781 Q10.9375 44.1875 16.0156 44.1875 Q19.5781 44.1875 22.0469 41.8438 Q24.5156 39.5 24.5156 35.8906 Q24.5156 34.0312 23.6875 31.9844 L15.5781 10.5 Q14.2031 7.17188 14.2031 4.5 Q14.2031 1.51562 16.5 1.51562 Q20.4062 1.51562 23.0156 5.6875 Q25.6406 9.85938 26.7031 14.7031 Q26.9062 15.2812 27.4844 15.2812 L28.7188 15.2812 Q29.1094 15.2812 29.3438 15.0156 Q29.5938 14.75 29.5938 14.4062 Q29.5938 14.3125 29.5 14.1094 Q28.125 8.45312 24.7344 3.65625 Q21.3438 -1.125 16.3125 -1.125 Q12.7969 -1.125 10.2969 1.29688 Q7.8125 3.71875 7.8125 7.17188 M19.0938 60.5938 Q19.0938 62.7031 20.8438 64.4062 Q22.6094 66.1094 24.7031 66.1094 Q26.4219 66.1094 27.5156 65.0625 Q28.6094 64.0156 28.6094 62.4062 Q28.6094 60.1562 26.8281 58.4688 Q25.0469 56.7812 22.9062 56.7812 Q21.2969 56.7812 20.1875 57.875 Q19.0938 58.9844 19.0938 60.5938" />
            </defs>
            <g
               id="g202"
               transform="translate(262.2 424.41375)scale(0.2 -0.2)">
              <use
                 id="use204"
                 xlink:href="#Cmmi10-74" />
              <use
                 id="use206"
                 xlink:href="#Cmmi10-69"
                 transform="translate(36.083984375 0.0)" />
              <use
                 id="use208"
                 xlink:href="#Cmmi10-6d"
                 transform="translate(70.5078125 0.0)" />
              <use
                 id="use210"
                 xlink:href="#Cmmi10-65"
                 transform="translate(158.30078125 0.0)" />
              <use
                 id="use212"
                 xlink:href="#Cmr10-28"
                 transform="translate(204.78515625 0.0)" />
              <use
                 id="use214"
                 xlink:href="#Cmmi10-73"
                 transform="translate(243.603515625 0.0)" />
              <use
                 id="use216"
                 xlink:href="#Cmr10-29"
                 transform="translate(290.380859375 0.0)" />
            </g>
          </g>
        </g>
        <g
           id="matplotlib.axis_2">
          <g
             id="ytick_1">
            <g
               id="line2d_25">
              <path
                 id="path221"
                 style="fill:none;stroke:#000000;stroke-dasharray:1.000000,3.000000;stroke-dashoffset:0.0;stroke-width:0.5;"
                 d=" M72 339.429 L518.4 339.429"
                 clip-path="url(#p7ff5b81e1d)" />
            </g>
            <g
               id="line2d_26">
              <defs
                 id="defs224">
                <path
                   style="stroke:#000000;stroke-width:0.5;"
                   id="m728421d6d4"
                   d=" M0 0 L4 0" />
              </defs>
              <g
                 id="g227">
                <use
                   id="use229"
                   y="339.428571429"
                   xlink:href="#m728421d6d4"
                   x="72.0"
                   style="stroke:#000000;stroke-width:0.5;" />
              </g>
            </g>
            <g
               id="line2d_27">
              <defs
                 id="defs232">
                <path
                   style="stroke:#000000;stroke-width:0.5;"
                   id="mcb0005524f"
                   d=" M0 0 L-4 0" />
              </defs>
              <g
                 id="g235">
                <use
                   id="use237"
                   y="339.428571429"
                   xlink:href="#mcb0005524f"
                   x="518.4"
                   style="stroke:#000000;stroke-width:0.5;" />
              </g>
            </g>
            <g
               id="text_8">
              <!-- −1000 -->
              <defs
                 id="defs240">
                <path
                   id="BitstreamVeraSans-Roman-2212"
                   d=" M10.5938 35.5 L73.1875 35.5 L73.1875 27.2031 L10.5938 27.2031 z " />
              </defs>
              <g
                 id="g243"
                 transform="translate(29.4725 342.739821429)scale(0.12 -0.12)">
                <use
                   id="use245"
                   xlink:href="#BitstreamVeraSans-Roman-2212" />
                <use
                   id="use247"
                   xlink:href="#BitstreamVeraSans-Roman-31"
                   x="83.7890625" />
                <use
                   id="use249"
                   xlink:href="#BitstreamVeraSans-Roman-30"
                   x="147.412109375" />
                <use
                   id="use251"
                   xlink:href="#BitstreamVeraSans-Roman-30"
                   x="211.03515625" />
                <use
                   id="use253"
                   xlink:href="#BitstreamVeraSans-Roman-30"
                   x="274.658203125" />
              </g>
            </g>
          </g>
          <g
             id="ytick_2">
            <g
               id="line2d_28">
              <path
                 id="path257"
                 style="fill:none;stroke:#000000;stroke-dasharray:1.000000,3.000000;stroke-dashoffset:0.0;stroke-width:0.5;"
                 d=" M72 277.714 L518.4 277.714"
                 clip-path="url(#p7ff5b81e1d)" />
            </g>
            <g
               id="line2d_29">
              <g
                 id="g260">
                <use
                   id="use262"
                   y="277.714285714"
                   xlink:href="#m728421d6d4"
                   x="72.0"
                   style="stroke:#000000;stroke-width:0.5;" />
              </g>
            </g>
            <g
               id="line2d_30">
              <g
                 id="g265">
                <use
                   id="use267"
                   y="277.714285714"
                   xlink:href="#mcb0005524f"
                   x="518.4"
                   style="stroke:#000000;stroke-width:0.5;" />
              </g>
            </g>
            <g
               id="text_9">
              <!-- −500 -->
              <g
                 id="g270"
                 transform="translate(37.1075 281.025535714)scale(0.12 -0.12)">
                <use
                   id="use272"
                   xlink:href="#BitstreamVeraSans-Roman-2212" />
                <use
                   id="use274"
                   xlink:href="#BitstreamVeraSans-Roman-35"
                   x="83.7890625" />
                <use
                   id="use276"
                   xlink:href="#BitstreamVeraSans-Roman-30"
                   x="147.412109375" />
                <use
                   id="use278"
                   xlink:href="#BitstreamVeraSans-Roman-30"
                   x="211.03515625" />
              </g>
            </g>
          </g>
          <g
             id="ytick_3">
            <g
               id="line2d_31">
              <path
                 id="path282"
                 style="fill:none;stroke:#000000;stroke-dasharray:1.000000,3.000000;stroke-dashoffset:0.0;stroke-width:0.5;"
                 d=" M72 216 L518.4 216"
                 clip-path="url(#p7ff5b81e1d)" />
            </g>
            <g
               id="line2d_32">
              <g
                 id="g285">
                <use
                   id="use287"
                   y="216.0"
                   xlink:href="#m728421d6d4"
                   x="72.0"
                   style="stroke:#000000;stroke-width:0.5;" />
              </g>
            </g>
            <g
               id="line2d_33">
              <g
                 id="g290">
                <use
                   id="use292"
                   y="216.0"
                   xlink:href="#mcb0005524f"
                   x="518.4"
                   style="stroke:#000000;stroke-width:0.5;" />
              </g>
            </g>
            <g
               id="text_10">
              <!-- 0 -->
              <g
                 id="g295"
                 transform="translate(61.953125 219.31125)scale(0.12 -0.12)">
                <use
                   id="use297"
                   xlink:href="#BitstreamVeraSans-Roman-30" />
              </g>
            </g>
          </g>
          <g
             id="ytick_4">
            <g
               id="line2d_34">
              <path
                 id="path301"
                 style="fill:none;stroke:#000000;stroke-dasharray:1.000000,3.000000;stroke-dashoffset:0.0;stroke-width:0.5;"
                 d=" M72 154.286 L518.4 154.286"
                 clip-path="url(#p7ff5b81e1d)" />
            </g>
            <g
               id="line2d_35">
              <g
                 id="g304">
                <use
                   id="use306"
                   y="154.285714286"
                   xlink:href="#m728421d6d4"
                   x="72.0"
                   style="stroke:#000000;stroke-width:0.5;" />
              </g>
            </g>
            <g
               id="line2d_36">
              <g
                 id="g309">
                <use
                   id="use311"
                   y="154.285714286"
                   xlink:href="#mcb0005524f"
                   x="518.4"
                   style="stroke:#000000;stroke-width:0.5;" />
              </g>
            </g>
            <g
               id="text_11">
              <!-- 500 -->
              <g
                 id="g314"
                 transform="translate(46.818125 157.596964286)scale(0.12 -0.12)">
                <use
                   id="use316"
                   xlink:href="#BitstreamVeraSans-Roman-35" />
                <use
                   id="use318"
                   xlink:href="#BitstreamVeraSans-Roman-30"
                   x="63.623046875" />
                <use
                   id="use320"
                   xlink:href="#BitstreamVeraSans-Roman-30"
                   x="127.24609375" />
              </g>
            </g>
          </g>
          <g
             id="ytick_5">
            <g
               id="line2d_37">
              <path
                 id="path324"
                 style="fill:none;stroke:#000000;stroke-dasharray:1.000000,3.000000;stroke-dashoffset:0.0;stroke-width:0.5;"
                 d=" M72 92.5714 L518.4 92.5714"
                 clip-path="url(#p7ff5b81e1d)" />
            </g>
            <g
               id="line2d_38">
              <g
                 id="g327">
                <use
                   id="use329"
                   y="92.5714285714"
                   xlink:href="#m728421d6d4"
                   x="72.0"
                   style="stroke:#000000;stroke-width:0.5;" />
              </g>
            </g>
            <g
               id="line2d_39">
              <g
                 id="g332">
                <use
                   id="use334"
                   y="92.5714285714"
                   xlink:href="#mcb0005524f"
                   x="518.4"
                   style="stroke:#000000;stroke-width:0.5;" />
              </g>
            </g>
            <g
               id="text_12">
              <!-- 1000 -->
              <g
                 id="g337"
                 transform="translate(39.575 95.8826785714)scale(0.12 -0.12)">
                <use
                   id="use339"
                   xlink:href="#BitstreamVeraSans-Roman-31" />
                <use
                   id="use341"
                   xlink:href="#BitstreamVeraSans-Roman-30"
                   x="63.623046875" />
                <use
                   id="use343"
                   xlink:href="#BitstreamVeraSans-Roman-30"
                   x="127.24609375" />
                <use
                   id="use345"
                   xlink:href="#BitstreamVeraSans-Roman-30"
                   x="190.869140625" />
              </g>
            </g>
          </g>
        </g>
        <g
           id="patch_3">
          <path
             id="path348"
             style="fill:none;stroke:#000000;"
             d=" M72 43.2 L518.4 43.2" />
        </g>
        <g
           id="patch_4">
          <path
             id="path351"
             style="fill:none;stroke:#000000;"
             d=" M518.4 388.8 L518.4 43.2" />
        </g>
        <g
           id="patch_5">
          <path
             id="path354"
             style="fill:none;stroke:#000000;"
             d=" M72 388.8 L518.4 388.8" />
        </g>
        <g
           id="patch_6">
          <path
             id="path357"
             style="fill:none;stroke:#000000;"
             d=" M72 388.8 L72 43.2" />
        </g>
        <g
           style="stroke-linecap:butt;stroke-linejoin:round"
           transform="matrix(0.76129957,0,0,0.79297354,-158.88835,3.9360905)"
           id="legend_1">
          <g
             style="stroke-linecap:butt;stroke-linejoin:round"
             id="patch_7">
            <path
               inkscape:connector-curvature="0"
               id="path361"
               style="fill:#ffffff;stroke:#000000;stroke-linecap:butt;stroke-linejoin:round"
               d="m 307.8,160 200.6,0 0,-106.8 -200.6,0 0,106.8 z" />
          </g>
          <g
             style="stroke-linecap:butt;stroke-linejoin:round"
             id="line2d_40">
            <path
               inkscape:connector-curvature="0"
               id="path364"
               style="fill:none;stroke:#0000ff;stroke-width:2;stroke-linecap:square;stroke-linejoin:round"
               d="m 321.8,72.2 28,0" />
          </g>
          <g
             style="stroke-linecap:butt;stroke-linejoin:round"
             id="line2d_41" />
          <g
             style="stroke-linecap:butt;stroke-linejoin:round"
             id="text_13">
            <!-- $\dddot{q}_0 (rad.s^{-3})$ -->
            <defs
               id="defs368">
              <path
                 style="stroke-linecap:butt;stroke-linejoin:round"
                 inkscape:connector-curvature="0"
                 id="Cmr10-33"
                 d="m 9.51562,7.71875 q 2.34378,-3.42187 6.29688,-5.07813 3.9687,-1.656245 8.5,-1.656245 5.8125,0 8.25,4.953125 2.4531,4.9531 2.4531,11.25 0,2.8281 -0.5156,5.6563 -0.5156,2.8437 -1.7344,5.2812 -1.2187,2.4375 -3.3437,3.9062 Q 27.2969,33.5 24.2188,33.5 l -6.6407,0 q -0.875,0 -0.875,0.9219 l 0,0.875 q 0,0.7812 0.875,0.7812 l 5.5157,0.4531 q 3.5156,0 5.8281,2.625 2.3281,2.6407 3.4062,6.4219 1.0781,3.7813 1.0781,7.2031 0,4.7813 -2.25,7.8594 -2.25,3.0782 -6.8437,3.0782 -3.7969,0 -7.2656,-1.4376 -3.4688,-1.4374 -5.5157,-4.375 0.1876,0.0469 0.3282,0.0782 0.1562,0.0312 0.3437,0.0312 2.25,0 3.7657,-1.5625 1.5156,-1.5625 1.5156,-3.7656 0,-2.1563 -1.5156,-3.7187 -1.5157,-1.5626 -3.7657,-1.5626 -2.1875,0 -3.74998,1.5626 -1.5625,1.5624 -1.5625,3.7187 0,4.2969 2.57813,7.4687 2.59375,3.1719 6.67185,4.8126 4.0782,1.6406 8.1719,1.6406 3.0313,0 6.3906,-0.9063 3.375,-0.9062 6.1094,-2.5937 2.7344,-1.6875 4.4687,-4.3282 1.7344,-2.625 1.7344,-6 0,-4.2031 -1.875,-7.7656 -1.875,-3.5625 -5.1562,-6.1562 -3.2656,-2.5782 -7.1719,-3.8438 4.3437,-0.8281 8.25,-3.2812 3.9063,-2.4375 6.2656,-6.25 2.375,-3.7969 2.375,-8.2032 0,-5.5156 -3.0312,-9.98432 -3.0157,-4.46876 -7.9531,-6.98438 -4.9376,-2.51562 -10.4063,-2.51562 -4.6875,0 -9.4063,1.79687 -4.7031,1.78125 -7.70308,5.34375 -3,3.5625 -3,8.5469 0,2.4844 1.65626,4.1406 1.65624,1.6562 4.15622,1.6562 1.6094,0 2.9532,-0.75 1.3437,-0.75 2.0937,-2.125 0.7656,-1.3593 0.7656,-2.9218 0,-2.4532 -1.7187,-4.1094 -1.7032,-1.65625 -4.0938,-1.65625 z" />
              <path
                 style="stroke-linecap:butt;stroke-linejoin:round"
                 inkscape:connector-curvature="0"
                 id="Cmmi10-61"
                 d="m 17.3906,-1.125 q -6.3125,0 -9.9531,4.76562 -3.625,4.76563 -3.625,11.24998 0,6.4063 3.3125,13.2813 3.3281,6.8906 8.9688,11.4531 5.6406,4.5625 12.125,4.5625 2.9843,0 5.3281,-1.6094 2.3437,-1.6093 3.6562,-4.3906 1.125,4 4.4063,4 1.2656,0 2.1094,-0.7656 0.8593,-0.75 0.8593,-2.0157 0,-0.2968 -0.0312,-0.4531 -0.0157,-0.1406 -0.0625,-0.3281 L 37.5,10.6875 q -0.6875,-2.96875 -0.6875,-4.875 0,-4.29688 2.8906,-4.29688 3.125,0 4.75,3.96876 1.6407,3.98437 2.7657,9.21872 0.1874,0.5781 0.7812,0.5781 l 1.2188,0 q 0.3906,0 0.625,-0.3437 0.25,-0.3437 0.25,-0.625 Q 48.3438,7.32812 46.2656,3.09375 44.1875,-1.125 39.5,-1.125 q -3.3594,0 -5.9531,1.96875 Q 30.9531,2.82812 30.3281,6.10938 23.875,-1.125 17.3906,-1.125 m 0.0938,2.64062 q 3.6094,0 7,2.70313 3.3906,2.71875 5.8437,6.37505 0.0938,0.0937 0.0938,0.2968 l 5.375,21.7344 0.0937,0.2812 q -0.5937,3.5626 -2.5781,6.125 -1.9687,2.5782 -5.3281,2.5782 -3.375,0 -6.2813,-2.7656 -2.9062,-2.7657 -4.9062,-6.5157 -1.9531,-4 -3.7344,-10.9843 -1.7813,-6.9844 -1.7813,-10.8438 0,-3.46875 1.4844,-6.23438 1.5,-2.75 4.7188,-2.75" />
              <path
                 style="stroke-linecap:butt;stroke-linejoin:round"
                 inkscape:connector-curvature="0"
                 id="Cmr10-30"
                 d="m 25,-2.20312 q -12.25,0 -16.67188,10.07812 -4.42187,10.0938 -4.42187,24.0156 0,8.6875 1.57813,16.3438 Q 7.07812,55.9062 11.7812,61.25 16.5,66.6094 25,66.6094 q 6.5938,0 10.7812,-3.2344 4.2032,-3.2188 6.4063,-8.3281 2.2031,-5.0938 3,-10.9375 Q 46,38.2812 46,31.8906 46,23.2969 44.4062,15.7969 42.8281,8.29688 38.1875,3.04688 33.5469,-2.20312 25,-2.20312 m 0,2.593745 q 5.5625,0 8.2969,5.703125 2.7343,5.71875 3.375,12.65625 0.6406,6.9375 0.6406,14.75 0,7.5156 -0.6406,13.8594 -0.6407,6.3594 -3.3594,11.5 -2.7031,5.1562 -8.3125,5.1562 -5.6562,0 -8.3906,-5.1875 -2.7344,-5.1719 -3.375,-11.5 -0.6406,-6.3125 -0.6406,-13.8281 0,-5.5625 0.2656,-10.5 0.2812,-4.9375 1.4531,-10.1875 1.1719,-5.25 3.7813,-8.84375 Q 20.7031,0.390625 25,0.390625" />
              <path
                 style="stroke-linecap:butt;stroke-linejoin:round"
                 inkscape:connector-curvature="0"
                 id="STIXGeneral-Regular-20db"
                 d="m 0.5,62.2031 q 3,-3 3,-5 0,-2 -1.5,-3.4531 -1.5,-1.4531 -3.59375,-1.4531 -2,0 -3.40625,1.4531 -1.40625,1.4531 -1.40625,3.5469 0,2 1.45313,3.4531 1.45312,1.4531 3.45312,1.4531 2,0 5,-3 m -22.9062,3 q 3,-3 3,-5 0,-2 -1.5,-3.4531 -1.5,-1.4531 -3.5938,-1.4531 -2,0 -3.3906,1.4531 -1.4063,1.4531 -1.4063,3.5469 0,2 1.4531,3.4531 1.4376,1.4531 3.4376,1.4531 2,0 5,-3 m -22.8907,3 q 3,-3 3,-5 0,-2 -1.5,-3.4531 -1.5,-1.4531 -3.6093,-1.4531 -2,0 -3.3907,1.4531 -1.4062,1.4531 -1.4062,3.5469 0,2 1.4531,3.4531 1.4531,1.4531 3.4531,1.4531 2,0 5,-3" />
              <path
                 style="stroke-linecap:butt;stroke-linejoin:round"
                 inkscape:connector-curvature="0"
                 id="Cmmi10-72"
                 d="m 7.71875,1.70312 q 0,0.59376 0.09375,0.89063 l 7.4687,29.82815 q 0.7344,2.7812 0.7344,4.8906 0,4.2969 -2.9218,4.2969 -3.12505,0 -4.64068,-3.75 -1.51562,-3.7344 -2.9375,-9.4375 0,-0.2969 -0.29687,-0.4688 Q 4.9375,27.7812 4.6875,27.7812 l -1.17188,0 q -0.34374,0 -0.59374,0.3594 -0.23438,0.375 -0.23438,0.6719 1.07812,4.3437 2.07812,7.3594 1,3.0312 3.125,5.5156 2.12498,2.5 5.29688,2.5 3.4687,0 6.0781,-2 2.6094,-2 3.25,-5.2656 2.5313,3.3125 5.7813,5.2812 3.25,1.9844 7.1093,1.9844 3.1719,0 5.5782,-1.8594 2.4218,-1.8437 2.4218,-5.0156 0,-2.5469 -1.5937,-4.4375 Q 40.2344,31 37.5938,31 q -1.6094,0 -2.7032,1 -1.0937,1.0156 -1.0937,2.625 0,2.1875 1.6093,3.9219 1.6094,1.7343 3.7032,1.7343 -1.6094,1.3282 -3.9063,1.3282 -4.2969,0 -7.4687,-3.0625 Q 24.5625,35.5 22.0156,30.8125 L 14.8906,2.20312 Q 14.5469,0.828125 13.3438,-0.140625 12.1562,-1.125 10.6875,-1.125 q -1.21875,0 -2.09375,0.78125 -0.875,0.78125 -0.875,2.04687" />
              <path
                 style="stroke-linecap:butt;stroke-linejoin:round"
                 inkscape:connector-curvature="0"
                 id="Cmsy10-a1"
                 d="M 10.2031,23 Q 9.375,23 8.82812,23.625 8.29688,24.2656 8.29688,25 q 0,0.7344 0.53124,1.3594 Q 9.375,27 10.2031,27 l 57.375,0 q 0.7813,0 1.2969,-0.6406 0.5156,-0.625 0.5156,-1.3594 0,-0.7344 -0.5156,-1.375 Q 68.3594,23 67.5781,23 z" />
              <path
                 style="stroke-linecap:butt;stroke-linejoin:round"
                 inkscape:connector-curvature="0"
                 id="Cmmi10-71"
                 d="m 14.7031,-18.1094 q 0.3438,2.1875 1.3125,2.1875 3.6094,0 5.6875,0.5938 2.0781,0.5781 2.7188,2.8281 l 4.2969,17 Q 23,-1.125 17.2812,-1.125 10.9844,-1.125 7.39062,3.64062 3.8125,8.40625 3.8125,14.8906 q 0,6.4063 3.29688,13.2813 3.29682,6.8906 8.93752,11.4531 5.6406,4.5625 12.1719,4.5625 3.0312,0 5.4687,-1.8125 2.4531,-1.7969 3.7187,-4.7812 0.5782,1.1718 3.2344,3.875 2.6719,2.7187 3.75,2.7187 1.125,0 1.125,-1.2656 L 31.5,-12.8906 q -0.25,-1.4688 -0.2969,-1.7032 0,-1.3281 6.5938,-1.3281 0.4843,0 0.75,-0.3906 0.2656,-0.3906 0.2656,-0.875 -0.3281,-1.3125 -0.5625,-1.75 -0.2188,-0.4531 -1.1406,-0.4531 l -21.3906,0 q -1.0157,0 -1.0157,1.2812 m 2.7813,19.62502 q 3.5156,0 6.8594,2.65626 3.3437,2.67187 5.8281,6.32812 l 5.625,22.5156 q -0.5938,3.5156 -2.5781,6.0469 -1.9688,2.5469 -5.2344,2.5469 -3.375,0 -6.2813,-2.7656 -2.9062,-2.7657 -4.9062,-6.5157 -1.9531,-4 -3.7344,-10.9843 -1.7813,-6.9844 -1.7813,-10.8438 0,-3.46875 1.4844,-6.23438 1.5,-2.75 4.7188,-2.75" />
              <path
                 style="stroke-linecap:butt;stroke-linejoin:round"
                 inkscape:connector-curvature="0"
                 id="Cmmi10-64"
                 d="m 17.3906,-1.125 q -6.3125,0 -9.9531,4.76562 -3.625,4.76563 -3.625,11.24998 0,6.4063 3.3125,13.2813 3.3281,6.8906 8.9688,11.4531 5.6406,4.5625 12.125,4.5625 2.9374,0 5.2968,-1.6406 2.375,-1.625 3.6875,-4.3594 L 42.8281,60.5 q 0.3907,1.7031 0.4844,2.6875 0,1.6094 -6.5,1.6094 -1.0156,0 -1.0156,1.3125 0.0469,0.25 0.2187,0.875 0.1719,0.6406 0.4375,0.9844 0.2657,0.3437 0.75,0.3437 l 13.4844,1.0781 q 1.2187,0 1.2187,-1.2812 L 37.5,10.5938 q -0.6875,-1.6563 -0.6875,-4.7813 0,-4.29688 2.8906,-4.29688 3.125,0 4.75,3.96876 1.6407,3.98437 2.7657,9.21872 0.1874,0.5781 0.7812,0.5781 l 1.2188,0 q 0.3906,0 0.625,-0.3437 0.25,-0.3437 0.25,-0.625 Q 48.3438,7.32812 46.2656,3.09375 44.1875,-1.125 39.5,-1.125 q -3.3594,0 -5.9531,1.96875 Q 30.9531,2.82812 30.3281,6.10938 23.875,-1.125 17.3906,-1.125 m 0.0938,2.64062 q 3.6094,0 7,2.70313 3.3906,2.71875 5.8437,6.37505 0.0938,0.0937 0.0938,0.3906 l 5.4687,22.0312 q -0.5937,3.5156 -2.5937,6.0469 -2,2.5469 -5.3125,2.5469 -3.375,0 -6.2813,-2.7656 -2.9062,-2.7657 -4.9062,-6.5157 -1.9531,-4 -3.7344,-10.9843 -1.7813,-6.9844 -1.7813,-10.8438 0,-3.46875 1.4844,-6.23438 1.5,-2.75 4.7188,-2.75" />
              <path
                 style="stroke-linecap:butt;stroke-linejoin:round"
                 inkscape:connector-curvature="0"
                 id="Cmmi10-3a"
                 d="m 8.40625,5.51562 q 0,2.25 1.65625,3.85938 1.6563,1.6094 3.8594,1.6094 1.3593,0 2.6719,-0.7344 1.3281,-0.73438 2.0624,-2.04688 0.7344,-1.3125 0.7344,-2.6875 0,-2.1875 -1.625,-3.85937 Q 16.1562,0 13.9219,0 11.7188,0 10.0625,1.65625 8.40625,3.32812 8.40625,5.51562" />
            </defs>
            <g
               style="stroke-linecap:butt;stroke-linejoin:round"
               id="g379"
               transform="matrix(0.2,0,0,-0.2,371.8,79.2)">
              <use
                 height="432"
                 width="576"
                 y="0"
                 x="0"
                 style="stroke-linecap:butt;stroke-linejoin:round"
                 id="use381"
                 xlink:href="#STIXGeneral-Regular-20db"
                 transform="translate(48.667384,1.9571878)" />
              <use
                 height="432"
                 width="576"
                 y="0"
                 x="0"
                 style="stroke-linecap:butt;stroke-linejoin:round"
                 id="use383"
                 xlink:href="#Cmmi10-71"
                 transform="translate(0,0.8578125)" />
              <use
                 height="432"
                 width="576"
                 y="0"
                 x="0"
                 style="stroke-linecap:butt;stroke-linejoin:round"
                 id="use385"
                 xlink:href="#Cmr10-30"
                 transform="matrix(0.7,0,0,0.7,44.580078,-24.651562)" />
              <g
                 style="stroke-linecap:butt;stroke-linejoin:round"
                 transform="translate(132.26077,-2.7484381)"
                 id="g3469">
                <use
                   transform="translate(94.580078,0.8578125)"
                   xlink:href="#Cmr10-28"
                   id="use387"
                   style="stroke-linecap:butt;stroke-linejoin:round"
                   x="0"
                   y="0"
                   width="576"
                   height="432" />
                <use
                   transform="translate(133.39844,0.8578125)"
                   xlink:href="#Cmmi10-72"
                   id="use389"
                   style="stroke-linecap:butt;stroke-linejoin:round"
                   x="0"
                   y="0"
                   width="576"
                   height="432" />
                <use
                   transform="translate(178.51562,0.8578125)"
                   xlink:href="#Cmmi10-61"
                   id="use391"
                   style="stroke-linecap:butt;stroke-linejoin:round"
                   x="0"
                   y="0"
                   width="576"
                   height="432" />
                <use
                   transform="translate(231.29883,0.8578125)"
                   xlink:href="#Cmmi10-64"
                   id="use393"
                   style="stroke-linecap:butt;stroke-linejoin:round"
                   x="0"
                   y="0"
                   width="576"
                   height="432" />
                <use
                   transform="translate(283.30078,0.8578125)"
                   xlink:href="#Cmmi10-3a"
                   id="use395"
                   style="stroke-linecap:butt;stroke-linejoin:round"
                   x="0"
                   y="0"
                   width="576"
                   height="432" />
                <use
                   transform="translate(311.84375,0.8578125)"
                   xlink:href="#Cmmi10-73"
                   id="use397"
                   style="stroke-linecap:butt;stroke-linejoin:round"
                   x="0"
                   y="0"
                   width="576"
                   height="432" />
                <use
                   transform="matrix(0.7,0,0,0.7,358.62109,43.373438)"
                   xlink:href="#Cmsy10-a1"
                   id="use399"
                   style="stroke-linecap:butt;stroke-linejoin:round"
                   x="0"
                   y="0"
                   width="576"
                   height="432" />
                <use
                   transform="matrix(0.7,0,0,0.7,413.00098,43.373438)"
                   xlink:href="#Cmr10-33"
                   id="use401"
                   style="stroke-linecap:butt;stroke-linejoin:round"
                   x="0"
                   y="0"
                   width="576"
                   height="432" />
                <use
                   transform="translate(465.00723,0.8578125)"
                   xlink:href="#Cmr10-29"
                   id="use403"
                   style="stroke-linecap:butt;stroke-linejoin:round"
                   x="0"
                   y="0"
                   width="576"
                   height="432" />
              </g>
            </g>
          </g>
          <g
             style="stroke-linecap:butt;stroke-linejoin:round"
             id="line2d_42">
            <path
               inkscape:connector-curvature="0"
               id="path406"
               style="fill:none;stroke:#ff0000;stroke-width:2;stroke-linecap:square;stroke-linejoin:round"
               d="m 321.8,105.8 28,0" />
          </g>
          <g
             style="stroke-linecap:butt;stroke-linejoin:round"
             id="line2d_43" />
          <g
             style="stroke-linecap:butt;stroke-linejoin:round"
             id="text_14">
            <!-- $\dddot{q_0}_{max} (rad.s^{-3})$ -->
            <defs
               id="defs410">
              <path
                 style="stroke-linecap:butt;stroke-linejoin:round"
                 inkscape:connector-curvature="0"
                 id="Cmmi10-78"
                 d="m 7.8125,2.875 q 1.76562,-1.35938 4.9844,-1.35938 3.125,0 5.5156,3 2.3906,3 3.2656,6.56248 l 4.5469,17.7344 q 1.0781,4.8281 1.0781,6.5937 0,2.4844 -1.3906,4.3438 -1.3906,1.8594 -3.8906,1.8594 -3.1719,0 -5.9531,-1.9844 Q 13.1875,37.6406 11.2812,34.5938 9.375,31.5469 8.59375,28.4219 8.40625,27.7812 7.8125,27.7812 l -1.21875,0 q -0.78125,0 -0.78125,0.9376 l 0,0.2812 q 0.96875,3.7188 3.3125,7.25 2.3438,3.5469 5.7344,5.7344 3.4062,2.2031 7.2656,2.2031 3.6562,0 6.6094,-1.9531 2.9531,-1.9532 4.1718,-5.3125 1.7188,3.0625 4.375,5.1562 2.6563,2.1094 5.8282,2.1094 2.1562,0 4.3906,-0.7656 2.25,-0.75 3.6719,-2.3125 1.4219,-1.5625 1.4219,-3.9063 0,-2.5312 -1.6407,-4.375 Q 49.3125,31 46.7812,31 q -1.6093,0 -2.6874,1.0312 -1.0782,1.0313 -1.0782,2.5938 0,2.0938 1.4375,3.6719 1.4531,1.5937 3.4531,1.8906 -1.8124,1.4219 -4.9843,1.4219 -3.2188,0 -5.5938,-2.9844 -2.3593,-2.9844 -3.3437,-6.6406 L 29.5938,14.3125 q -1.0782,-4.0156 -1.0782,-6.59375 0,-2.54687 1.4375,-4.375 1.4375,-1.82813 3.8438,-1.82813 4.6875,0 8.3593,4.125 3.6876,4.125 4.8594,9.06248 0.2032,0.5781 0.7813,0.5781 l 1.2343,0 q 0.3907,0 0.625,-0.2656 0.25,-0.2656 0.25,-0.6094 0,-0.0937 -0.0937,-0.2968 Q 48.3906,8.15625 43.8438,3.51562 39.3125,-1.125 33.5938,-1.125 q -3.6563,0 -6.6094,1.96875 -2.9532,1.98437 -4.1875,5.35937 -1.5625,-2.9375 -4.3281,-5.14062 -2.75,-2.1875 -5.875,-2.1875 -2.1407,0 -4.42192,0.765625 -2.26563,0.75 -3.6875,2.312495 -1.40626,1.5625 -1.40626,3.95313 0,2.34375 1.625,4.26565 1.64063,1.9375 4.09376,1.9375 1.65622,0 2.78122,-1 1.125,-1 1.125,-2.6094 0,-2.10938 -1.4062,-3.67188 Q 9.90625,3.26562 7.8125,2.875" />
            </defs>
            <g
               style="stroke-linecap:butt;stroke-linejoin:round"
               id="g413"
               transform="matrix(0.2,0,0,-0.2,371.8,112.8)">
              <use
                 height="432"
                 width="576"
                 y="0"
                 x="0"
                 style="stroke-linecap:butt;stroke-linejoin:round"
                 id="use415"
                 xlink:href="#STIXGeneral-Regular-20db"
                 transform="translate(46.949711,3.6062506)" />
              <use
                 height="432"
                 width="576"
                 y="0"
                 x="0"
                 style="stroke-linecap:butt;stroke-linejoin:round"
                 id="use417"
                 xlink:href="#Cmmi10-71"
                 transform="translate(0,0.8578125)" />
              <use
                 height="432"
                 width="576"
                 y="0"
                 x="0"
                 style="stroke-linecap:butt;stroke-linejoin:round"
                 id="use419"
                 xlink:href="#Cmr10-30"
                 transform="matrix(0.7,0,0,0.7,44.580078,-24.651562)" />
              <use
                 height="432"
                 width="576"
                 y="0"
                 x="0"
                 style="stroke-linecap:butt;stroke-linejoin:round"
                 id="use421"
                 xlink:href="#Cmmi10-6d"
                 transform="matrix(0.7,0,0,0.7,94.580078,-24.651562)" />
              <use
                 height="432"
                 width="576"
                 y="0"
                 x="0"
                 style="stroke-linecap:butt;stroke-linejoin:round"
                 id="use423"
                 xlink:href="#Cmmi10-61"
                 transform="matrix(0.7,0,0,0.7,156.03516,-24.651562)" />
              <use
                 height="432"
                 width="576"
                 y="0"
                 x="0"
                 style="stroke-linecap:butt;stroke-linejoin:round"
                 id="use425"
                 xlink:href="#Cmmi10-78"
                 transform="matrix(0.7,0,0,0.7,192.9834,-24.651562)" />
              <use
                 height="432"
                 width="576"
                 y="0"
                 x="0"
                 style="stroke-linecap:butt;stroke-linejoin:round"
                 id="use427"
                 xlink:href="#Cmr10-28"
                 transform="translate(232.93945,0.8578125)" />
              <use
                 height="432"
                 width="576"
                 y="0"
                 x="0"
                 style="stroke-linecap:butt;stroke-linejoin:round"
                 id="use429"
                 xlink:href="#Cmmi10-72"
                 transform="translate(271.75781,0.8578125)" />
              <use
                 height="432"
                 width="576"
                 y="0"
                 x="0"
                 style="stroke-linecap:butt;stroke-linejoin:round"
                 id="use431"
                 xlink:href="#Cmmi10-61"
                 transform="translate(316.875,0.8578125)" />
              <use
                 height="432"
                 width="576"
                 y="0"
                 x="0"
                 style="stroke-linecap:butt;stroke-linejoin:round"
                 id="use433"
                 xlink:href="#Cmmi10-64"
                 transform="translate(369.6582,0.8578125)" />
              <use
                 height="432"
                 width="576"
                 y="0"
                 x="0"
                 style="stroke-linecap:butt;stroke-linejoin:round"
                 id="use435"
                 xlink:href="#Cmmi10-3a"
                 transform="translate(421.66016,0.8578125)" />
              <use
                 height="432"
                 width="576"
                 y="0"
                 x="0"
                 style="stroke-linecap:butt;stroke-linejoin:round"
                 id="use437"
                 xlink:href="#Cmmi10-73"
                 transform="translate(450.20312,0.8578125)" />
              <use
                 height="432"
                 width="576"
                 y="0"
                 x="0"
                 style="stroke-linecap:butt;stroke-linejoin:round"
                 id="use439"
                 xlink:href="#Cmsy10-a1"
                 transform="matrix(0.7,0,0,0.7,496.98047,43.373438)" />
              <use
                 height="432"
                 width="576"
                 y="0"
                 x="0"
                 style="stroke-linecap:butt;stroke-linejoin:round"
                 id="use441"
                 xlink:href="#Cmr10-33"
                 transform="matrix(0.7,0,0,0.7,551.36035,43.373438)" />
              <use
                 height="432"
                 width="576"
                 y="0"
                 x="0"
                 style="stroke-linecap:butt;stroke-linejoin:round"
                 id="use443"
                 xlink:href="#Cmr10-29"
                 transform="translate(603.3666,0.8578125)" />
            </g>
          </g>
          <g
             style="stroke-linecap:butt;stroke-linejoin:round"
             id="line2d_44">
            <path
               inkscape:connector-curvature="0"
               id="path446"
               style="fill:none;stroke:#ff0000;stroke-width:2;stroke-linecap:butt;stroke-linejoin:round;stroke-dasharray:6, 6;stroke-dashoffset:0"
               d="m 321.8,139.4 28,0" />
          </g>
          <g
             style="stroke-linecap:butt;stroke-linejoin:round"
             id="line2d_45" />
          <g
             style="stroke-linecap:butt;stroke-linejoin:round"
             id="text_15">
            <!-- $\dddot{q_0}_{min} (rad.s^{-3})$ -->
            <defs
               id="defs450">
              <path
                 style="stroke-linecap:butt;stroke-linejoin:round"
                 inkscape:connector-curvature="0"
                 id="Cmmi10-6e"
                 d="m 7.71875,1.70312 q 0,0.59376 0.09375,0.89063 l 7.4687,29.82815 q 0.7344,2.7812 0.7344,4.8906 0,4.2969 -2.9218,4.2969 -3.12505,0 -4.64068,-3.75 -1.51562,-3.7344 -2.9375,-9.4375 0,-0.2969 -0.29687,-0.4688 Q 4.9375,27.7812 4.6875,27.7812 l -1.17188,0 q -0.34374,0 -0.59374,0.3594 -0.23438,0.375 -0.23438,0.6719 1.07812,4.3437 2.07812,7.3594 1,3.0312 3.125,5.5156 2.12498,2.5 5.29688,2.5 3.75,0 6.625,-2.375 2.8906,-2.3594 2.8906,-6.0156 2.9844,3.9062 6.9844,6.1406 4,2.25 8.5,2.25 3.5625,0 6.1406,-1.2187 2.5938,-1.2188 4.0313,-3.6876 1.4531,-2.4687 1.4531,-5.875 0,-4.1093 -1.8437,-9.9218 Q 46.1406,17.6719 43.4062,10.5 42,7.23438 42,4.5 q 0,-2.98438 2.2812,-2.98438 3.9063,0 6.5157,4.1875 2.625,4.20313 3.7031,8.99998 0.1875,0.5781 0.8281,0.5781 l 1.1719,0 q 0.3906,0 0.6562,-0.25 0.2657,-0.2343 0.2657,-0.625 0,-0.0937 -0.0938,-0.2968 Q 55.9531,8.45312 52.5625,3.65625 49.1719,-1.125 44.0938,-1.125 q -3.5157,0 -6.0157,2.42188 -2.4843,2.42187 -2.4843,5.875 0,1.85937 0.7812,3.90622 1.2656,3.2813 2.9062,7.8125 1.6407,4.5469 2.6876,8.6875 1.0468,4.1563 1.0468,7.3281 0,2.7969 -1.1562,4.75 -1.1406,1.9532 -3.875,1.9532 -3.6563,0 -6.7344,-1.625 -3.0781,-1.6094 -5.375,-4.2656 -2.2969,-2.6563 -4.1875,-6.3282 L 14.8906,2.20312 Q 14.5469,0.828125 13.3438,-0.140625 12.1562,-1.125 10.6875,-1.125 q -1.21875,0 -2.09375,0.78125 -0.875,0.78125 -0.875,2.04687" />
            </defs>
            <g
               style="stroke-linecap:butt;stroke-linejoin:round"
               id="g453"
               transform="matrix(0.2,0,0,-0.2,371.8,146.4)">
              <use
                 height="432"
                 width="576"
                 y="0"
                 x="0"
                 style="stroke-linecap:butt;stroke-linejoin:round"
                 id="use455"
                 xlink:href="#STIXGeneral-Regular-20db"
                 transform="translate(44.086924,2.7817192)" />
              <use
                 height="432"
                 width="576"
                 y="0"
                 x="0"
                 style="stroke-linecap:butt;stroke-linejoin:round"
                 id="use457"
                 xlink:href="#Cmmi10-71"
                 transform="translate(0,0.8578125)" />
              <use
                 height="432"
                 width="576"
                 y="0"
                 x="0"
                 style="stroke-linecap:butt;stroke-linejoin:round"
                 id="use459"
                 xlink:href="#Cmr10-30"
                 transform="matrix(0.7,0,0,0.7,44.580078,-24.651562)" />
              <use
                 height="432"
                 width="576"
                 y="0"
                 x="0"
                 style="stroke-linecap:butt;stroke-linejoin:round"
                 id="use461"
                 xlink:href="#Cmmi10-6d"
                 transform="matrix(0.7,0,0,0.7,94.580078,-24.651562)" />
              <use
                 height="432"
                 width="576"
                 y="0"
                 x="0"
                 style="stroke-linecap:butt;stroke-linejoin:round"
                 id="use463"
                 xlink:href="#Cmmi10-69"
                 transform="matrix(0.7,0,0,0.7,156.03516,-24.651562)" />
              <use
                 height="432"
                 width="576"
                 y="0"
                 x="0"
                 style="stroke-linecap:butt;stroke-linejoin:round"
                 id="use465"
                 xlink:href="#Cmmi10-6e"
                 transform="matrix(0.7,0,0,0.7,180.13184,-24.651562)" />
              <use
                 height="432"
                 width="576"
                 y="0"
                 x="0"
                 style="stroke-linecap:butt;stroke-linejoin:round"
                 id="use467"
                 xlink:href="#Cmr10-28"
                 transform="translate(222.13867,0.8578125)" />
              <use
                 height="432"
                 width="576"
                 y="0"
                 x="0"
                 style="stroke-linecap:butt;stroke-linejoin:round"
                 id="use469"
                 xlink:href="#Cmmi10-72"
                 transform="translate(260.95703,0.8578125)" />
              <use
                 height="432"
                 width="576"
                 y="0"
                 x="0"
                 style="stroke-linecap:butt;stroke-linejoin:round"
                 id="use471"
                 xlink:href="#Cmmi10-61"
                 transform="translate(306.07422,0.8578125)" />
              <use
                 height="432"
                 width="576"
                 y="0"
                 x="0"
                 style="stroke-linecap:butt;stroke-linejoin:round"
                 id="use473"
                 xlink:href="#Cmmi10-64"
                 transform="translate(358.85742,0.8578125)" />
              <use
                 height="432"
                 width="576"
                 y="0"
                 x="0"
                 style="stroke-linecap:butt;stroke-linejoin:round"
                 id="use475"
                 xlink:href="#Cmmi10-3a"
                 transform="translate(410.85937,0.8578125)" />
              <use
                 height="432"
                 width="576"
                 y="0"
                 x="0"
                 style="stroke-linecap:butt;stroke-linejoin:round"
                 id="use477"
                 xlink:href="#Cmmi10-73"
                 transform="translate(439.40234,0.8578125)" />
              <use
                 height="432"
                 width="576"
                 y="0"
                 x="0"
                 style="stroke-linecap:butt;stroke-linejoin:round"
                 id="use479"
                 xlink:href="#Cmsy10-a1"
                 transform="matrix(0.7,0,0,0.7,486.17969,43.373438)" />
              <use
                 height="432"
                 width="576"
                 y="0"
                 x="0"
                 style="stroke-linecap:butt;stroke-linejoin:round"
                 id="use481"
                 xlink:href="#Cmr10-33"
                 transform="matrix(0.7,0,0,0.7,540.55957,43.373438)" />
              <use
                 height="432"
                 width="576"
                 y="0"
                 x="0"
                 style="stroke-linecap:butt;stroke-linejoin:round"
                 id="use483"
                 xlink:href="#Cmr10-29"
                 transform="translate(592.56582,0.8578125)" />
            </g>
          </g>
        </g>
      </g>
    </g>
  </g>
  <defs
     id="defs485">
    <clipPath
       id="p7ff5b81e1d">
      <rect
         height="345.6"
         width="446.4"
         x="72.0"
         y="43.2"
         id="rect488" />
    </clipPath>
  </defs>
</svg>
