<?xml version="1.0" encoding="UTF-8" standalone="no"?>
<!-- Created with Inkscape (http://www.inkscape.org/) -->

<svg
   xmlns:dc="http://purl.org/dc/elements/1.1/"
   xmlns:cc="http://creativecommons.org/ns#"
   xmlns:rdf="http://www.w3.org/1999/02/22-rdf-syntax-ns#"
   xmlns:svg="http://www.w3.org/2000/svg"
   xmlns="http://www.w3.org/2000/svg"
   xmlns:sodipodi="http://sodipodi.sourceforge.net/DTD/sodipodi-0.dtd"
   xmlns:inkscape="http://www.inkscape.org/namespaces/inkscape"
   id="svg2"
   version="1.1"
   inkscape:version="0.48.3.1 r9886"
   width="720"
   height="540"
   xml:space="preserve"
   sodipodi:docname="Ec_sum_Ep1.pdf"><metadata
     id="metadata8"><rdf:RDF><cc:Work
         rdf:about=""><dc:format>image/svg+xml</dc:format><dc:type
           rdf:resource="http://purl.org/dc/dcmitype/StillImage" /><dc:title></dc:title></cc:Work></rdf:RDF></metadata><defs
     id="defs6"><clipPath
       clipPathUnits="userSpaceOnUse"
       id="clipPath20"><path
         d="m 72,43.2 446.4,0 0,345.6 -446.4,0 0,-345.6 z"
         id="path22" /></clipPath><clipPath
       clipPathUnits="userSpaceOnUse"
       id="clipPath30"><path
         d="m 72,43.2 446.4,0 0,345.6 -446.4,0 0,-345.6 z"
         id="path32" /></clipPath><clipPath
       clipPathUnits="userSpaceOnUse"
       id="clipPath40"><path
         d="m 72,43.2 446.4,0 0,345.6 -446.4,0 0,-345.6 z"
         id="path42" /></clipPath><clipPath
       clipPathUnits="userSpaceOnUse"
       id="clipPath60"><path
         d="m 72,43.2 446.4,0 0,345.6 -446.4,0 0,-345.6 z"
         id="path62" /></clipPath><clipPath
       clipPathUnits="userSpaceOnUse"
       id="clipPath80"><path
         d="m 72,43.2 446.4,0 0,345.6 -446.4,0 0,-345.6 z"
         id="path82" /></clipPath><clipPath
       clipPathUnits="userSpaceOnUse"
       id="clipPath100"><path
         d="m 72,43.2 446.4,0 0,345.6 -446.4,0 0,-345.6 z"
         id="path102" /></clipPath><clipPath
       clipPathUnits="userSpaceOnUse"
       id="clipPath120"><path
         d="m 72,43.2 446.4,0 0,345.6 -446.4,0 0,-345.6 z"
         id="path122" /></clipPath><clipPath
       clipPathUnits="userSpaceOnUse"
       id="clipPath140"><path
         d="m 72,43.2 446.4,0 0,345.6 -446.4,0 0,-345.6 z"
         id="path142" /></clipPath><clipPath
       clipPathUnits="userSpaceOnUse"
       id="clipPath160"><path
         d="m 72,43.2 446.4,0 0,345.6 -446.4,0 0,-345.6 z"
         id="path162" /></clipPath><clipPath
       clipPathUnits="userSpaceOnUse"
       id="clipPath180"><path
         d="m 72,43.2 446.4,0 0,345.6 -446.4,0 0,-345.6 z"
         id="path182" /></clipPath><clipPath
       clipPathUnits="userSpaceOnUse"
       id="clipPath200"><path
         d="m 72,43.2 446.4,0 0,345.6 -446.4,0 0,-345.6 z"
         id="path202" /></clipPath><clipPath
       clipPathUnits="userSpaceOnUse"
       id="clipPath238"><path
         d="m 72,43.2 446.4,0 0,345.6 -446.4,0 0,-345.6 z"
         id="path240" /></clipPath><clipPath
       clipPathUnits="userSpaceOnUse"
       id="clipPath262"><path
         d="m -184,-236 1472,0 0,1165 -1472,0 0,-1165 z"
         id="path264" /></clipPath><clipPath
       clipPathUnits="userSpaceOnUse"
       id="clipPath272"><path
         d="m 72,43.2 446.4,0 0,345.6 -446.4,0 0,-345.6 z"
         id="path274" /></clipPath><clipPath
       clipPathUnits="userSpaceOnUse"
       id="clipPath296"><path
         d="m -184,-236 1472,0 0,1165 -1472,0 0,-1165 z"
         id="path298" /></clipPath><clipPath
       clipPathUnits="userSpaceOnUse"
       id="clipPath306"><path
         d="m 72,43.2 446.4,0 0,345.6 -446.4,0 0,-345.6 z"
         id="path308" /></clipPath><clipPath
       clipPathUnits="userSpaceOnUse"
       id="clipPath326"><path
         d="m 72,43.2 446.4,0 0,345.6 -446.4,0 0,-345.6 z"
         id="path328" /></clipPath><clipPath
       clipPathUnits="userSpaceOnUse"
       id="clipPath346"><path
         d="m 72,43.2 446.4,0 0,345.6 -446.4,0 0,-345.6 z"
         id="path348" /></clipPath><clipPath
       clipPathUnits="userSpaceOnUse"
       id="clipPath366"><path
         d="m 72,43.2 446.4,0 0,345.6 -446.4,0 0,-345.6 z"
         id="path368" /></clipPath><clipPath
       clipPathUnits="userSpaceOnUse"
       id="clipPath394"><path
         d="m -184,-236 1472,0 0,1165 -1472,0 0,-1165 z"
         id="path396" /></clipPath></defs><sodipodi:namedview
     pagecolor="#ffffff"
     bordercolor="#666666"
     borderopacity="1"
     objecttolerance="10"
     gridtolerance="10"
     guidetolerance="10"
     inkscape:pageopacity="0"
     inkscape:pageshadow="2"
     inkscape:window-width="1535"
     inkscape:window-height="876"
     id="namedview4"
     showgrid="false"
     inkscape:zoom="1"
     inkscape:cx="571.77263"
     inkscape:cy="278.94847"
     inkscape:window-x="65"
     inkscape:window-y="24"
     inkscape:window-maximized="1"
     inkscape:current-layer="g372" /><g
     id="g10"
     inkscape:groupmode="layer"
     inkscape:label="Ec_sum_Ep1"
     transform="matrix(1.25,0,0,-1.25,0,540)"><path
       d="M -0.28284271,0 575.71716,0 l 0,432 -576.00000271,0 0,-432 z"
       style="fill:#ffffff;fill-opacity:1;fill-rule:nonzero;stroke:none"
       id="path12"
       inkscape:connector-curvature="0" /><path
       d="m 72,43.2 446.4,0 0,345.6 -446.4,0 0,-345.6 z"
       style="fill:#ffffff;fill-opacity:1;fill-rule:nonzero;stroke:none"
       id="path14" /><g
       id="g16"><g
         id="g18"
         clip-path="url(#clipPath20)"><path
           d="m 72,181.44 72.60659,-0.10722 1.86444,-0.27327 1.54482,-0.44576 1.54482,-0.68179 1.7579,-1.03787 5.22043,-3.28253 1.2252,-0.40639 1.11866,-0.14978 1.11867,0.0753 1.17193,0.3128 1.27847,0.57826 1.65136,1.00735 4.52793,2.90228 1.59809,0.67976 1.54482,0.41829 1.7579,0.24007 2.50367,0.0932 13.05108,0.006 39.73919,0.10904 1.91771,0.25968 1.49155,0.42405 1.27847,0.59982 1.17193,0.80541 1.11867,1.05134 1.11866,1.37803 1.11866,1.75209 1.11867,2.16833 1.17193,2.75585 1.27847,3.60443 1.33174,4.43716 1.49156,5.79001 1.65136,7.36329 2.07751,10.40142 2.8233,15.44693 5.22043,29.08259 1.7579,8.39048 1.43828,5.85169 1.2252,4.10228 1.0654,2.81836 0.90558,1.80231 0.79905,1.11421 0.6925,0.5934 0.58597,0.22775 0.53269,-0.0121 0.5327,-0.22153 0.58597,-0.48384 0.6925,-0.89199 0.74578,-1.33955 0.37289,-1.02194 3.30272,-13.99403 1.38501,-4.79624 1.33174,-4.50973 0.95886,-4.47587 1.49155,-8.18864 6.71198,-38.23332 1.59809,-7.21388 1.54482,-5.9635 1.43828,-4.6976 1.38501,-3.77931 1.33175,-2.98968 1.27847,-2.32762 1.2252,-1.78561 1.2252,-1.40721 1.22521,-1.07969 1.27847,-0.8372 1.38501,-0.63927 1.54482,-0.46199 1.81117,-0.30333 2.39714,-0.16082 5.48678,-0.0537 10.76047,0.005 26.31523,0.0204 47.14368,-0.10971 1.91771,-0.26161 1.43828,-0.40824 1.27847,-0.59578 1.17193,-0.8027 1.11867,-1.0505 1.06539,-1.3058 1.11866,-1.73778 1.11867,-2.15555 1.33174,-3.09339 1.2252,-3.44546 1.33174,-4.44158 1.43829,-5.59316 1.59809,-7.12752 1.86444,-9.38501 2.34386,-13.04052 6.76525,-38.46459 1.65136,-7.701005 1.33175,-5.226854 1.17193,-3.737319 0.42616,-1.061683 0.0533,0.02558 1.38501,0.803174 1.27847,0.63625 0.90558,0.217382 0.85232,-0.02212 0.85231,-0.249178 0.95886,-0.53015 1.33174,-0.812852 0.31962,0.248487 0.37289,0.596505 0.53269,1.330215 0.69251,2.389478 0.95885,4.190055 1.38502,7.177766 2.29059,13.249962 5.16716,30.12387 2.55695,13.31563 1.59809,6.90177 1.49155,5.56986 1.43828,4.53019 1.38501,3.63737 1.33175,2.88037 1.27847,2.24271 1.2252,1.72012 1.2252,1.35343 1.27848,1.07921 1.33174,0.82481 1.38501,0.59892 1.59809,0.44223 1.91771,0.28512 2.55695,0.13455 9.26892,0.0635 39.73919,-0.0502 0,0"
           style="fill:none;stroke:#0000ff;stroke-opacity:1;stroke-width:2;stroke-linecap:butt;stroke-linejoin:round;stroke-miterlimit:10;stroke-dasharray:6,6;stroke-dashoffset:0"
           id="path24" /></g></g><g
       id="g26"><g
         id="g28"
         clip-path="url(#clipPath30)"><path
           d="m 72,181.44 72.60659,0.1073 1.86444,0.27269 1.54482,0.44401 1.54482,0.6781 1.7579,1.03075 5.16716,3.22844 1.27847,0.42284 1.11866,0.14533 1.11867,-0.0788 1.17193,-0.31546 1.27847,-0.5804 1.65136,-1.00953 4.52793,-2.90678 1.59809,-0.68061 1.54482,-0.41863 1.7579,-0.24011 2.50367,-0.0931 13.10435,-0.006 39.68592,0.11011 1.91771,0.26076 1.49155,0.42534 1.27847,0.60123 1.17193,0.80681 1.11867,1.05256 1.11866,1.37879 1.11866,1.75192 1.17194,2.28092 1.17193,2.77541 1.27847,3.62414 1.33174,4.45527 1.49156,5.80763 1.65136,7.38281 2.02424,10.15902 2.55695,14.12052 7.45776,42.64497 1.49155,6.69669 1.2252,4.51526 1.01212,2.94037 0.85232,1.86831 0.74577,1.15327 0.63924,0.62035 0.58597,0.26542 0.53269,-0.0118 0.5327,-0.25263 0.58597,-0.55365 0.63923,-0.92898 0.74578,-1.50094 0.31962,-0.98599 3.94195,-17.79322 2.66349,-10.88778 1.33174,-7.59422 7.19141,-42.75787 1.54482,-7.15126 1.54482,-6.11664 1.43828,-4.8168 1.38502,-3.87939 1.33174,-3.07501 1.27847,-2.4003 1.2252,-1.84681 1.22521,-1.46009 1.2252,-1.12449 1.27847,-0.87527 1.38501,-0.67121 1.49155,-0.47455 1.7579,-0.3223 2.2906,-0.17908 3.67561,-0.0309 14.00993,0.009 27.75351,-0.016 44.58673,0.10763 1.91771,0.25705 1.49155,0.42199 1.27847,0.59903 1.17193,0.80627 1.11867,1.05412 1.06539,1.30899 1.11866,1.7402 1.11867,2.15602 1.33174,3.08873 1.2252,3.44439 1.33174,4.44117 1.43829,5.59979 1.59809,7.15548 1.81117,9.184 2.18405,12.30924 3.5158,21.34598 2.92984,17.2413 1.7579,9.0758 1.38501,6.05387 1.17193,4.17796 0.74578,2.07015 0.95885,-0.51771 2.61022,-1.54484 1.06539,-0.31518 1.06539,-0.0785 1.22521,0.14446 0.53269,0.0142 0.31962,-0.33005 0.42616,-0.85294 0.5327,-1.61568 0.74577,-3.04889 1.01213,-5.1522 1.54482,-9.13836 8.09699,-49.70868 1.54482,-8.02704 1.54482,-6.89255 1.59809,-6.14248 1.43828,-4.64421 1.38502,-3.73431 1.33174,-2.96522 1.27847,-2.31693 1.2252,-1.78389 1.22521,-1.40942 1.27847,-1.12911 1.27847,-0.8382 1.38501,-0.64348 1.54482,-0.46789 1.81117,-0.30936 2.34387,-0.16281 3.94196,-0.0157 11.98568,0.0119 24.13117,-0.0241 9.58854,0 0,0"
           style="fill:none;stroke:#0000ff;stroke-opacity:1;stroke-width:2;stroke-linecap:square;stroke-linejoin:round;stroke-miterlimit:10;stroke-dasharray:none"
           id="path34" /></g></g><g
       id="g36"><g
         id="g38"
         clip-path="url(#clipPath40)"><path
           d="m 72,43.2 0,345.6"
           style="fill:none;stroke:#000000;stroke-opacity:1;stroke-width:0.5;stroke-linecap:butt;stroke-linejoin:round;stroke-miterlimit:10;stroke-dasharray:1,3;stroke-dashoffset:0"
           id="path44" /></g></g><g
       id="g46"><path
         d="m 72,43.2 0,4"
         style="fill:#000000;fill-opacity:1;fill-rule:nonzero;stroke:#000000;stroke-opacity:1;stroke-width:0.5;stroke-linecap:butt;stroke-linejoin:round;stroke-miterlimit:10;stroke-dasharray:none"
         id="path48" /><path
         d="m 72,388.8 0,-4"
         style="fill:#000000;fill-opacity:1;fill-rule:nonzero;stroke:#000000;stroke-opacity:1;stroke-width:0.5;stroke-linecap:butt;stroke-linejoin:round;stroke-miterlimit:10;stroke-dasharray:none"
         id="path50" /><text
         transform="matrix(1,0,0,-1,68.976562,30.075)"
         id="text52"><tspan
           style="fill:#000000;fill-opacity:1;fill-rule:nonzero;stroke:none;font-family:Bitstream Charter;font-variant:normal;font-weight:normal;font-size:12;writing-mode:lr;-inkscape-font-specification:BitstreamVeraSans-Roman"
           x="0"
           y="0"
           id="tspan54">0</tspan></text>
</g><g
       id="g56"><g
         id="g58"
         clip-path="url(#clipPath60)"><path
           d="m 125.26969,43.2 0,345.6"
           style="fill:none;stroke:#000000;stroke-opacity:1;stroke-width:0.5;stroke-linecap:butt;stroke-linejoin:round;stroke-miterlimit:10;stroke-dasharray:1,3;stroke-dashoffset:0"
           id="path64" /></g></g><g
       id="g66"><path
         d="m 125.26969,43.2 0,4"
         style="fill:#000000;fill-opacity:1;fill-rule:nonzero;stroke:#000000;stroke-opacity:1;stroke-width:0.5;stroke-linecap:butt;stroke-linejoin:round;stroke-miterlimit:10;stroke-dasharray:none"
         id="path68" /><path
         d="m 125.26969,388.8 0,-4"
         style="fill:#000000;fill-opacity:1;fill-rule:nonzero;stroke:#000000;stroke-opacity:1;stroke-width:0.5;stroke-linecap:butt;stroke-linejoin:round;stroke-miterlimit:10;stroke-dasharray:none"
         id="path70" /><text
         transform="matrix(1,0,0,-1,122.66031,30.075)"
         id="text72"><tspan
           style="fill:#000000;fill-opacity:1;fill-rule:nonzero;stroke:none;font-family:Bitstream Charter;font-variant:normal;font-weight:normal;font-size:12;writing-mode:lr;-inkscape-font-specification:BitstreamVeraSans-Roman"
           x="0"
           y="0"
           id="tspan74">1</tspan></text>
</g><g
       id="g76"><g
         id="g78"
         clip-path="url(#clipPath80)"><path
           d="m 178.53938,43.2 0,345.6"
           style="fill:none;stroke:#000000;stroke-opacity:1;stroke-width:0.5;stroke-linecap:butt;stroke-linejoin:round;stroke-miterlimit:10;stroke-dasharray:1,3;stroke-dashoffset:0"
           id="path84" /></g></g><g
       id="g86"><path
         d="m 178.53938,43.2 0,4"
         style="fill:#000000;fill-opacity:1;fill-rule:nonzero;stroke:#000000;stroke-opacity:1;stroke-width:0.5;stroke-linecap:butt;stroke-linejoin:round;stroke-miterlimit:10;stroke-dasharray:none"
         id="path88" /><path
         d="m 178.53938,388.8 0,-4"
         style="fill:#000000;fill-opacity:1;fill-rule:nonzero;stroke:#000000;stroke-opacity:1;stroke-width:0.5;stroke-linecap:butt;stroke-linejoin:round;stroke-miterlimit:10;stroke-dasharray:none"
         id="path90" /><text
         transform="matrix(1,0,0,-1,175.75813,30.075)"
         id="text92"><tspan
           style="fill:#000000;fill-opacity:1;fill-rule:nonzero;stroke:none;font-family:Bitstream Charter;font-variant:normal;font-weight:normal;font-size:12;writing-mode:lr;-inkscape-font-specification:BitstreamVeraSans-Roman"
           x="0"
           y="0"
           id="tspan94">2</tspan></text>
</g><g
       id="g96"><g
         id="g98"
         clip-path="url(#clipPath100)"><path
           d="m 231.80907,43.2 0,345.6"
           style="fill:none;stroke:#000000;stroke-opacity:1;stroke-width:0.5;stroke-linecap:butt;stroke-linejoin:round;stroke-miterlimit:10;stroke-dasharray:1,3;stroke-dashoffset:0"
           id="path104" /></g></g><g
       id="g106"><path
         d="m 231.80907,43.2 0,4"
         style="fill:#000000;fill-opacity:1;fill-rule:nonzero;stroke:#000000;stroke-opacity:1;stroke-width:0.5;stroke-linecap:butt;stroke-linejoin:round;stroke-miterlimit:10;stroke-dasharray:none"
         id="path108" /><path
         d="m 231.80907,388.8 0,-4"
         style="fill:#000000;fill-opacity:1;fill-rule:nonzero;stroke:#000000;stroke-opacity:1;stroke-width:0.5;stroke-linecap:butt;stroke-linejoin:round;stroke-miterlimit:10;stroke-dasharray:none"
         id="path110" /><text
         transform="matrix(1,0,0,-1,228.93407,30.075)"
         id="text112"><tspan
           style="fill:#000000;fill-opacity:1;fill-rule:nonzero;stroke:none;font-family:Bitstream Charter;font-variant:normal;font-weight:normal;font-size:12;writing-mode:lr;-inkscape-font-specification:BitstreamVeraSans-Roman"
           x="0"
           y="0"
           id="tspan114">3</tspan></text>
</g><g
       id="g116"><g
         id="g118"
         clip-path="url(#clipPath120)"><path
           d="m 285.07876,43.2 0,345.6"
           style="fill:none;stroke:#000000;stroke-opacity:1;stroke-width:0.5;stroke-linecap:butt;stroke-linejoin:round;stroke-miterlimit:10;stroke-dasharray:1,3;stroke-dashoffset:0"
           id="path124" /></g></g><g
       id="g126"><path
         d="m 285.07876,43.2 0,4"
         style="fill:#000000;fill-opacity:1;fill-rule:nonzero;stroke:#000000;stroke-opacity:1;stroke-width:0.5;stroke-linecap:butt;stroke-linejoin:round;stroke-miterlimit:10;stroke-dasharray:none"
         id="path128" /><path
         d="m 285.07876,388.8 0,-4"
         style="fill:#000000;fill-opacity:1;fill-rule:nonzero;stroke:#000000;stroke-opacity:1;stroke-width:0.5;stroke-linecap:butt;stroke-linejoin:round;stroke-miterlimit:10;stroke-dasharray:none"
         id="path130" /><text
         transform="matrix(1,0,0,-1,281.89126,30.075)"
         id="text132"><tspan
           style="fill:#000000;fill-opacity:1;fill-rule:nonzero;stroke:none;font-family:Bitstream Charter;font-variant:normal;font-weight:normal;font-size:12;writing-mode:lr;-inkscape-font-specification:BitstreamVeraSans-Roman"
           x="0"
           y="0"
           id="tspan134">4</tspan></text>
</g><g
       id="g136"><g
         id="g138"
         clip-path="url(#clipPath140)"><path
           d="m 338.34845,43.2 0,345.6"
           style="fill:none;stroke:#000000;stroke-opacity:1;stroke-width:0.5;stroke-linecap:butt;stroke-linejoin:round;stroke-miterlimit:10;stroke-dasharray:1,3;stroke-dashoffset:0"
           id="path144" /></g></g><g
       id="g146"><path
         d="m 338.34845,43.2 0,4"
         style="fill:#000000;fill-opacity:1;fill-rule:nonzero;stroke:#000000;stroke-opacity:1;stroke-width:0.5;stroke-linecap:butt;stroke-linejoin:round;stroke-miterlimit:10;stroke-dasharray:none"
         id="path148" /><path
         d="m 338.34845,388.8 0,-4"
         style="fill:#000000;fill-opacity:1;fill-rule:nonzero;stroke:#000000;stroke-opacity:1;stroke-width:0.5;stroke-linecap:butt;stroke-linejoin:round;stroke-miterlimit:10;stroke-dasharray:none"
         id="path150" /><text
         transform="matrix(1,0,0,-1,335.51251,30.075)"
         id="text152"><tspan
           style="fill:#000000;fill-opacity:1;fill-rule:nonzero;stroke:none;font-family:Bitstream Charter;font-variant:normal;font-weight:normal;font-size:12;writing-mode:lr;-inkscape-font-specification:BitstreamVeraSans-Roman"
           x="0"
           y="0"
           id="tspan154">5</tspan></text>
</g><g
       id="g156"><g
         id="g158"
         clip-path="url(#clipPath160)"><path
           d="m 391.61814,43.2 0,345.6"
           style="fill:none;stroke:#000000;stroke-opacity:1;stroke-width:0.5;stroke-linecap:butt;stroke-linejoin:round;stroke-miterlimit:10;stroke-dasharray:1,3;stroke-dashoffset:0"
           id="path164" /></g></g><g
       id="g166"><path
         d="m 391.61814,43.2 0,4"
         style="fill:#000000;fill-opacity:1;fill-rule:nonzero;stroke:#000000;stroke-opacity:1;stroke-width:0.5;stroke-linecap:butt;stroke-linejoin:round;stroke-miterlimit:10;stroke-dasharray:none"
         id="path168" /><path
         d="m 391.61814,388.8 0,-4"
         style="fill:#000000;fill-opacity:1;fill-rule:nonzero;stroke:#000000;stroke-opacity:1;stroke-width:0.5;stroke-linecap:butt;stroke-linejoin:round;stroke-miterlimit:10;stroke-dasharray:none"
         id="path170" /><text
         transform="matrix(1,0,0,-1,388.60251,30.075)"
         id="text172"><tspan
           style="fill:#000000;fill-opacity:1;fill-rule:nonzero;stroke:none;font-family:Bitstream Charter;font-variant:normal;font-weight:normal;font-size:12;writing-mode:lr;-inkscape-font-specification:BitstreamVeraSans-Roman"
           x="0"
           y="0"
           id="tspan174">6</tspan></text>
</g><g
       id="g176"><g
         id="g178"
         clip-path="url(#clipPath180)"><path
           d="m 444.88783,43.2 0,345.6"
           style="fill:none;stroke:#000000;stroke-opacity:1;stroke-width:0.5;stroke-linecap:butt;stroke-linejoin:round;stroke-miterlimit:10;stroke-dasharray:1,3;stroke-dashoffset:0"
           id="path184" /></g></g><g
       id="g186"><path
         d="m 444.88783,43.2 0,4"
         style="fill:#000000;fill-opacity:1;fill-rule:nonzero;stroke:#000000;stroke-opacity:1;stroke-width:0.5;stroke-linecap:butt;stroke-linejoin:round;stroke-miterlimit:10;stroke-dasharray:none"
         id="path188" /><path
         d="m 444.88783,388.8 0,-4"
         style="fill:#000000;fill-opacity:1;fill-rule:nonzero;stroke:#000000;stroke-opacity:1;stroke-width:0.5;stroke-linecap:butt;stroke-linejoin:round;stroke-miterlimit:10;stroke-dasharray:none"
         id="path190" /><text
         transform="matrix(1,0,0,-1,442.07533,30.075)"
         id="text192"><tspan
           style="fill:#000000;fill-opacity:1;fill-rule:nonzero;stroke:none;font-family:Bitstream Charter;font-variant:normal;font-weight:normal;font-size:12;writing-mode:lr;-inkscape-font-specification:BitstreamVeraSans-Roman"
           x="0"
           y="0"
           id="tspan194">7</tspan></text>
</g><g
       id="g196"><g
         id="g198"
         clip-path="url(#clipPath200)"><path
           d="m 498.15752,43.2 0,345.6"
           style="fill:none;stroke:#000000;stroke-opacity:1;stroke-width:0.5;stroke-linecap:butt;stroke-linejoin:round;stroke-miterlimit:10;stroke-dasharray:1,3;stroke-dashoffset:0"
           id="path204" /></g></g><g
       id="g206"><path
         d="m 498.15752,43.2 0,4"
         style="fill:#000000;fill-opacity:1;fill-rule:nonzero;stroke:#000000;stroke-opacity:1;stroke-width:0.5;stroke-linecap:butt;stroke-linejoin:round;stroke-miterlimit:10;stroke-dasharray:none"
         id="path208" /><path
         d="m 498.15752,388.8 0,-4"
         style="fill:#000000;fill-opacity:1;fill-rule:nonzero;stroke:#000000;stroke-opacity:1;stroke-width:0.5;stroke-linecap:butt;stroke-linejoin:round;stroke-miterlimit:10;stroke-dasharray:none"
         id="path210" /><text
         transform="matrix(1,0,0,-1,495.15752,30.075)"
         id="text212"><tspan
           style="fill:#000000;fill-opacity:1;fill-rule:nonzero;stroke:none;font-family:Bitstream Charter;font-variant:normal;font-weight:normal;font-size:12;writing-mode:lr;-inkscape-font-specification:BitstreamVeraSans-Roman"
           x="0"
           y="0"
           id="tspan214">8</tspan></text>
<g
         id="g216"
         transform="translate(262.2,7.575)"><text
           transform="scale(1,-1)"
           id="text218"><tspan
             style="fill:#000000;fill-opacity:1;fill-rule:nonzero;stroke:none;font-family:Cmmi10;font-variant:normal;font-weight:normal;font-size:20;writing-mode:lr;-inkscape-font-specification:Cmmi10"
             x="0 7.21679688 14.1015625 31.66015625"
             y="0"
             sodipodi:role="line"
             id="tspan220">time</tspan></text>
<text
           transform="matrix(1,0,0,-1,40.957031,0)"
           id="text222"><tspan
             style="fill:#000000;fill-opacity:1;fill-rule:nonzero;stroke:none;font-family:Cmr10;font-variant:normal;font-weight:normal;font-size:20;writing-mode:lr;-inkscape-font-specification:Cmr10"
             x="0"
             y="0"
             id="tspan224">(</tspan></text>
<text
           transform="matrix(1,0,0,-1,48.720703,0)"
           id="text226"><tspan
             style="fill:#000000;fill-opacity:1;fill-rule:nonzero;stroke:none;font-family:Cmmi10;font-variant:normal;font-weight:normal;font-size:20;writing-mode:lr;-inkscape-font-specification:Cmmi10"
             x="0"
             y="0"
             id="tspan228">s</tspan></text>
<text
           transform="matrix(1,0,0,-1,58.076172,0)"
           id="text230"><tspan
             style="fill:#000000;fill-opacity:1;fill-rule:nonzero;stroke:none;font-family:Cmr10;font-variant:normal;font-weight:normal;font-size:20;writing-mode:lr;-inkscape-font-specification:Cmr10"
             x="0"
             y="0"
             id="tspan232">)</tspan></text>
</g></g><g
       id="g234"><g
         id="g236"
         clip-path="url(#clipPath238)"><path
           d="m 72,43.2 446.4,0"
           style="fill:none;stroke:#000000;stroke-opacity:1;stroke-width:0.5;stroke-linecap:butt;stroke-linejoin:round;stroke-miterlimit:10;stroke-dasharray:1,3;stroke-dashoffset:0"
           id="path242" /></g></g><g
       id="g244"><path
         d="m 72,43.2 4,0"
         style="fill:#000000;fill-opacity:1;fill-rule:nonzero;stroke:#000000;stroke-opacity:1;stroke-width:0.5;stroke-linecap:butt;stroke-linejoin:round;stroke-miterlimit:10;stroke-dasharray:none"
         id="path246" /><path
         d="m 518.4,43.2 -4,0"
         style="fill:#000000;fill-opacity:1;fill-rule:nonzero;stroke:#000000;stroke-opacity:1;stroke-width:0.5;stroke-linecap:butt;stroke-linejoin:round;stroke-miterlimit:10;stroke-dasharray:none"
         id="path248" /><g
         id="g250"
         transform="translate(52.234375,39.8875)"><text
           transform="matrix(1,0,0,-1,10.054688,0)"
           id="text252"><tspan
             style="fill:#000000;fill-opacity:1;fill-rule:nonzero;stroke:none;font-family:Bitstream Charter;font-variant:normal;font-weight:normal;font-size:12;writing-mode:lr;-inkscape-font-specification:BitstreamVeraSans-Roman"
             x="0"
             y="0"
             id="tspan254">4</tspan></text>
<g
           id="g256"
           transform="scale(0.012,0.012)"><g
             id="g258"><g
               id="g260"
               clip-path="url(#clipPath262)"><path
                 d="m 106,355 626,0 0,-83 -626,0 0,83"
                 style="fill:#000000;fill-opacity:1;fill-rule:nonzero;stroke:none"
                 id="path266" /></g></g></g></g></g><g
       id="g268"><g
         id="g270"
         clip-path="url(#clipPath272)"><path
           d="m 72,112.32 446.4,0"
           style="fill:none;stroke:#000000;stroke-opacity:1;stroke-width:0.5;stroke-linecap:butt;stroke-linejoin:round;stroke-miterlimit:10;stroke-dasharray:1,3;stroke-dashoffset:0"
           id="path276" /></g></g><g
       id="g278"><path
         d="m 72,112.32 4,0"
         style="fill:#000000;fill-opacity:1;fill-rule:nonzero;stroke:#000000;stroke-opacity:1;stroke-width:0.5;stroke-linecap:butt;stroke-linejoin:round;stroke-miterlimit:10;stroke-dasharray:none"
         id="path280" /><path
         d="m 518.4,112.32 -4,0"
         style="fill:#000000;fill-opacity:1;fill-rule:nonzero;stroke:#000000;stroke-opacity:1;stroke-width:0.5;stroke-linecap:butt;stroke-linejoin:round;stroke-miterlimit:10;stroke-dasharray:none"
         id="path282" /><g
         id="g284"
         transform="translate(52.765625,109.0075)"><text
           transform="matrix(1,0,0,-1,10.054688,0)"
           id="text286"><tspan
             style="fill:#000000;fill-opacity:1;fill-rule:nonzero;stroke:none;font-family:Bitstream Charter;font-variant:normal;font-weight:normal;font-size:12;writing-mode:lr;-inkscape-font-specification:BitstreamVeraSans-Roman"
             x="0"
             y="0"
             id="tspan288">2</tspan></text>
<g
           id="g290"
           transform="scale(0.012,0.012)"><g
             id="g292"><g
               id="g294"
               clip-path="url(#clipPath296)"><path
                 d="m 106,355 626,0 0,-83 -626,0 0,83"
                 style="fill:#000000;fill-opacity:1;fill-rule:nonzero;stroke:none"
                 id="path300" /></g></g></g></g></g><g
       id="g302"><g
         id="g304"
         clip-path="url(#clipPath306)"><path
           d="m 72,181.44 446.4,0"
           style="fill:none;stroke:#000000;stroke-opacity:1;stroke-width:0.5;stroke-linecap:butt;stroke-linejoin:round;stroke-miterlimit:10;stroke-dasharray:1,3;stroke-dashoffset:0"
           id="path310" /></g></g><g
       id="g312"><path
         d="m 72,181.44 4,0"
         style="fill:#000000;fill-opacity:1;fill-rule:nonzero;stroke:#000000;stroke-opacity:1;stroke-width:0.5;stroke-linecap:butt;stroke-linejoin:round;stroke-miterlimit:10;stroke-dasharray:none"
         id="path314" /><path
         d="m 518.4,181.44 -4,0"
         style="fill:#000000;fill-opacity:1;fill-rule:nonzero;stroke:#000000;stroke-opacity:1;stroke-width:0.5;stroke-linecap:butt;stroke-linejoin:round;stroke-miterlimit:10;stroke-dasharray:none"
         id="path316" /><text
         transform="matrix(1,0,0,-1,61.953125,178.1275)"
         id="text318"><tspan
           style="fill:#000000;fill-opacity:1;fill-rule:nonzero;stroke:none;font-family:Bitstream Charter;font-variant:normal;font-weight:normal;font-size:12;writing-mode:lr;-inkscape-font-specification:BitstreamVeraSans-Roman"
           x="0"
           y="0"
           id="tspan320">0</tspan></text>
</g><g
       id="g322"><g
         id="g324"
         clip-path="url(#clipPath326)"><path
           d="m 72,250.56 446.4,0"
           style="fill:none;stroke:#000000;stroke-opacity:1;stroke-width:0.5;stroke-linecap:butt;stroke-linejoin:round;stroke-miterlimit:10;stroke-dasharray:1,3;stroke-dashoffset:0"
           id="path330" /></g></g><g
       id="g332"><path
         d="m 72,250.56 4,0"
         style="fill:#000000;fill-opacity:1;fill-rule:nonzero;stroke:#000000;stroke-opacity:1;stroke-width:0.5;stroke-linecap:butt;stroke-linejoin:round;stroke-miterlimit:10;stroke-dasharray:none"
         id="path334" /><path
         d="m 518.4,250.56 -4,0"
         style="fill:#000000;fill-opacity:1;fill-rule:nonzero;stroke:#000000;stroke-opacity:1;stroke-width:0.5;stroke-linecap:butt;stroke-linejoin:round;stroke-miterlimit:10;stroke-dasharray:none"
         id="path336" /><text
         transform="matrix(1,0,0,-1,62.4375,247.2475)"
         id="text338"><tspan
           style="fill:#000000;fill-opacity:1;fill-rule:nonzero;stroke:none;font-family:Bitstream Charter;font-variant:normal;font-weight:normal;font-size:12;writing-mode:lr;-inkscape-font-specification:BitstreamVeraSans-Roman"
           x="0"
           y="0"
           id="tspan340">2</tspan></text>
</g><g
       id="g342"><g
         id="g344"
         clip-path="url(#clipPath346)"><path
           d="m 72,319.68 446.4,0"
           style="fill:none;stroke:#000000;stroke-opacity:1;stroke-width:0.5;stroke-linecap:butt;stroke-linejoin:round;stroke-miterlimit:10;stroke-dasharray:1,3;stroke-dashoffset:0"
           id="path350" /></g></g><g
       id="g352"><path
         d="m 72,319.68 4,0"
         style="fill:#000000;fill-opacity:1;fill-rule:nonzero;stroke:#000000;stroke-opacity:1;stroke-width:0.5;stroke-linecap:butt;stroke-linejoin:round;stroke-miterlimit:10;stroke-dasharray:none"
         id="path354" /><path
         d="m 518.4,319.68 -4,0"
         style="fill:#000000;fill-opacity:1;fill-rule:nonzero;stroke:#000000;stroke-opacity:1;stroke-width:0.5;stroke-linecap:butt;stroke-linejoin:round;stroke-miterlimit:10;stroke-dasharray:none"
         id="path356" /><text
         transform="matrix(1,0,0,-1,61.625,316.3675)"
         id="text358"><tspan
           style="fill:#000000;fill-opacity:1;fill-rule:nonzero;stroke:none;font-family:Bitstream Charter;font-variant:normal;font-weight:normal;font-size:12;writing-mode:lr;-inkscape-font-specification:BitstreamVeraSans-Roman"
           x="0"
           y="0"
           id="tspan360">4</tspan></text>
</g><g
       id="g362"><g
         id="g364"
         clip-path="url(#clipPath366)"><path
           d="m 72,388.8 446.4,0"
           style="fill:none;stroke:#000000;stroke-opacity:1;stroke-width:0.5;stroke-linecap:butt;stroke-linejoin:round;stroke-miterlimit:10;stroke-dasharray:1,3;stroke-dashoffset:0"
           id="path370" /></g></g><g
       id="g372"><path
         d="m 72,388.8 4,0"
         style="fill:#000000;fill-opacity:1;fill-rule:nonzero;stroke:#000000;stroke-opacity:1;stroke-width:0.5;stroke-linecap:butt;stroke-linejoin:round;stroke-miterlimit:10;stroke-dasharray:none"
         id="path374" /><path
         d="m 518.4,388.8 -4,0"
         style="fill:#000000;fill-opacity:1;fill-rule:nonzero;stroke:#000000;stroke-opacity:1;stroke-width:0.5;stroke-linecap:butt;stroke-linejoin:round;stroke-miterlimit:10;stroke-dasharray:none"
         id="path376" /><text
         transform="matrix(1,0,0,-1,61.96875,385.4875)"
         id="text378"><tspan
           style="fill:#000000;fill-opacity:1;fill-rule:nonzero;stroke:none;font-family:Bitstream Charter;font-variant:normal;font-weight:normal;font-size:12;writing-mode:lr;-inkscape-font-specification:BitstreamVeraSans-Roman"
           x="0"
           y="0"
           id="tspan380">6</tspan></text>
<g
         id="g382"
         transform="translate(72,391.8)"><text
           transform="scale(1,-1)"
           id="text384"><tspan
             style="fill:#000000;fill-opacity:1;fill-rule:nonzero;stroke:none;font-family:Bitstream Charter;font-variant:normal;font-weight:normal;font-size:12;writing-mode:lr;-inkscape-font-specification:BitstreamVeraSans-Roman"
             x="0 7.632 25.07226563"
             y="0"
             sodipodi:role="line"
             id="tspan386">1e1</tspan></text>
<g
           id="g388"
           transform="matrix(0.012,0,0,0.012,15.017578,0)"><g
             id="g390"><g
               id="g392"
               clip-path="url(#clipPath394)"><path
                 d="m 106,355 626,0 0,-83 -626,0 0,83"
                 style="fill:#000000;fill-opacity:1;fill-rule:nonzero;stroke:none"
                 id="path398" /></g></g></g></g><path
         d="m 72,388.8 446.4,0"
         style="fill:none;stroke:#000000;stroke-opacity:1;stroke-width:1;stroke-linecap:butt;stroke-linejoin:round;stroke-miterlimit:10;stroke-dasharray:none"
         id="path400" /><path
         d="m 518.4,43.2 0,345.6"
         style="fill:none;stroke:#000000;stroke-opacity:1;stroke-width:1;stroke-linecap:butt;stroke-linejoin:round;stroke-miterlimit:10;stroke-dasharray:none"
         id="path402" /><path
         d="m 72,43.2 446.4,0"
         style="fill:none;stroke:#000000;stroke-opacity:1;stroke-width:1;stroke-linecap:butt;stroke-linejoin:round;stroke-miterlimit:10;stroke-dasharray:none"
         id="path404" /><path
         d="m 72,43.2 0,345.6"
         style="fill:none;stroke:#000000;stroke-opacity:1;stroke-width:1;stroke-linecap:butt;stroke-linejoin:round;stroke-miterlimit:10;stroke-dasharray:none"
         id="path406" /><path
         d="m 299.4,304.39375 209,0 0,74.40625 -209,0 0,-74.40625 z"
         style="fill:#ffffff;fill-opacity:1;fill-rule:nonzero;stroke:#000000;stroke-opacity:1;stroke-width:1;stroke-linecap:butt;stroke-linejoin:round;stroke-miterlimit:10;stroke-dasharray:none"
         id="path408" /><path
         d="m 313.8,357.99687 28,0"
         style="fill:none;stroke:#0000ff;stroke-width:2;stroke-linecap:butt;stroke-linejoin:round;stroke-miterlimit:10;stroke-opacity:1;stroke-dasharray:6, 6;stroke-dashoffset:0"
         id="path410"
         inkscape:connector-curvature="0" /><g
         id="g412"
         transform="translate(328.6,356.39687)"><text
           transform="matrix(1,0,0,-1,109.88281,0)"
           id="text430"><tspan
             style="font-size:20px;font-variant:normal;font-weight:normal;writing-mode:lr-tb;fill:#000000;fill-opacity:1;fill-rule:nonzero;stroke:none;font-family:Cmr10;-inkscape-font-specification:Cmr10"
             x="0"
             y="0"
             id="tspan432">(</tspan></text>
<text
           transform="matrix(1,0,0,-1,117.64648,0)"
           id="text434"><tspan
             style="font-size:20px;font-variant:normal;font-weight:normal;writing-mode:lr-tb;fill:#000000;fill-opacity:1;fill-rule:nonzero;stroke:none;font-family:Cmmi10;-inkscape-font-specification:Cmmi10"
             x="0"
             y="0"
             id="tspan436">J</tspan></text>
<text
           transform="matrix(1,0,0,-1,128.73047,0)"
           id="text438"><tspan
             style="font-size:20px;font-variant:normal;font-weight:normal;writing-mode:lr-tb;fill:#000000;fill-opacity:1;fill-rule:nonzero;stroke:none;font-family:Cmr10;-inkscape-font-specification:Cmr10"
             x="0"
             y="0"
             id="tspan440">)</tspan></text>
</g><path
         d="m 313.8,318.19375 28,0"
         style="fill:none;stroke:#0000ff;stroke-width:2;stroke-linecap:square;stroke-linejoin:round;stroke-miterlimit:10;stroke-opacity:1;stroke-dasharray:none"
         id="path442"
         inkscape:connector-curvature="0" /><g
         id="g444"
         transform="translate(361.8,311.59375)"><text
           transform="scale(0.9563766,-1.0456132)"
           id="text446"
           x="-4.6370735"
           y="3.0604053"
           style="font-size:16.51667213px"><tspan
             style="font-size:27.52778625px;font-variant:normal;font-weight:normal;writing-mode:lr-tb;fill:#000000;fill-opacity:1;fill-rule:nonzero;stroke:none;font-family:Cmmi10;-inkscape-font-specification:Cmmi10"
             x="-4.6370735"
             y="3.0604053"
             id="tspan448">E</tspan></text>
<text
           transform="matrix(1,0,0,-1,14.755859,-5.101875)"
           id="text450"><tspan
             style="font-size:14px;font-variant:normal;font-weight:normal;writing-mode:lr-tb;fill:#000000;fill-opacity:1;fill-rule:nonzero;stroke:none;font-family:Cmmi10;-inkscape-font-specification:Cmmi10"
             x="0"
             y="0"
             id="tspan452">c</tspan></text>
<text
           transform="scale(1,-1)"
           id="text458"
           x="17.281641"
           y="-15.498125"><tspan
             style="font-size:14px;font-variant:normal;font-weight:normal;writing-mode:lr-tb;fill:#000000;fill-opacity:1;fill-rule:nonzero;stroke:none;font-family:Cmmi10;-inkscape-font-specification:Cmmi10"
             x="17.281641"
             y="-15.498125"
             id="tspan460">x</tspan></text>
<g
           id="g3595"
           transform="translate(42.4,3.6)"><text
             id="text462"
             transform="matrix(1,0,0,-1,32.672852,0)"><tspan
               id="tspan464"
               y="0"
               x="0"
               style="font-size:20px;font-variant:normal;font-weight:normal;writing-mode:lr-tb;fill:#000000;fill-opacity:1;fill-rule:nonzero;stroke:none;font-family:Cmr10;-inkscape-font-specification:Cmr10">(</tspan></text>
<text
             id="text466"
             transform="matrix(1,0,0,-1,40.436523,0)"><tspan
               id="tspan468"
               y="0"
               x="0"
               style="font-size:20px;font-variant:normal;font-weight:normal;writing-mode:lr-tb;fill:#000000;fill-opacity:1;fill-rule:nonzero;stroke:none;font-family:Cmmi10;-inkscape-font-specification:Cmmi10">J</tspan></text>
<text
             id="text470"
             transform="matrix(1,0,0,-1,51.520508,0)"><tspan
               id="tspan472"
               y="0"
               x="0"
               style="font-size:20px;font-variant:normal;font-weight:normal;writing-mode:lr-tb;fill:#000000;fill-opacity:1;fill-rule:nonzero;stroke:none;font-family:Cmr10;-inkscape-font-specification:Cmr10">)</tspan></text>
</g></g></g><text
       xml:space="preserve"
       style="font-size:40px;font-style:normal;font-variant:normal;font-weight:normal;font-stretch:normal;line-height:125%;letter-spacing:0px;word-spacing:0px;fill:#000000;fill-opacity:1;stroke:none;font-family:Nimbus Roman No9 L;-inkscape-font-specification:Nimbus Roman No9 L"
       x="239"
       y="146"
       id="text3449"
       sodipodi:linespacing="125%"
       transform="matrix(0.8,0,0,-0.8,0,432)"><tspan
         sodipodi:role="line"
         id="tspan3451"
         x="239"
         y="146"></tspan><tspan
         sodipodi:role="line"
         id="tspan3453"
         x="239"
         y="196" /></text>
<text
       xml:space="preserve"
       style="font-size:40px;font-style:normal;font-variant:normal;font-weight:normal;font-stretch:normal;line-height:125%;letter-spacing:0px;word-spacing:0px;fill:#000000;fill-opacity:1;stroke:none;font-family:Nimbus Roman No9 L;-inkscape-font-specification:Nimbus Roman No9 L"
       x="150"
       y="-24"
       id="text3457"
       sodipodi:linespacing="125%"
       transform="matrix(0.8,0,0,-0.8,0,432)"><tspan
         sodipodi:role="line"
         id="tspan3459"
         x="150"
         y="-24"></tspan><tspan
         sodipodi:role="line"
         id="tspan3461"
         x="150"
         y="26" /></text>
<text
       xml:space="preserve"
       style="font-size:40px;font-style:normal;font-variant:normal;font-weight:normal;font-stretch:normal;line-height:125%;letter-spacing:0px;word-spacing:0px;fill:#000000;fill-opacity:1;stroke:none;font-family:Nimbus Roman No9 L;-inkscape-font-specification:Nimbus Roman No9 L"
       x="367"
       y="-82"
       id="text3463"
       sodipodi:linespacing="125%"
       transform="matrix(0.8,0,0,-0.8,0,432)"><tspan
         sodipodi:role="line"
         id="tspan3465"></tspan></text>
<g
       id="g3527" /><text
       xml:space="preserve"
       style="font-size:40px;font-style:normal;font-variant:normal;font-weight:normal;font-stretch:normal;line-height:125%;letter-spacing:0px;word-spacing:0px;fill:#000000;fill-opacity:1;stroke:none;font-family:Nimbus Roman No9 L;-inkscape-font-specification:Nimbus Roman No9 L"
       x="240.76987"
       y="-51.14127"
       id="text3497"
       sodipodi:linespacing="125%"
       transform="matrix(0.8,0,0,-0.8,0,432)"><tspan
         sodipodi:role="line"
         id="tspan3499"></tspan></text>
<g
       id="g3544"
       transform="translate(72.4,-42)"><g
         id="g3557"
         transform="matrix(0.9011774,0,0,0.82321657,129.19617,26.356025)"><text
           sodipodi:linespacing="125%"
           id="text3473"
           y="-14"
           x="227"
           style="font-size:40px;font-style:normal;font-variant:normal;font-weight:normal;font-stretch:normal;line-height:125%;letter-spacing:0px;word-spacing:0px;fill:#000000;fill-opacity:1;stroke:none;font-family:Nimbus Roman No9 L;-inkscape-font-specification:Nimbus Roman No9 L"
           xml:space="preserve"
           transform="matrix(0.8,0,0,-0.8,0,432)"><tspan
             y="-14"
             x="227"
             id="tspan3475"
             sodipodi:role="line">∑<tspan
   id="tspan3479"
   style="font-style:normal;font-variant:normal;font-weight:normal;font-stretch:normal;font-family:cmmi10;-inkscape-font-specification:cmmi10">E</tspan><tspan
   id="tspan3477"
   style="font-size:65.00091553%;font-style:normal;font-variant:normal;font-weight:normal;font-stretch:normal;baseline-shift:sub;font-family:cmmi10;-inkscape-font-specification:cmmi10">p<tspan
   id="tspan3481"
   style="font-style:normal;font-variant:normal;font-weight:normal;font-stretch:normal;font-family:Nimbus Roman No9 L;-inkscape-font-specification:Nimbus Roman No9 L" /></tspan></tspan></text>
<text
           xml:space="preserve"
           style="font-size:49.38483429px;font-style:normal;font-variant:normal;font-weight:normal;font-stretch:normal;line-height:125%;letter-spacing:0px;word-spacing:0px;fill:#000000;fill-opacity:1;stroke:none;font-family:Nimbus Roman No9 L;-inkscape-font-specification:Nimbus Roman No9 L"
           x="196.99097"
           y="-397.45978"
           id="text3491"
           sodipodi:linespacing="125%"
           transform="scale(0.92820855,-1.0773441)"><tspan
             sodipodi:role="line"
             id="tspan3493"
             x="196.99097"
             y="-397.45978"
             style="font-size:12.34620857px;font-style:normal;font-variant:normal;font-weight:normal;font-stretch:normal;font-family:cmmi10;-inkscape-font-specification:cmmi10">k <tspan
   style="font-style:normal;font-variant:normal;font-weight:normal;font-stretch:normal;font-family:Nimbus Roman No9 L;-inkscape-font-specification:Nimbus Roman No9 L"
   id="tspan3495">=</tspan>0</tspan></text>
<text
           xml:space="preserve"
           style="font-size:56.55255127px;font-style:normal;font-variant:normal;font-weight:normal;font-stretch:normal;line-height:125%;letter-spacing:0px;word-spacing:0px;fill:#000000;fill-opacity:1;stroke:none;font-family:Nimbus Roman No9 L;-inkscape-font-specification:Nimbus Roman No9 L"
           x="192.02324"
           y="-446.30759"
           id="text3491-6"
           sodipodi:linespacing="125%"
           transform="scale(0.95134895,-1.051139)"><tspan
             sodipodi:role="line"
             id="tspan3493-8"
             x="192.02324"
             y="-446.30759"
             style="font-size:14.13813782px;font-style:normal;font-variant:normal;font-weight:normal;font-stretch:normal;font-family:cmmi10;-inkscape-font-specification:cmmi10">n<tspan
   style="font-style:normal;font-variant:normal;font-weight:normal;font-stretch:normal;font-family:Nimbus Roman No9 L;-inkscape-font-specification:Nimbus Roman No9 L"
   id="tspan3525">-</tspan>1</tspan></text>
</g></g><text
       style="font-size:12px"
       y="-345.28534"
       x="420.70352"
       id="text458-3"
       transform="scale(1,-1)"><tspan
         style="font-size:14px;font-variant:normal;font-weight:normal;writing-mode:lr-tb;fill:#000000;fill-opacity:1;fill-rule:nonzero;stroke:none;font-family:Cmmi10;-inkscape-font-specification:Cmmi10"
         x="420.70352"
         y="-345.28534"
         id="tspan460-6">x</tspan></text>
<text
       xml:space="preserve"
       style="font-size:60.483078px;font-style:normal;font-variant:normal;font-weight:normal;font-stretch:normal;line-height:125%;letter-spacing:0px;word-spacing:0px;fill:#000000;fill-opacity:1;stroke:none;font-family:Nimbus Roman No9 L;-inkscape-font-specification:Nimbus Roman No9 L"
       x="449.40298"
       y="-318.50085"
       id="text3591"
       sodipodi:linespacing="125%"
       transform="scale(0.9298869,-1.0753996)"><tspan
         sodipodi:role="line"
         id="tspan3593"
         x="449.40298"
         y="-318.50085"
         style="font-size:15.1207695px">|</tspan></text>
</g></svg>