<?xml version="1.0" encoding="UTF-8" standalone="no"?>
<!-- Created with matplotlib (http://matplotlib.org/) -->

<svg
   xmlns:dc="http://purl.org/dc/elements/1.1/"
   xmlns:cc="http://creativecommons.org/ns#"
   xmlns:rdf="http://www.w3.org/1999/02/22-rdf-syntax-ns#"
   xmlns:svg="http://www.w3.org/2000/svg"
   xmlns="http://www.w3.org/2000/svg"
   xmlns:xlink="http://www.w3.org/1999/xlink"
   xmlns:sodipodi="http://sodipodi.sourceforge.net/DTD/sodipodi-0.dtd"
   xmlns:inkscape="http://www.inkscape.org/namespaces/inkscape"
   height="432pt"
   version="1.1"
   viewBox="0 0 576 432"
   width="576pt"
   id="svg2"
   inkscape:version="0.48.3.1 r9886"
   sodipodi:docname="Ec_sum_Ep.pdf">
  <metadata
     id="metadata398">
    <rdf:RDF>
      <cc:Work
         rdf:about="">
        <dc:format>image/svg+xml</dc:format>
        <dc:type
           rdf:resource="http://purl.org/dc/dcmitype/StillImage" />
        <dc:title></dc:title>
      </cc:Work>
    </rdf:RDF>
  </metadata>
  <sodipodi:namedview
     pagecolor="#ffffff"
     bordercolor="#666666"
     borderopacity="1"
     objecttolerance="10"
     gridtolerance="10"
     guidetolerance="10"
     inkscape:pageopacity="0"
     inkscape:pageshadow="2"
     inkscape:window-width="1535"
     inkscape:window-height="876"
     id="namedview396"
     showgrid="false"
     inkscape:zoom="0.81111111"
     inkscape:cx="138.00465"
     inkscape:cy="219.4226"
     inkscape:window-x="65"
     inkscape:window-y="24"
     inkscape:window-maximized="1"
     inkscape:current-layer="figure_1" />
  <defs
     id="defs4">
    <style
       type="text/css"
       id="style6">
*{stroke-linecap:butt;stroke-linejoin:round;}
  </style>
  </defs>
  <g
     id="figure_1">
    <g
       id="patch_1" />
    <g
       id="axes_1">
      <g
         id="patch_2">
        <path
           d=" M72 388.8 L518.4 388.8 L518.4 43.2 L72 43.2 z "
           style="fill:#ffffff;"
           id="path14" />
      </g>
      <g
         id="line2d_1">
        <path
           clip-path="url(#p7ff5b81e1d)"
           d=" M72 202.708 L98.4493 202.598 L99.4172 202.324 L100.273 201.845 L101.185 201.064 L102.619 199.482 L103.829 198.285 L104.592 197.827 L105.225 197.692 L105.839 197.79 L106.49 198.126 L107.309 198.82 L108.984 200.632 L110.157 201.705 L111.088 202.262 L112.018 202.561 L113.191 202.69 L116.355 202.708 L139.194 202.597 L140.217 202.335 L140.999 201.913 L141.706 201.273 L142.395 200.334 L143.084 199.003 L143.81 197.092 L144.591 194.367 L145.448 190.515 L146.397 185.134 L147.458 177.763 L148.686 167.581 L153.06 129.41 L154.159 121.764 L154.978 117.507 L155.629 115.182 L156.15 114.05 L156.56 113.625 L156.876 113.578 L157.174 113.757 L157.546 114.28 L158.012 115.391 L158.57 117.367 L159.259 120.7 L160.096 125.921 L161.213 134.445 L162.888 149.193 L165.866 175.413 L167.002 182.937 L168.1 188.828 L169.068 192.919 L170.017 196.022 L170.91 198.223 L171.785 199.815 L172.641 200.934 L173.498 201.703 L174.391 202.213 L175.396 202.53 L176.681 202.687 L178.84 202.688 L185.112 202.645 L199.947 202.708 L220.664 202.597 L221.687 202.333 L222.469 201.905 L223.176 201.254 L223.846 200.327 L224.535 198.975 L225.261 197.025 L226.024 194.303 L226.843 190.528 L227.737 185.324 L228.872 177.244 L230.193 166.43 L232.185 147.957 L234.121 130.746 L235.2 123.051 L236.038 118.554 L236.708 116.039 L237.248 114.765 L237.676 114.243 L238.011 114.138 L238.309 114.267 L238.662 114.686 L239.109 115.621 L239.649 117.325 L240.3 120.157 L241.119 124.783 L242.162 132.072 L243.558 143.559 L247.708 178.778 L248.881 185.726 L249.923 190.678 L250.91 194.342 L251.859 197.056 L252.771 199.022 L253.646 200.402 L254.502 201.351 L255.358 201.979 L256.289 202.388 L257.406 202.625 L258.969 202.708 L300.495 202.694 L302.133 202.542 L303.064 202.239 L303.827 201.757 L304.516 201.055 L305.205 200.018 L305.912 198.523 L306.656 196.393 L307.457 193.381 L308.332 189.165 L309.299 183.344 L310.398 175.315 L311.682 164.192 L313.748 145.995 L315.889 127.907 L316.931 120.943 L317.713 117.086 L318.345 114.969 L318.848 113.971 L319.239 113.622 L319.555 113.613 L319.872 113.848 L320.244 114.431 L320.709 115.615 L321.286 117.755 L321.994 121.313 L322.868 126.946 L324.004 135.817 L325.828 152.067 L328.471 175.266 L329.606 182.82 L330.723 188.827 L331.691 192.915 L332.64 196.019 L333.534 198.22 L334.409 199.813 L335.265 200.933 L336.121 201.703 L337.015 202.214 L338.02 202.53 L339.304 202.687 L341.463 202.688 L347.736 202.645 L362.57 202.708 L383.306 202.597 L384.329 202.333 L385.111 201.905 L385.818 201.254 L386.488 200.326 L387.177 198.975 L387.903 197.025 L388.666 194.303 L389.504 190.432 L390.416 185.086 L391.551 176.939 L392.891 165.921 L394.976 146.543 L396.8 130.45 L397.861 122.945 L398.699 118.488 L399.369 116.009 L399.908 114.764 L400.337 114.267 L400.672 114.18 L400.988 114.34 L401.36 114.826 L401.807 115.82 L402.365 117.663 L403.054 120.781 L403.892 125.676 L404.971 133.422 L406.46 145.889 L410.146 177.436 L411.3 184.528 L412.379 189.894 L413.366 193.732 L414.315 196.589 L415.227 198.671 L416.102 200.148 L416.958 201.175 L417.814 201.865 L418.726 202.317 L419.787 202.588 L421.202 202.703 L424.161 202.658 L429.392 202.651 L442.849 202.708 L463.882 202.597 L464.906 202.336 L465.706 201.9 L466.413 201.254 L467.102 200.307 L467.791 198.966 L468.517 197.044 L469.298 194.306 L470.155 190.438 L471.104 185.039 L472.165 177.645 L473.393 167.431 L477.563 130.982 L478.717 122.665 L479.573 118.004 L480.243 115.466 L480.783 114.192 L481.211 113.686 L481.546 113.604 L481.844 113.76 L482.197 114.223 L482.625 115.179 L483.184 117.05 L483.854 120.168 L484.673 125.12 L485.734 133.028 L487.297 146.605 L490.611 175.804 L491.746 183.258 L492.844 189.089 L493.831 193.185 L494.78 196.224 L495.673 198.372 L496.548 199.924 L497.404 201.012 L498.261 201.756 L499.173 202.253 L500.196 202.553 L501.518 202.694 L503.882 202.679 L509.633 202.643 L518.381 202.707 L518.381 202.707"
           style="fill:none;stroke:#0000ff;stroke-linecap:square;stroke-width:2.0;"
           id="path17" />
      </g>
      <g
         id="line2d_2">
        <path
           clip-path="url(#p7ff5b81e1d)"
           d=" M72 202.708 L98.0771 202.818 L99.6592 203.004 L100.311 203.307 L100.85 203.817 L101.39 204.666 L101.967 206.017 L102.675 208.258 L104.499 214.381 L104.908 215.038 L105.243 215.2 L105.467 215.096 L105.839 214.502 L106.285 213.062 L106.807 210.535 L107.551 205.457 L110.325 184.614 L111.013 181.586 L111.627 179.812 L112.186 178.822 L112.744 178.262 L113.358 177.968 L114.177 177.842 L116.448 177.823 L125.718 177.713 L130.408 177.515 L131.246 177.736 L134.298 179.368 L135.88 180.138 L136.681 180.288 L137.444 180.19 L138.282 179.833 L139.305 179.129 L140.478 178.044 L141.613 176.684 L143.102 174.49 L144.145 173.118 L144.684 172.728 L145.597 172.273 L145.987 171.57 L146.416 170.305 L146.899 168.149 L147.458 164.556 L148.072 159.061 L148.761 150.767 L149.896 133.483 L151.795 104.351 L152.651 94.7747 L153.247 90.401 L153.693 88.3875 L154.103 87.3863 L154.419 87.1002 L154.643 87.1481 L155.033 87.6271 L155.573 88.8889 L157.472 93.9431 L157.937 94.495 L158.291 94.6072 L158.589 94.747 L158.924 95.175 L159.314 96.0678 L159.761 97.6522 L160.338 100.689 L160.952 105.356 L161.604 112.232 L162.293 122.019 L163.074 136.424 L164.024 158.487 L166.462 218.39 L168.156 253.565 L169.179 270.311 L170.073 281.517 L170.855 288.648 L171.543 293.017 L172.139 295.483 L172.641 296.727 L173.07 297.27 L173.442 297.421 L173.87 297.547 L174.373 297.992 L175.117 299.01 L177.127 301.854 L177.965 302.579 L178.579 302.854 L179.119 302.908 L179.659 302.797 L180.459 302.361 L181.278 301.617 L182.302 300.375 L185.317 296.595 L186.75 295.357 L187.904 294.665 L189.021 294.215 L190.473 293.873 L192.539 293.689 L197.639 293.654 L208.044 293.544 L209.161 293.338 L210.091 292.985 L211.078 292.36 L212.753 290.783 L216.085 286.772 L216.885 286.004 L217.667 285.459 L218.281 285.293 L218.858 285.388 L219.379 285.697 L220.031 286.36 L220.85 287.566 L221.873 289.538 L223.362 292.989 L224.945 296.549 L225.615 297.551 L226.061 297.867 L226.676 298.148 L227.029 298.741 L227.42 299.88 L227.867 301.912 L228.388 305.442 L229.151 312.639 L230.026 323.542 L233.19 364.883 L233.972 371.429 L234.698 375.743 L235.312 378.186 L235.908 379.712 L236.429 380.501 L236.95 380.903 L237.471 381.021 L238.085 381.129 L239.742 381.543 L240.058 381.359 L240.505 380.711 L240.952 379.488 L241.306 377.9 L241.845 374.349 L242.385 368.985 L243.018 360.255 L243.707 347.501 L244.637 325.576 L245.903 289.897 L247.169 255.752 L249.309 208.332 L250.389 188.687 L251.301 175.849 L252.083 167.796 L252.753 163 L253.348 160.184 L253.888 158.615 L254.372 157.835 L254.8 157.521 L255.303 157.444 L255.861 157.237 L256.848 156.586 L258.374 155.627 L259.435 155.211 L260.552 155.016 L261.631 155.061 L262.841 155.358 L264.553 156.051 L267.532 157.257 L269.728 157.863 L271.868 158.226 L274.214 158.376 L279.444 158.399 L288.453 158.289 L292.455 158.021 L293.441 158.206 L294.186 158.457 L296.401 159.669 L298.206 160.649 L299.081 160.903 L299.77 160.89 L300.57 160.632 L301.482 160.086 L302.599 159.149 L303.771 157.87 L305.018 156.148 L306.749 153.748 L307.289 153.367 L308.183 152.931 L308.555 152.281 L308.983 151.057 L309.467 148.953 L310.025 145.422 L310.64 139.982 L311.328 131.732 L312.482 114.134 L314.511 82.7898 L315.274 74.4832 L315.889 70.0489 L316.354 67.9673 L316.745 67.0671 L317.08 66.8018 L317.34 66.8991 L317.582 67.1825 L318.048 68.1412 L318.662 69.8011 L319.946 73.1157 L320.449 73.8085 L320.821 73.9892 L321.156 74.1004 L321.491 74.4896 L321.882 75.3254 L322.329 76.8216 L322.831 79.2881 L323.39 83.1476 L324.041 89.4115 L324.711 98.1105 L325.474 111.108 L326.405 131.511 L330.183 220.621 L331.393 242.637 L332.324 255.768 L333.143 264.397 L333.869 269.852 L334.502 273.055 L335.042 274.765 L335.507 275.583 L335.898 275.874 L336.81 276.293 L337.461 277.102 L340.104 280.756 L340.719 281.204 L341.407 281.453 L342.226 281.413 L342.915 281.104 L343.473 280.681 L345 278.953 L347.363 275.9 L348.853 274.443 L350.118 273.572 L351.644 272.908 L353.096 272.567 L354.697 272.404 L360.542 272.348 L370.704 272.24 L372.342 271.849 L374.148 270.798 L375.227 269.73 L378.727 265.607 L379.732 264.65 L380.439 264.223 L380.997 264.118 L381.5 264.226 L382.04 264.557 L382.654 265.183 L383.417 266.292 L384.385 268.108 L385.744 271.196 L387.698 275.601 L388.312 276.475 L388.741 276.76 L389.299 276.991 L389.634 277.5 L390.025 278.553 L390.472 280.466 L390.974 283.683 L391.644 289.629 L392.445 299.075 L393.803 318.128 L395.255 337.294 L396.13 346.18 L396.893 351.864 L397.545 355.241 L398.14 357.31 L398.717 358.574 L399.238 359.225 L399.741 359.523 L400.355 359.601 L401.062 359.811 L402.123 360.121 L402.589 359.96 L402.905 359.624 L403.296 358.836 L403.724 357.399 L404.152 355.13 L404.673 350.998 L405.176 345.391 L405.79 336.19 L406.535 321.638 L407.521 297.207 L408.936 256.129 L409.68 236.784 L411.598 193.794 L412.789 170.914 L413.738 156.646 L414.538 147.699 L415.246 142.116 L415.86 138.876 L416.418 137.031 L416.902 136.111 L417.349 135.693 L417.777 135.579 L418.28 135.469 L418.987 135.068 L421.593 133.488 L422.747 133.175 L423.826 133.129 L425.036 133.343 L426.469 133.867 L431.104 135.733 L433.394 136.272 L435.553 136.529 L438.884 136.608 L450.574 136.498 L454.352 136.285 L455.506 136.493 L456.418 136.813 L457.46 137.377 L460.252 139.004 L461.09 139.267 L461.853 139.265 L462.598 139.027 L463.491 138.499 L464.589 137.58 L465.687 136.393 L466.841 134.835 L468.889 131.992 L469.429 131.659 L470.136 131.371 L470.508 130.818 L470.918 129.782 L471.383 127.964 L471.904 124.985 L472.519 120.01 L473.151 113.031 L473.933 101.808 L476.967 55.8234 L477.712 49.1124 L478.289 45.9887 L478.754 44.6622 L479.126 44.2985 L479.294 44.2932 L479.629 44.5664 L479.982 45.154 L480.578 46.6305 L482.123 50.4198 L482.607 50.9675 L482.979 51.0717 L483.296 51.2477 L483.631 51.7081 L484.04 52.6854 L484.505 54.4022 L485.045 57.3164 L485.659 62.0559 L486.311 68.9908 L486.981 78.5235 L487.8 93.6767 L488.731 115.49 L491.206 176.068 L492.844 209.753 L493.868 226.479 L494.743 237.474 L495.524 244.663 L496.213 249.073 L496.809 251.558 L497.311 252.808 L497.739 253.354 L498.112 253.504 L498.521 253.62 L499.005 254.038 L499.75 255.041 L501.723 257.875 L502.542 258.602 L503.174 258.903 L503.882 258.956 L504.552 258.734 L505.78 257.794 L506.618 256.804 L510.285 252.269 L511.476 251.271 L512.686 250.559 L514.007 250.067 L515.403 249.779 L517.265 249.631 L518.381 249.606 L518.381 249.606"
           style="fill:none;stroke:#0000ff;stroke-dasharray:6.000000,6.000000;stroke-dashoffset:0.0;stroke-width:2.0;"
           id="path20" />
      </g>
      <g
         id="matplotlib.axis_1">
        <g
           id="xtick_1">
          <g
             id="line2d_3">
            <path
               clip-path="url(#p7ff5b81e1d)"
               d=" M72 388.8 L72 43.2"
               style="fill:none;stroke:#000000;stroke-dasharray:1.000000,3.000000;stroke-dashoffset:0.0;stroke-width:0.5;"
               id="path25" />
          </g>
          <g
             id="line2d_4">
            <defs
               id="defs28">
              <path
                 d=" M0 0 L0 -4"
                 id="m93b0483c22"
                 style="stroke:#000000;stroke-width:0.5;" />
            </defs>
            <g
               id="g31">
              <use
                 style="stroke:#000000;stroke-width:0.5;"
                 x="72.0"
                 xlink:href="#m93b0483c22"
                 y="388.8"
                 id="use33" />
            </g>
          </g>
          <g
             id="line2d_5">
            <defs
               id="defs36">
              <path
                 d=" M0 0 L0 4"
                 id="m741efc42ff"
                 style="stroke:#000000;stroke-width:0.5;" />
            </defs>
            <g
               id="g39">
              <use
                 style="stroke:#000000;stroke-width:0.5;"
                 x="72.0"
                 xlink:href="#m741efc42ff"
                 y="43.2"
                 id="use41" />
            </g>
          </g>
          <g
             id="text_1">
            <!-- 0 -->
            <defs
               id="defs44">
              <path
                 d=" M31.7812 66.4062 Q24.1719 66.4062 20.3281 58.9062 Q16.5 51.4219 16.5 36.375 Q16.5 21.3906 20.3281 13.8906 Q24.1719 6.39062 31.7812 6.39062 Q39.4531 6.39062 43.2812 13.8906 Q47.125 21.3906 47.125 36.375 Q47.125 51.4219 43.2812 58.9062 Q39.4531 66.4062 31.7812 66.4062 M31.7812 74.2188 Q44.0469 74.2188 50.5156 64.5156 Q56.9844 54.8281 56.9844 36.375 Q56.9844 17.9688 50.5156 8.26562 Q44.0469 -1.42188 31.7812 -1.42188 Q19.5312 -1.42188 13.0625 8.26562 Q6.59375 17.9688 6.59375 36.375 Q6.59375 54.8281 13.0625 64.5156 Q19.5312 74.2188 31.7812 74.2188"
                 id="BitstreamVeraSans-Roman-30" />
            </defs>
            <g
               transform="translate(68.9765625 401.918125)scale(0.12 -0.12)"
               id="g47">
              <use
                 xlink:href="#BitstreamVeraSans-Roman-30"
                 id="use49" />
            </g>
          </g>
        </g>
        <g
           id="xtick_2">
          <g
             id="line2d_6">
            <path
               clip-path="url(#p7ff5b81e1d)"
               d=" M165.066 388.8 L165.066 43.2"
               style="fill:none;stroke:#000000;stroke-dasharray:1.000000,3.000000;stroke-dashoffset:0.0;stroke-width:0.5;"
               id="path53" />
          </g>
          <g
             id="line2d_7">
            <g
               id="g56">
              <use
                 style="stroke:#000000;stroke-width:0.5;"
                 x="165.065921695"
                 xlink:href="#m93b0483c22"
                 y="388.8"
                 id="use58" />
            </g>
          </g>
          <g
             id="line2d_8">
            <g
               id="g61">
              <use
                 style="stroke:#000000;stroke-width:0.5;"
                 x="165.065921695"
                 xlink:href="#m741efc42ff"
                 y="43.2"
                 id="use63" />
            </g>
          </g>
          <g
             id="text_2">
            <!-- 5 -->
            <defs
               id="defs66">
              <path
                 d=" M10.7969 72.9062 L49.5156 72.9062 L49.5156 64.5938 L19.8281 64.5938 L19.8281 46.7344 Q21.9688 47.4688 24.1094 47.8281 Q26.2656 48.1875 28.4219 48.1875 Q40.625 48.1875 47.75 41.5 Q54.8906 34.8125 54.8906 23.3906 Q54.8906 11.625 47.5625 5.09375 Q40.2344 -1.42188 26.9062 -1.42188 Q22.3125 -1.42188 17.5469 -0.640625 Q12.7969 0.140625 7.71875 1.70312 L7.71875 11.625 Q12.1094 9.23438 16.7969 8.0625 Q21.4844 6.89062 26.7031 6.89062 Q35.1562 6.89062 40.0781 11.3281 Q45.0156 15.7656 45.0156 23.3906 Q45.0156 31 40.0781 35.4375 Q35.1562 39.8906 26.7031 39.8906 Q22.75 39.8906 18.8125 39.0156 Q14.8906 38.1406 10.7969 36.2812 z "
                 id="BitstreamVeraSans-Roman-35" />
            </defs>
            <g
               transform="translate(162.235609195 401.918125)scale(0.12 -0.12)"
               id="g69">
              <use
                 xlink:href="#BitstreamVeraSans-Roman-35"
                 id="use71" />
            </g>
          </g>
        </g>
        <g
           id="xtick_3">
          <g
             id="line2d_9">
            <path
               clip-path="url(#p7ff5b81e1d)"
               d=" M258.132 388.8 L258.132 43.2"
               style="fill:none;stroke:#000000;stroke-dasharray:1.000000,3.000000;stroke-dashoffset:0.0;stroke-width:0.5;"
               id="path75" />
          </g>
          <g
             id="line2d_10">
            <g
               id="g78">
              <use
                 style="stroke:#000000;stroke-width:0.5;"
                 x="258.131843389"
                 xlink:href="#m93b0483c22"
                 y="388.8"
                 id="use80" />
            </g>
          </g>
          <g
             id="line2d_11">
            <g
               id="g83">
              <use
                 style="stroke:#000000;stroke-width:0.5;"
                 x="258.131843389"
                 xlink:href="#m741efc42ff"
                 y="43.2"
                 id="use85" />
            </g>
          </g>
          <g
             id="text_3">
            <!-- 10 -->
            <defs
               id="defs88">
              <path
                 d=" M12.4062 8.29688 L28.5156 8.29688 L28.5156 63.9219 L10.9844 60.4062 L10.9844 69.3906 L28.4219 72.9062 L38.2812 72.9062 L38.2812 8.29688 L54.3906 8.29688 L54.3906 0 L12.4062 0 z "
                 id="BitstreamVeraSans-Roman-31" />
            </defs>
            <g
               transform="translate(251.554343389 401.918125)scale(0.12 -0.12)"
               id="g91">
              <use
                 xlink:href="#BitstreamVeraSans-Roman-31"
                 id="use93" />
              <use
                 x="63.623046875"
                 xlink:href="#BitstreamVeraSans-Roman-30"
                 id="use95" />
            </g>
          </g>
        </g>
        <g
           id="xtick_4">
          <g
             id="line2d_12">
            <path
               clip-path="url(#p7ff5b81e1d)"
               d=" M351.198 388.8 L351.198 43.2"
               style="fill:none;stroke:#000000;stroke-dasharray:1.000000,3.000000;stroke-dashoffset:0.0;stroke-width:0.5;"
               id="path99" />
          </g>
          <g
             id="line2d_13">
            <g
               id="g102">
              <use
                 style="stroke:#000000;stroke-width:0.5;"
                 x="351.197765084"
                 xlink:href="#m93b0483c22"
                 y="388.8"
                 id="use104" />
            </g>
          </g>
          <g
             id="line2d_14">
            <g
               id="g107">
              <use
                 style="stroke:#000000;stroke-width:0.5;"
                 x="351.197765084"
                 xlink:href="#m741efc42ff"
                 y="43.2"
                 id="use109" />
            </g>
          </g>
          <g
             id="text_4">
            <!-- 15 -->
            <g
               transform="translate(344.745890084 401.918125)scale(0.12 -0.12)"
               id="g112">
              <use
                 xlink:href="#BitstreamVeraSans-Roman-31"
                 id="use114" />
              <use
                 x="63.623046875"
                 xlink:href="#BitstreamVeraSans-Roman-35"
                 id="use116" />
            </g>
          </g>
        </g>
        <g
           id="xtick_5">
          <g
             id="line2d_15">
            <path
               clip-path="url(#p7ff5b81e1d)"
               d=" M444.264 388.8 L444.264 43.2"
               style="fill:none;stroke:#000000;stroke-dasharray:1.000000,3.000000;stroke-dashoffset:0.0;stroke-width:0.5;"
               id="path120" />
          </g>
          <g
             id="line2d_16">
            <g
               id="g123">
              <use
                 style="stroke:#000000;stroke-width:0.5;"
                 x="444.263686778"
                 xlink:href="#m93b0483c22"
                 y="388.8"
                 id="use125" />
            </g>
          </g>
          <g
             id="line2d_17">
            <g
               id="g128">
              <use
                 style="stroke:#000000;stroke-width:0.5;"
                 x="444.263686778"
                 xlink:href="#m741efc42ff"
                 y="43.2"
                 id="use130" />
            </g>
          </g>
          <g
             id="text_5">
            <!-- 20 -->
            <defs
               id="defs133">
              <path
                 d=" M19.1875 8.29688 L53.6094 8.29688 L53.6094 0 L7.32812 0 L7.32812 8.29688 Q12.9375 14.1094 22.625 23.8906 Q32.3281 33.6875 34.8125 36.5312 Q39.5469 41.8438 41.4219 45.5312 Q43.3125 49.2188 43.3125 52.7812 Q43.3125 58.5938 39.2344 62.25 Q35.1562 65.9219 28.6094 65.9219 Q23.9688 65.9219 18.8125 64.3125 Q13.6719 62.7031 7.8125 59.4219 L7.8125 69.3906 Q13.7656 71.7812 18.9375 73 Q24.125 74.2188 28.4219 74.2188 Q39.75 74.2188 46.4844 68.5469 Q53.2188 62.8906 53.2188 53.4219 Q53.2188 48.9219 51.5312 44.8906 Q49.8594 40.875 45.4062 35.4062 Q44.1875 33.9844 37.6406 27.2188 Q31.1094 20.4531 19.1875 8.29688"
                 id="BitstreamVeraSans-Roman-32" />
            </defs>
            <g
               transform="translate(437.466811778 401.918125)scale(0.12 -0.12)"
               id="g136">
              <use
                 xlink:href="#BitstreamVeraSans-Roman-32"
                 id="use138" />
              <use
                 x="63.623046875"
                 xlink:href="#BitstreamVeraSans-Roman-30"
                 id="use140" />
            </g>
          </g>
        </g>
        <g
           id="text_6">
          <!-- $time (s)$ -->
          <defs
             id="defs143">
            <path
               d=" M7.71875 1.70312 Q7.71875 2.29688 7.8125 2.59375 L15.2812 32.4219 Q16.0156 35.2031 16.0156 37.3125 Q16.0156 41.6094 13.0938 41.6094 Q9.96875 41.6094 8.45312 37.8594 Q6.9375 34.125 5.51562 28.4219 Q5.51562 28.125 5.21875 27.9531 Q4.9375 27.7812 4.6875 27.7812 L3.51562 27.7812 Q3.17188 27.7812 2.92188 28.1406 Q2.6875 28.5156 2.6875 28.8125 Q3.76562 33.1562 4.76562 36.1719 Q5.76562 39.2031 7.89062 41.6875 Q10.0156 44.1875 13.1875 44.1875 Q16.9375 44.1875 19.8125 41.8125 Q22.7031 39.4531 22.7031 35.7969 Q25.6875 39.7031 29.6875 41.9375 Q33.6875 44.1875 38.1875 44.1875 Q42.9219 44.1875 46.3594 41.7656 Q49.8125 39.3594 49.8125 34.9062 Q52.875 39.2656 57 41.7188 Q61.1406 44.1875 66.0156 44.1875 Q71.1875 44.1875 74.3281 41.375 Q77.4844 38.5781 77.4844 33.4062 Q77.4844 29.2969 75.6562 23.4844 Q73.8281 17.6719 71.0938 10.5 Q69.6719 7.03125 69.6719 4.5 Q69.6719 1.51562 72.0156 1.51562 Q75.9219 1.51562 78.5156 5.70312 Q81.1094 9.90625 82.1719 14.7031 Q82.4688 15.2812 83.0156 15.2812 L84.1875 15.2812 Q84.5781 15.2812 84.8438 15.0156 Q85.1094 14.75 85.1094 14.4062 Q85.1094 14.3125 85.0156 14.1094 Q83.6406 8.45312 80.25 3.65625 Q76.8594 -1.125 71.7812 -1.125 Q68.2656 -1.125 65.7656 1.29688 Q63.2812 3.71875 63.2812 7.17188 Q63.2812 8.9375 64.1094 11.0781 Q66.9375 18.6094 68.8125 24.5156 Q70.7031 30.4219 70.7031 34.9062 Q70.7031 37.7031 69.5781 39.6562 Q68.4531 41.6094 65.8281 41.6094 Q60.3594 41.6094 56.3438 38.25 Q52.3438 34.9062 49.4219 29.3906 Q49.2188 28.4219 49.125 27.875 L42.6719 2.20312 Q42.3281 0.828125 41.125 -0.140625 Q39.9375 -1.125 38.4844 -1.125 Q37.3125 -1.125 36.4062 -0.34375 Q35.5 0.4375 35.5 1.70312 Q35.5 2.29688 35.5938 2.59375 L42 28.0781 Q43.0156 32.1719 43.0156 34.9062 Q43.0156 37.7031 41.8594 39.6562 Q40.7188 41.6094 37.9844 41.6094 Q34.3281 41.6094 31.25 39.9844 Q28.1719 38.375 25.875 35.7188 Q23.5781 33.0625 21.6875 29.3906 L14.8906 2.20312 Q14.5469 0.828125 13.3438 -0.140625 Q12.1562 -1.125 10.6875 -1.125 Q9.46875 -1.125 8.59375 -0.34375 Q7.71875 0.4375 7.71875 1.70312"
               id="Cmmi10-6d" />
            <path
               d=" M31 -24.8125 Q25.4375 -20.4062 21.4062 -14.7188 Q17.3906 -9.03125 14.8125 -2.57812 Q12.25 3.85938 10.9844 10.8906 Q9.71875 17.9219 9.71875 25 Q9.71875 32.1719 10.9844 39.2031 Q12.25 46.2344 14.8594 52.7344 Q17.4844 59.2344 21.5312 64.8906 Q25.5938 70.5625 31 74.8125 Q31 75 31.5 75 L32.4219 75 Q32.7188 75 32.9531 74.7344 Q33.2031 74.4688 33.2031 74.125 Q33.2031 73.6875 33.0156 73.4844 Q28.125 68.7031 24.875 63.2344 Q21.625 57.7656 19.6406 51.5781 Q17.6719 45.4062 16.7969 38.7812 Q15.9219 32.1719 15.9219 25 Q15.9219 -6.78125 32.9062 -23.2969 Q33.2031 -23.5781 33.2031 -24.125 Q33.2031 -24.3594 32.9375 -24.6719 Q32.6719 -25 32.4219 -25 L31.5 -25 Q31 -25 31 -24.8125"
               id="Cmr10-28" />
            <path
               d=" M6.5 -25 Q5.60938 -25 5.60938 -24.125 Q5.60938 -23.6875 5.8125 -23.4844 Q22.9062 -6.78125 22.9062 25 Q22.9062 56.7812 6 73.2969 Q5.60938 73.5312 5.60938 74.125 Q5.60938 74.4688 5.875 74.7344 Q6.15625 75 6.5 75 L7.42188 75 Q7.71875 75 7.90625 74.8125 Q15.0938 69.1406 19.875 61.0312 Q24.6562 52.9375 26.875 43.75 Q29.1094 34.5781 29.1094 25 Q29.1094 17.9219 27.9062 11.0625 Q26.7031 4.20312 24.0938 -2.45312 Q21.4844 -9.125 17.4844 -14.7656 Q13.4844 -20.4062 7.90625 -24.8125 Q7.71875 -25 7.42188 -25 z "
               id="Cmr10-29" />
            <path
               d=" M8.6875 6.10938 Q11.375 1.51562 19.4844 1.51562 Q23 1.51562 26.1719 2.70312 Q29.3438 3.90625 31.4219 6.29688 Q33.5 8.6875 33.5 12.1094 Q33.5 14.7031 31.6406 16.3594 Q29.7812 18.0156 27.0938 18.6094 L21.6875 19.6719 Q17.9688 20.6094 15.5781 23.1406 Q13.1875 25.6875 13.1875 29.2969 Q13.1875 33.7344 15.5938 37.1562 Q18.0156 40.5781 21.9688 42.375 Q25.9219 44.1875 30.1719 44.1875 Q34.7188 44.1875 38.2969 42.0156 Q41.8906 39.8438 41.8906 35.5938 Q41.8906 33.2969 40.5938 31.5312 Q39.3125 29.7812 37.0156 29.7812 Q35.6875 29.7812 34.7344 30.6406 Q33.7969 31.5 33.7969 32.8125 Q33.7969 33.9844 34.4531 35.0781 Q35.1094 36.1875 36.2031 36.8438 Q37.3125 37.5 38.4844 37.5 Q37.5938 39.6562 35.1719 40.625 Q32.7656 41.6094 29.9844 41.6094 Q27.4375 41.6094 24.8906 40.5781 Q22.3594 39.5469 20.8125 37.5625 Q19.2812 35.5938 19.2812 32.9062 Q19.2812 31.1094 20.5469 29.7344 Q21.8281 28.375 23.6875 27.7812 L29.5 26.6094 Q32.2812 26.0312 34.5938 24.5312 Q36.9219 23.0469 38.25 20.7656 Q39.5938 18.5 39.5938 15.5781 Q39.5938 11.8594 37.5156 8.25 Q35.4531 4.64062 32.4219 2.48438 Q27.0938 -1.125 19.3906 -1.125 Q14.0625 -1.125 9.60938 1.3125 Q5.17188 3.76562 5.17188 8.59375 Q5.17188 11.3281 6.75 13.3438 Q8.34375 15.375 11.0781 15.375 Q12.7031 15.375 13.7969 14.3906 Q14.8906 13.4219 14.8906 11.8125 Q14.8906 9.51562 13.1719 7.8125 Q11.4688 6.10938 9.1875 6.10938 z "
               id="Cmmi10-73" />
            <path
               d=" M20.125 -1.125 Q15.3281 -1.125 11.7344 1.35938 Q8.15625 3.85938 6.26562 8.07812 Q4.39062 12.3125 4.39062 17 Q4.39062 24.125 7.98438 30.3906 Q11.5781 36.6719 17.7188 40.4219 Q23.875 44.1875 30.9062 44.1875 Q35.2031 44.1875 38.4062 41.9688 Q41.6094 39.75 41.6094 35.5938 Q41.6094 29.8281 37.0156 27.0156 Q32.4219 24.2188 26.6562 23.5625 Q20.9062 22.9062 13.9219 22.9062 L13.625 22.9062 Q12.0156 16.9375 12.0156 12.7031 Q12.0156 8.25 14.0625 4.875 Q16.1094 1.51562 20.3125 1.51562 Q26.2656 1.51562 31.75 4.25 Q37.25 6.98438 40.7188 11.8125 Q41.0156 12.1094 41.5 12.1094 Q42 12.1094 42.5 11.5469 Q43.0156 10.9844 43.0156 10.5 Q43.0156 10.1094 42.8281 9.90625 Q39.1562 4.78125 32.9531 1.82812 Q26.7656 -1.125 20.125 -1.125 M14.2031 25.4844 Q20.0156 25.4844 24.9531 26.0156 Q29.8906 26.5625 33.8906 28.7344 Q37.8906 30.9062 37.8906 35.5 Q37.8906 37.3594 36.8594 38.75 Q35.8438 40.1406 34.2031 40.875 Q32.5625 41.6094 30.8125 41.6094 Q26.5625 41.6094 23.1719 39.3125 Q19.7812 37.0156 17.5781 33.3281 Q15.375 29.6406 14.2031 25.4844"
               id="Cmmi10-65" />
            <path
               d=" M6.20312 8.10938 Q6.20312 9.57812 6.5 10.8906 L13.7188 39.5938 L3.21875 39.5938 Q2.20312 39.5938 2.20312 40.9219 Q2.59375 43.1094 3.51562 43.1094 L14.5938 43.1094 L18.6094 59.4219 Q19 60.75 20.1719 61.6719 Q21.3438 62.5938 22.7969 62.5938 Q24.0781 62.5938 24.9219 61.8281 Q25.7812 61.0781 25.7812 59.8125 Q25.7812 59.5156 25.75 59.3438 Q25.7344 59.1875 25.6875 58.9844 L21.6875 43.1094 L31.9844 43.1094 Q33.0156 43.1094 33.0156 41.7969 Q32.9531 41.5469 32.8125 40.9531 Q32.6719 40.375 32.4219 39.9844 Q32.1719 39.5938 31.6875 39.5938 L20.7969 39.5938 L13.625 10.6875 Q12.8906 7.85938 12.8906 5.8125 Q12.8906 1.51562 15.8281 1.51562 Q20.2188 1.51562 23.6094 5.64062 Q27 9.76562 28.8125 14.7031 Q29.2031 15.2812 29.5938 15.2812 L30.8125 15.2812 Q31.2031 15.2812 31.4375 15.0156 Q31.6875 14.75 31.6875 14.4062 Q31.6875 14.2031 31.5938 14.1094 Q29.3906 8.0625 25.1875 3.46875 Q21 -1.125 15.5781 -1.125 Q11.625 -1.125 8.90625 1.45312 Q6.20312 4.04688 6.20312 8.10938"
               id="Cmmi10-74" />
            <path
               d=" M7.8125 7.17188 Q7.8125 9.03125 8.59375 11.0781 L16.7031 32.625 Q18.0156 36.2812 18.0156 38.625 Q18.0156 41.6094 15.8281 41.6094 Q11.8594 41.6094 9.29688 37.5312 Q6.73438 33.4531 5.51562 28.4219 Q5.32812 27.7812 4.6875 27.7812 L3.51562 27.7812 Q2.6875 27.7812 2.6875 28.7188 L2.6875 29 Q4.29688 34.9688 7.60938 39.5781 Q10.9375 44.1875 16.0156 44.1875 Q19.5781 44.1875 22.0469 41.8438 Q24.5156 39.5 24.5156 35.8906 Q24.5156 34.0312 23.6875 31.9844 L15.5781 10.5 Q14.2031 7.17188 14.2031 4.5 Q14.2031 1.51562 16.5 1.51562 Q20.4062 1.51562 23.0156 5.6875 Q25.6406 9.85938 26.7031 14.7031 Q26.9062 15.2812 27.4844 15.2812 L28.7188 15.2812 Q29.1094 15.2812 29.3438 15.0156 Q29.5938 14.75 29.5938 14.4062 Q29.5938 14.3125 29.5 14.1094 Q28.125 8.45312 24.7344 3.65625 Q21.3438 -1.125 16.3125 -1.125 Q12.7969 -1.125 10.2969 1.29688 Q7.8125 3.71875 7.8125 7.17188 M19.0938 60.5938 Q19.0938 62.7031 20.8438 64.4062 Q22.6094 66.1094 24.7031 66.1094 Q26.4219 66.1094 27.5156 65.0625 Q28.6094 64.0156 28.6094 62.4062 Q28.6094 60.1562 26.8281 58.4688 Q25.0469 56.7812 22.9062 56.7812 Q21.2969 56.7812 20.1875 57.875 Q19.0938 58.9844 19.0938 60.5938"
               id="Cmmi10-69" />
          </defs>
          <g
             transform="translate(262.2 424.41375)scale(0.2 -0.2)"
             id="g152">
            <use
               xlink:href="#Cmmi10-74"
               id="use154" />
            <use
               transform="translate(36.083984375 0.0)"
               xlink:href="#Cmmi10-69"
               id="use156" />
            <use
               transform="translate(70.5078125 0.0)"
               xlink:href="#Cmmi10-6d"
               id="use158" />
            <use
               transform="translate(158.30078125 0.0)"
               xlink:href="#Cmmi10-65"
               id="use160" />
            <use
               transform="translate(204.78515625 0.0)"
               xlink:href="#Cmr10-28"
               id="use162" />
            <use
               transform="translate(243.603515625 0.0)"
               xlink:href="#Cmmi10-73"
               id="use164" />
            <use
               transform="translate(290.380859375 0.0)"
               xlink:href="#Cmr10-29"
               id="use166" />
          </g>
        </g>
      </g>
      <g
         id="matplotlib.axis_2">
        <g
           id="ytick_1">
          <g
             id="line2d_18">
            <path
               clip-path="url(#p7ff5b81e1d)"
               d=" M72 362.215 L518.4 362.215"
               style="fill:none;stroke:#000000;stroke-dasharray:1.000000,3.000000;stroke-dashoffset:0.0;stroke-width:0.5;"
               id="path171" />
          </g>
          <g
             id="line2d_19">
            <defs
               id="defs174">
              <path
                 d=" M0 0 L4 0"
                 id="m728421d6d4"
                 style="stroke:#000000;stroke-width:0.5;" />
            </defs>
            <g
               id="g177">
              <use
                 style="stroke:#000000;stroke-width:0.5;"
                 x="72.0"
                 xlink:href="#m728421d6d4"
                 y="362.215384615"
                 id="use179" />
            </g>
          </g>
          <g
             id="line2d_20">
            <defs
               id="defs182">
              <path
                 d=" M0 0 L-4 0"
                 id="mcb0005524f"
                 style="stroke:#000000;stroke-width:0.5;" />
            </defs>
            <g
               id="g185">
              <use
                 style="stroke:#000000;stroke-width:0.5;"
                 x="518.4"
                 xlink:href="#mcb0005524f"
                 y="362.215384615"
                 id="use187" />
            </g>
          </g>
          <g
             id="text_7">
            <!-- −3 -->
            <defs
               id="defs190">
              <path
                 d=" M10.5938 35.5 L73.1875 35.5 L73.1875 27.2031 L10.5938 27.2031 z "
                 id="BitstreamVeraSans-Roman-2212" />
              <path
                 d=" M40.5781 39.3125 Q47.6562 37.7969 51.625 33 Q55.6094 28.2188 55.6094 21.1875 Q55.6094 10.4062 48.1875 4.48438 Q40.7656 -1.42188 27.0938 -1.42188 Q22.5156 -1.42188 17.6562 -0.515625 Q12.7969 0.390625 7.625 2.20312 L7.625 11.7188 Q11.7188 9.32812 16.5938 8.10938 Q21.4844 6.89062 26.8125 6.89062 Q36.0781 6.89062 40.9375 10.5469 Q45.7969 14.2031 45.7969 21.1875 Q45.7969 27.6406 41.2812 31.2656 Q36.7656 34.9062 28.7188 34.9062 L20.2188 34.9062 L20.2188 43.0156 L29.1094 43.0156 Q36.375 43.0156 40.2344 45.9219 Q44.0938 48.8281 44.0938 54.2969 Q44.0938 59.9062 40.1094 62.9062 Q36.1406 65.9219 28.7188 65.9219 Q24.6562 65.9219 20.0156 65.0312 Q15.375 64.1562 9.8125 62.3125 L9.8125 71.0938 Q15.4375 72.6562 20.3438 73.4375 Q25.25 74.2188 29.5938 74.2188 Q40.8281 74.2188 47.3594 69.1094 Q53.9062 64.0156 53.9062 55.3281 Q53.9062 49.2656 50.4375 45.0938 Q46.9688 40.9219 40.5781 39.3125"
                 id="BitstreamVeraSans-Roman-33" />
            </defs>
            <g
               transform="translate(52.5425 365.526634615)scale(0.12 -0.12)"
               id="g194">
              <use
                 xlink:href="#BitstreamVeraSans-Roman-2212"
                 id="use196" />
              <use
                 x="83.7890625"
                 xlink:href="#BitstreamVeraSans-Roman-33"
                 id="use198" />
            </g>
          </g>
        </g>
        <g
           id="ytick_2">
          <g
             id="line2d_21">
            <path
               clip-path="url(#p7ff5b81e1d)"
               d=" M72 309.046 L518.4 309.046"
               style="fill:none;stroke:#000000;stroke-dasharray:1.000000,3.000000;stroke-dashoffset:0.0;stroke-width:0.5;"
               id="path202" />
          </g>
          <g
             id="line2d_22">
            <g
               id="g205">
              <use
                 style="stroke:#000000;stroke-width:0.5;"
                 x="72.0"
                 xlink:href="#m728421d6d4"
                 y="309.046153846"
                 id="use207" />
            </g>
          </g>
          <g
             id="line2d_23">
            <g
               id="g210">
              <use
                 style="stroke:#000000;stroke-width:0.5;"
                 x="518.4"
                 xlink:href="#mcb0005524f"
                 y="309.046153846"
                 id="use212" />
            </g>
          </g>
          <g
             id="text_8">
            <!-- −2 -->
            <g
               transform="translate(52.7825 312.357403846)scale(0.12 -0.12)"
               id="g215">
              <use
                 xlink:href="#BitstreamVeraSans-Roman-2212"
                 id="use217" />
              <use
                 x="83.7890625"
                 xlink:href="#BitstreamVeraSans-Roman-32"
                 id="use219" />
            </g>
          </g>
        </g>
        <g
           id="ytick_3">
          <g
             id="line2d_24">
            <path
               clip-path="url(#p7ff5b81e1d)"
               d=" M72 255.877 L518.4 255.877"
               style="fill:none;stroke:#000000;stroke-dasharray:1.000000,3.000000;stroke-dashoffset:0.0;stroke-width:0.5;"
               id="path223" />
          </g>
          <g
             id="line2d_25">
            <g
               id="g226">
              <use
                 style="stroke:#000000;stroke-width:0.5;"
                 x="72.0"
                 xlink:href="#m728421d6d4"
                 y="255.876923077"
                 id="use228" />
            </g>
          </g>
          <g
             id="line2d_26">
            <g
               id="g231">
              <use
                 style="stroke:#000000;stroke-width:0.5;"
                 x="518.4"
                 xlink:href="#mcb0005524f"
                 y="255.876923077"
                 id="use233" />
            </g>
          </g>
          <g
             id="text_9">
            <!-- −1 -->
            <g
               transform="translate(52.68875 259.188173077)scale(0.12 -0.12)"
               id="g236">
              <use
                 xlink:href="#BitstreamVeraSans-Roman-2212"
                 id="use238" />
              <use
                 x="83.7890625"
                 xlink:href="#BitstreamVeraSans-Roman-31"
                 id="use240" />
            </g>
          </g>
        </g>
        <g
           id="ytick_4">
          <g
             id="line2d_27">
            <path
               clip-path="url(#p7ff5b81e1d)"
               d=" M72 202.708 L518.4 202.708"
               style="fill:none;stroke:#000000;stroke-dasharray:1.000000,3.000000;stroke-dashoffset:0.0;stroke-width:0.5;"
               id="path244" />
          </g>
          <g
             id="line2d_28">
            <g
               id="g247">
              <use
                 style="stroke:#000000;stroke-width:0.5;"
                 x="72.0"
                 xlink:href="#m728421d6d4"
                 y="202.707692308"
                 id="use249" />
            </g>
          </g>
          <g
             id="line2d_29">
            <g
               id="g252">
              <use
                 style="stroke:#000000;stroke-width:0.5;"
                 x="518.4"
                 xlink:href="#mcb0005524f"
                 y="202.707692308"
                 id="use254" />
            </g>
          </g>
          <g
             id="text_10">
            <!-- 0 -->
            <g
               transform="translate(61.953125 206.018942308)scale(0.12 -0.12)"
               id="g257">
              <use
                 xlink:href="#BitstreamVeraSans-Roman-30"
                 id="use259" />
            </g>
          </g>
        </g>
        <g
           id="ytick_5">
          <g
             id="line2d_30">
            <path
               clip-path="url(#p7ff5b81e1d)"
               d=" M72 149.538 L518.4 149.538"
               style="fill:none;stroke:#000000;stroke-dasharray:1.000000,3.000000;stroke-dashoffset:0.0;stroke-width:0.5;"
               id="path263" />
          </g>
          <g
             id="line2d_31">
            <g
               id="g266">
              <use
                 style="stroke:#000000;stroke-width:0.5;"
                 x="72.0"
                 xlink:href="#m728421d6d4"
                 y="149.538461538"
                 id="use268" />
            </g>
          </g>
          <g
             id="line2d_32">
            <g
               id="g271">
              <use
                 style="stroke:#000000;stroke-width:0.5;"
                 x="518.4"
                 xlink:href="#mcb0005524f"
                 y="149.538461538"
                 id="use273" />
            </g>
          </g>
          <g
             id="text_11">
            <!-- 1 -->
            <g
               transform="translate(62.79125 152.849711538)scale(0.12 -0.12)"
               id="g276">
              <use
                 xlink:href="#BitstreamVeraSans-Roman-31"
                 id="use278" />
            </g>
          </g>
        </g>
        <g
           id="ytick_6">
          <g
             id="line2d_33">
            <path
               clip-path="url(#p7ff5b81e1d)"
               d=" M72 96.3692 L518.4 96.3692"
               style="fill:none;stroke:#000000;stroke-dasharray:1.000000,3.000000;stroke-dashoffset:0.0;stroke-width:0.5;"
               id="path282" />
          </g>
          <g
             id="line2d_34">
            <g
               id="g285">
              <use
                 style="stroke:#000000;stroke-width:0.5;"
                 x="72.0"
                 xlink:href="#m728421d6d4"
                 y="96.3692307692"
                 id="use287" />
            </g>
          </g>
          <g
             id="line2d_35">
            <g
               id="g290">
              <use
                 style="stroke:#000000;stroke-width:0.5;"
                 x="518.4"
                 xlink:href="#mcb0005524f"
                 y="96.3692307692"
                 id="use292" />
            </g>
          </g>
          <g
             id="text_12">
            <!-- 2 -->
            <g
               transform="translate(62.44625 99.6804807692)scale(0.12 -0.12)"
               id="g295">
              <use
                 xlink:href="#BitstreamVeraSans-Roman-32"
                 id="use297" />
            </g>
          </g>
        </g>
        <g
           id="ytick_7">
          <g
             id="text_13">
            <!-- 3 -->
            <g
               transform="translate(62.241875 46.51125)scale(0.12 -0.12)"
               id="g301">
              <use
                 xlink:href="#BitstreamVeraSans-Roman-33"
                 id="use303" />
            </g>
          </g>
        </g>
        <g
           id="text_14">
          <!-- 1e−1 -->
          <defs
             id="defs306">
            <path
               d=" M56.2031 29.5938 L56.2031 25.2031 L14.8906 25.2031 Q15.4844 15.9219 20.4844 11.0625 Q25.4844 6.20312 34.4219 6.20312 Q39.5938 6.20312 44.4531 7.46875 Q49.3125 8.73438 54.1094 11.2812 L54.1094 2.78125 Q49.2656 0.734375 44.1875 -0.34375 Q39.1094 -1.42188 33.8906 -1.42188 Q20.7969 -1.42188 13.1562 6.1875 Q5.51562 13.8125 5.51562 26.8125 Q5.51562 40.2344 12.7656 48.1094 Q20.0156 56 32.3281 56 Q43.3594 56 49.7812 48.8906 Q56.2031 41.7969 56.2031 29.5938 M47.2188 32.2344 Q47.125 39.5938 43.0938 43.9844 Q39.0625 48.3906 32.4219 48.3906 Q24.9062 48.3906 20.3906 44.1406 Q15.875 39.8906 15.1875 32.1719 z "
               id="BitstreamVeraSans-Roman-65" />
          </defs>
          <g
             transform="translate(72.0 40.2)scale(0.12 -0.12)"
             id="g309">
            <use
               xlink:href="#BitstreamVeraSans-Roman-31"
               id="use311" />
            <use
               x="63.623046875"
               xlink:href="#BitstreamVeraSans-Roman-65"
               id="use313" />
            <use
               x="125.146484375"
               xlink:href="#BitstreamVeraSans-Roman-2212"
               id="use315" />
            <use
               x="208.935546875"
               xlink:href="#BitstreamVeraSans-Roman-31"
               id="use317" />
          </g>
        </g>
      </g>
      <g
         id="patch_3">
        <path
           d=" M72 43.2 L518.4 43.2"
           style="fill:none;stroke:#000000;"
           id="path320" />
      </g>
      <g
         id="patch_4">
        <path
           d=" M518.4 388.8 L518.4 43.2"
           style="fill:none;stroke:#000000;"
           id="path323" />
      </g>
      <g
         id="patch_5">
        <path
           d=" M72 388.8 L518.4 388.8"
           style="fill:none;stroke:#000000;"
           id="path326" />
      </g>
      <g
         id="patch_6">
        <path
           d=" M72 388.8 L72 43.2"
           style="fill:none;stroke:#000000;"
           id="path329" />
      </g>
      <g
         id="legend_1"
         transform="matrix(0.79381593,0,0,0.77600608,61.532058,8.3570375)"
         style="stroke-linecap:butt;stroke-linejoin:round">
        <g
           id="patch_7"
           style="stroke-linecap:butt;stroke-linejoin:round">
          <path
             d="m 340.8,123.794 167.6,0 0,-70.594 -167.6,0 0,70.594 z"
             style="fill:#ffffff;stroke:#000000;stroke-linecap:butt;stroke-linejoin:round"
             id="path333"
             inkscape:connector-curvature="0" />
        </g>
        <g
           id="line2d_36"
           style="stroke-linecap:butt;stroke-linejoin:round">
          <path
             d="m 354.8,69.3969 28,0"
             style="fill:none;stroke:#0000ff;stroke-width:2;stroke-linecap:square;stroke-linejoin:round"
             id="path336"
             inkscape:connector-curvature="0" />
        </g>
        <g
           id="line2d_37"
           style="stroke-linecap:butt;stroke-linejoin:round" />
        <g
           id="text_15"
           style="stroke-linecap:butt;stroke-linejoin:round">
          <!-- $E_{c} (J)$ -->
          <defs
             id="defs340">
            <path
               d="m 4.6875,0 q -0.96875,0 -0.96875,1.3125 0.04687,0.25 0.1875,0.85938 0.14063,0.60937 0.40625,0.96874 0.28125,0.375 0.67188,0.375 6.09372,0 8.50002,0.6875 1.3125,0.4375 1.8906,2.6875 L 29.1094,61.8125 q 0.1875,0.9844 0.1875,1.375 0,1.0781 -1.2188,1.2187 -1.8593,0.3907 -7.1719,0.3907 -0.9843,0 -0.9843,1.3125 0.0469,0.25 0.1875,0.8594 0.1562,0.6093 0.4218,0.9687 0.2657,0.375 0.6563,0.375 l 54.2031,0 q 1.0313,0 1.0313,-1.3125 L 74.0312,46.2969 q 0,-0.25 -0.375,-0.5781 Q 73.2969,45.4062 73,45.4062 l -0.875,0 q -1.0312,0 -1.0312,1.2813 0.5937,4.875 0.5937,7.2187 0,4 -1.375,6.2188 -1.3594,2.2344 -3.6406,3.2031 -2.2657,0.9844 -5.0313,1.2188 -2.75,0.25 -7.25,0.25 l -11.375,0 q -2.7344,0 -3.6094,-0.4688 -0.875,-0.4531 -1.6093,-2.9531 l -6.0157,-24.1719 7.8126,0 q 5.0781,0 7.6718,0.7031 2.5938,0.7188 4.0938,2.9532 1.5156,2.25 2.75,7.1406 0.0937,0.3438 0.3594,0.6094 0.2656,0.2656 0.6093,0.2656 l 0.9219,0 q 0.9844,0 0.9844,-1.2656 L 50.7812,22.9062 q -0.1874,-0.8906 -0.9687,-0.8906 l -0.9375,0 q -0.9688,0 -0.9688,1.2813 0.9688,4 0.9688,5.9062 0,2.9219 -2.6406,3.7031 -2.625,0.7813 -7.0313,0.7813 l -8.2969,0 L 24.125,6.5 q -0.4375,-1.21875 -0.4375,-2.20312 0,-0.78126 3.4063,-0.78126 l 12.1093,0 q 7.2344,0 11.7188,1.125 4.5,1.125 7.4531,3.57813 2.9531,2.46875 5.0938,6.28125 2.1562,3.8125 5.2343,11.0938 0.1875,0.625 0.875,0.625 l 0.9375,0 q 0.3906,0 0.6719,-0.3438 0.2969,-0.3438 0.2969,-0.7812 0,-0.1876 -0.0938,-0.3907 L 61.0781,0.59375 Q 60.8906,0 60.2969,0 z"
               id="Cmmi10-45"
               inkscape:connector-curvature="0"
               style="stroke-linecap:butt;stroke-linejoin:round" />
            <path
               d="m 11.7188,11.9219 q 0,-4.3594 2.2187,-7.39065 2.2187,-3.01563 6.375,-3.01563 5.9531,0 11.4375,2.73438 5.5,2.73438 8.9688,7.5625 0.2968,0.2969 0.7812,0.2969 0.5,0 1,-0.5625 0.5156,-0.5625 0.5156,-1.0469 0,-0.3906 -0.1875,-0.59375 -3.6719,-5.125 -9.875,-8.07813 Q 26.7656,-1.125 20.125,-1.125 q -4.7969,0 -8.4531,2.26562 Q 8.01562,3.42188 6,7.21875 4,11.0312 4,15.8281 q 0,6.7344 3.76562,13.375 3.76558,6.6407 10.01558,10.8125 6.25,4.1719 13.125,4.1719 4.5,0 8.0782,-2.1719 3.5937,-2.1718 3.5937,-6.4218 0,-2.7344 -1.5937,-4.6719 Q 39.4062,29 36.7188,29 35.1094,29 34,30 q -1.0938,1 -1.0938,2.625 0,2.3438 1.7032,4 1.7187,1.6562 4.0156,1.6562 l 0.1875,0 q -1.1719,1.7032 -3.3906,2.5157 -2.2188,0.8125 -4.6094,0.8125 -5.8594,0 -10.2656,-5.0156 -4.3907,-5 -6.6094,-11.9688 -2.2187,-6.9531 -2.2187,-12.7031"
               id="Cmmi10-63"
               inkscape:connector-curvature="0"
               style="stroke-linecap:butt;stroke-linejoin:round" />
            <path
               d="M 10.8906,6 Q 11.8594,3.21875 14.5,1.79688 q 2.6406,-1.406255 5.7188,-1.406255 3.125,0 6.0312,2.171875 2.9062,2.17188 4.9219,5.4375 2.0312,3.2812 2.8125,6.5 l 11.8125,47.3125 q 0.1093,0.3906 0.125,0.5781 0.0312,0.2032 0.0781,0.4063 0,1.0781 -0.7812,1.3125 -2.6407,0.6875 -10.7032,0.6875 -1.0156,0 -1.0156,1.3125 0.1875,0.7812 0.3125,1.2187 0.125,0.4531 0.4375,0.7188 0.3281,0.2656 0.9531,0.2656 l 27.1094,0 q 0.9687,0 0.9687,-1.3125 -0.3906,-2.2031 -1.2656,-2.2031 -3.5156,0 -5.3281,-0.5469 -1.7969,-0.5312 -2.4844,-2.875 L 42.3906,14.1094 Q 41.2656,9.46875 37.8125,5.73438 34.375,2 29.6406,-0.09375 24.9062,-2.20312 20.125,-2.20312 q -5.2812,0 -9.2656,2.92187 -3.96878,2.9375 -3.96878,7.96875 0,3.3281 1.79688,5.7187 1.8125,2.3907 5.125,2.3907 1.9063,0 3.2031,-1.1719 1.2969,-1.1719 1.2969,-3.0312 0,-2.68755 -2,-4.68755 -2,-2 -4.6875,-2 -0.5469,0 -0.7344,0.09375"
               id="Cmmi10-4a"
               inkscape:connector-curvature="0"
               style="stroke-linecap:butt;stroke-linejoin:round" />
          </defs>
          <g
             transform="matrix(0.2,0,0,-0.2,404.8,76.396875)"
             id="g345"
             style="stroke-linecap:butt;stroke-linejoin:round">
            <use
               xlink:href="#Cmmi10-45"
               id="use347"
               style="stroke-linecap:butt;stroke-linejoin:round"
               x="0"
               y="0"
               width="576"
               height="432" />
            <use
               transform="matrix(0.7,0,0,0.7,73.779297,-25.509375)"
               xlink:href="#Cmmi10-63"
               id="use349"
               style="stroke-linecap:butt;stroke-linejoin:round"
               x="0"
               y="0"
               width="576"
               height="432" />
            <use
               transform="translate(104.02832,0)"
               xlink:href="#Cmr10-28"
               id="use351"
               style="stroke-linecap:butt;stroke-linejoin:round"
               x="0"
               y="0"
               width="576"
               height="432" />
            <use
               transform="translate(142.84668,0)"
               xlink:href="#Cmmi10-4a"
               id="use353"
               style="stroke-linecap:butt;stroke-linejoin:round"
               x="0"
               y="0"
               width="576"
               height="432" />
            <use
               transform="translate(198.2666,0)"
               xlink:href="#Cmr10-29"
               id="use355"
               style="stroke-linecap:butt;stroke-linejoin:round"
               x="0"
               y="0"
               width="576"
               height="432" />
          </g>
        </g>
        <g
           id="line2d_38"
           style="stroke-linecap:butt;stroke-linejoin:round">
          <path
             d="m 354.8,99.9938 28,0"
             style="fill:none;stroke:#0000ff;stroke-width:2;stroke-linecap:butt;stroke-linejoin:round;stroke-dasharray:6, 6;stroke-dashoffset:0"
             id="path358"
             inkscape:connector-curvature="0" />
        </g>
        <g
           id="line2d_39"
           style="stroke-linecap:butt;stroke-linejoin:round" />
        <g
           id="text_16"
           style="stroke-linecap:butt;stroke-linejoin:round">
          <!-- $E_{c|sum Ep} (J)$ -->
          <defs
             id="defs362">
            <path
               d="m 11.9219,-23.1875 0,96.375 q 0,0.7813 0.5781,1.2969 Q 13.0938,75 13.9219,75 q 0.7343,0 1.3593,-0.5156 0.6407,-0.5156 0.6407,-1.2969 l 0,-96.375 q 0,-0.7813 -0.6407,-1.2969 Q 14.6562,-25 13.9219,-25 q -0.8281,0 -1.4219,0.5156 -0.5781,0.5156 -0.5781,1.2969"
               id="Cmsy10-6a"
               inkscape:connector-curvature="0"
               style="stroke-linecap:butt;stroke-linejoin:round" />
            <path
               d="m -2.48438,-19.3906 q -0.9375,0 -0.9375,1.2812 0.34376,2.1875 1.32813,2.1875 3.125,0 4.35937,0.5625 1.25,0.5625 1.9375,2.8594 L 15.4844,32.5156 q 0.7344,1.8594 0.7344,4.7969 0,4.2969 -2.9376,4.2969 -3.125,0 -4.64058,-3.75 Q 7.125,34.125 5.71875,28.4219 q 0,-0.6407 -0.82813,-0.6407 l -1.17187,0 q -0.25,0 -0.54687,0.3594 -0.29688,0.375 -0.29688,0.6719 1.07812,4.3437 2.07812,7.3594 1,3.0312 3.125,5.5156 2.12498,2.5 5.29688,2.5 3.4219,0 6,-1.9375 2.5938,-1.9219 3.3281,-5.2344 2.7344,3.1719 6.0469,5.1719 3.3281,2 6.8438,2 4.2031,0 7.2968,-2.25 3.1094,-2.2344 4.6719,-5.875 1.5625,-3.6406 1.5625,-7.8437 0,-6.4376 -3.2969,-13.3282 Q 42.5312,8.01562 36.8906,3.4375 31.25,-1.125 24.8125,-1.125 21.875,-1.125 19.5,0.53125 17.1406,2.20312 15.8281,4.89062 L 11.2812,-12.8906 q -0.25,-1.4688 -0.2968,-1.7032 0,-1.3281 6.5937,-1.3281 1.0313,0 1.0313,-1.2656 -0.3438,-1.3125 -0.5625,-1.75 -0.2188,-0.4531 -1.1563,-0.4531 z M 24.9062,1.51562 q 3.4688,0 6.4376,2.85938 2.9843,2.85938 4.8437,6.4219 1.3594,2.6875 2.5469,6.5625 1.2031,3.875 2.0781,8.2656 0.8906,4.4062 0.8906,7 0,2.2812 -0.6093,4.2812 -0.6094,2.0157 -2,3.3594 -1.3907,1.3438 -3.6876,1.3438 -3.6718,0 -6.9218,-2.625 -3.2344,-2.6094 -5.875,-6.4688 l 0,-0.3437 -5.5156,-22.0625 q 0.6874,-3.56252 2.6406,-6.07815 1.9531,-2.51563 5.1718,-2.51563"
               id="Cmmi10-70"
               inkscape:connector-curvature="0"
               style="stroke-linecap:butt;stroke-linejoin:round" />
            <path
               d="m 10.5938,10.8906 q 0,3.2656 0.875,6.7032 0.8906,3.4531 2.4687,7.6718 1.5937,4.2344 2.7656,7.3594 1.3125,3.6562 1.3125,6 0,2.9844 -2.1875,2.9844 -3.9687,0 -6.53122,-4.0782 Q 6.73438,33.4531 5.51562,28.4219 5.32812,27.7812 4.6875,27.7812 l -1.17188,0 q -0.82812,0 -0.82812,0.9376 l 0,0.2812 q 1.60938,5.9688 4.92188,10.5781 3.32812,4.6094 8.40622,4.6094 3.5625,0 6.0313,-2.3437 2.4687,-2.3438 2.4687,-5.9532 0,-1.8594 -0.8281,-3.9062 -0.4375,-1.2188 -2,-5.3282 -1.5625,-4.0937 -2.4063,-6.7812 -0.8281,-2.6875 -1.3593,-5.2812 -0.5313,-2.5782 -0.5313,-5.17192 0,-3.3125 1.4063,-5.60938 1.4219,-2.29688 4.5937,-2.29688 6.3906,0 11.2344,7.90626 0.0938,0.39062 0.1562,0.75002 0.0782,0.375 0.125,0.7187 l 7.1876,29 q 0.3437,1.3282 1.5624,2.2656 1.2188,0.9532 2.6407,0.9532 1.2187,0 2.1093,-0.7813 0.9063,-0.7812 0.9063,-2.0469 0,-0.5781 -0.0937,-0.7812 L 42,10.6875 q -0.6875,-2.96875 -0.6875,-4.875 0,-4.29688 2.875,-4.29688 3.2187,0 4.8125,3.96876 1.5938,3.98437 2.7031,9.21872 0.2031,0.5781 0.7813,0.5781 l 1.2344,0 q 0.3906,0 0.625,-0.3437 0.25,-0.3437 0.25,-0.625 -1.0782,-4.2969 -2.0782,-7.375 -1,-3.07812 -3.1562,-5.57812 Q 47.2188,-1.125 44,-1.125 q -3.1719,0 -5.6875,1.734375 Q 35.7969,2.34375 34.9062,5.32812 32.625,2.39062 29.5938,0.625 q -3.0313,-1.75 -6.4063,-1.75 -5.75,0 -9.1719,3.14062 -3.4218,3.15626 -3.4218,8.87498"
               id="Cmmi10-75"
               inkscape:connector-curvature="0"
               style="stroke-linecap:butt;stroke-linejoin:round" />
          </defs>
          <g
             transform="matrix(0.2,0,0,-0.2,404.8,106.99375)"
             id="g367"
             style="stroke-linecap:butt;stroke-linejoin:round">
            <use
               xlink:href="#Cmmi10-45"
               id="use369"
               style="stroke-linecap:butt;stroke-linejoin:round"
               x="0"
               y="0"
               width="576"
               height="432" />
            <use
               transform="matrix(0.7,0,0,0.7,73.779297,-25.509375)"
               xlink:href="#Cmmi10-63"
               id="use371"
               style="stroke-linecap:butt;stroke-linejoin:round"
               x="0"
               y="0"
               width="576"
               height="432" />
            <use
               transform="matrix(0.7,0,0,0.7,104.02832,-25.509375)"
               xlink:href="#Cmsy10-6a"
               id="use373"
               style="stroke-linecap:butt;stroke-linejoin:round"
               x="0"
               y="0"
               width="576"
               height="432" />
            <use
               transform="matrix(0.7,0,0,0.7,123.4082,-25.509375)"
               xlink:href="#Cmmi10-73"
               id="use375"
               style="stroke-linecap:butt;stroke-linejoin:round"
               x="0"
               y="0"
               width="576"
               height="432" />
            <use
               transform="matrix(0.7,0,0,0.7,156.15234,-25.509375)"
               xlink:href="#Cmmi10-75"
               id="use377"
               style="stroke-linecap:butt;stroke-linejoin:round"
               x="0"
               y="0"
               width="576"
               height="432" />
            <use
               transform="matrix(0.7,0,0,0.7,196.17676,-25.509375)"
               xlink:href="#Cmmi10-6d"
               id="use379"
               style="stroke-linecap:butt;stroke-linejoin:round"
               x="0"
               y="0"
               width="576"
               height="432" />
            <use
               transform="matrix(0.7,0,0,0.7,257.63184,-25.509375)"
               xlink:href="#Cmmi10-45"
               id="use381"
               style="stroke-linecap:butt;stroke-linejoin:round"
               x="0"
               y="0"
               width="576"
               height="432" />
            <use
               transform="matrix(0.7,0,0,0.7,309.27734,-25.509375)"
               xlink:href="#Cmmi10-70"
               id="use383"
               style="stroke-linecap:butt;stroke-linejoin:round"
               x="0"
               y="0"
               width="576"
               height="432" />
            <use
               transform="translate(344.48242,0)"
               xlink:href="#Cmr10-28"
               id="use385"
               style="stroke-linecap:butt;stroke-linejoin:round"
               x="0"
               y="0"
               width="576"
               height="432" />
            <use
               transform="translate(383.30078,0)"
               xlink:href="#Cmmi10-4a"
               id="use387"
               style="stroke-linecap:butt;stroke-linejoin:round"
               x="0"
               y="0"
               width="576"
               height="432" />
            <use
               transform="translate(438.7207,0)"
               xlink:href="#Cmr10-29"
               id="use389"
               style="stroke-linecap:butt;stroke-linejoin:round"
               x="0"
               y="0"
               width="576"
               height="432" />
          </g>
        </g>
      </g>
    </g>
  </g>
  <defs
     id="defs391">
    <clipPath
       id="p7ff5b81e1d">
      <rect
         height="345.6"
         width="446.4"
         x="72.0"
         y="43.2"
         id="rect394" />
    </clipPath>
  </defs>
</svg>
