<?xml version="1.0" encoding="UTF-8" standalone="no"?>
<!-- Created with matplotlib (http://matplotlib.org/) -->

<svg
   xmlns:dc="http://purl.org/dc/elements/1.1/"
   xmlns:cc="http://creativecommons.org/ns#"
   xmlns:rdf="http://www.w3.org/1999/02/22-rdf-syntax-ns#"
   xmlns:svg="http://www.w3.org/2000/svg"
   xmlns="http://www.w3.org/2000/svg"
   xmlns:xlink="http://www.w3.org/1999/xlink"
   xmlns:sodipodi="http://sodipodi.sourceforge.net/DTD/sodipodi-0.dtd"
   xmlns:inkscape="http://www.inkscape.org/namespaces/inkscape"
   height="432pt"
   version="1.1"
   viewBox="0 0 576 432"
   width="576pt"
   id="svg2"
   inkscape:version="0.48.3.1 r9886"
   sodipodi:docname="ep_contact_selon_x_seul_!!!!.svg">
  <metadata
     id="metadata467">
    <rdf:RDF>
      <cc:Work
         rdf:about="">
        <dc:format>image/svg+xml</dc:format>
        <dc:type
           rdf:resource="http://purl.org/dc/dcmitype/StillImage" />
      </cc:Work>
    </rdf:RDF>
  </metadata>
  <sodipodi:namedview
     pagecolor="#ffffff"
     bordercolor="#666666"
     borderopacity="1"
     objecttolerance="10"
     gridtolerance="10"
     guidetolerance="10"
     inkscape:pageopacity="0"
     inkscape:pageshadow="2"
     inkscape:window-width="1855"
     inkscape:window-height="1056"
     id="namedview465"
     showgrid="false"
     inkscape:zoom="0.81111111"
     inkscape:cx="509.89557"
     inkscape:cy="379.61297"
     inkscape:window-x="65"
     inkscape:window-y="24"
     inkscape:window-maximized="1"
     inkscape:current-layer="axes_1" />
  <defs
     id="defs4">
    <style
       type="text/css"
       id="style6">
*{stroke-linecap:butt;stroke-linejoin:round;}
  </style>
  </defs>
  <g
     id="figure_1">
    <g
       id="axes_1">
      <g
         id="g3444">
        <g
           id="patch_2">
          <path
             id="path14"
             style="fill:#ffffff;"
             d=" M72 388.8 L518.4 388.8 L518.4 43.2 L72 43.2 z " />
        </g>
        <g
           id="line2d_1">
          <path
             id="path17"
             style="fill:none;stroke:#0000ff;stroke-linecap:square;stroke-width:2.0;"
             d=" M71.4284 386.057 L429.234 386.057 L429.806 297.777 L430.377 318.901 L430.949 332.893 L431.521 341.583 L432.092 345.911 L432.664 347.574 L433.235 347.804 L433.807 346.527 L434.95 343.209 L435.522 342.07 L436.093 386.057 L436.665 374.327 L437.236 372.189 L438.38 365.542 L438.951 342.813 L439.523 333.177 L440.666 341.887 L441.237 344.885 L441.809 346.926 L442.381 348.491 L442.952 348.929 L443.524 348.894 L444.095 348.556 L445.238 347.425 L448.096 344.37 L448.668 344.156 L449.239 340.911 L449.811 341.701 L450.383 341.365 L450.954 386.057 L451.526 360.357 L452.097 353.463 L452.669 348.042 L453.24 343.869 L453.812 344.222 L454.384 272.071 L454.955 275.726 L455.527 285.365 L456.098 298.514 L457.241 313.827 L457.813 316.518 L458.385 324.789 L458.956 325.431 L459.528 327.521 L460.099 327.836 L460.671 327.717 L461.814 326.867 L462.386 326.351 L464.1 324.124 L465.244 323.418 L466.958 320.923 L469.245 318.036 L470.388 317.275 L470.959 316.158 L471.531 315.335 L472.102 314.247 L472.674 319.904 L473.246 308.741 L473.817 301.145 L474.389 301.501 L474.96 303.627 L475.532 305.037 L476.103 305.593 L476.675 305.608 L477.247 313.366 L477.818 299.853 L478.39 303.149 L478.961 293.609 L479.533 297.634 L480.104 297.331 L481.248 205.747 L481.819 227.572 L482.391 239.394 L482.962 269.471 L484.106 279.972 L484.677 282.518 L485.249 283.655 L485.82 282.649 L486.392 282.48 L486.963 279.743 L487.535 266.51 L488.107 283.684 L488.678 276.837 L489.821 272.419 L491.536 267.218 L492.108 254.264 L492.679 247.392 L493.251 250.911 L493.822 253.319 L494.394 254.538 L494.965 238.5 L495.537 247.066 L496.109 228.163 L496.68 192.263 L497.252 225.914 L497.823 227.934 L498.395 216.738 L498.966 230.288 L499.538 232.265 L500.11 232.48 L500.681 231.501 L501.253 229.817 L502.396 225.559 L502.967 216.677 L503.539 200.124 L504.111 204.672 L504.682 207.675 L505.254 158.223 L505.825 138.372 L506.397 159.618 L506.969 173.095 L507.54 182.238 L508.112 186.612 L508.683 187.899 L509.255 187.769 L509.826 185.916 L512.113 175.547 L512.684 171.452 L513.256 64.2501 L513.827 66.9477 L514.971 112.748 L515.542 122.924 L516.114 128.555 L516.685 129.995 L517.257 128.824 L517.828 93.6974 L518.4 143.402 L518.972 118.756 L518.972 118.756"
             clip-path="url(#p7ff5b81e1d)" />
        </g>
        <g
           id="matplotlib.axis_1">
          <g
             id="xtick_1">
            <g
               id="line2d_2">
              <path
                 id="path22"
                 style="fill:none;stroke:#000000;stroke-dasharray:1.000000,3.000000;stroke-dashoffset:0.0;stroke-width:0.5;"
                 d=" M100.579 388.8 L100.579 43.2"
                 clip-path="url(#p7ff5b81e1d)" />
            </g>
            <g
               id="line2d_3">
              <defs
                 id="defs25">
                <path
                   style="stroke:#000000;stroke-width:0.5;"
                   id="m93b0483c22"
                   d=" M0 0 L0 -4" />
              </defs>
              <g
                 id="g28">
                <use
                   id="use30"
                   y="388.8"
                   xlink:href="#m93b0483c22"
                   x="100.578745198"
                   style="stroke:#000000;stroke-width:0.5;" />
              </g>
            </g>
            <g
               id="line2d_4">
              <defs
                 id="defs33">
                <path
                   style="stroke:#000000;stroke-width:0.5;"
                   id="m741efc42ff"
                   d=" M0 0 L0 4" />
              </defs>
              <g
                 id="g36">
                <use
                   id="use38"
                   y="43.2"
                   xlink:href="#m741efc42ff"
                   x="100.578745198"
                   style="stroke:#000000;stroke-width:0.5;" />
              </g>
            </g>
            <g
               id="text_1">
              <!-- 2.8 -->
              <defs
                 id="defs41">
                <path
                   id="BitstreamVeraSans-Roman-32"
                   d=" M19.1875 8.29688 L53.6094 8.29688 L53.6094 0 L7.32812 0 L7.32812 8.29688 Q12.9375 14.1094 22.625 23.8906 Q32.3281 33.6875 34.8125 36.5312 Q39.5469 41.8438 41.4219 45.5312 Q43.3125 49.2188 43.3125 52.7812 Q43.3125 58.5938 39.2344 62.25 Q35.1562 65.9219 28.6094 65.9219 Q23.9688 65.9219 18.8125 64.3125 Q13.6719 62.7031 7.8125 59.4219 L7.8125 69.3906 Q13.7656 71.7812 18.9375 73 Q24.125 74.2188 28.4219 74.2188 Q39.75 74.2188 46.4844 68.5469 Q53.2188 62.8906 53.2188 53.4219 Q53.2188 48.9219 51.5312 44.8906 Q49.8594 40.875 45.4062 35.4062 Q44.1875 33.9844 37.6406 27.2188 Q31.1094 20.4531 19.1875 8.29688" />
                <path
                   id="BitstreamVeraSans-Roman-38"
                   d=" M31.7812 34.625 Q24.75 34.625 20.7188 30.8594 Q16.7031 27.0938 16.7031 20.5156 Q16.7031 13.9219 20.7188 10.1562 Q24.75 6.39062 31.7812 6.39062 Q38.8125 6.39062 42.8594 10.1719 Q46.9219 13.9688 46.9219 20.5156 Q46.9219 27.0938 42.8906 30.8594 Q38.875 34.625 31.7812 34.625 M21.9219 38.8125 Q15.5781 40.375 12.0312 44.7188 Q8.5 49.0781 8.5 55.3281 Q8.5 64.0625 14.7188 69.1406 Q20.9531 74.2188 31.7812 74.2188 Q42.6719 74.2188 48.875 69.1406 Q55.0781 64.0625 55.0781 55.3281 Q55.0781 49.0781 51.5312 44.7188 Q48 40.375 41.7031 38.8125 Q48.8281 37.1562 52.7969 32.3125 Q56.7812 27.4844 56.7812 20.5156 Q56.7812 9.90625 50.3125 4.23438 Q43.8438 -1.42188 31.7812 -1.42188 Q19.7344 -1.42188 13.25 4.23438 Q6.78125 9.90625 6.78125 20.5156 Q6.78125 27.4844 10.7812 32.3125 Q14.7969 37.1562 21.9219 38.8125 M18.3125 54.3906 Q18.3125 48.7344 21.8438 45.5625 Q25.3906 42.3906 31.7812 42.3906 Q38.1406 42.3906 41.7188 45.5625 Q45.3125 48.7344 45.3125 54.3906 Q45.3125 60.0625 41.7188 63.2344 Q38.1406 66.4062 31.7812 66.4062 Q25.3906 66.4062 21.8438 63.2344 Q18.3125 60.0625 18.3125 54.3906" />
                <path
                   id="BitstreamVeraSans-Roman-2e"
                   d=" M10.6875 12.4062 L21 12.4062 L21 0 L10.6875 0 z " />
              </defs>
              <g
                 id="g46"
                 transform="translate(91.8871826985 401.918125)scale(0.12 -0.12)">
                <use
                   id="use48"
                   xlink:href="#BitstreamVeraSans-Roman-32" />
                <use
                   id="use50"
                   xlink:href="#BitstreamVeraSans-Roman-2e"
                   x="63.623046875" />
                <use
                   id="use52"
                   xlink:href="#BitstreamVeraSans-Roman-38"
                   x="95.41015625" />
              </g>
            </g>
          </g>
          <g
             id="xtick_2">
            <g
               id="line2d_5">
              <path
                 id="path56"
                 style="fill:none;stroke:#000000;stroke-dasharray:1.000000,3.000000;stroke-dashoffset:0.0;stroke-width:0.5;"
                 d=" M157.736 388.8 L157.736 43.2"
                 clip-path="url(#p7ff5b81e1d)" />
            </g>
            <g
               id="line2d_6">
              <g
                 id="g59">
                <use
                   id="use61"
                   y="388.8"
                   xlink:href="#m93b0483c22"
                   x="157.736235595"
                   style="stroke:#000000;stroke-width:0.5;" />
              </g>
            </g>
            <g
               id="line2d_7">
              <g
                 id="g64">
                <use
                   id="use66"
                   y="43.2"
                   xlink:href="#m741efc42ff"
                   x="157.736235595"
                   style="stroke:#000000;stroke-width:0.5;" />
              </g>
            </g>
            <g
               id="text_2">
              <!-- 2.9 -->
              <defs
                 id="defs69">
                <path
                   id="BitstreamVeraSans-Roman-39"
                   d=" M10.9844 1.51562 L10.9844 10.5 Q14.7031 8.73438 18.5 7.8125 Q22.3125 6.89062 25.9844 6.89062 Q35.75 6.89062 40.8906 13.4531 Q46.0469 20.0156 46.7812 33.4062 Q43.9531 29.2031 39.5938 26.9531 Q35.25 24.7031 29.9844 24.7031 Q19.0469 24.7031 12.6719 31.3125 Q6.29688 37.9375 6.29688 49.4219 Q6.29688 60.6406 12.9375 67.4219 Q19.5781 74.2188 30.6094 74.2188 Q43.2656 74.2188 49.9219 64.5156 Q56.5938 54.8281 56.5938 36.375 Q56.5938 19.1406 48.4062 8.85938 Q40.2344 -1.42188 26.4219 -1.42188 Q22.7031 -1.42188 18.8906 -0.6875 Q15.0938 0.046875 10.9844 1.51562 M30.6094 32.4219 Q37.25 32.4219 41.125 36.9531 Q45.0156 41.5 45.0156 49.4219 Q45.0156 57.2812 41.125 61.8438 Q37.25 66.4062 30.6094 66.4062 Q23.9688 66.4062 20.0938 61.8438 Q16.2188 57.2812 16.2188 49.4219 Q16.2188 41.5 20.0938 36.9531 Q23.9688 32.4219 30.6094 32.4219" />
              </defs>
              <g
                 id="g72"
                 transform="translate(149.055923095 401.918125)scale(0.12 -0.12)">
                <use
                   id="use74"
                   xlink:href="#BitstreamVeraSans-Roman-32" />
                <use
                   id="use76"
                   xlink:href="#BitstreamVeraSans-Roman-2e"
                   x="63.623046875" />
                <use
                   id="use78"
                   xlink:href="#BitstreamVeraSans-Roman-39"
                   x="95.41015625" />
              </g>
            </g>
          </g>
          <g
             id="xtick_3">
            <g
               id="line2d_8">
              <path
                 id="path82"
                 style="fill:none;stroke:#000000;stroke-dasharray:1.000000,3.000000;stroke-dashoffset:0.0;stroke-width:0.5;"
                 d=" M214.894 388.8 L214.894 43.2"
                 clip-path="url(#p7ff5b81e1d)" />
            </g>
            <g
               id="line2d_9">
              <g
                 id="g85">
                <use
                   id="use87"
                   y="388.8"
                   xlink:href="#m93b0483c22"
                   x="214.893725992"
                   style="stroke:#000000;stroke-width:0.5;" />
              </g>
            </g>
            <g
               id="line2d_10">
              <g
                 id="g90">
                <use
                   id="use92"
                   y="43.2"
                   xlink:href="#m741efc42ff"
                   x="214.893725992"
                   style="stroke:#000000;stroke-width:0.5;" />
              </g>
            </g>
            <g
               id="text_3">
              <!-- 3.0 -->
              <defs
                 id="defs95">
                <path
                   id="BitstreamVeraSans-Roman-33"
                   d=" M40.5781 39.3125 Q47.6562 37.7969 51.625 33 Q55.6094 28.2188 55.6094 21.1875 Q55.6094 10.4062 48.1875 4.48438 Q40.7656 -1.42188 27.0938 -1.42188 Q22.5156 -1.42188 17.6562 -0.515625 Q12.7969 0.390625 7.625 2.20312 L7.625 11.7188 Q11.7188 9.32812 16.5938 8.10938 Q21.4844 6.89062 26.8125 6.89062 Q36.0781 6.89062 40.9375 10.5469 Q45.7969 14.2031 45.7969 21.1875 Q45.7969 27.6406 41.2812 31.2656 Q36.7656 34.9062 28.7188 34.9062 L20.2188 34.9062 L20.2188 43.0156 L29.1094 43.0156 Q36.375 43.0156 40.2344 45.9219 Q44.0938 48.8281 44.0938 54.2969 Q44.0938 59.9062 40.1094 62.9062 Q36.1406 65.9219 28.7188 65.9219 Q24.6562 65.9219 20.0156 65.0312 Q15.375 64.1562 9.8125 62.3125 L9.8125 71.0938 Q15.4375 72.6562 20.3438 73.4375 Q25.25 74.2188 29.5938 74.2188 Q40.8281 74.2188 47.3594 69.1094 Q53.9062 64.0156 53.9062 55.3281 Q53.9062 49.2656 50.4375 45.0938 Q46.9688 40.9219 40.5781 39.3125" />
                <path
                   id="BitstreamVeraSans-Roman-30"
                   d=" M31.7812 66.4062 Q24.1719 66.4062 20.3281 58.9062 Q16.5 51.4219 16.5 36.375 Q16.5 21.3906 20.3281 13.8906 Q24.1719 6.39062 31.7812 6.39062 Q39.4531 6.39062 43.2812 13.8906 Q47.125 21.3906 47.125 36.375 Q47.125 51.4219 43.2812 58.9062 Q39.4531 66.4062 31.7812 66.4062 M31.7812 74.2188 Q44.0469 74.2188 50.5156 64.5156 Q56.9844 54.8281 56.9844 36.375 Q56.9844 17.9688 50.5156 8.26562 Q44.0469 -1.42188 31.7812 -1.42188 Q19.5312 -1.42188 13.0625 8.26562 Q6.59375 17.9688 6.59375 36.375 Q6.59375 54.8281 13.0625 64.5156 Q19.5312 74.2188 31.7812 74.2188" />
              </defs>
              <g
                 id="g99"
                 transform="translate(206.207788492 401.918125)scale(0.12 -0.12)">
                <use
                   id="use101"
                   xlink:href="#BitstreamVeraSans-Roman-33" />
                <use
                   id="use103"
                   xlink:href="#BitstreamVeraSans-Roman-2e"
                   x="63.623046875" />
                <use
                   id="use105"
                   xlink:href="#BitstreamVeraSans-Roman-30"
                   x="95.41015625" />
              </g>
            </g>
          </g>
          <g
             id="xtick_4">
            <g
               id="line2d_11">
              <path
                 id="path109"
                 style="fill:none;stroke:#000000;stroke-dasharray:1.000000,3.000000;stroke-dashoffset:0.0;stroke-width:0.5;"
                 d=" M272.051 388.8 L272.051 43.2"
                 clip-path="url(#p7ff5b81e1d)" />
            </g>
            <g
               id="line2d_12">
              <g
                 id="g112">
                <use
                   id="use114"
                   y="388.8"
                   xlink:href="#m93b0483c22"
                   x="272.051216389"
                   style="stroke:#000000;stroke-width:0.5;" />
              </g>
            </g>
            <g
               id="line2d_13">
              <g
                 id="g117">
                <use
                   id="use119"
                   y="43.2"
                   xlink:href="#m741efc42ff"
                   x="272.051216389"
                   style="stroke:#000000;stroke-width:0.5;" />
              </g>
            </g>
            <g
               id="text_4">
              <!-- 3.1 -->
              <defs
                 id="defs122">
                <path
                   id="BitstreamVeraSans-Roman-31"
                   d=" M12.4062 8.29688 L28.5156 8.29688 L28.5156 63.9219 L10.9844 60.4062 L10.9844 69.3906 L28.4219 72.9062 L38.2812 72.9062 L38.2812 8.29688 L54.3906 8.29688 L54.3906 0 L12.4062 0 z " />
              </defs>
              <g
                 id="g125"
                 transform="translate(263.520903889 401.918125)scale(0.12 -0.12)">
                <use
                   id="use127"
                   xlink:href="#BitstreamVeraSans-Roman-33" />
                <use
                   id="use129"
                   xlink:href="#BitstreamVeraSans-Roman-2e"
                   x="63.623046875" />
                <use
                   id="use131"
                   xlink:href="#BitstreamVeraSans-Roman-31"
                   x="95.41015625" />
              </g>
            </g>
          </g>
          <g
             id="xtick_5">
            <g
               id="line2d_14">
              <path
                 id="path135"
                 style="fill:none;stroke:#000000;stroke-dasharray:1.000000,3.000000;stroke-dashoffset:0.0;stroke-width:0.5;"
                 d=" M329.209 388.8 L329.209 43.2"
                 clip-path="url(#p7ff5b81e1d)" />
            </g>
            <g
               id="line2d_15">
              <g
                 id="g138">
                <use
                   id="use140"
                   y="388.8"
                   xlink:href="#m93b0483c22"
                   x="329.208706786"
                   style="stroke:#000000;stroke-width:0.5;" />
              </g>
            </g>
            <g
               id="line2d_16">
              <g
                 id="g143">
                <use
                   id="use145"
                   y="43.2"
                   xlink:href="#m741efc42ff"
                   x="329.208706786"
                   style="stroke:#000000;stroke-width:0.5;" />
              </g>
            </g>
            <g
               id="text_5">
              <!-- 3.2 -->
              <g
                 id="g148"
                 transform="translate(320.725269286 401.918125)scale(0.12 -0.12)">
                <use
                   id="use150"
                   xlink:href="#BitstreamVeraSans-Roman-33" />
                <use
                   id="use152"
                   xlink:href="#BitstreamVeraSans-Roman-2e"
                   x="63.623046875" />
                <use
                   id="use154"
                   xlink:href="#BitstreamVeraSans-Roman-32"
                   x="95.41015625" />
              </g>
            </g>
          </g>
          <g
             id="xtick_6">
            <g
               id="line2d_17">
              <path
                 id="path158"
                 style="fill:none;stroke:#000000;stroke-dasharray:1.000000,3.000000;stroke-dashoffset:0.0;stroke-width:0.5;"
                 d=" M386.366 388.8 L386.366 43.2"
                 clip-path="url(#p7ff5b81e1d)" />
            </g>
            <g
               id="line2d_18">
              <g
                 id="g161">
                <use
                   id="use163"
                   y="388.8"
                   xlink:href="#m93b0483c22"
                   x="386.366197183"
                   style="stroke:#000000;stroke-width:0.5;" />
              </g>
            </g>
            <g
               id="line2d_19">
              <g
                 id="g166">
                <use
                   id="use168"
                   y="43.2"
                   xlink:href="#m741efc42ff"
                   x="386.366197183"
                   style="stroke:#000000;stroke-width:0.5;" />
              </g>
            </g>
            <g
               id="text_6">
              <!-- 3.3 -->
              <g
                 id="g171"
                 transform="translate(377.762759683 401.918125)scale(0.12 -0.12)">
                <use
                   id="use173"
                   xlink:href="#BitstreamVeraSans-Roman-33" />
                <use
                   id="use175"
                   xlink:href="#BitstreamVeraSans-Roman-2e"
                   x="63.623046875" />
                <use
                   id="use177"
                   xlink:href="#BitstreamVeraSans-Roman-33"
                   x="95.41015625" />
              </g>
            </g>
          </g>
          <g
             id="xtick_7">
            <g
               id="line2d_20">
              <path
                 id="path181"
                 style="fill:none;stroke:#000000;stroke-dasharray:1.000000,3.000000;stroke-dashoffset:0.0;stroke-width:0.5;"
                 d=" M443.524 388.8 L443.524 43.2"
                 clip-path="url(#p7ff5b81e1d)" />
            </g>
            <g
               id="line2d_21">
              <g
                 id="g184">
                <use
                   id="use186"
                   y="388.8"
                   xlink:href="#m93b0483c22"
                   x="443.52368758"
                   style="stroke:#000000;stroke-width:0.5;" />
              </g>
            </g>
            <g
               id="line2d_22">
              <g
                 id="g189">
                <use
                   id="use191"
                   y="43.2"
                   xlink:href="#m741efc42ff"
                   x="443.52368758"
                   style="stroke:#000000;stroke-width:0.5;" />
              </g>
            </g>
            <g
               id="text_7">
              <!-- 3.4 -->
              <defs
                 id="defs194">
                <path
                   id="BitstreamVeraSans-Roman-34"
                   d=" M37.7969 64.3125 L12.8906 25.3906 L37.7969 25.3906 z  M35.2031 72.9062 L47.6094 72.9062 L47.6094 25.3906 L58.0156 25.3906 L58.0156 17.1875 L47.6094 17.1875 L47.6094 0 L37.7969 0 L37.7969 17.1875 L4.89062 17.1875 L4.89062 26.7031 z " />
              </defs>
              <g
                 id="g197"
                 transform="translate(434.77587508 401.918125)scale(0.12 -0.12)">
                <use
                   id="use199"
                   xlink:href="#BitstreamVeraSans-Roman-33" />
                <use
                   id="use201"
                   xlink:href="#BitstreamVeraSans-Roman-2e"
                   x="63.623046875" />
                <use
                   id="use203"
                   xlink:href="#BitstreamVeraSans-Roman-34"
                   x="95.41015625" />
              </g>
            </g>
          </g>
          <g
             id="xtick_8">
            <g
               id="line2d_23">
              <path
                 id="path207"
                 style="fill:none;stroke:#000000;stroke-dasharray:1.000000,3.000000;stroke-dashoffset:0.0;stroke-width:0.5;"
                 d=" M500.681 388.8 L500.681 43.2"
                 clip-path="url(#p7ff5b81e1d)" />
            </g>
            <g
               id="line2d_24">
              <g
                 id="g210">
                <use
                   id="use212"
                   y="388.8"
                   xlink:href="#m93b0483c22"
                   x="500.681177977"
                   style="stroke:#000000;stroke-width:0.5;" />
              </g>
            </g>
            <g
               id="line2d_25">
              <g
                 id="g215">
                <use
                   id="use217"
                   y="43.2"
                   xlink:href="#m741efc42ff"
                   x="500.681177977"
                   style="stroke:#000000;stroke-width:0.5;" />
              </g>
            </g>
            <g
               id="text_8">
              <!-- 3.5 -->
              <defs
                 id="defs220">
                <path
                   id="BitstreamVeraSans-Roman-35"
                   d=" M10.7969 72.9062 L49.5156 72.9062 L49.5156 64.5938 L19.8281 64.5938 L19.8281 46.7344 Q21.9688 47.4688 24.1094 47.8281 Q26.2656 48.1875 28.4219 48.1875 Q40.625 48.1875 47.75 41.5 Q54.8906 34.8125 54.8906 23.3906 Q54.8906 11.625 47.5625 5.09375 Q40.2344 -1.42188 26.9062 -1.42188 Q22.3125 -1.42188 17.5469 -0.640625 Q12.7969 0.140625 7.71875 1.70312 L7.71875 11.625 Q12.1094 9.23438 16.7969 8.0625 Q21.4844 6.89062 26.7031 6.89062 Q35.1562 6.89062 40.0781 11.3281 Q45.0156 15.7656 45.0156 23.3906 Q45.0156 31 40.0781 35.4375 Q35.1562 39.8906 26.7031 39.8906 Q22.75 39.8906 18.8125 39.0156 Q14.8906 38.1406 10.7969 36.2812 z " />
              </defs>
              <g
                 id="g223"
                 transform="translate(492.120865477 401.918125)scale(0.12 -0.12)">
                <use
                   id="use225"
                   xlink:href="#BitstreamVeraSans-Roman-33" />
                <use
                   id="use227"
                   xlink:href="#BitstreamVeraSans-Roman-2e"
                   x="63.623046875" />
                <use
                   id="use229"
                   xlink:href="#BitstreamVeraSans-Roman-35"
                   x="95.41015625" />
              </g>
            </g>
          </g>
          <g
             id="text_9">
            <!-- $time (s)$ -->
            <defs
               id="defs232">
              <path
                 id="Cmmi10-6d"
                 d=" M7.71875 1.70312 Q7.71875 2.29688 7.8125 2.59375 L15.2812 32.4219 Q16.0156 35.2031 16.0156 37.3125 Q16.0156 41.6094 13.0938 41.6094 Q9.96875 41.6094 8.45312 37.8594 Q6.9375 34.125 5.51562 28.4219 Q5.51562 28.125 5.21875 27.9531 Q4.9375 27.7812 4.6875 27.7812 L3.51562 27.7812 Q3.17188 27.7812 2.92188 28.1406 Q2.6875 28.5156 2.6875 28.8125 Q3.76562 33.1562 4.76562 36.1719 Q5.76562 39.2031 7.89062 41.6875 Q10.0156 44.1875 13.1875 44.1875 Q16.9375 44.1875 19.8125 41.8125 Q22.7031 39.4531 22.7031 35.7969 Q25.6875 39.7031 29.6875 41.9375 Q33.6875 44.1875 38.1875 44.1875 Q42.9219 44.1875 46.3594 41.7656 Q49.8125 39.3594 49.8125 34.9062 Q52.875 39.2656 57 41.7188 Q61.1406 44.1875 66.0156 44.1875 Q71.1875 44.1875 74.3281 41.375 Q77.4844 38.5781 77.4844 33.4062 Q77.4844 29.2969 75.6562 23.4844 Q73.8281 17.6719 71.0938 10.5 Q69.6719 7.03125 69.6719 4.5 Q69.6719 1.51562 72.0156 1.51562 Q75.9219 1.51562 78.5156 5.70312 Q81.1094 9.90625 82.1719 14.7031 Q82.4688 15.2812 83.0156 15.2812 L84.1875 15.2812 Q84.5781 15.2812 84.8438 15.0156 Q85.1094 14.75 85.1094 14.4062 Q85.1094 14.3125 85.0156 14.1094 Q83.6406 8.45312 80.25 3.65625 Q76.8594 -1.125 71.7812 -1.125 Q68.2656 -1.125 65.7656 1.29688 Q63.2812 3.71875 63.2812 7.17188 Q63.2812 8.9375 64.1094 11.0781 Q66.9375 18.6094 68.8125 24.5156 Q70.7031 30.4219 70.7031 34.9062 Q70.7031 37.7031 69.5781 39.6562 Q68.4531 41.6094 65.8281 41.6094 Q60.3594 41.6094 56.3438 38.25 Q52.3438 34.9062 49.4219 29.3906 Q49.2188 28.4219 49.125 27.875 L42.6719 2.20312 Q42.3281 0.828125 41.125 -0.140625 Q39.9375 -1.125 38.4844 -1.125 Q37.3125 -1.125 36.4062 -0.34375 Q35.5 0.4375 35.5 1.70312 Q35.5 2.29688 35.5938 2.59375 L42 28.0781 Q43.0156 32.1719 43.0156 34.9062 Q43.0156 37.7031 41.8594 39.6562 Q40.7188 41.6094 37.9844 41.6094 Q34.3281 41.6094 31.25 39.9844 Q28.1719 38.375 25.875 35.7188 Q23.5781 33.0625 21.6875 29.3906 L14.8906 2.20312 Q14.5469 0.828125 13.3438 -0.140625 Q12.1562 -1.125 10.6875 -1.125 Q9.46875 -1.125 8.59375 -0.34375 Q7.71875 0.4375 7.71875 1.70312" />
              <path
                 id="Cmr10-28"
                 d=" M31 -24.8125 Q25.4375 -20.4062 21.4062 -14.7188 Q17.3906 -9.03125 14.8125 -2.57812 Q12.25 3.85938 10.9844 10.8906 Q9.71875 17.9219 9.71875 25 Q9.71875 32.1719 10.9844 39.2031 Q12.25 46.2344 14.8594 52.7344 Q17.4844 59.2344 21.5312 64.8906 Q25.5938 70.5625 31 74.8125 Q31 75 31.5 75 L32.4219 75 Q32.7188 75 32.9531 74.7344 Q33.2031 74.4688 33.2031 74.125 Q33.2031 73.6875 33.0156 73.4844 Q28.125 68.7031 24.875 63.2344 Q21.625 57.7656 19.6406 51.5781 Q17.6719 45.4062 16.7969 38.7812 Q15.9219 32.1719 15.9219 25 Q15.9219 -6.78125 32.9062 -23.2969 Q33.2031 -23.5781 33.2031 -24.125 Q33.2031 -24.3594 32.9375 -24.6719 Q32.6719 -25 32.4219 -25 L31.5 -25 Q31 -25 31 -24.8125" />
              <path
                 id="Cmr10-29"
                 d=" M6.5 -25 Q5.60938 -25 5.60938 -24.125 Q5.60938 -23.6875 5.8125 -23.4844 Q22.9062 -6.78125 22.9062 25 Q22.9062 56.7812 6 73.2969 Q5.60938 73.5312 5.60938 74.125 Q5.60938 74.4688 5.875 74.7344 Q6.15625 75 6.5 75 L7.42188 75 Q7.71875 75 7.90625 74.8125 Q15.0938 69.1406 19.875 61.0312 Q24.6562 52.9375 26.875 43.75 Q29.1094 34.5781 29.1094 25 Q29.1094 17.9219 27.9062 11.0625 Q26.7031 4.20312 24.0938 -2.45312 Q21.4844 -9.125 17.4844 -14.7656 Q13.4844 -20.4062 7.90625 -24.8125 Q7.71875 -25 7.42188 -25 z " />
              <path
                 id="Cmmi10-73"
                 d=" M8.6875 6.10938 Q11.375 1.51562 19.4844 1.51562 Q23 1.51562 26.1719 2.70312 Q29.3438 3.90625 31.4219 6.29688 Q33.5 8.6875 33.5 12.1094 Q33.5 14.7031 31.6406 16.3594 Q29.7812 18.0156 27.0938 18.6094 L21.6875 19.6719 Q17.9688 20.6094 15.5781 23.1406 Q13.1875 25.6875 13.1875 29.2969 Q13.1875 33.7344 15.5938 37.1562 Q18.0156 40.5781 21.9688 42.375 Q25.9219 44.1875 30.1719 44.1875 Q34.7188 44.1875 38.2969 42.0156 Q41.8906 39.8438 41.8906 35.5938 Q41.8906 33.2969 40.5938 31.5312 Q39.3125 29.7812 37.0156 29.7812 Q35.6875 29.7812 34.7344 30.6406 Q33.7969 31.5 33.7969 32.8125 Q33.7969 33.9844 34.4531 35.0781 Q35.1094 36.1875 36.2031 36.8438 Q37.3125 37.5 38.4844 37.5 Q37.5938 39.6562 35.1719 40.625 Q32.7656 41.6094 29.9844 41.6094 Q27.4375 41.6094 24.8906 40.5781 Q22.3594 39.5469 20.8125 37.5625 Q19.2812 35.5938 19.2812 32.9062 Q19.2812 31.1094 20.5469 29.7344 Q21.8281 28.375 23.6875 27.7812 L29.5 26.6094 Q32.2812 26.0312 34.5938 24.5312 Q36.9219 23.0469 38.25 20.7656 Q39.5938 18.5 39.5938 15.5781 Q39.5938 11.8594 37.5156 8.25 Q35.4531 4.64062 32.4219 2.48438 Q27.0938 -1.125 19.3906 -1.125 Q14.0625 -1.125 9.60938 1.3125 Q5.17188 3.76562 5.17188 8.59375 Q5.17188 11.3281 6.75 13.3438 Q8.34375 15.375 11.0781 15.375 Q12.7031 15.375 13.7969 14.3906 Q14.8906 13.4219 14.8906 11.8125 Q14.8906 9.51562 13.1719 7.8125 Q11.4688 6.10938 9.1875 6.10938 z " />
              <path
                 id="Cmmi10-65"
                 d=" M20.125 -1.125 Q15.3281 -1.125 11.7344 1.35938 Q8.15625 3.85938 6.26562 8.07812 Q4.39062 12.3125 4.39062 17 Q4.39062 24.125 7.98438 30.3906 Q11.5781 36.6719 17.7188 40.4219 Q23.875 44.1875 30.9062 44.1875 Q35.2031 44.1875 38.4062 41.9688 Q41.6094 39.75 41.6094 35.5938 Q41.6094 29.8281 37.0156 27.0156 Q32.4219 24.2188 26.6562 23.5625 Q20.9062 22.9062 13.9219 22.9062 L13.625 22.9062 Q12.0156 16.9375 12.0156 12.7031 Q12.0156 8.25 14.0625 4.875 Q16.1094 1.51562 20.3125 1.51562 Q26.2656 1.51562 31.75 4.25 Q37.25 6.98438 40.7188 11.8125 Q41.0156 12.1094 41.5 12.1094 Q42 12.1094 42.5 11.5469 Q43.0156 10.9844 43.0156 10.5 Q43.0156 10.1094 42.8281 9.90625 Q39.1562 4.78125 32.9531 1.82812 Q26.7656 -1.125 20.125 -1.125 M14.2031 25.4844 Q20.0156 25.4844 24.9531 26.0156 Q29.8906 26.5625 33.8906 28.7344 Q37.8906 30.9062 37.8906 35.5 Q37.8906 37.3594 36.8594 38.75 Q35.8438 40.1406 34.2031 40.875 Q32.5625 41.6094 30.8125 41.6094 Q26.5625 41.6094 23.1719 39.3125 Q19.7812 37.0156 17.5781 33.3281 Q15.375 29.6406 14.2031 25.4844" />
              <path
                 id="Cmmi10-74"
                 d=" M6.20312 8.10938 Q6.20312 9.57812 6.5 10.8906 L13.7188 39.5938 L3.21875 39.5938 Q2.20312 39.5938 2.20312 40.9219 Q2.59375 43.1094 3.51562 43.1094 L14.5938 43.1094 L18.6094 59.4219 Q19 60.75 20.1719 61.6719 Q21.3438 62.5938 22.7969 62.5938 Q24.0781 62.5938 24.9219 61.8281 Q25.7812 61.0781 25.7812 59.8125 Q25.7812 59.5156 25.75 59.3438 Q25.7344 59.1875 25.6875 58.9844 L21.6875 43.1094 L31.9844 43.1094 Q33.0156 43.1094 33.0156 41.7969 Q32.9531 41.5469 32.8125 40.9531 Q32.6719 40.375 32.4219 39.9844 Q32.1719 39.5938 31.6875 39.5938 L20.7969 39.5938 L13.625 10.6875 Q12.8906 7.85938 12.8906 5.8125 Q12.8906 1.51562 15.8281 1.51562 Q20.2188 1.51562 23.6094 5.64062 Q27 9.76562 28.8125 14.7031 Q29.2031 15.2812 29.5938 15.2812 L30.8125 15.2812 Q31.2031 15.2812 31.4375 15.0156 Q31.6875 14.75 31.6875 14.4062 Q31.6875 14.2031 31.5938 14.1094 Q29.3906 8.0625 25.1875 3.46875 Q21 -1.125 15.5781 -1.125 Q11.625 -1.125 8.90625 1.45312 Q6.20312 4.04688 6.20312 8.10938" />
              <path
                 id="Cmmi10-69"
                 d=" M7.8125 7.17188 Q7.8125 9.03125 8.59375 11.0781 L16.7031 32.625 Q18.0156 36.2812 18.0156 38.625 Q18.0156 41.6094 15.8281 41.6094 Q11.8594 41.6094 9.29688 37.5312 Q6.73438 33.4531 5.51562 28.4219 Q5.32812 27.7812 4.6875 27.7812 L3.51562 27.7812 Q2.6875 27.7812 2.6875 28.7188 L2.6875 29 Q4.29688 34.9688 7.60938 39.5781 Q10.9375 44.1875 16.0156 44.1875 Q19.5781 44.1875 22.0469 41.8438 Q24.5156 39.5 24.5156 35.8906 Q24.5156 34.0312 23.6875 31.9844 L15.5781 10.5 Q14.2031 7.17188 14.2031 4.5 Q14.2031 1.51562 16.5 1.51562 Q20.4062 1.51562 23.0156 5.6875 Q25.6406 9.85938 26.7031 14.7031 Q26.9062 15.2812 27.4844 15.2812 L28.7188 15.2812 Q29.1094 15.2812 29.3438 15.0156 Q29.5938 14.75 29.5938 14.4062 Q29.5938 14.3125 29.5 14.1094 Q28.125 8.45312 24.7344 3.65625 Q21.3438 -1.125 16.3125 -1.125 Q12.7969 -1.125 10.2969 1.29688 Q7.8125 3.71875 7.8125 7.17188 M19.0938 60.5938 Q19.0938 62.7031 20.8438 64.4062 Q22.6094 66.1094 24.7031 66.1094 Q26.4219 66.1094 27.5156 65.0625 Q28.6094 64.0156 28.6094 62.4062 Q28.6094 60.1562 26.8281 58.4688 Q25.0469 56.7812 22.9062 56.7812 Q21.2969 56.7812 20.1875 57.875 Q19.0938 58.9844 19.0938 60.5938" />
            </defs>
            <g
               id="g241"
               transform="translate(262.2 424.41375)scale(0.2 -0.2)">
              <use
                 id="use243"
                 xlink:href="#Cmmi10-74" />
              <use
                 id="use245"
                 xlink:href="#Cmmi10-69"
                 transform="translate(36.083984375 0.0)" />
              <use
                 id="use247"
                 xlink:href="#Cmmi10-6d"
                 transform="translate(70.5078125 0.0)" />
              <use
                 id="use249"
                 xlink:href="#Cmmi10-65"
                 transform="translate(158.30078125 0.0)" />
              <use
                 id="use251"
                 xlink:href="#Cmr10-28"
                 transform="translate(204.78515625 0.0)" />
              <use
                 id="use253"
                 xlink:href="#Cmmi10-73"
                 transform="translate(243.603515625 0.0)" />
              <use
                 id="use255"
                 xlink:href="#Cmr10-29"
                 transform="translate(290.380859375 0.0)" />
            </g>
          </g>
        </g>
        <g
           id="matplotlib.axis_2">
          <g
             id="ytick_1">
            <g
               id="line2d_26">
              <path
                 id="path260"
                 style="fill:none;stroke:#000000;stroke-dasharray:1.000000,3.000000;stroke-dashoffset:0.0;stroke-width:0.5;"
                 d=" M72 386.057 L518.4 386.057"
                 clip-path="url(#p7ff5b81e1d)" />
            </g>
            <g
               id="line2d_27">
              <defs
                 id="defs263">
                <path
                   style="stroke:#000000;stroke-width:0.5;"
                   id="m728421d6d4"
                   d=" M0 0 L4 0" />
              </defs>
              <g
                 id="g266">
                <use
                   id="use268"
                   y="386.057142857"
                   xlink:href="#m728421d6d4"
                   x="72.0"
                   style="stroke:#000000;stroke-width:0.5;" />
              </g>
            </g>
            <g
               id="line2d_28">
              <defs
                 id="defs271">
                <path
                   style="stroke:#000000;stroke-width:0.5;"
                   id="mcb0005524f"
                   d=" M0 0 L-4 0" />
              </defs>
              <g
                 id="g274">
                <use
                   id="use276"
                   y="386.057142857"
                   xlink:href="#mcb0005524f"
                   x="518.4"
                   style="stroke:#000000;stroke-width:0.5;" />
              </g>
            </g>
            <g
               id="text_10">
              <!-- 0.0 -->
              <g
                 id="g279"
                 transform="translate(50.504375 389.368392857)scale(0.12 -0.12)">
                <use
                   id="use281"
                   xlink:href="#BitstreamVeraSans-Roman-30" />
                <use
                   id="use283"
                   xlink:href="#BitstreamVeraSans-Roman-2e"
                   x="63.623046875" />
                <use
                   id="use285"
                   xlink:href="#BitstreamVeraSans-Roman-30"
                   x="95.41015625" />
              </g>
            </g>
          </g>
          <g
             id="ytick_2">
            <g
               id="line2d_29">
              <path
                 id="path289"
                 style="fill:none;stroke:#000000;stroke-dasharray:1.000000,3.000000;stroke-dashoffset:0.0;stroke-width:0.5;"
                 d=" M72 317.486 L518.4 317.486"
                 clip-path="url(#p7ff5b81e1d)" />
            </g>
            <g
               id="line2d_30">
              <g
                 id="g292">
                <use
                   id="use294"
                   y="317.485714286"
                   xlink:href="#m728421d6d4"
                   x="72.0"
                   style="stroke:#000000;stroke-width:0.5;" />
              </g>
            </g>
            <g
               id="line2d_31">
              <g
                 id="g297">
                <use
                   id="use299"
                   y="317.485714286"
                   xlink:href="#mcb0005524f"
                   x="518.4"
                   style="stroke:#000000;stroke-width:0.5;" />
              </g>
            </g>
            <g
               id="text_11">
              <!-- 0.5 -->
              <g
                 id="g302"
                 transform="translate(50.755625 320.796964286)scale(0.12 -0.12)">
                <use
                   id="use304"
                   xlink:href="#BitstreamVeraSans-Roman-30" />
                <use
                   id="use306"
                   xlink:href="#BitstreamVeraSans-Roman-2e"
                   x="63.623046875" />
                <use
                   id="use308"
                   xlink:href="#BitstreamVeraSans-Roman-35"
                   x="95.41015625" />
              </g>
            </g>
          </g>
          <g
             id="ytick_3">
            <g
               id="line2d_32">
              <path
                 id="path312"
                 style="fill:none;stroke:#000000;stroke-dasharray:1.000000,3.000000;stroke-dashoffset:0.0;stroke-width:0.5;"
                 d=" M72 248.914 L518.4 248.914"
                 clip-path="url(#p7ff5b81e1d)" />
            </g>
            <g
               id="line2d_33">
              <g
                 id="g315">
                <use
                   id="use317"
                   y="248.914285714"
                   xlink:href="#m728421d6d4"
                   x="72.0"
                   style="stroke:#000000;stroke-width:0.5;" />
              </g>
            </g>
            <g
               id="line2d_34">
              <g
                 id="g320">
                <use
                   id="use322"
                   y="248.914285714"
                   xlink:href="#mcb0005524f"
                   x="518.4"
                   style="stroke:#000000;stroke-width:0.5;" />
              </g>
            </g>
            <g
               id="text_12">
              <!-- 1.0 -->
              <g
                 id="g325"
                 transform="translate(51.03125 252.225535714)scale(0.12 -0.12)">
                <use
                   id="use327"
                   xlink:href="#BitstreamVeraSans-Roman-31" />
                <use
                   id="use329"
                   xlink:href="#BitstreamVeraSans-Roman-2e"
                   x="63.623046875" />
                <use
                   id="use331"
                   xlink:href="#BitstreamVeraSans-Roman-30"
                   x="95.41015625" />
              </g>
            </g>
          </g>
          <g
             id="ytick_4">
            <g
               id="line2d_35">
              <path
                 id="path335"
                 style="fill:none;stroke:#000000;stroke-dasharray:1.000000,3.000000;stroke-dashoffset:0.0;stroke-width:0.5;"
                 d=" M72 180.343 L518.4 180.343"
                 clip-path="url(#p7ff5b81e1d)" />
            </g>
            <g
               id="line2d_36">
              <g
                 id="g338">
                <use
                   id="use340"
                   y="180.342857143"
                   xlink:href="#m728421d6d4"
                   x="72.0"
                   style="stroke:#000000;stroke-width:0.5;" />
              </g>
            </g>
            <g
               id="line2d_37">
              <g
                 id="g343">
                <use
                   id="use345"
                   y="180.342857143"
                   xlink:href="#mcb0005524f"
                   x="518.4"
                   style="stroke:#000000;stroke-width:0.5;" />
              </g>
            </g>
            <g
               id="text_13">
              <!-- 1.5 -->
              <g
                 id="g348"
                 transform="translate(51.2825 183.654107143)scale(0.12 -0.12)">
                <use
                   id="use350"
                   xlink:href="#BitstreamVeraSans-Roman-31" />
                <use
                   id="use352"
                   xlink:href="#BitstreamVeraSans-Roman-2e"
                   x="63.623046875" />
                <use
                   id="use354"
                   xlink:href="#BitstreamVeraSans-Roman-35"
                   x="95.41015625" />
              </g>
            </g>
          </g>
          <g
             id="ytick_5">
            <g
               id="line2d_38">
              <path
                 id="path358"
                 style="fill:none;stroke:#000000;stroke-dasharray:1.000000,3.000000;stroke-dashoffset:0.0;stroke-width:0.5;"
                 d=" M72 111.771 L518.4 111.771"
                 clip-path="url(#p7ff5b81e1d)" />
            </g>
            <g
               id="line2d_39">
              <g
                 id="g361">
                <use
                   id="use363"
                   y="111.771428571"
                   xlink:href="#m728421d6d4"
                   x="72.0"
                   style="stroke:#000000;stroke-width:0.5;" />
              </g>
            </g>
            <g
               id="line2d_40">
              <g
                 id="g366">
                <use
                   id="use368"
                   y="111.771428571"
                   xlink:href="#mcb0005524f"
                   x="518.4"
                   style="stroke:#000000;stroke-width:0.5;" />
              </g>
            </g>
            <g
               id="text_14">
              <!-- 2.0 -->
              <g
                 id="g371"
                 transform="translate(50.5925 115.082678571)scale(0.12 -0.12)">
                <use
                   id="use373"
                   xlink:href="#BitstreamVeraSans-Roman-32" />
                <use
                   id="use375"
                   xlink:href="#BitstreamVeraSans-Roman-2e"
                   x="63.623046875" />
                <use
                   id="use377"
                   xlink:href="#BitstreamVeraSans-Roman-30"
                   x="95.41015625" />
              </g>
            </g>
          </g>
          <g
             id="ytick_6">
            <g
               id="line2d_41">
              <path
                 id="path381"
                 style="fill:none;stroke:#000000;stroke-dasharray:1.000000,3.000000;stroke-dashoffset:0.0;stroke-width:0.5;"
                 d=" M72 43.2 L518.4 43.2"
                 clip-path="url(#p7ff5b81e1d)" />
            </g>
            <g
               id="line2d_42">
              <g
                 id="g384">
                <use
                   id="use386"
                   y="43.2"
                   xlink:href="#m728421d6d4"
                   x="72.0"
                   style="stroke:#000000;stroke-width:0.5;" />
              </g>
            </g>
            <g
               id="line2d_43">
              <g
                 id="g389">
                <use
                   id="use391"
                   y="43.2"
                   xlink:href="#mcb0005524f"
                   x="518.4"
                   style="stroke:#000000;stroke-width:0.5;" />
              </g>
            </g>
            <g
               id="text_15">
              <!-- 2.5 -->
              <g
                 id="g394"
                 transform="translate(50.84375 46.51125)scale(0.12 -0.12)">
                <use
                   id="use396"
                   xlink:href="#BitstreamVeraSans-Roman-32" />
                <use
                   id="use398"
                   xlink:href="#BitstreamVeraSans-Roman-2e"
                   x="63.623046875" />
                <use
                   id="use400"
                   xlink:href="#BitstreamVeraSans-Roman-35"
                   x="95.41015625" />
              </g>
            </g>
          </g>
          <g
             id="text_16">
            <!-- $(J)$ -->
            <defs
               id="defs403">
              <path
                 id="Cmmi10-4a"
                 d=" M10.8906 6 Q11.8594 3.21875 14.5 1.79688 Q17.1406 0.390625 20.2188 0.390625 Q23.3438 0.390625 26.25 2.5625 Q29.1562 4.73438 31.1719 8 Q33.2031 11.2812 33.9844 14.5 L45.7969 61.8125 Q45.9062 62.2031 45.9219 62.3906 Q45.9531 62.5938 46 62.7969 Q46 63.875 45.2188 64.1094 Q42.5781 64.7969 34.5156 64.7969 Q33.5 64.7969 33.5 66.1094 Q33.6875 66.8906 33.8125 67.3281 Q33.9375 67.7812 34.25 68.0469 Q34.5781 68.3125 35.2031 68.3125 L62.3125 68.3125 Q63.2812 68.3125 63.2812 67 Q62.8906 64.7969 62.0156 64.7969 Q58.5 64.7969 56.6875 64.25 Q54.8906 63.7188 54.2031 61.375 L42.3906 14.1094 Q41.2656 9.46875 37.8125 5.73438 Q34.375 2 29.6406 -0.09375 Q24.9062 -2.20312 20.125 -2.20312 Q14.8438 -2.20312 10.8594 0.71875 Q6.89062 3.65625 6.89062 8.6875 Q6.89062 12.0156 8.6875 14.4062 Q10.5 16.7969 13.8125 16.7969 Q15.7188 16.7969 17.0156 15.625 Q18.3125 14.4531 18.3125 12.5938 Q18.3125 9.90625 16.3125 7.90625 Q14.3125 5.90625 11.625 5.90625 Q11.0781 5.90625 10.8906 6" />
            </defs>
            <g
               id="g406"
               transform="translate(40.504375 229.4)rotate(-90.0)scale(0.2 -0.2)">
              <use
                 id="use408"
                 xlink:href="#Cmr10-28" />
              <use
                 id="use410"
                 xlink:href="#Cmmi10-4a"
                 transform="translate(38.818359375 0.0)" />
              <use
                 id="use412"
                 xlink:href="#Cmr10-29"
                 transform="translate(94.23828125 0.0)" />
            </g>
          </g>
          <g
             id="text_17">
            <!-- 1e1 -->
            <defs
               id="defs415">
              <path
                 id="BitstreamVeraSans-Roman-65"
                 d=" M56.2031 29.5938 L56.2031 25.2031 L14.8906 25.2031 Q15.4844 15.9219 20.4844 11.0625 Q25.4844 6.20312 34.4219 6.20312 Q39.5938 6.20312 44.4531 7.46875 Q49.3125 8.73438 54.1094 11.2812 L54.1094 2.78125 Q49.2656 0.734375 44.1875 -0.34375 Q39.1094 -1.42188 33.8906 -1.42188 Q20.7969 -1.42188 13.1562 6.1875 Q5.51562 13.8125 5.51562 26.8125 Q5.51562 40.2344 12.7656 48.1094 Q20.0156 56 32.3281 56 Q43.3594 56 49.7812 48.8906 Q56.2031 41.7969 56.2031 29.5938 M47.2188 32.2344 Q47.125 39.5938 43.0938 43.9844 Q39.0625 48.3906 32.4219 48.3906 Q24.9062 48.3906 20.3906 44.1406 Q15.875 39.8906 15.1875 32.1719 z " />
            </defs>
            <g
               id="g418"
               transform="translate(72.0 40.2)scale(0.12 -0.12)">
              <use
                 id="use420"
                 xlink:href="#BitstreamVeraSans-Roman-31" />
              <use
                 id="use422"
                 xlink:href="#BitstreamVeraSans-Roman-65"
                 x="63.623046875" />
              <use
                 id="use424"
                 xlink:href="#BitstreamVeraSans-Roman-31"
                 x="125.146484375" />
            </g>
          </g>
        </g>
        <g
           id="patch_3">
          <path
             id="path427"
             style="fill:none;stroke:#000000;"
             d=" M72 43.2 L518.4 43.2" />
        </g>
        <g
           id="patch_4">
          <path
             id="path430"
             style="fill:none;stroke:#000000;"
             d=" M518.4 388.8 L518.4 43.2" />
        </g>
        <g
           id="patch_5">
          <path
             id="path433"
             style="fill:none;stroke:#000000;"
             d=" M72 388.8 L518.4 388.8" />
        </g>
        <g
           id="patch_6">
          <path
             id="path436"
             style="fill:none;stroke:#000000;"
             d=" M72 388.8 L72 43.2" />
        </g>
        <g
           style="stroke-linecap:butt;stroke-linejoin:round"
           transform="translate(-376.76712,-0.98630137)"
           id="legend_1">
          <g
             style="stroke-linecap:butt;stroke-linejoin:round"
             id="patch_7">
            <path
               inkscape:connector-curvature="0"
               id="path440"
               style="fill:#ffffff;stroke:#000000;stroke-linecap:butt;stroke-linejoin:round"
               d="m 453.48,72.72 58.92,0 0,-23.52 -58.92,0 0,23.52 z" />
          </g>
          <g
             style="stroke-linecap:butt;stroke-linejoin:round"
             id="line2d_44">
            <path
               inkscape:connector-curvature="0"
               id="path443"
               style="fill:none;stroke:#0000ff;stroke-width:2;stroke-linecap:square;stroke-linejoin:round"
               d="m 461.88,58.92 16.8,0" />
          </g>
          <g
             style="stroke-linecap:butt;stroke-linejoin:round"
             id="line2d_45" />
          <g
             style="stroke-linecap:butt;stroke-linejoin:round"
             id="text_18">
            <!-- $S_{p}^{x}$ -->
            <defs
               id="defs447">
              <path
                 style="stroke-linecap:butt;stroke-linejoin:round"
                 inkscape:connector-curvature="0"
                 id="Cmmi10-78"
                 d="m 7.8125,2.875 q 1.76562,-1.35938 4.9844,-1.35938 3.125,0 5.5156,3 2.3906,3 3.2656,6.56248 l 4.5469,17.7344 q 1.0781,4.8281 1.0781,6.5937 0,2.4844 -1.3906,4.3438 -1.3906,1.8594 -3.8906,1.8594 -3.1719,0 -5.9531,-1.9844 Q 13.1875,37.6406 11.2812,34.5938 9.375,31.5469 8.59375,28.4219 8.40625,27.7812 7.8125,27.7812 l -1.21875,0 q -0.78125,0 -0.78125,0.9376 l 0,0.2812 q 0.96875,3.7188 3.3125,7.25 2.3438,3.5469 5.7344,5.7344 3.4062,2.2031 7.2656,2.2031 3.6562,0 6.6094,-1.9531 2.9531,-1.9532 4.1718,-5.3125 1.7188,3.0625 4.375,5.1562 2.6563,2.1094 5.8282,2.1094 2.1562,0 4.3906,-0.7656 2.25,-0.75 3.6719,-2.3125 1.4219,-1.5625 1.4219,-3.9063 0,-2.5312 -1.6407,-4.375 Q 49.3125,31 46.7812,31 q -1.6093,0 -2.6874,1.0312 -1.0782,1.0313 -1.0782,2.5938 0,2.0938 1.4375,3.6719 1.4531,1.5937 3.4531,1.8906 -1.8124,1.4219 -4.9843,1.4219 -3.2188,0 -5.5938,-2.9844 -2.3593,-2.9844 -3.3437,-6.6406 L 29.5938,14.3125 q -1.0782,-4.0156 -1.0782,-6.59375 0,-2.54687 1.4375,-4.375 1.4375,-1.82813 3.8438,-1.82813 4.6875,0 8.3593,4.125 3.6876,4.125 4.8594,9.06248 0.2032,0.5781 0.7813,0.5781 l 1.2343,0 q 0.3907,0 0.625,-0.2656 0.25,-0.2656 0.25,-0.6094 0,-0.0937 -0.0937,-0.2968 Q 48.3906,8.15625 43.8438,3.51562 39.3125,-1.125 33.5938,-1.125 q -3.6563,0 -6.6094,1.96875 -2.9532,1.98437 -4.1875,5.35937 -1.5625,-2.9375 -4.3281,-5.14062 -2.75,-2.1875 -5.875,-2.1875 -2.1407,0 -4.42192,0.765625 -2.26563,0.75 -3.6875,2.312495 -1.40626,1.5625 -1.40626,3.95313 0,2.34375 1.625,4.26565 1.64063,1.9375 4.09376,1.9375 1.65622,0 2.78122,-1 1.125,-1 1.125,-2.6094 0,-2.10938 -1.4062,-3.67188 Q 9.90625,3.26562 7.8125,2.875" />
              <path
                 style="stroke-linecap:butt;stroke-linejoin:round"
                 inkscape:connector-curvature="0"
                 id="Cmmi10-53"
                 d="m 6.10938,-2.20312 q -0.29688,0 -0.54688,0.34374 -0.23438,0.34376 -0.23438,0.64063 L 11.0781,22.125 q 0.2031,0.5781 0.8438,0.5781 l 1.1719,0 q 0.3906,0 0.6093,-0.2969 0.2188,-0.2812 0.2188,-0.7187 -0.8281,-3.4219 -0.8281,-6.1094 0,-7.23435 4.9687,-10.74998 4.9844,-3.51562 12.5469,-3.51562 3.2812,0 6.4531,1.60938 3.1719,1.625 5.5313,4.20312 2.375,2.59375 3.7812,5.7812 1.4219,3.2032 1.4219,6.4844 0,3.5156 -1.8594,6.2656 -1.8437,2.7657 -5.1094,3.5469 l -12.2187,3.2188 q -4.9219,1.3125 -7.8594,5.2969 -2.9219,3.9843 -2.9219,8.9687 0,6 3.5625,11.5625 3.5625,5.5625 9.2969,8.9062 5.7344,3.3594 11.7031,3.3594 4.5782,0 8.4063,-1.6875 3.8437,-1.6875 5.8906,-5.3437 l 5.7187,6.7344 q 0.5782,0.2968 0.6876,0.2968 l 0.625,0 q 0.3906,0 0.625,-0.3437 0.25,-0.3438 0.25,-0.6875 L 58.7969,46.2969 q -0.1563,-0.6875 -0.7813,-0.6875 l -1.2344,0 q -0.875,0 -0.875,1.0781 0.4844,3.1719 0.4844,5.5156 0,4.6407 -1.5937,8.0781 -1.5781,3.4376 -4.7813,5.2188 -3.1875,1.7812 -7.9218,1.7812 -4,0 -7.9688,-2.2968 -3.9531,-2.2813 -6.3906,-6.0938 -2.4375,-3.8125 -2.4375,-7.9062 0,-3.2344 1.875,-5.7188 1.875,-2.4844 5,-3.375 l 12.2187,-3.1718 q 3.3125,-0.875 5.7813,-3.0938 2.4687,-2.2188 3.7343,-5.2812 1.2657,-3.0469 1.2657,-6.6563 0,-4.7344 -2,-9.3594 -2,-4.60935 -5.5938,-8.42185 Q 44,2.09375 39.4531,-0.046875 34.9062,-2.20312 30.1719,-2.20312 q -11.9063,0 -17.0781,6.98437 L 7.51562,-1.90625 Q 6.9375,-2.20312 6.78125,-2.20312 z" />
              <path
                 style="stroke-linecap:butt;stroke-linejoin:round"
                 inkscape:connector-curvature="0"
                 id="Cmmi10-70"
                 d="m -2.48438,-19.3906 q -0.9375,0 -0.9375,1.2812 0.34376,2.1875 1.32813,2.1875 3.125,0 4.35937,0.5625 1.25,0.5625 1.9375,2.8594 L 15.4844,32.5156 q 0.7344,1.8594 0.7344,4.7969 0,4.2969 -2.9376,4.2969 -3.125,0 -4.64058,-3.75 Q 7.125,34.125 5.71875,28.4219 q 0,-0.6407 -0.82813,-0.6407 l -1.17187,0 q -0.25,0 -0.54687,0.3594 -0.29688,0.375 -0.29688,0.6719 1.07812,4.3437 2.07812,7.3594 1,3.0312 3.125,5.5156 2.12498,2.5 5.29688,2.5 3.4219,0 6,-1.9375 2.5938,-1.9219 3.3281,-5.2344 2.7344,3.1719 6.0469,5.1719 3.3281,2 6.8438,2 4.2031,0 7.2968,-2.25 3.1094,-2.2344 4.6719,-5.875 1.5625,-3.6406 1.5625,-7.8437 0,-6.4376 -3.2969,-13.3282 Q 42.5312,8.01562 36.8906,3.4375 31.25,-1.125 24.8125,-1.125 21.875,-1.125 19.5,0.53125 17.1406,2.20312 15.8281,4.89062 L 11.2812,-12.8906 q -0.25,-1.4688 -0.2968,-1.7032 0,-1.3281 6.5937,-1.3281 1.0313,0 1.0313,-1.2656 -0.3438,-1.3125 -0.5625,-1.75 -0.2188,-0.4531 -1.1563,-0.4531 z M 24.9062,1.51562 q 3.4688,0 6.4376,2.85938 2.9843,2.85938 4.8437,6.4219 1.3594,2.6875 2.5469,6.5625 1.2031,3.875 2.0781,8.2656 0.8906,4.4062 0.8906,7 0,2.2812 -0.6093,4.2812 -0.6094,2.0157 -2,3.3594 -1.3907,1.3438 -3.6876,1.3438 -3.6718,0 -6.9218,-2.625 -3.2344,-2.6094 -5.875,-6.4688 l 0,-0.3437 -5.5156,-22.0625 q 0.6874,-3.56252 2.6406,-6.07815 1.9531,-2.51563 5.1718,-2.51563" />
            </defs>
            <g
               style="stroke-linecap:butt;stroke-linejoin:round"
               id="g452"
               transform="matrix(0.12,0,0,-0.12,491.88,63.12)">
              <use
                 height="432"
                 width="576"
                 y="0"
                 x="0"
                 style="stroke-linecap:butt;stroke-linejoin:round"
                 id="use454"
                 xlink:href="#Cmmi10-53"
                 transform="translate(0,0.0625)" />
              <use
                 height="432"
                 width="576"
                 y="0"
                 x="0"
                 style="stroke-linecap:butt;stroke-linejoin:round"
                 id="use456"
                 xlink:href="#Cmmi10-78"
                 transform="matrix(0.7,0,0,0.7,73.972109,45.06875)" />
              <use
                 height="432"
                 width="576"
                 y="0"
                 x="0"
                 style="stroke-linecap:butt;stroke-linejoin:round"
                 id="use458"
                 xlink:href="#Cmmi10-70"
                 transform="matrix(0.7,0,0,0.7,61.279297,-25.446875)" />
            </g>
          </g>
        </g>
      </g>
    </g>
  </g>
  <defs
     id="defs460">
    <clipPath
       id="p7ff5b81e1d">
      <rect
         height="345.6"
         width="446.4"
         x="72.0"
         y="43.2"
         id="rect463" />
    </clipPath>
  </defs>
</svg>
