<?xml version="1.0" encoding="UTF-8" standalone="no"?>
<!-- Created with matplotlib (http://matplotlib.org/) -->

<svg
   xmlns:dc="http://purl.org/dc/elements/1.1/"
   xmlns:cc="http://creativecommons.org/ns#"
   xmlns:rdf="http://www.w3.org/1999/02/22-rdf-syntax-ns#"
   xmlns:svg="http://www.w3.org/2000/svg"
   xmlns="http://www.w3.org/2000/svg"
   xmlns:xlink="http://www.w3.org/1999/xlink"
   xmlns:sodipodi="http://sodipodi.sourceforge.net/DTD/sodipodi-0.dtd"
   xmlns:inkscape="http://www.inkscape.org/namespaces/inkscape"
   height="432pt"
   version="1.1"
   viewBox="0 0 576 432"
   width="576pt"
   id="svg2"
   inkscape:version="0.48.3.1 r9886"
   sodipodi:docname="q_dot_dot_jerk_vel_constr.pdf">
  <metadata
     id="metadata547">
    <rdf:RDF>
      <cc:Work
         rdf:about="">
        <dc:format>image/svg+xml</dc:format>
        <dc:type
           rdf:resource="http://purl.org/dc/dcmitype/StillImage" />
        <dc:title></dc:title>
      </cc:Work>
    </rdf:RDF>
  </metadata>
  <sodipodi:namedview
     pagecolor="#ffffff"
     bordercolor="#666666"
     borderopacity="1"
     objecttolerance="10"
     gridtolerance="10"
     guidetolerance="10"
     inkscape:pageopacity="0"
     inkscape:pageshadow="2"
     inkscape:window-width="1535"
     inkscape:window-height="876"
     id="namedview545"
     showgrid="false"
     inkscape:zoom="0.81111111"
     inkscape:cx="374.73183"
     inkscape:cy="435.13214"
     inkscape:window-x="65"
     inkscape:window-y="24"
     inkscape:window-maximized="1"
     inkscape:current-layer="axes_1" />
  <defs
     id="defs4">
    <style
       type="text/css"
       id="style6">
*{stroke-linecap:butt;stroke-linejoin:round;}
  </style>
  </defs>
  <g
     id="figure_1">
    <g
       id="patch_1">
      <path
         d=" M0 432 L576 432 L576 0 L0 0 z "
         style="fill:#ffffff;"
         id="path10" />
    </g>
    <g
       id="axes_1">
      <g
         id="g3535">
        <g
           id="patch_2">
          <path
             id="path14"
             style="fill:#ffffff;"
             d=" M72 388.8 L518.4 388.8 L518.4 43.2 L72 43.2 z " />
        </g>
        <g
           id="line2d_1">
          <path
             id="path17"
             style="fill:none;stroke:#0000ff;stroke-linecap:square;stroke-width:2.0;"
             d=" M72 250.56 L211.219 250.453 L211.929 250.117 L212.757 249.492 L213.821 248.393 L215.241 246.554 L217.37 243.362 L220.8 238.217 L222.574 235.972 L223.994 234.516 L225.295 233.504 L226.359 232.931 L227.424 232.608 L228.37 232.541 L229.316 232.69 L230.263 233.06 L231.327 233.74 L232.392 234.696 L233.575 236.069 L234.876 237.928 L236.413 240.527 L238.424 244.41 L244.93 257.377 L246.704 260.223 L248.242 262.287 L249.661 263.836 L250.962 264.949 L252.263 265.771 L253.446 266.271 L254.629 266.539 L255.812 266.582 L256.995 266.406 L258.177 266.018 L259.479 265.356 L260.898 264.369 L262.436 263.013 L264.21 261.135 L266.576 258.26 L270.597 253.325 L272.017 251.946 L273.081 251.176 L274.027 250.748 L276.393 250.188 L286.684 247.825 L292.598 246.752 L299.222 245.778 L303.716 245.314 L306.91 245.201 L309.394 245.324 L311.641 245.658 L313.652 246.179 L315.663 246.938 L317.674 247.948 L319.803 249.281 L322.287 251.117 L329.975 257.04 L331.749 258.015 L333.405 258.668 L334.943 259.028 L336.362 259.14 L337.9 259.026 L339.556 258.661 L342.04 257.879 L345.707 256.45 L349.728 254.94 L352.094 254.29 L354.105 253.965 L355.879 253.894 L357.535 254.039 L359.191 254.412 L360.729 254.981 L362.266 255.785 L363.804 256.845 L365.342 258.189 L366.879 259.853 L368.299 261.715 L369.718 263.947 L371.138 266.624 L372.439 269.557 L373.74 273.056 L374.923 276.847 L376.106 281.359 L377.288 286.763 L378.471 293.268 L378.708 294.722 L378.944 293.744 L380.364 285.346 L380.837 281.968 L383.557 251.06 L383.794 250.809 L400.827 250.876 L449.678 250.854 L449.796 250.605 L450.742 243.655 L450.86 242.98 L451.097 243.411 L453.936 245.996 L456.301 247.854 L458.312 249.154 L460.086 250.053 L461.151 250.463 L461.388 250.268 L462.689 248.569 L464.108 246.329 L465.764 243.274 L468.13 238.362 L471.442 231.497 L472.979 228.806 L474.28 226.965 L475.345 225.816 L476.291 225.091 L477.238 224.658 L478.066 224.519 L478.893 224.602 L479.721 224.898 L480.668 225.482 L481.732 226.427 L482.915 227.79 L484.334 229.781 L486.227 232.868 L490.012 239.627 L492.733 244.229 L494.743 247.205 L496.518 249.443 L498.174 251.178 L499.711 252.484 L501.249 253.509 L502.787 254.276 L504.443 254.845 L506.217 255.202 L508.109 255.345 L510.238 255.278 L512.722 254.975 L515.916 254.349 L518.282 253.778 L518.282 253.778"
             clip-path="url(#p7ff5b81e1d)" />
        </g>
        <g
           id="line2d_2">
          <path
             id="path20"
             style="fill:none;stroke:#ff0000;stroke-linecap:square;stroke-width:2.0;"
             d=" M72 145.964 L212.52 146.065 L213.94 146.307 L215.241 146.749 L216.424 147.377 L217.606 148.258 L218.789 149.392 L220.09 150.938 L221.51 152.978 L223.521 156.494 L225.176 159.87 L228.015 166.506 L230.854 173.757 L233.101 179.483 L235.112 184.145 L236.65 187.161 L237.951 189.201 L239.016 190.438 L239.844 191.1 L240.672 191.488 L241.381 191.603 L242.091 191.517 L242.919 191.17 L243.747 190.563 L244.693 189.571 L245.758 188.125 L246.941 186.159 L248.36 183.432 L250.134 179.635 L253.919 170.909 L257.704 162.562 L260.188 157.755 L262.199 154.388 L263.973 151.891 L265.511 150.088 L267.049 148.651 L268.468 147.648 L269.887 146.929 L271.307 146.48 L272.845 146.24 L275.092 146.161 L277.812 146.282 L280.651 146.613 L283.608 147.183 L286.565 147.983 L289.759 149.077 L293.071 150.447 L296.501 152.106 L300.05 154.061 L303.48 156.173 L308.803 159.705 L313.77 162.881 L316.018 164.047 L318.147 164.893 L319.803 165.3 L321.341 165.455 L322.76 165.387 L324.179 165.104 L325.599 164.6 L327.018 163.871 L328.674 162.779 L331.986 159.906 L334.588 157.275 L336.836 154.915 L340.384 151.392 L343.105 149.055 L345.589 147.229 L348.072 145.715 L350.675 144.418 L353.868 143.124 L360.61 140.549 L362.74 139.469 L364.632 138.26 L366.288 136.952 L367.826 135.481 L369.363 133.706 L370.783 131.768 L372.202 129.474 L373.622 126.777 L375.041 123.612 L376.342 120.223 L377.88 115.504 L380.955 105.56 L381.783 103.865 L382.493 102.92 L383.084 102.49 L383.557 102.367 L388.407 102.364 L450.387 102.465 L451.097 102.837 L452.99 103.825 L454.882 104.558 L457.011 105.12 L459.14 105.434 L463.872 105.983 L465.173 106.522 L466.474 107.31 L467.657 108.279 L468.958 109.631 L470.259 111.294 L471.56 113.275 L473.098 115.998 L474.872 119.602 L476.883 124.183 L480.076 132.047 L484.334 142.326 L486.464 146.795 L488.238 149.978 L489.894 152.441 L491.313 154.128 L492.614 155.335 L493.915 156.226 L495.098 156.769 L496.281 157.083 L497.582 157.195 L499.002 157.075 L500.539 156.71 L502.314 156.053 L504.561 154.969 L508.109 152.987 L513.669 149.976 L516.981 148.485 L518.282 147.987 L518.282 147.987"
             clip-path="url(#p7ff5b81e1d)" />
        </g>
        <g
           id="line2d_3">
          <path
             id="path23"
             style="fill:none;stroke:#ff0000;stroke-dasharray:6.000000,6.000000;stroke-dashoffset:0.0;stroke-width:2.0;"
             d=" M72 355.156 L212.52 355.256 L213.94 355.488 L215.241 355.924 L216.424 356.55 L217.725 357.488 L219.026 358.705 L220.445 360.327 L222.811 363.618 L224.94 367.027 L232.628 379.666 L234.048 381.548 L235.704 383.394 L237.123 384.642 L238.424 385.491 L239.607 385.998 L240.79 386.257 L241.973 386.267 L243.155 386.035 L244.338 385.571 L245.521 384.878 L246.941 383.781 L248.478 382.298 L250.252 380.261 L252.263 377.609 L254.747 373.99 L262.317 362.795 L264.328 360.353 L265.984 358.671 L267.522 357.416 L268.941 356.544 L270.361 355.927 L271.78 355.562 L273.436 355.381 L276.038 355.369 L278.995 355.573 L281.952 356.01 L284.909 356.673 L288.103 357.601 L291.652 358.873 L295.318 360.409 L297.447 361.391 L302.06 363.702 L314.125 369.845 L316.609 370.747 L318.738 371.281 L320.749 371.544 L322.523 371.537 L324.179 371.308 L325.835 370.872 L327.61 370.169 L330.567 368.464 L332.696 366.907 L335.416 364.647 L338.137 362.246 L342.395 358.688 L345.234 356.638 L348.072 354.897 L350.675 353.587 L352.094 352.952 L356.471 351.233 L359.783 349.849 L361.912 348.733 L363.686 347.567 L365.224 346.316 L366.643 344.905 L368.062 343.183 L369.363 341.271 L370.901 338.478 L372.321 335.245 L373.503 331.947 L374.568 328.356 L375.632 324.013 L376.579 319.325 L377.643 312.747 L378.59 305.24 L380.009 291.083 L381.665 272.366 L383.557 251.06 L383.794 250.809 L400.827 250.876 L449.796 250.854 L449.914 251.103 L451.57 264.783 L452.28 268.163 L453.226 271.436 L454.291 274.172 L455.355 276.236 L456.538 277.89 L457.721 279.076 L458.785 279.786 L460.086 280.361 L461.388 280.613 L462.097 280.847 L462.807 281.322 L463.517 282.077 L464.226 283.096 L465.054 284.599 L466.001 286.726 L467.065 289.625 L469.194 296.68 L472.033 307.741 L476.883 327.476 L479.603 337.483 L481.732 344.346 L483.625 349.617 L485.399 353.808 L486.937 356.852 L488.474 359.374 L489.894 361.248 L491.195 362.616 L492.496 363.672 L493.797 364.435 L495.098 364.947 L496.399 365.222 L497.819 365.294 L499.356 365.145 L501.131 364.739 L503.023 364.083 L505.625 362.95 L510.593 360.496 L512.249 359.68 L516.153 357.943 L518.282 357.129 L518.282 357.129"
             clip-path="url(#p7ff5b81e1d)" />
        </g>
        <g
           id="matplotlib.axis_1">
          <g
             id="xtick_1">
            <g
               id="line2d_4">
              <path
                 id="path28"
                 style="fill:none;stroke:#000000;stroke-dasharray:1.000000,3.000000;stroke-dashoffset:0.0;stroke-width:0.5;"
                 d=" M72 388.8 L72 43.2"
                 clip-path="url(#p7ff5b81e1d)" />
            </g>
            <g
               id="line2d_5">
              <defs
                 id="defs31">
                <path
                   style="stroke:#000000;stroke-width:0.5;"
                   id="m93b0483c22"
                   d=" M0 0 L0 -4" />
              </defs>
              <g
                 id="g34">
                <use
                   id="use36"
                   y="388.8"
                   xlink:href="#m93b0483c22"
                   x="72.0"
                   style="stroke:#000000;stroke-width:0.5;" />
              </g>
            </g>
            <g
               id="line2d_6">
              <defs
                 id="defs39">
                <path
                   style="stroke:#000000;stroke-width:0.5;"
                   id="m741efc42ff"
                   d=" M0 0 L0 4" />
              </defs>
              <g
                 id="g42">
                <use
                   id="use44"
                   y="43.2"
                   xlink:href="#m741efc42ff"
                   x="72.0"
                   style="stroke:#000000;stroke-width:0.5;" />
              </g>
            </g>
            <g
               id="text_1">
              <!-- 0.0 -->
              <defs
                 id="defs47">
                <path
                   id="BitstreamVeraSans-Roman-30"
                   d=" M31.7812 66.4062 Q24.1719 66.4062 20.3281 58.9062 Q16.5 51.4219 16.5 36.375 Q16.5 21.3906 20.3281 13.8906 Q24.1719 6.39062 31.7812 6.39062 Q39.4531 6.39062 43.2812 13.8906 Q47.125 21.3906 47.125 36.375 Q47.125 51.4219 43.2812 58.9062 Q39.4531 66.4062 31.7812 66.4062 M31.7812 74.2188 Q44.0469 74.2188 50.5156 64.5156 Q56.9844 54.8281 56.9844 36.375 Q56.9844 17.9688 50.5156 8.26562 Q44.0469 -1.42188 31.7812 -1.42188 Q19.5312 -1.42188 13.0625 8.26562 Q6.59375 17.9688 6.59375 36.375 Q6.59375 54.8281 13.0625 64.5156 Q19.5312 74.2188 31.7812 74.2188" />
                <path
                   id="BitstreamVeraSans-Roman-2e"
                   d=" M10.6875 12.4062 L21 12.4062 L21 0 L10.6875 0 z " />
              </defs>
              <g
                 id="g51"
                 transform="translate(63.2521875 401.918125)scale(0.12 -0.12)">
                <use
                   id="use53"
                   xlink:href="#BitstreamVeraSans-Roman-30" />
                <use
                   id="use55"
                   xlink:href="#BitstreamVeraSans-Roman-2e"
                   x="63.623046875" />
                <use
                   id="use57"
                   xlink:href="#BitstreamVeraSans-Roman-30"
                   x="95.41015625" />
              </g>
            </g>
          </g>
          <g
             id="xtick_2">
            <g
               id="line2d_7">
              <path
                 id="path61"
                 style="fill:none;stroke:#000000;stroke-dasharray:1.000000,3.000000;stroke-dashoffset:0.0;stroke-width:0.5;"
                 d=" M131.141 388.8 L131.141 43.2"
                 clip-path="url(#p7ff5b81e1d)" />
            </g>
            <g
               id="line2d_8">
              <g
                 id="g64">
                <use
                   id="use66"
                   y="388.8"
                   xlink:href="#m93b0483c22"
                   x="131.141494436"
                   style="stroke:#000000;stroke-width:0.5;" />
              </g>
            </g>
            <g
               id="line2d_9">
              <g
                 id="g69">
                <use
                   id="use71"
                   y="43.2"
                   xlink:href="#m741efc42ff"
                   x="131.141494436"
                   style="stroke:#000000;stroke-width:0.5;" />
              </g>
            </g>
            <g
               id="text_2">
              <!-- 0.5 -->
              <defs
                 id="defs74">
                <path
                   id="BitstreamVeraSans-Roman-35"
                   d=" M10.7969 72.9062 L49.5156 72.9062 L49.5156 64.5938 L19.8281 64.5938 L19.8281 46.7344 Q21.9688 47.4688 24.1094 47.8281 Q26.2656 48.1875 28.4219 48.1875 Q40.625 48.1875 47.75 41.5 Q54.8906 34.8125 54.8906 23.3906 Q54.8906 11.625 47.5625 5.09375 Q40.2344 -1.42188 26.9062 -1.42188 Q22.3125 -1.42188 17.5469 -0.640625 Q12.7969 0.140625 7.71875 1.70312 L7.71875 11.625 Q12.1094 9.23438 16.7969 8.0625 Q21.4844 6.89062 26.7031 6.89062 Q35.1562 6.89062 40.0781 11.3281 Q45.0156 15.7656 45.0156 23.3906 Q45.0156 31 40.0781 35.4375 Q35.1562 39.8906 26.7031 39.8906 Q22.75 39.8906 18.8125 39.0156 Q14.8906 38.1406 10.7969 36.2812 z " />
              </defs>
              <g
                 id="g77"
                 transform="translate(122.519306936 401.918125)scale(0.12 -0.12)">
                <use
                   id="use79"
                   xlink:href="#BitstreamVeraSans-Roman-30" />
                <use
                   id="use81"
                   xlink:href="#BitstreamVeraSans-Roman-2e"
                   x="63.623046875" />
                <use
                   id="use83"
                   xlink:href="#BitstreamVeraSans-Roman-35"
                   x="95.41015625" />
              </g>
            </g>
          </g>
          <g
             id="xtick_3">
            <g
               id="line2d_10">
              <path
                 id="path87"
                 style="fill:none;stroke:#000000;stroke-dasharray:1.000000,3.000000;stroke-dashoffset:0.0;stroke-width:0.5;"
                 d=" M190.283 388.8 L190.283 43.2"
                 clip-path="url(#p7ff5b81e1d)" />
            </g>
            <g
               id="line2d_11">
              <g
                 id="g90">
                <use
                   id="use92"
                   y="388.8"
                   xlink:href="#m93b0483c22"
                   x="190.282988871"
                   style="stroke:#000000;stroke-width:0.5;" />
              </g>
            </g>
            <g
               id="line2d_12">
              <g
                 id="g95">
                <use
                   id="use97"
                   y="43.2"
                   xlink:href="#m741efc42ff"
                   x="190.282988871"
                   style="stroke:#000000;stroke-width:0.5;" />
              </g>
            </g>
            <g
               id="text_3">
              <!-- 1.0 -->
              <defs
                 id="defs100">
                <path
                   id="BitstreamVeraSans-Roman-31"
                   d=" M12.4062 8.29688 L28.5156 8.29688 L28.5156 63.9219 L10.9844 60.4062 L10.9844 69.3906 L28.4219 72.9062 L38.2812 72.9062 L38.2812 8.29688 L54.3906 8.29688 L54.3906 0 L12.4062 0 z " />
              </defs>
              <g
                 id="g103"
                 transform="translate(181.798613871 401.918125)scale(0.12 -0.12)">
                <use
                   id="use105"
                   xlink:href="#BitstreamVeraSans-Roman-31" />
                <use
                   id="use107"
                   xlink:href="#BitstreamVeraSans-Roman-2e"
                   x="63.623046875" />
                <use
                   id="use109"
                   xlink:href="#BitstreamVeraSans-Roman-30"
                   x="95.41015625" />
              </g>
            </g>
          </g>
          <g
             id="xtick_4">
            <g
               id="line2d_13">
              <path
                 id="path113"
                 style="fill:none;stroke:#000000;stroke-dasharray:1.000000,3.000000;stroke-dashoffset:0.0;stroke-width:0.5;"
                 d=" M249.424 388.8 L249.424 43.2"
                 clip-path="url(#p7ff5b81e1d)" />
            </g>
            <g
               id="line2d_14">
              <g
                 id="g116">
                <use
                   id="use118"
                   y="388.8"
                   xlink:href="#m93b0483c22"
                   x="249.424483307"
                   style="stroke:#000000;stroke-width:0.5;" />
              </g>
            </g>
            <g
               id="line2d_15">
              <g
                 id="g121">
                <use
                   id="use123"
                   y="43.2"
                   xlink:href="#m741efc42ff"
                   x="249.424483307"
                   style="stroke:#000000;stroke-width:0.5;" />
              </g>
            </g>
            <g
               id="text_4">
              <!-- 1.5 -->
              <g
                 id="g126"
                 transform="translate(241.065733307 401.918125)scale(0.12 -0.12)">
                <use
                   id="use128"
                   xlink:href="#BitstreamVeraSans-Roman-31" />
                <use
                   id="use130"
                   xlink:href="#BitstreamVeraSans-Roman-2e"
                   x="63.623046875" />
                <use
                   id="use132"
                   xlink:href="#BitstreamVeraSans-Roman-35"
                   x="95.41015625" />
              </g>
            </g>
          </g>
          <g
             id="xtick_5">
            <g
               id="line2d_16">
              <path
                 id="path136"
                 style="fill:none;stroke:#000000;stroke-dasharray:1.000000,3.000000;stroke-dashoffset:0.0;stroke-width:0.5;"
                 d=" M308.566 388.8 L308.566 43.2"
                 clip-path="url(#p7ff5b81e1d)" />
            </g>
            <g
               id="line2d_17">
              <g
                 id="g139">
                <use
                   id="use141"
                   y="388.8"
                   xlink:href="#m93b0483c22"
                   x="308.565977742"
                   style="stroke:#000000;stroke-width:0.5;" />
              </g>
            </g>
            <g
               id="line2d_18">
              <g
                 id="g144">
                <use
                   id="use146"
                   y="43.2"
                   xlink:href="#m741efc42ff"
                   x="308.565977742"
                   style="stroke:#000000;stroke-width:0.5;" />
              </g>
            </g>
            <g
               id="text_5">
              <!-- 2.0 -->
              <defs
                 id="defs149">
                <path
                   id="BitstreamVeraSans-Roman-32"
                   d=" M19.1875 8.29688 L53.6094 8.29688 L53.6094 0 L7.32812 0 L7.32812 8.29688 Q12.9375 14.1094 22.625 23.8906 Q32.3281 33.6875 34.8125 36.5312 Q39.5469 41.8438 41.4219 45.5312 Q43.3125 49.2188 43.3125 52.7812 Q43.3125 58.5938 39.2344 62.25 Q35.1562 65.9219 28.6094 65.9219 Q23.9688 65.9219 18.8125 64.3125 Q13.6719 62.7031 7.8125 59.4219 L7.8125 69.3906 Q13.7656 71.7812 18.9375 73 Q24.125 74.2188 28.4219 74.2188 Q39.75 74.2188 46.4844 68.5469 Q53.2188 62.8906 53.2188 53.4219 Q53.2188 48.9219 51.5312 44.8906 Q49.8594 40.875 45.4062 35.4062 Q44.1875 33.9844 37.6406 27.2188 Q31.1094 20.4531 19.1875 8.29688" />
              </defs>
              <g
                 id="g152"
                 transform="translate(299.862227742 401.918125)scale(0.12 -0.12)">
                <use
                   id="use154"
                   xlink:href="#BitstreamVeraSans-Roman-32" />
                <use
                   id="use156"
                   xlink:href="#BitstreamVeraSans-Roman-2e"
                   x="63.623046875" />
                <use
                   id="use158"
                   xlink:href="#BitstreamVeraSans-Roman-30"
                   x="95.41015625" />
              </g>
            </g>
          </g>
          <g
             id="xtick_6">
            <g
               id="line2d_19">
              <path
                 id="path162"
                 style="fill:none;stroke:#000000;stroke-dasharray:1.000000,3.000000;stroke-dashoffset:0.0;stroke-width:0.5;"
                 d=" M367.707 388.8 L367.707 43.2"
                 clip-path="url(#p7ff5b81e1d)" />
            </g>
            <g
               id="line2d_20">
              <g
                 id="g165">
                <use
                   id="use167"
                   y="388.8"
                   xlink:href="#m93b0483c22"
                   x="367.707472178"
                   style="stroke:#000000;stroke-width:0.5;" />
              </g>
            </g>
            <g
               id="line2d_21">
              <g
                 id="g170">
                <use
                   id="use172"
                   y="43.2"
                   xlink:href="#m741efc42ff"
                   x="367.707472178"
                   style="stroke:#000000;stroke-width:0.5;" />
              </g>
            </g>
            <g
               id="text_6">
              <!-- 2.5 -->
              <g
                 id="g175"
                 transform="translate(359.129347178 401.918125)scale(0.12 -0.12)">
                <use
                   id="use177"
                   xlink:href="#BitstreamVeraSans-Roman-32" />
                <use
                   id="use179"
                   xlink:href="#BitstreamVeraSans-Roman-2e"
                   x="63.623046875" />
                <use
                   id="use181"
                   xlink:href="#BitstreamVeraSans-Roman-35"
                   x="95.41015625" />
              </g>
            </g>
          </g>
          <g
             id="xtick_7">
            <g
               id="line2d_22">
              <path
                 id="path185"
                 style="fill:none;stroke:#000000;stroke-dasharray:1.000000,3.000000;stroke-dashoffset:0.0;stroke-width:0.5;"
                 d=" M426.849 388.8 L426.849 43.2"
                 clip-path="url(#p7ff5b81e1d)" />
            </g>
            <g
               id="line2d_23">
              <g
                 id="g188">
                <use
                   id="use190"
                   y="388.8"
                   xlink:href="#m93b0483c22"
                   x="426.848966614"
                   style="stroke:#000000;stroke-width:0.5;" />
              </g>
            </g>
            <g
               id="line2d_24">
              <g
                 id="g193">
                <use
                   id="use195"
                   y="43.2"
                   xlink:href="#m741efc42ff"
                   x="426.848966614"
                   style="stroke:#000000;stroke-width:0.5;" />
              </g>
            </g>
            <g
               id="text_7">
              <!-- 3.0 -->
              <defs
                 id="defs198">
                <path
                   id="BitstreamVeraSans-Roman-33"
                   d=" M40.5781 39.3125 Q47.6562 37.7969 51.625 33 Q55.6094 28.2188 55.6094 21.1875 Q55.6094 10.4062 48.1875 4.48438 Q40.7656 -1.42188 27.0938 -1.42188 Q22.5156 -1.42188 17.6562 -0.515625 Q12.7969 0.390625 7.625 2.20312 L7.625 11.7188 Q11.7188 9.32812 16.5938 8.10938 Q21.4844 6.89062 26.8125 6.89062 Q36.0781 6.89062 40.9375 10.5469 Q45.7969 14.2031 45.7969 21.1875 Q45.7969 27.6406 41.2812 31.2656 Q36.7656 34.9062 28.7188 34.9062 L20.2188 34.9062 L20.2188 43.0156 L29.1094 43.0156 Q36.375 43.0156 40.2344 45.9219 Q44.0938 48.8281 44.0938 54.2969 Q44.0938 59.9062 40.1094 62.9062 Q36.1406 65.9219 28.7188 65.9219 Q24.6562 65.9219 20.0156 65.0312 Q15.375 64.1562 9.8125 62.3125 L9.8125 71.0938 Q15.4375 72.6562 20.3438 73.4375 Q25.25 74.2188 29.5938 74.2188 Q40.8281 74.2188 47.3594 69.1094 Q53.9062 64.0156 53.9062 55.3281 Q53.9062 49.2656 50.4375 45.0938 Q46.9688 40.9219 40.5781 39.3125" />
              </defs>
              <g
                 id="g201"
                 transform="translate(418.163029114 401.918125)scale(0.12 -0.12)">
                <use
                   id="use203"
                   xlink:href="#BitstreamVeraSans-Roman-33" />
                <use
                   id="use205"
                   xlink:href="#BitstreamVeraSans-Roman-2e"
                   x="63.623046875" />
                <use
                   id="use207"
                   xlink:href="#BitstreamVeraSans-Roman-30"
                   x="95.41015625" />
              </g>
            </g>
          </g>
          <g
             id="xtick_8">
            <g
               id="line2d_25">
              <path
                 id="path211"
                 style="fill:none;stroke:#000000;stroke-dasharray:1.000000,3.000000;stroke-dashoffset:0.0;stroke-width:0.5;"
                 d=" M485.99 388.8 L485.99 43.2"
                 clip-path="url(#p7ff5b81e1d)" />
            </g>
            <g
               id="line2d_26">
              <g
                 id="g214">
                <use
                   id="use216"
                   y="388.8"
                   xlink:href="#m93b0483c22"
                   x="485.990461049"
                   style="stroke:#000000;stroke-width:0.5;" />
              </g>
            </g>
            <g
               id="line2d_27">
              <g
                 id="g219">
                <use
                   id="use221"
                   y="43.2"
                   xlink:href="#m741efc42ff"
                   x="485.990461049"
                   style="stroke:#000000;stroke-width:0.5;" />
              </g>
            </g>
            <g
               id="text_8">
              <!-- 3.5 -->
              <g
                 id="g224"
                 transform="translate(477.430148549 401.918125)scale(0.12 -0.12)">
                <use
                   id="use226"
                   xlink:href="#BitstreamVeraSans-Roman-33" />
                <use
                   id="use228"
                   xlink:href="#BitstreamVeraSans-Roman-2e"
                   x="63.623046875" />
                <use
                   id="use230"
                   xlink:href="#BitstreamVeraSans-Roman-35"
                   x="95.41015625" />
              </g>
            </g>
          </g>
          <g
             id="text_9">
            <!-- $time (s)$ -->
            <defs
               id="defs233">
              <path
                 id="Cmmi10-6d"
                 d=" M7.71875 1.70312 Q7.71875 2.29688 7.8125 2.59375 L15.2812 32.4219 Q16.0156 35.2031 16.0156 37.3125 Q16.0156 41.6094 13.0938 41.6094 Q9.96875 41.6094 8.45312 37.8594 Q6.9375 34.125 5.51562 28.4219 Q5.51562 28.125 5.21875 27.9531 Q4.9375 27.7812 4.6875 27.7812 L3.51562 27.7812 Q3.17188 27.7812 2.92188 28.1406 Q2.6875 28.5156 2.6875 28.8125 Q3.76562 33.1562 4.76562 36.1719 Q5.76562 39.2031 7.89062 41.6875 Q10.0156 44.1875 13.1875 44.1875 Q16.9375 44.1875 19.8125 41.8125 Q22.7031 39.4531 22.7031 35.7969 Q25.6875 39.7031 29.6875 41.9375 Q33.6875 44.1875 38.1875 44.1875 Q42.9219 44.1875 46.3594 41.7656 Q49.8125 39.3594 49.8125 34.9062 Q52.875 39.2656 57 41.7188 Q61.1406 44.1875 66.0156 44.1875 Q71.1875 44.1875 74.3281 41.375 Q77.4844 38.5781 77.4844 33.4062 Q77.4844 29.2969 75.6562 23.4844 Q73.8281 17.6719 71.0938 10.5 Q69.6719 7.03125 69.6719 4.5 Q69.6719 1.51562 72.0156 1.51562 Q75.9219 1.51562 78.5156 5.70312 Q81.1094 9.90625 82.1719 14.7031 Q82.4688 15.2812 83.0156 15.2812 L84.1875 15.2812 Q84.5781 15.2812 84.8438 15.0156 Q85.1094 14.75 85.1094 14.4062 Q85.1094 14.3125 85.0156 14.1094 Q83.6406 8.45312 80.25 3.65625 Q76.8594 -1.125 71.7812 -1.125 Q68.2656 -1.125 65.7656 1.29688 Q63.2812 3.71875 63.2812 7.17188 Q63.2812 8.9375 64.1094 11.0781 Q66.9375 18.6094 68.8125 24.5156 Q70.7031 30.4219 70.7031 34.9062 Q70.7031 37.7031 69.5781 39.6562 Q68.4531 41.6094 65.8281 41.6094 Q60.3594 41.6094 56.3438 38.25 Q52.3438 34.9062 49.4219 29.3906 Q49.2188 28.4219 49.125 27.875 L42.6719 2.20312 Q42.3281 0.828125 41.125 -0.140625 Q39.9375 -1.125 38.4844 -1.125 Q37.3125 -1.125 36.4062 -0.34375 Q35.5 0.4375 35.5 1.70312 Q35.5 2.29688 35.5938 2.59375 L42 28.0781 Q43.0156 32.1719 43.0156 34.9062 Q43.0156 37.7031 41.8594 39.6562 Q40.7188 41.6094 37.9844 41.6094 Q34.3281 41.6094 31.25 39.9844 Q28.1719 38.375 25.875 35.7188 Q23.5781 33.0625 21.6875 29.3906 L14.8906 2.20312 Q14.5469 0.828125 13.3438 -0.140625 Q12.1562 -1.125 10.6875 -1.125 Q9.46875 -1.125 8.59375 -0.34375 Q7.71875 0.4375 7.71875 1.70312" />
              <path
                 id="Cmr10-28"
                 d=" M31 -24.8125 Q25.4375 -20.4062 21.4062 -14.7188 Q17.3906 -9.03125 14.8125 -2.57812 Q12.25 3.85938 10.9844 10.8906 Q9.71875 17.9219 9.71875 25 Q9.71875 32.1719 10.9844 39.2031 Q12.25 46.2344 14.8594 52.7344 Q17.4844 59.2344 21.5312 64.8906 Q25.5938 70.5625 31 74.8125 Q31 75 31.5 75 L32.4219 75 Q32.7188 75 32.9531 74.7344 Q33.2031 74.4688 33.2031 74.125 Q33.2031 73.6875 33.0156 73.4844 Q28.125 68.7031 24.875 63.2344 Q21.625 57.7656 19.6406 51.5781 Q17.6719 45.4062 16.7969 38.7812 Q15.9219 32.1719 15.9219 25 Q15.9219 -6.78125 32.9062 -23.2969 Q33.2031 -23.5781 33.2031 -24.125 Q33.2031 -24.3594 32.9375 -24.6719 Q32.6719 -25 32.4219 -25 L31.5 -25 Q31 -25 31 -24.8125" />
              <path
                 id="Cmr10-29"
                 d=" M6.5 -25 Q5.60938 -25 5.60938 -24.125 Q5.60938 -23.6875 5.8125 -23.4844 Q22.9062 -6.78125 22.9062 25 Q22.9062 56.7812 6 73.2969 Q5.60938 73.5312 5.60938 74.125 Q5.60938 74.4688 5.875 74.7344 Q6.15625 75 6.5 75 L7.42188 75 Q7.71875 75 7.90625 74.8125 Q15.0938 69.1406 19.875 61.0312 Q24.6562 52.9375 26.875 43.75 Q29.1094 34.5781 29.1094 25 Q29.1094 17.9219 27.9062 11.0625 Q26.7031 4.20312 24.0938 -2.45312 Q21.4844 -9.125 17.4844 -14.7656 Q13.4844 -20.4062 7.90625 -24.8125 Q7.71875 -25 7.42188 -25 z " />
              <path
                 id="Cmmi10-73"
                 d=" M8.6875 6.10938 Q11.375 1.51562 19.4844 1.51562 Q23 1.51562 26.1719 2.70312 Q29.3438 3.90625 31.4219 6.29688 Q33.5 8.6875 33.5 12.1094 Q33.5 14.7031 31.6406 16.3594 Q29.7812 18.0156 27.0938 18.6094 L21.6875 19.6719 Q17.9688 20.6094 15.5781 23.1406 Q13.1875 25.6875 13.1875 29.2969 Q13.1875 33.7344 15.5938 37.1562 Q18.0156 40.5781 21.9688 42.375 Q25.9219 44.1875 30.1719 44.1875 Q34.7188 44.1875 38.2969 42.0156 Q41.8906 39.8438 41.8906 35.5938 Q41.8906 33.2969 40.5938 31.5312 Q39.3125 29.7812 37.0156 29.7812 Q35.6875 29.7812 34.7344 30.6406 Q33.7969 31.5 33.7969 32.8125 Q33.7969 33.9844 34.4531 35.0781 Q35.1094 36.1875 36.2031 36.8438 Q37.3125 37.5 38.4844 37.5 Q37.5938 39.6562 35.1719 40.625 Q32.7656 41.6094 29.9844 41.6094 Q27.4375 41.6094 24.8906 40.5781 Q22.3594 39.5469 20.8125 37.5625 Q19.2812 35.5938 19.2812 32.9062 Q19.2812 31.1094 20.5469 29.7344 Q21.8281 28.375 23.6875 27.7812 L29.5 26.6094 Q32.2812 26.0312 34.5938 24.5312 Q36.9219 23.0469 38.25 20.7656 Q39.5938 18.5 39.5938 15.5781 Q39.5938 11.8594 37.5156 8.25 Q35.4531 4.64062 32.4219 2.48438 Q27.0938 -1.125 19.3906 -1.125 Q14.0625 -1.125 9.60938 1.3125 Q5.17188 3.76562 5.17188 8.59375 Q5.17188 11.3281 6.75 13.3438 Q8.34375 15.375 11.0781 15.375 Q12.7031 15.375 13.7969 14.3906 Q14.8906 13.4219 14.8906 11.8125 Q14.8906 9.51562 13.1719 7.8125 Q11.4688 6.10938 9.1875 6.10938 z " />
              <path
                 id="Cmmi10-65"
                 d=" M20.125 -1.125 Q15.3281 -1.125 11.7344 1.35938 Q8.15625 3.85938 6.26562 8.07812 Q4.39062 12.3125 4.39062 17 Q4.39062 24.125 7.98438 30.3906 Q11.5781 36.6719 17.7188 40.4219 Q23.875 44.1875 30.9062 44.1875 Q35.2031 44.1875 38.4062 41.9688 Q41.6094 39.75 41.6094 35.5938 Q41.6094 29.8281 37.0156 27.0156 Q32.4219 24.2188 26.6562 23.5625 Q20.9062 22.9062 13.9219 22.9062 L13.625 22.9062 Q12.0156 16.9375 12.0156 12.7031 Q12.0156 8.25 14.0625 4.875 Q16.1094 1.51562 20.3125 1.51562 Q26.2656 1.51562 31.75 4.25 Q37.25 6.98438 40.7188 11.8125 Q41.0156 12.1094 41.5 12.1094 Q42 12.1094 42.5 11.5469 Q43.0156 10.9844 43.0156 10.5 Q43.0156 10.1094 42.8281 9.90625 Q39.1562 4.78125 32.9531 1.82812 Q26.7656 -1.125 20.125 -1.125 M14.2031 25.4844 Q20.0156 25.4844 24.9531 26.0156 Q29.8906 26.5625 33.8906 28.7344 Q37.8906 30.9062 37.8906 35.5 Q37.8906 37.3594 36.8594 38.75 Q35.8438 40.1406 34.2031 40.875 Q32.5625 41.6094 30.8125 41.6094 Q26.5625 41.6094 23.1719 39.3125 Q19.7812 37.0156 17.5781 33.3281 Q15.375 29.6406 14.2031 25.4844" />
              <path
                 id="Cmmi10-74"
                 d=" M6.20312 8.10938 Q6.20312 9.57812 6.5 10.8906 L13.7188 39.5938 L3.21875 39.5938 Q2.20312 39.5938 2.20312 40.9219 Q2.59375 43.1094 3.51562 43.1094 L14.5938 43.1094 L18.6094 59.4219 Q19 60.75 20.1719 61.6719 Q21.3438 62.5938 22.7969 62.5938 Q24.0781 62.5938 24.9219 61.8281 Q25.7812 61.0781 25.7812 59.8125 Q25.7812 59.5156 25.75 59.3438 Q25.7344 59.1875 25.6875 58.9844 L21.6875 43.1094 L31.9844 43.1094 Q33.0156 43.1094 33.0156 41.7969 Q32.9531 41.5469 32.8125 40.9531 Q32.6719 40.375 32.4219 39.9844 Q32.1719 39.5938 31.6875 39.5938 L20.7969 39.5938 L13.625 10.6875 Q12.8906 7.85938 12.8906 5.8125 Q12.8906 1.51562 15.8281 1.51562 Q20.2188 1.51562 23.6094 5.64062 Q27 9.76562 28.8125 14.7031 Q29.2031 15.2812 29.5938 15.2812 L30.8125 15.2812 Q31.2031 15.2812 31.4375 15.0156 Q31.6875 14.75 31.6875 14.4062 Q31.6875 14.2031 31.5938 14.1094 Q29.3906 8.0625 25.1875 3.46875 Q21 -1.125 15.5781 -1.125 Q11.625 -1.125 8.90625 1.45312 Q6.20312 4.04688 6.20312 8.10938" />
              <path
                 id="Cmmi10-69"
                 d=" M7.8125 7.17188 Q7.8125 9.03125 8.59375 11.0781 L16.7031 32.625 Q18.0156 36.2812 18.0156 38.625 Q18.0156 41.6094 15.8281 41.6094 Q11.8594 41.6094 9.29688 37.5312 Q6.73438 33.4531 5.51562 28.4219 Q5.32812 27.7812 4.6875 27.7812 L3.51562 27.7812 Q2.6875 27.7812 2.6875 28.7188 L2.6875 29 Q4.29688 34.9688 7.60938 39.5781 Q10.9375 44.1875 16.0156 44.1875 Q19.5781 44.1875 22.0469 41.8438 Q24.5156 39.5 24.5156 35.8906 Q24.5156 34.0312 23.6875 31.9844 L15.5781 10.5 Q14.2031 7.17188 14.2031 4.5 Q14.2031 1.51562 16.5 1.51562 Q20.4062 1.51562 23.0156 5.6875 Q25.6406 9.85938 26.7031 14.7031 Q26.9062 15.2812 27.4844 15.2812 L28.7188 15.2812 Q29.1094 15.2812 29.3438 15.0156 Q29.5938 14.75 29.5938 14.4062 Q29.5938 14.3125 29.5 14.1094 Q28.125 8.45312 24.7344 3.65625 Q21.3438 -1.125 16.3125 -1.125 Q12.7969 -1.125 10.2969 1.29688 Q7.8125 3.71875 7.8125 7.17188 M19.0938 60.5938 Q19.0938 62.7031 20.8438 64.4062 Q22.6094 66.1094 24.7031 66.1094 Q26.4219 66.1094 27.5156 65.0625 Q28.6094 64.0156 28.6094 62.4062 Q28.6094 60.1562 26.8281 58.4688 Q25.0469 56.7812 22.9062 56.7812 Q21.2969 56.7812 20.1875 57.875 Q19.0938 58.9844 19.0938 60.5938" />
            </defs>
            <g
               id="g242"
               transform="translate(262.2 424.41375)scale(0.2 -0.2)">
              <use
                 id="use244"
                 xlink:href="#Cmmi10-74" />
              <use
                 id="use246"
                 xlink:href="#Cmmi10-69"
                 transform="translate(36.083984375 0.0)" />
              <use
                 id="use248"
                 xlink:href="#Cmmi10-6d"
                 transform="translate(70.5078125 0.0)" />
              <use
                 id="use250"
                 xlink:href="#Cmmi10-65"
                 transform="translate(158.30078125 0.0)" />
              <use
                 id="use252"
                 xlink:href="#Cmr10-28"
                 transform="translate(204.78515625 0.0)" />
              <use
                 id="use254"
                 xlink:href="#Cmmi10-73"
                 transform="translate(243.603515625 0.0)" />
              <use
                 id="use256"
                 xlink:href="#Cmr10-29"
                 transform="translate(290.380859375 0.0)" />
            </g>
          </g>
        </g>
        <g
           id="matplotlib.axis_2">
          <g
             id="ytick_1">
            <g
               id="line2d_28">
              <path
                 id="path261"
                 style="fill:none;stroke:#000000;stroke-dasharray:1.000000,3.000000;stroke-dashoffset:0.0;stroke-width:0.5;"
                 d=" M72 388.8 L518.4 388.8"
                 clip-path="url(#p7ff5b81e1d)" />
            </g>
            <g
               id="line2d_29">
              <defs
                 id="defs264">
                <path
                   style="stroke:#000000;stroke-width:0.5;"
                   id="m728421d6d4"
                   d=" M0 0 L4 0" />
              </defs>
              <g
                 id="g267">
                <use
                   id="use269"
                   y="388.8"
                   xlink:href="#m728421d6d4"
                   x="72.0"
                   style="stroke:#000000;stroke-width:0.5;" />
              </g>
            </g>
            <g
               id="line2d_30">
              <defs
                 id="defs272">
                <path
                   style="stroke:#000000;stroke-width:0.5;"
                   id="mcb0005524f"
                   d=" M0 0 L-4 0" />
              </defs>
              <g
                 id="g275">
                <use
                   id="use277"
                   y="388.8"
                   xlink:href="#mcb0005524f"
                   x="518.4"
                   style="stroke:#000000;stroke-width:0.5;" />
              </g>
            </g>
            <g
               id="text_10">
              <!-- −100 -->
              <defs
                 id="defs280">
                <path
                   id="BitstreamVeraSans-Roman-2212"
                   d=" M10.5938 35.5 L73.1875 35.5 L73.1875 27.2031 L10.5938 27.2031 z " />
              </defs>
              <g
                 id="g283"
                 transform="translate(37.1075 392.11125)scale(0.12 -0.12)">
                <use
                   id="use285"
                   xlink:href="#BitstreamVeraSans-Roman-2212" />
                <use
                   id="use287"
                   xlink:href="#BitstreamVeraSans-Roman-31"
                   x="83.7890625" />
                <use
                   id="use289"
                   xlink:href="#BitstreamVeraSans-Roman-30"
                   x="147.412109375" />
                <use
                   id="use291"
                   xlink:href="#BitstreamVeraSans-Roman-30"
                   x="211.03515625" />
              </g>
            </g>
          </g>
          <g
             id="ytick_2">
            <g
               id="line2d_31">
              <path
                 id="path295"
                 style="fill:none;stroke:#000000;stroke-dasharray:1.000000,3.000000;stroke-dashoffset:0.0;stroke-width:0.5;"
                 d=" M72 319.68 L518.4 319.68"
                 clip-path="url(#p7ff5b81e1d)" />
            </g>
            <g
               id="line2d_32">
              <g
                 id="g298">
                <use
                   id="use300"
                   y="319.68"
                   xlink:href="#m728421d6d4"
                   x="72.0"
                   style="stroke:#000000;stroke-width:0.5;" />
              </g>
            </g>
            <g
               id="line2d_33">
              <g
                 id="g303">
                <use
                   id="use305"
                   y="319.68"
                   xlink:href="#mcb0005524f"
                   x="518.4"
                   style="stroke:#000000;stroke-width:0.5;" />
              </g>
            </g>
            <g
               id="text_11">
              <!-- −50 -->
              <g
                 id="g308"
                 transform="translate(44.7425 322.99125)scale(0.12 -0.12)">
                <use
                   id="use310"
                   xlink:href="#BitstreamVeraSans-Roman-2212" />
                <use
                   id="use312"
                   xlink:href="#BitstreamVeraSans-Roman-35"
                   x="83.7890625" />
                <use
                   id="use314"
                   xlink:href="#BitstreamVeraSans-Roman-30"
                   x="147.412109375" />
              </g>
            </g>
          </g>
          <g
             id="ytick_3">
            <g
               id="line2d_34">
              <path
                 id="path318"
                 style="fill:none;stroke:#000000;stroke-dasharray:1.000000,3.000000;stroke-dashoffset:0.0;stroke-width:0.5;"
                 d=" M72 250.56 L518.4 250.56"
                 clip-path="url(#p7ff5b81e1d)" />
            </g>
            <g
               id="line2d_35">
              <g
                 id="g321">
                <use
                   id="use323"
                   y="250.56"
                   xlink:href="#m728421d6d4"
                   x="72.0"
                   style="stroke:#000000;stroke-width:0.5;" />
              </g>
            </g>
            <g
               id="line2d_36">
              <g
                 id="g326">
                <use
                   id="use328"
                   y="250.56"
                   xlink:href="#mcb0005524f"
                   x="518.4"
                   style="stroke:#000000;stroke-width:0.5;" />
              </g>
            </g>
            <g
               id="text_12">
              <!-- 0 -->
              <g
                 id="g331"
                 transform="translate(61.953125 253.87125)scale(0.12 -0.12)">
                <use
                   id="use333"
                   xlink:href="#BitstreamVeraSans-Roman-30" />
              </g>
            </g>
          </g>
          <g
             id="ytick_4">
            <g
               id="line2d_37">
              <path
                 id="path337"
                 style="fill:none;stroke:#000000;stroke-dasharray:1.000000,3.000000;stroke-dashoffset:0.0;stroke-width:0.5;"
                 d=" M72 181.44 L518.4 181.44"
                 clip-path="url(#p7ff5b81e1d)" />
            </g>
            <g
               id="line2d_38">
              <g
                 id="g340">
                <use
                   id="use342"
                   y="181.44"
                   xlink:href="#m728421d6d4"
                   x="72.0"
                   style="stroke:#000000;stroke-width:0.5;" />
              </g>
            </g>
            <g
               id="line2d_39">
              <g
                 id="g345">
                <use
                   id="use347"
                   y="181.44"
                   xlink:href="#mcb0005524f"
                   x="518.4"
                   style="stroke:#000000;stroke-width:0.5;" />
              </g>
            </g>
            <g
               id="text_13">
              <!-- 50 -->
              <g
                 id="g350"
                 transform="translate(54.453125 184.75125)scale(0.12 -0.12)">
                <use
                   id="use352"
                   xlink:href="#BitstreamVeraSans-Roman-35" />
                <use
                   id="use354"
                   xlink:href="#BitstreamVeraSans-Roman-30"
                   x="63.623046875" />
              </g>
            </g>
          </g>
          <g
             id="ytick_5">
            <g
               id="line2d_40">
              <path
                 id="path358"
                 style="fill:none;stroke:#000000;stroke-dasharray:1.000000,3.000000;stroke-dashoffset:0.0;stroke-width:0.5;"
                 d=" M72 112.32 L518.4 112.32"
                 clip-path="url(#p7ff5b81e1d)" />
            </g>
            <g
               id="line2d_41">
              <g
                 id="g361">
                <use
                   id="use363"
                   y="112.32"
                   xlink:href="#m728421d6d4"
                   x="72.0"
                   style="stroke:#000000;stroke-width:0.5;" />
              </g>
            </g>
            <g
               id="line2d_42">
              <g
                 id="g366">
                <use
                   id="use368"
                   y="112.32"
                   xlink:href="#mcb0005524f"
                   x="518.4"
                   style="stroke:#000000;stroke-width:0.5;" />
              </g>
            </g>
            <g
               id="text_14">
              <!-- 100 -->
              <g
                 id="g371"
                 transform="translate(47.21 115.63125)scale(0.12 -0.12)">
                <use
                   id="use373"
                   xlink:href="#BitstreamVeraSans-Roman-31" />
                <use
                   id="use375"
                   xlink:href="#BitstreamVeraSans-Roman-30"
                   x="63.623046875" />
                <use
                   id="use377"
                   xlink:href="#BitstreamVeraSans-Roman-30"
                   x="127.24609375" />
              </g>
            </g>
          </g>
          <g
             id="ytick_6">
            <g
               id="line2d_43">
              <path
                 id="path381"
                 style="fill:none;stroke:#000000;stroke-dasharray:1.000000,3.000000;stroke-dashoffset:0.0;stroke-width:0.5;"
                 d=" M72 43.2 L518.4 43.2"
                 clip-path="url(#p7ff5b81e1d)" />
            </g>
            <g
               id="line2d_44">
              <g
                 id="g384">
                <use
                   id="use386"
                   y="43.2"
                   xlink:href="#m728421d6d4"
                   x="72.0"
                   style="stroke:#000000;stroke-width:0.5;" />
              </g>
            </g>
            <g
               id="line2d_45">
              <g
                 id="g389">
                <use
                   id="use391"
                   y="43.2"
                   xlink:href="#mcb0005524f"
                   x="518.4"
                   style="stroke:#000000;stroke-width:0.5;" />
              </g>
            </g>
            <g
               id="text_15">
              <!-- 150 -->
              <g
                 id="g394"
                 transform="translate(47.21 46.51125)scale(0.12 -0.12)">
                <use
                   id="use396"
                   xlink:href="#BitstreamVeraSans-Roman-31" />
                <use
                   id="use398"
                   xlink:href="#BitstreamVeraSans-Roman-35"
                   x="63.623046875" />
                <use
                   id="use400"
                   xlink:href="#BitstreamVeraSans-Roman-30"
                   x="127.24609375" />
              </g>
            </g>
          </g>
        </g>
        <g
           id="patch_3">
          <path
             id="path403"
             style="fill:none;stroke:#000000;"
             d=" M72 43.2 L518.4 43.2" />
        </g>
        <g
           id="patch_4">
          <path
             id="path406"
             style="fill:none;stroke:#000000;"
             d=" M518.4 388.8 L518.4 43.2" />
        </g>
        <g
           id="patch_5">
          <path
             id="path409"
             style="fill:none;stroke:#000000;"
             d=" M72 388.8 L518.4 388.8" />
        </g>
        <g
           id="patch_6">
          <path
             id="path412"
             style="fill:none;stroke:#000000;"
             d=" M72 388.8 L72 43.2" />
        </g>
        <g
           style="stroke-linecap:butt;stroke-linejoin:round"
           transform="matrix(0.76027397,0,0,0.7758406,-160.08561,3.4296388)"
           id="legend_1">
          <g
             style="stroke-linecap:butt;stroke-linejoin:round"
             id="patch_7">
            <path
               inkscape:connector-curvature="0"
               id="path416"
               style="fill:#ffffff;stroke:#000000;stroke-linecap:butt;stroke-linejoin:round"
               d="m 307.8,160 200.6,0 0,-106.8 -200.6,0 0,106.8 z" />
          </g>
          <g
             style="stroke-linecap:butt;stroke-linejoin:round"
             id="line2d_46">
            <path
               inkscape:connector-curvature="0"
               id="path419"
               style="fill:none;stroke:#0000ff;stroke-width:2;stroke-linecap:square;stroke-linejoin:round"
               d="m 321.8,72.2 28,0" />
          </g>
          <g
             style="stroke-linecap:butt;stroke-linejoin:round"
             id="line2d_47" />
          <g
             style="stroke-linecap:butt;stroke-linejoin:round"
             id="text_16">
            <!-- $\ddot{q_0} (rad.s^{-2})$ -->
            <defs
               id="defs423">
              <path
                 style="stroke-linecap:butt;stroke-linejoin:round"
                 inkscape:connector-curvature="0"
                 id="Cmmi10-61"
                 d="m 17.3906,-1.125 q -6.3125,0 -9.9531,4.76562 -3.625,4.76563 -3.625,11.24998 0,6.4063 3.3125,13.2813 3.3281,6.8906 8.9688,11.4531 5.6406,4.5625 12.125,4.5625 2.9843,0 5.3281,-1.6094 2.3437,-1.6093 3.6562,-4.3906 1.125,4 4.4063,4 1.2656,0 2.1094,-0.7656 0.8593,-0.75 0.8593,-2.0157 0,-0.2968 -0.0312,-0.4531 -0.0157,-0.1406 -0.0625,-0.3281 L 37.5,10.6875 q -0.6875,-2.96875 -0.6875,-4.875 0,-4.29688 2.8906,-4.29688 3.125,0 4.75,3.96876 1.6407,3.98437 2.7657,9.21872 0.1874,0.5781 0.7812,0.5781 l 1.2188,0 q 0.3906,0 0.625,-0.3437 0.25,-0.3437 0.25,-0.625 Q 48.3438,7.32812 46.2656,3.09375 44.1875,-1.125 39.5,-1.125 q -3.3594,0 -5.9531,1.96875 Q 30.9531,2.82812 30.3281,6.10938 23.875,-1.125 17.3906,-1.125 m 0.0938,2.64062 q 3.6094,0 7,2.70313 3.3906,2.71875 5.8437,6.37505 0.0938,0.0937 0.0938,0.2968 l 5.375,21.7344 0.0937,0.2812 q -0.5937,3.5626 -2.5781,6.125 -1.9687,2.5782 -5.3281,2.5782 -3.375,0 -6.2813,-2.7656 -2.9062,-2.7657 -4.9062,-6.5157 -1.9531,-4 -3.7344,-10.9843 -1.7813,-6.9844 -1.7813,-10.8438 0,-3.46875 1.4844,-6.23438 1.5,-2.75 4.7188,-2.75" />
              <path
                 style="stroke-linecap:butt;stroke-linejoin:round"
                 inkscape:connector-curvature="0"
                 id="Cmr10-30"
                 d="m 25,-2.20312 q -12.25,0 -16.67188,10.07812 -4.42187,10.0938 -4.42187,24.0156 0,8.6875 1.57813,16.3438 Q 7.07812,55.9062 11.7812,61.25 16.5,66.6094 25,66.6094 q 6.5938,0 10.7812,-3.2344 4.2032,-3.2188 6.4063,-8.3281 2.2031,-5.0938 3,-10.9375 Q 46,38.2812 46,31.8906 46,23.2969 44.4062,15.7969 42.8281,8.29688 38.1875,3.04688 33.5469,-2.20312 25,-2.20312 m 0,2.593745 q 5.5625,0 8.2969,5.703125 2.7343,5.71875 3.375,12.65625 0.6406,6.9375 0.6406,14.75 0,7.5156 -0.6406,13.8594 -0.6407,6.3594 -3.3594,11.5 -2.7031,5.1562 -8.3125,5.1562 -5.6562,0 -8.3906,-5.1875 -2.7344,-5.1719 -3.375,-11.5 -0.6406,-6.3125 -0.6406,-13.8281 0,-5.5625 0.2656,-10.5 0.2812,-4.9375 1.4531,-10.1875 1.1719,-5.25 3.7813,-8.84375 Q 20.7031,0.390625 25,0.390625" />
              <path
                 style="stroke-linecap:butt;stroke-linejoin:round"
                 inkscape:connector-curvature="0"
                 id="Cmr10-32"
                 d="m 4.98438,0 0,2.6875 q 0,0.25 0.1875,0.53125 L 20.7031,20.4062 q 3.5157,3.8126 5.7031,6.3907 2.2032,2.5937 4.3438,5.9687 2.1562,3.375 3.4062,6.8594 1.25,3.4844 1.25,7.3906 0,4.1094 -1.5156,7.8438 -1.5156,3.7344 -4.5156,5.9844 -3,2.25 -7.25,2.25 -4.3438,0 -7.8125,-2.625 -3.4687,-2.6094 -4.89062,-6.75 0.39062,0.0937 1.07812,0.0937 2.25,0 3.8281,-1.5156 1.5938,-1.5157 1.5938,-3.9063 0,-2.2968 -1.5938,-3.8906 Q 12.75,42.9219 10.5,42.9219 q -2.34375,0 -3.9375,1.625 -1.57812,1.6406 -1.57812,3.8437 0,3.7656 1.40624,7.0469 1.42188,3.2969 4.07818,5.8594 2.6718,2.5781 6.0156,3.9375 3.3437,1.375 7.0937,1.375 5.7188,0 10.6407,-2.4219 4.9374,-2.4219 7.8124,-6.8437 2.8907,-4.4063 2.8907,-10.3282 0,-4.3437 -1.9063,-8.25 -1.9062,-3.9062 -4.8906,-7.1094 -2.9688,-3.1874 -7.6094,-7.25 Q 25.875,20.3594 24.4219,19 L 13.0938,8.10938 l 9.6093,0 q 7.0781,0 11.8438,0.10937 4.7656,0.125 5.0469,0.375 Q 40.7656,9.85938 42,17.8281 l 2.9219,0 L 42.0938,0 z" />
              <path
                 style="stroke-linecap:butt;stroke-linejoin:round"
                 inkscape:connector-curvature="0"
                 id="Cmmi10-72"
                 d="m 7.71875,1.70312 q 0,0.59376 0.09375,0.89063 l 7.4687,29.82815 q 0.7344,2.7812 0.7344,4.8906 0,4.2969 -2.9218,4.2969 -3.12505,0 -4.64068,-3.75 -1.51562,-3.7344 -2.9375,-9.4375 0,-0.2969 -0.29687,-0.4688 Q 4.9375,27.7812 4.6875,27.7812 l -1.17188,0 q -0.34374,0 -0.59374,0.3594 -0.23438,0.375 -0.23438,0.6719 1.07812,4.3437 2.07812,7.3594 1,3.0312 3.125,5.5156 2.12498,2.5 5.29688,2.5 3.4687,0 6.0781,-2 2.6094,-2 3.25,-5.2656 2.5313,3.3125 5.7813,5.2812 3.25,1.9844 7.1093,1.9844 3.1719,0 5.5782,-1.8594 2.4218,-1.8437 2.4218,-5.0156 0,-2.5469 -1.5937,-4.4375 Q 40.2344,31 37.5938,31 q -1.6094,0 -2.7032,1 -1.0937,1.0156 -1.0937,2.625 0,2.1875 1.6093,3.9219 1.6094,1.7343 3.7032,1.7343 -1.6094,1.3282 -3.9063,1.3282 -4.2969,0 -7.4687,-3.0625 Q 24.5625,35.5 22.0156,30.8125 L 14.8906,2.20312 Q 14.5469,0.828125 13.3438,-0.140625 12.1562,-1.125 10.6875,-1.125 q -1.21875,0 -2.09375,0.78125 -0.875,0.78125 -0.875,2.04687" />
              <path
                 style="stroke-linecap:butt;stroke-linejoin:round"
                 inkscape:connector-curvature="0"
                 id="Cmsy10-a1"
                 d="M 10.2031,23 Q 9.375,23 8.82812,23.625 8.29688,24.2656 8.29688,25 q 0,0.7344 0.53124,1.3594 Q 9.375,27 10.2031,27 l 57.375,0 q 0.7813,0 1.2969,-0.6406 0.5156,-0.625 0.5156,-1.3594 0,-0.7344 -0.5156,-1.375 Q 68.3594,23 67.5781,23 z" />
              <path
                 style="stroke-linecap:butt;stroke-linejoin:round"
                 inkscape:connector-curvature="0"
                 id="Cmmi10-71"
                 d="m 14.7031,-18.1094 q 0.3438,2.1875 1.3125,2.1875 3.6094,0 5.6875,0.5938 2.0781,0.5781 2.7188,2.8281 l 4.2969,17 Q 23,-1.125 17.2812,-1.125 10.9844,-1.125 7.39062,3.64062 3.8125,8.40625 3.8125,14.8906 q 0,6.4063 3.29688,13.2813 3.29682,6.8906 8.93752,11.4531 5.6406,4.5625 12.1719,4.5625 3.0312,0 5.4687,-1.8125 2.4531,-1.7969 3.7187,-4.7812 0.5782,1.1718 3.2344,3.875 2.6719,2.7187 3.75,2.7187 1.125,0 1.125,-1.2656 L 31.5,-12.8906 q -0.25,-1.4688 -0.2969,-1.7032 0,-1.3281 6.5938,-1.3281 0.4843,0 0.75,-0.3906 0.2656,-0.3906 0.2656,-0.875 -0.3281,-1.3125 -0.5625,-1.75 -0.2188,-0.4531 -1.1406,-0.4531 l -21.3906,0 q -1.0157,0 -1.0157,1.2812 m 2.7813,19.62502 q 3.5156,0 6.8594,2.65626 3.3437,2.67187 5.8281,6.32812 l 5.625,22.5156 q -0.5938,3.5156 -2.5781,6.0469 -1.9688,2.5469 -5.2344,2.5469 -3.375,0 -6.2813,-2.7656 -2.9062,-2.7657 -4.9062,-6.5157 -1.9531,-4 -3.7344,-10.9843 -1.7813,-6.9844 -1.7813,-10.8438 0,-3.46875 1.4844,-6.23438 1.5,-2.75 4.7188,-2.75" />
              <path
                 style="stroke-linecap:butt;stroke-linejoin:round"
                 inkscape:connector-curvature="0"
                 id="Cmmi10-64"
                 d="m 17.3906,-1.125 q -6.3125,0 -9.9531,4.76562 -3.625,4.76563 -3.625,11.24998 0,6.4063 3.3125,13.2813 3.3281,6.8906 8.9688,11.4531 5.6406,4.5625 12.125,4.5625 2.9374,0 5.2968,-1.6406 2.375,-1.625 3.6875,-4.3594 L 42.8281,60.5 q 0.3907,1.7031 0.4844,2.6875 0,1.6094 -6.5,1.6094 -1.0156,0 -1.0156,1.3125 0.0469,0.25 0.2187,0.875 0.1719,0.6406 0.4375,0.9844 0.2657,0.3437 0.75,0.3437 l 13.4844,1.0781 q 1.2187,0 1.2187,-1.2812 L 37.5,10.5938 q -0.6875,-1.6563 -0.6875,-4.7813 0,-4.29688 2.8906,-4.29688 3.125,0 4.75,3.96876 1.6407,3.98437 2.7657,9.21872 0.1874,0.5781 0.7812,0.5781 l 1.2188,0 q 0.3906,0 0.625,-0.3437 0.25,-0.3437 0.25,-0.625 Q 48.3438,7.32812 46.2656,3.09375 44.1875,-1.125 39.5,-1.125 q -3.3594,0 -5.9531,1.96875 Q 30.9531,2.82812 30.3281,6.10938 23.875,-1.125 17.3906,-1.125 m 0.0938,2.64062 q 3.6094,0 7,2.70313 3.3906,2.71875 5.8437,6.37505 0.0938,0.0937 0.0938,0.3906 l 5.4687,22.0312 q -0.5937,3.5156 -2.5937,6.0469 -2,2.5469 -5.3125,2.5469 -3.375,0 -6.2813,-2.7656 -2.9062,-2.7657 -4.9062,-6.5157 -1.9531,-4 -3.7344,-10.9843 -1.7813,-6.9844 -1.7813,-10.8438 0,-3.46875 1.4844,-6.23438 1.5,-2.75 4.7188,-2.75" />
              <path
                 style="stroke-linecap:butt;stroke-linejoin:round"
                 inkscape:connector-curvature="0"
                 id="Cmr10-c4"
                 d="m 10.1094,61.7188 q 0,2.0937 1.4844,3.625 1.5,1.5468 3.6874,1.5468 2.2032,0 3.7188,-1.5156 1.5156,-1.5 1.5156,-3.6562 0,-2.2032 -1.5156,-3.7188 -1.5156,-1.5 -3.7188,-1.5 -2.1874,0 -3.6874,1.5312 -1.4844,1.5469 -1.4844,3.6876 m 19.2812,0 q 0,2.0937 1.4844,3.625 1.5,1.5468 3.75,1.5468 2.1406,0 3.6562,-1.5156 1.5157,-1.5 1.5157,-3.6562 0,-2.2032 -1.5157,-3.7188 -1.5156,-1.5 -3.6562,-1.5 -2.25,0 -3.75,1.5312 -1.4844,1.5469 -1.4844,3.6876" />
              <path
                 style="stroke-linecap:butt;stroke-linejoin:round"
                 inkscape:connector-curvature="0"
                 id="Cmmi10-3a"
                 d="m 8.40625,5.51562 q 0,2.25 1.65625,3.85938 1.6563,1.6094 3.8594,1.6094 1.3593,0 2.6719,-0.7344 1.3281,-0.73438 2.0624,-2.04688 0.7344,-1.3125 0.7344,-2.6875 0,-2.1875 -1.625,-3.85937 Q 16.1562,0 13.9219,0 11.7188,0 10.0625,1.65625 8.40625,3.32812 8.40625,5.51562" />
            </defs>
            <g
               style="stroke-linecap:butt;stroke-linejoin:round"
               id="g434"
               transform="matrix(0.2,0,0,-0.2,371.8,79.2)">
              <use
                 height="432"
                 width="576"
                 y="0"
                 x="0"
                 style="stroke-linecap:butt;stroke-linejoin:round"
                 id="use436"
                 xlink:href="#Cmr10-c4"
                 transform="translate(4.8635979,2.6343976)" />
              <use
                 height="432"
                 width="576"
                 y="0"
                 x="0"
                 style="stroke-linecap:butt;stroke-linejoin:round"
                 id="use438"
                 xlink:href="#Cmmi10-71"
                 transform="translate(0,0.8578125)" />
              <use
                 height="432"
                 width="576"
                 y="0"
                 x="0"
                 style="stroke-linecap:butt;stroke-linejoin:round"
                 id="use440"
                 xlink:href="#Cmr10-30"
                 transform="matrix(0.7,0,0,0.7,44.580078,-24.651562)" />
              <g
                 style="stroke-linecap:butt;stroke-linejoin:round"
                 transform="translate(135.40541,-2.3836276)"
                 id="g3524">
                <use
                   transform="translate(94.580078,0.8578125)"
                   xlink:href="#Cmr10-28"
                   id="use442"
                   style="stroke-linecap:butt;stroke-linejoin:round"
                   x="0"
                   y="0"
                   width="576"
                   height="432" />
                <use
                   transform="translate(133.39844,0.8578125)"
                   xlink:href="#Cmmi10-72"
                   id="use444"
                   style="stroke-linecap:butt;stroke-linejoin:round"
                   x="0"
                   y="0"
                   width="576"
                   height="432" />
                <use
                   transform="translate(178.51562,0.8578125)"
                   xlink:href="#Cmmi10-61"
                   id="use446"
                   style="stroke-linecap:butt;stroke-linejoin:round"
                   x="0"
                   y="0"
                   width="576"
                   height="432" />
                <use
                   transform="translate(231.29883,0.8578125)"
                   xlink:href="#Cmmi10-64"
                   id="use448"
                   style="stroke-linecap:butt;stroke-linejoin:round"
                   x="0"
                   y="0"
                   width="576"
                   height="432" />
                <use
                   transform="translate(283.30078,0.8578125)"
                   xlink:href="#Cmmi10-3a"
                   id="use450"
                   style="stroke-linecap:butt;stroke-linejoin:round"
                   x="0"
                   y="0"
                   width="576"
                   height="432" />
                <use
                   transform="translate(311.84375,0.8578125)"
                   xlink:href="#Cmmi10-73"
                   id="use452"
                   style="stroke-linecap:butt;stroke-linejoin:round"
                   x="0"
                   y="0"
                   width="576"
                   height="432" />
                <use
                   transform="matrix(0.7,0,0,0.7,358.62109,43.373438)"
                   xlink:href="#Cmsy10-a1"
                   id="use454"
                   style="stroke-linecap:butt;stroke-linejoin:round"
                   x="0"
                   y="0"
                   width="576"
                   height="432" />
                <use
                   transform="matrix(0.7,0,0,0.7,413.00098,43.373438)"
                   xlink:href="#Cmr10-32"
                   id="use456"
                   style="stroke-linecap:butt;stroke-linejoin:round"
                   x="0"
                   y="0"
                   width="576"
                   height="432" />
                <use
                   transform="translate(465.00723,0.8578125)"
                   xlink:href="#Cmr10-29"
                   id="use458"
                   style="stroke-linecap:butt;stroke-linejoin:round"
                   x="0"
                   y="0"
                   width="576"
                   height="432" />
              </g>
            </g>
          </g>
          <g
             style="stroke-linecap:butt;stroke-linejoin:round"
             id="line2d_48">
            <path
               inkscape:connector-curvature="0"
               id="path461"
               style="fill:none;stroke:#ff0000;stroke-width:2;stroke-linecap:square;stroke-linejoin:round"
               d="m 321.8,105.8 28,0" />
          </g>
          <g
             style="stroke-linecap:butt;stroke-linejoin:round"
             id="line2d_49" />
          <g
             style="stroke-linecap:butt;stroke-linejoin:round"
             id="text_17">
            <!-- $\ddot{q_0}_{max}  (rad.s^{-2})$ -->
            <defs
               id="defs465">
              <path
                 style="stroke-linecap:butt;stroke-linejoin:round"
                 inkscape:connector-curvature="0"
                 id="Cmmi10-78"
                 d="m 7.8125,2.875 q 1.76562,-1.35938 4.9844,-1.35938 3.125,0 5.5156,3 2.3906,3 3.2656,6.56248 l 4.5469,17.7344 q 1.0781,4.8281 1.0781,6.5937 0,2.4844 -1.3906,4.3438 -1.3906,1.8594 -3.8906,1.8594 -3.1719,0 -5.9531,-1.9844 Q 13.1875,37.6406 11.2812,34.5938 9.375,31.5469 8.59375,28.4219 8.40625,27.7812 7.8125,27.7812 l -1.21875,0 q -0.78125,0 -0.78125,0.9376 l 0,0.2812 q 0.96875,3.7188 3.3125,7.25 2.3438,3.5469 5.7344,5.7344 3.4062,2.2031 7.2656,2.2031 3.6562,0 6.6094,-1.9531 2.9531,-1.9532 4.1718,-5.3125 1.7188,3.0625 4.375,5.1562 2.6563,2.1094 5.8282,2.1094 2.1562,0 4.3906,-0.7656 2.25,-0.75 3.6719,-2.3125 1.4219,-1.5625 1.4219,-3.9063 0,-2.5312 -1.6407,-4.375 Q 49.3125,31 46.7812,31 q -1.6093,0 -2.6874,1.0312 -1.0782,1.0313 -1.0782,2.5938 0,2.0938 1.4375,3.6719 1.4531,1.5937 3.4531,1.8906 -1.8124,1.4219 -4.9843,1.4219 -3.2188,0 -5.5938,-2.9844 -2.3593,-2.9844 -3.3437,-6.6406 L 29.5938,14.3125 q -1.0782,-4.0156 -1.0782,-6.59375 0,-2.54687 1.4375,-4.375 1.4375,-1.82813 3.8438,-1.82813 4.6875,0 8.3593,4.125 3.6876,4.125 4.8594,9.06248 0.2032,0.5781 0.7813,0.5781 l 1.2343,0 q 0.3907,0 0.625,-0.2656 0.25,-0.2656 0.25,-0.6094 0,-0.0937 -0.0937,-0.2968 Q 48.3906,8.15625 43.8438,3.51562 39.3125,-1.125 33.5938,-1.125 q -3.6563,0 -6.6094,1.96875 -2.9532,1.98437 -4.1875,5.35937 -1.5625,-2.9375 -4.3281,-5.14062 -2.75,-2.1875 -5.875,-2.1875 -2.1407,0 -4.42192,0.765625 -2.26563,0.75 -3.6875,2.312495 -1.40626,1.5625 -1.40626,3.95313 0,2.34375 1.625,4.26565 1.64063,1.9375 4.09376,1.9375 1.65622,0 2.78122,-1 1.125,-1 1.125,-2.6094 0,-2.10938 -1.4062,-3.67188 Q 9.90625,3.26562 7.8125,2.875" />
            </defs>
            <g
               style="stroke-linecap:butt;stroke-linejoin:round"
               id="g468"
               transform="matrix(0.2,0,0,-0.2,371.8,112.8)">
              <use
                 height="432"
                 width="576"
                 y="0"
                 x="0"
                 style="stroke-linecap:butt;stroke-linejoin:round"
                 id="use470"
                 xlink:href="#Cmr10-c4"
                 transform="translate(4.8635979,1.0453125)" />
              <use
                 height="432"
                 width="576"
                 y="0"
                 x="0"
                 style="stroke-linecap:butt;stroke-linejoin:round"
                 id="use472"
                 xlink:href="#Cmmi10-71"
                 transform="translate(0,0.8578125)" />
              <use
                 height="432"
                 width="576"
                 y="0"
                 x="0"
                 style="stroke-linecap:butt;stroke-linejoin:round"
                 id="use474"
                 xlink:href="#Cmr10-30"
                 transform="matrix(0.7,0,0,0.7,44.580078,-24.651562)" />
              <use
                 height="432"
                 width="576"
                 y="0"
                 x="0"
                 style="stroke-linecap:butt;stroke-linejoin:round"
                 id="use476"
                 xlink:href="#Cmmi10-6d"
                 transform="matrix(0.7,0,0,0.7,94.580078,-24.651562)" />
              <use
                 height="432"
                 width="576"
                 y="0"
                 x="0"
                 style="stroke-linecap:butt;stroke-linejoin:round"
                 id="use478"
                 xlink:href="#Cmmi10-61"
                 transform="matrix(0.7,0,0,0.7,156.03516,-24.651562)" />
              <use
                 height="432"
                 width="576"
                 y="0"
                 x="0"
                 style="stroke-linecap:butt;stroke-linejoin:round"
                 id="use480"
                 xlink:href="#Cmmi10-78"
                 transform="matrix(0.7,0,0,0.7,192.9834,-24.651562)" />
              <use
                 height="432"
                 width="576"
                 y="0"
                 x="0"
                 style="stroke-linecap:butt;stroke-linejoin:round"
                 id="use482"
                 xlink:href="#Cmr10-28"
                 transform="translate(232.93945,0.8578125)" />
              <use
                 height="432"
                 width="576"
                 y="0"
                 x="0"
                 style="stroke-linecap:butt;stroke-linejoin:round"
                 id="use484"
                 xlink:href="#Cmmi10-72"
                 transform="translate(271.75781,0.8578125)" />
              <use
                 height="432"
                 width="576"
                 y="0"
                 x="0"
                 style="stroke-linecap:butt;stroke-linejoin:round"
                 id="use486"
                 xlink:href="#Cmmi10-61"
                 transform="translate(316.875,0.8578125)" />
              <use
                 height="432"
                 width="576"
                 y="0"
                 x="0"
                 style="stroke-linecap:butt;stroke-linejoin:round"
                 id="use488"
                 xlink:href="#Cmmi10-64"
                 transform="translate(369.6582,0.8578125)" />
              <use
                 height="432"
                 width="576"
                 y="0"
                 x="0"
                 style="stroke-linecap:butt;stroke-linejoin:round"
                 id="use490"
                 xlink:href="#Cmmi10-3a"
                 transform="translate(421.66016,0.8578125)" />
              <use
                 height="432"
                 width="576"
                 y="0"
                 x="0"
                 style="stroke-linecap:butt;stroke-linejoin:round"
                 id="use492"
                 xlink:href="#Cmmi10-73"
                 transform="translate(450.20312,0.8578125)" />
              <use
                 height="432"
                 width="576"
                 y="0"
                 x="0"
                 style="stroke-linecap:butt;stroke-linejoin:round"
                 id="use494"
                 xlink:href="#Cmsy10-a1"
                 transform="matrix(0.7,0,0,0.7,496.98047,43.373438)" />
              <use
                 height="432"
                 width="576"
                 y="0"
                 x="0"
                 style="stroke-linecap:butt;stroke-linejoin:round"
                 id="use496"
                 xlink:href="#Cmr10-32"
                 transform="matrix(0.7,0,0,0.7,551.36035,43.373438)" />
              <use
                 height="432"
                 width="576"
                 y="0"
                 x="0"
                 style="stroke-linecap:butt;stroke-linejoin:round"
                 id="use498"
                 xlink:href="#Cmr10-29"
                 transform="translate(603.3666,0.8578125)" />
            </g>
          </g>
          <g
             style="stroke-linecap:butt;stroke-linejoin:round"
             id="line2d_50">
            <path
               inkscape:connector-curvature="0"
               id="path501"
               style="fill:none;stroke:#ff0000;stroke-width:2;stroke-linecap:butt;stroke-linejoin:round;stroke-dasharray:6, 6;stroke-dashoffset:0"
               d="m 321.8,139.4 28,0" />
          </g>
          <g
             style="stroke-linecap:butt;stroke-linejoin:round"
             id="line2d_51" />
          <g
             style="stroke-linecap:butt;stroke-linejoin:round"
             id="text_18">
            <!-- $\ddot{q_0}_{min} (rad.s^{-2})$ -->
            <defs
               id="defs505">
              <path
                 style="stroke-linecap:butt;stroke-linejoin:round"
                 inkscape:connector-curvature="0"
                 id="Cmmi10-6e"
                 d="m 7.71875,1.70312 q 0,0.59376 0.09375,0.89063 l 7.4687,29.82815 q 0.7344,2.7812 0.7344,4.8906 0,4.2969 -2.9218,4.2969 -3.12505,0 -4.64068,-3.75 -1.51562,-3.7344 -2.9375,-9.4375 0,-0.2969 -0.29687,-0.4688 Q 4.9375,27.7812 4.6875,27.7812 l -1.17188,0 q -0.34374,0 -0.59374,0.3594 -0.23438,0.375 -0.23438,0.6719 1.07812,4.3437 2.07812,7.3594 1,3.0312 3.125,5.5156 2.12498,2.5 5.29688,2.5 3.75,0 6.625,-2.375 2.8906,-2.3594 2.8906,-6.0156 2.9844,3.9062 6.9844,6.1406 4,2.25 8.5,2.25 3.5625,0 6.1406,-1.2187 2.5938,-1.2188 4.0313,-3.6876 1.4531,-2.4687 1.4531,-5.875 0,-4.1093 -1.8437,-9.9218 Q 46.1406,17.6719 43.4062,10.5 42,7.23438 42,4.5 q 0,-2.98438 2.2812,-2.98438 3.9063,0 6.5157,4.1875 2.625,4.20313 3.7031,8.99998 0.1875,0.5781 0.8281,0.5781 l 1.1719,0 q 0.3906,0 0.6562,-0.25 0.2657,-0.2343 0.2657,-0.625 0,-0.0937 -0.0938,-0.2968 Q 55.9531,8.45312 52.5625,3.65625 49.1719,-1.125 44.0938,-1.125 q -3.5157,0 -6.0157,2.42188 -2.4843,2.42187 -2.4843,5.875 0,1.85937 0.7812,3.90622 1.2656,3.2813 2.9062,7.8125 1.6407,4.5469 2.6876,8.6875 1.0468,4.1563 1.0468,7.3281 0,2.7969 -1.1562,4.75 -1.1406,1.9532 -3.875,1.9532 -3.6563,0 -6.7344,-1.625 -3.0781,-1.6094 -5.375,-4.2656 -2.2969,-2.6563 -4.1875,-6.3282 L 14.8906,2.20312 Q 14.5469,0.828125 13.3438,-0.140625 12.1562,-1.125 10.6875,-1.125 q -1.21875,0 -2.09375,0.78125 -0.875,0.78125 -0.875,2.04687" />
            </defs>
            <g
               style="stroke-linecap:butt;stroke-linejoin:round"
               id="g508"
               transform="matrix(0.2,0,0,-0.2,371.8,146.4)">
              <use
                 height="432"
                 width="576"
                 y="0"
                 x="0"
                 style="stroke-linecap:butt;stroke-linejoin:round"
                 id="use510"
                 xlink:href="#Cmr10-c4"
                 transform="translate(3.2419762,2.6343976)" />
              <use
                 height="432"
                 width="576"
                 y="0"
                 x="0"
                 style="stroke-linecap:butt;stroke-linejoin:round"
                 id="use512"
                 xlink:href="#Cmmi10-71"
                 transform="translate(0,0.8578125)" />
              <use
                 height="432"
                 width="576"
                 y="0"
                 x="0"
                 style="stroke-linecap:butt;stroke-linejoin:round"
                 id="use514"
                 xlink:href="#Cmr10-30"
                 transform="matrix(0.7,0,0,0.7,44.580078,-24.651562)" />
              <use
                 height="432"
                 width="576"
                 y="0"
                 x="0"
                 style="stroke-linecap:butt;stroke-linejoin:round"
                 id="use516"
                 xlink:href="#Cmmi10-6d"
                 transform="matrix(0.7,0,0,0.7,94.580078,-24.651562)" />
              <use
                 height="432"
                 width="576"
                 y="0"
                 x="0"
                 style="stroke-linecap:butt;stroke-linejoin:round"
                 id="use518"
                 xlink:href="#Cmmi10-69"
                 transform="matrix(0.7,0,0,0.7,156.03516,-24.651562)" />
              <use
                 height="432"
                 width="576"
                 y="0"
                 x="0"
                 style="stroke-linecap:butt;stroke-linejoin:round"
                 id="use520"
                 xlink:href="#Cmmi10-6e"
                 transform="matrix(0.7,0,0,0.7,180.13184,-24.651562)" />
              <use
                 height="432"
                 width="576"
                 y="0"
                 x="0"
                 style="stroke-linecap:butt;stroke-linejoin:round"
                 id="use522"
                 xlink:href="#Cmr10-28"
                 transform="translate(222.13867,0.8578125)" />
              <use
                 height="432"
                 width="576"
                 y="0"
                 x="0"
                 style="stroke-linecap:butt;stroke-linejoin:round"
                 id="use524"
                 xlink:href="#Cmmi10-72"
                 transform="translate(260.95703,0.8578125)" />
              <use
                 height="432"
                 width="576"
                 y="0"
                 x="0"
                 style="stroke-linecap:butt;stroke-linejoin:round"
                 id="use526"
                 xlink:href="#Cmmi10-61"
                 transform="translate(306.07422,0.8578125)" />
              <use
                 height="432"
                 width="576"
                 y="0"
                 x="0"
                 style="stroke-linecap:butt;stroke-linejoin:round"
                 id="use528"
                 xlink:href="#Cmmi10-64"
                 transform="translate(358.85742,0.8578125)" />
              <use
                 height="432"
                 width="576"
                 y="0"
                 x="0"
                 style="stroke-linecap:butt;stroke-linejoin:round"
                 id="use530"
                 xlink:href="#Cmmi10-3a"
                 transform="translate(410.85937,0.8578125)" />
              <use
                 height="432"
                 width="576"
                 y="0"
                 x="0"
                 style="stroke-linecap:butt;stroke-linejoin:round"
                 id="use532"
                 xlink:href="#Cmmi10-73"
                 transform="translate(439.40234,0.8578125)" />
              <use
                 height="432"
                 width="576"
                 y="0"
                 x="0"
                 style="stroke-linecap:butt;stroke-linejoin:round"
                 id="use534"
                 xlink:href="#Cmsy10-a1"
                 transform="matrix(0.7,0,0,0.7,486.17969,43.373438)" />
              <use
                 height="432"
                 width="576"
                 y="0"
                 x="0"
                 style="stroke-linecap:butt;stroke-linejoin:round"
                 id="use536"
                 xlink:href="#Cmr10-32"
                 transform="matrix(0.7,0,0,0.7,540.55957,43.373438)" />
              <use
                 height="432"
                 width="576"
                 y="0"
                 x="0"
                 style="stroke-linecap:butt;stroke-linejoin:round"
                 id="use538"
                 xlink:href="#Cmr10-29"
                 transform="translate(592.56582,0.8578125)" />
            </g>
          </g>
        </g>
      </g>
    </g>
  </g>
  <defs
     id="defs540">
    <clipPath
       id="p7ff5b81e1d">
      <rect
         height="345.6"
         width="446.4"
         x="72.0"
         y="43.2"
         id="rect543" />
    </clipPath>
  </defs>
</svg>
