<?xml version="1.0" encoding="UTF-8" standalone="no"?>
<!-- Created with matplotlib (http://matplotlib.org/) -->

<svg
   xmlns:dc="http://purl.org/dc/elements/1.1/"
   xmlns:cc="http://creativecommons.org/ns#"
   xmlns:rdf="http://www.w3.org/1999/02/22-rdf-syntax-ns#"
   xmlns:svg="http://www.w3.org/2000/svg"
   xmlns="http://www.w3.org/2000/svg"
   xmlns:xlink="http://www.w3.org/1999/xlink"
   xmlns:sodipodi="http://sodipodi.sourceforge.net/DTD/sodipodi-0.dtd"
   xmlns:inkscape="http://www.inkscape.org/namespaces/inkscape"
   height="432pt"
   version="1.1"
   viewBox="0 0 576 432"
   width="576pt"
   id="svg8485"
   inkscape:version="0.48.3.1 r9886"
   sodipodi:docname="tau_woO_woEc.pdf">
  <metadata
     id="metadata9055">
    <rdf:RDF>
      <cc:Work
         rdf:about="">
        <dc:format>image/svg+xml</dc:format>
        <dc:type
           rdf:resource="http://purl.org/dc/dcmitype/StillImage" />
        <dc:title></dc:title>
      </cc:Work>
    </rdf:RDF>
  </metadata>
  <sodipodi:namedview
     pagecolor="#ffffff"
     bordercolor="#666666"
     borderopacity="1"
     objecttolerance="10"
     gridtolerance="10"
     guidetolerance="10"
     inkscape:pageopacity="0"
     inkscape:pageshadow="2"
     inkscape:window-width="1855"
     inkscape:window-height="1056"
     id="namedview9053"
     showgrid="false"
     inkscape:zoom="1.6222222"
     inkscape:cx="166.29714"
     inkscape:cy="238.15213"
     inkscape:window-x="65"
     inkscape:window-y="24"
     inkscape:window-maximized="1"
     inkscape:current-layer="legend_1" />
  <defs
     id="defs8487">
    <style
       type="text/css"
       id="style8489">
*{stroke-linecap:butt;stroke-linejoin:round;}
  </style>
  </defs>
  <g
     id="figure_1">
    <g
       id="axes_1">
      <g
         id="patch_2">
        <path
           d=" M72 388.8 L518.4 388.8 L518.4 43.2 L72 43.2 z "
           style="fill:#ffffff;"
           id="path8497" />
      </g>
      <g
         id="line2d_1">
        <path
           clip-path="url(#p7ff5b81e1d)"
           d=" M72 100.8 L141.109 100.713 L141.495 100.411 L141.991 99.7125 L142.652 98.3383 L143.534 95.9282 L144.967 91.2408 L147.282 83.695 L148.384 80.8261 L149.266 79.0879 L149.982 78.1063 L150.588 77.6052 L151.14 77.4244 L151.636 77.4903 L152.132 77.7738 L152.683 78.341 L153.344 79.361 L154.116 80.9907 L155.052 83.537 L156.21 87.3818 L157.863 93.7573 L161.996 110.048 L163.429 114.648 L164.587 117.669 L165.579 119.679 L166.405 120.903 L167.122 121.611 L167.783 121.962 L168.389 122.025 L168.94 121.864 L169.547 121.448 L170.208 120.713 L170.98 119.501 L171.861 117.685 L172.964 114.867 L174.617 109.929 L176.491 104.488 L177.372 102.56 L177.979 101.678 L178.475 101.312 L178.86 101.291 L180.734 101.482 L183.38 101.508 L185.474 101.353 L186.631 101.134 L188.009 100.634 L189.938 99.6727 L195.89 96.5428 L197.708 95.9119 L199.307 95.5827 L200.795 95.4998 L202.172 95.6387 L203.55 96.0016 L204.928 96.5971 L206.361 97.4599 L207.959 98.6874 L209.998 100.555 L214.517 104.796 L216.116 105.93 L217.493 106.642 L218.816 107.074 L220.084 107.259 L221.406 107.234 L222.894 106.978 L224.713 106.424 L225.65 105.971 L226.917 105.532 L228.405 105.256 L230.059 105.178 L231.767 105.323 L233.531 105.699 L235.46 106.343 L237.884 107.407 L244.222 110.31 L246.702 111.123 L248.852 111.649 L249.017 106.666 L250.009 105.401 L251.111 104.349 L251.276 104.214 L251.332 103.734 L251.497 100.178 L252.324 99.9822 L253.426 99.9769 L255.685 100.262 L258.165 100.482 L260.315 100.447 L262.684 100.179 L265.881 99.5713 L272.825 98.2083 L276.407 97.7684 L281.312 97.4234 L286.437 97.2404 L287.044 97.2471 L287.099 96.9087 L287.154 96.9187 L289.468 97.2056 L292.775 97.6739 L296.082 98.3979 L298.286 98.9488 L298.396 98.6236 L298.452 98.6425 L307.6 101.681 L309.529 101.368 L312.174 100.714 L313.332 100.369 L313.387 100.683 L313.552 102.736 L314.544 103.052 L315.26 103.057 L315.922 102.828 L316.583 102.342 L317.3 101.518 L318.181 100.128 L319.504 97.5442 L320.937 94.7099 L323.307 95.5256 L325.842 96.5429 L330.526 98.4771 L332.896 99.1663 L335.486 99.677 L338.903 100.105 L344.414 100.546 L349.374 100.75 L356.649 100.908 L359.074 101.345 L366.128 102.748 L368.167 102.854 L369.931 102.731 L371.584 102.399 L373.292 101.824 L375.166 100.944 L377.867 99.3909 L380.788 97.7741 L382.496 97.079 L383.984 96.7019 L385.472 96.557 L387.015 96.6401 L388.724 96.9625 L390.983 97.6319 L395.282 99.0459 L395.447 99.3342 L397.1 99.3419 L398.699 99.124 L400.407 98.657 L402.336 97.8861 L404.761 96.6568 L409.225 94.0783 L413.138 91.9355 L414.185 91.4409 L414.516 97.9818 L422.121 98.2831 L424.546 98.7569 L427.081 99.4845 L430.332 100.67 L436.064 102.799 L436.284 104.39 L437.662 104.33 L439.15 104.041 L440.748 103.5 L442.457 102.683 L443.835 101.966 L444.551 102.704 L445.323 103.163 L446.204 103.413 L447.362 103.486 L449.236 103.343 L455.132 102.81 L457.061 102.696 L457.172 102.949 L458.935 102.763 L461.746 102.619 L461.856 104.504 L461.911 104.483 L463.344 104.079 L466.816 103.415 L467.422 103.638 L469.241 104.183 L471.556 104.634 L474.036 104.889 L476.46 104.917 L479.051 104.718 L481.972 104.26 L485.444 103.483 L489.797 102.268 L495.749 100.61 L498.45 100.113 L500.985 99.8771 L503.63 99.8584 L506.882 100.07 L518.124 100.995 L518.345 100.999 L518.345 100.999"
           style="fill:none;stroke:#0000ff;stroke-linecap:square;stroke-width:2.0;"
           id="path8500" />
      </g>
      <g
         id="line2d_2">
        <path
           clip-path="url(#p7ff5b81e1d)"
           d=" M72 288.514 L79.4951 288.624 L90.2969 288.961 L101.76 289.431 L105.618 289.822 L108.924 290.383 L111.515 291.007 L114.27 291.871 L117.356 293.083 L120.939 294.775 L125.513 297.24 L133.89 301.84 L137.362 303.494 L140.613 304.804 L140.779 304.864 L140.889 304.77 L141.495 304.898 L142.156 304.796 L142.928 304.432 L143.865 303.732 L145.077 302.527 L146.51 300.785 L148.219 298.337 L152.628 291.746 L153.509 290.955 L154.226 290.6 L154.832 290.536 L155.383 290.682 L155.989 291.082 L156.651 291.809 L157.367 292.937 L158.194 294.656 L159.186 297.245 L160.453 301.201 L162.933 309.882 L164.697 315.633 L165.909 318.857 L166.846 320.768 L167.618 321.898 L168.279 322.517 L168.885 322.79 L169.436 322.791 L169.988 322.557 L170.594 322.036 L171.255 321.17 L172.082 319.687 L173.074 317.426 L174.617 313.255 L176.546 308.15 L177.428 306.412 L178.089 305.576 L178.585 305.295 L179.081 305.306 L182.002 305.442 L184.868 305.452 L185.033 305.359 L185.749 305.566 L186.521 306.03 L187.458 306.87 L188.615 308.231 L190.213 310.477 L193.74 315.524 L195.008 316.938 L196.055 317.813 L196.992 318.326 L197.819 318.541 L198.645 318.517 L199.472 318.241 L200.299 317.707 L201.18 316.851 L202.117 315.621 L203.164 313.874 L204.377 311.401 L205.81 307.95 L207.684 302.819 L213.36 286.882 L215.013 283.097 L216.446 280.334 L217.824 278.161 L219.036 276.642 L220.194 275.525 L221.296 274.746 L222.453 274.202 L223.611 273.904 L224.933 273.809 L225.319 273.82 L225.374 272.909 L225.429 272.97 L227.303 274.868 L230.444 278.11 L232.484 280.069 L233.751 280.991 L234.743 281.46 L235.625 281.64 L236.452 281.578 L237.223 281.295 L237.995 280.78 L238.821 279.954 L239.703 278.75 L240.695 276.985 L241.742 274.645 L242.9 271.495 L244.167 267.384 L245.6 261.939 L247.143 255.19 L248.852 246.73 L249.017 238.385 L250.34 233.183 L251.332 228.89 L251.497 223.841 L251.993 222.775 L252.709 220.64 L253.701 216.866 L255.134 210.404 L257.669 197.727 L261.252 180.024 L263.07 172.098 L264.558 166.535 L265.826 162.623 L266.873 160.047 L267.81 158.287 L268.636 157.181 L269.353 156.569 L270.014 156.292 L270.62 156.282 L271.227 156.501 L271.888 157 L272.604 157.836 L273.431 159.168 L274.368 161.127 L275.47 163.987 L276.793 168.095 L278.446 174.02 L281.257 185.081 L284.068 195.836 L285.941 202.156 L288.201 208.859 L289.634 211.986 L290.901 214.236 L292.004 215.773 L293.051 216.869 L294.043 217.584 L294.924 217.962 L295.806 218.108 L296.743 218.017 L297.625 217.714 L298.286 217.354 L298.452 217.124 L299.333 216.569 L300.325 215.668 L301.538 214.248 L303.026 212.148 L305.285 208.524 L308.096 204.094 L309.088 203.03 L309.97 202.385 L310.741 202.071 L311.458 202.005 L312.174 202.166 L312.891 202.561 L313.332 202.922 L313.387 203.158 L313.442 204.293 L313.497 204.266 L314.489 203.842 L315.095 203.806 L315.591 203.981 L316.087 204.391 L316.638 205.172 L317.244 206.472 L317.906 208.446 L318.732 211.685 L319.835 217.051 L322.149 228.666 L323.968 236.013 L326.999 247.235 L329.204 254.645 L330.802 259.265 L332.124 262.427 L333.282 264.626 L334.274 266.058 L335.156 266.973 L335.982 267.527 L336.754 267.785 L337.525 267.806 L338.297 267.603 L339.124 267.159 L340.116 266.351 L341.273 265.098 L342.761 263.141 L346.839 257.608 L347.941 256.577 L348.823 256.048 L349.54 255.86 L351.083 255.859 L355.326 255.967 L356.098 256.334 L356.98 257.005 L358.082 258.133 L359.68 260.12 L362.932 264.229 L364.144 265.395 L365.191 266.106 L366.073 266.448 L366.9 266.526 L367.671 266.372 L368.443 265.987 L369.269 265.312 L370.151 264.29 L371.088 262.871 L372.19 260.785 L373.458 257.891 L375.001 253.79 L377.205 247.249 L381.394 234.769 L383.268 229.932 L384.866 226.402 L386.244 223.868 L387.511 221.984 L388.668 220.651 L389.716 219.763 L390.708 219.193 L391.7 218.871 L392.692 218.778 L393.739 218.895 L394.951 219.257 L395.282 219.389 L395.337 218.67 L395.392 218.741 L402.06 226.999 L403.604 228.613 L404.871 229.62 L405.918 230.17 L406.8 230.404 L407.682 230.406 L408.508 230.183 L409.335 229.731 L410.217 228.99 L411.209 227.827 L412.256 226.219 L413.358 224.109 L414.185 222.251 L414.405 215.129 L414.46 215.146 L414.846 215.17 L415.287 214.953 L415.783 214.445 L416.444 213.409 L417.271 211.653 L418.318 208.856 L419.641 204.632 L421.294 198.551 L423.499 189.513 L429.671 163.673 L431.214 158.439 L432.482 154.891 L433.529 152.572 L434.411 151.099 L435.182 150.196 L435.844 149.722 L436.064 149.628 L436.284 150.936 L437.442 151.233 L438.324 151.702 L439.15 152.413 L439.977 153.436 L440.859 154.91 L441.796 156.934 L442.843 159.774 L443.78 162.833 L445.653 173.53 L449.291 193.975 L451.771 206.66 L453.81 215.986 L455.628 223.291 L457.943 231.535 L459.321 234.934 L460.533 237.383 L461.691 239.247 L461.746 239.325 L461.856 238.985 L462.738 240.574 L463.62 241.743 L464.501 242.571 L465.438 243.139 L466.375 243.434 L467.918 243.597 L469.627 243.63 L471.28 243.419 L473.374 242.893 L475.579 242.384 L476.846 242.321 L477.893 242.496 L478.83 242.88 L479.767 243.517 L480.704 244.441 L481.696 245.758 L482.743 247.551 L483.845 249.898 L485.058 253.022 L486.436 257.235 L487.979 262.706 L489.852 270.207 L492.773 282.958 L496.135 297.351 L497.954 304.193 L499.497 309.163 L500.82 312.696 L501.977 315.183 L503.024 316.923 L503.961 318.064 L504.788 318.746 L505.559 319.113 L506.276 319.228 L507.047 319.12 L507.819 318.785 L508.7 318.145 L509.692 317.135 L510.85 315.632 L512.393 313.238 L516.692 306.338 L517.739 305.147 L518.345 304.639 L518.345 304.639"
           style="fill:none;stroke:#008000;stroke-linecap:square;stroke-width:2.0;"
           id="path8503" />
      </g>
      <g
         id="line2d_3">
        <path
           clip-path="url(#p7ff5b81e1d)"
           d=" M72 97.5178 L141.22 97.4162 L141.881 97.1584 L142.708 96.5892 L143.865 95.4974 L147.392 91.9828 L148.439 91.3165 L149.321 90.9948 L150.148 90.923 L150.919 91.0753 L151.691 91.4508 L152.517 92.1068 L153.399 93.0939 L154.391 94.5427 L155.548 96.6403 L156.981 99.7289 L159.076 104.842 L162.492 113.171 L164.036 116.341 L165.303 118.472 L166.405 119.908 L167.342 120.794 L168.224 121.333 L169.051 121.573 L169.822 121.57 L170.649 121.33 L171.531 120.824 L172.523 119.987 L173.79 118.605 L177.042 114.908 L177.868 114.383 L178.475 114.237 L179.136 114.327 L182.057 114.76 L185.474 115.042 L190.213 115.328 L193.74 115.659 L196.22 116.113 L198.425 116.742 L200.519 117.574 L202.613 118.648 L204.818 120.034 L207.463 121.978 L214.517 127.342 L216.446 128.431 L218.21 129.176 L219.918 129.661 L221.737 129.94 L223.721 130.013 L225.319 129.939 L225.429 129.712 L227.799 130.024 L231.767 130.314 L234.688 130.329 L236.837 130.125 L238.656 129.732 L240.309 129.143 L241.852 128.355 L243.34 127.35 L244.884 126.033 L246.482 124.364 L248.19 122.241 L248.852 121.328 L249.017 119.766 L251.111 115.84 L251.332 115.271 L251.497 113.984 L252.82 111.94 L254.308 110.048 L256.071 108.167 L258.22 106.209 L260.756 104.209 L263.401 102.402 L265.716 101.074 L267.755 100.149 L269.684 99.5117 L271.557 99.1257 L273.431 98.9669 L275.415 99.0291 L277.675 99.3359 L281.257 100.091 L285.004 100.804 L287.044 101.037 L287.099 100.772 L287.154 100.784 L288.587 100.961 L290.46 100.957 L292.83 100.723 L295.586 100.228 L298.286 99.5574 L298.507 99.4173 L304.734 97.6778 L307.876 96.6472 L310.19 95.4021 L312.615 93.8497 L313.387 93.373 L313.442 93.7618 L313.497 93.7336 L315.04 92.7856 L316.142 91.843 L317.244 90.603 L318.567 88.7553 L321.433 84.621 L322.866 83.4094 L324.244 82.5304 L325.732 81.8485 L327.385 81.343 L329.259 81.0141 L331.298 80.8872 L333.502 80.9733 L335.927 81.2943 L338.683 81.8898 L342.761 83.0301 L346.453 83.9918 L348.548 84.3121 L350.311 84.3536 L356.869 84.1842 L359.57 83.7772 L363.152 82.9987 L368.002 81.6996 L374.395 79.7335 L379.134 78.3518 L381.669 77.8404 L383.874 77.6201 L386.023 77.629 L388.448 77.8682 L392.03 78.4778 L395.282 79.0924 L395.447 79.356 L399.47 79.0764 L403.769 78.861 L405.808 78.9892 L407.572 79.3231 L409.17 79.8513 L410.713 80.5956 L412.256 81.5914 L413.799 82.8533 L414.185 83.2118 L414.516 85.4706 L419.365 90.4254 L422.892 93.6429 L426.971 97.0584 L430.167 99.4693 L432.427 100.913 L434.3 101.861 L435.954 102.461 L436.064 102.492 L436.284 104.06 L437.442 103.929 L438.654 103.563 L439.977 102.924 L441.41 101.981 L443.008 100.66 L443.835 99.9759 L444.441 100.307 L445.102 100.402 L445.874 100.268 L446.921 99.8301 L448.684 98.797 L451.771 96.9976 L453.534 96.2306 L455.132 95.7712 L456.62 95.5661 L457.061 95.5479 L457.227 95.7012 L458.384 95.7363 L459.596 95.9821 L461.084 96.5133 L461.746 96.817 L461.911 97.2968 L463.234 97.8202 L465.163 98.8533 L467.312 100.228 L471.225 103.006 L474.036 104.754 L476.35 105.936 L478.61 106.838 L480.98 107.542 L483.625 108.088 L486.546 108.459 L489.522 108.611 L492.718 108.545 L497.348 108.193 L503.575 107.762 L509.362 107.617 L518.345 107.504 L518.345 107.504"
           style="fill:none;stroke:#ff0000;stroke-linecap:square;stroke-width:2.0;"
           id="path8506" />
      </g>
      <g
         id="line2d_4">
        <path
           clip-path="url(#p7ff5b81e1d)"
           d=" M72 158.525 L79.9911 158.635 L88.0924 158.915 L96.3591 159.371 L106.224 160.101 L135.874 162.469 L141.385 162.713 L142.101 162.409 L142.983 161.777 L144.196 160.606 L149.1 155.536 L150.423 154.64 L151.636 154.089 L152.793 153.804 L154.005 153.732 L155.438 153.884 L157.588 154.376 L160.123 154.903 L161.721 155.004 L163.209 154.877 L164.752 154.517 L166.405 153.898 L168.224 152.973 L170.263 151.675 L172.633 149.884 L176.491 146.928 L177.648 146.337 L178.585 146.1 L180.404 146.034 L185.804 145.969 L187.237 146.21 L188.946 146.736 L191.095 147.644 L194.071 149.162 L199.031 151.983 L204.542 155.055 L207.353 156.371 L209.668 157.211 L211.652 157.701 L213.525 157.937 L215.344 157.948 L217.273 157.736 L219.532 157.249 L223.666 156.059 L225.319 155.639 L225.374 155.324 L225.429 155.341 L226.697 155.612 L228.791 155.794 L232.318 156.114 L234.412 156.55 L236.341 157.179 L238.325 158.061 L240.585 159.316 L244.277 161.682 L247.804 163.836 L249.072 164.638 L250.119 165.735 L252.599 167.79 L253.536 168.222 L254.804 168.549 L257.118 168.85 L266.156 169.684 L269.739 169.837 L273.266 169.766 L279.163 169.347 L285.115 169.021 L288.697 168.839 L290.295 168.379 L292.555 167.46 L299.94 164.258 L302.695 163.396 L305.34 162.791 L309.529 162.116 L312.284 161.603 L313.332 161.293 L313.387 161.62 L313.442 163.67 L313.497 163.6 L318.402 156.91 L320.882 154.15 L322.094 153.313 L323.031 152.199 L324.464 150.102 L331.518 139.306 L333.447 136.946 L335.266 135.059 L337.029 133.538 L338.848 132.265 L340.722 131.23 L342.706 130.391 L344.855 129.727 L347.06 129.275 L349.209 129.058 L352.791 129.017 L356.098 129.105 L357.916 129.452 L359.9 130.059 L361.94 130.913 L363.924 131.987 L365.797 133.252 L367.671 134.787 L369.6 136.661 L371.694 139.011 L374.284 142.27 L380.843 150.682 L382.882 152.84 L384.7 154.449 L386.409 155.676 L388.172 156.669 L390.046 157.466 L392.306 158.173 L395.282 158.91 L395.337 158.613 L395.392 158.655 L396.66 159.487 L398.258 160.262 L400.903 161.248 L414.516 166.051 L415.397 166.83 L416.389 167.401 L417.712 167.88 L419.476 168.282 L422.617 168.762 L430.112 169.669 L434.631 170.033 L438.213 170.073 L441.134 169.963 L444.22 169.595 L451.826 168.91 L455.628 168.78 L458.825 168.676 L460.478 168.24 L463.95 166.999 L470.233 164.424 L472.768 163.745 L475.138 163.339 L477.452 163.158 L481.806 163.132 L484.396 162.997 L486.491 162.649 L488.42 162.077 L490.348 161.255 L492.553 160.05 L495.584 158.086 L503.024 153.157 L506.716 151.046 L510.574 149.093 L513.826 147.682 L516.251 146.861 L518.18 146.436 L518.345 146.412 L518.345 146.412"
           style="fill:none;stroke:#00bfbf;stroke-linecap:square;stroke-width:2.0;"
           id="path8509" />
      </g>
      <g
         id="line2d_5">
        <path
           clip-path="url(#p7ff5b81e1d)"
           d=" M72 96.0471 L102.476 95.9362 L145.794 95.7055 L182.884 96.8471 L192.583 96.7266 L201.401 96.3741 L211.707 95.7129 L218.375 95.3932 L225.319 95.3014 L225.65 95.3115 L234.633 95.1233 L243.671 95.0915 L259.874 95.149 L275.47 94.8983 L301.538 95.2267 L314.93 95.7167 L318.071 95.998 L320.716 95.9829 L322.149 96.0425 L325.401 96.4055 L334.549 97.5125 L339.289 97.7981 L345.516 97.9304 L358.247 97.9306 L365.246 97.7651 L370.151 97.4234 L375.828 96.7845 L384.149 95.8589 L389.55 95.5085 L398.148 95.2259 L408.453 94.9898 L414.24 95.0378 L414.516 95.0877 L417.988 94.9947 L430.388 94.9887 L461.966 95.1654 L488.86 95.7052 L511.346 96.8469 L518.345 96.9591 L518.345 96.9591"
           style="fill:none;stroke:#bf00bf;stroke-linecap:square;stroke-width:2.0;"
           id="path8512" />
      </g>
      <g
         id="line2d_6">
        <path
           clip-path="url(#p7ff5b81e1d)"
           d=" M72 101.665 L95.7529 101.552 L115.538 101.249 L153.289 100.586 L518.345 100.599 L518.345 100.599"
           style="fill:none;stroke:#bfbf00;stroke-linecap:square;stroke-width:2.0;"
           id="path8515" />
      </g>
      <g
         id="line2d_7">
        <path
           clip-path="url(#p7ff5b81e1d)"
           d=" M72 100.797 L518.345 100.8 L518.345 100.8"
           style="fill:none;stroke:#000000;stroke-linecap:square;stroke-width:2.0;"
           id="path8518" />
      </g>
      <g
         id="matplotlib.axis_1">
        <g
           id="xtick_1">
          <g
             id="line2d_8">
            <path
               clip-path="url(#p7ff5b81e1d)"
               d=" M72 388.8 L72 43.2"
               style="fill:none;stroke:#000000;stroke-dasharray:1.000000,3.000000;stroke-dashoffset:0.0;stroke-width:0.5;"
               id="path8523" />
          </g>
          <g
             id="line2d_9">
            <defs
               id="defs8526">
              <path
                 d=" M0 0 L0 -4"
                 id="m93b0483c22"
                 style="stroke:#000000;stroke-width:0.5;" />
            </defs>
            <g
               id="g8529">
              <use
                 style="stroke:#000000;stroke-width:0.5;"
                 x="72.0"
                 xlink:href="#m93b0483c22"
                 y="388.8"
                 id="use8531" />
            </g>
          </g>
          <g
             id="line2d_10">
            <defs
               id="defs8534">
              <path
                 d=" M0 0 L0 4"
                 id="m741efc42ff"
                 style="stroke:#000000;stroke-width:0.5;" />
            </defs>
            <g
               id="g8537">
              <use
                 style="stroke:#000000;stroke-width:0.5;"
                 x="72.0"
                 xlink:href="#m741efc42ff"
                 y="43.2"
                 id="use8539" />
            </g>
          </g>
          <g
             id="text_1">
            <!-- 0 -->
            <defs
               id="defs8542">
              <path
                 d=" M31.7812 66.4062 Q24.1719 66.4062 20.3281 58.9062 Q16.5 51.4219 16.5 36.375 Q16.5 21.3906 20.3281 13.8906 Q24.1719 6.39062 31.7812 6.39062 Q39.4531 6.39062 43.2812 13.8906 Q47.125 21.3906 47.125 36.375 Q47.125 51.4219 43.2812 58.9062 Q39.4531 66.4062 31.7812 66.4062 M31.7812 74.2188 Q44.0469 74.2188 50.5156 64.5156 Q56.9844 54.8281 56.9844 36.375 Q56.9844 17.9688 50.5156 8.26562 Q44.0469 -1.42188 31.7812 -1.42188 Q19.5312 -1.42188 13.0625 8.26562 Q6.59375 17.9688 6.59375 36.375 Q6.59375 54.8281 13.0625 64.5156 Q19.5312 74.2188 31.7812 74.2188"
                 id="BitstreamVeraSans-Roman-30" />
            </defs>
            <g
               transform="translate(68.9765625 401.918125)scale(0.12 -0.12)"
               id="g8545">
              <use
                 xlink:href="#BitstreamVeraSans-Roman-30"
                 id="use8547" />
            </g>
          </g>
        </g>
        <g
           id="xtick_2">
          <g
             id="line2d_11">
            <path
               clip-path="url(#p7ff5b81e1d)"
               d=" M127.111 388.8 L127.111 43.2"
               style="fill:none;stroke:#000000;stroke-dasharray:1.000000,3.000000;stroke-dashoffset:0.0;stroke-width:0.5;"
               id="path8551" />
          </g>
          <g
             id="line2d_12">
            <g
               id="g8554">
              <use
                 style="stroke:#000000;stroke-width:0.5;"
                 x="127.111111111"
                 xlink:href="#m93b0483c22"
                 y="388.8"
                 id="use8556" />
            </g>
          </g>
          <g
             id="line2d_13">
            <g
               id="g8559">
              <use
                 style="stroke:#000000;stroke-width:0.5;"
                 x="127.111111111"
                 xlink:href="#m741efc42ff"
                 y="43.2"
                 id="use8561" />
            </g>
          </g>
          <g
             id="text_2">
            <!-- 1 -->
            <defs
               id="defs8564">
              <path
                 d=" M12.4062 8.29688 L28.5156 8.29688 L28.5156 63.9219 L10.9844 60.4062 L10.9844 69.3906 L28.4219 72.9062 L38.2812 72.9062 L38.2812 8.29688 L54.3906 8.29688 L54.3906 0 L12.4062 0 z "
                 id="BitstreamVeraSans-Roman-31" />
            </defs>
            <g
               transform="translate(124.506736111 401.918125)scale(0.12 -0.12)"
               id="g8567">
              <use
                 xlink:href="#BitstreamVeraSans-Roman-31"
                 id="use8569" />
            </g>
          </g>
        </g>
        <g
           id="xtick_3">
          <g
             id="line2d_14">
            <path
               clip-path="url(#p7ff5b81e1d)"
               d=" M182.222 388.8 L182.222 43.2"
               style="fill:none;stroke:#000000;stroke-dasharray:1.000000,3.000000;stroke-dashoffset:0.0;stroke-width:0.5;"
               id="path8573" />
          </g>
          <g
             id="line2d_15">
            <g
               id="g8576">
              <use
                 style="stroke:#000000;stroke-width:0.5;"
                 x="182.222222222"
                 xlink:href="#m93b0483c22"
                 y="388.8"
                 id="use8578" />
            </g>
          </g>
          <g
             id="line2d_16">
            <g
               id="g8581">
              <use
                 style="stroke:#000000;stroke-width:0.5;"
                 x="182.222222222"
                 xlink:href="#m741efc42ff"
                 y="43.2"
                 id="use8583" />
            </g>
          </g>
          <g
             id="text_3">
            <!-- 2 -->
            <defs
               id="defs8586">
              <path
                 d=" M19.1875 8.29688 L53.6094 8.29688 L53.6094 0 L7.32812 0 L7.32812 8.29688 Q12.9375 14.1094 22.625 23.8906 Q32.3281 33.6875 34.8125 36.5312 Q39.5469 41.8438 41.4219 45.5312 Q43.3125 49.2188 43.3125 52.7812 Q43.3125 58.5938 39.2344 62.25 Q35.1562 65.9219 28.6094 65.9219 Q23.9688 65.9219 18.8125 64.3125 Q13.6719 62.7031 7.8125 59.4219 L7.8125 69.3906 Q13.7656 71.7812 18.9375 73 Q24.125 74.2188 28.4219 74.2188 Q39.75 74.2188 46.4844 68.5469 Q53.2188 62.8906 53.2188 53.4219 Q53.2188 48.9219 51.5312 44.8906 Q49.8594 40.875 45.4062 35.4062 Q44.1875 33.9844 37.6406 27.2188 Q31.1094 20.4531 19.1875 8.29688"
                 id="BitstreamVeraSans-Roman-32" />
            </defs>
            <g
               transform="translate(179.445347222 401.918125)scale(0.12 -0.12)"
               id="g8589">
              <use
                 xlink:href="#BitstreamVeraSans-Roman-32"
                 id="use8591" />
            </g>
          </g>
        </g>
        <g
           id="xtick_4">
          <g
             id="line2d_17">
            <path
               clip-path="url(#p7ff5b81e1d)"
               d=" M237.333 388.8 L237.333 43.2"
               style="fill:none;stroke:#000000;stroke-dasharray:1.000000,3.000000;stroke-dashoffset:0.0;stroke-width:0.5;"
               id="path8595" />
          </g>
          <g
             id="line2d_18">
            <g
               id="g8598">
              <use
                 style="stroke:#000000;stroke-width:0.5;"
                 x="237.333333333"
                 xlink:href="#m93b0483c22"
                 y="388.8"
                 id="use8600" />
            </g>
          </g>
          <g
             id="line2d_19">
            <g
               id="g8603">
              <use
                 style="stroke:#000000;stroke-width:0.5;"
                 x="237.333333333"
                 xlink:href="#m741efc42ff"
                 y="43.2"
                 id="use8605" />
            </g>
          </g>
          <g
             id="text_4">
            <!-- 3 -->
            <defs
               id="defs8608">
              <path
                 d=" M40.5781 39.3125 Q47.6562 37.7969 51.625 33 Q55.6094 28.2188 55.6094 21.1875 Q55.6094 10.4062 48.1875 4.48438 Q40.7656 -1.42188 27.0938 -1.42188 Q22.5156 -1.42188 17.6562 -0.515625 Q12.7969 0.390625 7.625 2.20312 L7.625 11.7188 Q11.7188 9.32812 16.5938 8.10938 Q21.4844 6.89062 26.8125 6.89062 Q36.0781 6.89062 40.9375 10.5469 Q45.7969 14.2031 45.7969 21.1875 Q45.7969 27.6406 41.2812 31.2656 Q36.7656 34.9062 28.7188 34.9062 L20.2188 34.9062 L20.2188 43.0156 L29.1094 43.0156 Q36.375 43.0156 40.2344 45.9219 Q44.0938 48.8281 44.0938 54.2969 Q44.0938 59.9062 40.1094 62.9062 Q36.1406 65.9219 28.7188 65.9219 Q24.6562 65.9219 20.0156 65.0312 Q15.375 64.1562 9.8125 62.3125 L9.8125 71.0938 Q15.4375 72.6562 20.3438 73.4375 Q25.25 74.2188 29.5938 74.2188 Q40.8281 74.2188 47.3594 69.1094 Q53.9062 64.0156 53.9062 55.3281 Q53.9062 49.2656 50.4375 45.0938 Q46.9688 40.9219 40.5781 39.3125"
                 id="BitstreamVeraSans-Roman-33" />
            </defs>
            <g
               transform="translate(234.454270833 401.918125)scale(0.12 -0.12)"
               id="g8611">
              <use
                 xlink:href="#BitstreamVeraSans-Roman-33"
                 id="use8613" />
            </g>
          </g>
        </g>
        <g
           id="xtick_5">
          <g
             id="line2d_20">
            <path
               clip-path="url(#p7ff5b81e1d)"
               d=" M292.444 388.8 L292.444 43.2"
               style="fill:none;stroke:#000000;stroke-dasharray:1.000000,3.000000;stroke-dashoffset:0.0;stroke-width:0.5;"
               id="path8617" />
          </g>
          <g
             id="line2d_21">
            <g
               id="g8620">
              <use
                 style="stroke:#000000;stroke-width:0.5;"
                 x="292.444444444"
                 xlink:href="#m93b0483c22"
                 y="388.8"
                 id="use8622" />
            </g>
          </g>
          <g
             id="line2d_22">
            <g
               id="g8625">
              <use
                 style="stroke:#000000;stroke-width:0.5;"
                 x="292.444444444"
                 xlink:href="#m741efc42ff"
                 y="43.2"
                 id="use8627" />
            </g>
          </g>
          <g
             id="text_5">
            <!-- 4 -->
            <defs
               id="defs8630">
              <path
                 d=" M37.7969 64.3125 L12.8906 25.3906 L37.7969 25.3906 z  M35.2031 72.9062 L47.6094 72.9062 L47.6094 25.3906 L58.0156 25.3906 L58.0156 17.1875 L47.6094 17.1875 L47.6094 0 L37.7969 0 L37.7969 17.1875 L4.89062 17.1875 L4.89062 26.7031 z "
                 id="BitstreamVeraSans-Roman-34" />
            </defs>
            <g
               transform="translate(289.256944444 401.918125)scale(0.12 -0.12)"
               id="g8633">
              <use
                 xlink:href="#BitstreamVeraSans-Roman-34"
                 id="use8635" />
            </g>
          </g>
        </g>
        <g
           id="xtick_6">
          <g
             id="line2d_23">
            <path
               clip-path="url(#p7ff5b81e1d)"
               d=" M347.556 388.8 L347.556 43.2"
               style="fill:none;stroke:#000000;stroke-dasharray:1.000000,3.000000;stroke-dashoffset:0.0;stroke-width:0.5;"
               id="path8639" />
          </g>
          <g
             id="line2d_24">
            <g
               id="g8642">
              <use
                 style="stroke:#000000;stroke-width:0.5;"
                 x="347.555555556"
                 xlink:href="#m93b0483c22"
                 y="388.8"
                 id="use8644" />
            </g>
          </g>
          <g
             id="line2d_25">
            <g
               id="g8647">
              <use
                 style="stroke:#000000;stroke-width:0.5;"
                 x="347.555555556"
                 xlink:href="#m741efc42ff"
                 y="43.2"
                 id="use8649" />
            </g>
          </g>
          <g
             id="text_6">
            <!-- 5 -->
            <defs
               id="defs8652">
              <path
                 d=" M10.7969 72.9062 L49.5156 72.9062 L49.5156 64.5938 L19.8281 64.5938 L19.8281 46.7344 Q21.9688 47.4688 24.1094 47.8281 Q26.2656 48.1875 28.4219 48.1875 Q40.625 48.1875 47.75 41.5 Q54.8906 34.8125 54.8906 23.3906 Q54.8906 11.625 47.5625 5.09375 Q40.2344 -1.42188 26.9062 -1.42188 Q22.3125 -1.42188 17.5469 -0.640625 Q12.7969 0.140625 7.71875 1.70312 L7.71875 11.625 Q12.1094 9.23438 16.7969 8.0625 Q21.4844 6.89062 26.7031 6.89062 Q35.1562 6.89062 40.0781 11.3281 Q45.0156 15.7656 45.0156 23.3906 Q45.0156 31 40.0781 35.4375 Q35.1562 39.8906 26.7031 39.8906 Q22.75 39.8906 18.8125 39.0156 Q14.8906 38.1406 10.7969 36.2812 z "
                 id="BitstreamVeraSans-Roman-35" />
            </defs>
            <g
               transform="translate(344.725243056 401.918125)scale(0.12 -0.12)"
               id="g8655">
              <use
                 xlink:href="#BitstreamVeraSans-Roman-35"
                 id="use8657" />
            </g>
          </g>
        </g>
        <g
           id="xtick_7">
          <g
             id="line2d_26">
            <path
               clip-path="url(#p7ff5b81e1d)"
               d=" M402.667 388.8 L402.667 43.2"
               style="fill:none;stroke:#000000;stroke-dasharray:1.000000,3.000000;stroke-dashoffset:0.0;stroke-width:0.5;"
               id="path8661" />
          </g>
          <g
             id="line2d_27">
            <g
               id="g8664">
              <use
                 style="stroke:#000000;stroke-width:0.5;"
                 x="402.666666667"
                 xlink:href="#m93b0483c22"
                 y="388.8"
                 id="use8666" />
            </g>
          </g>
          <g
             id="line2d_28">
            <g
               id="g8669">
              <use
                 style="stroke:#000000;stroke-width:0.5;"
                 x="402.666666667"
                 xlink:href="#m741efc42ff"
                 y="43.2"
                 id="use8671" />
            </g>
          </g>
          <g
             id="text_7">
            <!-- 6 -->
            <defs
               id="defs8674">
              <path
                 d=" M33.0156 40.375 Q26.375 40.375 22.4844 35.8281 Q18.6094 31.2969 18.6094 23.3906 Q18.6094 15.5312 22.4844 10.9531 Q26.375 6.39062 33.0156 6.39062 Q39.6562 6.39062 43.5312 10.9531 Q47.4062 15.5312 47.4062 23.3906 Q47.4062 31.2969 43.5312 35.8281 Q39.6562 40.375 33.0156 40.375 M52.5938 71.2969 L52.5938 62.3125 Q48.875 64.0625 45.0938 64.9844 Q41.3125 65.9219 37.5938 65.9219 Q27.8281 65.9219 22.6719 59.3281 Q17.5312 52.7344 16.7969 39.4062 Q19.6719 43.6562 24.0156 45.9219 Q28.375 48.1875 33.5938 48.1875 Q44.5781 48.1875 50.9531 41.5156 Q57.3281 34.8594 57.3281 23.3906 Q57.3281 12.1562 50.6875 5.35938 Q44.0469 -1.42188 33.0156 -1.42188 Q20.3594 -1.42188 13.6719 8.26562 Q6.98438 17.9688 6.98438 36.375 Q6.98438 53.6562 15.1875 63.9375 Q23.3906 74.2188 37.2031 74.2188 Q40.9219 74.2188 44.7031 73.4844 Q48.4844 72.75 52.5938 71.2969"
                 id="BitstreamVeraSans-Roman-36" />
            </defs>
            <g
               transform="translate(399.646041667 401.918125)scale(0.12 -0.12)"
               id="g8677">
              <use
                 xlink:href="#BitstreamVeraSans-Roman-36"
                 id="use8679" />
            </g>
          </g>
        </g>
        <g
           id="xtick_8">
          <g
             id="line2d_29">
            <path
               clip-path="url(#p7ff5b81e1d)"
               d=" M457.778 388.8 L457.778 43.2"
               style="fill:none;stroke:#000000;stroke-dasharray:1.000000,3.000000;stroke-dashoffset:0.0;stroke-width:0.5;"
               id="path8683" />
          </g>
          <g
             id="line2d_30">
            <g
               id="g8686">
              <use
                 style="stroke:#000000;stroke-width:0.5;"
                 x="457.777777778"
                 xlink:href="#m93b0483c22"
                 y="388.8"
                 id="use8688" />
            </g>
          </g>
          <g
             id="line2d_31">
            <g
               id="g8691">
              <use
                 style="stroke:#000000;stroke-width:0.5;"
                 x="457.777777778"
                 xlink:href="#m741efc42ff"
                 y="43.2"
                 id="use8693" />
            </g>
          </g>
          <g
             id="text_8">
            <!-- 7 -->
            <defs
               id="defs8696">
              <path
                 d=" M8.20312 72.9062 L55.0781 72.9062 L55.0781 68.7031 L28.6094 0 L18.3125 0 L43.2188 64.5938 L8.20312 64.5938 z "
                 id="BitstreamVeraSans-Roman-37" />
            </defs>
            <g
               transform="translate(454.965277778 401.918125)scale(0.12 -0.12)"
               id="g8699">
              <use
                 xlink:href="#BitstreamVeraSans-Roman-37"
                 id="use8701" />
            </g>
          </g>
        </g>
        <g
           id="xtick_9">
          <g
             id="line2d_32">
            <path
               clip-path="url(#p7ff5b81e1d)"
               d=" M512.889 388.8 L512.889 43.2"
               style="fill:none;stroke:#000000;stroke-dasharray:1.000000,3.000000;stroke-dashoffset:0.0;stroke-width:0.5;"
               id="path8705" />
          </g>
          <g
             id="line2d_33">
            <g
               id="g8708">
              <use
                 style="stroke:#000000;stroke-width:0.5;"
                 x="512.888888889"
                 xlink:href="#m93b0483c22"
                 y="388.8"
                 id="use8710" />
            </g>
          </g>
          <g
             id="line2d_34">
            <g
               id="g8713">
              <use
                 style="stroke:#000000;stroke-width:0.5;"
                 x="512.888888889"
                 xlink:href="#m741efc42ff"
                 y="43.2"
                 id="use8715" />
            </g>
          </g>
          <g
             id="text_9">
            <!-- 8 -->
            <defs
               id="defs8718">
              <path
                 d=" M31.7812 34.625 Q24.75 34.625 20.7188 30.8594 Q16.7031 27.0938 16.7031 20.5156 Q16.7031 13.9219 20.7188 10.1562 Q24.75 6.39062 31.7812 6.39062 Q38.8125 6.39062 42.8594 10.1719 Q46.9219 13.9688 46.9219 20.5156 Q46.9219 27.0938 42.8906 30.8594 Q38.875 34.625 31.7812 34.625 M21.9219 38.8125 Q15.5781 40.375 12.0312 44.7188 Q8.5 49.0781 8.5 55.3281 Q8.5 64.0625 14.7188 69.1406 Q20.9531 74.2188 31.7812 74.2188 Q42.6719 74.2188 48.875 69.1406 Q55.0781 64.0625 55.0781 55.3281 Q55.0781 49.0781 51.5312 44.7188 Q48 40.375 41.7031 38.8125 Q48.8281 37.1562 52.7969 32.3125 Q56.7812 27.4844 56.7812 20.5156 Q56.7812 9.90625 50.3125 4.23438 Q43.8438 -1.42188 31.7812 -1.42188 Q19.7344 -1.42188 13.25 4.23438 Q6.78125 9.90625 6.78125 20.5156 Q6.78125 27.4844 10.7812 32.3125 Q14.7969 37.1562 21.9219 38.8125 M18.3125 54.3906 Q18.3125 48.7344 21.8438 45.5625 Q25.3906 42.3906 31.7812 42.3906 Q38.1406 42.3906 41.7188 45.5625 Q45.3125 48.7344 45.3125 54.3906 Q45.3125 60.0625 41.7188 63.2344 Q38.1406 66.4062 31.7812 66.4062 Q25.3906 66.4062 21.8438 63.2344 Q18.3125 60.0625 18.3125 54.3906"
                 id="BitstreamVeraSans-Roman-38" />
            </defs>
            <g
               transform="translate(509.888888889 401.918125)scale(0.12 -0.12)"
               id="g8721">
              <use
                 xlink:href="#BitstreamVeraSans-Roman-38"
                 id="use8723" />
            </g>
          </g>
        </g>
        <g
           id="text_10">
          <!-- $time (s)$ -->
          <defs
             id="defs8726">
            <path
               d=" M7.71875 1.70312 Q7.71875 2.29688 7.8125 2.59375 L15.2812 32.4219 Q16.0156 35.2031 16.0156 37.3125 Q16.0156 41.6094 13.0938 41.6094 Q9.96875 41.6094 8.45312 37.8594 Q6.9375 34.125 5.51562 28.4219 Q5.51562 28.125 5.21875 27.9531 Q4.9375 27.7812 4.6875 27.7812 L3.51562 27.7812 Q3.17188 27.7812 2.92188 28.1406 Q2.6875 28.5156 2.6875 28.8125 Q3.76562 33.1562 4.76562 36.1719 Q5.76562 39.2031 7.89062 41.6875 Q10.0156 44.1875 13.1875 44.1875 Q16.9375 44.1875 19.8125 41.8125 Q22.7031 39.4531 22.7031 35.7969 Q25.6875 39.7031 29.6875 41.9375 Q33.6875 44.1875 38.1875 44.1875 Q42.9219 44.1875 46.3594 41.7656 Q49.8125 39.3594 49.8125 34.9062 Q52.875 39.2656 57 41.7188 Q61.1406 44.1875 66.0156 44.1875 Q71.1875 44.1875 74.3281 41.375 Q77.4844 38.5781 77.4844 33.4062 Q77.4844 29.2969 75.6562 23.4844 Q73.8281 17.6719 71.0938 10.5 Q69.6719 7.03125 69.6719 4.5 Q69.6719 1.51562 72.0156 1.51562 Q75.9219 1.51562 78.5156 5.70312 Q81.1094 9.90625 82.1719 14.7031 Q82.4688 15.2812 83.0156 15.2812 L84.1875 15.2812 Q84.5781 15.2812 84.8438 15.0156 Q85.1094 14.75 85.1094 14.4062 Q85.1094 14.3125 85.0156 14.1094 Q83.6406 8.45312 80.25 3.65625 Q76.8594 -1.125 71.7812 -1.125 Q68.2656 -1.125 65.7656 1.29688 Q63.2812 3.71875 63.2812 7.17188 Q63.2812 8.9375 64.1094 11.0781 Q66.9375 18.6094 68.8125 24.5156 Q70.7031 30.4219 70.7031 34.9062 Q70.7031 37.7031 69.5781 39.6562 Q68.4531 41.6094 65.8281 41.6094 Q60.3594 41.6094 56.3438 38.25 Q52.3438 34.9062 49.4219 29.3906 Q49.2188 28.4219 49.125 27.875 L42.6719 2.20312 Q42.3281 0.828125 41.125 -0.140625 Q39.9375 -1.125 38.4844 -1.125 Q37.3125 -1.125 36.4062 -0.34375 Q35.5 0.4375 35.5 1.70312 Q35.5 2.29688 35.5938 2.59375 L42 28.0781 Q43.0156 32.1719 43.0156 34.9062 Q43.0156 37.7031 41.8594 39.6562 Q40.7188 41.6094 37.9844 41.6094 Q34.3281 41.6094 31.25 39.9844 Q28.1719 38.375 25.875 35.7188 Q23.5781 33.0625 21.6875 29.3906 L14.8906 2.20312 Q14.5469 0.828125 13.3438 -0.140625 Q12.1562 -1.125 10.6875 -1.125 Q9.46875 -1.125 8.59375 -0.34375 Q7.71875 0.4375 7.71875 1.70312"
               id="Cmmi10-6d" />
            <path
               d=" M31 -24.8125 Q25.4375 -20.4062 21.4062 -14.7188 Q17.3906 -9.03125 14.8125 -2.57812 Q12.25 3.85938 10.9844 10.8906 Q9.71875 17.9219 9.71875 25 Q9.71875 32.1719 10.9844 39.2031 Q12.25 46.2344 14.8594 52.7344 Q17.4844 59.2344 21.5312 64.8906 Q25.5938 70.5625 31 74.8125 Q31 75 31.5 75 L32.4219 75 Q32.7188 75 32.9531 74.7344 Q33.2031 74.4688 33.2031 74.125 Q33.2031 73.6875 33.0156 73.4844 Q28.125 68.7031 24.875 63.2344 Q21.625 57.7656 19.6406 51.5781 Q17.6719 45.4062 16.7969 38.7812 Q15.9219 32.1719 15.9219 25 Q15.9219 -6.78125 32.9062 -23.2969 Q33.2031 -23.5781 33.2031 -24.125 Q33.2031 -24.3594 32.9375 -24.6719 Q32.6719 -25 32.4219 -25 L31.5 -25 Q31 -25 31 -24.8125"
               id="Cmr10-28" />
            <path
               d=" M6.5 -25 Q5.60938 -25 5.60938 -24.125 Q5.60938 -23.6875 5.8125 -23.4844 Q22.9062 -6.78125 22.9062 25 Q22.9062 56.7812 6 73.2969 Q5.60938 73.5312 5.60938 74.125 Q5.60938 74.4688 5.875 74.7344 Q6.15625 75 6.5 75 L7.42188 75 Q7.71875 75 7.90625 74.8125 Q15.0938 69.1406 19.875 61.0312 Q24.6562 52.9375 26.875 43.75 Q29.1094 34.5781 29.1094 25 Q29.1094 17.9219 27.9062 11.0625 Q26.7031 4.20312 24.0938 -2.45312 Q21.4844 -9.125 17.4844 -14.7656 Q13.4844 -20.4062 7.90625 -24.8125 Q7.71875 -25 7.42188 -25 z "
               id="Cmr10-29" />
            <path
               d=" M8.6875 6.10938 Q11.375 1.51562 19.4844 1.51562 Q23 1.51562 26.1719 2.70312 Q29.3438 3.90625 31.4219 6.29688 Q33.5 8.6875 33.5 12.1094 Q33.5 14.7031 31.6406 16.3594 Q29.7812 18.0156 27.0938 18.6094 L21.6875 19.6719 Q17.9688 20.6094 15.5781 23.1406 Q13.1875 25.6875 13.1875 29.2969 Q13.1875 33.7344 15.5938 37.1562 Q18.0156 40.5781 21.9688 42.375 Q25.9219 44.1875 30.1719 44.1875 Q34.7188 44.1875 38.2969 42.0156 Q41.8906 39.8438 41.8906 35.5938 Q41.8906 33.2969 40.5938 31.5312 Q39.3125 29.7812 37.0156 29.7812 Q35.6875 29.7812 34.7344 30.6406 Q33.7969 31.5 33.7969 32.8125 Q33.7969 33.9844 34.4531 35.0781 Q35.1094 36.1875 36.2031 36.8438 Q37.3125 37.5 38.4844 37.5 Q37.5938 39.6562 35.1719 40.625 Q32.7656 41.6094 29.9844 41.6094 Q27.4375 41.6094 24.8906 40.5781 Q22.3594 39.5469 20.8125 37.5625 Q19.2812 35.5938 19.2812 32.9062 Q19.2812 31.1094 20.5469 29.7344 Q21.8281 28.375 23.6875 27.7812 L29.5 26.6094 Q32.2812 26.0312 34.5938 24.5312 Q36.9219 23.0469 38.25 20.7656 Q39.5938 18.5 39.5938 15.5781 Q39.5938 11.8594 37.5156 8.25 Q35.4531 4.64062 32.4219 2.48438 Q27.0938 -1.125 19.3906 -1.125 Q14.0625 -1.125 9.60938 1.3125 Q5.17188 3.76562 5.17188 8.59375 Q5.17188 11.3281 6.75 13.3438 Q8.34375 15.375 11.0781 15.375 Q12.7031 15.375 13.7969 14.3906 Q14.8906 13.4219 14.8906 11.8125 Q14.8906 9.51562 13.1719 7.8125 Q11.4688 6.10938 9.1875 6.10938 z "
               id="Cmmi10-73" />
            <path
               d=" M20.125 -1.125 Q15.3281 -1.125 11.7344 1.35938 Q8.15625 3.85938 6.26562 8.07812 Q4.39062 12.3125 4.39062 17 Q4.39062 24.125 7.98438 30.3906 Q11.5781 36.6719 17.7188 40.4219 Q23.875 44.1875 30.9062 44.1875 Q35.2031 44.1875 38.4062 41.9688 Q41.6094 39.75 41.6094 35.5938 Q41.6094 29.8281 37.0156 27.0156 Q32.4219 24.2188 26.6562 23.5625 Q20.9062 22.9062 13.9219 22.9062 L13.625 22.9062 Q12.0156 16.9375 12.0156 12.7031 Q12.0156 8.25 14.0625 4.875 Q16.1094 1.51562 20.3125 1.51562 Q26.2656 1.51562 31.75 4.25 Q37.25 6.98438 40.7188 11.8125 Q41.0156 12.1094 41.5 12.1094 Q42 12.1094 42.5 11.5469 Q43.0156 10.9844 43.0156 10.5 Q43.0156 10.1094 42.8281 9.90625 Q39.1562 4.78125 32.9531 1.82812 Q26.7656 -1.125 20.125 -1.125 M14.2031 25.4844 Q20.0156 25.4844 24.9531 26.0156 Q29.8906 26.5625 33.8906 28.7344 Q37.8906 30.9062 37.8906 35.5 Q37.8906 37.3594 36.8594 38.75 Q35.8438 40.1406 34.2031 40.875 Q32.5625 41.6094 30.8125 41.6094 Q26.5625 41.6094 23.1719 39.3125 Q19.7812 37.0156 17.5781 33.3281 Q15.375 29.6406 14.2031 25.4844"
               id="Cmmi10-65" />
            <path
               d=" M6.20312 8.10938 Q6.20312 9.57812 6.5 10.8906 L13.7188 39.5938 L3.21875 39.5938 Q2.20312 39.5938 2.20312 40.9219 Q2.59375 43.1094 3.51562 43.1094 L14.5938 43.1094 L18.6094 59.4219 Q19 60.75 20.1719 61.6719 Q21.3438 62.5938 22.7969 62.5938 Q24.0781 62.5938 24.9219 61.8281 Q25.7812 61.0781 25.7812 59.8125 Q25.7812 59.5156 25.75 59.3438 Q25.7344 59.1875 25.6875 58.9844 L21.6875 43.1094 L31.9844 43.1094 Q33.0156 43.1094 33.0156 41.7969 Q32.9531 41.5469 32.8125 40.9531 Q32.6719 40.375 32.4219 39.9844 Q32.1719 39.5938 31.6875 39.5938 L20.7969 39.5938 L13.625 10.6875 Q12.8906 7.85938 12.8906 5.8125 Q12.8906 1.51562 15.8281 1.51562 Q20.2188 1.51562 23.6094 5.64062 Q27 9.76562 28.8125 14.7031 Q29.2031 15.2812 29.5938 15.2812 L30.8125 15.2812 Q31.2031 15.2812 31.4375 15.0156 Q31.6875 14.75 31.6875 14.4062 Q31.6875 14.2031 31.5938 14.1094 Q29.3906 8.0625 25.1875 3.46875 Q21 -1.125 15.5781 -1.125 Q11.625 -1.125 8.90625 1.45312 Q6.20312 4.04688 6.20312 8.10938"
               id="Cmmi10-74" />
            <path
               d=" M7.8125 7.17188 Q7.8125 9.03125 8.59375 11.0781 L16.7031 32.625 Q18.0156 36.2812 18.0156 38.625 Q18.0156 41.6094 15.8281 41.6094 Q11.8594 41.6094 9.29688 37.5312 Q6.73438 33.4531 5.51562 28.4219 Q5.32812 27.7812 4.6875 27.7812 L3.51562 27.7812 Q2.6875 27.7812 2.6875 28.7188 L2.6875 29 Q4.29688 34.9688 7.60938 39.5781 Q10.9375 44.1875 16.0156 44.1875 Q19.5781 44.1875 22.0469 41.8438 Q24.5156 39.5 24.5156 35.8906 Q24.5156 34.0312 23.6875 31.9844 L15.5781 10.5 Q14.2031 7.17188 14.2031 4.5 Q14.2031 1.51562 16.5 1.51562 Q20.4062 1.51562 23.0156 5.6875 Q25.6406 9.85938 26.7031 14.7031 Q26.9062 15.2812 27.4844 15.2812 L28.7188 15.2812 Q29.1094 15.2812 29.3438 15.0156 Q29.5938 14.75 29.5938 14.4062 Q29.5938 14.3125 29.5 14.1094 Q28.125 8.45312 24.7344 3.65625 Q21.3438 -1.125 16.3125 -1.125 Q12.7969 -1.125 10.2969 1.29688 Q7.8125 3.71875 7.8125 7.17188 M19.0938 60.5938 Q19.0938 62.7031 20.8438 64.4062 Q22.6094 66.1094 24.7031 66.1094 Q26.4219 66.1094 27.5156 65.0625 Q28.6094 64.0156 28.6094 62.4062 Q28.6094 60.1562 26.8281 58.4688 Q25.0469 56.7812 22.9062 56.7812 Q21.2969 56.7812 20.1875 57.875 Q19.0938 58.9844 19.0938 60.5938"
               id="Cmmi10-69" />
          </defs>
          <g
             transform="translate(262.2 424.41375)scale(0.2 -0.2)"
             id="g8735">
            <use
               xlink:href="#Cmmi10-74"
               id="use8737" />
            <use
               transform="translate(36.083984375 0.0)"
               xlink:href="#Cmmi10-69"
               id="use8739" />
            <use
               transform="translate(70.5078125 0.0)"
               xlink:href="#Cmmi10-6d"
               id="use8741" />
            <use
               transform="translate(158.30078125 0.0)"
               xlink:href="#Cmmi10-65"
               id="use8743" />
            <use
               transform="translate(204.78515625 0.0)"
               xlink:href="#Cmr10-28"
               id="use8745" />
            <use
               transform="translate(243.603515625 0.0)"
               xlink:href="#Cmmi10-73"
               id="use8747" />
            <use
               transform="translate(290.380859375 0.0)"
               xlink:href="#Cmr10-29"
               id="use8749" />
          </g>
        </g>
      </g>
      <g
         id="matplotlib.axis_2">
        <g
           id="ytick_1">
          <g
             id="line2d_35">
            <path
               clip-path="url(#p7ff5b81e1d)"
               d=" M72 388.8 L518.4 388.8"
               style="fill:none;stroke:#000000;stroke-dasharray:1.000000,3.000000;stroke-dashoffset:0.0;stroke-width:0.5;"
               id="path8754" />
          </g>
          <g
             id="line2d_36">
            <defs
               id="defs8757">
              <path
                 d=" M0 0 L4 0"
                 id="m728421d6d4"
                 style="stroke:#000000;stroke-width:0.5;" />
            </defs>
            <g
               id="g8760">
              <use
                 style="stroke:#000000;stroke-width:0.5;"
                 x="72.0"
                 xlink:href="#m728421d6d4"
                 y="388.8"
                 id="use8762" />
            </g>
          </g>
          <g
             id="line2d_37">
            <defs
               id="defs8765">
              <path
                 d=" M0 0 L-4 0"
                 id="mcb0005524f"
                 style="stroke:#000000;stroke-width:0.5;" />
            </defs>
            <g
               id="g8768">
              <use
                 style="stroke:#000000;stroke-width:0.5;"
                 x="518.4"
                 xlink:href="#mcb0005524f"
                 y="388.8"
                 id="use8770" />
            </g>
          </g>
          <g
             id="text_11">
            <!-- −50 -->
            <defs
               id="defs8773">
              <path
                 d=" M10.5938 35.5 L73.1875 35.5 L73.1875 27.2031 L10.5938 27.2031 z "
                 id="BitstreamVeraSans-Roman-2212" />
            </defs>
            <g
               transform="translate(44.7425 392.11125)scale(0.12 -0.12)"
               id="g8776">
              <use
                 xlink:href="#BitstreamVeraSans-Roman-2212"
                 id="use8778" />
              <use
                 x="83.7890625"
                 xlink:href="#BitstreamVeraSans-Roman-35"
                 id="use8780" />
              <use
                 x="147.412109375"
                 xlink:href="#BitstreamVeraSans-Roman-30"
                 id="use8782" />
            </g>
          </g>
        </g>
        <g
           id="ytick_2">
          <g
             id="line2d_38">
            <path
               clip-path="url(#p7ff5b81e1d)"
               d=" M72 331.2 L518.4 331.2"
               style="fill:none;stroke:#000000;stroke-dasharray:1.000000,3.000000;stroke-dashoffset:0.0;stroke-width:0.5;"
               id="path8786" />
          </g>
          <g
             id="line2d_39">
            <g
               id="g8789">
              <use
                 style="stroke:#000000;stroke-width:0.5;"
                 x="72.0"
                 xlink:href="#m728421d6d4"
                 y="331.2"
                 id="use8791" />
            </g>
          </g>
          <g
             id="line2d_40">
            <g
               id="g8794">
              <use
                 style="stroke:#000000;stroke-width:0.5;"
                 x="518.4"
                 xlink:href="#mcb0005524f"
                 y="331.2"
                 id="use8796" />
            </g>
          </g>
          <g
             id="text_12">
            <!-- −40 -->
            <g
               transform="translate(44.7425 334.51125)scale(0.12 -0.12)"
               id="g8799">
              <use
                 xlink:href="#BitstreamVeraSans-Roman-2212"
                 id="use8801" />
              <use
                 x="83.7890625"
                 xlink:href="#BitstreamVeraSans-Roman-34"
                 id="use8803" />
              <use
                 x="147.412109375"
                 xlink:href="#BitstreamVeraSans-Roman-30"
                 id="use8805" />
            </g>
          </g>
        </g>
        <g
           id="ytick_3">
          <g
             id="line2d_41">
            <path
               clip-path="url(#p7ff5b81e1d)"
               d=" M72 273.6 L518.4 273.6"
               style="fill:none;stroke:#000000;stroke-dasharray:1.000000,3.000000;stroke-dashoffset:0.0;stroke-width:0.5;"
               id="path8809" />
          </g>
          <g
             id="line2d_42">
            <g
               id="g8812">
              <use
                 style="stroke:#000000;stroke-width:0.5;"
                 x="72.0"
                 xlink:href="#m728421d6d4"
                 y="273.6"
                 id="use8814" />
            </g>
          </g>
          <g
             id="line2d_43">
            <g
               id="g8817">
              <use
                 style="stroke:#000000;stroke-width:0.5;"
                 x="518.4"
                 xlink:href="#mcb0005524f"
                 y="273.6"
                 id="use8819" />
            </g>
          </g>
          <g
             id="text_13">
            <!-- −30 -->
            <g
               transform="translate(44.7425 276.91125)scale(0.12 -0.12)"
               id="g8822">
              <use
                 xlink:href="#BitstreamVeraSans-Roman-2212"
                 id="use8824" />
              <use
                 x="83.7890625"
                 xlink:href="#BitstreamVeraSans-Roman-33"
                 id="use8826" />
              <use
                 x="147.412109375"
                 xlink:href="#BitstreamVeraSans-Roman-30"
                 id="use8828" />
            </g>
          </g>
        </g>
        <g
           id="ytick_4">
          <g
             id="line2d_44">
            <path
               clip-path="url(#p7ff5b81e1d)"
               d=" M72 216 L518.4 216"
               style="fill:none;stroke:#000000;stroke-dasharray:1.000000,3.000000;stroke-dashoffset:0.0;stroke-width:0.5;"
               id="path8832" />
          </g>
          <g
             id="line2d_45">
            <g
               id="g8835">
              <use
                 style="stroke:#000000;stroke-width:0.5;"
                 x="72.0"
                 xlink:href="#m728421d6d4"
                 y="216.0"
                 id="use8837" />
            </g>
          </g>
          <g
             id="line2d_46">
            <g
               id="g8840">
              <use
                 style="stroke:#000000;stroke-width:0.5;"
                 x="518.4"
                 xlink:href="#mcb0005524f"
                 y="216.0"
                 id="use8842" />
            </g>
          </g>
          <g
             id="text_14">
            <!-- −20 -->
            <g
               transform="translate(44.7425 219.31125)scale(0.12 -0.12)"
               id="g8845">
              <use
                 xlink:href="#BitstreamVeraSans-Roman-2212"
                 id="use8847" />
              <use
                 x="83.7890625"
                 xlink:href="#BitstreamVeraSans-Roman-32"
                 id="use8849" />
              <use
                 x="147.412109375"
                 xlink:href="#BitstreamVeraSans-Roman-30"
                 id="use8851" />
            </g>
          </g>
        </g>
        <g
           id="ytick_5">
          <g
             id="line2d_47">
            <path
               clip-path="url(#p7ff5b81e1d)"
               d=" M72 158.4 L518.4 158.4"
               style="fill:none;stroke:#000000;stroke-dasharray:1.000000,3.000000;stroke-dashoffset:0.0;stroke-width:0.5;"
               id="path8855" />
          </g>
          <g
             id="line2d_48">
            <g
               id="g8858">
              <use
                 style="stroke:#000000;stroke-width:0.5;"
                 x="72.0"
                 xlink:href="#m728421d6d4"
                 y="158.4"
                 id="use8860" />
            </g>
          </g>
          <g
             id="line2d_49">
            <g
               id="g8863">
              <use
                 style="stroke:#000000;stroke-width:0.5;"
                 x="518.4"
                 xlink:href="#mcb0005524f"
                 y="158.4"
                 id="use8865" />
            </g>
          </g>
          <g
             id="text_15">
            <!-- −10 -->
            <g
               transform="translate(44.7425 161.71125)scale(0.12 -0.12)"
               id="g8868">
              <use
                 xlink:href="#BitstreamVeraSans-Roman-2212"
                 id="use8870" />
              <use
                 x="83.7890625"
                 xlink:href="#BitstreamVeraSans-Roman-31"
                 id="use8872" />
              <use
                 x="147.412109375"
                 xlink:href="#BitstreamVeraSans-Roman-30"
                 id="use8874" />
            </g>
          </g>
        </g>
        <g
           id="ytick_6">
          <g
             id="line2d_50">
            <path
               clip-path="url(#p7ff5b81e1d)"
               d=" M72 100.8 L518.4 100.8"
               style="fill:none;stroke:#000000;stroke-dasharray:1.000000,3.000000;stroke-dashoffset:0.0;stroke-width:0.5;"
               id="path8878" />
          </g>
          <g
             id="line2d_51">
            <g
               id="g8881">
              <use
                 style="stroke:#000000;stroke-width:0.5;"
                 x="72.0"
                 xlink:href="#m728421d6d4"
                 y="100.8"
                 id="use8883" />
            </g>
          </g>
          <g
             id="line2d_52">
            <g
               id="g8886">
              <use
                 style="stroke:#000000;stroke-width:0.5;"
                 x="518.4"
                 xlink:href="#mcb0005524f"
                 y="100.8"
                 id="use8888" />
            </g>
          </g>
          <g
             id="text_16">
            <!-- 0 -->
            <g
               transform="translate(61.953125 104.11125)scale(0.12 -0.12)"
               id="g8891">
              <use
                 xlink:href="#BitstreamVeraSans-Roman-30"
                 id="use8893" />
            </g>
          </g>
        </g>
        <g
           id="ytick_7">
          <g
             id="line2d_53">
            <path
               clip-path="url(#p7ff5b81e1d)"
               d=" M72 43.2 L518.4 43.2"
               style="fill:none;stroke:#000000;stroke-dasharray:1.000000,3.000000;stroke-dashoffset:0.0;stroke-width:0.5;"
               id="path8897" />
          </g>
          <g
             id="line2d_54">
            <g
               id="g8900">
              <use
                 style="stroke:#000000;stroke-width:0.5;"
                 x="72.0"
                 xlink:href="#m728421d6d4"
                 y="43.2"
                 id="use8902" />
            </g>
          </g>
          <g
             id="line2d_55">
            <g
               id="g8905">
              <use
                 style="stroke:#000000;stroke-width:0.5;"
                 x="518.4"
                 xlink:href="#mcb0005524f"
                 y="43.2"
                 id="use8907" />
            </g>
          </g>
          <g
             id="text_17">
            <!-- 10 -->
            <g
               transform="translate(54.845 46.51125)scale(0.12 -0.12)"
               id="g8910">
              <use
                 xlink:href="#BitstreamVeraSans-Roman-31"
                 id="use8912" />
              <use
                 x="63.623046875"
                 xlink:href="#BitstreamVeraSans-Roman-30"
                 id="use8914" />
            </g>
          </g>
        </g>
        <g
           id="text_18">
          <!-- $(N.m)$ -->
          <defs
             id="defs8917">
            <path
               d=" M4.6875 0 Q3.71875 0 3.71875 1.3125 Q3.76562 1.5625 3.90625 2.17188 Q4.04688 2.78125 4.3125 3.14062 Q4.59375 3.51562 4.98438 3.51562 Q14.5469 3.51562 16.1094 9.625 L29.6875 64.3125 Q26.9062 64.7969 20.9062 64.7969 Q19.9219 64.7969 19.9219 66.1094 Q19.9688 66.3594 20.1094 66.9688 Q20.2656 67.5781 20.5312 67.9375 Q20.7969 68.3125 21.1875 68.3125 L38.4844 68.3125 Q39.2031 68.3125 39.4062 67.6719 L61.625 14.7969 L72.7031 59.0781 Q72.9062 60.1562 72.9062 60.5938 Q72.9062 64.7969 65.1875 64.7969 Q64.2031 64.7969 64.2031 66.1094 Q64.5469 67.3906 64.7344 67.8438 Q64.9375 68.3125 65.9219 68.3125 L87.3125 68.3125 Q88.2812 68.3125 88.2812 67 Q88.2344 66.75 88.0781 66.1406 Q87.9375 65.5312 87.6719 65.1562 Q87.4062 64.7969 87.0156 64.7969 Q77.4375 64.7969 75.875 58.6875 L61.5312 0.875 Q61.1875 0 60.5 0 L59.2812 0 Q58.5938 0 58.4062 0.6875 L32.9062 61.1875 L32.7188 61.8125 Q32.5156 62.0156 32.5156 62.1094 L19.2812 9.1875 Q19.1875 8.9375 19.1406 8.5625 Q19.0938 8.20312 19 7.71875 Q19 5.125 21.2344 4.3125 Q23.4844 3.51562 26.8125 3.51562 Q27.7812 3.51562 27.7812 2.20312 Q27.4375 0.828125 27.1875 0.40625 Q26.9531 0 26.125 0 z "
               id="Cmmi10-4e" />
            <path
               d=" M8.40625 5.51562 Q8.40625 7.76562 10.0625 9.375 Q11.7188 10.9844 13.9219 10.9844 Q15.2812 10.9844 16.5938 10.25 Q17.9219 9.51562 18.6562 8.20312 Q19.3906 6.89062 19.3906 5.51562 Q19.3906 3.32812 17.7656 1.65625 Q16.1562 0 13.9219 0 Q11.7188 0 10.0625 1.65625 Q8.40625 3.32812 8.40625 5.51562"
               id="Cmmi10-3a" />
          </defs>
          <g
             transform="translate(34.7425 243.5)rotate(-90.0)scale(0.2 -0.2)"
             id="g8921">
            <use
               xlink:href="#Cmr10-28"
               id="use8923" />
            <use
               transform="translate(38.818359375 0.0)"
               xlink:href="#Cmmi10-4e"
               id="use8925" />
            <use
               transform="translate(119.140625 0.0)"
               xlink:href="#Cmmi10-3a"
               id="use8927" />
            <use
               transform="translate(147.68359375 0.0)"
               xlink:href="#Cmmi10-6d"
               id="use8929" />
            <use
               transform="translate(235.4765625 0.0)"
               xlink:href="#Cmr10-29"
               id="use8931" />
          </g>
        </g>
      </g>
      <g
         id="patch_3">
        <path
           d=" M72 43.2 L518.4 43.2"
           style="fill:none;stroke:#000000;"
           id="path8934" />
      </g>
      <g
         id="patch_4">
        <path
           d=" M518.4 388.8 L518.4 43.2"
           style="fill:none;stroke:#000000;"
           id="path8937" />
      </g>
      <g
         id="patch_5">
        <path
           d=" M72 388.8 L518.4 388.8"
           style="fill:none;stroke:#000000;"
           id="path8940" />
      </g>
      <g
         id="patch_6">
        <path
           d=" M72 388.8 L72 43.2"
           style="fill:none;stroke:#000000;"
           id="path8943" />
      </g>
      <g
         id="legend_1"
         transform="translate(-588.82192,27.616438)"
         style="stroke-linecap:butt;stroke-linejoin:round">
        <rect
           style="fill:#ffffff;fill-opacity:1;fill-rule:nonzero;stroke:#000000;stroke-width:1.60000002;stroke-linecap:butt;stroke-linejoin:miter;stroke-miterlimit:4;stroke-opacity:1;stroke-dasharray:none"
           id="rect9057"
           width="253.97261"
           height="88.273972"
           x="827.50684"
           y="269.26028" />
        <g
           id="line2d_56"
           style="stroke-linecap:butt;stroke-linejoin:round"
           transform="translate(580.93151,239.67123)">
          <path
             d="m 431.6,69.3969 28,0"
             style="fill:none;stroke:#000000;stroke-width:2;stroke-linecap:square;stroke-linejoin:round"
             id="path8950"
             inkscape:connector-curvature="0" />
        </g>
        <g
           id="line2d_57"
           style="stroke-linecap:butt;stroke-linejoin:round" />
        <g
           id="text_19"
           style="stroke-linecap:butt;stroke-linejoin:round"
           transform="translate(580.93151,239.67123)">
          <!-- $\tau_6$ -->
          <defs
             id="defs8954">
            <path
               d="m 15.5781,1.51562 q 0,0.6875 0.1407,1.07813 l 10.5,34.32815 -9.0313,0 q -3.6563,0 -6.8437,-2.2969 Q 7.17188,32.3281 5.07812,28.8125 4.89062,28.4219 4.5,28.4219 l -1.17188,0 q -0.9375,0 -0.9375,0.9687 0,0.2032 0.20313,0.5938 3.26563,5.5625 7,9.3437 3.73435,3.7813 8.42185,3.7813 l 30.6719,0 q 1.0625,0 1.7969,-0.7344 0.7344,-0.7188 0.7344,-1.7969 0,-1.4687 -1.0469,-2.5625 -1.0469,-1.0937 -2.5625,-1.0937 L 29.5,36.9219 22.7969,2.39062 Q 22.4062,0.78125 21.3281,-0.265625 20.2656,-1.3125 18.6094,-1.3125 q -1.2813,0 -2.1563,0.8125 -0.875,0.796875 -0.875,2.01562"
               id="Cmmi10-bf"
               inkscape:connector-curvature="0"
               style="stroke-linecap:butt;stroke-linejoin:round" />
            <path
               d="m 25,-2.20312 q -6.2031,0 -10.3594,3.29687 Q 10.5,4.39062 8.21875,9.64062 5.95312,14.8906 5.07812,20.6562 q -0.875,5.7657 -0.875,11.6719 0,7.9063 3.07813,15.8594 3.07815,7.9687 9.04685,13.1875 5.9844,5.2344 14.1875,5.2344 3.4219,0 6.375,-1.2969 2.9532,-1.2969 4.6406,-3.8125 1.6876,-2.5156 1.6876,-6.0781 0,-2.0469 -1.3907,-3.4375 -1.3906,-1.3906 -3.4531,-1.3906 -1.9531,0 -3.375,1.4062 -1.4062,1.4219 -1.4062,3.4219 0,1.9531 1.4062,3.3593 1.4219,1.4219 3.375,1.4219 l 0.5469,0 q -1.2813,1.8125 -3.5938,2.6563 -2.3125,0.8594 -4.8125,0.8594 -3.0312,0 -5.5937,-1.3282 -2.5625,-1.3125 -4.6094,-3.5625 -2.0469,-2.2343 -3.4219,-4.9531 -1.3594,-2.7031 -2.125,-6.1719 -0.75,-3.4687 -0.9531,-6.5 -0.1875,-3.0156 -0.1875,-7.6093 1.75,4.1093 4.9688,6.7187 3.2343,2.6094 7.2812,2.6094 4.4531,0 8.1094,-1.8125 3.6562,-1.7969 6.2968,-5 2.6407,-3.2032 4.0313,-7.3125 1.3906,-4.0938 1.3906,-8.2813 0,-5.8594 -2.6093,-11.17185 Q 40.4844,4.04688 35.7344,0.921875 31,-2.20312 25,-2.20312 m 0,3.187495 q 3.8594,0 6.2031,1.750005 2.3438,1.76562 3.4375,4.65624 1.1094,2.90628 1.375,5.85938 0.2656,2.9688 0.2656,7.2656 0,5.6563 -0.5468,9.6563 -0.5313,4.0156 -2.9219,7.0625 -2.3906,3.0468 -7.3281,3.0468 -4.0469,0 -6.6563,-2.7343 -2.6093,-2.7344 -3.8125,-6.9063 -1.2031,-4.1718 -1.2031,-8.0312 0,-1.3125 0.1094,-2 0,-0.1563 -0.0313,-0.25 -0.0156,-0.0938 -0.0781,-0.2344 0,-4.2969 0.875,-8.7031 Q 15.5781,7.03125 18.0625,4 20.5625,0.984375 25,0.984375"
               id="Cmr10-36"
               inkscape:connector-curvature="0"
               style="stroke-linecap:butt;stroke-linejoin:round" />
          </defs>
          <g
             transform="matrix(0.2,0,0,-0.2,481.6,76.396875)"
             id="g8958"
             style="stroke-linecap:butt;stroke-linejoin:round">
            <use
               transform="translate(0,0.890625)"
               xlink:href="#Cmmi10-bf"
               id="use8960"
               style="stroke-linecap:butt;stroke-linejoin:round"
               x="0"
               y="0"
               width="576"
               height="432" />
            <use
               transform="matrix(0.7,0,0,0.7,43.701172,-24.61875)"
               xlink:href="#Cmr10-36"
               id="use8962"
               style="stroke-linecap:butt;stroke-linejoin:round"
               x="0"
               y="0"
               width="576"
               height="432" />
          </g>
        </g>
        <g
           id="line2d_58"
           style="stroke-linecap:butt;stroke-linejoin:round"
           transform="translate(495.12329,179.0137)">
          <path
             d="m 431.6,100.194 28,0"
             style="fill:none;stroke:#bfbf00;stroke-width:2;stroke-linecap:square;stroke-linejoin:round"
             id="path8965"
             inkscape:connector-curvature="0" />
        </g>
        <g
           id="line2d_59"
           style="stroke-linecap:butt;stroke-linejoin:round" />
        <g
           id="text_20"
           style="stroke-linecap:butt;stroke-linejoin:round"
           transform="translate(495.12329,179.0137)">
          <!-- $\tau_5$ -->
          <defs
             id="defs8969">
            <path
               d="m 8.6875,11.375 q 1.03125,-2.92188 3.1563,-5.32812 2.125,-2.39063 5.0312,-3.73438 2.9062,-1.328125 6.0312,-1.328125 7.2188,0 9.9532,5.609375 2.7344,5.60935 2.7344,13.62505 0,3.4687 -0.125,5.8281 -0.1094,2.375 -0.6563,4.5625 -0.9219,3.5156 -3.25,6.1562 -2.3125,2.6406 -5.6875,2.6406 -3.3594,0 -5.7812,-1.0312 -2.4219,-1.0156 -3.9376,-2.3906 -1.5,-1.3594 -2.6718,-2.875 Q 12.3125,31.5938 12.0156,31.5 l -1.125,0 q -0.25,0 -0.625,0.3125 -0.35935,0.3125 -0.35935,0.6094 l 0,33.4062 q 0,0.2344 0.31255,0.5 0.3281,0.2813 0.6718,0.2813 l 0.2969,0 q 6.7344,-3.2344 14.2969,-3.2344 7.4218,0 14.3125,3.2344 l 0.2969,0 q 0.3437,0 0.625,-0.25 0.2968,-0.25 0.2968,-0.5313 l 0,-0.9375 q 0,-0.4844 -0.1875,-0.4844 -3.4219,-4.5468 -8.5781,-7.0937 -5.1562,-2.5313 -10.6719,-2.5313 -4,0 -8.2031,1.125 l 0,-18.8906 q 3.3281,2.6875 5.9375,3.8282 Q 21.9219,42 25.9844,42 q 5.5156,0 9.875,-3.1875 4.375,-3.1719 6.7187,-8.2813 2.3438,-5.0937 2.3438,-10.4062 0,-6.0156 -2.9531,-11.14062 -2.9532,-5.125 -8.0313,-8.156255 -5.0781,-3.031245 -11.0313,-3.031245 -4.9374,0 -9.0624,2.531245 Q 9.71875,2.875 7.34375,7.17188 4.98438,11.4688 4.98438,16.3125 q 0,2.25 1.45312,3.6563 1.46875,1.4218 3.6719,1.4218 2.2031,0 3.6875,-1.4531 1.4843,-1.4375 1.4843,-3.625 0,-2.1563 -1.4843,-3.6406 -1.4844,-1.4844 -3.6875,-1.4844 -0.34378,0 -0.78128,0.0625 -0.4375,0.0781 -0.64062,0.125"
               id="Cmr10-35"
               inkscape:connector-curvature="0"
               style="stroke-linecap:butt;stroke-linejoin:round" />
          </defs>
          <g
             transform="matrix(0.2,0,0,-0.2,481.6,107.19375)"
             id="g8972"
             style="stroke-linecap:butt;stroke-linejoin:round">
            <use
               transform="translate(0,0.890625)"
               xlink:href="#Cmmi10-bf"
               id="use8974"
               style="stroke-linecap:butt;stroke-linejoin:round"
               x="0"
               y="0"
               width="576"
               height="432" />
            <use
               transform="matrix(0.7,0,0,0.7,43.701172,-24.61875)"
               xlink:href="#Cmr10-35"
               id="use8976"
               style="stroke-linecap:butt;stroke-linejoin:round"
               x="0"
               y="0"
               width="576"
               height="432" />
          </g>
        </g>
        <g
           id="line2d_60"
           style="stroke-linecap:butt;stroke-linejoin:round"
           transform="translate(495.12329,179.0137)">
          <path
             d="m 431.6,130.991 28,0"
             style="fill:none;stroke:#bf00bf;stroke-width:2;stroke-linecap:square;stroke-linejoin:round"
             id="path8979"
             inkscape:connector-curvature="0" />
        </g>
        <g
           id="line2d_61"
           style="stroke-linecap:butt;stroke-linejoin:round" />
        <g
           id="text_21"
           style="stroke-linecap:butt;stroke-linejoin:round"
           transform="translate(495.12329,179.0137)">
          <!-- $\tau_4$ -->
          <defs
             id="defs8983">
            <path
               d="m 2.78125,16.5 0,3.5156 30.90625,46.0938 q 0.3437,0.5 1.0313,0.5 l 1.4687,0 q 1.125,0 1.125,-1.125 l 0,-45.4688 9.8125,0 0,-3.5156 -9.8125,0 0,-9.8125 q 0,-2.04688 2.9219,-2.60938 2.9375,-0.5625 6.7812,-0.5625 l 0,-3.51562 -27.5312,0 0,3.51562 q 3.8594,0 6.7812,0.5625 2.9375,0.5625 2.9375,2.60938 l 0,9.8125 z m 3.32813,3.5156 23.67182,0 0,35.4063 z"
               id="Cmr10-34"
               inkscape:connector-curvature="0"
               style="stroke-linecap:butt;stroke-linejoin:round" />
          </defs>
          <g
             transform="matrix(0.2,0,0,-0.2,481.6,137.99062)"
             id="g8986"
             style="stroke-linecap:butt;stroke-linejoin:round">
            <use
               transform="translate(0,0.890625)"
               xlink:href="#Cmmi10-bf"
               id="use8988"
               style="stroke-linecap:butt;stroke-linejoin:round"
               x="0"
               y="0"
               width="576"
               height="432" />
            <use
               transform="matrix(0.7,0,0,0.7,43.701172,-24.61875)"
               xlink:href="#Cmr10-34"
               id="use8990"
               style="stroke-linecap:butt;stroke-linejoin:round"
               x="0"
               y="0"
               width="576"
               height="432" />
          </g>
        </g>
        <g
           id="line2d_62"
           style="stroke-linecap:butt;stroke-linejoin:round"
           transform="translate(495.12329,179.0137)">
          <path
             d="m 431.6,161.388 28,0"
             style="fill:none;stroke:#00bfbf;stroke-width:2;stroke-linecap:square;stroke-linejoin:round"
             id="path8993"
             inkscape:connector-curvature="0" />
        </g>
        <g
           id="line2d_63"
           style="stroke-linecap:butt;stroke-linejoin:round" />
        <g
           id="text_22"
           style="stroke-linecap:butt;stroke-linejoin:round"
           transform="translate(495.12329,179.0137)">
          <!-- $\tau_3$ -->
          <defs
             id="defs8997">
            <path
               d="m 9.51562,7.71875 q 2.34378,-3.42187 6.29688,-5.07813 3.9687,-1.656245 8.5,-1.656245 5.8125,0 8.25,4.953125 2.4531,4.9531 2.4531,11.25 0,2.8281 -0.5156,5.6563 -0.5156,2.8437 -1.7344,5.2812 -1.2187,2.4375 -3.3437,3.9062 Q 27.2969,33.5 24.2188,33.5 l -6.6407,0 q -0.875,0 -0.875,0.9219 l 0,0.875 q 0,0.7812 0.875,0.7812 l 5.5157,0.4531 q 3.5156,0 5.8281,2.625 2.3281,2.6407 3.4062,6.4219 1.0781,3.7813 1.0781,7.2031 0,4.7813 -2.25,7.8594 -2.25,3.0782 -6.8437,3.0782 -3.7969,0 -7.2656,-1.4376 -3.4688,-1.4374 -5.5157,-4.375 0.1876,0.0469 0.3282,0.0782 0.1562,0.0312 0.3437,0.0312 2.25,0 3.7657,-1.5625 1.5156,-1.5625 1.5156,-3.7656 0,-2.1563 -1.5156,-3.7187 -1.5157,-1.5626 -3.7657,-1.5626 -2.1875,0 -3.74998,1.5626 -1.5625,1.5624 -1.5625,3.7187 0,4.2969 2.57813,7.4687 2.59375,3.1719 6.67185,4.8126 4.0782,1.6406 8.1719,1.6406 3.0313,0 6.3906,-0.9063 3.375,-0.9062 6.1094,-2.5937 2.7344,-1.6875 4.4687,-4.3282 1.7344,-2.625 1.7344,-6 0,-4.2031 -1.875,-7.7656 -1.875,-3.5625 -5.1562,-6.1562 -3.2656,-2.5782 -7.1719,-3.8438 4.3437,-0.8281 8.25,-3.2812 3.9063,-2.4375 6.2656,-6.25 2.375,-3.7969 2.375,-8.2032 0,-5.5156 -3.0312,-9.98432 -3.0157,-4.46876 -7.9531,-6.98438 -4.9376,-2.51562 -10.4063,-2.51562 -4.6875,0 -9.4063,1.79687 -4.7031,1.78125 -7.70308,5.34375 -3,3.5625 -3,8.5469 0,2.4844 1.65626,4.1406 1.65624,1.6562 4.15622,1.6562 1.6094,0 2.9532,-0.75 1.3437,-0.75 2.0937,-2.125 0.7656,-1.3593 0.7656,-2.9218 0,-2.4532 -1.7187,-4.1094 -1.7032,-1.65625 -4.0938,-1.65625 z"
               id="Cmr10-33"
               inkscape:connector-curvature="0"
               style="stroke-linecap:butt;stroke-linejoin:round" />
          </defs>
          <g
             transform="matrix(0.2,0,0,-0.2,481.6,168.3875)"
             id="g9000"
             style="stroke-linecap:butt;stroke-linejoin:round">
            <use
               transform="translate(0,0.890625)"
               xlink:href="#Cmmi10-bf"
               id="use9002"
               style="stroke-linecap:butt;stroke-linejoin:round"
               x="0"
               y="0"
               width="576"
               height="432" />
            <use
               transform="matrix(0.7,0,0,0.7,43.701172,-24.61875)"
               xlink:href="#Cmr10-33"
               id="use9004"
               style="stroke-linecap:butt;stroke-linejoin:round"
               x="0"
               y="0"
               width="576"
               height="432" />
          </g>
        </g>
        <g
           id="line2d_64"
           style="stroke-linecap:butt;stroke-linejoin:round"
           transform="translate(402.41096,87.780822)">
          <path
             d="m 431.6,192.184 28,0"
             style="fill:none;stroke:#ff0000;stroke-width:2;stroke-linecap:square;stroke-linejoin:round"
             id="path9007"
             inkscape:connector-curvature="0" />
        </g>
        <g
           id="line2d_65"
           style="stroke-linecap:butt;stroke-linejoin:round" />
        <g
           id="text_23"
           style="stroke-linecap:butt;stroke-linejoin:round"
           transform="translate(402.41096,87.780822)">
          <!-- $\tau_2$ -->
          <defs
             id="defs9011">
            <path
               d="m 4.98438,0 0,2.6875 q 0,0.25 0.1875,0.53125 L 20.7031,20.4062 q 3.5157,3.8126 5.7031,6.3907 2.2032,2.5937 4.3438,5.9687 2.1562,3.375 3.4062,6.8594 1.25,3.4844 1.25,7.3906 0,4.1094 -1.5156,7.8438 -1.5156,3.7344 -4.5156,5.9844 -3,2.25 -7.25,2.25 -4.3438,0 -7.8125,-2.625 -3.4687,-2.6094 -4.89062,-6.75 0.39062,0.0937 1.07812,0.0937 2.25,0 3.8281,-1.5156 1.5938,-1.5157 1.5938,-3.9063 0,-2.2968 -1.5938,-3.8906 Q 12.75,42.9219 10.5,42.9219 q -2.34375,0 -3.9375,1.625 -1.57812,1.6406 -1.57812,3.8437 0,3.7656 1.40624,7.0469 1.42188,3.2969 4.07818,5.8594 2.6718,2.5781 6.0156,3.9375 3.3437,1.375 7.0937,1.375 5.7188,0 10.6407,-2.4219 4.9374,-2.4219 7.8124,-6.8437 2.8907,-4.4063 2.8907,-10.3282 0,-4.3437 -1.9063,-8.25 -1.9062,-3.9062 -4.8906,-7.1094 -2.9688,-3.1874 -7.6094,-7.25 Q 25.875,20.3594 24.4219,19 L 13.0938,8.10938 l 9.6093,0 q 7.0781,0 11.8438,0.10937 4.7656,0.125 5.0469,0.375 Q 40.7656,9.85938 42,17.8281 l 2.9219,0 L 42.0938,0 z"
               id="Cmr10-32"
               inkscape:connector-curvature="0"
               style="stroke-linecap:butt;stroke-linejoin:round" />
          </defs>
          <g
             transform="matrix(0.2,0,0,-0.2,481.6,199.18437)"
             id="g9014"
             style="stroke-linecap:butt;stroke-linejoin:round">
            <use
               transform="translate(0,0.890625)"
               xlink:href="#Cmmi10-bf"
               id="use9016"
               style="stroke-linecap:butt;stroke-linejoin:round"
               x="0"
               y="0"
               width="576"
               height="432" />
            <use
               transform="matrix(0.7,0,0,0.7,43.701172,-24.61875)"
               xlink:href="#Cmr10-32"
               id="use9018"
               style="stroke-linecap:butt;stroke-linejoin:round"
               x="0"
               y="0"
               width="576"
               height="432" />
          </g>
        </g>
        <g
           id="line2d_66"
           style="stroke-linecap:butt;stroke-linejoin:round"
           transform="translate(402.41096,87.780822)">
          <path
             d="m 431.6,222.581 28,0"
             style="fill:none;stroke:#008000;stroke-width:2;stroke-linecap:square;stroke-linejoin:round"
             id="path9021"
             inkscape:connector-curvature="0" />
        </g>
        <g
           id="line2d_67"
           style="stroke-linecap:butt;stroke-linejoin:round" />
        <g
           id="text_24"
           style="stroke-linecap:butt;stroke-linejoin:round"
           transform="translate(402.41096,87.780822)">
          <!-- $\tau_1$ -->
          <defs
             id="defs9025">
            <path
               d="m 9.28125,0 0,3.51562 q 12.49995,0 12.49995,3.17188 l 0,52.5 q -5.1718,-2.5 -13.0937,-2.5 l 0,3.5156 q 12.2656,0 18.5156,6.4063 l 1.4063,0 q 0.3437,0 0.6562,-0.2813 0.3282,-0.2656 0.3282,-0.6093 l 0,-59.0313 q 0,-3.17188 12.5,-3.17188 L 42.0938,0 z"
               id="Cmr10-31"
               inkscape:connector-curvature="0"
               style="stroke-linecap:butt;stroke-linejoin:round" />
          </defs>
          <g
             transform="matrix(0.2,0,0,-0.2,481.6,229.58125)"
             id="g9028"
             style="stroke-linecap:butt;stroke-linejoin:round">
            <use
               transform="translate(0,0.890625)"
               xlink:href="#Cmmi10-bf"
               id="use9030"
               style="stroke-linecap:butt;stroke-linejoin:round"
               x="0"
               y="0"
               width="576"
               height="432" />
            <use
               transform="matrix(0.7,0,0,0.7,43.701172,-24.61875)"
               xlink:href="#Cmr10-31"
               id="use9032"
               style="stroke-linecap:butt;stroke-linejoin:round"
               x="0"
               y="0"
               width="576"
               height="432" />
          </g>
        </g>
        <g
           id="line2d_68"
           style="stroke-linecap:butt;stroke-linejoin:round"
           transform="translate(402.41096,87.780822)">
          <path
             d="m 431.6,252.978 28,0"
             style="fill:none;stroke:#0000ff;stroke-width:2;stroke-linecap:square;stroke-linejoin:round"
             id="path9035"
             inkscape:connector-curvature="0" />
        </g>
        <g
           id="line2d_69"
           style="stroke-linecap:butt;stroke-linejoin:round" />
        <g
           id="text_25"
           style="stroke-linecap:butt;stroke-linejoin:round"
           transform="translate(402.41096,87.780822)">
          <!-- $\tau_0$ -->
          <defs
             id="defs9039">
            <path
               d="m 25,-2.20312 q -12.25,0 -16.67188,10.07812 -4.42187,10.0938 -4.42187,24.0156 0,8.6875 1.57813,16.3438 Q 7.07812,55.9062 11.7812,61.25 16.5,66.6094 25,66.6094 q 6.5938,0 10.7812,-3.2344 4.2032,-3.2188 6.4063,-8.3281 2.2031,-5.0938 3,-10.9375 Q 46,38.2812 46,31.8906 46,23.2969 44.4062,15.7969 42.8281,8.29688 38.1875,3.04688 33.5469,-2.20312 25,-2.20312 m 0,2.593745 q 5.5625,0 8.2969,5.703125 2.7343,5.71875 3.375,12.65625 0.6406,6.9375 0.6406,14.75 0,7.5156 -0.6406,13.8594 -0.6407,6.3594 -3.3594,11.5 -2.7031,5.1562 -8.3125,5.1562 -5.6562,0 -8.3906,-5.1875 -2.7344,-5.1719 -3.375,-11.5 -0.6406,-6.3125 -0.6406,-13.8281 0,-5.5625 0.2656,-10.5 0.2812,-4.9375 1.4531,-10.1875 1.1719,-5.25 3.7813,-8.84375 Q 20.7031,0.390625 25,0.390625"
               id="Cmr10-30"
               inkscape:connector-curvature="0"
               style="stroke-linecap:butt;stroke-linejoin:round" />
          </defs>
          <g
             transform="matrix(0.2,0,0,-0.2,481.6,259.97812)"
             id="g9042"
             style="stroke-linecap:butt;stroke-linejoin:round">
            <use
               transform="translate(0,0.890625)"
               xlink:href="#Cmmi10-bf"
               id="use9044"
               style="stroke-linecap:butt;stroke-linejoin:round"
               x="0"
               y="0"
               width="576"
               height="432" />
            <use
               transform="matrix(0.7,0,0,0.7,43.701172,-24.61875)"
               xlink:href="#Cmr10-30"
               id="use9046"
               style="stroke-linecap:butt;stroke-linejoin:round"
               x="0"
               y="0"
               width="576"
               height="432" />
          </g>
        </g>
      </g>
    </g>
  </g>
  <defs
     id="defs9048">
    <clipPath
       id="p7ff5b81e1d">
      <rect
         height="345.6"
         width="446.4"
         x="72.0"
         y="43.2"
         id="rect9051" />
    </clipPath>
  </defs>
</svg>
